%TF.GenerationSoftware,KiCad,Pcbnew,7.0.5-7.0.5~ubuntu22.04.1*%
%TF.CreationDate,2023-06-06T15:21:38+02:00*%
%TF.ProjectId,sao_eprom_v2,73616f5f-6570-4726-9f6d-5f76322e6b69,rev?*%
%TF.SameCoordinates,Original*%
%TF.FileFunction,Legend,Top*%
%TF.FilePolarity,Positive*%
%FSLAX46Y46*%
G04 Gerber Fmt 4.6, Leading zero omitted, Abs format (unit mm)*
G04 Created by KiCad (PCBNEW 7.0.5-7.0.5~ubuntu22.04.1) date 2023-06-06 15:21:38*
%MOMM*%
%LPD*%
G01*
G04 APERTURE LIST*
%ADD10C,0.325000*%
%ADD11C,0.100000*%
%ADD12C,0.120000*%
G04 APERTURE END LIST*
D10*
X144162500Y-65350000D02*
G75*
G03*
X144162500Y-65350000I-162500J0D01*
G01*
D11*
X131725000Y-30976109D02*
X131725000Y-30476109D01*
X131725000Y-30476109D02*
X131844048Y-30476109D01*
X131844048Y-30476109D02*
X131915476Y-30499919D01*
X131915476Y-30499919D02*
X131963095Y-30547538D01*
X131963095Y-30547538D02*
X131986905Y-30595157D01*
X131986905Y-30595157D02*
X132010714Y-30690395D01*
X132010714Y-30690395D02*
X132010714Y-30761823D01*
X132010714Y-30761823D02*
X131986905Y-30857061D01*
X131986905Y-30857061D02*
X131963095Y-30904680D01*
X131963095Y-30904680D02*
X131915476Y-30952300D01*
X131915476Y-30952300D02*
X131844048Y-30976109D01*
X131844048Y-30976109D02*
X131725000Y-30976109D01*
X132201191Y-30833252D02*
X132439286Y-30833252D01*
X132153572Y-30976109D02*
X132320238Y-30476109D01*
X132320238Y-30476109D02*
X132486905Y-30976109D01*
X132582143Y-30476109D02*
X132867857Y-30476109D01*
X132725000Y-30976109D02*
X132725000Y-30476109D01*
X133010714Y-30833252D02*
X133248809Y-30833252D01*
X132963095Y-30976109D02*
X133129761Y-30476109D01*
X133129761Y-30476109D02*
X133296428Y-30976109D01*
X134389999Y-43436228D02*
X134389999Y-42776228D01*
X134830000Y-42776228D02*
X134955714Y-42776228D01*
X134955714Y-42776228D02*
X135018571Y-42807657D01*
X135018571Y-42807657D02*
X135081428Y-42870514D01*
X135081428Y-42870514D02*
X135112857Y-42996228D01*
X135112857Y-42996228D02*
X135112857Y-43216228D01*
X135112857Y-43216228D02*
X135081428Y-43341942D01*
X135081428Y-43341942D02*
X135018571Y-43404800D01*
X135018571Y-43404800D02*
X134955714Y-43436228D01*
X134955714Y-43436228D02*
X134830000Y-43436228D01*
X134830000Y-43436228D02*
X134767143Y-43404800D01*
X134767143Y-43404800D02*
X134704285Y-43341942D01*
X134704285Y-43341942D02*
X134672857Y-43216228D01*
X134672857Y-43216228D02*
X134672857Y-42996228D01*
X134672857Y-42996228D02*
X134704285Y-42870514D01*
X134704285Y-42870514D02*
X134767143Y-42807657D01*
X134767143Y-42807657D02*
X134830000Y-42776228D01*
X135364286Y-42839085D02*
X135395714Y-42807657D01*
X135395714Y-42807657D02*
X135458572Y-42776228D01*
X135458572Y-42776228D02*
X135615714Y-42776228D01*
X135615714Y-42776228D02*
X135678572Y-42807657D01*
X135678572Y-42807657D02*
X135710000Y-42839085D01*
X135710000Y-42839085D02*
X135741429Y-42901942D01*
X135741429Y-42901942D02*
X135741429Y-42964800D01*
X135741429Y-42964800D02*
X135710000Y-43059085D01*
X135710000Y-43059085D02*
X135332857Y-43436228D01*
X135332857Y-43436228D02*
X135741429Y-43436228D01*
X131698572Y-37632600D02*
X131792858Y-37664028D01*
X131792858Y-37664028D02*
X131950000Y-37664028D01*
X131950000Y-37664028D02*
X132012858Y-37632600D01*
X132012858Y-37632600D02*
X132044286Y-37601171D01*
X132044286Y-37601171D02*
X132075715Y-37538314D01*
X132075715Y-37538314D02*
X132075715Y-37475457D01*
X132075715Y-37475457D02*
X132044286Y-37412600D01*
X132044286Y-37412600D02*
X132012858Y-37381171D01*
X132012858Y-37381171D02*
X131950000Y-37349742D01*
X131950000Y-37349742D02*
X131824286Y-37318314D01*
X131824286Y-37318314D02*
X131761429Y-37286885D01*
X131761429Y-37286885D02*
X131730000Y-37255457D01*
X131730000Y-37255457D02*
X131698572Y-37192600D01*
X131698572Y-37192600D02*
X131698572Y-37129742D01*
X131698572Y-37129742D02*
X131730000Y-37066885D01*
X131730000Y-37066885D02*
X131761429Y-37035457D01*
X131761429Y-37035457D02*
X131824286Y-37004028D01*
X131824286Y-37004028D02*
X131981429Y-37004028D01*
X131981429Y-37004028D02*
X132075715Y-37035457D01*
X132358571Y-37664028D02*
X132358571Y-37004028D01*
X132358571Y-37004028D02*
X132515714Y-37004028D01*
X132515714Y-37004028D02*
X132610000Y-37035457D01*
X132610000Y-37035457D02*
X132672857Y-37098314D01*
X132672857Y-37098314D02*
X132704286Y-37161171D01*
X132704286Y-37161171D02*
X132735714Y-37286885D01*
X132735714Y-37286885D02*
X132735714Y-37381171D01*
X132735714Y-37381171D02*
X132704286Y-37506885D01*
X132704286Y-37506885D02*
X132672857Y-37569742D01*
X132672857Y-37569742D02*
X132610000Y-37632600D01*
X132610000Y-37632600D02*
X132515714Y-37664028D01*
X132515714Y-37664028D02*
X132358571Y-37664028D01*
X132987143Y-37475457D02*
X133301429Y-37475457D01*
X132924286Y-37664028D02*
X133144286Y-37004028D01*
X133144286Y-37004028D02*
X133364286Y-37664028D01*
X139726109Y-33869047D02*
X139226109Y-33869047D01*
X139226109Y-33869047D02*
X139226109Y-33749999D01*
X139226109Y-33749999D02*
X139249919Y-33678571D01*
X139249919Y-33678571D02*
X139297538Y-33630952D01*
X139297538Y-33630952D02*
X139345157Y-33607142D01*
X139345157Y-33607142D02*
X139440395Y-33583333D01*
X139440395Y-33583333D02*
X139511823Y-33583333D01*
X139511823Y-33583333D02*
X139607061Y-33607142D01*
X139607061Y-33607142D02*
X139654680Y-33630952D01*
X139654680Y-33630952D02*
X139702300Y-33678571D01*
X139702300Y-33678571D02*
X139726109Y-33749999D01*
X139726109Y-33749999D02*
X139726109Y-33869047D01*
X139464204Y-33369047D02*
X139464204Y-33202380D01*
X139726109Y-33130952D02*
X139726109Y-33369047D01*
X139726109Y-33369047D02*
X139226109Y-33369047D01*
X139226109Y-33369047D02*
X139226109Y-33130952D01*
X139464204Y-32749999D02*
X139488014Y-32678571D01*
X139488014Y-32678571D02*
X139511823Y-32654761D01*
X139511823Y-32654761D02*
X139559442Y-32630952D01*
X139559442Y-32630952D02*
X139630871Y-32630952D01*
X139630871Y-32630952D02*
X139678490Y-32654761D01*
X139678490Y-32654761D02*
X139702300Y-32678571D01*
X139702300Y-32678571D02*
X139726109Y-32726190D01*
X139726109Y-32726190D02*
X139726109Y-32916666D01*
X139726109Y-32916666D02*
X139226109Y-32916666D01*
X139226109Y-32916666D02*
X139226109Y-32749999D01*
X139226109Y-32749999D02*
X139249919Y-32702380D01*
X139249919Y-32702380D02*
X139273728Y-32678571D01*
X139273728Y-32678571D02*
X139321347Y-32654761D01*
X139321347Y-32654761D02*
X139368966Y-32654761D01*
X139368966Y-32654761D02*
X139416585Y-32678571D01*
X139416585Y-32678571D02*
X139440395Y-32702380D01*
X139440395Y-32702380D02*
X139464204Y-32749999D01*
X139464204Y-32749999D02*
X139464204Y-32916666D01*
X139226109Y-32416666D02*
X139630871Y-32416666D01*
X139630871Y-32416666D02*
X139678490Y-32392856D01*
X139678490Y-32392856D02*
X139702300Y-32369047D01*
X139702300Y-32369047D02*
X139726109Y-32321428D01*
X139726109Y-32321428D02*
X139726109Y-32226190D01*
X139726109Y-32226190D02*
X139702300Y-32178571D01*
X139702300Y-32178571D02*
X139678490Y-32154761D01*
X139678490Y-32154761D02*
X139630871Y-32130952D01*
X139630871Y-32130952D02*
X139226109Y-32130952D01*
X139249919Y-31630951D02*
X139226109Y-31678570D01*
X139226109Y-31678570D02*
X139226109Y-31749999D01*
X139226109Y-31749999D02*
X139249919Y-31821427D01*
X139249919Y-31821427D02*
X139297538Y-31869046D01*
X139297538Y-31869046D02*
X139345157Y-31892856D01*
X139345157Y-31892856D02*
X139440395Y-31916665D01*
X139440395Y-31916665D02*
X139511823Y-31916665D01*
X139511823Y-31916665D02*
X139607061Y-31892856D01*
X139607061Y-31892856D02*
X139654680Y-31869046D01*
X139654680Y-31869046D02*
X139702300Y-31821427D01*
X139702300Y-31821427D02*
X139726109Y-31749999D01*
X139726109Y-31749999D02*
X139726109Y-31702380D01*
X139726109Y-31702380D02*
X139702300Y-31630951D01*
X139702300Y-31630951D02*
X139678490Y-31607142D01*
X139678490Y-31607142D02*
X139511823Y-31607142D01*
X139511823Y-31607142D02*
X139511823Y-31702380D01*
X134389999Y-37664028D02*
X134389999Y-37004028D01*
X134830000Y-37004028D02*
X134955714Y-37004028D01*
X134955714Y-37004028D02*
X135018571Y-37035457D01*
X135018571Y-37035457D02*
X135081428Y-37098314D01*
X135081428Y-37098314D02*
X135112857Y-37224028D01*
X135112857Y-37224028D02*
X135112857Y-37444028D01*
X135112857Y-37444028D02*
X135081428Y-37569742D01*
X135081428Y-37569742D02*
X135018571Y-37632600D01*
X135018571Y-37632600D02*
X134955714Y-37664028D01*
X134955714Y-37664028D02*
X134830000Y-37664028D01*
X134830000Y-37664028D02*
X134767143Y-37632600D01*
X134767143Y-37632600D02*
X134704285Y-37569742D01*
X134704285Y-37569742D02*
X134672857Y-37444028D01*
X134672857Y-37444028D02*
X134672857Y-37224028D01*
X134672857Y-37224028D02*
X134704285Y-37098314D01*
X134704285Y-37098314D02*
X134767143Y-37035457D01*
X134767143Y-37035457D02*
X134830000Y-37004028D01*
X135741429Y-37664028D02*
X135364286Y-37664028D01*
X135552857Y-37664028D02*
X135552857Y-37004028D01*
X135552857Y-37004028D02*
X135490000Y-37098314D01*
X135490000Y-37098314D02*
X135427143Y-37161171D01*
X135427143Y-37161171D02*
X135364286Y-37192600D01*
X137227380Y-30928490D02*
X137203571Y-30952300D01*
X137203571Y-30952300D02*
X137132142Y-30976109D01*
X137132142Y-30976109D02*
X137084523Y-30976109D01*
X137084523Y-30976109D02*
X137013095Y-30952300D01*
X137013095Y-30952300D02*
X136965476Y-30904680D01*
X136965476Y-30904680D02*
X136941666Y-30857061D01*
X136941666Y-30857061D02*
X136917857Y-30761823D01*
X136917857Y-30761823D02*
X136917857Y-30690395D01*
X136917857Y-30690395D02*
X136941666Y-30595157D01*
X136941666Y-30595157D02*
X136965476Y-30547538D01*
X136965476Y-30547538D02*
X137013095Y-30499919D01*
X137013095Y-30499919D02*
X137084523Y-30476109D01*
X137084523Y-30476109D02*
X137132142Y-30476109D01*
X137132142Y-30476109D02*
X137203571Y-30499919D01*
X137203571Y-30499919D02*
X137227380Y-30523728D01*
X137679761Y-30976109D02*
X137441666Y-30976109D01*
X137441666Y-30976109D02*
X137441666Y-30476109D01*
X137846428Y-30976109D02*
X137846428Y-30476109D01*
X138132142Y-30976109D02*
X137917857Y-30690395D01*
X138132142Y-30476109D02*
X137846428Y-30761823D01*
X134619047Y-30499919D02*
X134571428Y-30476109D01*
X134571428Y-30476109D02*
X134499999Y-30476109D01*
X134499999Y-30476109D02*
X134428571Y-30499919D01*
X134428571Y-30499919D02*
X134380952Y-30547538D01*
X134380952Y-30547538D02*
X134357142Y-30595157D01*
X134357142Y-30595157D02*
X134333333Y-30690395D01*
X134333333Y-30690395D02*
X134333333Y-30761823D01*
X134333333Y-30761823D02*
X134357142Y-30857061D01*
X134357142Y-30857061D02*
X134380952Y-30904680D01*
X134380952Y-30904680D02*
X134428571Y-30952300D01*
X134428571Y-30952300D02*
X134499999Y-30976109D01*
X134499999Y-30976109D02*
X134547618Y-30976109D01*
X134547618Y-30976109D02*
X134619047Y-30952300D01*
X134619047Y-30952300D02*
X134642856Y-30928490D01*
X134642856Y-30928490D02*
X134642856Y-30761823D01*
X134642856Y-30761823D02*
X134547618Y-30761823D01*
X134857142Y-30976109D02*
X134857142Y-30476109D01*
X134857142Y-30476109D02*
X135142856Y-30976109D01*
X135142856Y-30976109D02*
X135142856Y-30476109D01*
X135380952Y-30976109D02*
X135380952Y-30476109D01*
X135380952Y-30476109D02*
X135500000Y-30476109D01*
X135500000Y-30476109D02*
X135571428Y-30499919D01*
X135571428Y-30499919D02*
X135619047Y-30547538D01*
X135619047Y-30547538D02*
X135642857Y-30595157D01*
X135642857Y-30595157D02*
X135666666Y-30690395D01*
X135666666Y-30690395D02*
X135666666Y-30761823D01*
X135666666Y-30761823D02*
X135642857Y-30857061D01*
X135642857Y-30857061D02*
X135619047Y-30904680D01*
X135619047Y-30904680D02*
X135571428Y-30952300D01*
X135571428Y-30952300D02*
X135500000Y-30976109D01*
X135500000Y-30976109D02*
X135380952Y-30976109D01*
X129472143Y-42807657D02*
X129409286Y-42776228D01*
X129409286Y-42776228D02*
X129315000Y-42776228D01*
X129315000Y-42776228D02*
X129220714Y-42807657D01*
X129220714Y-42807657D02*
X129157857Y-42870514D01*
X129157857Y-42870514D02*
X129126428Y-42933371D01*
X129126428Y-42933371D02*
X129095000Y-43059085D01*
X129095000Y-43059085D02*
X129095000Y-43153371D01*
X129095000Y-43153371D02*
X129126428Y-43279085D01*
X129126428Y-43279085D02*
X129157857Y-43341942D01*
X129157857Y-43341942D02*
X129220714Y-43404800D01*
X129220714Y-43404800D02*
X129315000Y-43436228D01*
X129315000Y-43436228D02*
X129377857Y-43436228D01*
X129377857Y-43436228D02*
X129472143Y-43404800D01*
X129472143Y-43404800D02*
X129503571Y-43373371D01*
X129503571Y-43373371D02*
X129503571Y-43153371D01*
X129503571Y-43153371D02*
X129377857Y-43153371D01*
X129786428Y-43436228D02*
X129786428Y-42776228D01*
X129786428Y-42776228D02*
X130163571Y-43436228D01*
X130163571Y-43436228D02*
X130163571Y-42776228D01*
X130477857Y-43436228D02*
X130477857Y-42776228D01*
X130477857Y-42776228D02*
X130635000Y-42776228D01*
X130635000Y-42776228D02*
X130729286Y-42807657D01*
X130729286Y-42807657D02*
X130792143Y-42870514D01*
X130792143Y-42870514D02*
X130823572Y-42933371D01*
X130823572Y-42933371D02*
X130855000Y-43059085D01*
X130855000Y-43059085D02*
X130855000Y-43153371D01*
X130855000Y-43153371D02*
X130823572Y-43279085D01*
X130823572Y-43279085D02*
X130792143Y-43341942D01*
X130792143Y-43341942D02*
X130729286Y-43404800D01*
X130729286Y-43404800D02*
X130635000Y-43436228D01*
X130635000Y-43436228D02*
X130477857Y-43436228D01*
X131714286Y-43404800D02*
X131808572Y-43436228D01*
X131808572Y-43436228D02*
X131965714Y-43436228D01*
X131965714Y-43436228D02*
X132028572Y-43404800D01*
X132028572Y-43404800D02*
X132060000Y-43373371D01*
X132060000Y-43373371D02*
X132091429Y-43310514D01*
X132091429Y-43310514D02*
X132091429Y-43247657D01*
X132091429Y-43247657D02*
X132060000Y-43184800D01*
X132060000Y-43184800D02*
X132028572Y-43153371D01*
X132028572Y-43153371D02*
X131965714Y-43121942D01*
X131965714Y-43121942D02*
X131840000Y-43090514D01*
X131840000Y-43090514D02*
X131777143Y-43059085D01*
X131777143Y-43059085D02*
X131745714Y-43027657D01*
X131745714Y-43027657D02*
X131714286Y-42964800D01*
X131714286Y-42964800D02*
X131714286Y-42901942D01*
X131714286Y-42901942D02*
X131745714Y-42839085D01*
X131745714Y-42839085D02*
X131777143Y-42807657D01*
X131777143Y-42807657D02*
X131840000Y-42776228D01*
X131840000Y-42776228D02*
X131997143Y-42776228D01*
X131997143Y-42776228D02*
X132091429Y-42807657D01*
X132751428Y-43373371D02*
X132720000Y-43404800D01*
X132720000Y-43404800D02*
X132625714Y-43436228D01*
X132625714Y-43436228D02*
X132562857Y-43436228D01*
X132562857Y-43436228D02*
X132468571Y-43404800D01*
X132468571Y-43404800D02*
X132405714Y-43341942D01*
X132405714Y-43341942D02*
X132374285Y-43279085D01*
X132374285Y-43279085D02*
X132342857Y-43153371D01*
X132342857Y-43153371D02*
X132342857Y-43059085D01*
X132342857Y-43059085D02*
X132374285Y-42933371D01*
X132374285Y-42933371D02*
X132405714Y-42870514D01*
X132405714Y-42870514D02*
X132468571Y-42807657D01*
X132468571Y-42807657D02*
X132562857Y-42776228D01*
X132562857Y-42776228D02*
X132625714Y-42776228D01*
X132625714Y-42776228D02*
X132720000Y-42807657D01*
X132720000Y-42807657D02*
X132751428Y-42839085D01*
X133348571Y-43436228D02*
X133034285Y-43436228D01*
X133034285Y-43436228D02*
X133034285Y-42776228D01*
X128812143Y-37412600D02*
X129315001Y-37412600D01*
X129063572Y-37664028D02*
X129063572Y-37161171D01*
X129566429Y-37004028D02*
X129975001Y-37004028D01*
X129975001Y-37004028D02*
X129755001Y-37255457D01*
X129755001Y-37255457D02*
X129849286Y-37255457D01*
X129849286Y-37255457D02*
X129912144Y-37286885D01*
X129912144Y-37286885D02*
X129943572Y-37318314D01*
X129943572Y-37318314D02*
X129975001Y-37381171D01*
X129975001Y-37381171D02*
X129975001Y-37538314D01*
X129975001Y-37538314D02*
X129943572Y-37601171D01*
X129943572Y-37601171D02*
X129912144Y-37632600D01*
X129912144Y-37632600D02*
X129849286Y-37664028D01*
X129849286Y-37664028D02*
X129660715Y-37664028D01*
X129660715Y-37664028D02*
X129597858Y-37632600D01*
X129597858Y-37632600D02*
X129566429Y-37601171D01*
X130163572Y-37004028D02*
X130383572Y-37664028D01*
X130383572Y-37664028D02*
X130603572Y-37004028D01*
X130760714Y-37004028D02*
X131169286Y-37004028D01*
X131169286Y-37004028D02*
X130949286Y-37255457D01*
X130949286Y-37255457D02*
X131043571Y-37255457D01*
X131043571Y-37255457D02*
X131106429Y-37286885D01*
X131106429Y-37286885D02*
X131137857Y-37318314D01*
X131137857Y-37318314D02*
X131169286Y-37381171D01*
X131169286Y-37381171D02*
X131169286Y-37538314D01*
X131169286Y-37538314D02*
X131137857Y-37601171D01*
X131137857Y-37601171D02*
X131106429Y-37632600D01*
X131106429Y-37632600D02*
X131043571Y-37664028D01*
X131043571Y-37664028D02*
X130855000Y-37664028D01*
X130855000Y-37664028D02*
X130792143Y-37632600D01*
X130792143Y-37632600D02*
X130760714Y-37601171D01*
%TO.C,D1*%
X154630952Y-47476109D02*
X154630952Y-46976109D01*
X154630952Y-46976109D02*
X154750000Y-46976109D01*
X154750000Y-46976109D02*
X154821428Y-46999919D01*
X154821428Y-46999919D02*
X154869047Y-47047538D01*
X154869047Y-47047538D02*
X154892857Y-47095157D01*
X154892857Y-47095157D02*
X154916666Y-47190395D01*
X154916666Y-47190395D02*
X154916666Y-47261823D01*
X154916666Y-47261823D02*
X154892857Y-47357061D01*
X154892857Y-47357061D02*
X154869047Y-47404680D01*
X154869047Y-47404680D02*
X154821428Y-47452300D01*
X154821428Y-47452300D02*
X154750000Y-47476109D01*
X154750000Y-47476109D02*
X154630952Y-47476109D01*
X155392857Y-47476109D02*
X155107143Y-47476109D01*
X155250000Y-47476109D02*
X155250000Y-46976109D01*
X155250000Y-46976109D02*
X155202381Y-47047538D01*
X155202381Y-47047538D02*
X155154762Y-47095157D01*
X155154762Y-47095157D02*
X155107143Y-47118966D01*
%TO.C,D3*%
X159630952Y-47476109D02*
X159630952Y-46976109D01*
X159630952Y-46976109D02*
X159750000Y-46976109D01*
X159750000Y-46976109D02*
X159821428Y-46999919D01*
X159821428Y-46999919D02*
X159869047Y-47047538D01*
X159869047Y-47047538D02*
X159892857Y-47095157D01*
X159892857Y-47095157D02*
X159916666Y-47190395D01*
X159916666Y-47190395D02*
X159916666Y-47261823D01*
X159916666Y-47261823D02*
X159892857Y-47357061D01*
X159892857Y-47357061D02*
X159869047Y-47404680D01*
X159869047Y-47404680D02*
X159821428Y-47452300D01*
X159821428Y-47452300D02*
X159750000Y-47476109D01*
X159750000Y-47476109D02*
X159630952Y-47476109D01*
X160083333Y-46976109D02*
X160392857Y-46976109D01*
X160392857Y-46976109D02*
X160226190Y-47166585D01*
X160226190Y-47166585D02*
X160297619Y-47166585D01*
X160297619Y-47166585D02*
X160345238Y-47190395D01*
X160345238Y-47190395D02*
X160369047Y-47214204D01*
X160369047Y-47214204D02*
X160392857Y-47261823D01*
X160392857Y-47261823D02*
X160392857Y-47380871D01*
X160392857Y-47380871D02*
X160369047Y-47428490D01*
X160369047Y-47428490D02*
X160345238Y-47452300D01*
X160345238Y-47452300D02*
X160297619Y-47476109D01*
X160297619Y-47476109D02*
X160154762Y-47476109D01*
X160154762Y-47476109D02*
X160107143Y-47452300D01*
X160107143Y-47452300D02*
X160083333Y-47428490D01*
%TO.C,R4*%
X127726109Y-66583333D02*
X127488014Y-66749999D01*
X127726109Y-66869047D02*
X127226109Y-66869047D01*
X127226109Y-66869047D02*
X127226109Y-66678571D01*
X127226109Y-66678571D02*
X127249919Y-66630952D01*
X127249919Y-66630952D02*
X127273728Y-66607142D01*
X127273728Y-66607142D02*
X127321347Y-66583333D01*
X127321347Y-66583333D02*
X127392776Y-66583333D01*
X127392776Y-66583333D02*
X127440395Y-66607142D01*
X127440395Y-66607142D02*
X127464204Y-66630952D01*
X127464204Y-66630952D02*
X127488014Y-66678571D01*
X127488014Y-66678571D02*
X127488014Y-66869047D01*
X127392776Y-66154761D02*
X127726109Y-66154761D01*
X127202300Y-66273809D02*
X127559442Y-66392856D01*
X127559442Y-66392856D02*
X127559442Y-66083333D01*
%TO.C,U8*%
X138219047Y-84126109D02*
X138219047Y-84530871D01*
X138219047Y-84530871D02*
X138242857Y-84578490D01*
X138242857Y-84578490D02*
X138266666Y-84602300D01*
X138266666Y-84602300D02*
X138314285Y-84626109D01*
X138314285Y-84626109D02*
X138409523Y-84626109D01*
X138409523Y-84626109D02*
X138457142Y-84602300D01*
X138457142Y-84602300D02*
X138480952Y-84578490D01*
X138480952Y-84578490D02*
X138504761Y-84530871D01*
X138504761Y-84530871D02*
X138504761Y-84126109D01*
X138814286Y-84340395D02*
X138766667Y-84316585D01*
X138766667Y-84316585D02*
X138742857Y-84292776D01*
X138742857Y-84292776D02*
X138719048Y-84245157D01*
X138719048Y-84245157D02*
X138719048Y-84221347D01*
X138719048Y-84221347D02*
X138742857Y-84173728D01*
X138742857Y-84173728D02*
X138766667Y-84149919D01*
X138766667Y-84149919D02*
X138814286Y-84126109D01*
X138814286Y-84126109D02*
X138909524Y-84126109D01*
X138909524Y-84126109D02*
X138957143Y-84149919D01*
X138957143Y-84149919D02*
X138980952Y-84173728D01*
X138980952Y-84173728D02*
X139004762Y-84221347D01*
X139004762Y-84221347D02*
X139004762Y-84245157D01*
X139004762Y-84245157D02*
X138980952Y-84292776D01*
X138980952Y-84292776D02*
X138957143Y-84316585D01*
X138957143Y-84316585D02*
X138909524Y-84340395D01*
X138909524Y-84340395D02*
X138814286Y-84340395D01*
X138814286Y-84340395D02*
X138766667Y-84364204D01*
X138766667Y-84364204D02*
X138742857Y-84388014D01*
X138742857Y-84388014D02*
X138719048Y-84435633D01*
X138719048Y-84435633D02*
X138719048Y-84530871D01*
X138719048Y-84530871D02*
X138742857Y-84578490D01*
X138742857Y-84578490D02*
X138766667Y-84602300D01*
X138766667Y-84602300D02*
X138814286Y-84626109D01*
X138814286Y-84626109D02*
X138909524Y-84626109D01*
X138909524Y-84626109D02*
X138957143Y-84602300D01*
X138957143Y-84602300D02*
X138980952Y-84578490D01*
X138980952Y-84578490D02*
X139004762Y-84530871D01*
X139004762Y-84530871D02*
X139004762Y-84435633D01*
X139004762Y-84435633D02*
X138980952Y-84388014D01*
X138980952Y-84388014D02*
X138957143Y-84364204D01*
X138957143Y-84364204D02*
X138909524Y-84340395D01*
%TO.C,C17*%
X146446071Y-63328490D02*
X146422262Y-63352300D01*
X146422262Y-63352300D02*
X146350833Y-63376109D01*
X146350833Y-63376109D02*
X146303214Y-63376109D01*
X146303214Y-63376109D02*
X146231786Y-63352300D01*
X146231786Y-63352300D02*
X146184167Y-63304680D01*
X146184167Y-63304680D02*
X146160357Y-63257061D01*
X146160357Y-63257061D02*
X146136548Y-63161823D01*
X146136548Y-63161823D02*
X146136548Y-63090395D01*
X146136548Y-63090395D02*
X146160357Y-62995157D01*
X146160357Y-62995157D02*
X146184167Y-62947538D01*
X146184167Y-62947538D02*
X146231786Y-62899919D01*
X146231786Y-62899919D02*
X146303214Y-62876109D01*
X146303214Y-62876109D02*
X146350833Y-62876109D01*
X146350833Y-62876109D02*
X146422262Y-62899919D01*
X146422262Y-62899919D02*
X146446071Y-62923728D01*
X146922262Y-63376109D02*
X146636548Y-63376109D01*
X146779405Y-63376109D02*
X146779405Y-62876109D01*
X146779405Y-62876109D02*
X146731786Y-62947538D01*
X146731786Y-62947538D02*
X146684167Y-62995157D01*
X146684167Y-62995157D02*
X146636548Y-63018966D01*
X147088928Y-62876109D02*
X147422261Y-62876109D01*
X147422261Y-62876109D02*
X147207976Y-63376109D01*
%TO.C,R14*%
X153678571Y-38476109D02*
X153511905Y-38238014D01*
X153392857Y-38476109D02*
X153392857Y-37976109D01*
X153392857Y-37976109D02*
X153583333Y-37976109D01*
X153583333Y-37976109D02*
X153630952Y-37999919D01*
X153630952Y-37999919D02*
X153654762Y-38023728D01*
X153654762Y-38023728D02*
X153678571Y-38071347D01*
X153678571Y-38071347D02*
X153678571Y-38142776D01*
X153678571Y-38142776D02*
X153654762Y-38190395D01*
X153654762Y-38190395D02*
X153630952Y-38214204D01*
X153630952Y-38214204D02*
X153583333Y-38238014D01*
X153583333Y-38238014D02*
X153392857Y-38238014D01*
X154154762Y-38476109D02*
X153869048Y-38476109D01*
X154011905Y-38476109D02*
X154011905Y-37976109D01*
X154011905Y-37976109D02*
X153964286Y-38047538D01*
X153964286Y-38047538D02*
X153916667Y-38095157D01*
X153916667Y-38095157D02*
X153869048Y-38118966D01*
X154583333Y-38142776D02*
X154583333Y-38476109D01*
X154464285Y-37952300D02*
X154345238Y-38309442D01*
X154345238Y-38309442D02*
X154654761Y-38309442D01*
%TO.C,C21*%
X141178490Y-70171428D02*
X141202300Y-70195237D01*
X141202300Y-70195237D02*
X141226109Y-70266666D01*
X141226109Y-70266666D02*
X141226109Y-70314285D01*
X141226109Y-70314285D02*
X141202300Y-70385713D01*
X141202300Y-70385713D02*
X141154680Y-70433332D01*
X141154680Y-70433332D02*
X141107061Y-70457142D01*
X141107061Y-70457142D02*
X141011823Y-70480951D01*
X141011823Y-70480951D02*
X140940395Y-70480951D01*
X140940395Y-70480951D02*
X140845157Y-70457142D01*
X140845157Y-70457142D02*
X140797538Y-70433332D01*
X140797538Y-70433332D02*
X140749919Y-70385713D01*
X140749919Y-70385713D02*
X140726109Y-70314285D01*
X140726109Y-70314285D02*
X140726109Y-70266666D01*
X140726109Y-70266666D02*
X140749919Y-70195237D01*
X140749919Y-70195237D02*
X140773728Y-70171428D01*
X140773728Y-69980951D02*
X140749919Y-69957142D01*
X140749919Y-69957142D02*
X140726109Y-69909523D01*
X140726109Y-69909523D02*
X140726109Y-69790475D01*
X140726109Y-69790475D02*
X140749919Y-69742856D01*
X140749919Y-69742856D02*
X140773728Y-69719047D01*
X140773728Y-69719047D02*
X140821347Y-69695237D01*
X140821347Y-69695237D02*
X140868966Y-69695237D01*
X140868966Y-69695237D02*
X140940395Y-69719047D01*
X140940395Y-69719047D02*
X141226109Y-70004761D01*
X141226109Y-70004761D02*
X141226109Y-69695237D01*
X141226109Y-69219047D02*
X141226109Y-69504761D01*
X141226109Y-69361904D02*
X140726109Y-69361904D01*
X140726109Y-69361904D02*
X140797538Y-69409523D01*
X140797538Y-69409523D02*
X140845157Y-69457142D01*
X140845157Y-69457142D02*
X140868966Y-69504761D01*
%TO.C,Q6*%
X146202380Y-47673728D02*
X146154761Y-47649919D01*
X146154761Y-47649919D02*
X146107142Y-47602300D01*
X146107142Y-47602300D02*
X146035714Y-47530871D01*
X146035714Y-47530871D02*
X145988095Y-47507061D01*
X145988095Y-47507061D02*
X145940476Y-47507061D01*
X145964285Y-47626109D02*
X145916666Y-47602300D01*
X145916666Y-47602300D02*
X145869047Y-47554680D01*
X145869047Y-47554680D02*
X145845238Y-47459442D01*
X145845238Y-47459442D02*
X145845238Y-47292776D01*
X145845238Y-47292776D02*
X145869047Y-47197538D01*
X145869047Y-47197538D02*
X145916666Y-47149919D01*
X145916666Y-47149919D02*
X145964285Y-47126109D01*
X145964285Y-47126109D02*
X146059523Y-47126109D01*
X146059523Y-47126109D02*
X146107142Y-47149919D01*
X146107142Y-47149919D02*
X146154761Y-47197538D01*
X146154761Y-47197538D02*
X146178571Y-47292776D01*
X146178571Y-47292776D02*
X146178571Y-47459442D01*
X146178571Y-47459442D02*
X146154761Y-47554680D01*
X146154761Y-47554680D02*
X146107142Y-47602300D01*
X146107142Y-47602300D02*
X146059523Y-47626109D01*
X146059523Y-47626109D02*
X145964285Y-47626109D01*
X146607143Y-47126109D02*
X146511905Y-47126109D01*
X146511905Y-47126109D02*
X146464286Y-47149919D01*
X146464286Y-47149919D02*
X146440476Y-47173728D01*
X146440476Y-47173728D02*
X146392857Y-47245157D01*
X146392857Y-47245157D02*
X146369048Y-47340395D01*
X146369048Y-47340395D02*
X146369048Y-47530871D01*
X146369048Y-47530871D02*
X146392857Y-47578490D01*
X146392857Y-47578490D02*
X146416667Y-47602300D01*
X146416667Y-47602300D02*
X146464286Y-47626109D01*
X146464286Y-47626109D02*
X146559524Y-47626109D01*
X146559524Y-47626109D02*
X146607143Y-47602300D01*
X146607143Y-47602300D02*
X146630952Y-47578490D01*
X146630952Y-47578490D02*
X146654762Y-47530871D01*
X146654762Y-47530871D02*
X146654762Y-47411823D01*
X146654762Y-47411823D02*
X146630952Y-47364204D01*
X146630952Y-47364204D02*
X146607143Y-47340395D01*
X146607143Y-47340395D02*
X146559524Y-47316585D01*
X146559524Y-47316585D02*
X146464286Y-47316585D01*
X146464286Y-47316585D02*
X146416667Y-47340395D01*
X146416667Y-47340395D02*
X146392857Y-47364204D01*
X146392857Y-47364204D02*
X146369048Y-47411823D01*
%TO.C,R6*%
X139916666Y-71726109D02*
X139750000Y-71488014D01*
X139630952Y-71726109D02*
X139630952Y-71226109D01*
X139630952Y-71226109D02*
X139821428Y-71226109D01*
X139821428Y-71226109D02*
X139869047Y-71249919D01*
X139869047Y-71249919D02*
X139892857Y-71273728D01*
X139892857Y-71273728D02*
X139916666Y-71321347D01*
X139916666Y-71321347D02*
X139916666Y-71392776D01*
X139916666Y-71392776D02*
X139892857Y-71440395D01*
X139892857Y-71440395D02*
X139869047Y-71464204D01*
X139869047Y-71464204D02*
X139821428Y-71488014D01*
X139821428Y-71488014D02*
X139630952Y-71488014D01*
X140345238Y-71226109D02*
X140250000Y-71226109D01*
X140250000Y-71226109D02*
X140202381Y-71249919D01*
X140202381Y-71249919D02*
X140178571Y-71273728D01*
X140178571Y-71273728D02*
X140130952Y-71345157D01*
X140130952Y-71345157D02*
X140107143Y-71440395D01*
X140107143Y-71440395D02*
X140107143Y-71630871D01*
X140107143Y-71630871D02*
X140130952Y-71678490D01*
X140130952Y-71678490D02*
X140154762Y-71702300D01*
X140154762Y-71702300D02*
X140202381Y-71726109D01*
X140202381Y-71726109D02*
X140297619Y-71726109D01*
X140297619Y-71726109D02*
X140345238Y-71702300D01*
X140345238Y-71702300D02*
X140369047Y-71678490D01*
X140369047Y-71678490D02*
X140392857Y-71630871D01*
X140392857Y-71630871D02*
X140392857Y-71511823D01*
X140392857Y-71511823D02*
X140369047Y-71464204D01*
X140369047Y-71464204D02*
X140345238Y-71440395D01*
X140345238Y-71440395D02*
X140297619Y-71416585D01*
X140297619Y-71416585D02*
X140202381Y-71416585D01*
X140202381Y-71416585D02*
X140154762Y-71440395D01*
X140154762Y-71440395D02*
X140130952Y-71464204D01*
X140130952Y-71464204D02*
X140107143Y-71511823D01*
%TO.C,D5*%
X148880952Y-31476109D02*
X148880952Y-30976109D01*
X148880952Y-30976109D02*
X149000000Y-30976109D01*
X149000000Y-30976109D02*
X149071428Y-30999919D01*
X149071428Y-30999919D02*
X149119047Y-31047538D01*
X149119047Y-31047538D02*
X149142857Y-31095157D01*
X149142857Y-31095157D02*
X149166666Y-31190395D01*
X149166666Y-31190395D02*
X149166666Y-31261823D01*
X149166666Y-31261823D02*
X149142857Y-31357061D01*
X149142857Y-31357061D02*
X149119047Y-31404680D01*
X149119047Y-31404680D02*
X149071428Y-31452300D01*
X149071428Y-31452300D02*
X149000000Y-31476109D01*
X149000000Y-31476109D02*
X148880952Y-31476109D01*
X149619047Y-30976109D02*
X149380952Y-30976109D01*
X149380952Y-30976109D02*
X149357143Y-31214204D01*
X149357143Y-31214204D02*
X149380952Y-31190395D01*
X149380952Y-31190395D02*
X149428571Y-31166585D01*
X149428571Y-31166585D02*
X149547619Y-31166585D01*
X149547619Y-31166585D02*
X149595238Y-31190395D01*
X149595238Y-31190395D02*
X149619047Y-31214204D01*
X149619047Y-31214204D02*
X149642857Y-31261823D01*
X149642857Y-31261823D02*
X149642857Y-31380871D01*
X149642857Y-31380871D02*
X149619047Y-31428490D01*
X149619047Y-31428490D02*
X149595238Y-31452300D01*
X149595238Y-31452300D02*
X149547619Y-31476109D01*
X149547619Y-31476109D02*
X149428571Y-31476109D01*
X149428571Y-31476109D02*
X149380952Y-31452300D01*
X149380952Y-31452300D02*
X149357143Y-31428490D01*
%TO.C,U6*%
X157231547Y-67226109D02*
X157231547Y-67630871D01*
X157231547Y-67630871D02*
X157255357Y-67678490D01*
X157255357Y-67678490D02*
X157279166Y-67702300D01*
X157279166Y-67702300D02*
X157326785Y-67726109D01*
X157326785Y-67726109D02*
X157422023Y-67726109D01*
X157422023Y-67726109D02*
X157469642Y-67702300D01*
X157469642Y-67702300D02*
X157493452Y-67678490D01*
X157493452Y-67678490D02*
X157517261Y-67630871D01*
X157517261Y-67630871D02*
X157517261Y-67226109D01*
X157969643Y-67226109D02*
X157874405Y-67226109D01*
X157874405Y-67226109D02*
X157826786Y-67249919D01*
X157826786Y-67249919D02*
X157802976Y-67273728D01*
X157802976Y-67273728D02*
X157755357Y-67345157D01*
X157755357Y-67345157D02*
X157731548Y-67440395D01*
X157731548Y-67440395D02*
X157731548Y-67630871D01*
X157731548Y-67630871D02*
X157755357Y-67678490D01*
X157755357Y-67678490D02*
X157779167Y-67702300D01*
X157779167Y-67702300D02*
X157826786Y-67726109D01*
X157826786Y-67726109D02*
X157922024Y-67726109D01*
X157922024Y-67726109D02*
X157969643Y-67702300D01*
X157969643Y-67702300D02*
X157993452Y-67678490D01*
X157993452Y-67678490D02*
X158017262Y-67630871D01*
X158017262Y-67630871D02*
X158017262Y-67511823D01*
X158017262Y-67511823D02*
X157993452Y-67464204D01*
X157993452Y-67464204D02*
X157969643Y-67440395D01*
X157969643Y-67440395D02*
X157922024Y-67416585D01*
X157922024Y-67416585D02*
X157826786Y-67416585D01*
X157826786Y-67416585D02*
X157779167Y-67440395D01*
X157779167Y-67440395D02*
X157755357Y-67464204D01*
X157755357Y-67464204D02*
X157731548Y-67511823D01*
%TO.C,R16*%
X139928571Y-39626109D02*
X139761905Y-39388014D01*
X139642857Y-39626109D02*
X139642857Y-39126109D01*
X139642857Y-39126109D02*
X139833333Y-39126109D01*
X139833333Y-39126109D02*
X139880952Y-39149919D01*
X139880952Y-39149919D02*
X139904762Y-39173728D01*
X139904762Y-39173728D02*
X139928571Y-39221347D01*
X139928571Y-39221347D02*
X139928571Y-39292776D01*
X139928571Y-39292776D02*
X139904762Y-39340395D01*
X139904762Y-39340395D02*
X139880952Y-39364204D01*
X139880952Y-39364204D02*
X139833333Y-39388014D01*
X139833333Y-39388014D02*
X139642857Y-39388014D01*
X140404762Y-39626109D02*
X140119048Y-39626109D01*
X140261905Y-39626109D02*
X140261905Y-39126109D01*
X140261905Y-39126109D02*
X140214286Y-39197538D01*
X140214286Y-39197538D02*
X140166667Y-39245157D01*
X140166667Y-39245157D02*
X140119048Y-39268966D01*
X140833333Y-39126109D02*
X140738095Y-39126109D01*
X140738095Y-39126109D02*
X140690476Y-39149919D01*
X140690476Y-39149919D02*
X140666666Y-39173728D01*
X140666666Y-39173728D02*
X140619047Y-39245157D01*
X140619047Y-39245157D02*
X140595238Y-39340395D01*
X140595238Y-39340395D02*
X140595238Y-39530871D01*
X140595238Y-39530871D02*
X140619047Y-39578490D01*
X140619047Y-39578490D02*
X140642857Y-39602300D01*
X140642857Y-39602300D02*
X140690476Y-39626109D01*
X140690476Y-39626109D02*
X140785714Y-39626109D01*
X140785714Y-39626109D02*
X140833333Y-39602300D01*
X140833333Y-39602300D02*
X140857142Y-39578490D01*
X140857142Y-39578490D02*
X140880952Y-39530871D01*
X140880952Y-39530871D02*
X140880952Y-39411823D01*
X140880952Y-39411823D02*
X140857142Y-39364204D01*
X140857142Y-39364204D02*
X140833333Y-39340395D01*
X140833333Y-39340395D02*
X140785714Y-39316585D01*
X140785714Y-39316585D02*
X140690476Y-39316585D01*
X140690476Y-39316585D02*
X140642857Y-39340395D01*
X140642857Y-39340395D02*
X140619047Y-39364204D01*
X140619047Y-39364204D02*
X140595238Y-39411823D01*
%TO.C,C20*%
X132111071Y-58878490D02*
X132087262Y-58902300D01*
X132087262Y-58902300D02*
X132015833Y-58926109D01*
X132015833Y-58926109D02*
X131968214Y-58926109D01*
X131968214Y-58926109D02*
X131896786Y-58902300D01*
X131896786Y-58902300D02*
X131849167Y-58854680D01*
X131849167Y-58854680D02*
X131825357Y-58807061D01*
X131825357Y-58807061D02*
X131801548Y-58711823D01*
X131801548Y-58711823D02*
X131801548Y-58640395D01*
X131801548Y-58640395D02*
X131825357Y-58545157D01*
X131825357Y-58545157D02*
X131849167Y-58497538D01*
X131849167Y-58497538D02*
X131896786Y-58449919D01*
X131896786Y-58449919D02*
X131968214Y-58426109D01*
X131968214Y-58426109D02*
X132015833Y-58426109D01*
X132015833Y-58426109D02*
X132087262Y-58449919D01*
X132087262Y-58449919D02*
X132111071Y-58473728D01*
X132301548Y-58473728D02*
X132325357Y-58449919D01*
X132325357Y-58449919D02*
X132372976Y-58426109D01*
X132372976Y-58426109D02*
X132492024Y-58426109D01*
X132492024Y-58426109D02*
X132539643Y-58449919D01*
X132539643Y-58449919D02*
X132563452Y-58473728D01*
X132563452Y-58473728D02*
X132587262Y-58521347D01*
X132587262Y-58521347D02*
X132587262Y-58568966D01*
X132587262Y-58568966D02*
X132563452Y-58640395D01*
X132563452Y-58640395D02*
X132277738Y-58926109D01*
X132277738Y-58926109D02*
X132587262Y-58926109D01*
X132896785Y-58426109D02*
X132944404Y-58426109D01*
X132944404Y-58426109D02*
X132992023Y-58449919D01*
X132992023Y-58449919D02*
X133015833Y-58473728D01*
X133015833Y-58473728D02*
X133039642Y-58521347D01*
X133039642Y-58521347D02*
X133063452Y-58616585D01*
X133063452Y-58616585D02*
X133063452Y-58735633D01*
X133063452Y-58735633D02*
X133039642Y-58830871D01*
X133039642Y-58830871D02*
X133015833Y-58878490D01*
X133015833Y-58878490D02*
X132992023Y-58902300D01*
X132992023Y-58902300D02*
X132944404Y-58926109D01*
X132944404Y-58926109D02*
X132896785Y-58926109D01*
X132896785Y-58926109D02*
X132849166Y-58902300D01*
X132849166Y-58902300D02*
X132825357Y-58878490D01*
X132825357Y-58878490D02*
X132801547Y-58830871D01*
X132801547Y-58830871D02*
X132777738Y-58735633D01*
X132777738Y-58735633D02*
X132777738Y-58616585D01*
X132777738Y-58616585D02*
X132801547Y-58521347D01*
X132801547Y-58521347D02*
X132825357Y-58473728D01*
X132825357Y-58473728D02*
X132849166Y-58449919D01*
X132849166Y-58449919D02*
X132896785Y-58426109D01*
%TO.C,Q2*%
X146202380Y-39673728D02*
X146154761Y-39649919D01*
X146154761Y-39649919D02*
X146107142Y-39602300D01*
X146107142Y-39602300D02*
X146035714Y-39530871D01*
X146035714Y-39530871D02*
X145988095Y-39507061D01*
X145988095Y-39507061D02*
X145940476Y-39507061D01*
X145964285Y-39626109D02*
X145916666Y-39602300D01*
X145916666Y-39602300D02*
X145869047Y-39554680D01*
X145869047Y-39554680D02*
X145845238Y-39459442D01*
X145845238Y-39459442D02*
X145845238Y-39292776D01*
X145845238Y-39292776D02*
X145869047Y-39197538D01*
X145869047Y-39197538D02*
X145916666Y-39149919D01*
X145916666Y-39149919D02*
X145964285Y-39126109D01*
X145964285Y-39126109D02*
X146059523Y-39126109D01*
X146059523Y-39126109D02*
X146107142Y-39149919D01*
X146107142Y-39149919D02*
X146154761Y-39197538D01*
X146154761Y-39197538D02*
X146178571Y-39292776D01*
X146178571Y-39292776D02*
X146178571Y-39459442D01*
X146178571Y-39459442D02*
X146154761Y-39554680D01*
X146154761Y-39554680D02*
X146107142Y-39602300D01*
X146107142Y-39602300D02*
X146059523Y-39626109D01*
X146059523Y-39626109D02*
X145964285Y-39626109D01*
X146369048Y-39173728D02*
X146392857Y-39149919D01*
X146392857Y-39149919D02*
X146440476Y-39126109D01*
X146440476Y-39126109D02*
X146559524Y-39126109D01*
X146559524Y-39126109D02*
X146607143Y-39149919D01*
X146607143Y-39149919D02*
X146630952Y-39173728D01*
X146630952Y-39173728D02*
X146654762Y-39221347D01*
X146654762Y-39221347D02*
X146654762Y-39268966D01*
X146654762Y-39268966D02*
X146630952Y-39340395D01*
X146630952Y-39340395D02*
X146345238Y-39626109D01*
X146345238Y-39626109D02*
X146654762Y-39626109D01*
%TO.C,R3*%
X127726109Y-57583333D02*
X127488014Y-57749999D01*
X127726109Y-57869047D02*
X127226109Y-57869047D01*
X127226109Y-57869047D02*
X127226109Y-57678571D01*
X127226109Y-57678571D02*
X127249919Y-57630952D01*
X127249919Y-57630952D02*
X127273728Y-57607142D01*
X127273728Y-57607142D02*
X127321347Y-57583333D01*
X127321347Y-57583333D02*
X127392776Y-57583333D01*
X127392776Y-57583333D02*
X127440395Y-57607142D01*
X127440395Y-57607142D02*
X127464204Y-57630952D01*
X127464204Y-57630952D02*
X127488014Y-57678571D01*
X127488014Y-57678571D02*
X127488014Y-57869047D01*
X127226109Y-57416666D02*
X127226109Y-57107142D01*
X127226109Y-57107142D02*
X127416585Y-57273809D01*
X127416585Y-57273809D02*
X127416585Y-57202380D01*
X127416585Y-57202380D02*
X127440395Y-57154761D01*
X127440395Y-57154761D02*
X127464204Y-57130952D01*
X127464204Y-57130952D02*
X127511823Y-57107142D01*
X127511823Y-57107142D02*
X127630871Y-57107142D01*
X127630871Y-57107142D02*
X127678490Y-57130952D01*
X127678490Y-57130952D02*
X127702300Y-57154761D01*
X127702300Y-57154761D02*
X127726109Y-57202380D01*
X127726109Y-57202380D02*
X127726109Y-57345237D01*
X127726109Y-57345237D02*
X127702300Y-57392856D01*
X127702300Y-57392856D02*
X127678490Y-57416666D01*
%TO.C,C18*%
X139728490Y-52821428D02*
X139752300Y-52845237D01*
X139752300Y-52845237D02*
X139776109Y-52916666D01*
X139776109Y-52916666D02*
X139776109Y-52964285D01*
X139776109Y-52964285D02*
X139752300Y-53035713D01*
X139752300Y-53035713D02*
X139704680Y-53083332D01*
X139704680Y-53083332D02*
X139657061Y-53107142D01*
X139657061Y-53107142D02*
X139561823Y-53130951D01*
X139561823Y-53130951D02*
X139490395Y-53130951D01*
X139490395Y-53130951D02*
X139395157Y-53107142D01*
X139395157Y-53107142D02*
X139347538Y-53083332D01*
X139347538Y-53083332D02*
X139299919Y-53035713D01*
X139299919Y-53035713D02*
X139276109Y-52964285D01*
X139276109Y-52964285D02*
X139276109Y-52916666D01*
X139276109Y-52916666D02*
X139299919Y-52845237D01*
X139299919Y-52845237D02*
X139323728Y-52821428D01*
X139776109Y-52345237D02*
X139776109Y-52630951D01*
X139776109Y-52488094D02*
X139276109Y-52488094D01*
X139276109Y-52488094D02*
X139347538Y-52535713D01*
X139347538Y-52535713D02*
X139395157Y-52583332D01*
X139395157Y-52583332D02*
X139418966Y-52630951D01*
X139490395Y-52059523D02*
X139466585Y-52107142D01*
X139466585Y-52107142D02*
X139442776Y-52130952D01*
X139442776Y-52130952D02*
X139395157Y-52154761D01*
X139395157Y-52154761D02*
X139371347Y-52154761D01*
X139371347Y-52154761D02*
X139323728Y-52130952D01*
X139323728Y-52130952D02*
X139299919Y-52107142D01*
X139299919Y-52107142D02*
X139276109Y-52059523D01*
X139276109Y-52059523D02*
X139276109Y-51964285D01*
X139276109Y-51964285D02*
X139299919Y-51916666D01*
X139299919Y-51916666D02*
X139323728Y-51892857D01*
X139323728Y-51892857D02*
X139371347Y-51869047D01*
X139371347Y-51869047D02*
X139395157Y-51869047D01*
X139395157Y-51869047D02*
X139442776Y-51892857D01*
X139442776Y-51892857D02*
X139466585Y-51916666D01*
X139466585Y-51916666D02*
X139490395Y-51964285D01*
X139490395Y-51964285D02*
X139490395Y-52059523D01*
X139490395Y-52059523D02*
X139514204Y-52107142D01*
X139514204Y-52107142D02*
X139538014Y-52130952D01*
X139538014Y-52130952D02*
X139585633Y-52154761D01*
X139585633Y-52154761D02*
X139680871Y-52154761D01*
X139680871Y-52154761D02*
X139728490Y-52130952D01*
X139728490Y-52130952D02*
X139752300Y-52107142D01*
X139752300Y-52107142D02*
X139776109Y-52059523D01*
X139776109Y-52059523D02*
X139776109Y-51964285D01*
X139776109Y-51964285D02*
X139752300Y-51916666D01*
X139752300Y-51916666D02*
X139728490Y-51892857D01*
X139728490Y-51892857D02*
X139680871Y-51869047D01*
X139680871Y-51869047D02*
X139585633Y-51869047D01*
X139585633Y-51869047D02*
X139538014Y-51892857D01*
X139538014Y-51892857D02*
X139514204Y-51916666D01*
X139514204Y-51916666D02*
X139490395Y-51964285D01*
%TO.C,U9*%
X156619047Y-37976109D02*
X156619047Y-38380871D01*
X156619047Y-38380871D02*
X156642857Y-38428490D01*
X156642857Y-38428490D02*
X156666666Y-38452300D01*
X156666666Y-38452300D02*
X156714285Y-38476109D01*
X156714285Y-38476109D02*
X156809523Y-38476109D01*
X156809523Y-38476109D02*
X156857142Y-38452300D01*
X156857142Y-38452300D02*
X156880952Y-38428490D01*
X156880952Y-38428490D02*
X156904761Y-38380871D01*
X156904761Y-38380871D02*
X156904761Y-37976109D01*
X157166667Y-38476109D02*
X157261905Y-38476109D01*
X157261905Y-38476109D02*
X157309524Y-38452300D01*
X157309524Y-38452300D02*
X157333333Y-38428490D01*
X157333333Y-38428490D02*
X157380952Y-38357061D01*
X157380952Y-38357061D02*
X157404762Y-38261823D01*
X157404762Y-38261823D02*
X157404762Y-38071347D01*
X157404762Y-38071347D02*
X157380952Y-38023728D01*
X157380952Y-38023728D02*
X157357143Y-37999919D01*
X157357143Y-37999919D02*
X157309524Y-37976109D01*
X157309524Y-37976109D02*
X157214286Y-37976109D01*
X157214286Y-37976109D02*
X157166667Y-37999919D01*
X157166667Y-37999919D02*
X157142857Y-38023728D01*
X157142857Y-38023728D02*
X157119048Y-38071347D01*
X157119048Y-38071347D02*
X157119048Y-38190395D01*
X157119048Y-38190395D02*
X157142857Y-38238014D01*
X157142857Y-38238014D02*
X157166667Y-38261823D01*
X157166667Y-38261823D02*
X157214286Y-38285633D01*
X157214286Y-38285633D02*
X157309524Y-38285633D01*
X157309524Y-38285633D02*
X157357143Y-38261823D01*
X157357143Y-38261823D02*
X157380952Y-38238014D01*
X157380952Y-38238014D02*
X157404762Y-38190395D01*
%TO.C,U5*%
X173244047Y-38646109D02*
X173244047Y-39050871D01*
X173244047Y-39050871D02*
X173267857Y-39098490D01*
X173267857Y-39098490D02*
X173291666Y-39122300D01*
X173291666Y-39122300D02*
X173339285Y-39146109D01*
X173339285Y-39146109D02*
X173434523Y-39146109D01*
X173434523Y-39146109D02*
X173482142Y-39122300D01*
X173482142Y-39122300D02*
X173505952Y-39098490D01*
X173505952Y-39098490D02*
X173529761Y-39050871D01*
X173529761Y-39050871D02*
X173529761Y-38646109D01*
X174005952Y-38646109D02*
X173767857Y-38646109D01*
X173767857Y-38646109D02*
X173744048Y-38884204D01*
X173744048Y-38884204D02*
X173767857Y-38860395D01*
X173767857Y-38860395D02*
X173815476Y-38836585D01*
X173815476Y-38836585D02*
X173934524Y-38836585D01*
X173934524Y-38836585D02*
X173982143Y-38860395D01*
X173982143Y-38860395D02*
X174005952Y-38884204D01*
X174005952Y-38884204D02*
X174029762Y-38931823D01*
X174029762Y-38931823D02*
X174029762Y-39050871D01*
X174029762Y-39050871D02*
X174005952Y-39098490D01*
X174005952Y-39098490D02*
X173982143Y-39122300D01*
X173982143Y-39122300D02*
X173934524Y-39146109D01*
X173934524Y-39146109D02*
X173815476Y-39146109D01*
X173815476Y-39146109D02*
X173767857Y-39122300D01*
X173767857Y-39122300D02*
X173744048Y-39098490D01*
%TO.C,U1*%
X149119047Y-77476109D02*
X149119047Y-77880871D01*
X149119047Y-77880871D02*
X149142857Y-77928490D01*
X149142857Y-77928490D02*
X149166666Y-77952300D01*
X149166666Y-77952300D02*
X149214285Y-77976109D01*
X149214285Y-77976109D02*
X149309523Y-77976109D01*
X149309523Y-77976109D02*
X149357142Y-77952300D01*
X149357142Y-77952300D02*
X149380952Y-77928490D01*
X149380952Y-77928490D02*
X149404761Y-77880871D01*
X149404761Y-77880871D02*
X149404761Y-77476109D01*
X149904762Y-77976109D02*
X149619048Y-77976109D01*
X149761905Y-77976109D02*
X149761905Y-77476109D01*
X149761905Y-77476109D02*
X149714286Y-77547538D01*
X149714286Y-77547538D02*
X149666667Y-77595157D01*
X149666667Y-77595157D02*
X149619048Y-77618966D01*
%TO.C,U10*%
X147630952Y-37976109D02*
X147630952Y-38380871D01*
X147630952Y-38380871D02*
X147654762Y-38428490D01*
X147654762Y-38428490D02*
X147678571Y-38452300D01*
X147678571Y-38452300D02*
X147726190Y-38476109D01*
X147726190Y-38476109D02*
X147821428Y-38476109D01*
X147821428Y-38476109D02*
X147869047Y-38452300D01*
X147869047Y-38452300D02*
X147892857Y-38428490D01*
X147892857Y-38428490D02*
X147916666Y-38380871D01*
X147916666Y-38380871D02*
X147916666Y-37976109D01*
X148416667Y-38476109D02*
X148130953Y-38476109D01*
X148273810Y-38476109D02*
X148273810Y-37976109D01*
X148273810Y-37976109D02*
X148226191Y-38047538D01*
X148226191Y-38047538D02*
X148178572Y-38095157D01*
X148178572Y-38095157D02*
X148130953Y-38118966D01*
X148726190Y-37976109D02*
X148773809Y-37976109D01*
X148773809Y-37976109D02*
X148821428Y-37999919D01*
X148821428Y-37999919D02*
X148845238Y-38023728D01*
X148845238Y-38023728D02*
X148869047Y-38071347D01*
X148869047Y-38071347D02*
X148892857Y-38166585D01*
X148892857Y-38166585D02*
X148892857Y-38285633D01*
X148892857Y-38285633D02*
X148869047Y-38380871D01*
X148869047Y-38380871D02*
X148845238Y-38428490D01*
X148845238Y-38428490D02*
X148821428Y-38452300D01*
X148821428Y-38452300D02*
X148773809Y-38476109D01*
X148773809Y-38476109D02*
X148726190Y-38476109D01*
X148726190Y-38476109D02*
X148678571Y-38452300D01*
X148678571Y-38452300D02*
X148654762Y-38428490D01*
X148654762Y-38428490D02*
X148630952Y-38380871D01*
X148630952Y-38380871D02*
X148607143Y-38285633D01*
X148607143Y-38285633D02*
X148607143Y-38166585D01*
X148607143Y-38166585D02*
X148630952Y-38071347D01*
X148630952Y-38071347D02*
X148654762Y-38023728D01*
X148654762Y-38023728D02*
X148678571Y-37999919D01*
X148678571Y-37999919D02*
X148726190Y-37976109D01*
%TO.C,C4*%
X135178490Y-69933333D02*
X135202300Y-69957142D01*
X135202300Y-69957142D02*
X135226109Y-70028571D01*
X135226109Y-70028571D02*
X135226109Y-70076190D01*
X135226109Y-70076190D02*
X135202300Y-70147618D01*
X135202300Y-70147618D02*
X135154680Y-70195237D01*
X135154680Y-70195237D02*
X135107061Y-70219047D01*
X135107061Y-70219047D02*
X135011823Y-70242856D01*
X135011823Y-70242856D02*
X134940395Y-70242856D01*
X134940395Y-70242856D02*
X134845157Y-70219047D01*
X134845157Y-70219047D02*
X134797538Y-70195237D01*
X134797538Y-70195237D02*
X134749919Y-70147618D01*
X134749919Y-70147618D02*
X134726109Y-70076190D01*
X134726109Y-70076190D02*
X134726109Y-70028571D01*
X134726109Y-70028571D02*
X134749919Y-69957142D01*
X134749919Y-69957142D02*
X134773728Y-69933333D01*
X134892776Y-69504761D02*
X135226109Y-69504761D01*
X134702300Y-69623809D02*
X135059442Y-69742856D01*
X135059442Y-69742856D02*
X135059442Y-69433333D01*
%TO.C,L2*%
X155416666Y-31476109D02*
X155178571Y-31476109D01*
X155178571Y-31476109D02*
X155178571Y-30976109D01*
X155559524Y-31023728D02*
X155583333Y-30999919D01*
X155583333Y-30999919D02*
X155630952Y-30976109D01*
X155630952Y-30976109D02*
X155750000Y-30976109D01*
X155750000Y-30976109D02*
X155797619Y-30999919D01*
X155797619Y-30999919D02*
X155821428Y-31023728D01*
X155821428Y-31023728D02*
X155845238Y-31071347D01*
X155845238Y-31071347D02*
X155845238Y-31118966D01*
X155845238Y-31118966D02*
X155821428Y-31190395D01*
X155821428Y-31190395D02*
X155535714Y-31476109D01*
X155535714Y-31476109D02*
X155845238Y-31476109D01*
%TO.C,U2*%
X139369047Y-65326109D02*
X139369047Y-65730871D01*
X139369047Y-65730871D02*
X139392857Y-65778490D01*
X139392857Y-65778490D02*
X139416666Y-65802300D01*
X139416666Y-65802300D02*
X139464285Y-65826109D01*
X139464285Y-65826109D02*
X139559523Y-65826109D01*
X139559523Y-65826109D02*
X139607142Y-65802300D01*
X139607142Y-65802300D02*
X139630952Y-65778490D01*
X139630952Y-65778490D02*
X139654761Y-65730871D01*
X139654761Y-65730871D02*
X139654761Y-65326109D01*
X139869048Y-65373728D02*
X139892857Y-65349919D01*
X139892857Y-65349919D02*
X139940476Y-65326109D01*
X139940476Y-65326109D02*
X140059524Y-65326109D01*
X140059524Y-65326109D02*
X140107143Y-65349919D01*
X140107143Y-65349919D02*
X140130952Y-65373728D01*
X140130952Y-65373728D02*
X140154762Y-65421347D01*
X140154762Y-65421347D02*
X140154762Y-65468966D01*
X140154762Y-65468966D02*
X140130952Y-65540395D01*
X140130952Y-65540395D02*
X139845238Y-65826109D01*
X139845238Y-65826109D02*
X140154762Y-65826109D01*
%TO.C,C9*%
X160666666Y-31428490D02*
X160642857Y-31452300D01*
X160642857Y-31452300D02*
X160571428Y-31476109D01*
X160571428Y-31476109D02*
X160523809Y-31476109D01*
X160523809Y-31476109D02*
X160452381Y-31452300D01*
X160452381Y-31452300D02*
X160404762Y-31404680D01*
X160404762Y-31404680D02*
X160380952Y-31357061D01*
X160380952Y-31357061D02*
X160357143Y-31261823D01*
X160357143Y-31261823D02*
X160357143Y-31190395D01*
X160357143Y-31190395D02*
X160380952Y-31095157D01*
X160380952Y-31095157D02*
X160404762Y-31047538D01*
X160404762Y-31047538D02*
X160452381Y-30999919D01*
X160452381Y-30999919D02*
X160523809Y-30976109D01*
X160523809Y-30976109D02*
X160571428Y-30976109D01*
X160571428Y-30976109D02*
X160642857Y-30999919D01*
X160642857Y-30999919D02*
X160666666Y-31023728D01*
X160904762Y-31476109D02*
X161000000Y-31476109D01*
X161000000Y-31476109D02*
X161047619Y-31452300D01*
X161047619Y-31452300D02*
X161071428Y-31428490D01*
X161071428Y-31428490D02*
X161119047Y-31357061D01*
X161119047Y-31357061D02*
X161142857Y-31261823D01*
X161142857Y-31261823D02*
X161142857Y-31071347D01*
X161142857Y-31071347D02*
X161119047Y-31023728D01*
X161119047Y-31023728D02*
X161095238Y-30999919D01*
X161095238Y-30999919D02*
X161047619Y-30976109D01*
X161047619Y-30976109D02*
X160952381Y-30976109D01*
X160952381Y-30976109D02*
X160904762Y-30999919D01*
X160904762Y-30999919D02*
X160880952Y-31023728D01*
X160880952Y-31023728D02*
X160857143Y-31071347D01*
X160857143Y-31071347D02*
X160857143Y-31190395D01*
X160857143Y-31190395D02*
X160880952Y-31238014D01*
X160880952Y-31238014D02*
X160904762Y-31261823D01*
X160904762Y-31261823D02*
X160952381Y-31285633D01*
X160952381Y-31285633D02*
X161047619Y-31285633D01*
X161047619Y-31285633D02*
X161095238Y-31261823D01*
X161095238Y-31261823D02*
X161119047Y-31238014D01*
X161119047Y-31238014D02*
X161142857Y-31190395D01*
%TO.C,C7*%
X143720550Y-81128490D02*
X143696741Y-81152300D01*
X143696741Y-81152300D02*
X143625312Y-81176109D01*
X143625312Y-81176109D02*
X143577693Y-81176109D01*
X143577693Y-81176109D02*
X143506265Y-81152300D01*
X143506265Y-81152300D02*
X143458646Y-81104680D01*
X143458646Y-81104680D02*
X143434836Y-81057061D01*
X143434836Y-81057061D02*
X143411027Y-80961823D01*
X143411027Y-80961823D02*
X143411027Y-80890395D01*
X143411027Y-80890395D02*
X143434836Y-80795157D01*
X143434836Y-80795157D02*
X143458646Y-80747538D01*
X143458646Y-80747538D02*
X143506265Y-80699919D01*
X143506265Y-80699919D02*
X143577693Y-80676109D01*
X143577693Y-80676109D02*
X143625312Y-80676109D01*
X143625312Y-80676109D02*
X143696741Y-80699919D01*
X143696741Y-80699919D02*
X143720550Y-80723728D01*
X143887217Y-80676109D02*
X144220550Y-80676109D01*
X144220550Y-80676109D02*
X144006265Y-81176109D01*
%TO.C,C11*%
X151678571Y-31428490D02*
X151654762Y-31452300D01*
X151654762Y-31452300D02*
X151583333Y-31476109D01*
X151583333Y-31476109D02*
X151535714Y-31476109D01*
X151535714Y-31476109D02*
X151464286Y-31452300D01*
X151464286Y-31452300D02*
X151416667Y-31404680D01*
X151416667Y-31404680D02*
X151392857Y-31357061D01*
X151392857Y-31357061D02*
X151369048Y-31261823D01*
X151369048Y-31261823D02*
X151369048Y-31190395D01*
X151369048Y-31190395D02*
X151392857Y-31095157D01*
X151392857Y-31095157D02*
X151416667Y-31047538D01*
X151416667Y-31047538D02*
X151464286Y-30999919D01*
X151464286Y-30999919D02*
X151535714Y-30976109D01*
X151535714Y-30976109D02*
X151583333Y-30976109D01*
X151583333Y-30976109D02*
X151654762Y-30999919D01*
X151654762Y-30999919D02*
X151678571Y-31023728D01*
X152154762Y-31476109D02*
X151869048Y-31476109D01*
X152011905Y-31476109D02*
X152011905Y-30976109D01*
X152011905Y-30976109D02*
X151964286Y-31047538D01*
X151964286Y-31047538D02*
X151916667Y-31095157D01*
X151916667Y-31095157D02*
X151869048Y-31118966D01*
X152630952Y-31476109D02*
X152345238Y-31476109D01*
X152488095Y-31476109D02*
X152488095Y-30976109D01*
X152488095Y-30976109D02*
X152440476Y-31047538D01*
X152440476Y-31047538D02*
X152392857Y-31095157D01*
X152392857Y-31095157D02*
X152345238Y-31118966D01*
%TO.C,R5*%
X127726109Y-65583333D02*
X127488014Y-65749999D01*
X127726109Y-65869047D02*
X127226109Y-65869047D01*
X127226109Y-65869047D02*
X127226109Y-65678571D01*
X127226109Y-65678571D02*
X127249919Y-65630952D01*
X127249919Y-65630952D02*
X127273728Y-65607142D01*
X127273728Y-65607142D02*
X127321347Y-65583333D01*
X127321347Y-65583333D02*
X127392776Y-65583333D01*
X127392776Y-65583333D02*
X127440395Y-65607142D01*
X127440395Y-65607142D02*
X127464204Y-65630952D01*
X127464204Y-65630952D02*
X127488014Y-65678571D01*
X127488014Y-65678571D02*
X127488014Y-65869047D01*
X127226109Y-65130952D02*
X127226109Y-65369047D01*
X127226109Y-65369047D02*
X127464204Y-65392856D01*
X127464204Y-65392856D02*
X127440395Y-65369047D01*
X127440395Y-65369047D02*
X127416585Y-65321428D01*
X127416585Y-65321428D02*
X127416585Y-65202380D01*
X127416585Y-65202380D02*
X127440395Y-65154761D01*
X127440395Y-65154761D02*
X127464204Y-65130952D01*
X127464204Y-65130952D02*
X127511823Y-65107142D01*
X127511823Y-65107142D02*
X127630871Y-65107142D01*
X127630871Y-65107142D02*
X127678490Y-65130952D01*
X127678490Y-65130952D02*
X127702300Y-65154761D01*
X127702300Y-65154761D02*
X127726109Y-65202380D01*
X127726109Y-65202380D02*
X127726109Y-65321428D01*
X127726109Y-65321428D02*
X127702300Y-65369047D01*
X127702300Y-65369047D02*
X127678490Y-65392856D01*
%TO.C,Q1*%
X142202380Y-39673728D02*
X142154761Y-39649919D01*
X142154761Y-39649919D02*
X142107142Y-39602300D01*
X142107142Y-39602300D02*
X142035714Y-39530871D01*
X142035714Y-39530871D02*
X141988095Y-39507061D01*
X141988095Y-39507061D02*
X141940476Y-39507061D01*
X141964285Y-39626109D02*
X141916666Y-39602300D01*
X141916666Y-39602300D02*
X141869047Y-39554680D01*
X141869047Y-39554680D02*
X141845238Y-39459442D01*
X141845238Y-39459442D02*
X141845238Y-39292776D01*
X141845238Y-39292776D02*
X141869047Y-39197538D01*
X141869047Y-39197538D02*
X141916666Y-39149919D01*
X141916666Y-39149919D02*
X141964285Y-39126109D01*
X141964285Y-39126109D02*
X142059523Y-39126109D01*
X142059523Y-39126109D02*
X142107142Y-39149919D01*
X142107142Y-39149919D02*
X142154761Y-39197538D01*
X142154761Y-39197538D02*
X142178571Y-39292776D01*
X142178571Y-39292776D02*
X142178571Y-39459442D01*
X142178571Y-39459442D02*
X142154761Y-39554680D01*
X142154761Y-39554680D02*
X142107142Y-39602300D01*
X142107142Y-39602300D02*
X142059523Y-39626109D01*
X142059523Y-39626109D02*
X141964285Y-39626109D01*
X142654762Y-39626109D02*
X142369048Y-39626109D01*
X142511905Y-39626109D02*
X142511905Y-39126109D01*
X142511905Y-39126109D02*
X142464286Y-39197538D01*
X142464286Y-39197538D02*
X142416667Y-39245157D01*
X142416667Y-39245157D02*
X142369048Y-39268966D01*
%TO.C,C23*%
X146678571Y-50928490D02*
X146654762Y-50952300D01*
X146654762Y-50952300D02*
X146583333Y-50976109D01*
X146583333Y-50976109D02*
X146535714Y-50976109D01*
X146535714Y-50976109D02*
X146464286Y-50952300D01*
X146464286Y-50952300D02*
X146416667Y-50904680D01*
X146416667Y-50904680D02*
X146392857Y-50857061D01*
X146392857Y-50857061D02*
X146369048Y-50761823D01*
X146369048Y-50761823D02*
X146369048Y-50690395D01*
X146369048Y-50690395D02*
X146392857Y-50595157D01*
X146392857Y-50595157D02*
X146416667Y-50547538D01*
X146416667Y-50547538D02*
X146464286Y-50499919D01*
X146464286Y-50499919D02*
X146535714Y-50476109D01*
X146535714Y-50476109D02*
X146583333Y-50476109D01*
X146583333Y-50476109D02*
X146654762Y-50499919D01*
X146654762Y-50499919D02*
X146678571Y-50523728D01*
X146869048Y-50523728D02*
X146892857Y-50499919D01*
X146892857Y-50499919D02*
X146940476Y-50476109D01*
X146940476Y-50476109D02*
X147059524Y-50476109D01*
X147059524Y-50476109D02*
X147107143Y-50499919D01*
X147107143Y-50499919D02*
X147130952Y-50523728D01*
X147130952Y-50523728D02*
X147154762Y-50571347D01*
X147154762Y-50571347D02*
X147154762Y-50618966D01*
X147154762Y-50618966D02*
X147130952Y-50690395D01*
X147130952Y-50690395D02*
X146845238Y-50976109D01*
X146845238Y-50976109D02*
X147154762Y-50976109D01*
X147321428Y-50476109D02*
X147630952Y-50476109D01*
X147630952Y-50476109D02*
X147464285Y-50666585D01*
X147464285Y-50666585D02*
X147535714Y-50666585D01*
X147535714Y-50666585D02*
X147583333Y-50690395D01*
X147583333Y-50690395D02*
X147607142Y-50714204D01*
X147607142Y-50714204D02*
X147630952Y-50761823D01*
X147630952Y-50761823D02*
X147630952Y-50880871D01*
X147630952Y-50880871D02*
X147607142Y-50928490D01*
X147607142Y-50928490D02*
X147583333Y-50952300D01*
X147583333Y-50952300D02*
X147535714Y-50976109D01*
X147535714Y-50976109D02*
X147392857Y-50976109D01*
X147392857Y-50976109D02*
X147345238Y-50952300D01*
X147345238Y-50952300D02*
X147321428Y-50928490D01*
%TO.C,R7*%
X140916666Y-71726109D02*
X140750000Y-71488014D01*
X140630952Y-71726109D02*
X140630952Y-71226109D01*
X140630952Y-71226109D02*
X140821428Y-71226109D01*
X140821428Y-71226109D02*
X140869047Y-71249919D01*
X140869047Y-71249919D02*
X140892857Y-71273728D01*
X140892857Y-71273728D02*
X140916666Y-71321347D01*
X140916666Y-71321347D02*
X140916666Y-71392776D01*
X140916666Y-71392776D02*
X140892857Y-71440395D01*
X140892857Y-71440395D02*
X140869047Y-71464204D01*
X140869047Y-71464204D02*
X140821428Y-71488014D01*
X140821428Y-71488014D02*
X140630952Y-71488014D01*
X141083333Y-71226109D02*
X141416666Y-71226109D01*
X141416666Y-71226109D02*
X141202381Y-71726109D01*
%TO.C,U3*%
X129869047Y-46326109D02*
X129869047Y-46730871D01*
X129869047Y-46730871D02*
X129892857Y-46778490D01*
X129892857Y-46778490D02*
X129916666Y-46802300D01*
X129916666Y-46802300D02*
X129964285Y-46826109D01*
X129964285Y-46826109D02*
X130059523Y-46826109D01*
X130059523Y-46826109D02*
X130107142Y-46802300D01*
X130107142Y-46802300D02*
X130130952Y-46778490D01*
X130130952Y-46778490D02*
X130154761Y-46730871D01*
X130154761Y-46730871D02*
X130154761Y-46326109D01*
X130345238Y-46326109D02*
X130654762Y-46326109D01*
X130654762Y-46326109D02*
X130488095Y-46516585D01*
X130488095Y-46516585D02*
X130559524Y-46516585D01*
X130559524Y-46516585D02*
X130607143Y-46540395D01*
X130607143Y-46540395D02*
X130630952Y-46564204D01*
X130630952Y-46564204D02*
X130654762Y-46611823D01*
X130654762Y-46611823D02*
X130654762Y-46730871D01*
X130654762Y-46730871D02*
X130630952Y-46778490D01*
X130630952Y-46778490D02*
X130607143Y-46802300D01*
X130607143Y-46802300D02*
X130559524Y-46826109D01*
X130559524Y-46826109D02*
X130416667Y-46826109D01*
X130416667Y-46826109D02*
X130369048Y-46802300D01*
X130369048Y-46802300D02*
X130345238Y-46778490D01*
%TO.C,C16*%
X146445913Y-59428490D02*
X146422104Y-59452300D01*
X146422104Y-59452300D02*
X146350675Y-59476109D01*
X146350675Y-59476109D02*
X146303056Y-59476109D01*
X146303056Y-59476109D02*
X146231628Y-59452300D01*
X146231628Y-59452300D02*
X146184009Y-59404680D01*
X146184009Y-59404680D02*
X146160199Y-59357061D01*
X146160199Y-59357061D02*
X146136390Y-59261823D01*
X146136390Y-59261823D02*
X146136390Y-59190395D01*
X146136390Y-59190395D02*
X146160199Y-59095157D01*
X146160199Y-59095157D02*
X146184009Y-59047538D01*
X146184009Y-59047538D02*
X146231628Y-58999919D01*
X146231628Y-58999919D02*
X146303056Y-58976109D01*
X146303056Y-58976109D02*
X146350675Y-58976109D01*
X146350675Y-58976109D02*
X146422104Y-58999919D01*
X146422104Y-58999919D02*
X146445913Y-59023728D01*
X146922104Y-59476109D02*
X146636390Y-59476109D01*
X146779247Y-59476109D02*
X146779247Y-58976109D01*
X146779247Y-58976109D02*
X146731628Y-59047538D01*
X146731628Y-59047538D02*
X146684009Y-59095157D01*
X146684009Y-59095157D02*
X146636390Y-59118966D01*
X147350675Y-58976109D02*
X147255437Y-58976109D01*
X147255437Y-58976109D02*
X147207818Y-58999919D01*
X147207818Y-58999919D02*
X147184008Y-59023728D01*
X147184008Y-59023728D02*
X147136389Y-59095157D01*
X147136389Y-59095157D02*
X147112580Y-59190395D01*
X147112580Y-59190395D02*
X147112580Y-59380871D01*
X147112580Y-59380871D02*
X147136389Y-59428490D01*
X147136389Y-59428490D02*
X147160199Y-59452300D01*
X147160199Y-59452300D02*
X147207818Y-59476109D01*
X147207818Y-59476109D02*
X147303056Y-59476109D01*
X147303056Y-59476109D02*
X147350675Y-59452300D01*
X147350675Y-59452300D02*
X147374484Y-59428490D01*
X147374484Y-59428490D02*
X147398294Y-59380871D01*
X147398294Y-59380871D02*
X147398294Y-59261823D01*
X147398294Y-59261823D02*
X147374484Y-59214204D01*
X147374484Y-59214204D02*
X147350675Y-59190395D01*
X147350675Y-59190395D02*
X147303056Y-59166585D01*
X147303056Y-59166585D02*
X147207818Y-59166585D01*
X147207818Y-59166585D02*
X147160199Y-59190395D01*
X147160199Y-59190395D02*
X147136389Y-59214204D01*
X147136389Y-59214204D02*
X147112580Y-59261823D01*
%TO.C,C12*%
X135778571Y-76328490D02*
X135754762Y-76352300D01*
X135754762Y-76352300D02*
X135683333Y-76376109D01*
X135683333Y-76376109D02*
X135635714Y-76376109D01*
X135635714Y-76376109D02*
X135564286Y-76352300D01*
X135564286Y-76352300D02*
X135516667Y-76304680D01*
X135516667Y-76304680D02*
X135492857Y-76257061D01*
X135492857Y-76257061D02*
X135469048Y-76161823D01*
X135469048Y-76161823D02*
X135469048Y-76090395D01*
X135469048Y-76090395D02*
X135492857Y-75995157D01*
X135492857Y-75995157D02*
X135516667Y-75947538D01*
X135516667Y-75947538D02*
X135564286Y-75899919D01*
X135564286Y-75899919D02*
X135635714Y-75876109D01*
X135635714Y-75876109D02*
X135683333Y-75876109D01*
X135683333Y-75876109D02*
X135754762Y-75899919D01*
X135754762Y-75899919D02*
X135778571Y-75923728D01*
X136254762Y-76376109D02*
X135969048Y-76376109D01*
X136111905Y-76376109D02*
X136111905Y-75876109D01*
X136111905Y-75876109D02*
X136064286Y-75947538D01*
X136064286Y-75947538D02*
X136016667Y-75995157D01*
X136016667Y-75995157D02*
X135969048Y-76018966D01*
X136445238Y-75923728D02*
X136469047Y-75899919D01*
X136469047Y-75899919D02*
X136516666Y-75876109D01*
X136516666Y-75876109D02*
X136635714Y-75876109D01*
X136635714Y-75876109D02*
X136683333Y-75899919D01*
X136683333Y-75899919D02*
X136707142Y-75923728D01*
X136707142Y-75923728D02*
X136730952Y-75971347D01*
X136730952Y-75971347D02*
X136730952Y-76018966D01*
X136730952Y-76018966D02*
X136707142Y-76090395D01*
X136707142Y-76090395D02*
X136421428Y-76376109D01*
X136421428Y-76376109D02*
X136730952Y-76376109D01*
%TO.C,R2*%
X144166666Y-47626109D02*
X144000000Y-47388014D01*
X143880952Y-47626109D02*
X143880952Y-47126109D01*
X143880952Y-47126109D02*
X144071428Y-47126109D01*
X144071428Y-47126109D02*
X144119047Y-47149919D01*
X144119047Y-47149919D02*
X144142857Y-47173728D01*
X144142857Y-47173728D02*
X144166666Y-47221347D01*
X144166666Y-47221347D02*
X144166666Y-47292776D01*
X144166666Y-47292776D02*
X144142857Y-47340395D01*
X144142857Y-47340395D02*
X144119047Y-47364204D01*
X144119047Y-47364204D02*
X144071428Y-47388014D01*
X144071428Y-47388014D02*
X143880952Y-47388014D01*
X144357143Y-47173728D02*
X144380952Y-47149919D01*
X144380952Y-47149919D02*
X144428571Y-47126109D01*
X144428571Y-47126109D02*
X144547619Y-47126109D01*
X144547619Y-47126109D02*
X144595238Y-47149919D01*
X144595238Y-47149919D02*
X144619047Y-47173728D01*
X144619047Y-47173728D02*
X144642857Y-47221347D01*
X144642857Y-47221347D02*
X144642857Y-47268966D01*
X144642857Y-47268966D02*
X144619047Y-47340395D01*
X144619047Y-47340395D02*
X144333333Y-47626109D01*
X144333333Y-47626109D02*
X144642857Y-47626109D01*
%TO.C,C15*%
X143453571Y-84578490D02*
X143429762Y-84602300D01*
X143429762Y-84602300D02*
X143358333Y-84626109D01*
X143358333Y-84626109D02*
X143310714Y-84626109D01*
X143310714Y-84626109D02*
X143239286Y-84602300D01*
X143239286Y-84602300D02*
X143191667Y-84554680D01*
X143191667Y-84554680D02*
X143167857Y-84507061D01*
X143167857Y-84507061D02*
X143144048Y-84411823D01*
X143144048Y-84411823D02*
X143144048Y-84340395D01*
X143144048Y-84340395D02*
X143167857Y-84245157D01*
X143167857Y-84245157D02*
X143191667Y-84197538D01*
X143191667Y-84197538D02*
X143239286Y-84149919D01*
X143239286Y-84149919D02*
X143310714Y-84126109D01*
X143310714Y-84126109D02*
X143358333Y-84126109D01*
X143358333Y-84126109D02*
X143429762Y-84149919D01*
X143429762Y-84149919D02*
X143453571Y-84173728D01*
X143929762Y-84626109D02*
X143644048Y-84626109D01*
X143786905Y-84626109D02*
X143786905Y-84126109D01*
X143786905Y-84126109D02*
X143739286Y-84197538D01*
X143739286Y-84197538D02*
X143691667Y-84245157D01*
X143691667Y-84245157D02*
X143644048Y-84268966D01*
X144382142Y-84126109D02*
X144144047Y-84126109D01*
X144144047Y-84126109D02*
X144120238Y-84364204D01*
X144120238Y-84364204D02*
X144144047Y-84340395D01*
X144144047Y-84340395D02*
X144191666Y-84316585D01*
X144191666Y-84316585D02*
X144310714Y-84316585D01*
X144310714Y-84316585D02*
X144358333Y-84340395D01*
X144358333Y-84340395D02*
X144382142Y-84364204D01*
X144382142Y-84364204D02*
X144405952Y-84411823D01*
X144405952Y-84411823D02*
X144405952Y-84530871D01*
X144405952Y-84530871D02*
X144382142Y-84578490D01*
X144382142Y-84578490D02*
X144358333Y-84602300D01*
X144358333Y-84602300D02*
X144310714Y-84626109D01*
X144310714Y-84626109D02*
X144191666Y-84626109D01*
X144191666Y-84626109D02*
X144144047Y-84602300D01*
X144144047Y-84602300D02*
X144120238Y-84578490D01*
%TO.C,U7*%
X157231547Y-38726109D02*
X157231547Y-39130871D01*
X157231547Y-39130871D02*
X157255357Y-39178490D01*
X157255357Y-39178490D02*
X157279166Y-39202300D01*
X157279166Y-39202300D02*
X157326785Y-39226109D01*
X157326785Y-39226109D02*
X157422023Y-39226109D01*
X157422023Y-39226109D02*
X157469642Y-39202300D01*
X157469642Y-39202300D02*
X157493452Y-39178490D01*
X157493452Y-39178490D02*
X157517261Y-39130871D01*
X157517261Y-39130871D02*
X157517261Y-38726109D01*
X157707738Y-38726109D02*
X158041071Y-38726109D01*
X158041071Y-38726109D02*
X157826786Y-39226109D01*
%TO.C,Q3*%
X142202380Y-43673728D02*
X142154761Y-43649919D01*
X142154761Y-43649919D02*
X142107142Y-43602300D01*
X142107142Y-43602300D02*
X142035714Y-43530871D01*
X142035714Y-43530871D02*
X141988095Y-43507061D01*
X141988095Y-43507061D02*
X141940476Y-43507061D01*
X141964285Y-43626109D02*
X141916666Y-43602300D01*
X141916666Y-43602300D02*
X141869047Y-43554680D01*
X141869047Y-43554680D02*
X141845238Y-43459442D01*
X141845238Y-43459442D02*
X141845238Y-43292776D01*
X141845238Y-43292776D02*
X141869047Y-43197538D01*
X141869047Y-43197538D02*
X141916666Y-43149919D01*
X141916666Y-43149919D02*
X141964285Y-43126109D01*
X141964285Y-43126109D02*
X142059523Y-43126109D01*
X142059523Y-43126109D02*
X142107142Y-43149919D01*
X142107142Y-43149919D02*
X142154761Y-43197538D01*
X142154761Y-43197538D02*
X142178571Y-43292776D01*
X142178571Y-43292776D02*
X142178571Y-43459442D01*
X142178571Y-43459442D02*
X142154761Y-43554680D01*
X142154761Y-43554680D02*
X142107142Y-43602300D01*
X142107142Y-43602300D02*
X142059523Y-43626109D01*
X142059523Y-43626109D02*
X141964285Y-43626109D01*
X142345238Y-43126109D02*
X142654762Y-43126109D01*
X142654762Y-43126109D02*
X142488095Y-43316585D01*
X142488095Y-43316585D02*
X142559524Y-43316585D01*
X142559524Y-43316585D02*
X142607143Y-43340395D01*
X142607143Y-43340395D02*
X142630952Y-43364204D01*
X142630952Y-43364204D02*
X142654762Y-43411823D01*
X142654762Y-43411823D02*
X142654762Y-43530871D01*
X142654762Y-43530871D02*
X142630952Y-43578490D01*
X142630952Y-43578490D02*
X142607143Y-43602300D01*
X142607143Y-43602300D02*
X142559524Y-43626109D01*
X142559524Y-43626109D02*
X142416667Y-43626109D01*
X142416667Y-43626109D02*
X142369048Y-43602300D01*
X142369048Y-43602300D02*
X142345238Y-43578490D01*
%TO.C,C19*%
X132111071Y-62978490D02*
X132087262Y-63002300D01*
X132087262Y-63002300D02*
X132015833Y-63026109D01*
X132015833Y-63026109D02*
X131968214Y-63026109D01*
X131968214Y-63026109D02*
X131896786Y-63002300D01*
X131896786Y-63002300D02*
X131849167Y-62954680D01*
X131849167Y-62954680D02*
X131825357Y-62907061D01*
X131825357Y-62907061D02*
X131801548Y-62811823D01*
X131801548Y-62811823D02*
X131801548Y-62740395D01*
X131801548Y-62740395D02*
X131825357Y-62645157D01*
X131825357Y-62645157D02*
X131849167Y-62597538D01*
X131849167Y-62597538D02*
X131896786Y-62549919D01*
X131896786Y-62549919D02*
X131968214Y-62526109D01*
X131968214Y-62526109D02*
X132015833Y-62526109D01*
X132015833Y-62526109D02*
X132087262Y-62549919D01*
X132087262Y-62549919D02*
X132111071Y-62573728D01*
X132587262Y-63026109D02*
X132301548Y-63026109D01*
X132444405Y-63026109D02*
X132444405Y-62526109D01*
X132444405Y-62526109D02*
X132396786Y-62597538D01*
X132396786Y-62597538D02*
X132349167Y-62645157D01*
X132349167Y-62645157D02*
X132301548Y-62668966D01*
X132825357Y-63026109D02*
X132920595Y-63026109D01*
X132920595Y-63026109D02*
X132968214Y-63002300D01*
X132968214Y-63002300D02*
X132992023Y-62978490D01*
X132992023Y-62978490D02*
X133039642Y-62907061D01*
X133039642Y-62907061D02*
X133063452Y-62811823D01*
X133063452Y-62811823D02*
X133063452Y-62621347D01*
X133063452Y-62621347D02*
X133039642Y-62573728D01*
X133039642Y-62573728D02*
X133015833Y-62549919D01*
X133015833Y-62549919D02*
X132968214Y-62526109D01*
X132968214Y-62526109D02*
X132872976Y-62526109D01*
X132872976Y-62526109D02*
X132825357Y-62549919D01*
X132825357Y-62549919D02*
X132801547Y-62573728D01*
X132801547Y-62573728D02*
X132777738Y-62621347D01*
X132777738Y-62621347D02*
X132777738Y-62740395D01*
X132777738Y-62740395D02*
X132801547Y-62788014D01*
X132801547Y-62788014D02*
X132825357Y-62811823D01*
X132825357Y-62811823D02*
X132872976Y-62835633D01*
X132872976Y-62835633D02*
X132968214Y-62835633D01*
X132968214Y-62835633D02*
X133015833Y-62811823D01*
X133015833Y-62811823D02*
X133039642Y-62788014D01*
X133039642Y-62788014D02*
X133063452Y-62740395D01*
%TO.C,L3*%
X146666666Y-31476109D02*
X146428571Y-31476109D01*
X146428571Y-31476109D02*
X146428571Y-30976109D01*
X146785714Y-30976109D02*
X147095238Y-30976109D01*
X147095238Y-30976109D02*
X146928571Y-31166585D01*
X146928571Y-31166585D02*
X147000000Y-31166585D01*
X147000000Y-31166585D02*
X147047619Y-31190395D01*
X147047619Y-31190395D02*
X147071428Y-31214204D01*
X147071428Y-31214204D02*
X147095238Y-31261823D01*
X147095238Y-31261823D02*
X147095238Y-31380871D01*
X147095238Y-31380871D02*
X147071428Y-31428490D01*
X147071428Y-31428490D02*
X147047619Y-31452300D01*
X147047619Y-31452300D02*
X147000000Y-31476109D01*
X147000000Y-31476109D02*
X146857143Y-31476109D01*
X146857143Y-31476109D02*
X146809524Y-31452300D01*
X146809524Y-31452300D02*
X146785714Y-31428490D01*
%TO.C,C13*%
X137778571Y-76328490D02*
X137754762Y-76352300D01*
X137754762Y-76352300D02*
X137683333Y-76376109D01*
X137683333Y-76376109D02*
X137635714Y-76376109D01*
X137635714Y-76376109D02*
X137564286Y-76352300D01*
X137564286Y-76352300D02*
X137516667Y-76304680D01*
X137516667Y-76304680D02*
X137492857Y-76257061D01*
X137492857Y-76257061D02*
X137469048Y-76161823D01*
X137469048Y-76161823D02*
X137469048Y-76090395D01*
X137469048Y-76090395D02*
X137492857Y-75995157D01*
X137492857Y-75995157D02*
X137516667Y-75947538D01*
X137516667Y-75947538D02*
X137564286Y-75899919D01*
X137564286Y-75899919D02*
X137635714Y-75876109D01*
X137635714Y-75876109D02*
X137683333Y-75876109D01*
X137683333Y-75876109D02*
X137754762Y-75899919D01*
X137754762Y-75899919D02*
X137778571Y-75923728D01*
X138254762Y-76376109D02*
X137969048Y-76376109D01*
X138111905Y-76376109D02*
X138111905Y-75876109D01*
X138111905Y-75876109D02*
X138064286Y-75947538D01*
X138064286Y-75947538D02*
X138016667Y-75995157D01*
X138016667Y-75995157D02*
X137969048Y-76018966D01*
X138421428Y-75876109D02*
X138730952Y-75876109D01*
X138730952Y-75876109D02*
X138564285Y-76066585D01*
X138564285Y-76066585D02*
X138635714Y-76066585D01*
X138635714Y-76066585D02*
X138683333Y-76090395D01*
X138683333Y-76090395D02*
X138707142Y-76114204D01*
X138707142Y-76114204D02*
X138730952Y-76161823D01*
X138730952Y-76161823D02*
X138730952Y-76280871D01*
X138730952Y-76280871D02*
X138707142Y-76328490D01*
X138707142Y-76328490D02*
X138683333Y-76352300D01*
X138683333Y-76352300D02*
X138635714Y-76376109D01*
X138635714Y-76376109D02*
X138492857Y-76376109D01*
X138492857Y-76376109D02*
X138445238Y-76352300D01*
X138445238Y-76352300D02*
X138421428Y-76328490D01*
%TO.C,R12*%
X153678571Y-31476109D02*
X153511905Y-31238014D01*
X153392857Y-31476109D02*
X153392857Y-30976109D01*
X153392857Y-30976109D02*
X153583333Y-30976109D01*
X153583333Y-30976109D02*
X153630952Y-30999919D01*
X153630952Y-30999919D02*
X153654762Y-31023728D01*
X153654762Y-31023728D02*
X153678571Y-31071347D01*
X153678571Y-31071347D02*
X153678571Y-31142776D01*
X153678571Y-31142776D02*
X153654762Y-31190395D01*
X153654762Y-31190395D02*
X153630952Y-31214204D01*
X153630952Y-31214204D02*
X153583333Y-31238014D01*
X153583333Y-31238014D02*
X153392857Y-31238014D01*
X154154762Y-31476109D02*
X153869048Y-31476109D01*
X154011905Y-31476109D02*
X154011905Y-30976109D01*
X154011905Y-30976109D02*
X153964286Y-31047538D01*
X153964286Y-31047538D02*
X153916667Y-31095157D01*
X153916667Y-31095157D02*
X153869048Y-31118966D01*
X154345238Y-31023728D02*
X154369047Y-30999919D01*
X154369047Y-30999919D02*
X154416666Y-30976109D01*
X154416666Y-30976109D02*
X154535714Y-30976109D01*
X154535714Y-30976109D02*
X154583333Y-30999919D01*
X154583333Y-30999919D02*
X154607142Y-31023728D01*
X154607142Y-31023728D02*
X154630952Y-31071347D01*
X154630952Y-31071347D02*
X154630952Y-31118966D01*
X154630952Y-31118966D02*
X154607142Y-31190395D01*
X154607142Y-31190395D02*
X154321428Y-31476109D01*
X154321428Y-31476109D02*
X154630952Y-31476109D01*
%TO.C,R11*%
X139628571Y-79726109D02*
X139461905Y-79488014D01*
X139342857Y-79726109D02*
X139342857Y-79226109D01*
X139342857Y-79226109D02*
X139533333Y-79226109D01*
X139533333Y-79226109D02*
X139580952Y-79249919D01*
X139580952Y-79249919D02*
X139604762Y-79273728D01*
X139604762Y-79273728D02*
X139628571Y-79321347D01*
X139628571Y-79321347D02*
X139628571Y-79392776D01*
X139628571Y-79392776D02*
X139604762Y-79440395D01*
X139604762Y-79440395D02*
X139580952Y-79464204D01*
X139580952Y-79464204D02*
X139533333Y-79488014D01*
X139533333Y-79488014D02*
X139342857Y-79488014D01*
X140104762Y-79726109D02*
X139819048Y-79726109D01*
X139961905Y-79726109D02*
X139961905Y-79226109D01*
X139961905Y-79226109D02*
X139914286Y-79297538D01*
X139914286Y-79297538D02*
X139866667Y-79345157D01*
X139866667Y-79345157D02*
X139819048Y-79368966D01*
X140580952Y-79726109D02*
X140295238Y-79726109D01*
X140438095Y-79726109D02*
X140438095Y-79226109D01*
X140438095Y-79226109D02*
X140390476Y-79297538D01*
X140390476Y-79297538D02*
X140342857Y-79345157D01*
X140342857Y-79345157D02*
X140295238Y-79368966D01*
%TO.C,R10*%
X139978571Y-76376109D02*
X139811905Y-76138014D01*
X139692857Y-76376109D02*
X139692857Y-75876109D01*
X139692857Y-75876109D02*
X139883333Y-75876109D01*
X139883333Y-75876109D02*
X139930952Y-75899919D01*
X139930952Y-75899919D02*
X139954762Y-75923728D01*
X139954762Y-75923728D02*
X139978571Y-75971347D01*
X139978571Y-75971347D02*
X139978571Y-76042776D01*
X139978571Y-76042776D02*
X139954762Y-76090395D01*
X139954762Y-76090395D02*
X139930952Y-76114204D01*
X139930952Y-76114204D02*
X139883333Y-76138014D01*
X139883333Y-76138014D02*
X139692857Y-76138014D01*
X140454762Y-76376109D02*
X140169048Y-76376109D01*
X140311905Y-76376109D02*
X140311905Y-75876109D01*
X140311905Y-75876109D02*
X140264286Y-75947538D01*
X140264286Y-75947538D02*
X140216667Y-75995157D01*
X140216667Y-75995157D02*
X140169048Y-76018966D01*
X140764285Y-75876109D02*
X140811904Y-75876109D01*
X140811904Y-75876109D02*
X140859523Y-75899919D01*
X140859523Y-75899919D02*
X140883333Y-75923728D01*
X140883333Y-75923728D02*
X140907142Y-75971347D01*
X140907142Y-75971347D02*
X140930952Y-76066585D01*
X140930952Y-76066585D02*
X140930952Y-76185633D01*
X140930952Y-76185633D02*
X140907142Y-76280871D01*
X140907142Y-76280871D02*
X140883333Y-76328490D01*
X140883333Y-76328490D02*
X140859523Y-76352300D01*
X140859523Y-76352300D02*
X140811904Y-76376109D01*
X140811904Y-76376109D02*
X140764285Y-76376109D01*
X140764285Y-76376109D02*
X140716666Y-76352300D01*
X140716666Y-76352300D02*
X140692857Y-76328490D01*
X140692857Y-76328490D02*
X140669047Y-76280871D01*
X140669047Y-76280871D02*
X140645238Y-76185633D01*
X140645238Y-76185633D02*
X140645238Y-76066585D01*
X140645238Y-76066585D02*
X140669047Y-75971347D01*
X140669047Y-75971347D02*
X140692857Y-75923728D01*
X140692857Y-75923728D02*
X140716666Y-75899919D01*
X140716666Y-75899919D02*
X140764285Y-75876109D01*
%TO.C,R15*%
X144928571Y-38476109D02*
X144761905Y-38238014D01*
X144642857Y-38476109D02*
X144642857Y-37976109D01*
X144642857Y-37976109D02*
X144833333Y-37976109D01*
X144833333Y-37976109D02*
X144880952Y-37999919D01*
X144880952Y-37999919D02*
X144904762Y-38023728D01*
X144904762Y-38023728D02*
X144928571Y-38071347D01*
X144928571Y-38071347D02*
X144928571Y-38142776D01*
X144928571Y-38142776D02*
X144904762Y-38190395D01*
X144904762Y-38190395D02*
X144880952Y-38214204D01*
X144880952Y-38214204D02*
X144833333Y-38238014D01*
X144833333Y-38238014D02*
X144642857Y-38238014D01*
X145404762Y-38476109D02*
X145119048Y-38476109D01*
X145261905Y-38476109D02*
X145261905Y-37976109D01*
X145261905Y-37976109D02*
X145214286Y-38047538D01*
X145214286Y-38047538D02*
X145166667Y-38095157D01*
X145166667Y-38095157D02*
X145119048Y-38118966D01*
X145857142Y-37976109D02*
X145619047Y-37976109D01*
X145619047Y-37976109D02*
X145595238Y-38214204D01*
X145595238Y-38214204D02*
X145619047Y-38190395D01*
X145619047Y-38190395D02*
X145666666Y-38166585D01*
X145666666Y-38166585D02*
X145785714Y-38166585D01*
X145785714Y-38166585D02*
X145833333Y-38190395D01*
X145833333Y-38190395D02*
X145857142Y-38214204D01*
X145857142Y-38214204D02*
X145880952Y-38261823D01*
X145880952Y-38261823D02*
X145880952Y-38380871D01*
X145880952Y-38380871D02*
X145857142Y-38428490D01*
X145857142Y-38428490D02*
X145833333Y-38452300D01*
X145833333Y-38452300D02*
X145785714Y-38476109D01*
X145785714Y-38476109D02*
X145666666Y-38476109D01*
X145666666Y-38476109D02*
X145619047Y-38452300D01*
X145619047Y-38452300D02*
X145595238Y-38428490D01*
%TO.C,D4*%
X157630952Y-31476109D02*
X157630952Y-30976109D01*
X157630952Y-30976109D02*
X157750000Y-30976109D01*
X157750000Y-30976109D02*
X157821428Y-30999919D01*
X157821428Y-30999919D02*
X157869047Y-31047538D01*
X157869047Y-31047538D02*
X157892857Y-31095157D01*
X157892857Y-31095157D02*
X157916666Y-31190395D01*
X157916666Y-31190395D02*
X157916666Y-31261823D01*
X157916666Y-31261823D02*
X157892857Y-31357061D01*
X157892857Y-31357061D02*
X157869047Y-31404680D01*
X157869047Y-31404680D02*
X157821428Y-31452300D01*
X157821428Y-31452300D02*
X157750000Y-31476109D01*
X157750000Y-31476109D02*
X157630952Y-31476109D01*
X158345238Y-31142776D02*
X158345238Y-31476109D01*
X158226190Y-30952300D02*
X158107143Y-31309442D01*
X158107143Y-31309442D02*
X158416666Y-31309442D01*
%TO.C,L1*%
X135516666Y-84626109D02*
X135278571Y-84626109D01*
X135278571Y-84626109D02*
X135278571Y-84126109D01*
X135945238Y-84626109D02*
X135659524Y-84626109D01*
X135802381Y-84626109D02*
X135802381Y-84126109D01*
X135802381Y-84126109D02*
X135754762Y-84197538D01*
X135754762Y-84197538D02*
X135707143Y-84245157D01*
X135707143Y-84245157D02*
X135659524Y-84268966D01*
%TO.C,C14*%
X131861071Y-45478490D02*
X131837262Y-45502300D01*
X131837262Y-45502300D02*
X131765833Y-45526109D01*
X131765833Y-45526109D02*
X131718214Y-45526109D01*
X131718214Y-45526109D02*
X131646786Y-45502300D01*
X131646786Y-45502300D02*
X131599167Y-45454680D01*
X131599167Y-45454680D02*
X131575357Y-45407061D01*
X131575357Y-45407061D02*
X131551548Y-45311823D01*
X131551548Y-45311823D02*
X131551548Y-45240395D01*
X131551548Y-45240395D02*
X131575357Y-45145157D01*
X131575357Y-45145157D02*
X131599167Y-45097538D01*
X131599167Y-45097538D02*
X131646786Y-45049919D01*
X131646786Y-45049919D02*
X131718214Y-45026109D01*
X131718214Y-45026109D02*
X131765833Y-45026109D01*
X131765833Y-45026109D02*
X131837262Y-45049919D01*
X131837262Y-45049919D02*
X131861071Y-45073728D01*
X132337262Y-45526109D02*
X132051548Y-45526109D01*
X132194405Y-45526109D02*
X132194405Y-45026109D01*
X132194405Y-45026109D02*
X132146786Y-45097538D01*
X132146786Y-45097538D02*
X132099167Y-45145157D01*
X132099167Y-45145157D02*
X132051548Y-45168966D01*
X132765833Y-45192776D02*
X132765833Y-45526109D01*
X132646785Y-45002300D02*
X132527738Y-45359442D01*
X132527738Y-45359442D02*
X132837261Y-45359442D01*
%TO.C,C3*%
X136178490Y-69933333D02*
X136202300Y-69957142D01*
X136202300Y-69957142D02*
X136226109Y-70028571D01*
X136226109Y-70028571D02*
X136226109Y-70076190D01*
X136226109Y-70076190D02*
X136202300Y-70147618D01*
X136202300Y-70147618D02*
X136154680Y-70195237D01*
X136154680Y-70195237D02*
X136107061Y-70219047D01*
X136107061Y-70219047D02*
X136011823Y-70242856D01*
X136011823Y-70242856D02*
X135940395Y-70242856D01*
X135940395Y-70242856D02*
X135845157Y-70219047D01*
X135845157Y-70219047D02*
X135797538Y-70195237D01*
X135797538Y-70195237D02*
X135749919Y-70147618D01*
X135749919Y-70147618D02*
X135726109Y-70076190D01*
X135726109Y-70076190D02*
X135726109Y-70028571D01*
X135726109Y-70028571D02*
X135749919Y-69957142D01*
X135749919Y-69957142D02*
X135773728Y-69933333D01*
X135726109Y-69766666D02*
X135726109Y-69457142D01*
X135726109Y-69457142D02*
X135916585Y-69623809D01*
X135916585Y-69623809D02*
X135916585Y-69552380D01*
X135916585Y-69552380D02*
X135940395Y-69504761D01*
X135940395Y-69504761D02*
X135964204Y-69480952D01*
X135964204Y-69480952D02*
X136011823Y-69457142D01*
X136011823Y-69457142D02*
X136130871Y-69457142D01*
X136130871Y-69457142D02*
X136178490Y-69480952D01*
X136178490Y-69480952D02*
X136202300Y-69504761D01*
X136202300Y-69504761D02*
X136226109Y-69552380D01*
X136226109Y-69552380D02*
X136226109Y-69695237D01*
X136226109Y-69695237D02*
X136202300Y-69742856D01*
X136202300Y-69742856D02*
X136178490Y-69766666D01*
%TO.C,U4*%
X157231547Y-53226109D02*
X157231547Y-53630871D01*
X157231547Y-53630871D02*
X157255357Y-53678490D01*
X157255357Y-53678490D02*
X157279166Y-53702300D01*
X157279166Y-53702300D02*
X157326785Y-53726109D01*
X157326785Y-53726109D02*
X157422023Y-53726109D01*
X157422023Y-53726109D02*
X157469642Y-53702300D01*
X157469642Y-53702300D02*
X157493452Y-53678490D01*
X157493452Y-53678490D02*
X157517261Y-53630871D01*
X157517261Y-53630871D02*
X157517261Y-53226109D01*
X157969643Y-53392776D02*
X157969643Y-53726109D01*
X157850595Y-53202300D02*
X157731548Y-53559442D01*
X157731548Y-53559442D02*
X158041071Y-53559442D01*
%TO.C,C8*%
X160666666Y-38753490D02*
X160642857Y-38777300D01*
X160642857Y-38777300D02*
X160571428Y-38801109D01*
X160571428Y-38801109D02*
X160523809Y-38801109D01*
X160523809Y-38801109D02*
X160452381Y-38777300D01*
X160452381Y-38777300D02*
X160404762Y-38729680D01*
X160404762Y-38729680D02*
X160380952Y-38682061D01*
X160380952Y-38682061D02*
X160357143Y-38586823D01*
X160357143Y-38586823D02*
X160357143Y-38515395D01*
X160357143Y-38515395D02*
X160380952Y-38420157D01*
X160380952Y-38420157D02*
X160404762Y-38372538D01*
X160404762Y-38372538D02*
X160452381Y-38324919D01*
X160452381Y-38324919D02*
X160523809Y-38301109D01*
X160523809Y-38301109D02*
X160571428Y-38301109D01*
X160571428Y-38301109D02*
X160642857Y-38324919D01*
X160642857Y-38324919D02*
X160666666Y-38348728D01*
X160952381Y-38515395D02*
X160904762Y-38491585D01*
X160904762Y-38491585D02*
X160880952Y-38467776D01*
X160880952Y-38467776D02*
X160857143Y-38420157D01*
X160857143Y-38420157D02*
X160857143Y-38396347D01*
X160857143Y-38396347D02*
X160880952Y-38348728D01*
X160880952Y-38348728D02*
X160904762Y-38324919D01*
X160904762Y-38324919D02*
X160952381Y-38301109D01*
X160952381Y-38301109D02*
X161047619Y-38301109D01*
X161047619Y-38301109D02*
X161095238Y-38324919D01*
X161095238Y-38324919D02*
X161119047Y-38348728D01*
X161119047Y-38348728D02*
X161142857Y-38396347D01*
X161142857Y-38396347D02*
X161142857Y-38420157D01*
X161142857Y-38420157D02*
X161119047Y-38467776D01*
X161119047Y-38467776D02*
X161095238Y-38491585D01*
X161095238Y-38491585D02*
X161047619Y-38515395D01*
X161047619Y-38515395D02*
X160952381Y-38515395D01*
X160952381Y-38515395D02*
X160904762Y-38539204D01*
X160904762Y-38539204D02*
X160880952Y-38563014D01*
X160880952Y-38563014D02*
X160857143Y-38610633D01*
X160857143Y-38610633D02*
X160857143Y-38705871D01*
X160857143Y-38705871D02*
X160880952Y-38753490D01*
X160880952Y-38753490D02*
X160904762Y-38777300D01*
X160904762Y-38777300D02*
X160952381Y-38801109D01*
X160952381Y-38801109D02*
X161047619Y-38801109D01*
X161047619Y-38801109D02*
X161095238Y-38777300D01*
X161095238Y-38777300D02*
X161119047Y-38753490D01*
X161119047Y-38753490D02*
X161142857Y-38705871D01*
X161142857Y-38705871D02*
X161142857Y-38610633D01*
X161142857Y-38610633D02*
X161119047Y-38563014D01*
X161119047Y-38563014D02*
X161095238Y-38539204D01*
X161095238Y-38539204D02*
X161047619Y-38515395D01*
%TO.C,C5*%
X142266666Y-76328490D02*
X142242857Y-76352300D01*
X142242857Y-76352300D02*
X142171428Y-76376109D01*
X142171428Y-76376109D02*
X142123809Y-76376109D01*
X142123809Y-76376109D02*
X142052381Y-76352300D01*
X142052381Y-76352300D02*
X142004762Y-76304680D01*
X142004762Y-76304680D02*
X141980952Y-76257061D01*
X141980952Y-76257061D02*
X141957143Y-76161823D01*
X141957143Y-76161823D02*
X141957143Y-76090395D01*
X141957143Y-76090395D02*
X141980952Y-75995157D01*
X141980952Y-75995157D02*
X142004762Y-75947538D01*
X142004762Y-75947538D02*
X142052381Y-75899919D01*
X142052381Y-75899919D02*
X142123809Y-75876109D01*
X142123809Y-75876109D02*
X142171428Y-75876109D01*
X142171428Y-75876109D02*
X142242857Y-75899919D01*
X142242857Y-75899919D02*
X142266666Y-75923728D01*
X142719047Y-75876109D02*
X142480952Y-75876109D01*
X142480952Y-75876109D02*
X142457143Y-76114204D01*
X142457143Y-76114204D02*
X142480952Y-76090395D01*
X142480952Y-76090395D02*
X142528571Y-76066585D01*
X142528571Y-76066585D02*
X142647619Y-76066585D01*
X142647619Y-76066585D02*
X142695238Y-76090395D01*
X142695238Y-76090395D02*
X142719047Y-76114204D01*
X142719047Y-76114204D02*
X142742857Y-76161823D01*
X142742857Y-76161823D02*
X142742857Y-76280871D01*
X142742857Y-76280871D02*
X142719047Y-76328490D01*
X142719047Y-76328490D02*
X142695238Y-76352300D01*
X142695238Y-76352300D02*
X142647619Y-76376109D01*
X142647619Y-76376109D02*
X142528571Y-76376109D01*
X142528571Y-76376109D02*
X142480952Y-76352300D01*
X142480952Y-76352300D02*
X142457143Y-76328490D01*
%TO.C,C2*%
X139178490Y-69933333D02*
X139202300Y-69957142D01*
X139202300Y-69957142D02*
X139226109Y-70028571D01*
X139226109Y-70028571D02*
X139226109Y-70076190D01*
X139226109Y-70076190D02*
X139202300Y-70147618D01*
X139202300Y-70147618D02*
X139154680Y-70195237D01*
X139154680Y-70195237D02*
X139107061Y-70219047D01*
X139107061Y-70219047D02*
X139011823Y-70242856D01*
X139011823Y-70242856D02*
X138940395Y-70242856D01*
X138940395Y-70242856D02*
X138845157Y-70219047D01*
X138845157Y-70219047D02*
X138797538Y-70195237D01*
X138797538Y-70195237D02*
X138749919Y-70147618D01*
X138749919Y-70147618D02*
X138726109Y-70076190D01*
X138726109Y-70076190D02*
X138726109Y-70028571D01*
X138726109Y-70028571D02*
X138749919Y-69957142D01*
X138749919Y-69957142D02*
X138773728Y-69933333D01*
X138773728Y-69742856D02*
X138749919Y-69719047D01*
X138749919Y-69719047D02*
X138726109Y-69671428D01*
X138726109Y-69671428D02*
X138726109Y-69552380D01*
X138726109Y-69552380D02*
X138749919Y-69504761D01*
X138749919Y-69504761D02*
X138773728Y-69480952D01*
X138773728Y-69480952D02*
X138821347Y-69457142D01*
X138821347Y-69457142D02*
X138868966Y-69457142D01*
X138868966Y-69457142D02*
X138940395Y-69480952D01*
X138940395Y-69480952D02*
X139226109Y-69766666D01*
X139226109Y-69766666D02*
X139226109Y-69457142D01*
%TO.C,Q4*%
X146202380Y-43673728D02*
X146154761Y-43649919D01*
X146154761Y-43649919D02*
X146107142Y-43602300D01*
X146107142Y-43602300D02*
X146035714Y-43530871D01*
X146035714Y-43530871D02*
X145988095Y-43507061D01*
X145988095Y-43507061D02*
X145940476Y-43507061D01*
X145964285Y-43626109D02*
X145916666Y-43602300D01*
X145916666Y-43602300D02*
X145869047Y-43554680D01*
X145869047Y-43554680D02*
X145845238Y-43459442D01*
X145845238Y-43459442D02*
X145845238Y-43292776D01*
X145845238Y-43292776D02*
X145869047Y-43197538D01*
X145869047Y-43197538D02*
X145916666Y-43149919D01*
X145916666Y-43149919D02*
X145964285Y-43126109D01*
X145964285Y-43126109D02*
X146059523Y-43126109D01*
X146059523Y-43126109D02*
X146107142Y-43149919D01*
X146107142Y-43149919D02*
X146154761Y-43197538D01*
X146154761Y-43197538D02*
X146178571Y-43292776D01*
X146178571Y-43292776D02*
X146178571Y-43459442D01*
X146178571Y-43459442D02*
X146154761Y-43554680D01*
X146154761Y-43554680D02*
X146107142Y-43602300D01*
X146107142Y-43602300D02*
X146059523Y-43626109D01*
X146059523Y-43626109D02*
X145964285Y-43626109D01*
X146607143Y-43292776D02*
X146607143Y-43626109D01*
X146488095Y-43102300D02*
X146369048Y-43459442D01*
X146369048Y-43459442D02*
X146678571Y-43459442D01*
%TO.C,R18*%
X139928571Y-43626109D02*
X139761905Y-43388014D01*
X139642857Y-43626109D02*
X139642857Y-43126109D01*
X139642857Y-43126109D02*
X139833333Y-43126109D01*
X139833333Y-43126109D02*
X139880952Y-43149919D01*
X139880952Y-43149919D02*
X139904762Y-43173728D01*
X139904762Y-43173728D02*
X139928571Y-43221347D01*
X139928571Y-43221347D02*
X139928571Y-43292776D01*
X139928571Y-43292776D02*
X139904762Y-43340395D01*
X139904762Y-43340395D02*
X139880952Y-43364204D01*
X139880952Y-43364204D02*
X139833333Y-43388014D01*
X139833333Y-43388014D02*
X139642857Y-43388014D01*
X140404762Y-43626109D02*
X140119048Y-43626109D01*
X140261905Y-43626109D02*
X140261905Y-43126109D01*
X140261905Y-43126109D02*
X140214286Y-43197538D01*
X140214286Y-43197538D02*
X140166667Y-43245157D01*
X140166667Y-43245157D02*
X140119048Y-43268966D01*
X140690476Y-43340395D02*
X140642857Y-43316585D01*
X140642857Y-43316585D02*
X140619047Y-43292776D01*
X140619047Y-43292776D02*
X140595238Y-43245157D01*
X140595238Y-43245157D02*
X140595238Y-43221347D01*
X140595238Y-43221347D02*
X140619047Y-43173728D01*
X140619047Y-43173728D02*
X140642857Y-43149919D01*
X140642857Y-43149919D02*
X140690476Y-43126109D01*
X140690476Y-43126109D02*
X140785714Y-43126109D01*
X140785714Y-43126109D02*
X140833333Y-43149919D01*
X140833333Y-43149919D02*
X140857142Y-43173728D01*
X140857142Y-43173728D02*
X140880952Y-43221347D01*
X140880952Y-43221347D02*
X140880952Y-43245157D01*
X140880952Y-43245157D02*
X140857142Y-43292776D01*
X140857142Y-43292776D02*
X140833333Y-43316585D01*
X140833333Y-43316585D02*
X140785714Y-43340395D01*
X140785714Y-43340395D02*
X140690476Y-43340395D01*
X140690476Y-43340395D02*
X140642857Y-43364204D01*
X140642857Y-43364204D02*
X140619047Y-43388014D01*
X140619047Y-43388014D02*
X140595238Y-43435633D01*
X140595238Y-43435633D02*
X140595238Y-43530871D01*
X140595238Y-43530871D02*
X140619047Y-43578490D01*
X140619047Y-43578490D02*
X140642857Y-43602300D01*
X140642857Y-43602300D02*
X140690476Y-43626109D01*
X140690476Y-43626109D02*
X140785714Y-43626109D01*
X140785714Y-43626109D02*
X140833333Y-43602300D01*
X140833333Y-43602300D02*
X140857142Y-43578490D01*
X140857142Y-43578490D02*
X140880952Y-43530871D01*
X140880952Y-43530871D02*
X140880952Y-43435633D01*
X140880952Y-43435633D02*
X140857142Y-43388014D01*
X140857142Y-43388014D02*
X140833333Y-43364204D01*
X140833333Y-43364204D02*
X140785714Y-43340395D01*
%TO.C,D2*%
X157130952Y-47476109D02*
X157130952Y-46976109D01*
X157130952Y-46976109D02*
X157250000Y-46976109D01*
X157250000Y-46976109D02*
X157321428Y-46999919D01*
X157321428Y-46999919D02*
X157369047Y-47047538D01*
X157369047Y-47047538D02*
X157392857Y-47095157D01*
X157392857Y-47095157D02*
X157416666Y-47190395D01*
X157416666Y-47190395D02*
X157416666Y-47261823D01*
X157416666Y-47261823D02*
X157392857Y-47357061D01*
X157392857Y-47357061D02*
X157369047Y-47404680D01*
X157369047Y-47404680D02*
X157321428Y-47452300D01*
X157321428Y-47452300D02*
X157250000Y-47476109D01*
X157250000Y-47476109D02*
X157130952Y-47476109D01*
X157607143Y-47023728D02*
X157630952Y-46999919D01*
X157630952Y-46999919D02*
X157678571Y-46976109D01*
X157678571Y-46976109D02*
X157797619Y-46976109D01*
X157797619Y-46976109D02*
X157845238Y-46999919D01*
X157845238Y-46999919D02*
X157869047Y-47023728D01*
X157869047Y-47023728D02*
X157892857Y-47071347D01*
X157892857Y-47071347D02*
X157892857Y-47118966D01*
X157892857Y-47118966D02*
X157869047Y-47190395D01*
X157869047Y-47190395D02*
X157583333Y-47476109D01*
X157583333Y-47476109D02*
X157892857Y-47476109D01*
%TO.C,C10*%
X151678571Y-38753490D02*
X151654762Y-38777300D01*
X151654762Y-38777300D02*
X151583333Y-38801109D01*
X151583333Y-38801109D02*
X151535714Y-38801109D01*
X151535714Y-38801109D02*
X151464286Y-38777300D01*
X151464286Y-38777300D02*
X151416667Y-38729680D01*
X151416667Y-38729680D02*
X151392857Y-38682061D01*
X151392857Y-38682061D02*
X151369048Y-38586823D01*
X151369048Y-38586823D02*
X151369048Y-38515395D01*
X151369048Y-38515395D02*
X151392857Y-38420157D01*
X151392857Y-38420157D02*
X151416667Y-38372538D01*
X151416667Y-38372538D02*
X151464286Y-38324919D01*
X151464286Y-38324919D02*
X151535714Y-38301109D01*
X151535714Y-38301109D02*
X151583333Y-38301109D01*
X151583333Y-38301109D02*
X151654762Y-38324919D01*
X151654762Y-38324919D02*
X151678571Y-38348728D01*
X152154762Y-38801109D02*
X151869048Y-38801109D01*
X152011905Y-38801109D02*
X152011905Y-38301109D01*
X152011905Y-38301109D02*
X151964286Y-38372538D01*
X151964286Y-38372538D02*
X151916667Y-38420157D01*
X151916667Y-38420157D02*
X151869048Y-38443966D01*
X152464285Y-38301109D02*
X152511904Y-38301109D01*
X152511904Y-38301109D02*
X152559523Y-38324919D01*
X152559523Y-38324919D02*
X152583333Y-38348728D01*
X152583333Y-38348728D02*
X152607142Y-38396347D01*
X152607142Y-38396347D02*
X152630952Y-38491585D01*
X152630952Y-38491585D02*
X152630952Y-38610633D01*
X152630952Y-38610633D02*
X152607142Y-38705871D01*
X152607142Y-38705871D02*
X152583333Y-38753490D01*
X152583333Y-38753490D02*
X152559523Y-38777300D01*
X152559523Y-38777300D02*
X152511904Y-38801109D01*
X152511904Y-38801109D02*
X152464285Y-38801109D01*
X152464285Y-38801109D02*
X152416666Y-38777300D01*
X152416666Y-38777300D02*
X152392857Y-38753490D01*
X152392857Y-38753490D02*
X152369047Y-38705871D01*
X152369047Y-38705871D02*
X152345238Y-38610633D01*
X152345238Y-38610633D02*
X152345238Y-38491585D01*
X152345238Y-38491585D02*
X152369047Y-38396347D01*
X152369047Y-38396347D02*
X152392857Y-38348728D01*
X152392857Y-38348728D02*
X152416666Y-38324919D01*
X152416666Y-38324919D02*
X152464285Y-38301109D01*
%TO.C,J2*%
X128358333Y-68726109D02*
X128358333Y-69083252D01*
X128358333Y-69083252D02*
X128334524Y-69154680D01*
X128334524Y-69154680D02*
X128286905Y-69202300D01*
X128286905Y-69202300D02*
X128215476Y-69226109D01*
X128215476Y-69226109D02*
X128167857Y-69226109D01*
X128572619Y-68773728D02*
X128596428Y-68749919D01*
X128596428Y-68749919D02*
X128644047Y-68726109D01*
X128644047Y-68726109D02*
X128763095Y-68726109D01*
X128763095Y-68726109D02*
X128810714Y-68749919D01*
X128810714Y-68749919D02*
X128834523Y-68773728D01*
X128834523Y-68773728D02*
X128858333Y-68821347D01*
X128858333Y-68821347D02*
X128858333Y-68868966D01*
X128858333Y-68868966D02*
X128834523Y-68940395D01*
X128834523Y-68940395D02*
X128548809Y-69226109D01*
X128548809Y-69226109D02*
X128858333Y-69226109D01*
%TO.C,C6*%
X141766666Y-84578490D02*
X141742857Y-84602300D01*
X141742857Y-84602300D02*
X141671428Y-84626109D01*
X141671428Y-84626109D02*
X141623809Y-84626109D01*
X141623809Y-84626109D02*
X141552381Y-84602300D01*
X141552381Y-84602300D02*
X141504762Y-84554680D01*
X141504762Y-84554680D02*
X141480952Y-84507061D01*
X141480952Y-84507061D02*
X141457143Y-84411823D01*
X141457143Y-84411823D02*
X141457143Y-84340395D01*
X141457143Y-84340395D02*
X141480952Y-84245157D01*
X141480952Y-84245157D02*
X141504762Y-84197538D01*
X141504762Y-84197538D02*
X141552381Y-84149919D01*
X141552381Y-84149919D02*
X141623809Y-84126109D01*
X141623809Y-84126109D02*
X141671428Y-84126109D01*
X141671428Y-84126109D02*
X141742857Y-84149919D01*
X141742857Y-84149919D02*
X141766666Y-84173728D01*
X142195238Y-84126109D02*
X142100000Y-84126109D01*
X142100000Y-84126109D02*
X142052381Y-84149919D01*
X142052381Y-84149919D02*
X142028571Y-84173728D01*
X142028571Y-84173728D02*
X141980952Y-84245157D01*
X141980952Y-84245157D02*
X141957143Y-84340395D01*
X141957143Y-84340395D02*
X141957143Y-84530871D01*
X141957143Y-84530871D02*
X141980952Y-84578490D01*
X141980952Y-84578490D02*
X142004762Y-84602300D01*
X142004762Y-84602300D02*
X142052381Y-84626109D01*
X142052381Y-84626109D02*
X142147619Y-84626109D01*
X142147619Y-84626109D02*
X142195238Y-84602300D01*
X142195238Y-84602300D02*
X142219047Y-84578490D01*
X142219047Y-84578490D02*
X142242857Y-84530871D01*
X142242857Y-84530871D02*
X142242857Y-84411823D01*
X142242857Y-84411823D02*
X142219047Y-84364204D01*
X142219047Y-84364204D02*
X142195238Y-84340395D01*
X142195238Y-84340395D02*
X142147619Y-84316585D01*
X142147619Y-84316585D02*
X142052381Y-84316585D01*
X142052381Y-84316585D02*
X142004762Y-84340395D01*
X142004762Y-84340395D02*
X141980952Y-84364204D01*
X141980952Y-84364204D02*
X141957143Y-84411823D01*
%TO.C,R17*%
X143928571Y-39626109D02*
X143761905Y-39388014D01*
X143642857Y-39626109D02*
X143642857Y-39126109D01*
X143642857Y-39126109D02*
X143833333Y-39126109D01*
X143833333Y-39126109D02*
X143880952Y-39149919D01*
X143880952Y-39149919D02*
X143904762Y-39173728D01*
X143904762Y-39173728D02*
X143928571Y-39221347D01*
X143928571Y-39221347D02*
X143928571Y-39292776D01*
X143928571Y-39292776D02*
X143904762Y-39340395D01*
X143904762Y-39340395D02*
X143880952Y-39364204D01*
X143880952Y-39364204D02*
X143833333Y-39388014D01*
X143833333Y-39388014D02*
X143642857Y-39388014D01*
X144404762Y-39626109D02*
X144119048Y-39626109D01*
X144261905Y-39626109D02*
X144261905Y-39126109D01*
X144261905Y-39126109D02*
X144214286Y-39197538D01*
X144214286Y-39197538D02*
X144166667Y-39245157D01*
X144166667Y-39245157D02*
X144119048Y-39268966D01*
X144571428Y-39126109D02*
X144904761Y-39126109D01*
X144904761Y-39126109D02*
X144690476Y-39626109D01*
%TO.C,J1*%
X130226109Y-32916666D02*
X130583252Y-32916666D01*
X130583252Y-32916666D02*
X130654680Y-32940475D01*
X130654680Y-32940475D02*
X130702300Y-32988094D01*
X130702300Y-32988094D02*
X130726109Y-33059523D01*
X130726109Y-33059523D02*
X130726109Y-33107142D01*
X130726109Y-32416666D02*
X130726109Y-32702380D01*
X130726109Y-32559523D02*
X130226109Y-32559523D01*
X130226109Y-32559523D02*
X130297538Y-32607142D01*
X130297538Y-32607142D02*
X130345157Y-32654761D01*
X130345157Y-32654761D02*
X130368966Y-32702380D01*
%TO.C,R9*%
X138226109Y-69933333D02*
X137988014Y-70099999D01*
X138226109Y-70219047D02*
X137726109Y-70219047D01*
X137726109Y-70219047D02*
X137726109Y-70028571D01*
X137726109Y-70028571D02*
X137749919Y-69980952D01*
X137749919Y-69980952D02*
X137773728Y-69957142D01*
X137773728Y-69957142D02*
X137821347Y-69933333D01*
X137821347Y-69933333D02*
X137892776Y-69933333D01*
X137892776Y-69933333D02*
X137940395Y-69957142D01*
X137940395Y-69957142D02*
X137964204Y-69980952D01*
X137964204Y-69980952D02*
X137988014Y-70028571D01*
X137988014Y-70028571D02*
X137988014Y-70219047D01*
X138226109Y-69695237D02*
X138226109Y-69599999D01*
X138226109Y-69599999D02*
X138202300Y-69552380D01*
X138202300Y-69552380D02*
X138178490Y-69528571D01*
X138178490Y-69528571D02*
X138107061Y-69480952D01*
X138107061Y-69480952D02*
X138011823Y-69457142D01*
X138011823Y-69457142D02*
X137821347Y-69457142D01*
X137821347Y-69457142D02*
X137773728Y-69480952D01*
X137773728Y-69480952D02*
X137749919Y-69504761D01*
X137749919Y-69504761D02*
X137726109Y-69552380D01*
X137726109Y-69552380D02*
X137726109Y-69647618D01*
X137726109Y-69647618D02*
X137749919Y-69695237D01*
X137749919Y-69695237D02*
X137773728Y-69719047D01*
X137773728Y-69719047D02*
X137821347Y-69742856D01*
X137821347Y-69742856D02*
X137940395Y-69742856D01*
X137940395Y-69742856D02*
X137988014Y-69719047D01*
X137988014Y-69719047D02*
X138011823Y-69695237D01*
X138011823Y-69695237D02*
X138035633Y-69647618D01*
X138035633Y-69647618D02*
X138035633Y-69552380D01*
X138035633Y-69552380D02*
X138011823Y-69504761D01*
X138011823Y-69504761D02*
X137988014Y-69480952D01*
X137988014Y-69480952D02*
X137940395Y-69457142D01*
%TO.C,Q5*%
X142202380Y-47673728D02*
X142154761Y-47649919D01*
X142154761Y-47649919D02*
X142107142Y-47602300D01*
X142107142Y-47602300D02*
X142035714Y-47530871D01*
X142035714Y-47530871D02*
X141988095Y-47507061D01*
X141988095Y-47507061D02*
X141940476Y-47507061D01*
X141964285Y-47626109D02*
X141916666Y-47602300D01*
X141916666Y-47602300D02*
X141869047Y-47554680D01*
X141869047Y-47554680D02*
X141845238Y-47459442D01*
X141845238Y-47459442D02*
X141845238Y-47292776D01*
X141845238Y-47292776D02*
X141869047Y-47197538D01*
X141869047Y-47197538D02*
X141916666Y-47149919D01*
X141916666Y-47149919D02*
X141964285Y-47126109D01*
X141964285Y-47126109D02*
X142059523Y-47126109D01*
X142059523Y-47126109D02*
X142107142Y-47149919D01*
X142107142Y-47149919D02*
X142154761Y-47197538D01*
X142154761Y-47197538D02*
X142178571Y-47292776D01*
X142178571Y-47292776D02*
X142178571Y-47459442D01*
X142178571Y-47459442D02*
X142154761Y-47554680D01*
X142154761Y-47554680D02*
X142107142Y-47602300D01*
X142107142Y-47602300D02*
X142059523Y-47626109D01*
X142059523Y-47626109D02*
X141964285Y-47626109D01*
X142630952Y-47126109D02*
X142392857Y-47126109D01*
X142392857Y-47126109D02*
X142369048Y-47364204D01*
X142369048Y-47364204D02*
X142392857Y-47340395D01*
X142392857Y-47340395D02*
X142440476Y-47316585D01*
X142440476Y-47316585D02*
X142559524Y-47316585D01*
X142559524Y-47316585D02*
X142607143Y-47340395D01*
X142607143Y-47340395D02*
X142630952Y-47364204D01*
X142630952Y-47364204D02*
X142654762Y-47411823D01*
X142654762Y-47411823D02*
X142654762Y-47530871D01*
X142654762Y-47530871D02*
X142630952Y-47578490D01*
X142630952Y-47578490D02*
X142607143Y-47602300D01*
X142607143Y-47602300D02*
X142559524Y-47626109D01*
X142559524Y-47626109D02*
X142440476Y-47626109D01*
X142440476Y-47626109D02*
X142392857Y-47602300D01*
X142392857Y-47602300D02*
X142369048Y-47578490D01*
%TO.C,C1*%
X140178490Y-69933333D02*
X140202300Y-69957142D01*
X140202300Y-69957142D02*
X140226109Y-70028571D01*
X140226109Y-70028571D02*
X140226109Y-70076190D01*
X140226109Y-70076190D02*
X140202300Y-70147618D01*
X140202300Y-70147618D02*
X140154680Y-70195237D01*
X140154680Y-70195237D02*
X140107061Y-70219047D01*
X140107061Y-70219047D02*
X140011823Y-70242856D01*
X140011823Y-70242856D02*
X139940395Y-70242856D01*
X139940395Y-70242856D02*
X139845157Y-70219047D01*
X139845157Y-70219047D02*
X139797538Y-70195237D01*
X139797538Y-70195237D02*
X139749919Y-70147618D01*
X139749919Y-70147618D02*
X139726109Y-70076190D01*
X139726109Y-70076190D02*
X139726109Y-70028571D01*
X139726109Y-70028571D02*
X139749919Y-69957142D01*
X139749919Y-69957142D02*
X139773728Y-69933333D01*
X140226109Y-69457142D02*
X140226109Y-69742856D01*
X140226109Y-69599999D02*
X139726109Y-69599999D01*
X139726109Y-69599999D02*
X139797538Y-69647618D01*
X139797538Y-69647618D02*
X139845157Y-69695237D01*
X139845157Y-69695237D02*
X139868966Y-69742856D01*
%TO.C,R1*%
X140166666Y-47626109D02*
X140000000Y-47388014D01*
X139880952Y-47626109D02*
X139880952Y-47126109D01*
X139880952Y-47126109D02*
X140071428Y-47126109D01*
X140071428Y-47126109D02*
X140119047Y-47149919D01*
X140119047Y-47149919D02*
X140142857Y-47173728D01*
X140142857Y-47173728D02*
X140166666Y-47221347D01*
X140166666Y-47221347D02*
X140166666Y-47292776D01*
X140166666Y-47292776D02*
X140142857Y-47340395D01*
X140142857Y-47340395D02*
X140119047Y-47364204D01*
X140119047Y-47364204D02*
X140071428Y-47388014D01*
X140071428Y-47388014D02*
X139880952Y-47388014D01*
X140642857Y-47626109D02*
X140357143Y-47626109D01*
X140500000Y-47626109D02*
X140500000Y-47126109D01*
X140500000Y-47126109D02*
X140452381Y-47197538D01*
X140452381Y-47197538D02*
X140404762Y-47245157D01*
X140404762Y-47245157D02*
X140357143Y-47268966D01*
%TO.C,C22*%
X138728490Y-52821428D02*
X138752300Y-52845237D01*
X138752300Y-52845237D02*
X138776109Y-52916666D01*
X138776109Y-52916666D02*
X138776109Y-52964285D01*
X138776109Y-52964285D02*
X138752300Y-53035713D01*
X138752300Y-53035713D02*
X138704680Y-53083332D01*
X138704680Y-53083332D02*
X138657061Y-53107142D01*
X138657061Y-53107142D02*
X138561823Y-53130951D01*
X138561823Y-53130951D02*
X138490395Y-53130951D01*
X138490395Y-53130951D02*
X138395157Y-53107142D01*
X138395157Y-53107142D02*
X138347538Y-53083332D01*
X138347538Y-53083332D02*
X138299919Y-53035713D01*
X138299919Y-53035713D02*
X138276109Y-52964285D01*
X138276109Y-52964285D02*
X138276109Y-52916666D01*
X138276109Y-52916666D02*
X138299919Y-52845237D01*
X138299919Y-52845237D02*
X138323728Y-52821428D01*
X138323728Y-52630951D02*
X138299919Y-52607142D01*
X138299919Y-52607142D02*
X138276109Y-52559523D01*
X138276109Y-52559523D02*
X138276109Y-52440475D01*
X138276109Y-52440475D02*
X138299919Y-52392856D01*
X138299919Y-52392856D02*
X138323728Y-52369047D01*
X138323728Y-52369047D02*
X138371347Y-52345237D01*
X138371347Y-52345237D02*
X138418966Y-52345237D01*
X138418966Y-52345237D02*
X138490395Y-52369047D01*
X138490395Y-52369047D02*
X138776109Y-52654761D01*
X138776109Y-52654761D02*
X138776109Y-52345237D01*
X138323728Y-52154761D02*
X138299919Y-52130952D01*
X138299919Y-52130952D02*
X138276109Y-52083333D01*
X138276109Y-52083333D02*
X138276109Y-51964285D01*
X138276109Y-51964285D02*
X138299919Y-51916666D01*
X138299919Y-51916666D02*
X138323728Y-51892857D01*
X138323728Y-51892857D02*
X138371347Y-51869047D01*
X138371347Y-51869047D02*
X138418966Y-51869047D01*
X138418966Y-51869047D02*
X138490395Y-51892857D01*
X138490395Y-51892857D02*
X138776109Y-52178571D01*
X138776109Y-52178571D02*
X138776109Y-51869047D01*
%TO.C,X1*%
X143595238Y-50476109D02*
X143928571Y-50976109D01*
X143928571Y-50476109D02*
X143595238Y-50976109D01*
X144380952Y-50976109D02*
X144095238Y-50976109D01*
X144238095Y-50976109D02*
X144238095Y-50476109D01*
X144238095Y-50476109D02*
X144190476Y-50547538D01*
X144190476Y-50547538D02*
X144142857Y-50595157D01*
X144142857Y-50595157D02*
X144095238Y-50618966D01*
%TO.C,R19*%
X143928571Y-43626109D02*
X143761905Y-43388014D01*
X143642857Y-43626109D02*
X143642857Y-43126109D01*
X143642857Y-43126109D02*
X143833333Y-43126109D01*
X143833333Y-43126109D02*
X143880952Y-43149919D01*
X143880952Y-43149919D02*
X143904762Y-43173728D01*
X143904762Y-43173728D02*
X143928571Y-43221347D01*
X143928571Y-43221347D02*
X143928571Y-43292776D01*
X143928571Y-43292776D02*
X143904762Y-43340395D01*
X143904762Y-43340395D02*
X143880952Y-43364204D01*
X143880952Y-43364204D02*
X143833333Y-43388014D01*
X143833333Y-43388014D02*
X143642857Y-43388014D01*
X144404762Y-43626109D02*
X144119048Y-43626109D01*
X144261905Y-43626109D02*
X144261905Y-43126109D01*
X144261905Y-43126109D02*
X144214286Y-43197538D01*
X144214286Y-43197538D02*
X144166667Y-43245157D01*
X144166667Y-43245157D02*
X144119048Y-43268966D01*
X144642857Y-43626109D02*
X144738095Y-43626109D01*
X144738095Y-43626109D02*
X144785714Y-43602300D01*
X144785714Y-43602300D02*
X144809523Y-43578490D01*
X144809523Y-43578490D02*
X144857142Y-43507061D01*
X144857142Y-43507061D02*
X144880952Y-43411823D01*
X144880952Y-43411823D02*
X144880952Y-43221347D01*
X144880952Y-43221347D02*
X144857142Y-43173728D01*
X144857142Y-43173728D02*
X144833333Y-43149919D01*
X144833333Y-43149919D02*
X144785714Y-43126109D01*
X144785714Y-43126109D02*
X144690476Y-43126109D01*
X144690476Y-43126109D02*
X144642857Y-43149919D01*
X144642857Y-43149919D02*
X144619047Y-43173728D01*
X144619047Y-43173728D02*
X144595238Y-43221347D01*
X144595238Y-43221347D02*
X144595238Y-43340395D01*
X144595238Y-43340395D02*
X144619047Y-43388014D01*
X144619047Y-43388014D02*
X144642857Y-43411823D01*
X144642857Y-43411823D02*
X144690476Y-43435633D01*
X144690476Y-43435633D02*
X144785714Y-43435633D01*
X144785714Y-43435633D02*
X144833333Y-43411823D01*
X144833333Y-43411823D02*
X144857142Y-43388014D01*
X144857142Y-43388014D02*
X144880952Y-43340395D01*
%TO.C,R8*%
X137216109Y-69933333D02*
X136978014Y-70099999D01*
X137216109Y-70219047D02*
X136716109Y-70219047D01*
X136716109Y-70219047D02*
X136716109Y-70028571D01*
X136716109Y-70028571D02*
X136739919Y-69980952D01*
X136739919Y-69980952D02*
X136763728Y-69957142D01*
X136763728Y-69957142D02*
X136811347Y-69933333D01*
X136811347Y-69933333D02*
X136882776Y-69933333D01*
X136882776Y-69933333D02*
X136930395Y-69957142D01*
X136930395Y-69957142D02*
X136954204Y-69980952D01*
X136954204Y-69980952D02*
X136978014Y-70028571D01*
X136978014Y-70028571D02*
X136978014Y-70219047D01*
X136930395Y-69647618D02*
X136906585Y-69695237D01*
X136906585Y-69695237D02*
X136882776Y-69719047D01*
X136882776Y-69719047D02*
X136835157Y-69742856D01*
X136835157Y-69742856D02*
X136811347Y-69742856D01*
X136811347Y-69742856D02*
X136763728Y-69719047D01*
X136763728Y-69719047D02*
X136739919Y-69695237D01*
X136739919Y-69695237D02*
X136716109Y-69647618D01*
X136716109Y-69647618D02*
X136716109Y-69552380D01*
X136716109Y-69552380D02*
X136739919Y-69504761D01*
X136739919Y-69504761D02*
X136763728Y-69480952D01*
X136763728Y-69480952D02*
X136811347Y-69457142D01*
X136811347Y-69457142D02*
X136835157Y-69457142D01*
X136835157Y-69457142D02*
X136882776Y-69480952D01*
X136882776Y-69480952D02*
X136906585Y-69504761D01*
X136906585Y-69504761D02*
X136930395Y-69552380D01*
X136930395Y-69552380D02*
X136930395Y-69647618D01*
X136930395Y-69647618D02*
X136954204Y-69695237D01*
X136954204Y-69695237D02*
X136978014Y-69719047D01*
X136978014Y-69719047D02*
X137025633Y-69742856D01*
X137025633Y-69742856D02*
X137120871Y-69742856D01*
X137120871Y-69742856D02*
X137168490Y-69719047D01*
X137168490Y-69719047D02*
X137192300Y-69695237D01*
X137192300Y-69695237D02*
X137216109Y-69647618D01*
X137216109Y-69647618D02*
X137216109Y-69552380D01*
X137216109Y-69552380D02*
X137192300Y-69504761D01*
X137192300Y-69504761D02*
X137168490Y-69480952D01*
X137168490Y-69480952D02*
X137120871Y-69457142D01*
X137120871Y-69457142D02*
X137025633Y-69457142D01*
X137025633Y-69457142D02*
X136978014Y-69480952D01*
X136978014Y-69480952D02*
X136954204Y-69504761D01*
X136954204Y-69504761D02*
X136930395Y-69552380D01*
%TO.C,R13*%
X144928571Y-31476109D02*
X144761905Y-31238014D01*
X144642857Y-31476109D02*
X144642857Y-30976109D01*
X144642857Y-30976109D02*
X144833333Y-30976109D01*
X144833333Y-30976109D02*
X144880952Y-30999919D01*
X144880952Y-30999919D02*
X144904762Y-31023728D01*
X144904762Y-31023728D02*
X144928571Y-31071347D01*
X144928571Y-31071347D02*
X144928571Y-31142776D01*
X144928571Y-31142776D02*
X144904762Y-31190395D01*
X144904762Y-31190395D02*
X144880952Y-31214204D01*
X144880952Y-31214204D02*
X144833333Y-31238014D01*
X144833333Y-31238014D02*
X144642857Y-31238014D01*
X145404762Y-31476109D02*
X145119048Y-31476109D01*
X145261905Y-31476109D02*
X145261905Y-30976109D01*
X145261905Y-30976109D02*
X145214286Y-31047538D01*
X145214286Y-31047538D02*
X145166667Y-31095157D01*
X145166667Y-31095157D02*
X145119048Y-31118966D01*
X145571428Y-30976109D02*
X145880952Y-30976109D01*
X145880952Y-30976109D02*
X145714285Y-31166585D01*
X145714285Y-31166585D02*
X145785714Y-31166585D01*
X145785714Y-31166585D02*
X145833333Y-31190395D01*
X145833333Y-31190395D02*
X145857142Y-31214204D01*
X145857142Y-31214204D02*
X145880952Y-31261823D01*
X145880952Y-31261823D02*
X145880952Y-31380871D01*
X145880952Y-31380871D02*
X145857142Y-31428490D01*
X145857142Y-31428490D02*
X145833333Y-31452300D01*
X145833333Y-31452300D02*
X145785714Y-31476109D01*
X145785714Y-31476109D02*
X145642857Y-31476109D01*
X145642857Y-31476109D02*
X145595238Y-31452300D01*
X145595238Y-31452300D02*
X145571428Y-31428490D01*
D12*
%TO.C,D1*%
X154000000Y-52210000D02*
X156000000Y-52210000D01*
X154000000Y-52210000D02*
X154000000Y-48350000D01*
X156000000Y-52210000D02*
X156000000Y-48350000D01*
%TO.C,D3*%
X159000000Y-52210000D02*
X161000000Y-52210000D01*
X159000000Y-52210000D02*
X159000000Y-48350000D01*
X161000000Y-52210000D02*
X161000000Y-48350000D01*
%TO.C,R4*%
X128929879Y-66120000D02*
X129265121Y-66120000D01*
X128929879Y-66880000D02*
X129265121Y-66880000D01*
%TO.C,U8*%
X138600000Y-80590000D02*
X136800000Y-80590000D01*
X138600000Y-80590000D02*
X139400000Y-80590000D01*
X138600000Y-83710000D02*
X137800000Y-83710000D01*
X138600000Y-83710000D02*
X139400000Y-83710000D01*
%TO.C,C17*%
X146883335Y-64610000D02*
X146651665Y-64610000D01*
X146883335Y-63890000D02*
X146651665Y-63890000D01*
%TO.C,R14*%
X153620000Y-36770121D02*
X153620000Y-36434879D01*
X154380000Y-36770121D02*
X154380000Y-36434879D01*
%TO.C,C21*%
X140640000Y-68215835D02*
X140640000Y-67984165D01*
X141360000Y-68215835D02*
X141360000Y-67984165D01*
%TO.C,Q6*%
X146760000Y-48040000D02*
X145350000Y-48040000D01*
X146760000Y-48040000D02*
X146760000Y-48350000D01*
X146760000Y-49960000D02*
X145600000Y-49960000D01*
X146760000Y-49960000D02*
X146760000Y-49650000D01*
%TO.C,R6*%
X139620000Y-73265121D02*
X139620000Y-72929879D01*
X140380000Y-73265121D02*
X140380000Y-72929879D01*
%TO.C,D5*%
X150860000Y-33550000D02*
X150860000Y-31850000D01*
X150860000Y-33550000D02*
X148200000Y-33550000D01*
X150860000Y-31850000D02*
X148200000Y-31850000D01*
%TO.C,U6*%
X157612500Y-76110000D02*
X161212500Y-76110000D01*
X157612500Y-76110000D02*
X155412500Y-76110000D01*
X157612500Y-68040000D02*
X159812500Y-68040000D01*
X157612500Y-68040000D02*
X155412500Y-68040000D01*
%TO.C,R16*%
X139870000Y-41167621D02*
X139870000Y-40832379D01*
X140630000Y-41167621D02*
X140630000Y-40832379D01*
%TO.C,C20*%
X132316665Y-59490000D02*
X132548335Y-59490000D01*
X132316665Y-60210000D02*
X132548335Y-60210000D01*
%TO.C,Q2*%
X146760000Y-40040000D02*
X145350000Y-40040000D01*
X146760000Y-40040000D02*
X146760000Y-40350000D01*
X146760000Y-41960000D02*
X145600000Y-41960000D01*
X146760000Y-41960000D02*
X146760000Y-41650000D01*
%TO.C,R3*%
X128929879Y-57120000D02*
X129265121Y-57120000D01*
X128929879Y-57880000D02*
X129265121Y-57880000D01*
%TO.C,C18*%
X139910000Y-54116665D02*
X139910000Y-54348335D01*
X139190000Y-54116665D02*
X139190000Y-54348335D01*
%TO.C,U9*%
X157000000Y-34440000D02*
X155200000Y-34440000D01*
X157000000Y-34440000D02*
X157800000Y-34440000D01*
X157000000Y-37560000D02*
X156200000Y-37560000D01*
X157000000Y-37560000D02*
X157800000Y-37560000D01*
%TO.C,U5*%
X164670000Y-39860000D02*
X164670000Y-75660000D01*
X164670000Y-75660000D02*
X182570000Y-75660000D01*
X167160000Y-39920000D02*
X167160000Y-75600000D01*
X167160000Y-75600000D02*
X180080000Y-75600000D01*
X172620000Y-39920000D02*
X167160000Y-39920000D01*
X180080000Y-39920000D02*
X174620000Y-39920000D01*
X180080000Y-75600000D02*
X180080000Y-39920000D01*
X182570000Y-39860000D02*
X164670000Y-39860000D01*
X182570000Y-75660000D02*
X182570000Y-39860000D01*
X172620000Y-39920000D02*
G75*
G03*
X174620000Y-39920000I1000000J0D01*
G01*
%TO.C,U1*%
X152225000Y-83725000D02*
X152225000Y-83465000D01*
X152225000Y-83465000D02*
X153900000Y-83465000D01*
X152225000Y-78275000D02*
X152225000Y-78535000D01*
X149500000Y-83725000D02*
X152225000Y-83725000D01*
X149500000Y-83725000D02*
X146775000Y-83725000D01*
X149500000Y-78275000D02*
X152225000Y-78275000D01*
X149500000Y-78275000D02*
X146775000Y-78275000D01*
X146775000Y-83725000D02*
X146775000Y-83465000D01*
X146775000Y-78275000D02*
X146775000Y-78535000D01*
%TO.C,U10*%
X148250000Y-34440000D02*
X146450000Y-34440000D01*
X148250000Y-34440000D02*
X149050000Y-34440000D01*
X148250000Y-37560000D02*
X147450000Y-37560000D01*
X148250000Y-37560000D02*
X149050000Y-37560000D01*
%TO.C,C4*%
X134640000Y-68215835D02*
X134640000Y-67984165D01*
X135360000Y-68215835D02*
X135360000Y-67984165D01*
%TO.C,L2*%
X155860000Y-32749800D02*
X155860000Y-32950200D01*
X155140000Y-32749800D02*
X155140000Y-32950200D01*
%TO.C,U2*%
X143360000Y-57490000D02*
X143360000Y-58140000D01*
X142710000Y-64710000D02*
X143360000Y-64710000D01*
X142710000Y-57490000D02*
X143360000Y-57490000D01*
X136790000Y-64710000D02*
X136140000Y-64710000D01*
X136790000Y-57490000D02*
X136140000Y-57490000D01*
X136140000Y-64710000D02*
X136140000Y-64060000D01*
X136140000Y-57490000D02*
X136140000Y-58140000D01*
%TO.C,C9*%
X160240000Y-33371267D02*
X160240000Y-33078733D01*
X161260000Y-33371267D02*
X161260000Y-33078733D01*
%TO.C,C7*%
X141115000Y-81211252D02*
X141115000Y-80688748D01*
X142585000Y-81211252D02*
X142585000Y-80688748D01*
%TO.C,C11*%
X151490000Y-33371267D02*
X151490000Y-33078733D01*
X152510000Y-33371267D02*
X152510000Y-33078733D01*
%TO.C,R5*%
X128929879Y-65120000D02*
X129265121Y-65120000D01*
X128929879Y-65880000D02*
X129265121Y-65880000D01*
%TO.C,Q1*%
X142760000Y-40040000D02*
X141350000Y-40040000D01*
X142760000Y-40040000D02*
X142760000Y-40350000D01*
X142760000Y-41960000D02*
X141600000Y-41960000D01*
X142760000Y-41960000D02*
X142760000Y-41650000D01*
%TO.C,C23*%
X146640000Y-53115835D02*
X146640000Y-52884165D01*
X147360000Y-53115835D02*
X147360000Y-52884165D01*
%TO.C,R7*%
X140620000Y-73265121D02*
X140620000Y-72929879D01*
X141380000Y-73265121D02*
X141380000Y-72929879D01*
%TO.C,U3*%
X130250000Y-47440000D02*
X126800000Y-47440000D01*
X130250000Y-47440000D02*
X132200000Y-47440000D01*
X130250000Y-52560000D02*
X128300000Y-52560000D01*
X130250000Y-52560000D02*
X132200000Y-52560000D01*
%TO.C,C16*%
X146883177Y-60710000D02*
X146651507Y-60710000D01*
X146883177Y-59990000D02*
X146651507Y-59990000D01*
%TO.C,C12*%
X135365000Y-78661252D02*
X135365000Y-78138748D01*
X136835000Y-78661252D02*
X136835000Y-78138748D01*
%TO.C,R2*%
X143870000Y-49167621D02*
X143870000Y-48832379D01*
X144630000Y-49167621D02*
X144630000Y-48832379D01*
%TO.C,C15*%
X144135000Y-82659165D02*
X144135000Y-82890835D01*
X143415000Y-82659165D02*
X143415000Y-82890835D01*
%TO.C,U7*%
X157612500Y-39540000D02*
X154012500Y-39540000D01*
X157612500Y-39540000D02*
X159812500Y-39540000D01*
X157612500Y-46310000D02*
X155412500Y-46310000D01*
X157612500Y-46310000D02*
X159812500Y-46310000D01*
%TO.C,Q3*%
X142760000Y-44040000D02*
X141350000Y-44040000D01*
X142760000Y-44040000D02*
X142760000Y-44350000D01*
X142760000Y-45960000D02*
X141600000Y-45960000D01*
X142760000Y-45960000D02*
X142760000Y-45650000D01*
%TO.C,C19*%
X132316665Y-63590000D02*
X132548335Y-63590000D01*
X132316665Y-64310000D02*
X132548335Y-64310000D01*
%TO.C,L3*%
X147110000Y-32749800D02*
X147110000Y-32950200D01*
X146390000Y-32749800D02*
X146390000Y-32950200D01*
%TO.C,C13*%
X137365000Y-78661252D02*
X137365000Y-78138748D01*
X138835000Y-78661252D02*
X138835000Y-78138748D01*
%TO.C,R12*%
X153620000Y-33017621D02*
X153620000Y-32682379D01*
X154380000Y-33017621D02*
X154380000Y-32682379D01*
%TO.C,R11*%
X140132379Y-78120000D02*
X140467621Y-78120000D01*
X140132379Y-78880000D02*
X140467621Y-78880000D01*
%TO.C,R10*%
X140132379Y-76770000D02*
X140467621Y-76770000D01*
X140132379Y-77530000D02*
X140467621Y-77530000D01*
%TO.C,R15*%
X144870000Y-36767621D02*
X144870000Y-36432379D01*
X145630000Y-36767621D02*
X145630000Y-36432379D01*
%TO.C,D4*%
X159610000Y-33550000D02*
X159610000Y-31850000D01*
X159610000Y-33550000D02*
X156950000Y-33550000D01*
X159610000Y-31850000D02*
X156950000Y-31850000D01*
%TO.C,L1*%
X135960000Y-82649800D02*
X135960000Y-82850200D01*
X135240000Y-82649800D02*
X135240000Y-82850200D01*
%TO.C,C14*%
X132298335Y-46860000D02*
X132066665Y-46860000D01*
X132298335Y-46140000D02*
X132066665Y-46140000D01*
%TO.C,C3*%
X135640000Y-68215835D02*
X135640000Y-67984165D01*
X136360000Y-68215835D02*
X136360000Y-67984165D01*
%TO.C,U4*%
X157612500Y-54040000D02*
X154012500Y-54040000D01*
X157612500Y-54040000D02*
X159812500Y-54040000D01*
X157612500Y-60810000D02*
X155412500Y-60810000D01*
X157612500Y-60810000D02*
X159812500Y-60810000D01*
%TO.C,C8*%
X160240000Y-36696267D02*
X160240000Y-36403733D01*
X161260000Y-36696267D02*
X161260000Y-36403733D01*
%TO.C,C5*%
X141990000Y-77745835D02*
X141990000Y-77514165D01*
X142710000Y-77745835D02*
X142710000Y-77514165D01*
%TO.C,C2*%
X138640000Y-68215835D02*
X138640000Y-67984165D01*
X139360000Y-68215835D02*
X139360000Y-67984165D01*
%TO.C,Q4*%
X146760000Y-44040000D02*
X145350000Y-44040000D01*
X146760000Y-44040000D02*
X146760000Y-44350000D01*
X146760000Y-45960000D02*
X145600000Y-45960000D01*
X146760000Y-45960000D02*
X146760000Y-45650000D01*
%TO.C,R18*%
X139870000Y-45167621D02*
X139870000Y-44832379D01*
X140630000Y-45167621D02*
X140630000Y-44832379D01*
%TO.C,D2*%
X156500000Y-52210000D02*
X158500000Y-52210000D01*
X156500000Y-52210000D02*
X156500000Y-48350000D01*
X158500000Y-52210000D02*
X158500000Y-48350000D01*
%TO.C,C10*%
X151490000Y-36696267D02*
X151490000Y-36403733D01*
X152510000Y-36696267D02*
X152510000Y-36403733D01*
%TO.C,J2*%
X130375000Y-70170000D02*
X128455000Y-70170000D01*
X124740000Y-70170000D02*
X126445000Y-70170000D01*
X128455000Y-79330000D02*
X130375000Y-79330000D01*
X126445000Y-79330000D02*
X124740000Y-79330000D01*
X124740000Y-79330000D02*
X124740000Y-70170000D01*
%TO.C,C6*%
X141734165Y-83040000D02*
X141965835Y-83040000D01*
X141734165Y-83760000D02*
X141965835Y-83760000D01*
%TO.C,R17*%
X143870000Y-41167621D02*
X143870000Y-40832379D01*
X144630000Y-41167621D02*
X144630000Y-40832379D01*
%TO.C,J1*%
X131130000Y-34080000D02*
X131130000Y-32750000D01*
X132460000Y-34080000D02*
X131130000Y-34080000D01*
X133730000Y-34080000D02*
X138870000Y-34080000D01*
X133730000Y-34080000D02*
X133730000Y-31420000D01*
X138870000Y-34080000D02*
X138870000Y-31420000D01*
X133730000Y-31420000D02*
X138870000Y-31420000D01*
%TO.C,R9*%
X137620000Y-68267621D02*
X137620000Y-67932379D01*
X138380000Y-68267621D02*
X138380000Y-67932379D01*
%TO.C,Q5*%
X142760000Y-48040000D02*
X141350000Y-48040000D01*
X142760000Y-48040000D02*
X142760000Y-48350000D01*
X142760000Y-49960000D02*
X141600000Y-49960000D01*
X142760000Y-49960000D02*
X142760000Y-49650000D01*
%TO.C,C1*%
X139640000Y-68215835D02*
X139640000Y-67984165D01*
X140360000Y-68215835D02*
X140360000Y-67984165D01*
%TO.C,R1*%
X139870000Y-49167621D02*
X139870000Y-48832379D01*
X140630000Y-49167621D02*
X140630000Y-48832379D01*
%TO.C,C22*%
X138910000Y-54116665D02*
X138910000Y-54348335D01*
X138190000Y-54116665D02*
X138190000Y-54348335D01*
%TO.C,X1*%
X146000000Y-54650000D02*
X146000000Y-51350000D01*
X146000000Y-51350000D02*
X142000000Y-51350000D01*
%TO.C,R19*%
X143870000Y-45167621D02*
X143870000Y-44832379D01*
X144630000Y-45167621D02*
X144630000Y-44832379D01*
%TO.C,R8*%
X136620000Y-68267621D02*
X136620000Y-67932379D01*
X137380000Y-68267621D02*
X137380000Y-67932379D01*
%TO.C,R13*%
X144870000Y-33017621D02*
X144870000Y-32682379D01*
X145630000Y-33017621D02*
X145630000Y-32682379D01*
%TD*%
M02*
