%TF.GenerationSoftware,KiCad,Pcbnew,7.0.5-7.0.5~ubuntu20.04.1*%
%TF.CreationDate,2023-07-05T21:04:24+02:00*%
%TF.ProjectId,sao_eprom_v2,73616f5f-6570-4726-9f6d-5f76322e6b69,rev?*%
%TF.SameCoordinates,Original*%
%TF.FileFunction,Soldermask,Bot*%
%TF.FilePolarity,Negative*%
%FSLAX46Y46*%
G04 Gerber Fmt 4.6, Leading zero omitted, Abs format (unit mm)*
G04 Created by KiCad (PCBNEW 7.0.5-7.0.5~ubuntu20.04.1) date 2023-07-05 21:04:24*
%MOMM*%
%LPD*%
G01*
G04 APERTURE LIST*
G04 Aperture macros list*
%AMRoundRect*
0 Rectangle with rounded corners*
0 $1 Rounding radius*
0 $2 $3 $4 $5 $6 $7 $8 $9 X,Y pos of 4 corners*
0 Add a 4 corners polygon primitive as box body*
4,1,4,$2,$3,$4,$5,$6,$7,$8,$9,$2,$3,0*
0 Add four circle primitives for the rounded corners*
1,1,$1+$1,$2,$3*
1,1,$1+$1,$4,$5*
1,1,$1+$1,$6,$7*
1,1,$1+$1,$8,$9*
0 Add four rect primitives between the rounded corners*
20,1,$1+$1,$2,$3,$4,$5,0*
20,1,$1+$1,$4,$5,$6,$7,0*
20,1,$1+$1,$6,$7,$8,$9,0*
20,1,$1+$1,$8,$9,$2,$3,0*%
G04 Aperture macros list end*
%ADD10C,0.700000*%
%ADD11C,4.400000*%
%ADD12R,1.700000X1.700000*%
%ADD13O,1.700000X1.700000*%
%ADD14R,1.600000X1.600000*%
%ADD15O,1.600000X1.600000*%
%ADD16C,0.600000*%
%ADD17C,0.650000*%
%ADD18O,2.100000X1.000000*%
%ADD19O,1.800000X1.000000*%
%ADD20C,1.000000*%
%ADD21RoundRect,0.101600X0.674370X-0.299720X0.674370X0.299720X-0.674370X0.299720X-0.674370X-0.299720X0*%
%ADD22RoundRect,0.101600X0.999490X-0.599440X0.999490X0.599440X-0.999490X0.599440X-0.999490X-0.599440X0*%
%ADD23R,0.900000X1.500000*%
G04 APERTURE END LIST*
D10*
%TO.C,H3*%
X185600000Y-32750000D03*
X186083274Y-31583274D03*
X186083274Y-33916726D03*
X187250000Y-31100000D03*
D11*
X187250000Y-32750000D03*
D10*
X187250000Y-34400000D03*
X188416726Y-31583274D03*
X188416726Y-33916726D03*
X188900000Y-32750000D03*
%TD*%
D12*
%TO.C,J4*%
X187250000Y-39750000D03*
D13*
X187250000Y-37210000D03*
%TD*%
D10*
%TO.C,H4*%
X185600000Y-82850000D03*
X186083274Y-81683274D03*
X186083274Y-84016726D03*
X187250000Y-81200000D03*
D11*
X187250000Y-82850000D03*
D10*
X187250000Y-84500000D03*
X188416726Y-81683274D03*
X188416726Y-84016726D03*
X188900000Y-82850000D03*
%TD*%
D14*
%TO.C,U5*%
X166000000Y-41250000D03*
D15*
X166000000Y-43790000D03*
X166000000Y-46330000D03*
X166000000Y-48870000D03*
X166000000Y-51410000D03*
X166000000Y-53950000D03*
X166000000Y-56490000D03*
X166000000Y-59030000D03*
X166000000Y-61570000D03*
X166000000Y-64110000D03*
X166000000Y-66650000D03*
X166000000Y-69190000D03*
X166000000Y-71730000D03*
X166000000Y-74270000D03*
X181240000Y-74270000D03*
X181240000Y-71730000D03*
X181240000Y-69190000D03*
X181240000Y-66650000D03*
X181240000Y-64110000D03*
X181240000Y-61570000D03*
X181240000Y-59030000D03*
X181240000Y-56490000D03*
X181240000Y-53950000D03*
X181240000Y-51410000D03*
X181240000Y-48870000D03*
X181240000Y-46330000D03*
X181240000Y-43790000D03*
X181240000Y-41250000D03*
%TD*%
D16*
%TO.C,U2*%
X141020000Y-62370000D03*
X141020000Y-61100000D03*
X141020000Y-59830000D03*
X139750000Y-62370000D03*
X139750000Y-61100000D03*
X139750000Y-59830000D03*
X138480000Y-62370000D03*
X138480000Y-61100000D03*
X138480000Y-59830000D03*
%TD*%
D12*
%TO.C,J1*%
X131630000Y-32750000D03*
D13*
X134170000Y-32750000D03*
X136710000Y-32750000D03*
X139250000Y-32750000D03*
%TD*%
D10*
%TO.C,H2*%
X125500000Y-82850000D03*
X125983274Y-81683274D03*
X125983274Y-84016726D03*
X127150000Y-81200000D03*
D11*
X127150000Y-82850000D03*
D10*
X127150000Y-84500000D03*
X128316726Y-81683274D03*
X128316726Y-84016726D03*
X128800000Y-82850000D03*
%TD*%
%TO.C,H1*%
X125500000Y-32750000D03*
X125983274Y-31583274D03*
X125983274Y-33916726D03*
X127150000Y-31100000D03*
D11*
X127150000Y-32750000D03*
D10*
X127150000Y-34400000D03*
X128316726Y-31583274D03*
X128316726Y-33916726D03*
X128800000Y-32750000D03*
%TD*%
D17*
%TO.C,J2*%
X131130000Y-71860000D03*
X131130000Y-77640000D03*
D18*
X131650000Y-70430000D03*
D19*
X127450000Y-70430000D03*
D18*
X131650000Y-79070000D03*
D19*
X127450000Y-79070000D03*
%TD*%
D12*
%TO.C,J3*%
X129960000Y-38980000D03*
D13*
X129960000Y-41535000D03*
X132500000Y-38980000D03*
X132500000Y-41535000D03*
X135040000Y-38980000D03*
X135040000Y-41535000D03*
%TD*%
D20*
%TO.C,TP10*%
X152000000Y-61750000D03*
%TD*%
D21*
%TO.C,J5*%
X129500000Y-50748600D03*
X129500000Y-49747840D03*
X129500000Y-48752160D03*
X129500000Y-47751400D03*
D22*
X125827160Y-52049080D03*
X125827160Y-46450920D03*
%TD*%
D23*
%TO.C,D13*%
X175250000Y-67750000D03*
X171950000Y-67750000D03*
X171950000Y-62850000D03*
X175250000Y-62850000D03*
%TD*%
D20*
%TO.C,TP3*%
X155000000Y-48500000D03*
%TD*%
%TO.C,TP11*%
X152000000Y-63250000D03*
%TD*%
%TO.C,TP20*%
X150000000Y-71000000D03*
%TD*%
D21*
%TO.C,J6*%
X129500000Y-58998600D03*
X129500000Y-57997840D03*
X129500000Y-57002160D03*
X129500000Y-56001400D03*
D22*
X125827160Y-60299080D03*
X125827160Y-54700920D03*
%TD*%
D23*
%TO.C,D14*%
X175275000Y-82750000D03*
X171975000Y-82750000D03*
X171975000Y-77850000D03*
X175275000Y-77850000D03*
%TD*%
%TO.C,D9*%
X147125000Y-67750000D03*
X143825000Y-67750000D03*
X143825000Y-62850000D03*
X147125000Y-62850000D03*
%TD*%
D20*
%TO.C,TP27*%
X179250000Y-56500000D03*
%TD*%
D23*
%TO.C,D10*%
X147150000Y-82750000D03*
X143850000Y-82750000D03*
X143850000Y-77850000D03*
X147150000Y-77850000D03*
%TD*%
%TO.C,D8*%
X147150000Y-52750000D03*
X143850000Y-52750000D03*
X143850000Y-47850000D03*
X147150000Y-47850000D03*
%TD*%
D20*
%TO.C,TP13*%
X152000000Y-66250000D03*
%TD*%
%TO.C,TP7*%
X150500000Y-64750000D03*
%TD*%
%TO.C,TP19*%
X151500000Y-71000000D03*
%TD*%
%TO.C,TP8*%
X150500000Y-63250000D03*
%TD*%
%TO.C,TP26*%
X169250000Y-41250000D03*
%TD*%
%TO.C,TP21*%
X148500000Y-71000000D03*
%TD*%
%TO.C,TP24*%
X151750000Y-38750000D03*
%TD*%
%TO.C,TP12*%
X152000000Y-64750000D03*
%TD*%
%TO.C,TP16*%
X151500000Y-72500000D03*
%TD*%
%TO.C,TP15*%
X150000000Y-72500000D03*
%TD*%
%TO.C,TP25*%
X179250000Y-51400000D03*
%TD*%
%TO.C,TP28*%
X158500000Y-38750000D03*
%TD*%
%TO.C,TP6*%
X150500000Y-66250000D03*
%TD*%
%TO.C,TP17*%
X153000000Y-72500000D03*
%TD*%
%TO.C,TP22*%
X156250000Y-38750000D03*
%TD*%
%TO.C,TP18*%
X153000000Y-71000000D03*
%TD*%
D23*
%TO.C,D7*%
X147150000Y-37750000D03*
X143850000Y-37750000D03*
X143850000Y-32850000D03*
X147150000Y-32850000D03*
%TD*%
D20*
%TO.C,TP9*%
X150500000Y-61750000D03*
%TD*%
%TO.C,TP4*%
X160500000Y-61500000D03*
%TD*%
D23*
%TO.C,D12*%
X175275000Y-52750000D03*
X171975000Y-52750000D03*
X171975000Y-47850000D03*
X175275000Y-47850000D03*
%TD*%
%TO.C,D11*%
X175275000Y-37750000D03*
X171975000Y-37750000D03*
X171975000Y-32850000D03*
X175275000Y-32850000D03*
%TD*%
D20*
%TO.C,TP23*%
X154000000Y-38750000D03*
%TD*%
%TO.C,TP14*%
X148500000Y-72500000D03*
%TD*%
%TO.C,TP5*%
X160500000Y-45850000D03*
%TD*%
M02*
