M48
; DRILL file {KiCad 7.0.5-7.0.5~ubuntu22.04.1} date Tue 06 Jun 2023 03:21:45 PM CEST
; FORMAT={-:-/ absolute / inch / decimal}
; #@! TF.CreationDate,2023-06-06T15:21:45+02:00
; #@! TF.GenerationSoftware,Kicad,Pcbnew,7.0.5-7.0.5~ubuntu22.04.1
; #@! TF.FileFunction,Plated,1,4,PTH
FMAT,2
INCH
; #@! TA.AperFunction,Plated,PTH,ViaDrill
T1C0.0118
; #@! TA.AperFunction,Plated,PTH,ComponentDrill
T2C0.0138
; #@! TA.AperFunction,Plated,PTH,ViaDrill
T3C0.0157
; #@! TA.AperFunction,Plated,PTH,ComponentDrill
T4C0.0157
; #@! TA.AperFunction,Plated,PTH,ComponentDrill
T5C0.0236
; #@! TA.AperFunction,Plated,PTH,ComponentDrill
T6C0.0315
; #@! TA.AperFunction,Plated,PTH,ComponentDrill
T7C0.0394
; #@! TA.AperFunction,Plated,PTH,ComponentDrill
T8C0.0866
%
G90
G05
T1
X4.9951Y-2.4016
X4.9951Y-2.4409
X5.0295Y-2.4557
X5.0787Y-2.502
X5.1181Y-2.502
X5.1575Y-2.3563
X5.1575Y-2.5177
X5.1575Y-2.874
X5.1575Y-2.9921
X5.2461Y-2.2736
X5.252Y-2.8937
X5.252Y-3.002
X5.2756Y-2.3563
X5.2756Y-2.5177
X5.2756Y-2.2539
X5.3051Y-2.2736
X5.3346Y-1.9941
X5.3445Y-2.2736
X5.3642Y-2.0443
X5.3642Y-2.1654
X5.3642Y-2.2047
X5.3642Y-2.2441
X5.4409Y-2.4941
X5.4547Y-2.189
X5.4783Y-2.3238
X5.4941Y-2.189
X5.5118Y-2.9331
X5.5217Y-1.6732
X5.5217Y-1.8307
X5.5217Y-1.9882
X5.5276Y-2.622
X5.5512Y-2.9331
X5.5531Y-2.1526
X5.6988Y-1.998
X5.7697Y-2.1407
X5.8071Y-1.8701
X5.8366Y-1.7795
X5.8366Y-2.3504
X5.8543Y-2.376
X5.8543Y-2.5301
X5.8661Y-1.7539
X5.8661Y-2.3248
X5.8957Y-1.7283
X5.8957Y-2.2992
X5.8957Y-2.7264
X5.8957Y-3.0315
X5.9252Y-1.7028
X5.9252Y-2.2736
X5.9547Y-1.6772
X5.9547Y-2.248
X5.9744Y-2.7264
X5.9744Y-3.0315
X5.9847Y-1.6508
X5.9847Y-2.2216
X6.0039Y-2.376
X6.0138Y-1.626
X6.0138Y-2.1969
X6.0335Y-2.376
X6.0433Y-1.6004
X6.0433Y-2.1713
X6.1319Y-1.8602
X6.1417Y-2.4016
X6.1417Y-2.7224
X6.1417Y-2.7736
X6.1417Y-2.8248
X6.1417Y-2.876
X6.1585Y-2.748
X6.1585Y-2.7992
X6.1585Y-2.8504
X6.1585Y-2.9016
X6.1663Y-2.4262
X6.1909Y-2.4488
X6.2156Y-2.4715
X6.2402Y-2.4941
X6.25Y-1.624
X6.25Y-1.7224
X6.2648Y-2.5167
X6.2697Y-1.8051
X6.2697Y-2.376
X6.2697Y-2.9528
X6.2894Y-2.5394
X6.314Y-2.562
X6.3681Y-1.7028
X6.3681Y-1.7421
X6.378Y-2.8711
X6.378Y-2.9016
X6.378Y-2.9321
X6.6043Y-1.624
X6.6043Y-1.7224
X6.6043Y-1.8307
X7.0374Y-1.624
X7.0374Y-1.7224
X7.0374Y-1.8307
T2
X5.452Y-2.3555
X5.452Y-2.4055
X5.452Y-2.4555
X5.502Y-2.3555
X5.502Y-2.4055
X5.502Y-2.4555
X5.552Y-2.3555
X5.552Y-2.4055
X5.552Y-2.4555
T3
X5.2539Y-2.8169
X5.2539Y-3.0689
X5.2657Y-1.8307
X5.2757Y-2.8485
X5.2757Y-3.0373
X5.2795Y-2.7037
X5.3386Y-3.1863
X5.3976Y-3.0866
X5.502Y-3.2343
X5.5059Y-3.313
X5.5866Y-2.7037
X5.624Y-3.1063
X5.7441Y-3.2992
X5.8366Y-1.4173
X5.876Y-1.2894
X5.937Y-1.3957
X5.937Y-1.4813
X6.0817Y-3.1142
X6.0925Y-2.6663
X6.0925Y-3.0089
X6.1024Y-2.0669
X6.1811Y-1.4173
X6.2008Y-2.0669
X6.2205Y-1.2894
X6.2815Y-1.3957
X6.2815Y-1.4813
X6.2992Y-2.0669
X6.3179Y-1.5443
X6.3179Y-2.1152
X6.3179Y-3.0089
X6.4272Y-1.2303
T4
X4.9409Y-1.2894
X4.9409Y-3.2618
X4.96Y-1.2434
X4.96Y-1.3353
X4.96Y-3.2159
X4.96Y-3.3077
X5.0059Y-1.2244
X5.0059Y-1.3543
X5.0059Y-3.1969
X5.0059Y-3.3268
X5.0518Y-1.2434
X5.0518Y-1.3353
X5.0518Y-3.2159
X5.0518Y-3.3077
X5.0709Y-1.2894
X5.0709Y-3.2618
X7.3071Y-1.2894
X7.3071Y-3.2618
X7.3261Y-1.2434
X7.3261Y-1.3353
X7.3261Y-3.2159
X7.3261Y-3.3077
X7.372Y-1.2244
X7.372Y-1.3543
X7.372Y-3.1969
X7.372Y-3.3268
X7.418Y-1.2434
X7.418Y-1.3353
X7.418Y-3.2159
X7.418Y-3.3077
X7.437Y-1.2894
X7.437Y-3.2618
T6
X6.5354Y-1.624
X6.5354Y-1.724
X6.5354Y-1.824
X6.5354Y-1.924
X6.5354Y-2.024
X6.5354Y-2.124
X6.5354Y-2.224
X6.5354Y-2.324
X6.5354Y-2.424
X6.5354Y-2.524
X6.5354Y-2.624
X6.5354Y-2.724
X6.5354Y-2.824
X6.5354Y-2.924
X7.1354Y-1.624
X7.1354Y-1.724
X7.1354Y-1.824
X7.1354Y-1.924
X7.1354Y-2.024
X7.1354Y-2.124
X7.1354Y-2.224
X7.1354Y-2.324
X7.1354Y-2.424
X7.1354Y-2.524
X7.1354Y-2.624
X7.1354Y-2.724
X7.1354Y-2.824
X7.1354Y-2.924
T7
X5.1165Y-1.5346
X5.1165Y-1.6352
X5.215Y-1.2894
X5.2165Y-1.5346
X5.2165Y-1.6352
X5.315Y-1.2894
X5.3165Y-1.5346
X5.3165Y-1.6352
X5.415Y-1.2894
T8
X5.0059Y-1.2894
X5.0059Y-3.2618
X7.372Y-1.2894
X7.372Y-3.2618
T5
G00X5.0335Y-2.7728
M15
G01X5.002Y-2.7728
M16
G05
G00X5.0335Y-3.113
M15
G01X5.002Y-3.113
M16
G05
G00X5.2047Y-2.7728
M15
G01X5.1614Y-2.7728
M16
G05
G00X5.2047Y-3.113
M15
G01X5.1614Y-3.113
M16
G05
T0
M30
