%TF.GenerationSoftware,KiCad,Pcbnew,7.0.5-7.0.5~ubuntu22.04.1*%
%TF.CreationDate,2023-06-06T15:21:43+02:00*%
%TF.ProjectId,sao_eprom_v2,73616f5f-6570-4726-9f6d-5f76322e6b69,rev?*%
%TF.SameCoordinates,Original*%
%TF.FileFunction,Drillmap*%
%TF.FilePolarity,Positive*%
%FSLAX45Y45*%
G04 Gerber Fmt 4.5, Leading zero omitted, Abs format (unit mm)*
G04 Created by KiCad (PCBNEW 7.0.5-7.0.5~ubuntu22.04.1) date 2023-06-06 15:21:43*
%MOMM*%
%LPD*%
G01*
G04 APERTURE LIST*
%ADD10C,0.100000*%
%ADD11C,0.200000*%
%ADD12C,0.030000*%
%ADD13C,0.035000*%
%ADD14C,0.040000*%
%ADD15C,0.060000*%
%ADD16C,0.080000*%
%ADD17C,0.220000*%
G04 APERTURE END LIST*
D10*
X12715000Y-3025000D02*
G75*
G03*
X12465000Y-3275000I0J-250000D01*
G01*
X18725000Y-3025000D02*
X12715000Y-3025000D01*
X12465000Y-8285000D02*
X12465000Y-3275000D01*
X18725000Y-8535000D02*
X12715000Y-8535000D01*
X18725000Y-8535000D02*
G75*
G03*
X18975000Y-8285000I0J250000D01*
G01*
X18975000Y-3275000D02*
G75*
G03*
X18725000Y-3025000I-250000J0D01*
G01*
X18975000Y-8285000D02*
X18975000Y-3275000D01*
X12465000Y-8285000D02*
G75*
G03*
X12715000Y-8535000I250000J0D01*
G01*
D11*
D12*
X12672500Y-6085000D02*
X12702500Y-6115000D01*
X12702500Y-6085000D02*
X12672500Y-6115000D01*
X12672500Y-6185000D02*
X12702500Y-6215000D01*
X12702500Y-6185000D02*
X12672500Y-6215000D01*
X12760000Y-6222500D02*
X12790000Y-6252500D01*
X12790000Y-6222500D02*
X12760000Y-6252500D01*
X12885000Y-6340000D02*
X12915000Y-6370000D01*
X12915000Y-6340000D02*
X12885000Y-6370000D01*
X12985000Y-6340000D02*
X13015000Y-6370000D01*
X13015000Y-6340000D02*
X12985000Y-6370000D01*
X13085000Y-5970000D02*
X13115000Y-6000000D01*
X13115000Y-5970000D02*
X13085000Y-6000000D01*
X13085000Y-6380000D02*
X13115000Y-6410000D01*
X13115000Y-6380000D02*
X13085000Y-6410000D01*
X13085000Y-7285000D02*
X13115000Y-7315000D01*
X13115000Y-7285000D02*
X13085000Y-7315000D01*
X13085000Y-7585000D02*
X13115000Y-7615000D01*
X13115000Y-7585000D02*
X13085000Y-7615000D01*
X13310000Y-5760000D02*
X13340000Y-5790000D01*
X13340000Y-5760000D02*
X13310000Y-5790000D01*
X13325050Y-7335000D02*
X13355050Y-7365000D01*
X13355050Y-7335000D02*
X13325050Y-7365000D01*
X13325050Y-7610000D02*
X13355050Y-7640000D01*
X13355050Y-7610000D02*
X13325050Y-7640000D01*
X13385000Y-5970000D02*
X13415000Y-6000000D01*
X13415000Y-5970000D02*
X13385000Y-6000000D01*
X13385000Y-6380000D02*
X13415000Y-6410000D01*
X13415000Y-6380000D02*
X13385000Y-6410000D01*
X13385123Y-5710000D02*
X13415123Y-5740000D01*
X13415123Y-5710000D02*
X13385123Y-5740000D01*
X13460000Y-5760000D02*
X13490000Y-5790000D01*
X13490000Y-5760000D02*
X13460000Y-5790000D01*
X13535000Y-5050000D02*
X13565000Y-5080000D01*
X13565000Y-5050000D02*
X13535000Y-5080000D01*
X13560000Y-5760000D02*
X13590000Y-5790000D01*
X13590000Y-5760000D02*
X13560000Y-5790000D01*
X13610000Y-5177500D02*
X13640000Y-5207500D01*
X13640000Y-5177500D02*
X13610000Y-5207500D01*
X13610000Y-5485000D02*
X13640000Y-5515000D01*
X13640000Y-5485000D02*
X13610000Y-5515000D01*
X13610000Y-5585000D02*
X13640000Y-5615000D01*
X13640000Y-5585000D02*
X13610000Y-5615000D01*
X13610000Y-5685000D02*
X13640000Y-5715000D01*
X13640000Y-5685000D02*
X13610000Y-5715000D01*
X13805000Y-6320000D02*
X13835000Y-6350000D01*
X13835000Y-6320000D02*
X13805000Y-6350000D01*
X13840000Y-5545000D02*
X13870000Y-5575000D01*
X13870000Y-5545000D02*
X13840000Y-5575000D01*
X13900000Y-5887550D02*
X13930000Y-5917550D01*
X13930000Y-5887550D02*
X13900000Y-5917550D01*
X13940000Y-5545000D02*
X13970000Y-5575000D01*
X13970000Y-5545000D02*
X13940000Y-5575000D01*
X13985000Y-7435000D02*
X14015000Y-7465000D01*
X14015000Y-7435000D02*
X13985000Y-7465000D01*
X14010000Y-4235000D02*
X14040000Y-4265000D01*
X14040000Y-4235000D02*
X14010000Y-4265000D01*
X14010000Y-4635000D02*
X14040000Y-4665000D01*
X14040000Y-4635000D02*
X14010000Y-4665000D01*
X14010000Y-5035000D02*
X14040000Y-5065000D01*
X14040000Y-5035000D02*
X14010000Y-5065000D01*
X14025000Y-6645000D02*
X14055000Y-6675000D01*
X14055000Y-6645000D02*
X14025000Y-6675000D01*
X14085000Y-7435000D02*
X14115000Y-7465000D01*
X14115000Y-7435000D02*
X14085000Y-7465000D01*
X14090000Y-5452500D02*
X14120000Y-5482500D01*
X14120000Y-5452500D02*
X14090000Y-5482500D01*
X14460000Y-5060000D02*
X14490000Y-5090000D01*
X14490000Y-5060000D02*
X14460000Y-5090000D01*
X14640000Y-5422500D02*
X14670000Y-5452500D01*
X14670000Y-5422500D02*
X14640000Y-5452500D01*
X14735000Y-4735000D02*
X14765000Y-4765000D01*
X14765000Y-4735000D02*
X14735000Y-4765000D01*
X14810000Y-4505000D02*
X14840000Y-4535000D01*
X14840000Y-4505000D02*
X14810000Y-4535000D01*
X14810000Y-5955000D02*
X14840000Y-5985000D01*
X14840000Y-5955000D02*
X14810000Y-5985000D01*
X14855000Y-6020000D02*
X14885000Y-6050000D01*
X14885000Y-6020000D02*
X14855000Y-6050000D01*
X14855000Y-6411457D02*
X14885000Y-6441457D01*
X14885000Y-6411457D02*
X14855000Y-6441457D01*
X14885000Y-4440000D02*
X14915000Y-4470000D01*
X14915000Y-4440000D02*
X14885000Y-4470000D01*
X14885000Y-5890000D02*
X14915000Y-5920000D01*
X14915000Y-5890000D02*
X14885000Y-5920000D01*
X14960000Y-4375000D02*
X14990000Y-4405000D01*
X14990000Y-4375000D02*
X14960000Y-4405000D01*
X14960000Y-5825000D02*
X14990000Y-5855000D01*
X14990000Y-5825000D02*
X14960000Y-5855000D01*
X14960000Y-6910000D02*
X14990000Y-6940000D01*
X14990000Y-6910000D02*
X14960000Y-6940000D01*
X14960000Y-7685000D02*
X14990000Y-7715000D01*
X14990000Y-7685000D02*
X14960000Y-7715000D01*
X15035000Y-4310000D02*
X15065000Y-4340000D01*
X15065000Y-4310000D02*
X15035000Y-4340000D01*
X15035000Y-5760000D02*
X15065000Y-5790000D01*
X15065000Y-5760000D02*
X15035000Y-5790000D01*
X15110000Y-4245000D02*
X15140000Y-4275000D01*
X15140000Y-4245000D02*
X15110000Y-4275000D01*
X15110000Y-5695000D02*
X15140000Y-5725000D01*
X15140000Y-5695000D02*
X15110000Y-5725000D01*
X15160000Y-6910000D02*
X15190000Y-6940000D01*
X15190000Y-6910000D02*
X15160000Y-6940000D01*
X15160000Y-7685000D02*
X15190000Y-7715000D01*
X15190000Y-7685000D02*
X15160000Y-7715000D01*
X15186204Y-4177914D02*
X15216204Y-4207914D01*
X15216204Y-4177914D02*
X15186204Y-4207914D01*
X15186204Y-5627914D02*
X15216204Y-5657914D01*
X15216204Y-5627914D02*
X15186204Y-5657914D01*
X15235000Y-6020000D02*
X15265000Y-6050000D01*
X15265000Y-6020000D02*
X15235000Y-6050000D01*
X15260000Y-4115000D02*
X15290000Y-4145000D01*
X15290000Y-4115000D02*
X15260000Y-4145000D01*
X15260000Y-5565000D02*
X15290000Y-5595000D01*
X15290000Y-5565000D02*
X15260000Y-5595000D01*
X15310000Y-6020000D02*
X15340000Y-6050000D01*
X15340000Y-6020000D02*
X15310000Y-6050000D01*
X15335000Y-4050000D02*
X15365000Y-4080000D01*
X15365000Y-4050000D02*
X15335000Y-4080000D01*
X15335000Y-5500000D02*
X15365000Y-5530000D01*
X15365000Y-5500000D02*
X15335000Y-5530000D01*
X15560000Y-4710000D02*
X15590000Y-4740000D01*
X15590000Y-4710000D02*
X15560000Y-4740000D01*
X15585000Y-6085000D02*
X15615000Y-6115000D01*
X15615000Y-6085000D02*
X15585000Y-6115000D01*
X15585000Y-6900000D02*
X15615000Y-6930000D01*
X15615000Y-6900000D02*
X15585000Y-6930000D01*
X15585000Y-7030000D02*
X15615000Y-7060000D01*
X15615000Y-7030000D02*
X15585000Y-7060000D01*
X15585000Y-7160000D02*
X15615000Y-7190000D01*
X15615000Y-7160000D02*
X15585000Y-7190000D01*
X15585000Y-7290000D02*
X15615000Y-7320000D01*
X15615000Y-7290000D02*
X15585000Y-7320000D01*
X15627500Y-6965000D02*
X15657500Y-6995000D01*
X15657500Y-6965000D02*
X15627500Y-6995000D01*
X15627500Y-7095000D02*
X15657500Y-7125000D01*
X15657500Y-7095000D02*
X15627500Y-7125000D01*
X15627500Y-7225000D02*
X15657500Y-7255000D01*
X15657500Y-7225000D02*
X15627500Y-7255000D01*
X15627500Y-7355000D02*
X15657500Y-7385000D01*
X15657500Y-7355000D02*
X15627500Y-7385000D01*
X15647500Y-6147500D02*
X15677500Y-6177500D01*
X15677500Y-6147500D02*
X15647500Y-6177500D01*
X15710000Y-6205000D02*
X15740000Y-6235000D01*
X15740000Y-6205000D02*
X15710000Y-6235000D01*
X15772500Y-6262500D02*
X15802500Y-6292500D01*
X15802500Y-6262500D02*
X15772500Y-6292500D01*
X15835000Y-6320000D02*
X15865000Y-6350000D01*
X15865000Y-6320000D02*
X15835000Y-6350000D01*
X15860000Y-4110000D02*
X15890000Y-4140000D01*
X15890000Y-4110000D02*
X15860000Y-4140000D01*
X15860000Y-4360000D02*
X15890000Y-4390000D01*
X15890000Y-4360000D02*
X15860000Y-4390000D01*
X15897500Y-6377500D02*
X15927500Y-6407500D01*
X15927500Y-6377500D02*
X15897500Y-6407500D01*
X15910000Y-4570000D02*
X15940000Y-4600000D01*
X15940000Y-4570000D02*
X15910000Y-4600000D01*
X15910000Y-6020000D02*
X15940000Y-6050000D01*
X15940000Y-6020000D02*
X15910000Y-6050000D01*
X15910000Y-7485000D02*
X15940000Y-7515000D01*
X15940000Y-7485000D02*
X15910000Y-7515000D01*
X15960000Y-6435000D02*
X15990000Y-6465000D01*
X15990000Y-6435000D02*
X15960000Y-6465000D01*
X16022500Y-6492500D02*
X16052500Y-6522500D01*
X16052500Y-6492500D02*
X16022500Y-6522500D01*
X16160000Y-4310000D02*
X16190000Y-4340000D01*
X16190000Y-4310000D02*
X16160000Y-4340000D01*
X16160000Y-4410000D02*
X16190000Y-4440000D01*
X16190000Y-4410000D02*
X16160000Y-4440000D01*
X16185000Y-7277550D02*
X16215000Y-7307550D01*
X16215000Y-7277550D02*
X16185000Y-7307550D01*
X16185000Y-7355000D02*
X16215000Y-7385000D01*
X16215000Y-7355000D02*
X16185000Y-7385000D01*
X16185000Y-7432450D02*
X16215000Y-7462450D01*
X16215000Y-7432450D02*
X16185000Y-7462450D01*
X16760000Y-4110000D02*
X16790000Y-4140000D01*
X16790000Y-4110000D02*
X16760000Y-4140000D01*
X16760000Y-4360000D02*
X16790000Y-4390000D01*
X16790000Y-4360000D02*
X16760000Y-4390000D01*
X16760000Y-4635000D02*
X16790000Y-4665000D01*
X16790000Y-4635000D02*
X16760000Y-4665000D01*
X17860000Y-4110000D02*
X17890000Y-4140000D01*
X17890000Y-4110000D02*
X17860000Y-4140000D01*
X17860000Y-4360000D02*
X17890000Y-4390000D01*
X17890000Y-4360000D02*
X17860000Y-4390000D01*
X17860000Y-4635000D02*
X17890000Y-4665000D01*
X17890000Y-4635000D02*
X17860000Y-4665000D01*
D13*
X13865500Y-5983000D02*
G75*
G03*
X13865500Y-5983000I-17500J0D01*
G01*
X13865500Y-6110000D02*
G75*
G03*
X13865500Y-6110000I-17500J0D01*
G01*
X13865500Y-6237000D02*
G75*
G03*
X13865500Y-6237000I-17500J0D01*
G01*
X13992500Y-5983000D02*
G75*
G03*
X13992500Y-5983000I-17500J0D01*
G01*
X13992500Y-6110000D02*
G75*
G03*
X13992500Y-6110000I-17500J0D01*
G01*
X13992500Y-6237000D02*
G75*
G03*
X13992500Y-6237000I-17500J0D01*
G01*
X14119500Y-5983000D02*
G75*
G03*
X14119500Y-5983000I-17500J0D01*
G01*
X14119500Y-6110000D02*
G75*
G03*
X14119500Y-6110000I-17500J0D01*
G01*
X14119500Y-6237000D02*
G75*
G03*
X14119500Y-6237000I-17500J0D01*
G01*
D14*
X13345000Y-7135000D02*
X13345000Y-7175000D01*
X13325000Y-7155000D02*
X13365000Y-7155000D01*
X13345000Y-7775000D02*
X13345000Y-7815000D01*
X13325000Y-7795000D02*
X13365000Y-7795000D01*
X13375000Y-4630000D02*
X13375000Y-4670000D01*
X13355000Y-4650000D02*
X13395000Y-4650000D01*
X13400208Y-7215303D02*
X13400208Y-7255303D01*
X13380208Y-7235303D02*
X13420208Y-7235303D01*
X13400208Y-7694697D02*
X13400208Y-7734697D01*
X13380208Y-7714697D02*
X13420208Y-7714697D01*
X13410000Y-6847500D02*
X13410000Y-6887500D01*
X13390000Y-6867500D02*
X13430000Y-6867500D01*
X13560098Y-8073127D02*
X13560098Y-8113127D01*
X13540098Y-8093127D02*
X13580098Y-8093127D01*
X13710000Y-7820000D02*
X13710000Y-7860000D01*
X13690000Y-7840000D02*
X13730000Y-7840000D01*
X13975000Y-8195000D02*
X13975000Y-8235000D01*
X13955000Y-8215000D02*
X13995000Y-8215000D01*
X13985000Y-8395000D02*
X13985000Y-8435000D01*
X13965000Y-8415000D02*
X14005000Y-8415000D01*
X14190000Y-6847500D02*
X14190000Y-6887500D01*
X14170000Y-6867500D02*
X14210000Y-6867500D01*
X14285000Y-7870000D02*
X14285000Y-7910000D01*
X14265000Y-7890000D02*
X14305000Y-7890000D01*
X14590000Y-8360000D02*
X14590000Y-8400000D01*
X14570000Y-8380000D02*
X14610000Y-8380000D01*
X14825000Y-3580000D02*
X14825000Y-3620000D01*
X14805000Y-3600000D02*
X14845000Y-3600000D01*
X14925000Y-3255000D02*
X14925000Y-3295000D01*
X14905000Y-3275000D02*
X14945000Y-3275000D01*
X15080000Y-3525000D02*
X15080000Y-3565000D01*
X15060000Y-3545000D02*
X15100000Y-3545000D01*
X15080000Y-3742500D02*
X15080000Y-3782500D01*
X15060000Y-3762500D02*
X15100000Y-3762500D01*
X15447500Y-7890000D02*
X15447500Y-7930000D01*
X15427500Y-7910000D02*
X15467500Y-7910000D01*
X15475000Y-6752500D02*
X15475000Y-6792500D01*
X15455000Y-6772500D02*
X15495000Y-6772500D01*
X15475000Y-7622500D02*
X15475000Y-7662500D01*
X15455000Y-7642500D02*
X15495000Y-7642500D01*
X15500000Y-5230000D02*
X15500000Y-5270000D01*
X15480000Y-5250000D02*
X15520000Y-5250000D01*
X15700000Y-3580000D02*
X15700000Y-3620000D01*
X15680000Y-3600000D02*
X15720000Y-3600000D01*
X15750000Y-5230000D02*
X15750000Y-5270000D01*
X15730000Y-5250000D02*
X15770000Y-5250000D01*
X15800000Y-3255000D02*
X15800000Y-3295000D01*
X15780000Y-3275000D02*
X15820000Y-3275000D01*
X15955000Y-3525000D02*
X15955000Y-3565000D01*
X15935000Y-3545000D02*
X15975000Y-3545000D01*
X15955000Y-3742500D02*
X15955000Y-3782500D01*
X15935000Y-3762500D02*
X15975000Y-3762500D01*
X16000000Y-5230000D02*
X16000000Y-5270000D01*
X15980000Y-5250000D02*
X16020000Y-5250000D01*
X16047500Y-3902500D02*
X16047500Y-3942500D01*
X16027500Y-3922500D02*
X16067500Y-3922500D01*
X16047500Y-5352500D02*
X16047500Y-5392500D01*
X16027500Y-5372500D02*
X16067500Y-5372500D01*
X16047500Y-7622500D02*
X16047500Y-7662500D01*
X16027500Y-7642500D02*
X16067500Y-7642500D01*
X16325000Y-3105000D02*
X16325000Y-3145000D01*
X16305000Y-3125000D02*
X16345000Y-3125000D01*
X12564142Y-3289142D02*
X12564142Y-3260858D01*
X12535858Y-3260858D01*
X12535858Y-3289142D01*
X12564142Y-3289142D01*
X12564142Y-8299142D02*
X12564142Y-8270858D01*
X12535858Y-8270858D01*
X12535858Y-8299142D01*
X12564142Y-8299142D01*
X12612470Y-3172470D02*
X12612470Y-3144185D01*
X12584185Y-3144185D01*
X12584185Y-3172470D01*
X12612470Y-3172470D01*
X12612470Y-3405815D02*
X12612470Y-3377530D01*
X12584185Y-3377530D01*
X12584185Y-3405815D01*
X12612470Y-3405815D01*
X12612470Y-8182470D02*
X12612470Y-8154185D01*
X12584185Y-8154185D01*
X12584185Y-8182470D01*
X12612470Y-8182470D01*
X12612470Y-8415815D02*
X12612470Y-8387530D01*
X12584185Y-8387530D01*
X12584185Y-8415815D01*
X12612470Y-8415815D01*
X12729142Y-3124142D02*
X12729142Y-3095858D01*
X12700858Y-3095858D01*
X12700858Y-3124142D01*
X12729142Y-3124142D01*
X12729142Y-3454142D02*
X12729142Y-3425858D01*
X12700858Y-3425858D01*
X12700858Y-3454142D01*
X12729142Y-3454142D01*
X12729142Y-8134142D02*
X12729142Y-8105858D01*
X12700858Y-8105858D01*
X12700858Y-8134142D01*
X12729142Y-8134142D01*
X12729142Y-8464142D02*
X12729142Y-8435858D01*
X12700858Y-8435858D01*
X12700858Y-8464142D01*
X12729142Y-8464142D01*
X12845815Y-3172470D02*
X12845815Y-3144185D01*
X12817530Y-3144185D01*
X12817530Y-3172470D01*
X12845815Y-3172470D01*
X12845815Y-3405815D02*
X12845815Y-3377530D01*
X12817530Y-3377530D01*
X12817530Y-3405815D01*
X12845815Y-3405815D01*
X12845815Y-8182470D02*
X12845815Y-8154185D01*
X12817530Y-8154185D01*
X12817530Y-8182470D01*
X12845815Y-8182470D01*
X12845815Y-8415815D02*
X12845815Y-8387530D01*
X12817530Y-8387530D01*
X12817530Y-8415815D01*
X12845815Y-8415815D01*
X12894142Y-3289142D02*
X12894142Y-3260858D01*
X12865858Y-3260858D01*
X12865858Y-3289142D01*
X12894142Y-3289142D01*
X12894142Y-8299142D02*
X12894142Y-8270858D01*
X12865858Y-8270858D01*
X12865858Y-8299142D01*
X12894142Y-8299142D01*
X18574142Y-3289142D02*
X18574142Y-3260858D01*
X18545858Y-3260858D01*
X18545858Y-3289142D01*
X18574142Y-3289142D01*
X18574142Y-8299142D02*
X18574142Y-8270858D01*
X18545858Y-8270858D01*
X18545858Y-8299142D01*
X18574142Y-8299142D01*
X18622470Y-3172470D02*
X18622470Y-3144185D01*
X18594185Y-3144185D01*
X18594185Y-3172470D01*
X18622470Y-3172470D01*
X18622470Y-3405815D02*
X18622470Y-3377530D01*
X18594185Y-3377530D01*
X18594185Y-3405815D01*
X18622470Y-3405815D01*
X18622470Y-8182470D02*
X18622470Y-8154185D01*
X18594185Y-8154185D01*
X18594185Y-8182470D01*
X18622470Y-8182470D01*
X18622470Y-8415815D02*
X18622470Y-8387530D01*
X18594185Y-8387530D01*
X18594185Y-8415815D01*
X18622470Y-8415815D01*
X18739142Y-3124142D02*
X18739142Y-3095858D01*
X18710858Y-3095858D01*
X18710858Y-3124142D01*
X18739142Y-3124142D01*
X18739142Y-3454142D02*
X18739142Y-3425858D01*
X18710858Y-3425858D01*
X18710858Y-3454142D01*
X18739142Y-3454142D01*
X18739142Y-8134142D02*
X18739142Y-8105858D01*
X18710858Y-8105858D01*
X18710858Y-8134142D01*
X18739142Y-8134142D01*
X18739142Y-8464142D02*
X18739142Y-8435858D01*
X18710858Y-8435858D01*
X18710858Y-8464142D01*
X18739142Y-8464142D01*
X18855815Y-3172470D02*
X18855815Y-3144185D01*
X18827530Y-3144185D01*
X18827530Y-3172470D01*
X18855815Y-3172470D01*
X18855815Y-3405815D02*
X18855815Y-3377530D01*
X18827530Y-3377530D01*
X18827530Y-3405815D01*
X18855815Y-3405815D01*
X18855815Y-8182470D02*
X18855815Y-8154185D01*
X18827530Y-8154185D01*
X18827530Y-8182470D01*
X18855815Y-8182470D01*
X18855815Y-8415815D02*
X18855815Y-8387530D01*
X18827530Y-8387530D01*
X18827530Y-8415815D01*
X18855815Y-8415815D01*
X18904142Y-3289142D02*
X18904142Y-3260858D01*
X18875858Y-3260858D01*
X18875858Y-3289142D01*
X18904142Y-3289142D01*
X18904142Y-8299142D02*
X18904142Y-8270858D01*
X18875858Y-8270858D01*
X18875858Y-8299142D01*
X18904142Y-8299142D01*
D15*
X12745000Y-7073000D02*
X12775000Y-7043000D01*
X12745000Y-7013000D01*
X12715000Y-7043000D01*
X12745000Y-7073000D01*
D11*
X12785000Y-7013000D02*
X12705000Y-7013000D01*
X12705000Y-7013000D02*
G75*
G03*
X12705000Y-7073000I0J-30000D01*
G01*
X12705000Y-7073000D02*
X12785000Y-7073000D01*
X12785000Y-7073000D02*
G75*
G03*
X12785000Y-7013000I0J30000D01*
G01*
D15*
X12745000Y-7937000D02*
X12775000Y-7907000D01*
X12745000Y-7877000D01*
X12715000Y-7907000D01*
X12745000Y-7937000D01*
D11*
X12785000Y-7877000D02*
X12705000Y-7877000D01*
X12705000Y-7877000D02*
G75*
G03*
X12705000Y-7937000I0J-30000D01*
G01*
X12705000Y-7937000D02*
X12785000Y-7937000D01*
X12785000Y-7937000D02*
G75*
G03*
X12785000Y-7877000I0J30000D01*
G01*
D15*
X13165000Y-7073000D02*
X13195000Y-7043000D01*
X13165000Y-7013000D01*
X13135000Y-7043000D01*
X13165000Y-7073000D01*
D11*
X13220000Y-7013000D02*
X13110000Y-7013000D01*
X13110000Y-7013000D02*
G75*
G03*
X13110000Y-7073000I0J-30000D01*
G01*
X13110000Y-7073000D02*
X13220000Y-7073000D01*
X13220000Y-7073000D02*
G75*
G03*
X13220000Y-7013000I0J30000D01*
G01*
D15*
X13165000Y-7937000D02*
X13195000Y-7907000D01*
X13165000Y-7877000D01*
X13135000Y-7907000D01*
X13165000Y-7937000D01*
D11*
X13220000Y-7877000D02*
X13110000Y-7877000D01*
X13110000Y-7877000D02*
G75*
G03*
X13110000Y-7937000I0J-30000D01*
G01*
X13110000Y-7937000D02*
X13220000Y-7937000D01*
X13220000Y-7937000D02*
G75*
G03*
X13220000Y-7877000I0J30000D01*
G01*
D16*
X16560000Y-4085000D02*
X16640000Y-4165000D01*
X16640000Y-4085000D02*
X16560000Y-4165000D01*
X16640000Y-4125000D02*
G75*
G03*
X16640000Y-4125000I-40000J0D01*
G01*
X16560000Y-4339000D02*
X16640000Y-4419000D01*
X16640000Y-4339000D02*
X16560000Y-4419000D01*
X16640000Y-4379000D02*
G75*
G03*
X16640000Y-4379000I-40000J0D01*
G01*
X16560000Y-4593000D02*
X16640000Y-4673000D01*
X16640000Y-4593000D02*
X16560000Y-4673000D01*
X16640000Y-4633000D02*
G75*
G03*
X16640000Y-4633000I-40000J0D01*
G01*
X16560000Y-4847000D02*
X16640000Y-4927000D01*
X16640000Y-4847000D02*
X16560000Y-4927000D01*
X16640000Y-4887000D02*
G75*
G03*
X16640000Y-4887000I-40000J0D01*
G01*
X16560000Y-5101000D02*
X16640000Y-5181000D01*
X16640000Y-5101000D02*
X16560000Y-5181000D01*
X16640000Y-5141000D02*
G75*
G03*
X16640000Y-5141000I-40000J0D01*
G01*
X16560000Y-5355000D02*
X16640000Y-5435000D01*
X16640000Y-5355000D02*
X16560000Y-5435000D01*
X16640000Y-5395000D02*
G75*
G03*
X16640000Y-5395000I-40000J0D01*
G01*
X16560000Y-5609000D02*
X16640000Y-5689000D01*
X16640000Y-5609000D02*
X16560000Y-5689000D01*
X16640000Y-5649000D02*
G75*
G03*
X16640000Y-5649000I-40000J0D01*
G01*
X16560000Y-5863000D02*
X16640000Y-5943000D01*
X16640000Y-5863000D02*
X16560000Y-5943000D01*
X16640000Y-5903000D02*
G75*
G03*
X16640000Y-5903000I-40000J0D01*
G01*
X16560000Y-6117000D02*
X16640000Y-6197000D01*
X16640000Y-6117000D02*
X16560000Y-6197000D01*
X16640000Y-6157000D02*
G75*
G03*
X16640000Y-6157000I-40000J0D01*
G01*
X16560000Y-6371000D02*
X16640000Y-6451000D01*
X16640000Y-6371000D02*
X16560000Y-6451000D01*
X16640000Y-6411000D02*
G75*
G03*
X16640000Y-6411000I-40000J0D01*
G01*
X16560000Y-6625000D02*
X16640000Y-6705000D01*
X16640000Y-6625000D02*
X16560000Y-6705000D01*
X16640000Y-6665000D02*
G75*
G03*
X16640000Y-6665000I-40000J0D01*
G01*
X16560000Y-6879000D02*
X16640000Y-6959000D01*
X16640000Y-6879000D02*
X16560000Y-6959000D01*
X16640000Y-6919000D02*
G75*
G03*
X16640000Y-6919000I-40000J0D01*
G01*
X16560000Y-7133000D02*
X16640000Y-7213000D01*
X16640000Y-7133000D02*
X16560000Y-7213000D01*
X16640000Y-7173000D02*
G75*
G03*
X16640000Y-7173000I-40000J0D01*
G01*
X16560000Y-7387000D02*
X16640000Y-7467000D01*
X16640000Y-7387000D02*
X16560000Y-7467000D01*
X16640000Y-7427000D02*
G75*
G03*
X16640000Y-7427000I-40000J0D01*
G01*
X18084000Y-4085000D02*
X18164000Y-4165000D01*
X18164000Y-4085000D02*
X18084000Y-4165000D01*
X18164000Y-4125000D02*
G75*
G03*
X18164000Y-4125000I-40000J0D01*
G01*
X18084000Y-4339000D02*
X18164000Y-4419000D01*
X18164000Y-4339000D02*
X18084000Y-4419000D01*
X18164000Y-4379000D02*
G75*
G03*
X18164000Y-4379000I-40000J0D01*
G01*
X18084000Y-4593000D02*
X18164000Y-4673000D01*
X18164000Y-4593000D02*
X18084000Y-4673000D01*
X18164000Y-4633000D02*
G75*
G03*
X18164000Y-4633000I-40000J0D01*
G01*
X18084000Y-4847000D02*
X18164000Y-4927000D01*
X18164000Y-4847000D02*
X18084000Y-4927000D01*
X18164000Y-4887000D02*
G75*
G03*
X18164000Y-4887000I-40000J0D01*
G01*
X18084000Y-5101000D02*
X18164000Y-5181000D01*
X18164000Y-5101000D02*
X18084000Y-5181000D01*
X18164000Y-5141000D02*
G75*
G03*
X18164000Y-5141000I-40000J0D01*
G01*
X18084000Y-5355000D02*
X18164000Y-5435000D01*
X18164000Y-5355000D02*
X18084000Y-5435000D01*
X18164000Y-5395000D02*
G75*
G03*
X18164000Y-5395000I-40000J0D01*
G01*
X18084000Y-5609000D02*
X18164000Y-5689000D01*
X18164000Y-5609000D02*
X18084000Y-5689000D01*
X18164000Y-5649000D02*
G75*
G03*
X18164000Y-5649000I-40000J0D01*
G01*
X18084000Y-5863000D02*
X18164000Y-5943000D01*
X18164000Y-5863000D02*
X18084000Y-5943000D01*
X18164000Y-5903000D02*
G75*
G03*
X18164000Y-5903000I-40000J0D01*
G01*
X18084000Y-6117000D02*
X18164000Y-6197000D01*
X18164000Y-6117000D02*
X18084000Y-6197000D01*
X18164000Y-6157000D02*
G75*
G03*
X18164000Y-6157000I-40000J0D01*
G01*
X18084000Y-6371000D02*
X18164000Y-6451000D01*
X18164000Y-6371000D02*
X18084000Y-6451000D01*
X18164000Y-6411000D02*
G75*
G03*
X18164000Y-6411000I-40000J0D01*
G01*
X18084000Y-6625000D02*
X18164000Y-6705000D01*
X18164000Y-6625000D02*
X18084000Y-6705000D01*
X18164000Y-6665000D02*
G75*
G03*
X18164000Y-6665000I-40000J0D01*
G01*
X18084000Y-6879000D02*
X18164000Y-6959000D01*
X18164000Y-6879000D02*
X18084000Y-6959000D01*
X18164000Y-6919000D02*
G75*
G03*
X18164000Y-6919000I-40000J0D01*
G01*
X18084000Y-7133000D02*
X18164000Y-7213000D01*
X18164000Y-7133000D02*
X18084000Y-7213000D01*
X18164000Y-7173000D02*
G75*
G03*
X18164000Y-7173000I-40000J0D01*
G01*
X18084000Y-7387000D02*
X18164000Y-7467000D01*
X18164000Y-7387000D02*
X18084000Y-7467000D01*
X18164000Y-7427000D02*
G75*
G03*
X18164000Y-7427000I-40000J0D01*
G01*
D10*
X12946000Y-3848000D02*
X13046000Y-3948000D01*
X13046000Y-3848000D02*
X12946000Y-3948000D01*
X12996000Y-3848000D02*
X12996000Y-3948000D01*
X12946000Y-3898000D02*
X13046000Y-3898000D01*
X12946000Y-4103500D02*
X13046000Y-4203500D01*
X13046000Y-4103500D02*
X12946000Y-4203500D01*
X12996000Y-4103500D02*
X12996000Y-4203500D01*
X12946000Y-4153500D02*
X13046000Y-4153500D01*
X13196000Y-3225000D02*
X13296000Y-3325000D01*
X13296000Y-3225000D02*
X13196000Y-3325000D01*
X13246000Y-3225000D02*
X13246000Y-3325000D01*
X13196000Y-3275000D02*
X13296000Y-3275000D01*
X13200000Y-3848000D02*
X13300000Y-3948000D01*
X13300000Y-3848000D02*
X13200000Y-3948000D01*
X13250000Y-3848000D02*
X13250000Y-3948000D01*
X13200000Y-3898000D02*
X13300000Y-3898000D01*
X13200000Y-4103500D02*
X13300000Y-4203500D01*
X13300000Y-4103500D02*
X13200000Y-4203500D01*
X13250000Y-4103500D02*
X13250000Y-4203500D01*
X13200000Y-4153500D02*
X13300000Y-4153500D01*
X13450000Y-3225000D02*
X13550000Y-3325000D01*
X13550000Y-3225000D02*
X13450000Y-3325000D01*
X13500000Y-3225000D02*
X13500000Y-3325000D01*
X13450000Y-3275000D02*
X13550000Y-3275000D01*
X13454000Y-3848000D02*
X13554000Y-3948000D01*
X13554000Y-3848000D02*
X13454000Y-3948000D01*
X13504000Y-3848000D02*
X13504000Y-3948000D01*
X13454000Y-3898000D02*
X13554000Y-3898000D01*
X13454000Y-4103500D02*
X13554000Y-4203500D01*
X13554000Y-4103500D02*
X13454000Y-4203500D01*
X13504000Y-4103500D02*
X13504000Y-4203500D01*
X13454000Y-4153500D02*
X13554000Y-4153500D01*
X13704000Y-3225000D02*
X13804000Y-3325000D01*
X13804000Y-3225000D02*
X13704000Y-3325000D01*
X13754000Y-3225000D02*
X13754000Y-3325000D01*
X13704000Y-3275000D02*
X13804000Y-3275000D01*
D17*
X12605000Y-3165000D02*
X12825000Y-3385000D01*
X12825000Y-3165000D02*
X12605000Y-3385000D01*
X12792782Y-3352782D02*
X12792782Y-3197217D01*
X12637217Y-3197217D01*
X12637217Y-3352782D01*
X12792782Y-3352782D01*
X12605000Y-8175000D02*
X12825000Y-8395000D01*
X12825000Y-8175000D02*
X12605000Y-8395000D01*
X12792782Y-8362782D02*
X12792782Y-8207217D01*
X12637217Y-8207217D01*
X12637217Y-8362782D01*
X12792782Y-8362782D01*
X18615000Y-3165000D02*
X18835000Y-3385000D01*
X18835000Y-3165000D02*
X18615000Y-3385000D01*
X18802783Y-3352782D02*
X18802783Y-3197217D01*
X18647218Y-3197217D01*
X18647218Y-3352782D01*
X18802783Y-3352782D01*
X18615000Y-8175000D02*
X18835000Y-8395000D01*
X18835000Y-8175000D02*
X18615000Y-8395000D01*
X18802783Y-8362782D02*
X18802783Y-8207217D01*
X18647218Y-8207217D01*
X18647218Y-8362782D01*
X18802783Y-8362782D01*
D11*
X12720777Y-8851484D02*
X12720777Y-8651484D01*
X12720777Y-8651484D02*
X12768396Y-8651484D01*
X12768396Y-8651484D02*
X12796967Y-8661008D01*
X12796967Y-8661008D02*
X12816015Y-8680055D01*
X12816015Y-8680055D02*
X12825539Y-8699103D01*
X12825539Y-8699103D02*
X12835062Y-8737198D01*
X12835062Y-8737198D02*
X12835062Y-8765770D01*
X12835062Y-8765770D02*
X12825539Y-8803865D01*
X12825539Y-8803865D02*
X12816015Y-8822912D01*
X12816015Y-8822912D02*
X12796967Y-8841960D01*
X12796967Y-8841960D02*
X12768396Y-8851484D01*
X12768396Y-8851484D02*
X12720777Y-8851484D01*
X12920777Y-8851484D02*
X12920777Y-8718150D01*
X12920777Y-8756246D02*
X12930301Y-8737198D01*
X12930301Y-8737198D02*
X12939824Y-8727674D01*
X12939824Y-8727674D02*
X12958872Y-8718150D01*
X12958872Y-8718150D02*
X12977920Y-8718150D01*
X13044586Y-8851484D02*
X13044586Y-8718150D01*
X13044586Y-8651484D02*
X13035062Y-8661008D01*
X13035062Y-8661008D02*
X13044586Y-8670531D01*
X13044586Y-8670531D02*
X13054110Y-8661008D01*
X13054110Y-8661008D02*
X13044586Y-8651484D01*
X13044586Y-8651484D02*
X13044586Y-8670531D01*
X13168396Y-8851484D02*
X13149348Y-8841960D01*
X13149348Y-8841960D02*
X13139824Y-8822912D01*
X13139824Y-8822912D02*
X13139824Y-8651484D01*
X13273158Y-8851484D02*
X13254110Y-8841960D01*
X13254110Y-8841960D02*
X13244586Y-8822912D01*
X13244586Y-8822912D02*
X13244586Y-8651484D01*
X13501729Y-8851484D02*
X13501729Y-8651484D01*
X13501729Y-8651484D02*
X13568396Y-8794341D01*
X13568396Y-8794341D02*
X13635062Y-8651484D01*
X13635062Y-8651484D02*
X13635062Y-8851484D01*
X13816015Y-8851484D02*
X13816015Y-8746722D01*
X13816015Y-8746722D02*
X13806491Y-8727674D01*
X13806491Y-8727674D02*
X13787443Y-8718150D01*
X13787443Y-8718150D02*
X13749348Y-8718150D01*
X13749348Y-8718150D02*
X13730301Y-8727674D01*
X13816015Y-8841960D02*
X13796967Y-8851484D01*
X13796967Y-8851484D02*
X13749348Y-8851484D01*
X13749348Y-8851484D02*
X13730301Y-8841960D01*
X13730301Y-8841960D02*
X13720777Y-8822912D01*
X13720777Y-8822912D02*
X13720777Y-8803865D01*
X13720777Y-8803865D02*
X13730301Y-8784817D01*
X13730301Y-8784817D02*
X13749348Y-8775293D01*
X13749348Y-8775293D02*
X13796967Y-8775293D01*
X13796967Y-8775293D02*
X13816015Y-8765770D01*
X13911253Y-8718150D02*
X13911253Y-8918150D01*
X13911253Y-8727674D02*
X13930301Y-8718150D01*
X13930301Y-8718150D02*
X13968396Y-8718150D01*
X13968396Y-8718150D02*
X13987443Y-8727674D01*
X13987443Y-8727674D02*
X13996967Y-8737198D01*
X13996967Y-8737198D02*
X14006491Y-8756246D01*
X14006491Y-8756246D02*
X14006491Y-8813389D01*
X14006491Y-8813389D02*
X13996967Y-8832436D01*
X13996967Y-8832436D02*
X13987443Y-8841960D01*
X13987443Y-8841960D02*
X13968396Y-8851484D01*
X13968396Y-8851484D02*
X13930301Y-8851484D01*
X13930301Y-8851484D02*
X13911253Y-8841960D01*
X14092205Y-8832436D02*
X14101729Y-8841960D01*
X14101729Y-8841960D02*
X14092205Y-8851484D01*
X14092205Y-8851484D02*
X14082682Y-8841960D01*
X14082682Y-8841960D02*
X14092205Y-8832436D01*
X14092205Y-8832436D02*
X14092205Y-8851484D01*
X14092205Y-8727674D02*
X14101729Y-8737198D01*
X14101729Y-8737198D02*
X14092205Y-8746722D01*
X14092205Y-8746722D02*
X14082682Y-8737198D01*
X14082682Y-8737198D02*
X14092205Y-8727674D01*
X14092205Y-8727674D02*
X14092205Y-8746722D01*
D12*
X12430000Y-9165000D02*
X12460000Y-9195000D01*
X12460000Y-9165000D02*
X12430000Y-9195000D01*
D11*
X12758872Y-9071484D02*
X12777920Y-9071484D01*
X12777920Y-9071484D02*
X12796967Y-9081008D01*
X12796967Y-9081008D02*
X12806491Y-9090531D01*
X12806491Y-9090531D02*
X12816015Y-9109579D01*
X12816015Y-9109579D02*
X12825539Y-9147674D01*
X12825539Y-9147674D02*
X12825539Y-9195293D01*
X12825539Y-9195293D02*
X12816015Y-9233389D01*
X12816015Y-9233389D02*
X12806491Y-9252436D01*
X12806491Y-9252436D02*
X12796967Y-9261960D01*
X12796967Y-9261960D02*
X12777920Y-9271484D01*
X12777920Y-9271484D02*
X12758872Y-9271484D01*
X12758872Y-9271484D02*
X12739824Y-9261960D01*
X12739824Y-9261960D02*
X12730301Y-9252436D01*
X12730301Y-9252436D02*
X12720777Y-9233389D01*
X12720777Y-9233389D02*
X12711253Y-9195293D01*
X12711253Y-9195293D02*
X12711253Y-9147674D01*
X12711253Y-9147674D02*
X12720777Y-9109579D01*
X12720777Y-9109579D02*
X12730301Y-9090531D01*
X12730301Y-9090531D02*
X12739824Y-9081008D01*
X12739824Y-9081008D02*
X12758872Y-9071484D01*
X12911253Y-9252436D02*
X12920777Y-9261960D01*
X12920777Y-9261960D02*
X12911253Y-9271484D01*
X12911253Y-9271484D02*
X12901729Y-9261960D01*
X12901729Y-9261960D02*
X12911253Y-9252436D01*
X12911253Y-9252436D02*
X12911253Y-9271484D01*
X12987443Y-9071484D02*
X13111253Y-9071484D01*
X13111253Y-9071484D02*
X13044586Y-9147674D01*
X13044586Y-9147674D02*
X13073158Y-9147674D01*
X13073158Y-9147674D02*
X13092205Y-9157198D01*
X13092205Y-9157198D02*
X13101729Y-9166722D01*
X13101729Y-9166722D02*
X13111253Y-9185770D01*
X13111253Y-9185770D02*
X13111253Y-9233389D01*
X13111253Y-9233389D02*
X13101729Y-9252436D01*
X13101729Y-9252436D02*
X13092205Y-9261960D01*
X13092205Y-9261960D02*
X13073158Y-9271484D01*
X13073158Y-9271484D02*
X13016015Y-9271484D01*
X13016015Y-9271484D02*
X12996967Y-9261960D01*
X12996967Y-9261960D02*
X12987443Y-9252436D01*
X13235062Y-9071484D02*
X13254110Y-9071484D01*
X13254110Y-9071484D02*
X13273158Y-9081008D01*
X13273158Y-9081008D02*
X13282682Y-9090531D01*
X13282682Y-9090531D02*
X13292205Y-9109579D01*
X13292205Y-9109579D02*
X13301729Y-9147674D01*
X13301729Y-9147674D02*
X13301729Y-9195293D01*
X13301729Y-9195293D02*
X13292205Y-9233389D01*
X13292205Y-9233389D02*
X13282682Y-9252436D01*
X13282682Y-9252436D02*
X13273158Y-9261960D01*
X13273158Y-9261960D02*
X13254110Y-9271484D01*
X13254110Y-9271484D02*
X13235062Y-9271484D01*
X13235062Y-9271484D02*
X13216015Y-9261960D01*
X13216015Y-9261960D02*
X13206491Y-9252436D01*
X13206491Y-9252436D02*
X13196967Y-9233389D01*
X13196967Y-9233389D02*
X13187443Y-9195293D01*
X13187443Y-9195293D02*
X13187443Y-9147674D01*
X13187443Y-9147674D02*
X13196967Y-9109579D01*
X13196967Y-9109579D02*
X13206491Y-9090531D01*
X13206491Y-9090531D02*
X13216015Y-9081008D01*
X13216015Y-9081008D02*
X13235062Y-9071484D01*
X13425539Y-9071484D02*
X13444586Y-9071484D01*
X13444586Y-9071484D02*
X13463634Y-9081008D01*
X13463634Y-9081008D02*
X13473158Y-9090531D01*
X13473158Y-9090531D02*
X13482682Y-9109579D01*
X13482682Y-9109579D02*
X13492205Y-9147674D01*
X13492205Y-9147674D02*
X13492205Y-9195293D01*
X13492205Y-9195293D02*
X13482682Y-9233389D01*
X13482682Y-9233389D02*
X13473158Y-9252436D01*
X13473158Y-9252436D02*
X13463634Y-9261960D01*
X13463634Y-9261960D02*
X13444586Y-9271484D01*
X13444586Y-9271484D02*
X13425539Y-9271484D01*
X13425539Y-9271484D02*
X13406491Y-9261960D01*
X13406491Y-9261960D02*
X13396967Y-9252436D01*
X13396967Y-9252436D02*
X13387443Y-9233389D01*
X13387443Y-9233389D02*
X13377920Y-9195293D01*
X13377920Y-9195293D02*
X13377920Y-9147674D01*
X13377920Y-9147674D02*
X13387443Y-9109579D01*
X13387443Y-9109579D02*
X13396967Y-9090531D01*
X13396967Y-9090531D02*
X13406491Y-9081008D01*
X13406491Y-9081008D02*
X13425539Y-9071484D01*
X13577920Y-9271484D02*
X13577920Y-9138150D01*
X13577920Y-9157198D02*
X13587443Y-9147674D01*
X13587443Y-9147674D02*
X13606491Y-9138150D01*
X13606491Y-9138150D02*
X13635063Y-9138150D01*
X13635063Y-9138150D02*
X13654110Y-9147674D01*
X13654110Y-9147674D02*
X13663634Y-9166722D01*
X13663634Y-9166722D02*
X13663634Y-9271484D01*
X13663634Y-9166722D02*
X13673158Y-9147674D01*
X13673158Y-9147674D02*
X13692205Y-9138150D01*
X13692205Y-9138150D02*
X13720777Y-9138150D01*
X13720777Y-9138150D02*
X13739824Y-9147674D01*
X13739824Y-9147674D02*
X13749348Y-9166722D01*
X13749348Y-9166722D02*
X13749348Y-9271484D01*
X13844586Y-9271484D02*
X13844586Y-9138150D01*
X13844586Y-9157198D02*
X13854110Y-9147674D01*
X13854110Y-9147674D02*
X13873158Y-9138150D01*
X13873158Y-9138150D02*
X13901729Y-9138150D01*
X13901729Y-9138150D02*
X13920777Y-9147674D01*
X13920777Y-9147674D02*
X13930301Y-9166722D01*
X13930301Y-9166722D02*
X13930301Y-9271484D01*
X13930301Y-9166722D02*
X13939824Y-9147674D01*
X13939824Y-9147674D02*
X13958872Y-9138150D01*
X13958872Y-9138150D02*
X13987443Y-9138150D01*
X13987443Y-9138150D02*
X14006491Y-9147674D01*
X14006491Y-9147674D02*
X14016015Y-9166722D01*
X14016015Y-9166722D02*
X14016015Y-9271484D01*
X14406491Y-9061960D02*
X14235063Y-9319103D01*
X14663634Y-9071484D02*
X14682682Y-9071484D01*
X14682682Y-9071484D02*
X14701729Y-9081008D01*
X14701729Y-9081008D02*
X14711253Y-9090531D01*
X14711253Y-9090531D02*
X14720777Y-9109579D01*
X14720777Y-9109579D02*
X14730301Y-9147674D01*
X14730301Y-9147674D02*
X14730301Y-9195293D01*
X14730301Y-9195293D02*
X14720777Y-9233389D01*
X14720777Y-9233389D02*
X14711253Y-9252436D01*
X14711253Y-9252436D02*
X14701729Y-9261960D01*
X14701729Y-9261960D02*
X14682682Y-9271484D01*
X14682682Y-9271484D02*
X14663634Y-9271484D01*
X14663634Y-9271484D02*
X14644586Y-9261960D01*
X14644586Y-9261960D02*
X14635063Y-9252436D01*
X14635063Y-9252436D02*
X14625539Y-9233389D01*
X14625539Y-9233389D02*
X14616015Y-9195293D01*
X14616015Y-9195293D02*
X14616015Y-9147674D01*
X14616015Y-9147674D02*
X14625539Y-9109579D01*
X14625539Y-9109579D02*
X14635063Y-9090531D01*
X14635063Y-9090531D02*
X14644586Y-9081008D01*
X14644586Y-9081008D02*
X14663634Y-9071484D01*
X14816015Y-9252436D02*
X14825539Y-9261960D01*
X14825539Y-9261960D02*
X14816015Y-9271484D01*
X14816015Y-9271484D02*
X14806491Y-9261960D01*
X14806491Y-9261960D02*
X14816015Y-9252436D01*
X14816015Y-9252436D02*
X14816015Y-9271484D01*
X14949348Y-9071484D02*
X14968396Y-9071484D01*
X14968396Y-9071484D02*
X14987444Y-9081008D01*
X14987444Y-9081008D02*
X14996967Y-9090531D01*
X14996967Y-9090531D02*
X15006491Y-9109579D01*
X15006491Y-9109579D02*
X15016015Y-9147674D01*
X15016015Y-9147674D02*
X15016015Y-9195293D01*
X15016015Y-9195293D02*
X15006491Y-9233389D01*
X15006491Y-9233389D02*
X14996967Y-9252436D01*
X14996967Y-9252436D02*
X14987444Y-9261960D01*
X14987444Y-9261960D02*
X14968396Y-9271484D01*
X14968396Y-9271484D02*
X14949348Y-9271484D01*
X14949348Y-9271484D02*
X14930301Y-9261960D01*
X14930301Y-9261960D02*
X14920777Y-9252436D01*
X14920777Y-9252436D02*
X14911253Y-9233389D01*
X14911253Y-9233389D02*
X14901729Y-9195293D01*
X14901729Y-9195293D02*
X14901729Y-9147674D01*
X14901729Y-9147674D02*
X14911253Y-9109579D01*
X14911253Y-9109579D02*
X14920777Y-9090531D01*
X14920777Y-9090531D02*
X14930301Y-9081008D01*
X14930301Y-9081008D02*
X14949348Y-9071484D01*
X15206491Y-9271484D02*
X15092206Y-9271484D01*
X15149348Y-9271484D02*
X15149348Y-9071484D01*
X15149348Y-9071484D02*
X15130301Y-9100055D01*
X15130301Y-9100055D02*
X15111253Y-9119103D01*
X15111253Y-9119103D02*
X15092206Y-9128627D01*
X15396967Y-9271484D02*
X15282682Y-9271484D01*
X15339825Y-9271484D02*
X15339825Y-9071484D01*
X15339825Y-9071484D02*
X15320777Y-9100055D01*
X15320777Y-9100055D02*
X15301729Y-9119103D01*
X15301729Y-9119103D02*
X15282682Y-9128627D01*
X15511253Y-9157198D02*
X15492206Y-9147674D01*
X15492206Y-9147674D02*
X15482682Y-9138150D01*
X15482682Y-9138150D02*
X15473158Y-9119103D01*
X15473158Y-9119103D02*
X15473158Y-9109579D01*
X15473158Y-9109579D02*
X15482682Y-9090531D01*
X15482682Y-9090531D02*
X15492206Y-9081008D01*
X15492206Y-9081008D02*
X15511253Y-9071484D01*
X15511253Y-9071484D02*
X15549348Y-9071484D01*
X15549348Y-9071484D02*
X15568396Y-9081008D01*
X15568396Y-9081008D02*
X15577920Y-9090531D01*
X15577920Y-9090531D02*
X15587444Y-9109579D01*
X15587444Y-9109579D02*
X15587444Y-9119103D01*
X15587444Y-9119103D02*
X15577920Y-9138150D01*
X15577920Y-9138150D02*
X15568396Y-9147674D01*
X15568396Y-9147674D02*
X15549348Y-9157198D01*
X15549348Y-9157198D02*
X15511253Y-9157198D01*
X15511253Y-9157198D02*
X15492206Y-9166722D01*
X15492206Y-9166722D02*
X15482682Y-9176246D01*
X15482682Y-9176246D02*
X15473158Y-9195293D01*
X15473158Y-9195293D02*
X15473158Y-9233389D01*
X15473158Y-9233389D02*
X15482682Y-9252436D01*
X15482682Y-9252436D02*
X15492206Y-9261960D01*
X15492206Y-9261960D02*
X15511253Y-9271484D01*
X15511253Y-9271484D02*
X15549348Y-9271484D01*
X15549348Y-9271484D02*
X15568396Y-9261960D01*
X15568396Y-9261960D02*
X15577920Y-9252436D01*
X15577920Y-9252436D02*
X15587444Y-9233389D01*
X15587444Y-9233389D02*
X15587444Y-9195293D01*
X15587444Y-9195293D02*
X15577920Y-9176246D01*
X15577920Y-9176246D02*
X15568396Y-9166722D01*
X15568396Y-9166722D02*
X15549348Y-9157198D01*
X15663634Y-9071484D02*
X15663634Y-9109579D01*
X15739825Y-9071484D02*
X15739825Y-9109579D01*
X16035063Y-9347674D02*
X16025539Y-9338150D01*
X16025539Y-9338150D02*
X16006491Y-9309579D01*
X16006491Y-9309579D02*
X15996968Y-9290531D01*
X15996968Y-9290531D02*
X15987444Y-9261960D01*
X15987444Y-9261960D02*
X15977920Y-9214341D01*
X15977920Y-9214341D02*
X15977920Y-9176246D01*
X15977920Y-9176246D02*
X15987444Y-9128627D01*
X15987444Y-9128627D02*
X15996968Y-9100055D01*
X15996968Y-9100055D02*
X16006491Y-9081008D01*
X16006491Y-9081008D02*
X16025539Y-9052436D01*
X16025539Y-9052436D02*
X16035063Y-9042912D01*
X16120777Y-9271484D02*
X16158872Y-9271484D01*
X16158872Y-9271484D02*
X16177920Y-9261960D01*
X16177920Y-9261960D02*
X16187444Y-9252436D01*
X16187444Y-9252436D02*
X16206491Y-9223865D01*
X16206491Y-9223865D02*
X16216015Y-9185770D01*
X16216015Y-9185770D02*
X16216015Y-9109579D01*
X16216015Y-9109579D02*
X16206491Y-9090531D01*
X16206491Y-9090531D02*
X16196968Y-9081008D01*
X16196968Y-9081008D02*
X16177920Y-9071484D01*
X16177920Y-9071484D02*
X16139825Y-9071484D01*
X16139825Y-9071484D02*
X16120777Y-9081008D01*
X16120777Y-9081008D02*
X16111253Y-9090531D01*
X16111253Y-9090531D02*
X16101729Y-9109579D01*
X16101729Y-9109579D02*
X16101729Y-9157198D01*
X16101729Y-9157198D02*
X16111253Y-9176246D01*
X16111253Y-9176246D02*
X16120777Y-9185770D01*
X16120777Y-9185770D02*
X16139825Y-9195293D01*
X16139825Y-9195293D02*
X16177920Y-9195293D01*
X16177920Y-9195293D02*
X16196968Y-9185770D01*
X16196968Y-9185770D02*
X16206491Y-9176246D01*
X16206491Y-9176246D02*
X16216015Y-9157198D01*
X16282682Y-9071484D02*
X16406491Y-9071484D01*
X16406491Y-9071484D02*
X16339825Y-9147674D01*
X16339825Y-9147674D02*
X16368396Y-9147674D01*
X16368396Y-9147674D02*
X16387444Y-9157198D01*
X16387444Y-9157198D02*
X16396968Y-9166722D01*
X16396968Y-9166722D02*
X16406491Y-9185770D01*
X16406491Y-9185770D02*
X16406491Y-9233389D01*
X16406491Y-9233389D02*
X16396968Y-9252436D01*
X16396968Y-9252436D02*
X16387444Y-9261960D01*
X16387444Y-9261960D02*
X16368396Y-9271484D01*
X16368396Y-9271484D02*
X16311253Y-9271484D01*
X16311253Y-9271484D02*
X16292206Y-9261960D01*
X16292206Y-9261960D02*
X16282682Y-9252436D01*
X16644587Y-9271484D02*
X16644587Y-9071484D01*
X16730301Y-9271484D02*
X16730301Y-9166722D01*
X16730301Y-9166722D02*
X16720777Y-9147674D01*
X16720777Y-9147674D02*
X16701730Y-9138150D01*
X16701730Y-9138150D02*
X16673158Y-9138150D01*
X16673158Y-9138150D02*
X16654110Y-9147674D01*
X16654110Y-9147674D02*
X16644587Y-9157198D01*
X16854111Y-9271484D02*
X16835063Y-9261960D01*
X16835063Y-9261960D02*
X16825539Y-9252436D01*
X16825539Y-9252436D02*
X16816015Y-9233389D01*
X16816015Y-9233389D02*
X16816015Y-9176246D01*
X16816015Y-9176246D02*
X16825539Y-9157198D01*
X16825539Y-9157198D02*
X16835063Y-9147674D01*
X16835063Y-9147674D02*
X16854111Y-9138150D01*
X16854111Y-9138150D02*
X16882682Y-9138150D01*
X16882682Y-9138150D02*
X16901730Y-9147674D01*
X16901730Y-9147674D02*
X16911253Y-9157198D01*
X16911253Y-9157198D02*
X16920777Y-9176246D01*
X16920777Y-9176246D02*
X16920777Y-9233389D01*
X16920777Y-9233389D02*
X16911253Y-9252436D01*
X16911253Y-9252436D02*
X16901730Y-9261960D01*
X16901730Y-9261960D02*
X16882682Y-9271484D01*
X16882682Y-9271484D02*
X16854111Y-9271484D01*
X17035063Y-9271484D02*
X17016015Y-9261960D01*
X17016015Y-9261960D02*
X17006492Y-9242912D01*
X17006492Y-9242912D02*
X17006492Y-9071484D01*
X17187444Y-9261960D02*
X17168396Y-9271484D01*
X17168396Y-9271484D02*
X17130301Y-9271484D01*
X17130301Y-9271484D02*
X17111253Y-9261960D01*
X17111253Y-9261960D02*
X17101730Y-9242912D01*
X17101730Y-9242912D02*
X17101730Y-9166722D01*
X17101730Y-9166722D02*
X17111253Y-9147674D01*
X17111253Y-9147674D02*
X17130301Y-9138150D01*
X17130301Y-9138150D02*
X17168396Y-9138150D01*
X17168396Y-9138150D02*
X17187444Y-9147674D01*
X17187444Y-9147674D02*
X17196968Y-9166722D01*
X17196968Y-9166722D02*
X17196968Y-9185770D01*
X17196968Y-9185770D02*
X17101730Y-9204817D01*
X17273158Y-9261960D02*
X17292206Y-9271484D01*
X17292206Y-9271484D02*
X17330301Y-9271484D01*
X17330301Y-9271484D02*
X17349349Y-9261960D01*
X17349349Y-9261960D02*
X17358873Y-9242912D01*
X17358873Y-9242912D02*
X17358873Y-9233389D01*
X17358873Y-9233389D02*
X17349349Y-9214341D01*
X17349349Y-9214341D02*
X17330301Y-9204817D01*
X17330301Y-9204817D02*
X17301730Y-9204817D01*
X17301730Y-9204817D02*
X17282682Y-9195293D01*
X17282682Y-9195293D02*
X17273158Y-9176246D01*
X17273158Y-9176246D02*
X17273158Y-9166722D01*
X17273158Y-9166722D02*
X17282682Y-9147674D01*
X17282682Y-9147674D02*
X17301730Y-9138150D01*
X17301730Y-9138150D02*
X17330301Y-9138150D01*
X17330301Y-9138150D02*
X17349349Y-9147674D01*
X17425539Y-9347674D02*
X17435063Y-9338150D01*
X17435063Y-9338150D02*
X17454111Y-9309579D01*
X17454111Y-9309579D02*
X17463634Y-9290531D01*
X17463634Y-9290531D02*
X17473158Y-9261960D01*
X17473158Y-9261960D02*
X17482682Y-9214341D01*
X17482682Y-9214341D02*
X17482682Y-9176246D01*
X17482682Y-9176246D02*
X17473158Y-9128627D01*
X17473158Y-9128627D02*
X17463634Y-9100055D01*
X17463634Y-9100055D02*
X17454111Y-9081008D01*
X17454111Y-9081008D02*
X17435063Y-9052436D01*
X17435063Y-9052436D02*
X17425539Y-9042912D01*
D13*
X12460000Y-9444000D02*
G75*
G03*
X12460000Y-9444000I-17500J0D01*
G01*
D11*
X12758872Y-9335484D02*
X12777920Y-9335484D01*
X12777920Y-9335484D02*
X12796967Y-9345008D01*
X12796967Y-9345008D02*
X12806491Y-9354531D01*
X12806491Y-9354531D02*
X12816015Y-9373579D01*
X12816015Y-9373579D02*
X12825539Y-9411674D01*
X12825539Y-9411674D02*
X12825539Y-9459293D01*
X12825539Y-9459293D02*
X12816015Y-9497389D01*
X12816015Y-9497389D02*
X12806491Y-9516436D01*
X12806491Y-9516436D02*
X12796967Y-9525960D01*
X12796967Y-9525960D02*
X12777920Y-9535484D01*
X12777920Y-9535484D02*
X12758872Y-9535484D01*
X12758872Y-9535484D02*
X12739824Y-9525960D01*
X12739824Y-9525960D02*
X12730301Y-9516436D01*
X12730301Y-9516436D02*
X12720777Y-9497389D01*
X12720777Y-9497389D02*
X12711253Y-9459293D01*
X12711253Y-9459293D02*
X12711253Y-9411674D01*
X12711253Y-9411674D02*
X12720777Y-9373579D01*
X12720777Y-9373579D02*
X12730301Y-9354531D01*
X12730301Y-9354531D02*
X12739824Y-9345008D01*
X12739824Y-9345008D02*
X12758872Y-9335484D01*
X12911253Y-9516436D02*
X12920777Y-9525960D01*
X12920777Y-9525960D02*
X12911253Y-9535484D01*
X12911253Y-9535484D02*
X12901729Y-9525960D01*
X12901729Y-9525960D02*
X12911253Y-9516436D01*
X12911253Y-9516436D02*
X12911253Y-9535484D01*
X12987443Y-9335484D02*
X13111253Y-9335484D01*
X13111253Y-9335484D02*
X13044586Y-9411674D01*
X13044586Y-9411674D02*
X13073158Y-9411674D01*
X13073158Y-9411674D02*
X13092205Y-9421198D01*
X13092205Y-9421198D02*
X13101729Y-9430722D01*
X13101729Y-9430722D02*
X13111253Y-9449770D01*
X13111253Y-9449770D02*
X13111253Y-9497389D01*
X13111253Y-9497389D02*
X13101729Y-9516436D01*
X13101729Y-9516436D02*
X13092205Y-9525960D01*
X13092205Y-9525960D02*
X13073158Y-9535484D01*
X13073158Y-9535484D02*
X13016015Y-9535484D01*
X13016015Y-9535484D02*
X12996967Y-9525960D01*
X12996967Y-9525960D02*
X12987443Y-9516436D01*
X13292205Y-9335484D02*
X13196967Y-9335484D01*
X13196967Y-9335484D02*
X13187443Y-9430722D01*
X13187443Y-9430722D02*
X13196967Y-9421198D01*
X13196967Y-9421198D02*
X13216015Y-9411674D01*
X13216015Y-9411674D02*
X13263634Y-9411674D01*
X13263634Y-9411674D02*
X13282682Y-9421198D01*
X13282682Y-9421198D02*
X13292205Y-9430722D01*
X13292205Y-9430722D02*
X13301729Y-9449770D01*
X13301729Y-9449770D02*
X13301729Y-9497389D01*
X13301729Y-9497389D02*
X13292205Y-9516436D01*
X13292205Y-9516436D02*
X13282682Y-9525960D01*
X13282682Y-9525960D02*
X13263634Y-9535484D01*
X13263634Y-9535484D02*
X13216015Y-9535484D01*
X13216015Y-9535484D02*
X13196967Y-9525960D01*
X13196967Y-9525960D02*
X13187443Y-9516436D01*
X13425539Y-9335484D02*
X13444586Y-9335484D01*
X13444586Y-9335484D02*
X13463634Y-9345008D01*
X13463634Y-9345008D02*
X13473158Y-9354531D01*
X13473158Y-9354531D02*
X13482682Y-9373579D01*
X13482682Y-9373579D02*
X13492205Y-9411674D01*
X13492205Y-9411674D02*
X13492205Y-9459293D01*
X13492205Y-9459293D02*
X13482682Y-9497389D01*
X13482682Y-9497389D02*
X13473158Y-9516436D01*
X13473158Y-9516436D02*
X13463634Y-9525960D01*
X13463634Y-9525960D02*
X13444586Y-9535484D01*
X13444586Y-9535484D02*
X13425539Y-9535484D01*
X13425539Y-9535484D02*
X13406491Y-9525960D01*
X13406491Y-9525960D02*
X13396967Y-9516436D01*
X13396967Y-9516436D02*
X13387443Y-9497389D01*
X13387443Y-9497389D02*
X13377920Y-9459293D01*
X13377920Y-9459293D02*
X13377920Y-9411674D01*
X13377920Y-9411674D02*
X13387443Y-9373579D01*
X13387443Y-9373579D02*
X13396967Y-9354531D01*
X13396967Y-9354531D02*
X13406491Y-9345008D01*
X13406491Y-9345008D02*
X13425539Y-9335484D01*
X13577920Y-9535484D02*
X13577920Y-9402150D01*
X13577920Y-9421198D02*
X13587443Y-9411674D01*
X13587443Y-9411674D02*
X13606491Y-9402150D01*
X13606491Y-9402150D02*
X13635063Y-9402150D01*
X13635063Y-9402150D02*
X13654110Y-9411674D01*
X13654110Y-9411674D02*
X13663634Y-9430722D01*
X13663634Y-9430722D02*
X13663634Y-9535484D01*
X13663634Y-9430722D02*
X13673158Y-9411674D01*
X13673158Y-9411674D02*
X13692205Y-9402150D01*
X13692205Y-9402150D02*
X13720777Y-9402150D01*
X13720777Y-9402150D02*
X13739824Y-9411674D01*
X13739824Y-9411674D02*
X13749348Y-9430722D01*
X13749348Y-9430722D02*
X13749348Y-9535484D01*
X13844586Y-9535484D02*
X13844586Y-9402150D01*
X13844586Y-9421198D02*
X13854110Y-9411674D01*
X13854110Y-9411674D02*
X13873158Y-9402150D01*
X13873158Y-9402150D02*
X13901729Y-9402150D01*
X13901729Y-9402150D02*
X13920777Y-9411674D01*
X13920777Y-9411674D02*
X13930301Y-9430722D01*
X13930301Y-9430722D02*
X13930301Y-9535484D01*
X13930301Y-9430722D02*
X13939824Y-9411674D01*
X13939824Y-9411674D02*
X13958872Y-9402150D01*
X13958872Y-9402150D02*
X13987443Y-9402150D01*
X13987443Y-9402150D02*
X14006491Y-9411674D01*
X14006491Y-9411674D02*
X14016015Y-9430722D01*
X14016015Y-9430722D02*
X14016015Y-9535484D01*
X14406491Y-9325960D02*
X14235063Y-9583103D01*
X14663634Y-9335484D02*
X14682682Y-9335484D01*
X14682682Y-9335484D02*
X14701729Y-9345008D01*
X14701729Y-9345008D02*
X14711253Y-9354531D01*
X14711253Y-9354531D02*
X14720777Y-9373579D01*
X14720777Y-9373579D02*
X14730301Y-9411674D01*
X14730301Y-9411674D02*
X14730301Y-9459293D01*
X14730301Y-9459293D02*
X14720777Y-9497389D01*
X14720777Y-9497389D02*
X14711253Y-9516436D01*
X14711253Y-9516436D02*
X14701729Y-9525960D01*
X14701729Y-9525960D02*
X14682682Y-9535484D01*
X14682682Y-9535484D02*
X14663634Y-9535484D01*
X14663634Y-9535484D02*
X14644586Y-9525960D01*
X14644586Y-9525960D02*
X14635063Y-9516436D01*
X14635063Y-9516436D02*
X14625539Y-9497389D01*
X14625539Y-9497389D02*
X14616015Y-9459293D01*
X14616015Y-9459293D02*
X14616015Y-9411674D01*
X14616015Y-9411674D02*
X14625539Y-9373579D01*
X14625539Y-9373579D02*
X14635063Y-9354531D01*
X14635063Y-9354531D02*
X14644586Y-9345008D01*
X14644586Y-9345008D02*
X14663634Y-9335484D01*
X14816015Y-9516436D02*
X14825539Y-9525960D01*
X14825539Y-9525960D02*
X14816015Y-9535484D01*
X14816015Y-9535484D02*
X14806491Y-9525960D01*
X14806491Y-9525960D02*
X14816015Y-9516436D01*
X14816015Y-9516436D02*
X14816015Y-9535484D01*
X14949348Y-9335484D02*
X14968396Y-9335484D01*
X14968396Y-9335484D02*
X14987444Y-9345008D01*
X14987444Y-9345008D02*
X14996967Y-9354531D01*
X14996967Y-9354531D02*
X15006491Y-9373579D01*
X15006491Y-9373579D02*
X15016015Y-9411674D01*
X15016015Y-9411674D02*
X15016015Y-9459293D01*
X15016015Y-9459293D02*
X15006491Y-9497389D01*
X15006491Y-9497389D02*
X14996967Y-9516436D01*
X14996967Y-9516436D02*
X14987444Y-9525960D01*
X14987444Y-9525960D02*
X14968396Y-9535484D01*
X14968396Y-9535484D02*
X14949348Y-9535484D01*
X14949348Y-9535484D02*
X14930301Y-9525960D01*
X14930301Y-9525960D02*
X14920777Y-9516436D01*
X14920777Y-9516436D02*
X14911253Y-9497389D01*
X14911253Y-9497389D02*
X14901729Y-9459293D01*
X14901729Y-9459293D02*
X14901729Y-9411674D01*
X14901729Y-9411674D02*
X14911253Y-9373579D01*
X14911253Y-9373579D02*
X14920777Y-9354531D01*
X14920777Y-9354531D02*
X14930301Y-9345008D01*
X14930301Y-9345008D02*
X14949348Y-9335484D01*
X15206491Y-9535484D02*
X15092206Y-9535484D01*
X15149348Y-9535484D02*
X15149348Y-9335484D01*
X15149348Y-9335484D02*
X15130301Y-9364055D01*
X15130301Y-9364055D02*
X15111253Y-9383103D01*
X15111253Y-9383103D02*
X15092206Y-9392627D01*
X15273158Y-9335484D02*
X15396967Y-9335484D01*
X15396967Y-9335484D02*
X15330301Y-9411674D01*
X15330301Y-9411674D02*
X15358872Y-9411674D01*
X15358872Y-9411674D02*
X15377920Y-9421198D01*
X15377920Y-9421198D02*
X15387444Y-9430722D01*
X15387444Y-9430722D02*
X15396967Y-9449770D01*
X15396967Y-9449770D02*
X15396967Y-9497389D01*
X15396967Y-9497389D02*
X15387444Y-9516436D01*
X15387444Y-9516436D02*
X15377920Y-9525960D01*
X15377920Y-9525960D02*
X15358872Y-9535484D01*
X15358872Y-9535484D02*
X15301729Y-9535484D01*
X15301729Y-9535484D02*
X15282682Y-9525960D01*
X15282682Y-9525960D02*
X15273158Y-9516436D01*
X15511253Y-9421198D02*
X15492206Y-9411674D01*
X15492206Y-9411674D02*
X15482682Y-9402150D01*
X15482682Y-9402150D02*
X15473158Y-9383103D01*
X15473158Y-9383103D02*
X15473158Y-9373579D01*
X15473158Y-9373579D02*
X15482682Y-9354531D01*
X15482682Y-9354531D02*
X15492206Y-9345008D01*
X15492206Y-9345008D02*
X15511253Y-9335484D01*
X15511253Y-9335484D02*
X15549348Y-9335484D01*
X15549348Y-9335484D02*
X15568396Y-9345008D01*
X15568396Y-9345008D02*
X15577920Y-9354531D01*
X15577920Y-9354531D02*
X15587444Y-9373579D01*
X15587444Y-9373579D02*
X15587444Y-9383103D01*
X15587444Y-9383103D02*
X15577920Y-9402150D01*
X15577920Y-9402150D02*
X15568396Y-9411674D01*
X15568396Y-9411674D02*
X15549348Y-9421198D01*
X15549348Y-9421198D02*
X15511253Y-9421198D01*
X15511253Y-9421198D02*
X15492206Y-9430722D01*
X15492206Y-9430722D02*
X15482682Y-9440246D01*
X15482682Y-9440246D02*
X15473158Y-9459293D01*
X15473158Y-9459293D02*
X15473158Y-9497389D01*
X15473158Y-9497389D02*
X15482682Y-9516436D01*
X15482682Y-9516436D02*
X15492206Y-9525960D01*
X15492206Y-9525960D02*
X15511253Y-9535484D01*
X15511253Y-9535484D02*
X15549348Y-9535484D01*
X15549348Y-9535484D02*
X15568396Y-9525960D01*
X15568396Y-9525960D02*
X15577920Y-9516436D01*
X15577920Y-9516436D02*
X15587444Y-9497389D01*
X15587444Y-9497389D02*
X15587444Y-9459293D01*
X15587444Y-9459293D02*
X15577920Y-9440246D01*
X15577920Y-9440246D02*
X15568396Y-9430722D01*
X15568396Y-9430722D02*
X15549348Y-9421198D01*
X15663634Y-9335484D02*
X15663634Y-9373579D01*
X15739825Y-9335484D02*
X15739825Y-9373579D01*
X16035063Y-9611674D02*
X16025539Y-9602150D01*
X16025539Y-9602150D02*
X16006491Y-9573579D01*
X16006491Y-9573579D02*
X15996968Y-9554531D01*
X15996968Y-9554531D02*
X15987444Y-9525960D01*
X15987444Y-9525960D02*
X15977920Y-9478341D01*
X15977920Y-9478341D02*
X15977920Y-9440246D01*
X15977920Y-9440246D02*
X15987444Y-9392627D01*
X15987444Y-9392627D02*
X15996968Y-9364055D01*
X15996968Y-9364055D02*
X16006491Y-9345008D01*
X16006491Y-9345008D02*
X16025539Y-9316436D01*
X16025539Y-9316436D02*
X16035063Y-9306912D01*
X16120777Y-9535484D02*
X16158872Y-9535484D01*
X16158872Y-9535484D02*
X16177920Y-9525960D01*
X16177920Y-9525960D02*
X16187444Y-9516436D01*
X16187444Y-9516436D02*
X16206491Y-9487865D01*
X16206491Y-9487865D02*
X16216015Y-9449770D01*
X16216015Y-9449770D02*
X16216015Y-9373579D01*
X16216015Y-9373579D02*
X16206491Y-9354531D01*
X16206491Y-9354531D02*
X16196968Y-9345008D01*
X16196968Y-9345008D02*
X16177920Y-9335484D01*
X16177920Y-9335484D02*
X16139825Y-9335484D01*
X16139825Y-9335484D02*
X16120777Y-9345008D01*
X16120777Y-9345008D02*
X16111253Y-9354531D01*
X16111253Y-9354531D02*
X16101729Y-9373579D01*
X16101729Y-9373579D02*
X16101729Y-9421198D01*
X16101729Y-9421198D02*
X16111253Y-9440246D01*
X16111253Y-9440246D02*
X16120777Y-9449770D01*
X16120777Y-9449770D02*
X16139825Y-9459293D01*
X16139825Y-9459293D02*
X16177920Y-9459293D01*
X16177920Y-9459293D02*
X16196968Y-9449770D01*
X16196968Y-9449770D02*
X16206491Y-9440246D01*
X16206491Y-9440246D02*
X16216015Y-9421198D01*
X16454110Y-9535484D02*
X16454110Y-9335484D01*
X16539825Y-9535484D02*
X16539825Y-9430722D01*
X16539825Y-9430722D02*
X16530301Y-9411674D01*
X16530301Y-9411674D02*
X16511253Y-9402150D01*
X16511253Y-9402150D02*
X16482682Y-9402150D01*
X16482682Y-9402150D02*
X16463634Y-9411674D01*
X16463634Y-9411674D02*
X16454110Y-9421198D01*
X16663634Y-9535484D02*
X16644587Y-9525960D01*
X16644587Y-9525960D02*
X16635063Y-9516436D01*
X16635063Y-9516436D02*
X16625539Y-9497389D01*
X16625539Y-9497389D02*
X16625539Y-9440246D01*
X16625539Y-9440246D02*
X16635063Y-9421198D01*
X16635063Y-9421198D02*
X16644587Y-9411674D01*
X16644587Y-9411674D02*
X16663634Y-9402150D01*
X16663634Y-9402150D02*
X16692206Y-9402150D01*
X16692206Y-9402150D02*
X16711253Y-9411674D01*
X16711253Y-9411674D02*
X16720777Y-9421198D01*
X16720777Y-9421198D02*
X16730301Y-9440246D01*
X16730301Y-9440246D02*
X16730301Y-9497389D01*
X16730301Y-9497389D02*
X16720777Y-9516436D01*
X16720777Y-9516436D02*
X16711253Y-9525960D01*
X16711253Y-9525960D02*
X16692206Y-9535484D01*
X16692206Y-9535484D02*
X16663634Y-9535484D01*
X16844587Y-9535484D02*
X16825539Y-9525960D01*
X16825539Y-9525960D02*
X16816015Y-9506912D01*
X16816015Y-9506912D02*
X16816015Y-9335484D01*
X16996968Y-9525960D02*
X16977920Y-9535484D01*
X16977920Y-9535484D02*
X16939825Y-9535484D01*
X16939825Y-9535484D02*
X16920777Y-9525960D01*
X16920777Y-9525960D02*
X16911253Y-9506912D01*
X16911253Y-9506912D02*
X16911253Y-9430722D01*
X16911253Y-9430722D02*
X16920777Y-9411674D01*
X16920777Y-9411674D02*
X16939825Y-9402150D01*
X16939825Y-9402150D02*
X16977920Y-9402150D01*
X16977920Y-9402150D02*
X16996968Y-9411674D01*
X16996968Y-9411674D02*
X17006492Y-9430722D01*
X17006492Y-9430722D02*
X17006492Y-9449770D01*
X17006492Y-9449770D02*
X16911253Y-9468817D01*
X17082682Y-9525960D02*
X17101730Y-9535484D01*
X17101730Y-9535484D02*
X17139825Y-9535484D01*
X17139825Y-9535484D02*
X17158873Y-9525960D01*
X17158873Y-9525960D02*
X17168396Y-9506912D01*
X17168396Y-9506912D02*
X17168396Y-9497389D01*
X17168396Y-9497389D02*
X17158873Y-9478341D01*
X17158873Y-9478341D02*
X17139825Y-9468817D01*
X17139825Y-9468817D02*
X17111253Y-9468817D01*
X17111253Y-9468817D02*
X17092206Y-9459293D01*
X17092206Y-9459293D02*
X17082682Y-9440246D01*
X17082682Y-9440246D02*
X17082682Y-9430722D01*
X17082682Y-9430722D02*
X17092206Y-9411674D01*
X17092206Y-9411674D02*
X17111253Y-9402150D01*
X17111253Y-9402150D02*
X17139825Y-9402150D01*
X17139825Y-9402150D02*
X17158873Y-9411674D01*
X17235063Y-9611674D02*
X17244587Y-9602150D01*
X17244587Y-9602150D02*
X17263634Y-9573579D01*
X17263634Y-9573579D02*
X17273158Y-9554531D01*
X17273158Y-9554531D02*
X17282682Y-9525960D01*
X17282682Y-9525960D02*
X17292206Y-9478341D01*
X17292206Y-9478341D02*
X17292206Y-9440246D01*
X17292206Y-9440246D02*
X17282682Y-9392627D01*
X17282682Y-9392627D02*
X17273158Y-9364055D01*
X17273158Y-9364055D02*
X17263634Y-9345008D01*
X17263634Y-9345008D02*
X17244587Y-9316436D01*
X17244587Y-9316436D02*
X17235063Y-9306912D01*
D14*
X12440000Y-9688000D02*
X12440000Y-9728000D01*
X12420000Y-9708000D02*
X12460000Y-9708000D01*
D11*
X12758872Y-9599484D02*
X12777920Y-9599484D01*
X12777920Y-9599484D02*
X12796967Y-9609008D01*
X12796967Y-9609008D02*
X12806491Y-9618531D01*
X12806491Y-9618531D02*
X12816015Y-9637579D01*
X12816015Y-9637579D02*
X12825539Y-9675674D01*
X12825539Y-9675674D02*
X12825539Y-9723293D01*
X12825539Y-9723293D02*
X12816015Y-9761389D01*
X12816015Y-9761389D02*
X12806491Y-9780436D01*
X12806491Y-9780436D02*
X12796967Y-9789960D01*
X12796967Y-9789960D02*
X12777920Y-9799484D01*
X12777920Y-9799484D02*
X12758872Y-9799484D01*
X12758872Y-9799484D02*
X12739824Y-9789960D01*
X12739824Y-9789960D02*
X12730301Y-9780436D01*
X12730301Y-9780436D02*
X12720777Y-9761389D01*
X12720777Y-9761389D02*
X12711253Y-9723293D01*
X12711253Y-9723293D02*
X12711253Y-9675674D01*
X12711253Y-9675674D02*
X12720777Y-9637579D01*
X12720777Y-9637579D02*
X12730301Y-9618531D01*
X12730301Y-9618531D02*
X12739824Y-9609008D01*
X12739824Y-9609008D02*
X12758872Y-9599484D01*
X12911253Y-9780436D02*
X12920777Y-9789960D01*
X12920777Y-9789960D02*
X12911253Y-9799484D01*
X12911253Y-9799484D02*
X12901729Y-9789960D01*
X12901729Y-9789960D02*
X12911253Y-9780436D01*
X12911253Y-9780436D02*
X12911253Y-9799484D01*
X13092205Y-9666150D02*
X13092205Y-9799484D01*
X13044586Y-9589960D02*
X12996967Y-9732817D01*
X12996967Y-9732817D02*
X13120777Y-9732817D01*
X13235062Y-9599484D02*
X13254110Y-9599484D01*
X13254110Y-9599484D02*
X13273158Y-9609008D01*
X13273158Y-9609008D02*
X13282682Y-9618531D01*
X13282682Y-9618531D02*
X13292205Y-9637579D01*
X13292205Y-9637579D02*
X13301729Y-9675674D01*
X13301729Y-9675674D02*
X13301729Y-9723293D01*
X13301729Y-9723293D02*
X13292205Y-9761389D01*
X13292205Y-9761389D02*
X13282682Y-9780436D01*
X13282682Y-9780436D02*
X13273158Y-9789960D01*
X13273158Y-9789960D02*
X13254110Y-9799484D01*
X13254110Y-9799484D02*
X13235062Y-9799484D01*
X13235062Y-9799484D02*
X13216015Y-9789960D01*
X13216015Y-9789960D02*
X13206491Y-9780436D01*
X13206491Y-9780436D02*
X13196967Y-9761389D01*
X13196967Y-9761389D02*
X13187443Y-9723293D01*
X13187443Y-9723293D02*
X13187443Y-9675674D01*
X13187443Y-9675674D02*
X13196967Y-9637579D01*
X13196967Y-9637579D02*
X13206491Y-9618531D01*
X13206491Y-9618531D02*
X13216015Y-9609008D01*
X13216015Y-9609008D02*
X13235062Y-9599484D01*
X13425539Y-9599484D02*
X13444586Y-9599484D01*
X13444586Y-9599484D02*
X13463634Y-9609008D01*
X13463634Y-9609008D02*
X13473158Y-9618531D01*
X13473158Y-9618531D02*
X13482682Y-9637579D01*
X13482682Y-9637579D02*
X13492205Y-9675674D01*
X13492205Y-9675674D02*
X13492205Y-9723293D01*
X13492205Y-9723293D02*
X13482682Y-9761389D01*
X13482682Y-9761389D02*
X13473158Y-9780436D01*
X13473158Y-9780436D02*
X13463634Y-9789960D01*
X13463634Y-9789960D02*
X13444586Y-9799484D01*
X13444586Y-9799484D02*
X13425539Y-9799484D01*
X13425539Y-9799484D02*
X13406491Y-9789960D01*
X13406491Y-9789960D02*
X13396967Y-9780436D01*
X13396967Y-9780436D02*
X13387443Y-9761389D01*
X13387443Y-9761389D02*
X13377920Y-9723293D01*
X13377920Y-9723293D02*
X13377920Y-9675674D01*
X13377920Y-9675674D02*
X13387443Y-9637579D01*
X13387443Y-9637579D02*
X13396967Y-9618531D01*
X13396967Y-9618531D02*
X13406491Y-9609008D01*
X13406491Y-9609008D02*
X13425539Y-9599484D01*
X13577920Y-9799484D02*
X13577920Y-9666150D01*
X13577920Y-9685198D02*
X13587443Y-9675674D01*
X13587443Y-9675674D02*
X13606491Y-9666150D01*
X13606491Y-9666150D02*
X13635063Y-9666150D01*
X13635063Y-9666150D02*
X13654110Y-9675674D01*
X13654110Y-9675674D02*
X13663634Y-9694722D01*
X13663634Y-9694722D02*
X13663634Y-9799484D01*
X13663634Y-9694722D02*
X13673158Y-9675674D01*
X13673158Y-9675674D02*
X13692205Y-9666150D01*
X13692205Y-9666150D02*
X13720777Y-9666150D01*
X13720777Y-9666150D02*
X13739824Y-9675674D01*
X13739824Y-9675674D02*
X13749348Y-9694722D01*
X13749348Y-9694722D02*
X13749348Y-9799484D01*
X13844586Y-9799484D02*
X13844586Y-9666150D01*
X13844586Y-9685198D02*
X13854110Y-9675674D01*
X13854110Y-9675674D02*
X13873158Y-9666150D01*
X13873158Y-9666150D02*
X13901729Y-9666150D01*
X13901729Y-9666150D02*
X13920777Y-9675674D01*
X13920777Y-9675674D02*
X13930301Y-9694722D01*
X13930301Y-9694722D02*
X13930301Y-9799484D01*
X13930301Y-9694722D02*
X13939824Y-9675674D01*
X13939824Y-9675674D02*
X13958872Y-9666150D01*
X13958872Y-9666150D02*
X13987443Y-9666150D01*
X13987443Y-9666150D02*
X14006491Y-9675674D01*
X14006491Y-9675674D02*
X14016015Y-9694722D01*
X14016015Y-9694722D02*
X14016015Y-9799484D01*
X14406491Y-9589960D02*
X14235063Y-9847103D01*
X14663634Y-9599484D02*
X14682682Y-9599484D01*
X14682682Y-9599484D02*
X14701729Y-9609008D01*
X14701729Y-9609008D02*
X14711253Y-9618531D01*
X14711253Y-9618531D02*
X14720777Y-9637579D01*
X14720777Y-9637579D02*
X14730301Y-9675674D01*
X14730301Y-9675674D02*
X14730301Y-9723293D01*
X14730301Y-9723293D02*
X14720777Y-9761389D01*
X14720777Y-9761389D02*
X14711253Y-9780436D01*
X14711253Y-9780436D02*
X14701729Y-9789960D01*
X14701729Y-9789960D02*
X14682682Y-9799484D01*
X14682682Y-9799484D02*
X14663634Y-9799484D01*
X14663634Y-9799484D02*
X14644586Y-9789960D01*
X14644586Y-9789960D02*
X14635063Y-9780436D01*
X14635063Y-9780436D02*
X14625539Y-9761389D01*
X14625539Y-9761389D02*
X14616015Y-9723293D01*
X14616015Y-9723293D02*
X14616015Y-9675674D01*
X14616015Y-9675674D02*
X14625539Y-9637579D01*
X14625539Y-9637579D02*
X14635063Y-9618531D01*
X14635063Y-9618531D02*
X14644586Y-9609008D01*
X14644586Y-9609008D02*
X14663634Y-9599484D01*
X14816015Y-9780436D02*
X14825539Y-9789960D01*
X14825539Y-9789960D02*
X14816015Y-9799484D01*
X14816015Y-9799484D02*
X14806491Y-9789960D01*
X14806491Y-9789960D02*
X14816015Y-9780436D01*
X14816015Y-9780436D02*
X14816015Y-9799484D01*
X14949348Y-9599484D02*
X14968396Y-9599484D01*
X14968396Y-9599484D02*
X14987444Y-9609008D01*
X14987444Y-9609008D02*
X14996967Y-9618531D01*
X14996967Y-9618531D02*
X15006491Y-9637579D01*
X15006491Y-9637579D02*
X15016015Y-9675674D01*
X15016015Y-9675674D02*
X15016015Y-9723293D01*
X15016015Y-9723293D02*
X15006491Y-9761389D01*
X15006491Y-9761389D02*
X14996967Y-9780436D01*
X14996967Y-9780436D02*
X14987444Y-9789960D01*
X14987444Y-9789960D02*
X14968396Y-9799484D01*
X14968396Y-9799484D02*
X14949348Y-9799484D01*
X14949348Y-9799484D02*
X14930301Y-9789960D01*
X14930301Y-9789960D02*
X14920777Y-9780436D01*
X14920777Y-9780436D02*
X14911253Y-9761389D01*
X14911253Y-9761389D02*
X14901729Y-9723293D01*
X14901729Y-9723293D02*
X14901729Y-9675674D01*
X14901729Y-9675674D02*
X14911253Y-9637579D01*
X14911253Y-9637579D02*
X14920777Y-9618531D01*
X14920777Y-9618531D02*
X14930301Y-9609008D01*
X14930301Y-9609008D02*
X14949348Y-9599484D01*
X15206491Y-9799484D02*
X15092206Y-9799484D01*
X15149348Y-9799484D02*
X15149348Y-9599484D01*
X15149348Y-9599484D02*
X15130301Y-9628055D01*
X15130301Y-9628055D02*
X15111253Y-9647103D01*
X15111253Y-9647103D02*
X15092206Y-9656627D01*
X15387444Y-9599484D02*
X15292206Y-9599484D01*
X15292206Y-9599484D02*
X15282682Y-9694722D01*
X15282682Y-9694722D02*
X15292206Y-9685198D01*
X15292206Y-9685198D02*
X15311253Y-9675674D01*
X15311253Y-9675674D02*
X15358872Y-9675674D01*
X15358872Y-9675674D02*
X15377920Y-9685198D01*
X15377920Y-9685198D02*
X15387444Y-9694722D01*
X15387444Y-9694722D02*
X15396967Y-9713770D01*
X15396967Y-9713770D02*
X15396967Y-9761389D01*
X15396967Y-9761389D02*
X15387444Y-9780436D01*
X15387444Y-9780436D02*
X15377920Y-9789960D01*
X15377920Y-9789960D02*
X15358872Y-9799484D01*
X15358872Y-9799484D02*
X15311253Y-9799484D01*
X15311253Y-9799484D02*
X15292206Y-9789960D01*
X15292206Y-9789960D02*
X15282682Y-9780436D01*
X15463634Y-9599484D02*
X15596967Y-9599484D01*
X15596967Y-9599484D02*
X15511253Y-9799484D01*
X15663634Y-9599484D02*
X15663634Y-9637579D01*
X15739825Y-9599484D02*
X15739825Y-9637579D01*
X16035063Y-9875674D02*
X16025539Y-9866150D01*
X16025539Y-9866150D02*
X16006491Y-9837579D01*
X16006491Y-9837579D02*
X15996968Y-9818531D01*
X15996968Y-9818531D02*
X15987444Y-9789960D01*
X15987444Y-9789960D02*
X15977920Y-9742341D01*
X15977920Y-9742341D02*
X15977920Y-9704246D01*
X15977920Y-9704246D02*
X15987444Y-9656627D01*
X15987444Y-9656627D02*
X15996968Y-9628055D01*
X15996968Y-9628055D02*
X16006491Y-9609008D01*
X16006491Y-9609008D02*
X16025539Y-9580436D01*
X16025539Y-9580436D02*
X16035063Y-9570912D01*
X16092206Y-9599484D02*
X16216015Y-9599484D01*
X16216015Y-9599484D02*
X16149348Y-9675674D01*
X16149348Y-9675674D02*
X16177920Y-9675674D01*
X16177920Y-9675674D02*
X16196968Y-9685198D01*
X16196968Y-9685198D02*
X16206491Y-9694722D01*
X16206491Y-9694722D02*
X16216015Y-9713770D01*
X16216015Y-9713770D02*
X16216015Y-9761389D01*
X16216015Y-9761389D02*
X16206491Y-9780436D01*
X16206491Y-9780436D02*
X16196968Y-9789960D01*
X16196968Y-9789960D02*
X16177920Y-9799484D01*
X16177920Y-9799484D02*
X16120777Y-9799484D01*
X16120777Y-9799484D02*
X16101729Y-9789960D01*
X16101729Y-9789960D02*
X16092206Y-9780436D01*
X16406491Y-9799484D02*
X16292206Y-9799484D01*
X16349348Y-9799484D02*
X16349348Y-9599484D01*
X16349348Y-9599484D02*
X16330301Y-9628055D01*
X16330301Y-9628055D02*
X16311253Y-9647103D01*
X16311253Y-9647103D02*
X16292206Y-9656627D01*
X16644587Y-9799484D02*
X16644587Y-9599484D01*
X16730301Y-9799484D02*
X16730301Y-9694722D01*
X16730301Y-9694722D02*
X16720777Y-9675674D01*
X16720777Y-9675674D02*
X16701730Y-9666150D01*
X16701730Y-9666150D02*
X16673158Y-9666150D01*
X16673158Y-9666150D02*
X16654110Y-9675674D01*
X16654110Y-9675674D02*
X16644587Y-9685198D01*
X16854111Y-9799484D02*
X16835063Y-9789960D01*
X16835063Y-9789960D02*
X16825539Y-9780436D01*
X16825539Y-9780436D02*
X16816015Y-9761389D01*
X16816015Y-9761389D02*
X16816015Y-9704246D01*
X16816015Y-9704246D02*
X16825539Y-9685198D01*
X16825539Y-9685198D02*
X16835063Y-9675674D01*
X16835063Y-9675674D02*
X16854111Y-9666150D01*
X16854111Y-9666150D02*
X16882682Y-9666150D01*
X16882682Y-9666150D02*
X16901730Y-9675674D01*
X16901730Y-9675674D02*
X16911253Y-9685198D01*
X16911253Y-9685198D02*
X16920777Y-9704246D01*
X16920777Y-9704246D02*
X16920777Y-9761389D01*
X16920777Y-9761389D02*
X16911253Y-9780436D01*
X16911253Y-9780436D02*
X16901730Y-9789960D01*
X16901730Y-9789960D02*
X16882682Y-9799484D01*
X16882682Y-9799484D02*
X16854111Y-9799484D01*
X17035063Y-9799484D02*
X17016015Y-9789960D01*
X17016015Y-9789960D02*
X17006492Y-9770912D01*
X17006492Y-9770912D02*
X17006492Y-9599484D01*
X17187444Y-9789960D02*
X17168396Y-9799484D01*
X17168396Y-9799484D02*
X17130301Y-9799484D01*
X17130301Y-9799484D02*
X17111253Y-9789960D01*
X17111253Y-9789960D02*
X17101730Y-9770912D01*
X17101730Y-9770912D02*
X17101730Y-9694722D01*
X17101730Y-9694722D02*
X17111253Y-9675674D01*
X17111253Y-9675674D02*
X17130301Y-9666150D01*
X17130301Y-9666150D02*
X17168396Y-9666150D01*
X17168396Y-9666150D02*
X17187444Y-9675674D01*
X17187444Y-9675674D02*
X17196968Y-9694722D01*
X17196968Y-9694722D02*
X17196968Y-9713770D01*
X17196968Y-9713770D02*
X17101730Y-9732817D01*
X17273158Y-9789960D02*
X17292206Y-9799484D01*
X17292206Y-9799484D02*
X17330301Y-9799484D01*
X17330301Y-9799484D02*
X17349349Y-9789960D01*
X17349349Y-9789960D02*
X17358873Y-9770912D01*
X17358873Y-9770912D02*
X17358873Y-9761389D01*
X17358873Y-9761389D02*
X17349349Y-9742341D01*
X17349349Y-9742341D02*
X17330301Y-9732817D01*
X17330301Y-9732817D02*
X17301730Y-9732817D01*
X17301730Y-9732817D02*
X17282682Y-9723293D01*
X17282682Y-9723293D02*
X17273158Y-9704246D01*
X17273158Y-9704246D02*
X17273158Y-9694722D01*
X17273158Y-9694722D02*
X17282682Y-9675674D01*
X17282682Y-9675674D02*
X17301730Y-9666150D01*
X17301730Y-9666150D02*
X17330301Y-9666150D01*
X17330301Y-9666150D02*
X17349349Y-9675674D01*
X17425539Y-9875674D02*
X17435063Y-9866150D01*
X17435063Y-9866150D02*
X17454111Y-9837579D01*
X17454111Y-9837579D02*
X17463634Y-9818531D01*
X17463634Y-9818531D02*
X17473158Y-9789960D01*
X17473158Y-9789960D02*
X17482682Y-9742341D01*
X17482682Y-9742341D02*
X17482682Y-9704246D01*
X17482682Y-9704246D02*
X17473158Y-9656627D01*
X17473158Y-9656627D02*
X17463634Y-9628055D01*
X17463634Y-9628055D02*
X17454111Y-9609008D01*
X17454111Y-9609008D02*
X17435063Y-9580436D01*
X17435063Y-9580436D02*
X17425539Y-9570912D01*
D14*
X12454142Y-9986142D02*
X12454142Y-9957858D01*
X12425858Y-9957858D01*
X12425858Y-9986142D01*
X12454142Y-9986142D01*
D11*
X12758872Y-9863484D02*
X12777920Y-9863484D01*
X12777920Y-9863484D02*
X12796967Y-9873008D01*
X12796967Y-9873008D02*
X12806491Y-9882531D01*
X12806491Y-9882531D02*
X12816015Y-9901579D01*
X12816015Y-9901579D02*
X12825539Y-9939674D01*
X12825539Y-9939674D02*
X12825539Y-9987293D01*
X12825539Y-9987293D02*
X12816015Y-10025389D01*
X12816015Y-10025389D02*
X12806491Y-10044436D01*
X12806491Y-10044436D02*
X12796967Y-10053960D01*
X12796967Y-10053960D02*
X12777920Y-10063484D01*
X12777920Y-10063484D02*
X12758872Y-10063484D01*
X12758872Y-10063484D02*
X12739824Y-10053960D01*
X12739824Y-10053960D02*
X12730301Y-10044436D01*
X12730301Y-10044436D02*
X12720777Y-10025389D01*
X12720777Y-10025389D02*
X12711253Y-9987293D01*
X12711253Y-9987293D02*
X12711253Y-9939674D01*
X12711253Y-9939674D02*
X12720777Y-9901579D01*
X12720777Y-9901579D02*
X12730301Y-9882531D01*
X12730301Y-9882531D02*
X12739824Y-9873008D01*
X12739824Y-9873008D02*
X12758872Y-9863484D01*
X12911253Y-10044436D02*
X12920777Y-10053960D01*
X12920777Y-10053960D02*
X12911253Y-10063484D01*
X12911253Y-10063484D02*
X12901729Y-10053960D01*
X12901729Y-10053960D02*
X12911253Y-10044436D01*
X12911253Y-10044436D02*
X12911253Y-10063484D01*
X13092205Y-9930150D02*
X13092205Y-10063484D01*
X13044586Y-9853960D02*
X12996967Y-9996817D01*
X12996967Y-9996817D02*
X13120777Y-9996817D01*
X13235062Y-9863484D02*
X13254110Y-9863484D01*
X13254110Y-9863484D02*
X13273158Y-9873008D01*
X13273158Y-9873008D02*
X13282682Y-9882531D01*
X13282682Y-9882531D02*
X13292205Y-9901579D01*
X13292205Y-9901579D02*
X13301729Y-9939674D01*
X13301729Y-9939674D02*
X13301729Y-9987293D01*
X13301729Y-9987293D02*
X13292205Y-10025389D01*
X13292205Y-10025389D02*
X13282682Y-10044436D01*
X13282682Y-10044436D02*
X13273158Y-10053960D01*
X13273158Y-10053960D02*
X13254110Y-10063484D01*
X13254110Y-10063484D02*
X13235062Y-10063484D01*
X13235062Y-10063484D02*
X13216015Y-10053960D01*
X13216015Y-10053960D02*
X13206491Y-10044436D01*
X13206491Y-10044436D02*
X13196967Y-10025389D01*
X13196967Y-10025389D02*
X13187443Y-9987293D01*
X13187443Y-9987293D02*
X13187443Y-9939674D01*
X13187443Y-9939674D02*
X13196967Y-9901579D01*
X13196967Y-9901579D02*
X13206491Y-9882531D01*
X13206491Y-9882531D02*
X13216015Y-9873008D01*
X13216015Y-9873008D02*
X13235062Y-9863484D01*
X13425539Y-9863484D02*
X13444586Y-9863484D01*
X13444586Y-9863484D02*
X13463634Y-9873008D01*
X13463634Y-9873008D02*
X13473158Y-9882531D01*
X13473158Y-9882531D02*
X13482682Y-9901579D01*
X13482682Y-9901579D02*
X13492205Y-9939674D01*
X13492205Y-9939674D02*
X13492205Y-9987293D01*
X13492205Y-9987293D02*
X13482682Y-10025389D01*
X13482682Y-10025389D02*
X13473158Y-10044436D01*
X13473158Y-10044436D02*
X13463634Y-10053960D01*
X13463634Y-10053960D02*
X13444586Y-10063484D01*
X13444586Y-10063484D02*
X13425539Y-10063484D01*
X13425539Y-10063484D02*
X13406491Y-10053960D01*
X13406491Y-10053960D02*
X13396967Y-10044436D01*
X13396967Y-10044436D02*
X13387443Y-10025389D01*
X13387443Y-10025389D02*
X13377920Y-9987293D01*
X13377920Y-9987293D02*
X13377920Y-9939674D01*
X13377920Y-9939674D02*
X13387443Y-9901579D01*
X13387443Y-9901579D02*
X13396967Y-9882531D01*
X13396967Y-9882531D02*
X13406491Y-9873008D01*
X13406491Y-9873008D02*
X13425539Y-9863484D01*
X13577920Y-10063484D02*
X13577920Y-9930150D01*
X13577920Y-9949198D02*
X13587443Y-9939674D01*
X13587443Y-9939674D02*
X13606491Y-9930150D01*
X13606491Y-9930150D02*
X13635063Y-9930150D01*
X13635063Y-9930150D02*
X13654110Y-9939674D01*
X13654110Y-9939674D02*
X13663634Y-9958722D01*
X13663634Y-9958722D02*
X13663634Y-10063484D01*
X13663634Y-9958722D02*
X13673158Y-9939674D01*
X13673158Y-9939674D02*
X13692205Y-9930150D01*
X13692205Y-9930150D02*
X13720777Y-9930150D01*
X13720777Y-9930150D02*
X13739824Y-9939674D01*
X13739824Y-9939674D02*
X13749348Y-9958722D01*
X13749348Y-9958722D02*
X13749348Y-10063484D01*
X13844586Y-10063484D02*
X13844586Y-9930150D01*
X13844586Y-9949198D02*
X13854110Y-9939674D01*
X13854110Y-9939674D02*
X13873158Y-9930150D01*
X13873158Y-9930150D02*
X13901729Y-9930150D01*
X13901729Y-9930150D02*
X13920777Y-9939674D01*
X13920777Y-9939674D02*
X13930301Y-9958722D01*
X13930301Y-9958722D02*
X13930301Y-10063484D01*
X13930301Y-9958722D02*
X13939824Y-9939674D01*
X13939824Y-9939674D02*
X13958872Y-9930150D01*
X13958872Y-9930150D02*
X13987443Y-9930150D01*
X13987443Y-9930150D02*
X14006491Y-9939674D01*
X14006491Y-9939674D02*
X14016015Y-9958722D01*
X14016015Y-9958722D02*
X14016015Y-10063484D01*
X14406491Y-9853960D02*
X14235063Y-10111103D01*
X14663634Y-9863484D02*
X14682682Y-9863484D01*
X14682682Y-9863484D02*
X14701729Y-9873008D01*
X14701729Y-9873008D02*
X14711253Y-9882531D01*
X14711253Y-9882531D02*
X14720777Y-9901579D01*
X14720777Y-9901579D02*
X14730301Y-9939674D01*
X14730301Y-9939674D02*
X14730301Y-9987293D01*
X14730301Y-9987293D02*
X14720777Y-10025389D01*
X14720777Y-10025389D02*
X14711253Y-10044436D01*
X14711253Y-10044436D02*
X14701729Y-10053960D01*
X14701729Y-10053960D02*
X14682682Y-10063484D01*
X14682682Y-10063484D02*
X14663634Y-10063484D01*
X14663634Y-10063484D02*
X14644586Y-10053960D01*
X14644586Y-10053960D02*
X14635063Y-10044436D01*
X14635063Y-10044436D02*
X14625539Y-10025389D01*
X14625539Y-10025389D02*
X14616015Y-9987293D01*
X14616015Y-9987293D02*
X14616015Y-9939674D01*
X14616015Y-9939674D02*
X14625539Y-9901579D01*
X14625539Y-9901579D02*
X14635063Y-9882531D01*
X14635063Y-9882531D02*
X14644586Y-9873008D01*
X14644586Y-9873008D02*
X14663634Y-9863484D01*
X14816015Y-10044436D02*
X14825539Y-10053960D01*
X14825539Y-10053960D02*
X14816015Y-10063484D01*
X14816015Y-10063484D02*
X14806491Y-10053960D01*
X14806491Y-10053960D02*
X14816015Y-10044436D01*
X14816015Y-10044436D02*
X14816015Y-10063484D01*
X14949348Y-9863484D02*
X14968396Y-9863484D01*
X14968396Y-9863484D02*
X14987444Y-9873008D01*
X14987444Y-9873008D02*
X14996967Y-9882531D01*
X14996967Y-9882531D02*
X15006491Y-9901579D01*
X15006491Y-9901579D02*
X15016015Y-9939674D01*
X15016015Y-9939674D02*
X15016015Y-9987293D01*
X15016015Y-9987293D02*
X15006491Y-10025389D01*
X15006491Y-10025389D02*
X14996967Y-10044436D01*
X14996967Y-10044436D02*
X14987444Y-10053960D01*
X14987444Y-10053960D02*
X14968396Y-10063484D01*
X14968396Y-10063484D02*
X14949348Y-10063484D01*
X14949348Y-10063484D02*
X14930301Y-10053960D01*
X14930301Y-10053960D02*
X14920777Y-10044436D01*
X14920777Y-10044436D02*
X14911253Y-10025389D01*
X14911253Y-10025389D02*
X14901729Y-9987293D01*
X14901729Y-9987293D02*
X14901729Y-9939674D01*
X14901729Y-9939674D02*
X14911253Y-9901579D01*
X14911253Y-9901579D02*
X14920777Y-9882531D01*
X14920777Y-9882531D02*
X14930301Y-9873008D01*
X14930301Y-9873008D02*
X14949348Y-9863484D01*
X15206491Y-10063484D02*
X15092206Y-10063484D01*
X15149348Y-10063484D02*
X15149348Y-9863484D01*
X15149348Y-9863484D02*
X15130301Y-9892055D01*
X15130301Y-9892055D02*
X15111253Y-9911103D01*
X15111253Y-9911103D02*
X15092206Y-9920627D01*
X15387444Y-9863484D02*
X15292206Y-9863484D01*
X15292206Y-9863484D02*
X15282682Y-9958722D01*
X15282682Y-9958722D02*
X15292206Y-9949198D01*
X15292206Y-9949198D02*
X15311253Y-9939674D01*
X15311253Y-9939674D02*
X15358872Y-9939674D01*
X15358872Y-9939674D02*
X15377920Y-9949198D01*
X15377920Y-9949198D02*
X15387444Y-9958722D01*
X15387444Y-9958722D02*
X15396967Y-9977770D01*
X15396967Y-9977770D02*
X15396967Y-10025389D01*
X15396967Y-10025389D02*
X15387444Y-10044436D01*
X15387444Y-10044436D02*
X15377920Y-10053960D01*
X15377920Y-10053960D02*
X15358872Y-10063484D01*
X15358872Y-10063484D02*
X15311253Y-10063484D01*
X15311253Y-10063484D02*
X15292206Y-10053960D01*
X15292206Y-10053960D02*
X15282682Y-10044436D01*
X15463634Y-9863484D02*
X15596967Y-9863484D01*
X15596967Y-9863484D02*
X15511253Y-10063484D01*
X15663634Y-9863484D02*
X15663634Y-9901579D01*
X15739825Y-9863484D02*
X15739825Y-9901579D01*
X16035063Y-10139674D02*
X16025539Y-10130150D01*
X16025539Y-10130150D02*
X16006491Y-10101579D01*
X16006491Y-10101579D02*
X15996968Y-10082531D01*
X15996968Y-10082531D02*
X15987444Y-10053960D01*
X15987444Y-10053960D02*
X15977920Y-10006341D01*
X15977920Y-10006341D02*
X15977920Y-9968246D01*
X15977920Y-9968246D02*
X15987444Y-9920627D01*
X15987444Y-9920627D02*
X15996968Y-9892055D01*
X15996968Y-9892055D02*
X16006491Y-9873008D01*
X16006491Y-9873008D02*
X16025539Y-9844436D01*
X16025539Y-9844436D02*
X16035063Y-9834912D01*
X16092206Y-9863484D02*
X16216015Y-9863484D01*
X16216015Y-9863484D02*
X16149348Y-9939674D01*
X16149348Y-9939674D02*
X16177920Y-9939674D01*
X16177920Y-9939674D02*
X16196968Y-9949198D01*
X16196968Y-9949198D02*
X16206491Y-9958722D01*
X16206491Y-9958722D02*
X16216015Y-9977770D01*
X16216015Y-9977770D02*
X16216015Y-10025389D01*
X16216015Y-10025389D02*
X16206491Y-10044436D01*
X16206491Y-10044436D02*
X16196968Y-10053960D01*
X16196968Y-10053960D02*
X16177920Y-10063484D01*
X16177920Y-10063484D02*
X16120777Y-10063484D01*
X16120777Y-10063484D02*
X16101729Y-10053960D01*
X16101729Y-10053960D02*
X16092206Y-10044436D01*
X16292206Y-9882531D02*
X16301729Y-9873008D01*
X16301729Y-9873008D02*
X16320777Y-9863484D01*
X16320777Y-9863484D02*
X16368396Y-9863484D01*
X16368396Y-9863484D02*
X16387444Y-9873008D01*
X16387444Y-9873008D02*
X16396968Y-9882531D01*
X16396968Y-9882531D02*
X16406491Y-9901579D01*
X16406491Y-9901579D02*
X16406491Y-9920627D01*
X16406491Y-9920627D02*
X16396968Y-9949198D01*
X16396968Y-9949198D02*
X16282682Y-10063484D01*
X16282682Y-10063484D02*
X16406491Y-10063484D01*
X16644587Y-10063484D02*
X16644587Y-9863484D01*
X16730301Y-10063484D02*
X16730301Y-9958722D01*
X16730301Y-9958722D02*
X16720777Y-9939674D01*
X16720777Y-9939674D02*
X16701730Y-9930150D01*
X16701730Y-9930150D02*
X16673158Y-9930150D01*
X16673158Y-9930150D02*
X16654110Y-9939674D01*
X16654110Y-9939674D02*
X16644587Y-9949198D01*
X16854111Y-10063484D02*
X16835063Y-10053960D01*
X16835063Y-10053960D02*
X16825539Y-10044436D01*
X16825539Y-10044436D02*
X16816015Y-10025389D01*
X16816015Y-10025389D02*
X16816015Y-9968246D01*
X16816015Y-9968246D02*
X16825539Y-9949198D01*
X16825539Y-9949198D02*
X16835063Y-9939674D01*
X16835063Y-9939674D02*
X16854111Y-9930150D01*
X16854111Y-9930150D02*
X16882682Y-9930150D01*
X16882682Y-9930150D02*
X16901730Y-9939674D01*
X16901730Y-9939674D02*
X16911253Y-9949198D01*
X16911253Y-9949198D02*
X16920777Y-9968246D01*
X16920777Y-9968246D02*
X16920777Y-10025389D01*
X16920777Y-10025389D02*
X16911253Y-10044436D01*
X16911253Y-10044436D02*
X16901730Y-10053960D01*
X16901730Y-10053960D02*
X16882682Y-10063484D01*
X16882682Y-10063484D02*
X16854111Y-10063484D01*
X17035063Y-10063484D02*
X17016015Y-10053960D01*
X17016015Y-10053960D02*
X17006492Y-10034912D01*
X17006492Y-10034912D02*
X17006492Y-9863484D01*
X17187444Y-10053960D02*
X17168396Y-10063484D01*
X17168396Y-10063484D02*
X17130301Y-10063484D01*
X17130301Y-10063484D02*
X17111253Y-10053960D01*
X17111253Y-10053960D02*
X17101730Y-10034912D01*
X17101730Y-10034912D02*
X17101730Y-9958722D01*
X17101730Y-9958722D02*
X17111253Y-9939674D01*
X17111253Y-9939674D02*
X17130301Y-9930150D01*
X17130301Y-9930150D02*
X17168396Y-9930150D01*
X17168396Y-9930150D02*
X17187444Y-9939674D01*
X17187444Y-9939674D02*
X17196968Y-9958722D01*
X17196968Y-9958722D02*
X17196968Y-9977770D01*
X17196968Y-9977770D02*
X17101730Y-9996817D01*
X17273158Y-10053960D02*
X17292206Y-10063484D01*
X17292206Y-10063484D02*
X17330301Y-10063484D01*
X17330301Y-10063484D02*
X17349349Y-10053960D01*
X17349349Y-10053960D02*
X17358873Y-10034912D01*
X17358873Y-10034912D02*
X17358873Y-10025389D01*
X17358873Y-10025389D02*
X17349349Y-10006341D01*
X17349349Y-10006341D02*
X17330301Y-9996817D01*
X17330301Y-9996817D02*
X17301730Y-9996817D01*
X17301730Y-9996817D02*
X17282682Y-9987293D01*
X17282682Y-9987293D02*
X17273158Y-9968246D01*
X17273158Y-9968246D02*
X17273158Y-9958722D01*
X17273158Y-9958722D02*
X17282682Y-9939674D01*
X17282682Y-9939674D02*
X17301730Y-9930150D01*
X17301730Y-9930150D02*
X17330301Y-9930150D01*
X17330301Y-9930150D02*
X17349349Y-9939674D01*
X17425539Y-10139674D02*
X17435063Y-10130150D01*
X17435063Y-10130150D02*
X17454111Y-10101579D01*
X17454111Y-10101579D02*
X17463634Y-10082531D01*
X17463634Y-10082531D02*
X17473158Y-10053960D01*
X17473158Y-10053960D02*
X17482682Y-10006341D01*
X17482682Y-10006341D02*
X17482682Y-9968246D01*
X17482682Y-9968246D02*
X17473158Y-9920627D01*
X17473158Y-9920627D02*
X17463634Y-9892055D01*
X17463634Y-9892055D02*
X17454111Y-9873008D01*
X17454111Y-9873008D02*
X17435063Y-9844436D01*
X17435063Y-9844436D02*
X17425539Y-9834912D01*
D15*
X12430000Y-10266000D02*
X12460000Y-10236000D01*
X12430000Y-10206000D01*
X12400000Y-10236000D01*
X12430000Y-10266000D01*
D11*
X12758872Y-10127484D02*
X12777920Y-10127484D01*
X12777920Y-10127484D02*
X12796967Y-10137008D01*
X12796967Y-10137008D02*
X12806491Y-10146531D01*
X12806491Y-10146531D02*
X12816015Y-10165579D01*
X12816015Y-10165579D02*
X12825539Y-10203674D01*
X12825539Y-10203674D02*
X12825539Y-10251293D01*
X12825539Y-10251293D02*
X12816015Y-10289389D01*
X12816015Y-10289389D02*
X12806491Y-10308436D01*
X12806491Y-10308436D02*
X12796967Y-10317960D01*
X12796967Y-10317960D02*
X12777920Y-10327484D01*
X12777920Y-10327484D02*
X12758872Y-10327484D01*
X12758872Y-10327484D02*
X12739824Y-10317960D01*
X12739824Y-10317960D02*
X12730301Y-10308436D01*
X12730301Y-10308436D02*
X12720777Y-10289389D01*
X12720777Y-10289389D02*
X12711253Y-10251293D01*
X12711253Y-10251293D02*
X12711253Y-10203674D01*
X12711253Y-10203674D02*
X12720777Y-10165579D01*
X12720777Y-10165579D02*
X12730301Y-10146531D01*
X12730301Y-10146531D02*
X12739824Y-10137008D01*
X12739824Y-10137008D02*
X12758872Y-10127484D01*
X12911253Y-10308436D02*
X12920777Y-10317960D01*
X12920777Y-10317960D02*
X12911253Y-10327484D01*
X12911253Y-10327484D02*
X12901729Y-10317960D01*
X12901729Y-10317960D02*
X12911253Y-10308436D01*
X12911253Y-10308436D02*
X12911253Y-10327484D01*
X13092205Y-10127484D02*
X13054110Y-10127484D01*
X13054110Y-10127484D02*
X13035062Y-10137008D01*
X13035062Y-10137008D02*
X13025539Y-10146531D01*
X13025539Y-10146531D02*
X13006491Y-10175103D01*
X13006491Y-10175103D02*
X12996967Y-10213198D01*
X12996967Y-10213198D02*
X12996967Y-10289389D01*
X12996967Y-10289389D02*
X13006491Y-10308436D01*
X13006491Y-10308436D02*
X13016015Y-10317960D01*
X13016015Y-10317960D02*
X13035062Y-10327484D01*
X13035062Y-10327484D02*
X13073158Y-10327484D01*
X13073158Y-10327484D02*
X13092205Y-10317960D01*
X13092205Y-10317960D02*
X13101729Y-10308436D01*
X13101729Y-10308436D02*
X13111253Y-10289389D01*
X13111253Y-10289389D02*
X13111253Y-10241770D01*
X13111253Y-10241770D02*
X13101729Y-10222722D01*
X13101729Y-10222722D02*
X13092205Y-10213198D01*
X13092205Y-10213198D02*
X13073158Y-10203674D01*
X13073158Y-10203674D02*
X13035062Y-10203674D01*
X13035062Y-10203674D02*
X13016015Y-10213198D01*
X13016015Y-10213198D02*
X13006491Y-10222722D01*
X13006491Y-10222722D02*
X12996967Y-10241770D01*
X13235062Y-10127484D02*
X13254110Y-10127484D01*
X13254110Y-10127484D02*
X13273158Y-10137008D01*
X13273158Y-10137008D02*
X13282682Y-10146531D01*
X13282682Y-10146531D02*
X13292205Y-10165579D01*
X13292205Y-10165579D02*
X13301729Y-10203674D01*
X13301729Y-10203674D02*
X13301729Y-10251293D01*
X13301729Y-10251293D02*
X13292205Y-10289389D01*
X13292205Y-10289389D02*
X13282682Y-10308436D01*
X13282682Y-10308436D02*
X13273158Y-10317960D01*
X13273158Y-10317960D02*
X13254110Y-10327484D01*
X13254110Y-10327484D02*
X13235062Y-10327484D01*
X13235062Y-10327484D02*
X13216015Y-10317960D01*
X13216015Y-10317960D02*
X13206491Y-10308436D01*
X13206491Y-10308436D02*
X13196967Y-10289389D01*
X13196967Y-10289389D02*
X13187443Y-10251293D01*
X13187443Y-10251293D02*
X13187443Y-10203674D01*
X13187443Y-10203674D02*
X13196967Y-10165579D01*
X13196967Y-10165579D02*
X13206491Y-10146531D01*
X13206491Y-10146531D02*
X13216015Y-10137008D01*
X13216015Y-10137008D02*
X13235062Y-10127484D01*
X13425539Y-10127484D02*
X13444586Y-10127484D01*
X13444586Y-10127484D02*
X13463634Y-10137008D01*
X13463634Y-10137008D02*
X13473158Y-10146531D01*
X13473158Y-10146531D02*
X13482682Y-10165579D01*
X13482682Y-10165579D02*
X13492205Y-10203674D01*
X13492205Y-10203674D02*
X13492205Y-10251293D01*
X13492205Y-10251293D02*
X13482682Y-10289389D01*
X13482682Y-10289389D02*
X13473158Y-10308436D01*
X13473158Y-10308436D02*
X13463634Y-10317960D01*
X13463634Y-10317960D02*
X13444586Y-10327484D01*
X13444586Y-10327484D02*
X13425539Y-10327484D01*
X13425539Y-10327484D02*
X13406491Y-10317960D01*
X13406491Y-10317960D02*
X13396967Y-10308436D01*
X13396967Y-10308436D02*
X13387443Y-10289389D01*
X13387443Y-10289389D02*
X13377920Y-10251293D01*
X13377920Y-10251293D02*
X13377920Y-10203674D01*
X13377920Y-10203674D02*
X13387443Y-10165579D01*
X13387443Y-10165579D02*
X13396967Y-10146531D01*
X13396967Y-10146531D02*
X13406491Y-10137008D01*
X13406491Y-10137008D02*
X13425539Y-10127484D01*
X13577920Y-10327484D02*
X13577920Y-10194150D01*
X13577920Y-10213198D02*
X13587443Y-10203674D01*
X13587443Y-10203674D02*
X13606491Y-10194150D01*
X13606491Y-10194150D02*
X13635063Y-10194150D01*
X13635063Y-10194150D02*
X13654110Y-10203674D01*
X13654110Y-10203674D02*
X13663634Y-10222722D01*
X13663634Y-10222722D02*
X13663634Y-10327484D01*
X13663634Y-10222722D02*
X13673158Y-10203674D01*
X13673158Y-10203674D02*
X13692205Y-10194150D01*
X13692205Y-10194150D02*
X13720777Y-10194150D01*
X13720777Y-10194150D02*
X13739824Y-10203674D01*
X13739824Y-10203674D02*
X13749348Y-10222722D01*
X13749348Y-10222722D02*
X13749348Y-10327484D01*
X13844586Y-10327484D02*
X13844586Y-10194150D01*
X13844586Y-10213198D02*
X13854110Y-10203674D01*
X13854110Y-10203674D02*
X13873158Y-10194150D01*
X13873158Y-10194150D02*
X13901729Y-10194150D01*
X13901729Y-10194150D02*
X13920777Y-10203674D01*
X13920777Y-10203674D02*
X13930301Y-10222722D01*
X13930301Y-10222722D02*
X13930301Y-10327484D01*
X13930301Y-10222722D02*
X13939824Y-10203674D01*
X13939824Y-10203674D02*
X13958872Y-10194150D01*
X13958872Y-10194150D02*
X13987443Y-10194150D01*
X13987443Y-10194150D02*
X14006491Y-10203674D01*
X14006491Y-10203674D02*
X14016015Y-10222722D01*
X14016015Y-10222722D02*
X14016015Y-10327484D01*
X14406491Y-10117960D02*
X14235063Y-10375103D01*
X14663634Y-10127484D02*
X14682682Y-10127484D01*
X14682682Y-10127484D02*
X14701729Y-10137008D01*
X14701729Y-10137008D02*
X14711253Y-10146531D01*
X14711253Y-10146531D02*
X14720777Y-10165579D01*
X14720777Y-10165579D02*
X14730301Y-10203674D01*
X14730301Y-10203674D02*
X14730301Y-10251293D01*
X14730301Y-10251293D02*
X14720777Y-10289389D01*
X14720777Y-10289389D02*
X14711253Y-10308436D01*
X14711253Y-10308436D02*
X14701729Y-10317960D01*
X14701729Y-10317960D02*
X14682682Y-10327484D01*
X14682682Y-10327484D02*
X14663634Y-10327484D01*
X14663634Y-10327484D02*
X14644586Y-10317960D01*
X14644586Y-10317960D02*
X14635063Y-10308436D01*
X14635063Y-10308436D02*
X14625539Y-10289389D01*
X14625539Y-10289389D02*
X14616015Y-10251293D01*
X14616015Y-10251293D02*
X14616015Y-10203674D01*
X14616015Y-10203674D02*
X14625539Y-10165579D01*
X14625539Y-10165579D02*
X14635063Y-10146531D01*
X14635063Y-10146531D02*
X14644586Y-10137008D01*
X14644586Y-10137008D02*
X14663634Y-10127484D01*
X14816015Y-10308436D02*
X14825539Y-10317960D01*
X14825539Y-10317960D02*
X14816015Y-10327484D01*
X14816015Y-10327484D02*
X14806491Y-10317960D01*
X14806491Y-10317960D02*
X14816015Y-10308436D01*
X14816015Y-10308436D02*
X14816015Y-10327484D01*
X14949348Y-10127484D02*
X14968396Y-10127484D01*
X14968396Y-10127484D02*
X14987444Y-10137008D01*
X14987444Y-10137008D02*
X14996967Y-10146531D01*
X14996967Y-10146531D02*
X15006491Y-10165579D01*
X15006491Y-10165579D02*
X15016015Y-10203674D01*
X15016015Y-10203674D02*
X15016015Y-10251293D01*
X15016015Y-10251293D02*
X15006491Y-10289389D01*
X15006491Y-10289389D02*
X14996967Y-10308436D01*
X14996967Y-10308436D02*
X14987444Y-10317960D01*
X14987444Y-10317960D02*
X14968396Y-10327484D01*
X14968396Y-10327484D02*
X14949348Y-10327484D01*
X14949348Y-10327484D02*
X14930301Y-10317960D01*
X14930301Y-10317960D02*
X14920777Y-10308436D01*
X14920777Y-10308436D02*
X14911253Y-10289389D01*
X14911253Y-10289389D02*
X14901729Y-10251293D01*
X14901729Y-10251293D02*
X14901729Y-10203674D01*
X14901729Y-10203674D02*
X14911253Y-10165579D01*
X14911253Y-10165579D02*
X14920777Y-10146531D01*
X14920777Y-10146531D02*
X14930301Y-10137008D01*
X14930301Y-10137008D02*
X14949348Y-10127484D01*
X15092206Y-10146531D02*
X15101729Y-10137008D01*
X15101729Y-10137008D02*
X15120777Y-10127484D01*
X15120777Y-10127484D02*
X15168396Y-10127484D01*
X15168396Y-10127484D02*
X15187444Y-10137008D01*
X15187444Y-10137008D02*
X15196967Y-10146531D01*
X15196967Y-10146531D02*
X15206491Y-10165579D01*
X15206491Y-10165579D02*
X15206491Y-10184627D01*
X15206491Y-10184627D02*
X15196967Y-10213198D01*
X15196967Y-10213198D02*
X15082682Y-10327484D01*
X15082682Y-10327484D02*
X15206491Y-10327484D01*
X15273158Y-10127484D02*
X15396967Y-10127484D01*
X15396967Y-10127484D02*
X15330301Y-10203674D01*
X15330301Y-10203674D02*
X15358872Y-10203674D01*
X15358872Y-10203674D02*
X15377920Y-10213198D01*
X15377920Y-10213198D02*
X15387444Y-10222722D01*
X15387444Y-10222722D02*
X15396967Y-10241770D01*
X15396967Y-10241770D02*
X15396967Y-10289389D01*
X15396967Y-10289389D02*
X15387444Y-10308436D01*
X15387444Y-10308436D02*
X15377920Y-10317960D01*
X15377920Y-10317960D02*
X15358872Y-10327484D01*
X15358872Y-10327484D02*
X15301729Y-10327484D01*
X15301729Y-10327484D02*
X15282682Y-10317960D01*
X15282682Y-10317960D02*
X15273158Y-10308436D01*
X15568396Y-10127484D02*
X15530301Y-10127484D01*
X15530301Y-10127484D02*
X15511253Y-10137008D01*
X15511253Y-10137008D02*
X15501729Y-10146531D01*
X15501729Y-10146531D02*
X15482682Y-10175103D01*
X15482682Y-10175103D02*
X15473158Y-10213198D01*
X15473158Y-10213198D02*
X15473158Y-10289389D01*
X15473158Y-10289389D02*
X15482682Y-10308436D01*
X15482682Y-10308436D02*
X15492206Y-10317960D01*
X15492206Y-10317960D02*
X15511253Y-10327484D01*
X15511253Y-10327484D02*
X15549348Y-10327484D01*
X15549348Y-10327484D02*
X15568396Y-10317960D01*
X15568396Y-10317960D02*
X15577920Y-10308436D01*
X15577920Y-10308436D02*
X15587444Y-10289389D01*
X15587444Y-10289389D02*
X15587444Y-10241770D01*
X15587444Y-10241770D02*
X15577920Y-10222722D01*
X15577920Y-10222722D02*
X15568396Y-10213198D01*
X15568396Y-10213198D02*
X15549348Y-10203674D01*
X15549348Y-10203674D02*
X15511253Y-10203674D01*
X15511253Y-10203674D02*
X15492206Y-10213198D01*
X15492206Y-10213198D02*
X15482682Y-10222722D01*
X15482682Y-10222722D02*
X15473158Y-10241770D01*
X15663634Y-10127484D02*
X15663634Y-10165579D01*
X15739825Y-10127484D02*
X15739825Y-10165579D01*
X16035063Y-10403674D02*
X16025539Y-10394150D01*
X16025539Y-10394150D02*
X16006491Y-10365579D01*
X16006491Y-10365579D02*
X15996968Y-10346531D01*
X15996968Y-10346531D02*
X15987444Y-10317960D01*
X15987444Y-10317960D02*
X15977920Y-10270341D01*
X15977920Y-10270341D02*
X15977920Y-10232246D01*
X15977920Y-10232246D02*
X15987444Y-10184627D01*
X15987444Y-10184627D02*
X15996968Y-10156055D01*
X15996968Y-10156055D02*
X16006491Y-10137008D01*
X16006491Y-10137008D02*
X16025539Y-10108436D01*
X16025539Y-10108436D02*
X16035063Y-10098912D01*
X16149348Y-10127484D02*
X16168396Y-10127484D01*
X16168396Y-10127484D02*
X16187444Y-10137008D01*
X16187444Y-10137008D02*
X16196968Y-10146531D01*
X16196968Y-10146531D02*
X16206491Y-10165579D01*
X16206491Y-10165579D02*
X16216015Y-10203674D01*
X16216015Y-10203674D02*
X16216015Y-10251293D01*
X16216015Y-10251293D02*
X16206491Y-10289389D01*
X16206491Y-10289389D02*
X16196968Y-10308436D01*
X16196968Y-10308436D02*
X16187444Y-10317960D01*
X16187444Y-10317960D02*
X16168396Y-10327484D01*
X16168396Y-10327484D02*
X16149348Y-10327484D01*
X16149348Y-10327484D02*
X16130301Y-10317960D01*
X16130301Y-10317960D02*
X16120777Y-10308436D01*
X16120777Y-10308436D02*
X16111253Y-10289389D01*
X16111253Y-10289389D02*
X16101729Y-10251293D01*
X16101729Y-10251293D02*
X16101729Y-10203674D01*
X16101729Y-10203674D02*
X16111253Y-10165579D01*
X16111253Y-10165579D02*
X16120777Y-10146531D01*
X16120777Y-10146531D02*
X16130301Y-10137008D01*
X16130301Y-10137008D02*
X16149348Y-10127484D01*
X16454110Y-10327484D02*
X16454110Y-10127484D01*
X16539825Y-10327484D02*
X16539825Y-10222722D01*
X16539825Y-10222722D02*
X16530301Y-10203674D01*
X16530301Y-10203674D02*
X16511253Y-10194150D01*
X16511253Y-10194150D02*
X16482682Y-10194150D01*
X16482682Y-10194150D02*
X16463634Y-10203674D01*
X16463634Y-10203674D02*
X16454110Y-10213198D01*
X16663634Y-10327484D02*
X16644587Y-10317960D01*
X16644587Y-10317960D02*
X16635063Y-10308436D01*
X16635063Y-10308436D02*
X16625539Y-10289389D01*
X16625539Y-10289389D02*
X16625539Y-10232246D01*
X16625539Y-10232246D02*
X16635063Y-10213198D01*
X16635063Y-10213198D02*
X16644587Y-10203674D01*
X16644587Y-10203674D02*
X16663634Y-10194150D01*
X16663634Y-10194150D02*
X16692206Y-10194150D01*
X16692206Y-10194150D02*
X16711253Y-10203674D01*
X16711253Y-10203674D02*
X16720777Y-10213198D01*
X16720777Y-10213198D02*
X16730301Y-10232246D01*
X16730301Y-10232246D02*
X16730301Y-10289389D01*
X16730301Y-10289389D02*
X16720777Y-10308436D01*
X16720777Y-10308436D02*
X16711253Y-10317960D01*
X16711253Y-10317960D02*
X16692206Y-10327484D01*
X16692206Y-10327484D02*
X16663634Y-10327484D01*
X16844587Y-10327484D02*
X16825539Y-10317960D01*
X16825539Y-10317960D02*
X16816015Y-10298912D01*
X16816015Y-10298912D02*
X16816015Y-10127484D01*
X16996968Y-10317960D02*
X16977920Y-10327484D01*
X16977920Y-10327484D02*
X16939825Y-10327484D01*
X16939825Y-10327484D02*
X16920777Y-10317960D01*
X16920777Y-10317960D02*
X16911253Y-10298912D01*
X16911253Y-10298912D02*
X16911253Y-10222722D01*
X16911253Y-10222722D02*
X16920777Y-10203674D01*
X16920777Y-10203674D02*
X16939825Y-10194150D01*
X16939825Y-10194150D02*
X16977920Y-10194150D01*
X16977920Y-10194150D02*
X16996968Y-10203674D01*
X16996968Y-10203674D02*
X17006492Y-10222722D01*
X17006492Y-10222722D02*
X17006492Y-10241770D01*
X17006492Y-10241770D02*
X16911253Y-10260817D01*
X17082682Y-10317960D02*
X17101730Y-10327484D01*
X17101730Y-10327484D02*
X17139825Y-10327484D01*
X17139825Y-10327484D02*
X17158873Y-10317960D01*
X17158873Y-10317960D02*
X17168396Y-10298912D01*
X17168396Y-10298912D02*
X17168396Y-10289389D01*
X17168396Y-10289389D02*
X17158873Y-10270341D01*
X17158873Y-10270341D02*
X17139825Y-10260817D01*
X17139825Y-10260817D02*
X17111253Y-10260817D01*
X17111253Y-10260817D02*
X17092206Y-10251293D01*
X17092206Y-10251293D02*
X17082682Y-10232246D01*
X17082682Y-10232246D02*
X17082682Y-10222722D01*
X17082682Y-10222722D02*
X17092206Y-10203674D01*
X17092206Y-10203674D02*
X17111253Y-10194150D01*
X17111253Y-10194150D02*
X17139825Y-10194150D01*
X17139825Y-10194150D02*
X17158873Y-10203674D01*
X17406492Y-10251293D02*
X17558873Y-10251293D01*
X17482682Y-10327484D02*
X17482682Y-10175103D01*
X17892206Y-10194150D02*
X17892206Y-10327484D01*
X17844587Y-10117960D02*
X17796968Y-10260817D01*
X17796968Y-10260817D02*
X17920777Y-10260817D01*
X18139825Y-10317960D02*
X18158873Y-10327484D01*
X18158873Y-10327484D02*
X18196968Y-10327484D01*
X18196968Y-10327484D02*
X18216016Y-10317960D01*
X18216016Y-10317960D02*
X18225539Y-10298912D01*
X18225539Y-10298912D02*
X18225539Y-10289389D01*
X18225539Y-10289389D02*
X18216016Y-10270341D01*
X18216016Y-10270341D02*
X18196968Y-10260817D01*
X18196968Y-10260817D02*
X18168396Y-10260817D01*
X18168396Y-10260817D02*
X18149349Y-10251293D01*
X18149349Y-10251293D02*
X18139825Y-10232246D01*
X18139825Y-10232246D02*
X18139825Y-10222722D01*
X18139825Y-10222722D02*
X18149349Y-10203674D01*
X18149349Y-10203674D02*
X18168396Y-10194150D01*
X18168396Y-10194150D02*
X18196968Y-10194150D01*
X18196968Y-10194150D02*
X18216016Y-10203674D01*
X18339825Y-10327484D02*
X18320777Y-10317960D01*
X18320777Y-10317960D02*
X18311254Y-10298912D01*
X18311254Y-10298912D02*
X18311254Y-10127484D01*
X18444587Y-10327484D02*
X18425539Y-10317960D01*
X18425539Y-10317960D02*
X18416016Y-10308436D01*
X18416016Y-10308436D02*
X18406492Y-10289389D01*
X18406492Y-10289389D02*
X18406492Y-10232246D01*
X18406492Y-10232246D02*
X18416016Y-10213198D01*
X18416016Y-10213198D02*
X18425539Y-10203674D01*
X18425539Y-10203674D02*
X18444587Y-10194150D01*
X18444587Y-10194150D02*
X18473158Y-10194150D01*
X18473158Y-10194150D02*
X18492206Y-10203674D01*
X18492206Y-10203674D02*
X18501730Y-10213198D01*
X18501730Y-10213198D02*
X18511254Y-10232246D01*
X18511254Y-10232246D02*
X18511254Y-10289389D01*
X18511254Y-10289389D02*
X18501730Y-10308436D01*
X18501730Y-10308436D02*
X18492206Y-10317960D01*
X18492206Y-10317960D02*
X18473158Y-10327484D01*
X18473158Y-10327484D02*
X18444587Y-10327484D01*
X18568397Y-10194150D02*
X18644587Y-10194150D01*
X18596968Y-10127484D02*
X18596968Y-10298912D01*
X18596968Y-10298912D02*
X18606492Y-10317960D01*
X18606492Y-10317960D02*
X18625539Y-10327484D01*
X18625539Y-10327484D02*
X18644587Y-10327484D01*
X18701730Y-10317960D02*
X18720777Y-10327484D01*
X18720777Y-10327484D02*
X18758873Y-10327484D01*
X18758873Y-10327484D02*
X18777920Y-10317960D01*
X18777920Y-10317960D02*
X18787444Y-10298912D01*
X18787444Y-10298912D02*
X18787444Y-10289389D01*
X18787444Y-10289389D02*
X18777920Y-10270341D01*
X18777920Y-10270341D02*
X18758873Y-10260817D01*
X18758873Y-10260817D02*
X18730301Y-10260817D01*
X18730301Y-10260817D02*
X18711254Y-10251293D01*
X18711254Y-10251293D02*
X18701730Y-10232246D01*
X18701730Y-10232246D02*
X18701730Y-10222722D01*
X18701730Y-10222722D02*
X18711254Y-10203674D01*
X18711254Y-10203674D02*
X18730301Y-10194150D01*
X18730301Y-10194150D02*
X18758873Y-10194150D01*
X18758873Y-10194150D02*
X18777920Y-10203674D01*
X18854111Y-10403674D02*
X18863635Y-10394150D01*
X18863635Y-10394150D02*
X18882682Y-10365579D01*
X18882682Y-10365579D02*
X18892206Y-10346531D01*
X18892206Y-10346531D02*
X18901730Y-10317960D01*
X18901730Y-10317960D02*
X18911254Y-10270341D01*
X18911254Y-10270341D02*
X18911254Y-10232246D01*
X18911254Y-10232246D02*
X18901730Y-10184627D01*
X18901730Y-10184627D02*
X18892206Y-10156055D01*
X18892206Y-10156055D02*
X18882682Y-10137008D01*
X18882682Y-10137008D02*
X18863635Y-10108436D01*
X18863635Y-10108436D02*
X18854111Y-10098912D01*
D16*
X12380000Y-10460000D02*
X12460000Y-10540000D01*
X12460000Y-10460000D02*
X12380000Y-10540000D01*
X12460000Y-10500000D02*
G75*
G03*
X12460000Y-10500000I-40000J0D01*
G01*
D11*
X12758872Y-10391484D02*
X12777920Y-10391484D01*
X12777920Y-10391484D02*
X12796967Y-10401008D01*
X12796967Y-10401008D02*
X12806491Y-10410531D01*
X12806491Y-10410531D02*
X12816015Y-10429579D01*
X12816015Y-10429579D02*
X12825539Y-10467674D01*
X12825539Y-10467674D02*
X12825539Y-10515293D01*
X12825539Y-10515293D02*
X12816015Y-10553389D01*
X12816015Y-10553389D02*
X12806491Y-10572436D01*
X12806491Y-10572436D02*
X12796967Y-10581960D01*
X12796967Y-10581960D02*
X12777920Y-10591484D01*
X12777920Y-10591484D02*
X12758872Y-10591484D01*
X12758872Y-10591484D02*
X12739824Y-10581960D01*
X12739824Y-10581960D02*
X12730301Y-10572436D01*
X12730301Y-10572436D02*
X12720777Y-10553389D01*
X12720777Y-10553389D02*
X12711253Y-10515293D01*
X12711253Y-10515293D02*
X12711253Y-10467674D01*
X12711253Y-10467674D02*
X12720777Y-10429579D01*
X12720777Y-10429579D02*
X12730301Y-10410531D01*
X12730301Y-10410531D02*
X12739824Y-10401008D01*
X12739824Y-10401008D02*
X12758872Y-10391484D01*
X12911253Y-10572436D02*
X12920777Y-10581960D01*
X12920777Y-10581960D02*
X12911253Y-10591484D01*
X12911253Y-10591484D02*
X12901729Y-10581960D01*
X12901729Y-10581960D02*
X12911253Y-10572436D01*
X12911253Y-10572436D02*
X12911253Y-10591484D01*
X13035062Y-10477198D02*
X13016015Y-10467674D01*
X13016015Y-10467674D02*
X13006491Y-10458150D01*
X13006491Y-10458150D02*
X12996967Y-10439103D01*
X12996967Y-10439103D02*
X12996967Y-10429579D01*
X12996967Y-10429579D02*
X13006491Y-10410531D01*
X13006491Y-10410531D02*
X13016015Y-10401008D01*
X13016015Y-10401008D02*
X13035062Y-10391484D01*
X13035062Y-10391484D02*
X13073158Y-10391484D01*
X13073158Y-10391484D02*
X13092205Y-10401008D01*
X13092205Y-10401008D02*
X13101729Y-10410531D01*
X13101729Y-10410531D02*
X13111253Y-10429579D01*
X13111253Y-10429579D02*
X13111253Y-10439103D01*
X13111253Y-10439103D02*
X13101729Y-10458150D01*
X13101729Y-10458150D02*
X13092205Y-10467674D01*
X13092205Y-10467674D02*
X13073158Y-10477198D01*
X13073158Y-10477198D02*
X13035062Y-10477198D01*
X13035062Y-10477198D02*
X13016015Y-10486722D01*
X13016015Y-10486722D02*
X13006491Y-10496246D01*
X13006491Y-10496246D02*
X12996967Y-10515293D01*
X12996967Y-10515293D02*
X12996967Y-10553389D01*
X12996967Y-10553389D02*
X13006491Y-10572436D01*
X13006491Y-10572436D02*
X13016015Y-10581960D01*
X13016015Y-10581960D02*
X13035062Y-10591484D01*
X13035062Y-10591484D02*
X13073158Y-10591484D01*
X13073158Y-10591484D02*
X13092205Y-10581960D01*
X13092205Y-10581960D02*
X13101729Y-10572436D01*
X13101729Y-10572436D02*
X13111253Y-10553389D01*
X13111253Y-10553389D02*
X13111253Y-10515293D01*
X13111253Y-10515293D02*
X13101729Y-10496246D01*
X13101729Y-10496246D02*
X13092205Y-10486722D01*
X13092205Y-10486722D02*
X13073158Y-10477198D01*
X13235062Y-10391484D02*
X13254110Y-10391484D01*
X13254110Y-10391484D02*
X13273158Y-10401008D01*
X13273158Y-10401008D02*
X13282682Y-10410531D01*
X13282682Y-10410531D02*
X13292205Y-10429579D01*
X13292205Y-10429579D02*
X13301729Y-10467674D01*
X13301729Y-10467674D02*
X13301729Y-10515293D01*
X13301729Y-10515293D02*
X13292205Y-10553389D01*
X13292205Y-10553389D02*
X13282682Y-10572436D01*
X13282682Y-10572436D02*
X13273158Y-10581960D01*
X13273158Y-10581960D02*
X13254110Y-10591484D01*
X13254110Y-10591484D02*
X13235062Y-10591484D01*
X13235062Y-10591484D02*
X13216015Y-10581960D01*
X13216015Y-10581960D02*
X13206491Y-10572436D01*
X13206491Y-10572436D02*
X13196967Y-10553389D01*
X13196967Y-10553389D02*
X13187443Y-10515293D01*
X13187443Y-10515293D02*
X13187443Y-10467674D01*
X13187443Y-10467674D02*
X13196967Y-10429579D01*
X13196967Y-10429579D02*
X13206491Y-10410531D01*
X13206491Y-10410531D02*
X13216015Y-10401008D01*
X13216015Y-10401008D02*
X13235062Y-10391484D01*
X13425539Y-10391484D02*
X13444586Y-10391484D01*
X13444586Y-10391484D02*
X13463634Y-10401008D01*
X13463634Y-10401008D02*
X13473158Y-10410531D01*
X13473158Y-10410531D02*
X13482682Y-10429579D01*
X13482682Y-10429579D02*
X13492205Y-10467674D01*
X13492205Y-10467674D02*
X13492205Y-10515293D01*
X13492205Y-10515293D02*
X13482682Y-10553389D01*
X13482682Y-10553389D02*
X13473158Y-10572436D01*
X13473158Y-10572436D02*
X13463634Y-10581960D01*
X13463634Y-10581960D02*
X13444586Y-10591484D01*
X13444586Y-10591484D02*
X13425539Y-10591484D01*
X13425539Y-10591484D02*
X13406491Y-10581960D01*
X13406491Y-10581960D02*
X13396967Y-10572436D01*
X13396967Y-10572436D02*
X13387443Y-10553389D01*
X13387443Y-10553389D02*
X13377920Y-10515293D01*
X13377920Y-10515293D02*
X13377920Y-10467674D01*
X13377920Y-10467674D02*
X13387443Y-10429579D01*
X13387443Y-10429579D02*
X13396967Y-10410531D01*
X13396967Y-10410531D02*
X13406491Y-10401008D01*
X13406491Y-10401008D02*
X13425539Y-10391484D01*
X13577920Y-10591484D02*
X13577920Y-10458150D01*
X13577920Y-10477198D02*
X13587443Y-10467674D01*
X13587443Y-10467674D02*
X13606491Y-10458150D01*
X13606491Y-10458150D02*
X13635063Y-10458150D01*
X13635063Y-10458150D02*
X13654110Y-10467674D01*
X13654110Y-10467674D02*
X13663634Y-10486722D01*
X13663634Y-10486722D02*
X13663634Y-10591484D01*
X13663634Y-10486722D02*
X13673158Y-10467674D01*
X13673158Y-10467674D02*
X13692205Y-10458150D01*
X13692205Y-10458150D02*
X13720777Y-10458150D01*
X13720777Y-10458150D02*
X13739824Y-10467674D01*
X13739824Y-10467674D02*
X13749348Y-10486722D01*
X13749348Y-10486722D02*
X13749348Y-10591484D01*
X13844586Y-10591484D02*
X13844586Y-10458150D01*
X13844586Y-10477198D02*
X13854110Y-10467674D01*
X13854110Y-10467674D02*
X13873158Y-10458150D01*
X13873158Y-10458150D02*
X13901729Y-10458150D01*
X13901729Y-10458150D02*
X13920777Y-10467674D01*
X13920777Y-10467674D02*
X13930301Y-10486722D01*
X13930301Y-10486722D02*
X13930301Y-10591484D01*
X13930301Y-10486722D02*
X13939824Y-10467674D01*
X13939824Y-10467674D02*
X13958872Y-10458150D01*
X13958872Y-10458150D02*
X13987443Y-10458150D01*
X13987443Y-10458150D02*
X14006491Y-10467674D01*
X14006491Y-10467674D02*
X14016015Y-10486722D01*
X14016015Y-10486722D02*
X14016015Y-10591484D01*
X14406491Y-10381960D02*
X14235063Y-10639103D01*
X14663634Y-10391484D02*
X14682682Y-10391484D01*
X14682682Y-10391484D02*
X14701729Y-10401008D01*
X14701729Y-10401008D02*
X14711253Y-10410531D01*
X14711253Y-10410531D02*
X14720777Y-10429579D01*
X14720777Y-10429579D02*
X14730301Y-10467674D01*
X14730301Y-10467674D02*
X14730301Y-10515293D01*
X14730301Y-10515293D02*
X14720777Y-10553389D01*
X14720777Y-10553389D02*
X14711253Y-10572436D01*
X14711253Y-10572436D02*
X14701729Y-10581960D01*
X14701729Y-10581960D02*
X14682682Y-10591484D01*
X14682682Y-10591484D02*
X14663634Y-10591484D01*
X14663634Y-10591484D02*
X14644586Y-10581960D01*
X14644586Y-10581960D02*
X14635063Y-10572436D01*
X14635063Y-10572436D02*
X14625539Y-10553389D01*
X14625539Y-10553389D02*
X14616015Y-10515293D01*
X14616015Y-10515293D02*
X14616015Y-10467674D01*
X14616015Y-10467674D02*
X14625539Y-10429579D01*
X14625539Y-10429579D02*
X14635063Y-10410531D01*
X14635063Y-10410531D02*
X14644586Y-10401008D01*
X14644586Y-10401008D02*
X14663634Y-10391484D01*
X14816015Y-10572436D02*
X14825539Y-10581960D01*
X14825539Y-10581960D02*
X14816015Y-10591484D01*
X14816015Y-10591484D02*
X14806491Y-10581960D01*
X14806491Y-10581960D02*
X14816015Y-10572436D01*
X14816015Y-10572436D02*
X14816015Y-10591484D01*
X14949348Y-10391484D02*
X14968396Y-10391484D01*
X14968396Y-10391484D02*
X14987444Y-10401008D01*
X14987444Y-10401008D02*
X14996967Y-10410531D01*
X14996967Y-10410531D02*
X15006491Y-10429579D01*
X15006491Y-10429579D02*
X15016015Y-10467674D01*
X15016015Y-10467674D02*
X15016015Y-10515293D01*
X15016015Y-10515293D02*
X15006491Y-10553389D01*
X15006491Y-10553389D02*
X14996967Y-10572436D01*
X14996967Y-10572436D02*
X14987444Y-10581960D01*
X14987444Y-10581960D02*
X14968396Y-10591484D01*
X14968396Y-10591484D02*
X14949348Y-10591484D01*
X14949348Y-10591484D02*
X14930301Y-10581960D01*
X14930301Y-10581960D02*
X14920777Y-10572436D01*
X14920777Y-10572436D02*
X14911253Y-10553389D01*
X14911253Y-10553389D02*
X14901729Y-10515293D01*
X14901729Y-10515293D02*
X14901729Y-10467674D01*
X14901729Y-10467674D02*
X14911253Y-10429579D01*
X14911253Y-10429579D02*
X14920777Y-10410531D01*
X14920777Y-10410531D02*
X14930301Y-10401008D01*
X14930301Y-10401008D02*
X14949348Y-10391484D01*
X15082682Y-10391484D02*
X15206491Y-10391484D01*
X15206491Y-10391484D02*
X15139825Y-10467674D01*
X15139825Y-10467674D02*
X15168396Y-10467674D01*
X15168396Y-10467674D02*
X15187444Y-10477198D01*
X15187444Y-10477198D02*
X15196967Y-10486722D01*
X15196967Y-10486722D02*
X15206491Y-10505770D01*
X15206491Y-10505770D02*
X15206491Y-10553389D01*
X15206491Y-10553389D02*
X15196967Y-10572436D01*
X15196967Y-10572436D02*
X15187444Y-10581960D01*
X15187444Y-10581960D02*
X15168396Y-10591484D01*
X15168396Y-10591484D02*
X15111253Y-10591484D01*
X15111253Y-10591484D02*
X15092206Y-10581960D01*
X15092206Y-10581960D02*
X15082682Y-10572436D01*
X15396967Y-10591484D02*
X15282682Y-10591484D01*
X15339825Y-10591484D02*
X15339825Y-10391484D01*
X15339825Y-10391484D02*
X15320777Y-10420055D01*
X15320777Y-10420055D02*
X15301729Y-10439103D01*
X15301729Y-10439103D02*
X15282682Y-10448627D01*
X15577920Y-10391484D02*
X15482682Y-10391484D01*
X15482682Y-10391484D02*
X15473158Y-10486722D01*
X15473158Y-10486722D02*
X15482682Y-10477198D01*
X15482682Y-10477198D02*
X15501729Y-10467674D01*
X15501729Y-10467674D02*
X15549348Y-10467674D01*
X15549348Y-10467674D02*
X15568396Y-10477198D01*
X15568396Y-10477198D02*
X15577920Y-10486722D01*
X15577920Y-10486722D02*
X15587444Y-10505770D01*
X15587444Y-10505770D02*
X15587444Y-10553389D01*
X15587444Y-10553389D02*
X15577920Y-10572436D01*
X15577920Y-10572436D02*
X15568396Y-10581960D01*
X15568396Y-10581960D02*
X15549348Y-10591484D01*
X15549348Y-10591484D02*
X15501729Y-10591484D01*
X15501729Y-10591484D02*
X15482682Y-10581960D01*
X15482682Y-10581960D02*
X15473158Y-10572436D01*
X15663634Y-10391484D02*
X15663634Y-10429579D01*
X15739825Y-10391484D02*
X15739825Y-10429579D01*
X16035063Y-10667674D02*
X16025539Y-10658150D01*
X16025539Y-10658150D02*
X16006491Y-10629579D01*
X16006491Y-10629579D02*
X15996968Y-10610531D01*
X15996968Y-10610531D02*
X15987444Y-10581960D01*
X15987444Y-10581960D02*
X15977920Y-10534341D01*
X15977920Y-10534341D02*
X15977920Y-10496246D01*
X15977920Y-10496246D02*
X15987444Y-10448627D01*
X15987444Y-10448627D02*
X15996968Y-10420055D01*
X15996968Y-10420055D02*
X16006491Y-10401008D01*
X16006491Y-10401008D02*
X16025539Y-10372436D01*
X16025539Y-10372436D02*
X16035063Y-10362912D01*
X16101729Y-10410531D02*
X16111253Y-10401008D01*
X16111253Y-10401008D02*
X16130301Y-10391484D01*
X16130301Y-10391484D02*
X16177920Y-10391484D01*
X16177920Y-10391484D02*
X16196968Y-10401008D01*
X16196968Y-10401008D02*
X16206491Y-10410531D01*
X16206491Y-10410531D02*
X16216015Y-10429579D01*
X16216015Y-10429579D02*
X16216015Y-10448627D01*
X16216015Y-10448627D02*
X16206491Y-10477198D01*
X16206491Y-10477198D02*
X16092206Y-10591484D01*
X16092206Y-10591484D02*
X16216015Y-10591484D01*
X16330301Y-10477198D02*
X16311253Y-10467674D01*
X16311253Y-10467674D02*
X16301729Y-10458150D01*
X16301729Y-10458150D02*
X16292206Y-10439103D01*
X16292206Y-10439103D02*
X16292206Y-10429579D01*
X16292206Y-10429579D02*
X16301729Y-10410531D01*
X16301729Y-10410531D02*
X16311253Y-10401008D01*
X16311253Y-10401008D02*
X16330301Y-10391484D01*
X16330301Y-10391484D02*
X16368396Y-10391484D01*
X16368396Y-10391484D02*
X16387444Y-10401008D01*
X16387444Y-10401008D02*
X16396968Y-10410531D01*
X16396968Y-10410531D02*
X16406491Y-10429579D01*
X16406491Y-10429579D02*
X16406491Y-10439103D01*
X16406491Y-10439103D02*
X16396968Y-10458150D01*
X16396968Y-10458150D02*
X16387444Y-10467674D01*
X16387444Y-10467674D02*
X16368396Y-10477198D01*
X16368396Y-10477198D02*
X16330301Y-10477198D01*
X16330301Y-10477198D02*
X16311253Y-10486722D01*
X16311253Y-10486722D02*
X16301729Y-10496246D01*
X16301729Y-10496246D02*
X16292206Y-10515293D01*
X16292206Y-10515293D02*
X16292206Y-10553389D01*
X16292206Y-10553389D02*
X16301729Y-10572436D01*
X16301729Y-10572436D02*
X16311253Y-10581960D01*
X16311253Y-10581960D02*
X16330301Y-10591484D01*
X16330301Y-10591484D02*
X16368396Y-10591484D01*
X16368396Y-10591484D02*
X16387444Y-10581960D01*
X16387444Y-10581960D02*
X16396968Y-10572436D01*
X16396968Y-10572436D02*
X16406491Y-10553389D01*
X16406491Y-10553389D02*
X16406491Y-10515293D01*
X16406491Y-10515293D02*
X16396968Y-10496246D01*
X16396968Y-10496246D02*
X16387444Y-10486722D01*
X16387444Y-10486722D02*
X16368396Y-10477198D01*
X16644587Y-10591484D02*
X16644587Y-10391484D01*
X16730301Y-10591484D02*
X16730301Y-10486722D01*
X16730301Y-10486722D02*
X16720777Y-10467674D01*
X16720777Y-10467674D02*
X16701730Y-10458150D01*
X16701730Y-10458150D02*
X16673158Y-10458150D01*
X16673158Y-10458150D02*
X16654110Y-10467674D01*
X16654110Y-10467674D02*
X16644587Y-10477198D01*
X16854111Y-10591484D02*
X16835063Y-10581960D01*
X16835063Y-10581960D02*
X16825539Y-10572436D01*
X16825539Y-10572436D02*
X16816015Y-10553389D01*
X16816015Y-10553389D02*
X16816015Y-10496246D01*
X16816015Y-10496246D02*
X16825539Y-10477198D01*
X16825539Y-10477198D02*
X16835063Y-10467674D01*
X16835063Y-10467674D02*
X16854111Y-10458150D01*
X16854111Y-10458150D02*
X16882682Y-10458150D01*
X16882682Y-10458150D02*
X16901730Y-10467674D01*
X16901730Y-10467674D02*
X16911253Y-10477198D01*
X16911253Y-10477198D02*
X16920777Y-10496246D01*
X16920777Y-10496246D02*
X16920777Y-10553389D01*
X16920777Y-10553389D02*
X16911253Y-10572436D01*
X16911253Y-10572436D02*
X16901730Y-10581960D01*
X16901730Y-10581960D02*
X16882682Y-10591484D01*
X16882682Y-10591484D02*
X16854111Y-10591484D01*
X17035063Y-10591484D02*
X17016015Y-10581960D01*
X17016015Y-10581960D02*
X17006492Y-10562912D01*
X17006492Y-10562912D02*
X17006492Y-10391484D01*
X17187444Y-10581960D02*
X17168396Y-10591484D01*
X17168396Y-10591484D02*
X17130301Y-10591484D01*
X17130301Y-10591484D02*
X17111253Y-10581960D01*
X17111253Y-10581960D02*
X17101730Y-10562912D01*
X17101730Y-10562912D02*
X17101730Y-10486722D01*
X17101730Y-10486722D02*
X17111253Y-10467674D01*
X17111253Y-10467674D02*
X17130301Y-10458150D01*
X17130301Y-10458150D02*
X17168396Y-10458150D01*
X17168396Y-10458150D02*
X17187444Y-10467674D01*
X17187444Y-10467674D02*
X17196968Y-10486722D01*
X17196968Y-10486722D02*
X17196968Y-10505770D01*
X17196968Y-10505770D02*
X17101730Y-10524817D01*
X17273158Y-10581960D02*
X17292206Y-10591484D01*
X17292206Y-10591484D02*
X17330301Y-10591484D01*
X17330301Y-10591484D02*
X17349349Y-10581960D01*
X17349349Y-10581960D02*
X17358873Y-10562912D01*
X17358873Y-10562912D02*
X17358873Y-10553389D01*
X17358873Y-10553389D02*
X17349349Y-10534341D01*
X17349349Y-10534341D02*
X17330301Y-10524817D01*
X17330301Y-10524817D02*
X17301730Y-10524817D01*
X17301730Y-10524817D02*
X17282682Y-10515293D01*
X17282682Y-10515293D02*
X17273158Y-10496246D01*
X17273158Y-10496246D02*
X17273158Y-10486722D01*
X17273158Y-10486722D02*
X17282682Y-10467674D01*
X17282682Y-10467674D02*
X17301730Y-10458150D01*
X17301730Y-10458150D02*
X17330301Y-10458150D01*
X17330301Y-10458150D02*
X17349349Y-10467674D01*
X17425539Y-10667674D02*
X17435063Y-10658150D01*
X17435063Y-10658150D02*
X17454111Y-10629579D01*
X17454111Y-10629579D02*
X17463634Y-10610531D01*
X17463634Y-10610531D02*
X17473158Y-10581960D01*
X17473158Y-10581960D02*
X17482682Y-10534341D01*
X17482682Y-10534341D02*
X17482682Y-10496246D01*
X17482682Y-10496246D02*
X17473158Y-10448627D01*
X17473158Y-10448627D02*
X17463634Y-10420055D01*
X17463634Y-10420055D02*
X17454111Y-10401008D01*
X17454111Y-10401008D02*
X17435063Y-10372436D01*
X17435063Y-10372436D02*
X17425539Y-10362912D01*
D10*
X12360000Y-10714000D02*
X12460000Y-10814000D01*
X12460000Y-10714000D02*
X12360000Y-10814000D01*
X12410000Y-10714000D02*
X12410000Y-10814000D01*
X12360000Y-10764000D02*
X12460000Y-10764000D01*
D11*
X12825539Y-10855484D02*
X12711253Y-10855484D01*
X12768396Y-10855484D02*
X12768396Y-10655484D01*
X12768396Y-10655484D02*
X12749348Y-10684055D01*
X12749348Y-10684055D02*
X12730301Y-10703103D01*
X12730301Y-10703103D02*
X12711253Y-10712627D01*
X12911253Y-10836436D02*
X12920777Y-10845960D01*
X12920777Y-10845960D02*
X12911253Y-10855484D01*
X12911253Y-10855484D02*
X12901729Y-10845960D01*
X12901729Y-10845960D02*
X12911253Y-10836436D01*
X12911253Y-10836436D02*
X12911253Y-10855484D01*
X13044586Y-10655484D02*
X13063634Y-10655484D01*
X13063634Y-10655484D02*
X13082682Y-10665008D01*
X13082682Y-10665008D02*
X13092205Y-10674531D01*
X13092205Y-10674531D02*
X13101729Y-10693579D01*
X13101729Y-10693579D02*
X13111253Y-10731674D01*
X13111253Y-10731674D02*
X13111253Y-10779293D01*
X13111253Y-10779293D02*
X13101729Y-10817389D01*
X13101729Y-10817389D02*
X13092205Y-10836436D01*
X13092205Y-10836436D02*
X13082682Y-10845960D01*
X13082682Y-10845960D02*
X13063634Y-10855484D01*
X13063634Y-10855484D02*
X13044586Y-10855484D01*
X13044586Y-10855484D02*
X13025539Y-10845960D01*
X13025539Y-10845960D02*
X13016015Y-10836436D01*
X13016015Y-10836436D02*
X13006491Y-10817389D01*
X13006491Y-10817389D02*
X12996967Y-10779293D01*
X12996967Y-10779293D02*
X12996967Y-10731674D01*
X12996967Y-10731674D02*
X13006491Y-10693579D01*
X13006491Y-10693579D02*
X13016015Y-10674531D01*
X13016015Y-10674531D02*
X13025539Y-10665008D01*
X13025539Y-10665008D02*
X13044586Y-10655484D01*
X13235062Y-10655484D02*
X13254110Y-10655484D01*
X13254110Y-10655484D02*
X13273158Y-10665008D01*
X13273158Y-10665008D02*
X13282682Y-10674531D01*
X13282682Y-10674531D02*
X13292205Y-10693579D01*
X13292205Y-10693579D02*
X13301729Y-10731674D01*
X13301729Y-10731674D02*
X13301729Y-10779293D01*
X13301729Y-10779293D02*
X13292205Y-10817389D01*
X13292205Y-10817389D02*
X13282682Y-10836436D01*
X13282682Y-10836436D02*
X13273158Y-10845960D01*
X13273158Y-10845960D02*
X13254110Y-10855484D01*
X13254110Y-10855484D02*
X13235062Y-10855484D01*
X13235062Y-10855484D02*
X13216015Y-10845960D01*
X13216015Y-10845960D02*
X13206491Y-10836436D01*
X13206491Y-10836436D02*
X13196967Y-10817389D01*
X13196967Y-10817389D02*
X13187443Y-10779293D01*
X13187443Y-10779293D02*
X13187443Y-10731674D01*
X13187443Y-10731674D02*
X13196967Y-10693579D01*
X13196967Y-10693579D02*
X13206491Y-10674531D01*
X13206491Y-10674531D02*
X13216015Y-10665008D01*
X13216015Y-10665008D02*
X13235062Y-10655484D01*
X13425539Y-10655484D02*
X13444586Y-10655484D01*
X13444586Y-10655484D02*
X13463634Y-10665008D01*
X13463634Y-10665008D02*
X13473158Y-10674531D01*
X13473158Y-10674531D02*
X13482682Y-10693579D01*
X13482682Y-10693579D02*
X13492205Y-10731674D01*
X13492205Y-10731674D02*
X13492205Y-10779293D01*
X13492205Y-10779293D02*
X13482682Y-10817389D01*
X13482682Y-10817389D02*
X13473158Y-10836436D01*
X13473158Y-10836436D02*
X13463634Y-10845960D01*
X13463634Y-10845960D02*
X13444586Y-10855484D01*
X13444586Y-10855484D02*
X13425539Y-10855484D01*
X13425539Y-10855484D02*
X13406491Y-10845960D01*
X13406491Y-10845960D02*
X13396967Y-10836436D01*
X13396967Y-10836436D02*
X13387443Y-10817389D01*
X13387443Y-10817389D02*
X13377920Y-10779293D01*
X13377920Y-10779293D02*
X13377920Y-10731674D01*
X13377920Y-10731674D02*
X13387443Y-10693579D01*
X13387443Y-10693579D02*
X13396967Y-10674531D01*
X13396967Y-10674531D02*
X13406491Y-10665008D01*
X13406491Y-10665008D02*
X13425539Y-10655484D01*
X13577920Y-10855484D02*
X13577920Y-10722150D01*
X13577920Y-10741198D02*
X13587443Y-10731674D01*
X13587443Y-10731674D02*
X13606491Y-10722150D01*
X13606491Y-10722150D02*
X13635063Y-10722150D01*
X13635063Y-10722150D02*
X13654110Y-10731674D01*
X13654110Y-10731674D02*
X13663634Y-10750722D01*
X13663634Y-10750722D02*
X13663634Y-10855484D01*
X13663634Y-10750722D02*
X13673158Y-10731674D01*
X13673158Y-10731674D02*
X13692205Y-10722150D01*
X13692205Y-10722150D02*
X13720777Y-10722150D01*
X13720777Y-10722150D02*
X13739824Y-10731674D01*
X13739824Y-10731674D02*
X13749348Y-10750722D01*
X13749348Y-10750722D02*
X13749348Y-10855484D01*
X13844586Y-10855484D02*
X13844586Y-10722150D01*
X13844586Y-10741198D02*
X13854110Y-10731674D01*
X13854110Y-10731674D02*
X13873158Y-10722150D01*
X13873158Y-10722150D02*
X13901729Y-10722150D01*
X13901729Y-10722150D02*
X13920777Y-10731674D01*
X13920777Y-10731674D02*
X13930301Y-10750722D01*
X13930301Y-10750722D02*
X13930301Y-10855484D01*
X13930301Y-10750722D02*
X13939824Y-10731674D01*
X13939824Y-10731674D02*
X13958872Y-10722150D01*
X13958872Y-10722150D02*
X13987443Y-10722150D01*
X13987443Y-10722150D02*
X14006491Y-10731674D01*
X14006491Y-10731674D02*
X14016015Y-10750722D01*
X14016015Y-10750722D02*
X14016015Y-10855484D01*
X14406491Y-10645960D02*
X14235063Y-10903103D01*
X14663634Y-10655484D02*
X14682682Y-10655484D01*
X14682682Y-10655484D02*
X14701729Y-10665008D01*
X14701729Y-10665008D02*
X14711253Y-10674531D01*
X14711253Y-10674531D02*
X14720777Y-10693579D01*
X14720777Y-10693579D02*
X14730301Y-10731674D01*
X14730301Y-10731674D02*
X14730301Y-10779293D01*
X14730301Y-10779293D02*
X14720777Y-10817389D01*
X14720777Y-10817389D02*
X14711253Y-10836436D01*
X14711253Y-10836436D02*
X14701729Y-10845960D01*
X14701729Y-10845960D02*
X14682682Y-10855484D01*
X14682682Y-10855484D02*
X14663634Y-10855484D01*
X14663634Y-10855484D02*
X14644586Y-10845960D01*
X14644586Y-10845960D02*
X14635063Y-10836436D01*
X14635063Y-10836436D02*
X14625539Y-10817389D01*
X14625539Y-10817389D02*
X14616015Y-10779293D01*
X14616015Y-10779293D02*
X14616015Y-10731674D01*
X14616015Y-10731674D02*
X14625539Y-10693579D01*
X14625539Y-10693579D02*
X14635063Y-10674531D01*
X14635063Y-10674531D02*
X14644586Y-10665008D01*
X14644586Y-10665008D02*
X14663634Y-10655484D01*
X14816015Y-10836436D02*
X14825539Y-10845960D01*
X14825539Y-10845960D02*
X14816015Y-10855484D01*
X14816015Y-10855484D02*
X14806491Y-10845960D01*
X14806491Y-10845960D02*
X14816015Y-10836436D01*
X14816015Y-10836436D02*
X14816015Y-10855484D01*
X14949348Y-10655484D02*
X14968396Y-10655484D01*
X14968396Y-10655484D02*
X14987444Y-10665008D01*
X14987444Y-10665008D02*
X14996967Y-10674531D01*
X14996967Y-10674531D02*
X15006491Y-10693579D01*
X15006491Y-10693579D02*
X15016015Y-10731674D01*
X15016015Y-10731674D02*
X15016015Y-10779293D01*
X15016015Y-10779293D02*
X15006491Y-10817389D01*
X15006491Y-10817389D02*
X14996967Y-10836436D01*
X14996967Y-10836436D02*
X14987444Y-10845960D01*
X14987444Y-10845960D02*
X14968396Y-10855484D01*
X14968396Y-10855484D02*
X14949348Y-10855484D01*
X14949348Y-10855484D02*
X14930301Y-10845960D01*
X14930301Y-10845960D02*
X14920777Y-10836436D01*
X14920777Y-10836436D02*
X14911253Y-10817389D01*
X14911253Y-10817389D02*
X14901729Y-10779293D01*
X14901729Y-10779293D02*
X14901729Y-10731674D01*
X14901729Y-10731674D02*
X14911253Y-10693579D01*
X14911253Y-10693579D02*
X14920777Y-10674531D01*
X14920777Y-10674531D02*
X14930301Y-10665008D01*
X14930301Y-10665008D02*
X14949348Y-10655484D01*
X15082682Y-10655484D02*
X15206491Y-10655484D01*
X15206491Y-10655484D02*
X15139825Y-10731674D01*
X15139825Y-10731674D02*
X15168396Y-10731674D01*
X15168396Y-10731674D02*
X15187444Y-10741198D01*
X15187444Y-10741198D02*
X15196967Y-10750722D01*
X15196967Y-10750722D02*
X15206491Y-10769770D01*
X15206491Y-10769770D02*
X15206491Y-10817389D01*
X15206491Y-10817389D02*
X15196967Y-10836436D01*
X15196967Y-10836436D02*
X15187444Y-10845960D01*
X15187444Y-10845960D02*
X15168396Y-10855484D01*
X15168396Y-10855484D02*
X15111253Y-10855484D01*
X15111253Y-10855484D02*
X15092206Y-10845960D01*
X15092206Y-10845960D02*
X15082682Y-10836436D01*
X15301729Y-10855484D02*
X15339825Y-10855484D01*
X15339825Y-10855484D02*
X15358872Y-10845960D01*
X15358872Y-10845960D02*
X15368396Y-10836436D01*
X15368396Y-10836436D02*
X15387444Y-10807865D01*
X15387444Y-10807865D02*
X15396967Y-10769770D01*
X15396967Y-10769770D02*
X15396967Y-10693579D01*
X15396967Y-10693579D02*
X15387444Y-10674531D01*
X15387444Y-10674531D02*
X15377920Y-10665008D01*
X15377920Y-10665008D02*
X15358872Y-10655484D01*
X15358872Y-10655484D02*
X15320777Y-10655484D01*
X15320777Y-10655484D02*
X15301729Y-10665008D01*
X15301729Y-10665008D02*
X15292206Y-10674531D01*
X15292206Y-10674531D02*
X15282682Y-10693579D01*
X15282682Y-10693579D02*
X15282682Y-10741198D01*
X15282682Y-10741198D02*
X15292206Y-10760246D01*
X15292206Y-10760246D02*
X15301729Y-10769770D01*
X15301729Y-10769770D02*
X15320777Y-10779293D01*
X15320777Y-10779293D02*
X15358872Y-10779293D01*
X15358872Y-10779293D02*
X15377920Y-10769770D01*
X15377920Y-10769770D02*
X15387444Y-10760246D01*
X15387444Y-10760246D02*
X15396967Y-10741198D01*
X15568396Y-10722150D02*
X15568396Y-10855484D01*
X15520777Y-10645960D02*
X15473158Y-10788817D01*
X15473158Y-10788817D02*
X15596967Y-10788817D01*
X15663634Y-10655484D02*
X15663634Y-10693579D01*
X15739825Y-10655484D02*
X15739825Y-10693579D01*
X16035063Y-10931674D02*
X16025539Y-10922150D01*
X16025539Y-10922150D02*
X16006491Y-10893579D01*
X16006491Y-10893579D02*
X15996968Y-10874531D01*
X15996968Y-10874531D02*
X15987444Y-10845960D01*
X15987444Y-10845960D02*
X15977920Y-10798341D01*
X15977920Y-10798341D02*
X15977920Y-10760246D01*
X15977920Y-10760246D02*
X15987444Y-10712627D01*
X15987444Y-10712627D02*
X15996968Y-10684055D01*
X15996968Y-10684055D02*
X16006491Y-10665008D01*
X16006491Y-10665008D02*
X16025539Y-10636436D01*
X16025539Y-10636436D02*
X16035063Y-10626912D01*
X16120777Y-10855484D02*
X16158872Y-10855484D01*
X16158872Y-10855484D02*
X16177920Y-10845960D01*
X16177920Y-10845960D02*
X16187444Y-10836436D01*
X16187444Y-10836436D02*
X16206491Y-10807865D01*
X16206491Y-10807865D02*
X16216015Y-10769770D01*
X16216015Y-10769770D02*
X16216015Y-10693579D01*
X16216015Y-10693579D02*
X16206491Y-10674531D01*
X16206491Y-10674531D02*
X16196968Y-10665008D01*
X16196968Y-10665008D02*
X16177920Y-10655484D01*
X16177920Y-10655484D02*
X16139825Y-10655484D01*
X16139825Y-10655484D02*
X16120777Y-10665008D01*
X16120777Y-10665008D02*
X16111253Y-10674531D01*
X16111253Y-10674531D02*
X16101729Y-10693579D01*
X16101729Y-10693579D02*
X16101729Y-10741198D01*
X16101729Y-10741198D02*
X16111253Y-10760246D01*
X16111253Y-10760246D02*
X16120777Y-10769770D01*
X16120777Y-10769770D02*
X16139825Y-10779293D01*
X16139825Y-10779293D02*
X16177920Y-10779293D01*
X16177920Y-10779293D02*
X16196968Y-10769770D01*
X16196968Y-10769770D02*
X16206491Y-10760246D01*
X16206491Y-10760246D02*
X16216015Y-10741198D01*
X16454110Y-10855484D02*
X16454110Y-10655484D01*
X16539825Y-10855484D02*
X16539825Y-10750722D01*
X16539825Y-10750722D02*
X16530301Y-10731674D01*
X16530301Y-10731674D02*
X16511253Y-10722150D01*
X16511253Y-10722150D02*
X16482682Y-10722150D01*
X16482682Y-10722150D02*
X16463634Y-10731674D01*
X16463634Y-10731674D02*
X16454110Y-10741198D01*
X16663634Y-10855484D02*
X16644587Y-10845960D01*
X16644587Y-10845960D02*
X16635063Y-10836436D01*
X16635063Y-10836436D02*
X16625539Y-10817389D01*
X16625539Y-10817389D02*
X16625539Y-10760246D01*
X16625539Y-10760246D02*
X16635063Y-10741198D01*
X16635063Y-10741198D02*
X16644587Y-10731674D01*
X16644587Y-10731674D02*
X16663634Y-10722150D01*
X16663634Y-10722150D02*
X16692206Y-10722150D01*
X16692206Y-10722150D02*
X16711253Y-10731674D01*
X16711253Y-10731674D02*
X16720777Y-10741198D01*
X16720777Y-10741198D02*
X16730301Y-10760246D01*
X16730301Y-10760246D02*
X16730301Y-10817389D01*
X16730301Y-10817389D02*
X16720777Y-10836436D01*
X16720777Y-10836436D02*
X16711253Y-10845960D01*
X16711253Y-10845960D02*
X16692206Y-10855484D01*
X16692206Y-10855484D02*
X16663634Y-10855484D01*
X16844587Y-10855484D02*
X16825539Y-10845960D01*
X16825539Y-10845960D02*
X16816015Y-10826912D01*
X16816015Y-10826912D02*
X16816015Y-10655484D01*
X16996968Y-10845960D02*
X16977920Y-10855484D01*
X16977920Y-10855484D02*
X16939825Y-10855484D01*
X16939825Y-10855484D02*
X16920777Y-10845960D01*
X16920777Y-10845960D02*
X16911253Y-10826912D01*
X16911253Y-10826912D02*
X16911253Y-10750722D01*
X16911253Y-10750722D02*
X16920777Y-10731674D01*
X16920777Y-10731674D02*
X16939825Y-10722150D01*
X16939825Y-10722150D02*
X16977920Y-10722150D01*
X16977920Y-10722150D02*
X16996968Y-10731674D01*
X16996968Y-10731674D02*
X17006492Y-10750722D01*
X17006492Y-10750722D02*
X17006492Y-10769770D01*
X17006492Y-10769770D02*
X16911253Y-10788817D01*
X17082682Y-10845960D02*
X17101730Y-10855484D01*
X17101730Y-10855484D02*
X17139825Y-10855484D01*
X17139825Y-10855484D02*
X17158873Y-10845960D01*
X17158873Y-10845960D02*
X17168396Y-10826912D01*
X17168396Y-10826912D02*
X17168396Y-10817389D01*
X17168396Y-10817389D02*
X17158873Y-10798341D01*
X17158873Y-10798341D02*
X17139825Y-10788817D01*
X17139825Y-10788817D02*
X17111253Y-10788817D01*
X17111253Y-10788817D02*
X17092206Y-10779293D01*
X17092206Y-10779293D02*
X17082682Y-10760246D01*
X17082682Y-10760246D02*
X17082682Y-10750722D01*
X17082682Y-10750722D02*
X17092206Y-10731674D01*
X17092206Y-10731674D02*
X17111253Y-10722150D01*
X17111253Y-10722150D02*
X17139825Y-10722150D01*
X17139825Y-10722150D02*
X17158873Y-10731674D01*
X17235063Y-10931674D02*
X17244587Y-10922150D01*
X17244587Y-10922150D02*
X17263634Y-10893579D01*
X17263634Y-10893579D02*
X17273158Y-10874531D01*
X17273158Y-10874531D02*
X17282682Y-10845960D01*
X17282682Y-10845960D02*
X17292206Y-10798341D01*
X17292206Y-10798341D02*
X17292206Y-10760246D01*
X17292206Y-10760246D02*
X17282682Y-10712627D01*
X17282682Y-10712627D02*
X17273158Y-10684055D01*
X17273158Y-10684055D02*
X17263634Y-10665008D01*
X17263634Y-10665008D02*
X17244587Y-10636436D01*
X17244587Y-10636436D02*
X17235063Y-10626912D01*
X12260000Y-10928000D02*
X12460000Y-11128000D01*
X12460000Y-10928000D02*
X12260000Y-11128000D01*
X12430711Y-11098711D02*
X12430711Y-10957289D01*
X12289289Y-10957289D01*
X12289289Y-11098711D01*
X12430711Y-11098711D01*
X12711253Y-10938531D02*
X12720777Y-10929008D01*
X12720777Y-10929008D02*
X12739824Y-10919484D01*
X12739824Y-10919484D02*
X12787443Y-10919484D01*
X12787443Y-10919484D02*
X12806491Y-10929008D01*
X12806491Y-10929008D02*
X12816015Y-10938531D01*
X12816015Y-10938531D02*
X12825539Y-10957579D01*
X12825539Y-10957579D02*
X12825539Y-10976627D01*
X12825539Y-10976627D02*
X12816015Y-11005198D01*
X12816015Y-11005198D02*
X12701729Y-11119484D01*
X12701729Y-11119484D02*
X12825539Y-11119484D01*
X12911253Y-11100436D02*
X12920777Y-11109960D01*
X12920777Y-11109960D02*
X12911253Y-11119484D01*
X12911253Y-11119484D02*
X12901729Y-11109960D01*
X12901729Y-11109960D02*
X12911253Y-11100436D01*
X12911253Y-11100436D02*
X12911253Y-11119484D01*
X12996967Y-10938531D02*
X13006491Y-10929008D01*
X13006491Y-10929008D02*
X13025539Y-10919484D01*
X13025539Y-10919484D02*
X13073158Y-10919484D01*
X13073158Y-10919484D02*
X13092205Y-10929008D01*
X13092205Y-10929008D02*
X13101729Y-10938531D01*
X13101729Y-10938531D02*
X13111253Y-10957579D01*
X13111253Y-10957579D02*
X13111253Y-10976627D01*
X13111253Y-10976627D02*
X13101729Y-11005198D01*
X13101729Y-11005198D02*
X12987443Y-11119484D01*
X12987443Y-11119484D02*
X13111253Y-11119484D01*
X13235062Y-10919484D02*
X13254110Y-10919484D01*
X13254110Y-10919484D02*
X13273158Y-10929008D01*
X13273158Y-10929008D02*
X13282682Y-10938531D01*
X13282682Y-10938531D02*
X13292205Y-10957579D01*
X13292205Y-10957579D02*
X13301729Y-10995674D01*
X13301729Y-10995674D02*
X13301729Y-11043293D01*
X13301729Y-11043293D02*
X13292205Y-11081389D01*
X13292205Y-11081389D02*
X13282682Y-11100436D01*
X13282682Y-11100436D02*
X13273158Y-11109960D01*
X13273158Y-11109960D02*
X13254110Y-11119484D01*
X13254110Y-11119484D02*
X13235062Y-11119484D01*
X13235062Y-11119484D02*
X13216015Y-11109960D01*
X13216015Y-11109960D02*
X13206491Y-11100436D01*
X13206491Y-11100436D02*
X13196967Y-11081389D01*
X13196967Y-11081389D02*
X13187443Y-11043293D01*
X13187443Y-11043293D02*
X13187443Y-10995674D01*
X13187443Y-10995674D02*
X13196967Y-10957579D01*
X13196967Y-10957579D02*
X13206491Y-10938531D01*
X13206491Y-10938531D02*
X13216015Y-10929008D01*
X13216015Y-10929008D02*
X13235062Y-10919484D01*
X13425539Y-10919484D02*
X13444586Y-10919484D01*
X13444586Y-10919484D02*
X13463634Y-10929008D01*
X13463634Y-10929008D02*
X13473158Y-10938531D01*
X13473158Y-10938531D02*
X13482682Y-10957579D01*
X13482682Y-10957579D02*
X13492205Y-10995674D01*
X13492205Y-10995674D02*
X13492205Y-11043293D01*
X13492205Y-11043293D02*
X13482682Y-11081389D01*
X13482682Y-11081389D02*
X13473158Y-11100436D01*
X13473158Y-11100436D02*
X13463634Y-11109960D01*
X13463634Y-11109960D02*
X13444586Y-11119484D01*
X13444586Y-11119484D02*
X13425539Y-11119484D01*
X13425539Y-11119484D02*
X13406491Y-11109960D01*
X13406491Y-11109960D02*
X13396967Y-11100436D01*
X13396967Y-11100436D02*
X13387443Y-11081389D01*
X13387443Y-11081389D02*
X13377920Y-11043293D01*
X13377920Y-11043293D02*
X13377920Y-10995674D01*
X13377920Y-10995674D02*
X13387443Y-10957579D01*
X13387443Y-10957579D02*
X13396967Y-10938531D01*
X13396967Y-10938531D02*
X13406491Y-10929008D01*
X13406491Y-10929008D02*
X13425539Y-10919484D01*
X13577920Y-11119484D02*
X13577920Y-10986150D01*
X13577920Y-11005198D02*
X13587443Y-10995674D01*
X13587443Y-10995674D02*
X13606491Y-10986150D01*
X13606491Y-10986150D02*
X13635063Y-10986150D01*
X13635063Y-10986150D02*
X13654110Y-10995674D01*
X13654110Y-10995674D02*
X13663634Y-11014722D01*
X13663634Y-11014722D02*
X13663634Y-11119484D01*
X13663634Y-11014722D02*
X13673158Y-10995674D01*
X13673158Y-10995674D02*
X13692205Y-10986150D01*
X13692205Y-10986150D02*
X13720777Y-10986150D01*
X13720777Y-10986150D02*
X13739824Y-10995674D01*
X13739824Y-10995674D02*
X13749348Y-11014722D01*
X13749348Y-11014722D02*
X13749348Y-11119484D01*
X13844586Y-11119484D02*
X13844586Y-10986150D01*
X13844586Y-11005198D02*
X13854110Y-10995674D01*
X13854110Y-10995674D02*
X13873158Y-10986150D01*
X13873158Y-10986150D02*
X13901729Y-10986150D01*
X13901729Y-10986150D02*
X13920777Y-10995674D01*
X13920777Y-10995674D02*
X13930301Y-11014722D01*
X13930301Y-11014722D02*
X13930301Y-11119484D01*
X13930301Y-11014722D02*
X13939824Y-10995674D01*
X13939824Y-10995674D02*
X13958872Y-10986150D01*
X13958872Y-10986150D02*
X13987443Y-10986150D01*
X13987443Y-10986150D02*
X14006491Y-10995674D01*
X14006491Y-10995674D02*
X14016015Y-11014722D01*
X14016015Y-11014722D02*
X14016015Y-11119484D01*
X14406491Y-10909960D02*
X14235063Y-11167103D01*
X14663634Y-10919484D02*
X14682682Y-10919484D01*
X14682682Y-10919484D02*
X14701729Y-10929008D01*
X14701729Y-10929008D02*
X14711253Y-10938531D01*
X14711253Y-10938531D02*
X14720777Y-10957579D01*
X14720777Y-10957579D02*
X14730301Y-10995674D01*
X14730301Y-10995674D02*
X14730301Y-11043293D01*
X14730301Y-11043293D02*
X14720777Y-11081389D01*
X14720777Y-11081389D02*
X14711253Y-11100436D01*
X14711253Y-11100436D02*
X14701729Y-11109960D01*
X14701729Y-11109960D02*
X14682682Y-11119484D01*
X14682682Y-11119484D02*
X14663634Y-11119484D01*
X14663634Y-11119484D02*
X14644586Y-11109960D01*
X14644586Y-11109960D02*
X14635063Y-11100436D01*
X14635063Y-11100436D02*
X14625539Y-11081389D01*
X14625539Y-11081389D02*
X14616015Y-11043293D01*
X14616015Y-11043293D02*
X14616015Y-10995674D01*
X14616015Y-10995674D02*
X14625539Y-10957579D01*
X14625539Y-10957579D02*
X14635063Y-10938531D01*
X14635063Y-10938531D02*
X14644586Y-10929008D01*
X14644586Y-10929008D02*
X14663634Y-10919484D01*
X14816015Y-11100436D02*
X14825539Y-11109960D01*
X14825539Y-11109960D02*
X14816015Y-11119484D01*
X14816015Y-11119484D02*
X14806491Y-11109960D01*
X14806491Y-11109960D02*
X14816015Y-11100436D01*
X14816015Y-11100436D02*
X14816015Y-11119484D01*
X14949348Y-10919484D02*
X14968396Y-10919484D01*
X14968396Y-10919484D02*
X14987444Y-10929008D01*
X14987444Y-10929008D02*
X14996967Y-10938531D01*
X14996967Y-10938531D02*
X15006491Y-10957579D01*
X15006491Y-10957579D02*
X15016015Y-10995674D01*
X15016015Y-10995674D02*
X15016015Y-11043293D01*
X15016015Y-11043293D02*
X15006491Y-11081389D01*
X15006491Y-11081389D02*
X14996967Y-11100436D01*
X14996967Y-11100436D02*
X14987444Y-11109960D01*
X14987444Y-11109960D02*
X14968396Y-11119484D01*
X14968396Y-11119484D02*
X14949348Y-11119484D01*
X14949348Y-11119484D02*
X14930301Y-11109960D01*
X14930301Y-11109960D02*
X14920777Y-11100436D01*
X14920777Y-11100436D02*
X14911253Y-11081389D01*
X14911253Y-11081389D02*
X14901729Y-11043293D01*
X14901729Y-11043293D02*
X14901729Y-10995674D01*
X14901729Y-10995674D02*
X14911253Y-10957579D01*
X14911253Y-10957579D02*
X14920777Y-10938531D01*
X14920777Y-10938531D02*
X14930301Y-10929008D01*
X14930301Y-10929008D02*
X14949348Y-10919484D01*
X15130301Y-11005198D02*
X15111253Y-10995674D01*
X15111253Y-10995674D02*
X15101729Y-10986150D01*
X15101729Y-10986150D02*
X15092206Y-10967103D01*
X15092206Y-10967103D02*
X15092206Y-10957579D01*
X15092206Y-10957579D02*
X15101729Y-10938531D01*
X15101729Y-10938531D02*
X15111253Y-10929008D01*
X15111253Y-10929008D02*
X15130301Y-10919484D01*
X15130301Y-10919484D02*
X15168396Y-10919484D01*
X15168396Y-10919484D02*
X15187444Y-10929008D01*
X15187444Y-10929008D02*
X15196967Y-10938531D01*
X15196967Y-10938531D02*
X15206491Y-10957579D01*
X15206491Y-10957579D02*
X15206491Y-10967103D01*
X15206491Y-10967103D02*
X15196967Y-10986150D01*
X15196967Y-10986150D02*
X15187444Y-10995674D01*
X15187444Y-10995674D02*
X15168396Y-11005198D01*
X15168396Y-11005198D02*
X15130301Y-11005198D01*
X15130301Y-11005198D02*
X15111253Y-11014722D01*
X15111253Y-11014722D02*
X15101729Y-11024246D01*
X15101729Y-11024246D02*
X15092206Y-11043293D01*
X15092206Y-11043293D02*
X15092206Y-11081389D01*
X15092206Y-11081389D02*
X15101729Y-11100436D01*
X15101729Y-11100436D02*
X15111253Y-11109960D01*
X15111253Y-11109960D02*
X15130301Y-11119484D01*
X15130301Y-11119484D02*
X15168396Y-11119484D01*
X15168396Y-11119484D02*
X15187444Y-11109960D01*
X15187444Y-11109960D02*
X15196967Y-11100436D01*
X15196967Y-11100436D02*
X15206491Y-11081389D01*
X15206491Y-11081389D02*
X15206491Y-11043293D01*
X15206491Y-11043293D02*
X15196967Y-11024246D01*
X15196967Y-11024246D02*
X15187444Y-11014722D01*
X15187444Y-11014722D02*
X15168396Y-11005198D01*
X15377920Y-10919484D02*
X15339825Y-10919484D01*
X15339825Y-10919484D02*
X15320777Y-10929008D01*
X15320777Y-10929008D02*
X15311253Y-10938531D01*
X15311253Y-10938531D02*
X15292206Y-10967103D01*
X15292206Y-10967103D02*
X15282682Y-11005198D01*
X15282682Y-11005198D02*
X15282682Y-11081389D01*
X15282682Y-11081389D02*
X15292206Y-11100436D01*
X15292206Y-11100436D02*
X15301729Y-11109960D01*
X15301729Y-11109960D02*
X15320777Y-11119484D01*
X15320777Y-11119484D02*
X15358872Y-11119484D01*
X15358872Y-11119484D02*
X15377920Y-11109960D01*
X15377920Y-11109960D02*
X15387444Y-11100436D01*
X15387444Y-11100436D02*
X15396967Y-11081389D01*
X15396967Y-11081389D02*
X15396967Y-11033770D01*
X15396967Y-11033770D02*
X15387444Y-11014722D01*
X15387444Y-11014722D02*
X15377920Y-11005198D01*
X15377920Y-11005198D02*
X15358872Y-10995674D01*
X15358872Y-10995674D02*
X15320777Y-10995674D01*
X15320777Y-10995674D02*
X15301729Y-11005198D01*
X15301729Y-11005198D02*
X15292206Y-11014722D01*
X15292206Y-11014722D02*
X15282682Y-11033770D01*
X15568396Y-10919484D02*
X15530301Y-10919484D01*
X15530301Y-10919484D02*
X15511253Y-10929008D01*
X15511253Y-10929008D02*
X15501729Y-10938531D01*
X15501729Y-10938531D02*
X15482682Y-10967103D01*
X15482682Y-10967103D02*
X15473158Y-11005198D01*
X15473158Y-11005198D02*
X15473158Y-11081389D01*
X15473158Y-11081389D02*
X15482682Y-11100436D01*
X15482682Y-11100436D02*
X15492206Y-11109960D01*
X15492206Y-11109960D02*
X15511253Y-11119484D01*
X15511253Y-11119484D02*
X15549348Y-11119484D01*
X15549348Y-11119484D02*
X15568396Y-11109960D01*
X15568396Y-11109960D02*
X15577920Y-11100436D01*
X15577920Y-11100436D02*
X15587444Y-11081389D01*
X15587444Y-11081389D02*
X15587444Y-11033770D01*
X15587444Y-11033770D02*
X15577920Y-11014722D01*
X15577920Y-11014722D02*
X15568396Y-11005198D01*
X15568396Y-11005198D02*
X15549348Y-10995674D01*
X15549348Y-10995674D02*
X15511253Y-10995674D01*
X15511253Y-10995674D02*
X15492206Y-11005198D01*
X15492206Y-11005198D02*
X15482682Y-11014722D01*
X15482682Y-11014722D02*
X15473158Y-11033770D01*
X15663634Y-10919484D02*
X15663634Y-10957579D01*
X15739825Y-10919484D02*
X15739825Y-10957579D01*
X16035063Y-11195674D02*
X16025539Y-11186150D01*
X16025539Y-11186150D02*
X16006491Y-11157579D01*
X16006491Y-11157579D02*
X15996968Y-11138531D01*
X15996968Y-11138531D02*
X15987444Y-11109960D01*
X15987444Y-11109960D02*
X15977920Y-11062341D01*
X15977920Y-11062341D02*
X15977920Y-11024246D01*
X15977920Y-11024246D02*
X15987444Y-10976627D01*
X15987444Y-10976627D02*
X15996968Y-10948055D01*
X15996968Y-10948055D02*
X16006491Y-10929008D01*
X16006491Y-10929008D02*
X16025539Y-10900436D01*
X16025539Y-10900436D02*
X16035063Y-10890912D01*
X16196968Y-10986150D02*
X16196968Y-11119484D01*
X16149348Y-10909960D02*
X16101729Y-11052817D01*
X16101729Y-11052817D02*
X16225539Y-11052817D01*
X16454110Y-11119484D02*
X16454110Y-10919484D01*
X16539825Y-11119484D02*
X16539825Y-11014722D01*
X16539825Y-11014722D02*
X16530301Y-10995674D01*
X16530301Y-10995674D02*
X16511253Y-10986150D01*
X16511253Y-10986150D02*
X16482682Y-10986150D01*
X16482682Y-10986150D02*
X16463634Y-10995674D01*
X16463634Y-10995674D02*
X16454110Y-11005198D01*
X16663634Y-11119484D02*
X16644587Y-11109960D01*
X16644587Y-11109960D02*
X16635063Y-11100436D01*
X16635063Y-11100436D02*
X16625539Y-11081389D01*
X16625539Y-11081389D02*
X16625539Y-11024246D01*
X16625539Y-11024246D02*
X16635063Y-11005198D01*
X16635063Y-11005198D02*
X16644587Y-10995674D01*
X16644587Y-10995674D02*
X16663634Y-10986150D01*
X16663634Y-10986150D02*
X16692206Y-10986150D01*
X16692206Y-10986150D02*
X16711253Y-10995674D01*
X16711253Y-10995674D02*
X16720777Y-11005198D01*
X16720777Y-11005198D02*
X16730301Y-11024246D01*
X16730301Y-11024246D02*
X16730301Y-11081389D01*
X16730301Y-11081389D02*
X16720777Y-11100436D01*
X16720777Y-11100436D02*
X16711253Y-11109960D01*
X16711253Y-11109960D02*
X16692206Y-11119484D01*
X16692206Y-11119484D02*
X16663634Y-11119484D01*
X16844587Y-11119484D02*
X16825539Y-11109960D01*
X16825539Y-11109960D02*
X16816015Y-11090912D01*
X16816015Y-11090912D02*
X16816015Y-10919484D01*
X16996968Y-11109960D02*
X16977920Y-11119484D01*
X16977920Y-11119484D02*
X16939825Y-11119484D01*
X16939825Y-11119484D02*
X16920777Y-11109960D01*
X16920777Y-11109960D02*
X16911253Y-11090912D01*
X16911253Y-11090912D02*
X16911253Y-11014722D01*
X16911253Y-11014722D02*
X16920777Y-10995674D01*
X16920777Y-10995674D02*
X16939825Y-10986150D01*
X16939825Y-10986150D02*
X16977920Y-10986150D01*
X16977920Y-10986150D02*
X16996968Y-10995674D01*
X16996968Y-10995674D02*
X17006492Y-11014722D01*
X17006492Y-11014722D02*
X17006492Y-11033770D01*
X17006492Y-11033770D02*
X16911253Y-11052817D01*
X17082682Y-11109960D02*
X17101730Y-11119484D01*
X17101730Y-11119484D02*
X17139825Y-11119484D01*
X17139825Y-11119484D02*
X17158873Y-11109960D01*
X17158873Y-11109960D02*
X17168396Y-11090912D01*
X17168396Y-11090912D02*
X17168396Y-11081389D01*
X17168396Y-11081389D02*
X17158873Y-11062341D01*
X17158873Y-11062341D02*
X17139825Y-11052817D01*
X17139825Y-11052817D02*
X17111253Y-11052817D01*
X17111253Y-11052817D02*
X17092206Y-11043293D01*
X17092206Y-11043293D02*
X17082682Y-11024246D01*
X17082682Y-11024246D02*
X17082682Y-11014722D01*
X17082682Y-11014722D02*
X17092206Y-10995674D01*
X17092206Y-10995674D02*
X17111253Y-10986150D01*
X17111253Y-10986150D02*
X17139825Y-10986150D01*
X17139825Y-10986150D02*
X17158873Y-10995674D01*
X17235063Y-11195674D02*
X17244587Y-11186150D01*
X17244587Y-11186150D02*
X17263634Y-11157579D01*
X17263634Y-11157579D02*
X17273158Y-11138531D01*
X17273158Y-11138531D02*
X17282682Y-11109960D01*
X17282682Y-11109960D02*
X17292206Y-11062341D01*
X17292206Y-11062341D02*
X17292206Y-11024246D01*
X17292206Y-11024246D02*
X17282682Y-10976627D01*
X17282682Y-10976627D02*
X17273158Y-10948055D01*
X17273158Y-10948055D02*
X17263634Y-10929008D01*
X17263634Y-10929008D02*
X17244587Y-10900436D01*
X17244587Y-10900436D02*
X17235063Y-10890912D01*
M02*
