%TF.GenerationSoftware,KiCad,Pcbnew,7.0.5-7.0.5~ubuntu22.04.1*%
%TF.CreationDate,2023-06-06T15:21:38+02:00*%
%TF.ProjectId,sao_eprom_v2,73616f5f-6570-4726-9f6d-5f76322e6b69,rev?*%
%TF.SameCoordinates,Original*%
%TF.FileFunction,Copper,L4,Bot*%
%TF.FilePolarity,Positive*%
%FSLAX46Y46*%
G04 Gerber Fmt 4.6, Leading zero omitted, Abs format (unit mm)*
G04 Created by KiCad (PCBNEW 7.0.5-7.0.5~ubuntu22.04.1) date 2023-06-06 15:21:38*
%MOMM*%
%LPD*%
G01*
G04 APERTURE LIST*
%TA.AperFunction,ComponentPad*%
%ADD10C,0.700000*%
%TD*%
%TA.AperFunction,ComponentPad*%
%ADD11C,4.400000*%
%TD*%
%TA.AperFunction,ComponentPad*%
%ADD12R,1.600000X1.600000*%
%TD*%
%TA.AperFunction,ComponentPad*%
%ADD13O,1.600000X1.600000*%
%TD*%
%TA.AperFunction,ComponentPad*%
%ADD14C,0.600000*%
%TD*%
%TA.AperFunction,ComponentPad*%
%ADD15O,2.100000X1.000000*%
%TD*%
%TA.AperFunction,ComponentPad*%
%ADD16O,1.800000X1.000000*%
%TD*%
%TA.AperFunction,ComponentPad*%
%ADD17R,1.700000X1.700000*%
%TD*%
%TA.AperFunction,ComponentPad*%
%ADD18O,1.700000X1.700000*%
%TD*%
%TA.AperFunction,ViaPad*%
%ADD19C,0.800000*%
%TD*%
%TA.AperFunction,ViaPad*%
%ADD20C,0.600000*%
%TD*%
%TA.AperFunction,Conductor*%
%ADD21C,0.250000*%
%TD*%
%TA.AperFunction,Conductor*%
%ADD22C,0.200000*%
%TD*%
G04 APERTURE END LIST*
D10*
%TO.P,H3,1,1*%
%TO.N,GND*%
X185600000Y-32750000D03*
X186083274Y-31583274D03*
X186083274Y-33916726D03*
X187250000Y-31100000D03*
D11*
X187250000Y-32750000D03*
D10*
X187250000Y-34400000D03*
X188416726Y-31583274D03*
X188416726Y-33916726D03*
X188900000Y-32750000D03*
%TD*%
%TO.P,H4,1,1*%
%TO.N,GND*%
X185600000Y-82850000D03*
X186083274Y-81683274D03*
X186083274Y-84016726D03*
X187250000Y-81200000D03*
D11*
X187250000Y-82850000D03*
D10*
X187250000Y-84500000D03*
X188416726Y-81683274D03*
X188416726Y-84016726D03*
X188900000Y-82850000D03*
%TD*%
D12*
%TO.P,U5,1,A15/VppA*%
%TO.N,/EPROM and level shifters/Q15*%
X166000000Y-41250000D03*
D13*
%TO.P,U5,2,A12*%
%TO.N,/EPROM and level shifters/Q12*%
X166000000Y-43790000D03*
%TO.P,U5,3,A7*%
%TO.N,/EPROM and level shifters/Q7*%
X166000000Y-46330000D03*
%TO.P,U5,4,A6*%
%TO.N,/EPROM and level shifters/Q6*%
X166000000Y-48870000D03*
%TO.P,U5,5,A5*%
%TO.N,/EPROM and level shifters/Q5*%
X166000000Y-51410000D03*
%TO.P,U5,6,A4*%
%TO.N,/EPROM and level shifters/Q4*%
X166000000Y-53950000D03*
%TO.P,U5,7,A3*%
%TO.N,/EPROM and level shifters/Q3*%
X166000000Y-56490000D03*
%TO.P,U5,8,A2*%
%TO.N,/EPROM and level shifters/Q2*%
X166000000Y-59030000D03*
%TO.P,U5,9,A1*%
%TO.N,/EPROM and level shifters/Q1*%
X166000000Y-61570000D03*
%TO.P,U5,10,A0*%
%TO.N,/EPROM and level shifters/Q0*%
X166000000Y-64110000D03*
%TO.P,U5,11,D0*%
%TO.N,/EPROM and level shifters/D0H*%
X166000000Y-66650000D03*
%TO.P,U5,12,D1*%
%TO.N,/EPROM and level shifters/D1H*%
X166000000Y-69190000D03*
%TO.P,U5,13,D2*%
%TO.N,/EPROM and level shifters/D2H*%
X166000000Y-71730000D03*
%TO.P,U5,14,GND*%
%TO.N,GND*%
X166000000Y-74270000D03*
%TO.P,U5,15,D3*%
%TO.N,/EPROM and level shifters/D3H*%
X181240000Y-74270000D03*
%TO.P,U5,16,D4*%
%TO.N,/EPROM and level shifters/D4H*%
X181240000Y-71730000D03*
%TO.P,U5,17,D5*%
%TO.N,/EPROM and level shifters/D5H*%
X181240000Y-69190000D03*
%TO.P,U5,18,D6*%
%TO.N,/EPROM and level shifters/D6H*%
X181240000Y-66650000D03*
%TO.P,U5,19,D7*%
%TO.N,/EPROM and level shifters/D7H*%
X181240000Y-64110000D03*
%TO.P,U5,20,~{CE}*%
%TO.N,GND*%
X181240000Y-61570000D03*
%TO.P,U5,21,A10*%
%TO.N,/EPROM and level shifters/Q10*%
X181240000Y-59030000D03*
%TO.P,U5,22,~{OE}/VppB*%
%TO.N,/EPROM and level shifters/VppB*%
X181240000Y-56490000D03*
%TO.P,U5,23,A11*%
%TO.N,/EPROM and level shifters/Q11*%
X181240000Y-53950000D03*
%TO.P,U5,24,A9/Vdet*%
%TO.N,/EPROM and level shifters/Q9*%
X181240000Y-51410000D03*
%TO.P,U5,25,A8*%
%TO.N,/EPROM and level shifters/Q8*%
X181240000Y-48870000D03*
%TO.P,U5,26,A13*%
%TO.N,/EPROM and level shifters/Q13*%
X181240000Y-46330000D03*
%TO.P,U5,27,A14*%
%TO.N,/EPROM and level shifters/Q14*%
X181240000Y-43790000D03*
%TO.P,U5,28,Vcc*%
%TO.N,+5V*%
X181240000Y-41250000D03*
%TD*%
D14*
%TO.P,U2,57,GND*%
%TO.N,GND*%
X141020000Y-62370000D03*
X141020000Y-61100000D03*
X141020000Y-59830000D03*
X139750000Y-62370000D03*
X139750000Y-61100000D03*
X139750000Y-59830000D03*
X138480000Y-62370000D03*
X138480000Y-61100000D03*
X138480000Y-59830000D03*
%TD*%
D10*
%TO.P,H2,1,1*%
%TO.N,GND*%
X125500000Y-82850000D03*
X125983274Y-81683274D03*
X125983274Y-84016726D03*
X127150000Y-81200000D03*
D11*
X127150000Y-82850000D03*
D10*
X127150000Y-84500000D03*
X128316726Y-81683274D03*
X128316726Y-84016726D03*
X128800000Y-82850000D03*
%TD*%
%TO.P,H1,1,1*%
%TO.N,GND*%
X125500000Y-32750000D03*
X125983274Y-31583274D03*
X125983274Y-33916726D03*
X127150000Y-31100000D03*
D11*
X127150000Y-32750000D03*
D10*
X127150000Y-34400000D03*
X128316726Y-31583274D03*
X128316726Y-33916726D03*
X128800000Y-32750000D03*
%TD*%
D15*
%TO.P,J2,S1,SHIELD*%
%TO.N,GND*%
X131650000Y-70430000D03*
D16*
X127450000Y-70430000D03*
D15*
X131650000Y-79070000D03*
D16*
X127450000Y-79070000D03*
%TD*%
D17*
%TO.P,J1,1,Pin_1*%
%TO.N,/SWD_DATA*%
X132460000Y-32750000D03*
D18*
%TO.P,J1,2,Pin_2*%
%TO.N,GND*%
X135000000Y-32750000D03*
%TO.P,J1,3,Pin_3*%
%TO.N,/SWD_CLK*%
X137540000Y-32750000D03*
%TD*%
D17*
%TO.P,J3,1,3V3*%
%TO.N,+3V3*%
X129960000Y-38980000D03*
D18*
%TO.P,J3,2,GND*%
%TO.N,GND*%
X129960000Y-41535000D03*
%TO.P,J3,3,SDA*%
%TO.N,SDA*%
X132500000Y-38980000D03*
%TO.P,J3,4,SCL*%
%TO.N,SCL*%
X132500000Y-41535000D03*
%TO.P,J3,5,IO1*%
%TO.N,unconnected-(J3-IO1-Pad5)*%
X135040000Y-38980000D03*
%TO.P,J3,6,IO2*%
%TO.N,unconnected-(J3-IO2-Pad6)*%
X135040000Y-41535000D03*
%TD*%
D19*
%TO.N,GND*%
X134100000Y-68675000D03*
D20*
X178750000Y-46500000D03*
X151750000Y-77000000D03*
X178750000Y-41250000D03*
X158750000Y-43750000D03*
X152500000Y-60350000D03*
D19*
X154750000Y-67725000D03*
D20*
X167750000Y-41250000D03*
D19*
X157000000Y-36000000D03*
D20*
X151750000Y-69250000D03*
D19*
X133450000Y-71550000D03*
D20*
X148700000Y-64264574D03*
X148700000Y-60350000D03*
D19*
X154475000Y-79100000D03*
D20*
X167750000Y-46500000D03*
X167750000Y-43750000D03*
D19*
X133450000Y-77950000D03*
X139850000Y-84150000D03*
D20*
X131000000Y-63950000D03*
X149750000Y-77000000D03*
X144750000Y-50750000D03*
X149750000Y-69250000D03*
X131000000Y-59850000D03*
X158750000Y-41250000D03*
D19*
X137100000Y-78400000D03*
D20*
X178750000Y-43750000D03*
D19*
X141900000Y-68675000D03*
D20*
X153250000Y-60350000D03*
D19*
X148250000Y-36000000D03*
D20*
X141050000Y-54675000D03*
D19*
%TO.N,VBUS*%
X134002084Y-77146969D03*
X134002084Y-72353031D03*
X139750000Y-82150000D03*
%TO.N,+5V*%
X163250000Y-31250000D03*
X160475000Y-76425000D03*
%TO.N,/EPROM and level shifters/VppB*%
X155000000Y-52500000D03*
D20*
%TO.N,/EPROM and level shifters/~{OE}*%
X136250000Y-57000000D03*
X155750000Y-47250000D03*
%TO.N,Net-(J2-CC1)*%
X140000000Y-74500000D03*
X133400500Y-73500000D03*
%TO.N,SBU1*%
X131000000Y-76000000D03*
X129000000Y-63550000D03*
%TO.N,Net-(J2-CC2)*%
X141000000Y-74500000D03*
X133400500Y-76250000D03*
%TO.N,/Power generation/VppAEN*%
X126875000Y-61000000D03*
X140250000Y-42500000D03*
%TO.N,/Power generation/VppBEN*%
X126875000Y-62000000D03*
X140250000Y-46500000D03*
%TO.N,/Power generation/VdetEN*%
X140250000Y-50500000D03*
X127750000Y-62375000D03*
%TO.N,/EPROM and level shifters/A0*%
X148250000Y-59700000D03*
X148250000Y-45200000D03*
%TO.N,/EPROM and level shifters/A1*%
X149000000Y-59050000D03*
X149000000Y-44550000D03*
%TO.N,/EPROM and level shifters/A2*%
X149750000Y-58400000D03*
X149750000Y-43900000D03*
%TO.N,/EPROM and level shifters/A3*%
X150500000Y-43250000D03*
X150500000Y-57750000D03*
%TO.N,/EPROM and level shifters/A4*%
X151250000Y-42600000D03*
X151250000Y-57100000D03*
%TO.N,/EPROM and level shifters/A5*%
X152012036Y-56429137D03*
X152012036Y-41929137D03*
%TO.N,/EPROM and level shifters/A6*%
X152750000Y-55800000D03*
X152750000Y-41300000D03*
%TO.N,/EPROM and level shifters/A7*%
X153500000Y-40650000D03*
X153500000Y-55150000D03*
%TO.N,/EPROM and level shifters/D0*%
X160375000Y-65075000D03*
X156425000Y-73700000D03*
%TO.N,/EPROM and level shifters/D1*%
X156000000Y-73050000D03*
X159750000Y-64500000D03*
%TO.N,/EPROM and level shifters/D2*%
X156425000Y-72400000D03*
X159125000Y-63925000D03*
%TO.N,/EPROM and level shifters/D3*%
X156000000Y-71750000D03*
X158500000Y-63350000D03*
%TO.N,/EPROM and level shifters/D4*%
X156425000Y-71100000D03*
X157875000Y-62775000D03*
%TO.N,/EPROM and level shifters/D5*%
X156000000Y-70450000D03*
X157250000Y-62200000D03*
%TO.N,/EPROM and level shifters/D6*%
X156425000Y-69800000D03*
X156625000Y-61625000D03*
%TO.N,/EPROM and level shifters/D7*%
X156000000Y-61000000D03*
X156000000Y-69150000D03*
D19*
%TO.N,+3V3*%
X142850000Y-78900000D03*
D20*
X146550000Y-54375000D03*
D19*
X135600979Y-80931270D03*
X158000000Y-32750000D03*
X150800000Y-35450000D03*
X159550000Y-35450000D03*
D20*
X134000000Y-59850000D03*
X136250000Y-55000000D03*
D19*
X149250000Y-32750000D03*
X160475000Y-53725000D03*
X159550000Y-37625000D03*
D20*
X139550000Y-55600000D03*
X134000000Y-63950000D03*
D19*
X150800000Y-37625000D03*
X160475000Y-39225000D03*
X154750000Y-76425000D03*
X145900000Y-83800000D03*
X133750000Y-46500000D03*
D20*
%TO.N,/EPROM and level shifters/OE*%
X136250000Y-56000000D03*
X159250000Y-75000000D03*
%TO.N,/EPROM and level shifters/ALS*%
X159250000Y-60350000D03*
X135750000Y-57750000D03*
%TO.N,/EPROM and level shifters/AHS*%
X147500000Y-47500000D03*
X134750000Y-57750000D03*
X159250000Y-45850000D03*
%TO.N,SDA*%
X134001231Y-57250000D03*
X136250000Y-51925000D03*
%TO.N,SCL*%
X133250000Y-57750000D03*
X135500000Y-50650000D03*
%TO.N,SBU2*%
X130000000Y-63550000D03*
X131000000Y-73000000D03*
%TO.N,+1V1*%
X139150000Y-59025498D03*
X138200000Y-63350000D03*
X138550000Y-55600000D03*
X140400000Y-66600000D03*
D19*
%TO.N,/EPROM and level shifters/Q15*%
X157500000Y-52500000D03*
%TO.N,/EPROM and level shifters/Q9*%
X160000000Y-52500000D03*
D20*
%TO.N,/EPROM and level shifters/Q11*%
X161750000Y-43250000D03*
%TO.N,/EPROM and level shifters/Q10*%
X161750000Y-44250000D03*
%TO.N,/EPROM and level shifters/D2H*%
X162000000Y-72925497D03*
%TO.N,/EPROM and level shifters/D1H*%
X162000000Y-73700000D03*
%TO.N,/EPROM and level shifters/D0H*%
X162000000Y-74474503D03*
%TD*%
D21*
%TO.N,GND*%
X138480000Y-61100000D02*
X139750000Y-62370000D01*
X139750000Y-62370000D02*
X141020000Y-61100000D01*
X138480000Y-62370000D02*
X139750000Y-61100000D01*
X139750000Y-61100000D02*
X141020000Y-62370000D01*
%TO.N,VBUS*%
X134000000Y-77144885D02*
X134000000Y-72355115D01*
X134250000Y-81900000D02*
X134250000Y-77394885D01*
X134002084Y-77146969D02*
X134000000Y-77144885D01*
X139750000Y-82150000D02*
X134500000Y-82150000D01*
X134000000Y-72355115D02*
X134002084Y-72353031D01*
X134500000Y-82150000D02*
X134250000Y-81900000D01*
X134250000Y-77394885D02*
X134002084Y-77146969D01*
D22*
%TO.N,SBU1*%
X128969307Y-67812500D02*
X129062500Y-67812500D01*
X129062500Y-65937500D02*
X128969325Y-65937500D01*
X129062500Y-64437500D02*
X128969325Y-64437500D01*
X128969325Y-68562500D02*
X129062500Y-68562500D01*
X128969307Y-65562500D02*
X129062500Y-65562500D01*
X128969325Y-66312500D02*
X129062500Y-66312500D01*
X129250000Y-75750000D02*
X129500000Y-76000000D01*
X129500000Y-76000000D02*
X131000000Y-76000000D01*
X129062500Y-65187500D02*
X128969307Y-65187500D01*
X129250000Y-68750000D02*
X129250000Y-68769333D01*
X129062500Y-66687500D02*
X128969307Y-66687500D01*
X128969325Y-64812500D02*
X129062500Y-64812500D01*
X129250000Y-68769333D02*
X129250000Y-75750000D01*
X129250000Y-63800000D02*
X129250000Y-64250000D01*
X129062500Y-68187500D02*
X128969325Y-68187500D01*
X129062500Y-67437500D02*
X128969307Y-67437500D01*
X128969307Y-67062500D02*
X129062500Y-67062500D01*
X129000000Y-63550000D02*
X129250000Y-63800000D01*
X129062500Y-68187500D02*
G75*
G03*
X129250000Y-68000000I0J187500D01*
G01*
X129250000Y-68000000D02*
G75*
G03*
X129062500Y-67812500I-187500J0D01*
G01*
X128781800Y-67625000D02*
G75*
G03*
X128969307Y-67812500I187500J0D01*
G01*
X128781800Y-65375000D02*
G75*
G03*
X128969307Y-65562500I187500J0D01*
G01*
X129062500Y-66687500D02*
G75*
G03*
X129250000Y-66500000I0J187500D01*
G01*
X128781800Y-66875000D02*
G75*
G03*
X128969307Y-67062500I187500J0D01*
G01*
X128969325Y-64437525D02*
G75*
G03*
X128781825Y-64625000I-25J-187475D01*
G01*
X128969325Y-65937525D02*
G75*
G03*
X128781825Y-66125000I-25J-187475D01*
G01*
X129062500Y-64437500D02*
G75*
G03*
X129250000Y-64250000I0J187500D01*
G01*
X128969307Y-66687507D02*
G75*
G03*
X128781807Y-66875000I-7J-187493D01*
G01*
X129062500Y-67437500D02*
G75*
G03*
X129250000Y-67250000I0J187500D01*
G01*
X128781800Y-68375000D02*
G75*
G03*
X128969325Y-68562500I187500J0D01*
G01*
X128781800Y-66125000D02*
G75*
G03*
X128969325Y-66312500I187500J0D01*
G01*
X129250000Y-66500000D02*
G75*
G03*
X129062500Y-66312500I-187500J0D01*
G01*
X128969307Y-67437507D02*
G75*
G03*
X128781807Y-67625000I-7J-187493D01*
G01*
X128969325Y-68187525D02*
G75*
G03*
X128781825Y-68375000I-25J-187475D01*
G01*
X129062500Y-65937500D02*
G75*
G03*
X129250000Y-65750000I0J187500D01*
G01*
X129250000Y-67250000D02*
G75*
G03*
X129062500Y-67062500I-187500J0D01*
G01*
X129062500Y-65187500D02*
G75*
G03*
X129250000Y-65000000I0J187500D01*
G01*
X129250000Y-68750000D02*
G75*
G03*
X129062500Y-68562500I-187500J0D01*
G01*
X129250000Y-65000000D02*
G75*
G03*
X129062500Y-64812500I-187500J0D01*
G01*
X128969307Y-65187507D02*
G75*
G03*
X128781807Y-65375000I-7J-187493D01*
G01*
X128781800Y-64625000D02*
G75*
G03*
X128969325Y-64812500I187500J0D01*
G01*
X129250000Y-65750000D02*
G75*
G03*
X129062500Y-65562500I-187500J0D01*
G01*
%TO.N,/EPROM and level shifters/A0*%
X148250000Y-45200000D02*
X148250000Y-59700000D01*
%TO.N,/EPROM and level shifters/A1*%
X149000000Y-59050000D02*
X149000000Y-44550000D01*
%TO.N,/EPROM and level shifters/A2*%
X149750000Y-43900000D02*
X149750000Y-58400000D01*
%TO.N,/EPROM and level shifters/A3*%
X150500000Y-57750000D02*
X150500000Y-43250000D01*
%TO.N,/EPROM and level shifters/A4*%
X151250000Y-42600000D02*
X151250000Y-57100000D01*
%TO.N,/EPROM and level shifters/A5*%
X152000000Y-56450000D02*
X152000000Y-41950000D01*
%TO.N,/EPROM and level shifters/A6*%
X152750000Y-41300000D02*
X152750000Y-55800000D01*
%TO.N,/EPROM and level shifters/A7*%
X153500000Y-55150000D02*
X153500000Y-40650000D01*
%TO.N,/EPROM and level shifters/D0*%
X160375000Y-73450000D02*
X160125000Y-73700000D01*
X160375000Y-65075000D02*
X160375000Y-73450000D01*
X160125000Y-73700000D02*
X156425000Y-73700000D01*
%TO.N,/EPROM and level shifters/D1*%
X159750000Y-64500000D02*
X159750000Y-72800000D01*
X159750000Y-72800000D02*
X159500000Y-73050000D01*
X159500000Y-73050000D02*
X156000000Y-73050000D01*
%TO.N,/EPROM and level shifters/D2*%
X159125000Y-63925000D02*
X159125000Y-72150000D01*
X158875000Y-72400000D02*
X156425000Y-72400000D01*
X159125000Y-72150000D02*
X158875000Y-72400000D01*
%TO.N,/EPROM and level shifters/D3*%
X158250000Y-71750000D02*
X156000000Y-71750000D01*
X158500000Y-63350000D02*
X158500000Y-71500000D01*
X158500000Y-71500000D02*
X158250000Y-71750000D01*
%TO.N,/EPROM and level shifters/D4*%
X157875000Y-70850000D02*
X157625000Y-71100000D01*
X157875000Y-62775000D02*
X157875000Y-70850000D01*
X157625000Y-71100000D02*
X156425000Y-71100000D01*
%TO.N,/EPROM and level shifters/D5*%
X157250000Y-62200000D02*
X157250000Y-70200000D01*
X157000000Y-70450000D02*
X156000000Y-70450000D01*
X157250000Y-70200000D02*
X157000000Y-70450000D01*
%TO.N,/EPROM and level shifters/D6*%
X156625000Y-61625000D02*
X156625000Y-69600000D01*
X156625000Y-69600000D02*
X156425000Y-69800000D01*
%TO.N,/EPROM and level shifters/D7*%
X156000000Y-69150000D02*
X156000000Y-61000000D01*
%TO.N,/EPROM and level shifters/AHS*%
X147250000Y-60500000D02*
X147500000Y-60250000D01*
X134750000Y-57750000D02*
X134750000Y-60250000D01*
X135000000Y-60500000D02*
X147250000Y-60500000D01*
X134750000Y-60250000D02*
X135000000Y-60500000D01*
X147500000Y-60250000D02*
X147500000Y-47500000D01*
%TO.N,SDA*%
X132500000Y-38980000D02*
X133750000Y-40230000D01*
X136000000Y-54250000D02*
X136250000Y-54000000D01*
X134001231Y-57250000D02*
X134001231Y-55902680D01*
X133750000Y-43500000D02*
X134000000Y-43750000D01*
X136250000Y-54000000D02*
X136250000Y-51925000D01*
X133750000Y-40230000D02*
X133750000Y-43500000D01*
X134000000Y-43750000D02*
X136000000Y-43750000D01*
X134971364Y-55050000D02*
X134300000Y-55050000D01*
X134000000Y-54750000D02*
X134000000Y-54500000D01*
X136000000Y-43750000D02*
X136250000Y-44000000D01*
X134250000Y-54250000D02*
X136000000Y-54250000D01*
X134000000Y-54500000D02*
X134250000Y-54250000D01*
X136250000Y-44000000D02*
X136250000Y-51925000D01*
X134300000Y-55650000D02*
X134971364Y-55650000D01*
X135271400Y-55350000D02*
G75*
G03*
X134971364Y-55050000I-300000J0D01*
G01*
X134000000Y-54750000D02*
G75*
G03*
X134300000Y-55050000I300000J0D01*
G01*
X134971364Y-55649964D02*
G75*
G03*
X135271364Y-55350000I36J299964D01*
G01*
X134300000Y-55650068D02*
G75*
G03*
X134001232Y-55902680I1900J-305232D01*
G01*
%TO.N,SCL*%
X133248769Y-55902680D02*
X133248769Y-57748769D01*
X135673470Y-45673470D02*
X135673471Y-45673470D01*
X132500000Y-44000000D02*
X132750000Y-44250000D01*
X135846923Y-47348461D02*
X135846923Y-47376539D01*
X135846941Y-45846940D02*
X135846941Y-45876530D01*
X135673471Y-46050000D02*
X135326318Y-46050000D01*
X133250000Y-54000000D02*
X133250000Y-54750000D01*
X132727589Y-55650000D02*
X132950000Y-55650000D01*
X133248769Y-57748769D02*
X133250000Y-57750000D01*
X135847363Y-46598681D02*
X135847363Y-46626319D01*
X135500000Y-47723461D02*
X135500000Y-50650000D01*
X135500000Y-50650000D02*
X135500000Y-53500000D01*
X133500000Y-53750000D02*
X133250000Y-54000000D01*
X132950000Y-55050000D02*
X132727589Y-55050000D01*
X135500000Y-53500000D02*
X135250000Y-53750000D01*
X135250000Y-53750000D02*
X133500000Y-53750000D01*
X135152637Y-46223681D02*
X135152637Y-46251319D01*
X135673462Y-47550000D02*
X135673461Y-47550000D01*
X135250000Y-44250000D02*
X135500000Y-44500000D01*
X135500000Y-44500000D02*
X135500000Y-45500000D01*
X135673682Y-46800000D02*
X135326318Y-46800000D01*
X135326318Y-47175000D02*
X135673462Y-47175000D01*
X132500000Y-41535000D02*
X132500000Y-44000000D01*
X135326318Y-46425000D02*
X135673682Y-46425000D01*
X132750000Y-44250000D02*
X135250000Y-44250000D01*
X135152637Y-46973681D02*
X135152637Y-47001319D01*
X133248834Y-55902669D02*
G75*
G03*
X132950000Y-55650001I-300734J-52631D01*
G01*
X132727589Y-55049989D02*
G75*
G03*
X132427589Y-55350000I11J-300011D01*
G01*
X135847000Y-47348461D02*
G75*
G03*
X135673462Y-47175000I-173500J-39D01*
G01*
X135152600Y-46251319D02*
G75*
G03*
X135326318Y-46425000I173700J19D01*
G01*
X135326318Y-46050037D02*
G75*
G03*
X135152637Y-46223681I-18J-173663D01*
G01*
X135673462Y-47549923D02*
G75*
G03*
X135846923Y-47376539I38J173423D01*
G01*
X135500030Y-45500000D02*
G75*
G03*
X135673470Y-45673470I173470J0D01*
G01*
X132427600Y-55350000D02*
G75*
G03*
X132727589Y-55650000I300000J0D01*
G01*
X135673682Y-46799963D02*
G75*
G03*
X135847363Y-46626319I18J173663D01*
G01*
X135673471Y-46049941D02*
G75*
G03*
X135846941Y-45876530I29J173441D01*
G01*
X135152600Y-47001319D02*
G75*
G03*
X135326318Y-47175000I173700J19D01*
G01*
X135846930Y-45846940D02*
G75*
G03*
X135673471Y-45673470I-173430J40D01*
G01*
X135847400Y-46598681D02*
G75*
G03*
X135673682Y-46425000I-173700J-19D01*
G01*
X135673461Y-47550000D02*
G75*
G03*
X135500000Y-47723461I39J-173500D01*
G01*
X132950000Y-55050000D02*
G75*
G03*
X133250000Y-54750000I0J300000D01*
G01*
X135326318Y-46800037D02*
G75*
G03*
X135152637Y-46973681I-18J-173663D01*
G01*
%TO.N,SBU2*%
X129937500Y-67437500D02*
X130439013Y-67437500D01*
X130439037Y-67062500D02*
X129937500Y-67062500D01*
X129937500Y-68187500D02*
X130439037Y-68187500D01*
X129750000Y-68792887D02*
X129750000Y-72750000D01*
X130439037Y-65562500D02*
X129937500Y-65562500D01*
X129937500Y-65187500D02*
X130439037Y-65187500D01*
X129750000Y-68750000D02*
X129750000Y-68792887D01*
X130000000Y-73000000D02*
X131000000Y-73000000D01*
X129937500Y-66687500D02*
X130439037Y-66687500D01*
X129937500Y-64437500D02*
X130439037Y-64437500D01*
X130439037Y-64812500D02*
X129937500Y-64812500D01*
X129750000Y-72750000D02*
X130000000Y-73000000D01*
X130000000Y-63550000D02*
X129750000Y-63800000D01*
X130439013Y-67812500D02*
X129937500Y-67812500D01*
X130439013Y-66312500D02*
X129937500Y-66312500D01*
X129937500Y-65937500D02*
X130439013Y-65937500D01*
X129750000Y-63800000D02*
X129750000Y-64250000D01*
X130439037Y-68562500D02*
X129937500Y-68562500D01*
X130626500Y-68375000D02*
G75*
G03*
X130439037Y-68187500I-187500J0D01*
G01*
X130439037Y-65562537D02*
G75*
G03*
X130626537Y-65375000I-37J187537D01*
G01*
X130439013Y-67812513D02*
G75*
G03*
X130626513Y-67625000I-13J187513D01*
G01*
X129937500Y-66312500D02*
G75*
G03*
X129750000Y-66500000I0J-187500D01*
G01*
X130439013Y-66312513D02*
G75*
G03*
X130626513Y-66125000I-13J187513D01*
G01*
X130626500Y-66125000D02*
G75*
G03*
X130439013Y-65937500I-187500J0D01*
G01*
X130439037Y-68562537D02*
G75*
G03*
X130626537Y-68375000I-37J187537D01*
G01*
X130439037Y-64812537D02*
G75*
G03*
X130626537Y-64625000I-37J187537D01*
G01*
X129750000Y-67250000D02*
G75*
G03*
X129937500Y-67437500I187500J0D01*
G01*
X129937500Y-65562500D02*
G75*
G03*
X129750000Y-65750000I0J-187500D01*
G01*
X129750000Y-65750000D02*
G75*
G03*
X129937500Y-65937500I187500J0D01*
G01*
X129750000Y-68000000D02*
G75*
G03*
X129937500Y-68187500I187500J0D01*
G01*
X130626500Y-64625000D02*
G75*
G03*
X130439037Y-64437500I-187500J0D01*
G01*
X129750000Y-64250000D02*
G75*
G03*
X129937500Y-64437500I187500J0D01*
G01*
X129937500Y-68562500D02*
G75*
G03*
X129750000Y-68750000I0J-187500D01*
G01*
X130439037Y-67062537D02*
G75*
G03*
X130626537Y-66875000I-37J187537D01*
G01*
X129750000Y-66500000D02*
G75*
G03*
X129937500Y-66687500I187500J0D01*
G01*
X129750000Y-65000000D02*
G75*
G03*
X129937500Y-65187500I187500J0D01*
G01*
X130626500Y-66875000D02*
G75*
G03*
X130439037Y-66687500I-187500J0D01*
G01*
X129937500Y-67812500D02*
G75*
G03*
X129750000Y-68000000I0J-187500D01*
G01*
X129937500Y-64812500D02*
G75*
G03*
X129750000Y-65000000I0J-187500D01*
G01*
X129937500Y-67062500D02*
G75*
G03*
X129750000Y-67250000I0J-187500D01*
G01*
X130626500Y-67625000D02*
G75*
G03*
X130439013Y-67437500I-187500J0D01*
G01*
X130626500Y-65375000D02*
G75*
G03*
X130439037Y-65187500I-187500J0D01*
G01*
%TO.N,+1V1*%
X139150000Y-59025498D02*
X139150000Y-56200000D01*
X140400000Y-66600000D02*
X139950000Y-66150000D01*
X139950000Y-63600000D02*
X139700000Y-63350000D01*
X139700000Y-63350000D02*
X138200000Y-63350000D01*
X139150000Y-56200000D02*
X138550000Y-55600000D01*
X139950000Y-66150000D02*
X139950000Y-63600000D01*
%TO.N,/EPROM and level shifters/Q11*%
X181240000Y-53950000D02*
X179775000Y-53950000D01*
X179500000Y-45500000D02*
X179250000Y-45250000D01*
X179775000Y-53950000D02*
X179500000Y-53675000D01*
X162500000Y-45000000D02*
X162500000Y-43500000D01*
X162750000Y-45250000D02*
X162500000Y-45000000D01*
X179500000Y-53675000D02*
X179500000Y-45500000D01*
X179250000Y-45250000D02*
X162750000Y-45250000D01*
X162500000Y-43500000D02*
X162250000Y-43250000D01*
X162250000Y-43250000D02*
X161750000Y-43250000D01*
%TO.N,/EPROM and level shifters/Q10*%
X181240000Y-59030000D02*
X179030000Y-59030000D01*
X178750000Y-58750000D02*
X178750000Y-48000000D01*
X179030000Y-59030000D02*
X178750000Y-58750000D01*
X178500000Y-47750000D02*
X162000000Y-47750000D01*
X161750000Y-47500000D02*
X161750000Y-44250000D01*
X178750000Y-48000000D02*
X178500000Y-47750000D01*
X162000000Y-47750000D02*
X161750000Y-47500000D01*
%TO.N,/EPROM and level shifters/D2H*%
X162000000Y-72000000D02*
X162000000Y-72925497D01*
X162270000Y-71730000D02*
X162000000Y-72000000D01*
X166000000Y-71730000D02*
X162270000Y-71730000D01*
%TO.N,/EPROM and level shifters/D1H*%
X161500000Y-73700000D02*
X162000000Y-73700000D01*
X161250000Y-69450000D02*
X161250000Y-73450000D01*
X161510000Y-69190000D02*
X161250000Y-69450000D01*
X161250000Y-73450000D02*
X161500000Y-73700000D01*
X166000000Y-69190000D02*
X161510000Y-69190000D01*
%TO.N,/EPROM and level shifters/D0H*%
X166000000Y-66650000D02*
X162750000Y-66650000D01*
X162500000Y-66900000D02*
X162500000Y-68500000D01*
X162500000Y-68500000D02*
X162250000Y-68750000D01*
X160750000Y-74225000D02*
X160999503Y-74474503D01*
X162250000Y-68750000D02*
X161000000Y-68750000D01*
X160999503Y-74474503D02*
X162000000Y-74474503D01*
X161000000Y-68750000D02*
X160750000Y-69000000D01*
X162750000Y-66650000D02*
X162500000Y-66900000D01*
X160750000Y-69000000D02*
X160750000Y-74225000D01*
%TD*%
%TA.AperFunction,Conductor*%
%TO.N,GND*%
G36*
X179151561Y-45545185D02*
G01*
X179172203Y-45561819D01*
X179188181Y-45577797D01*
X179221666Y-45639120D01*
X179224500Y-45665478D01*
X179224500Y-47805479D01*
X179204815Y-47872518D01*
X179152011Y-47918273D01*
X179082853Y-47928217D01*
X179019297Y-47899192D01*
X178997398Y-47874370D01*
X178986121Y-47857493D01*
X178986121Y-47857492D01*
X178961168Y-47820149D01*
X178961142Y-47820111D01*
X178951365Y-47805479D01*
X178948624Y-47801376D01*
X178948621Y-47801373D01*
X178935775Y-47792790D01*
X178916985Y-47777369D01*
X178722627Y-47583011D01*
X178707205Y-47564219D01*
X178698624Y-47551376D01*
X178698621Y-47551373D01*
X178679287Y-47538455D01*
X178679268Y-47538441D01*
X178636280Y-47509719D01*
X178636278Y-47509716D01*
X178607497Y-47490486D01*
X178607490Y-47490483D01*
X178522849Y-47473647D01*
X178522816Y-47473641D01*
X178508854Y-47470864D01*
X178500001Y-47469103D01*
X178500000Y-47469103D01*
X178484846Y-47472117D01*
X178460656Y-47474500D01*
X166421761Y-47474500D01*
X166354722Y-47454815D01*
X166308967Y-47402011D01*
X166299023Y-47332853D01*
X166328048Y-47269297D01*
X166370033Y-47239022D01*
X166369742Y-47238477D01*
X166373789Y-47236313D01*
X166374309Y-47235939D01*
X166375114Y-47235605D01*
X166489003Y-47174730D01*
X166544581Y-47145023D01*
X166693120Y-47023120D01*
X166815023Y-46874581D01*
X166905605Y-46705114D01*
X166961385Y-46521231D01*
X166980220Y-46330000D01*
X166961385Y-46138769D01*
X166905605Y-45954886D01*
X166905603Y-45954883D01*
X166905603Y-45954881D01*
X166815026Y-45785424D01*
X166815022Y-45785417D01*
X166768036Y-45728165D01*
X166740723Y-45663855D01*
X166752514Y-45594988D01*
X166799666Y-45543427D01*
X166863889Y-45525500D01*
X179084522Y-45525500D01*
X179151561Y-45545185D01*
G37*
%TD.AperFunction*%
%TA.AperFunction,Conductor*%
G36*
X185787880Y-30270185D02*
G01*
X185833635Y-30322989D01*
X185843579Y-30392147D01*
X185814554Y-30455703D01*
X185784991Y-30480617D01*
X185713423Y-30523881D01*
X185525030Y-30671476D01*
X185525030Y-30671477D01*
X186666693Y-31813140D01*
X186652590Y-31820411D01*
X186487460Y-31950271D01*
X186349890Y-32109035D01*
X186315334Y-32168887D01*
X185775370Y-31628923D01*
X185883274Y-31628923D01*
X185922887Y-31711179D01*
X185994266Y-31768101D01*
X186060742Y-31783274D01*
X186105806Y-31783274D01*
X186172282Y-31768101D01*
X186243661Y-31711179D01*
X186283274Y-31628923D01*
X186283274Y-31537625D01*
X186243661Y-31455369D01*
X186172282Y-31398447D01*
X186105806Y-31383274D01*
X186060742Y-31383274D01*
X185994266Y-31398447D01*
X185922887Y-31455369D01*
X185883274Y-31537625D01*
X185883274Y-31628923D01*
X185775370Y-31628923D01*
X185171477Y-31025030D01*
X185171476Y-31025030D01*
X185023881Y-31213423D01*
X184854898Y-31492956D01*
X184854897Y-31492958D01*
X184720839Y-31790824D01*
X184720835Y-31790835D01*
X184623667Y-32102658D01*
X184564786Y-32423961D01*
X184545065Y-32749999D01*
X184564786Y-33076038D01*
X184623667Y-33397341D01*
X184720835Y-33709164D01*
X184720839Y-33709175D01*
X184854897Y-34007041D01*
X184854898Y-34007043D01*
X185023887Y-34286586D01*
X185171477Y-34474968D01*
X185684070Y-33962375D01*
X185883274Y-33962375D01*
X185922887Y-34044631D01*
X185994266Y-34101553D01*
X186060742Y-34116726D01*
X186105806Y-34116726D01*
X186172282Y-34101553D01*
X186243661Y-34044631D01*
X186283274Y-33962375D01*
X186283274Y-33871077D01*
X186243661Y-33788821D01*
X186172282Y-33731899D01*
X186105806Y-33716726D01*
X186060742Y-33716726D01*
X185994266Y-33731899D01*
X185922887Y-33788821D01*
X185883274Y-33871077D01*
X185883274Y-33962375D01*
X185684070Y-33962375D01*
X186314210Y-33332234D01*
X186414894Y-33473624D01*
X186566932Y-33618592D01*
X186669221Y-33684329D01*
X185525030Y-34828521D01*
X185525030Y-34828522D01*
X185713414Y-34976112D01*
X185713423Y-34976118D01*
X185992956Y-35145101D01*
X185992958Y-35145102D01*
X186290824Y-35279160D01*
X186290835Y-35279164D01*
X186602658Y-35376332D01*
X186923961Y-35435213D01*
X187249999Y-35454934D01*
X187576038Y-35435213D01*
X187897341Y-35376332D01*
X188209164Y-35279164D01*
X188209175Y-35279160D01*
X188507041Y-35145102D01*
X188507043Y-35145101D01*
X188786576Y-34976118D01*
X188786584Y-34976112D01*
X188974968Y-34828522D01*
X188974968Y-34828521D01*
X188108822Y-33962375D01*
X188216726Y-33962375D01*
X188256339Y-34044631D01*
X188327718Y-34101553D01*
X188394194Y-34116726D01*
X188439258Y-34116726D01*
X188505734Y-34101553D01*
X188577113Y-34044631D01*
X188616726Y-33962375D01*
X188616726Y-33871077D01*
X188577113Y-33788821D01*
X188505734Y-33731899D01*
X188439258Y-33716726D01*
X188394194Y-33716726D01*
X188327718Y-33731899D01*
X188256339Y-33788821D01*
X188216726Y-33871077D01*
X188216726Y-33962375D01*
X188108822Y-33962375D01*
X187833306Y-33686859D01*
X187847410Y-33679589D01*
X188012540Y-33549729D01*
X188150110Y-33390965D01*
X188184665Y-33331112D01*
X189328521Y-34474968D01*
X189328522Y-34474968D01*
X189476112Y-34286584D01*
X189476118Y-34286576D01*
X189519383Y-34215007D01*
X189570911Y-34167820D01*
X189639770Y-34155981D01*
X189704099Y-34183250D01*
X189743473Y-34240968D01*
X189749500Y-34279157D01*
X189749500Y-81320842D01*
X189729815Y-81387881D01*
X189677011Y-81433636D01*
X189607853Y-81443580D01*
X189544297Y-81414555D01*
X189519383Y-81384992D01*
X189476118Y-81313423D01*
X189476112Y-81313414D01*
X189328521Y-81125030D01*
X188185788Y-82267763D01*
X188085106Y-82126376D01*
X187933068Y-81981408D01*
X187830776Y-81915668D01*
X188017521Y-81728923D01*
X188216726Y-81728923D01*
X188256339Y-81811179D01*
X188327718Y-81868101D01*
X188394194Y-81883274D01*
X188439258Y-81883274D01*
X188505734Y-81868101D01*
X188577113Y-81811179D01*
X188616726Y-81728923D01*
X188616726Y-81637625D01*
X188577113Y-81555369D01*
X188505734Y-81498447D01*
X188439258Y-81483274D01*
X188394194Y-81483274D01*
X188327718Y-81498447D01*
X188256339Y-81555369D01*
X188216726Y-81637625D01*
X188216726Y-81728923D01*
X188017521Y-81728923D01*
X188974968Y-80771477D01*
X188974968Y-80771476D01*
X188786586Y-80623887D01*
X188507043Y-80454898D01*
X188507041Y-80454897D01*
X188209175Y-80320839D01*
X188209164Y-80320835D01*
X187897341Y-80223667D01*
X187576038Y-80164786D01*
X187250000Y-80145065D01*
X186923961Y-80164786D01*
X186602658Y-80223667D01*
X186290835Y-80320835D01*
X186290824Y-80320839D01*
X185992958Y-80454897D01*
X185992956Y-80454898D01*
X185713423Y-80623881D01*
X185525030Y-80771476D01*
X185525030Y-80771477D01*
X186666693Y-81913140D01*
X186652590Y-81920411D01*
X186487460Y-82050271D01*
X186349890Y-82209035D01*
X186315334Y-82268886D01*
X185775371Y-81728923D01*
X185883274Y-81728923D01*
X185922887Y-81811179D01*
X185994266Y-81868101D01*
X186060742Y-81883274D01*
X186105806Y-81883274D01*
X186172282Y-81868101D01*
X186243661Y-81811179D01*
X186283274Y-81728923D01*
X186283274Y-81637625D01*
X186243661Y-81555369D01*
X186172282Y-81498447D01*
X186105806Y-81483274D01*
X186060742Y-81483274D01*
X185994266Y-81498447D01*
X185922887Y-81555369D01*
X185883274Y-81637625D01*
X185883274Y-81728923D01*
X185775371Y-81728923D01*
X185171477Y-81125030D01*
X185171476Y-81125030D01*
X185023881Y-81313423D01*
X184854898Y-81592956D01*
X184854897Y-81592958D01*
X184720839Y-81890824D01*
X184720835Y-81890835D01*
X184623667Y-82202658D01*
X184564786Y-82523961D01*
X184545065Y-82849999D01*
X184564786Y-83176038D01*
X184623667Y-83497341D01*
X184720835Y-83809164D01*
X184720839Y-83809175D01*
X184854897Y-84107041D01*
X184854898Y-84107043D01*
X185023887Y-84386586D01*
X185171477Y-84574968D01*
X185684070Y-84062375D01*
X185883274Y-84062375D01*
X185922887Y-84144631D01*
X185994266Y-84201553D01*
X186060742Y-84216726D01*
X186105806Y-84216726D01*
X186172282Y-84201553D01*
X186243661Y-84144631D01*
X186283274Y-84062375D01*
X186283274Y-83971077D01*
X186243661Y-83888821D01*
X186172282Y-83831899D01*
X186105806Y-83816726D01*
X186060742Y-83816726D01*
X185994266Y-83831899D01*
X185922887Y-83888821D01*
X185883274Y-83971077D01*
X185883274Y-84062375D01*
X185684070Y-84062375D01*
X186314210Y-83432234D01*
X186414894Y-83573624D01*
X186566932Y-83718592D01*
X186669222Y-83784330D01*
X185525030Y-84928521D01*
X185525030Y-84928522D01*
X185713414Y-85076112D01*
X185713423Y-85076118D01*
X185784992Y-85119383D01*
X185832180Y-85170911D01*
X185844018Y-85239771D01*
X185816749Y-85304099D01*
X185759030Y-85343473D01*
X185720842Y-85349500D01*
X128679158Y-85349500D01*
X128612119Y-85329815D01*
X128566364Y-85277011D01*
X128556420Y-85207853D01*
X128585445Y-85144297D01*
X128615008Y-85119383D01*
X128686576Y-85076118D01*
X128686584Y-85076112D01*
X128874968Y-84928522D01*
X128874968Y-84928521D01*
X128008822Y-84062375D01*
X128116726Y-84062375D01*
X128156339Y-84144631D01*
X128227718Y-84201553D01*
X128294194Y-84216726D01*
X128339258Y-84216726D01*
X128405734Y-84201553D01*
X128477113Y-84144631D01*
X128516726Y-84062375D01*
X128516726Y-83971077D01*
X128477113Y-83888821D01*
X128405734Y-83831899D01*
X128339258Y-83816726D01*
X128294194Y-83816726D01*
X128227718Y-83831899D01*
X128156339Y-83888821D01*
X128116726Y-83971077D01*
X128116726Y-84062375D01*
X128008822Y-84062375D01*
X127733306Y-83786859D01*
X127747410Y-83779589D01*
X127912540Y-83649729D01*
X128050110Y-83490965D01*
X128084665Y-83431112D01*
X129228521Y-84574968D01*
X129228522Y-84574968D01*
X129376112Y-84386584D01*
X129376118Y-84386576D01*
X129545101Y-84107043D01*
X129545102Y-84107041D01*
X129679160Y-83809175D01*
X129679164Y-83809164D01*
X129682020Y-83800000D01*
X145319534Y-83800000D01*
X145339312Y-83950234D01*
X145339313Y-83950236D01*
X145385762Y-84062375D01*
X145397302Y-84090233D01*
X145489549Y-84210451D01*
X145609767Y-84302698D01*
X145749764Y-84360687D01*
X145824882Y-84370576D01*
X145899999Y-84380466D01*
X145900000Y-84380466D01*
X145900001Y-84380466D01*
X145963584Y-84372095D01*
X146050236Y-84360687D01*
X146190233Y-84302698D01*
X146310451Y-84210451D01*
X146402698Y-84090233D01*
X146460687Y-83950236D01*
X146480466Y-83800000D01*
X146460687Y-83649764D01*
X146402698Y-83509767D01*
X146310451Y-83389549D01*
X146190233Y-83297302D01*
X146190229Y-83297300D01*
X146050236Y-83239313D01*
X146050234Y-83239312D01*
X145900001Y-83219534D01*
X145899999Y-83219534D01*
X145749765Y-83239312D01*
X145749763Y-83239313D01*
X145609770Y-83297300D01*
X145609767Y-83297301D01*
X145609767Y-83297302D01*
X145489549Y-83389549D01*
X145411730Y-83490965D01*
X145397300Y-83509770D01*
X145339313Y-83649763D01*
X145339312Y-83649765D01*
X145319534Y-83799999D01*
X145319534Y-83800000D01*
X129682020Y-83800000D01*
X129776332Y-83497341D01*
X129835213Y-83176038D01*
X129854934Y-82850000D01*
X129835213Y-82523961D01*
X129776332Y-82202658D01*
X129679164Y-81890835D01*
X129679160Y-81890824D01*
X129545102Y-81592958D01*
X129545101Y-81592956D01*
X129376118Y-81313423D01*
X129376112Y-81313414D01*
X129228521Y-81125030D01*
X128085788Y-82267763D01*
X127985106Y-82126376D01*
X127833068Y-81981408D01*
X127730777Y-81915669D01*
X127917523Y-81728923D01*
X128116726Y-81728923D01*
X128156339Y-81811179D01*
X128227718Y-81868101D01*
X128294194Y-81883274D01*
X128339258Y-81883274D01*
X128405734Y-81868101D01*
X128477113Y-81811179D01*
X128516726Y-81728923D01*
X128516726Y-81637625D01*
X128477113Y-81555369D01*
X128405734Y-81498447D01*
X128339258Y-81483274D01*
X128294194Y-81483274D01*
X128227718Y-81498447D01*
X128156339Y-81555369D01*
X128116726Y-81637625D01*
X128116726Y-81728923D01*
X127917523Y-81728923D01*
X128874968Y-80771477D01*
X128874968Y-80771476D01*
X128686586Y-80623887D01*
X128407043Y-80454898D01*
X128407041Y-80454897D01*
X128109175Y-80320839D01*
X128109168Y-80320836D01*
X128029900Y-80296135D01*
X127971752Y-80257397D01*
X127943779Y-80193371D01*
X127954861Y-80124386D01*
X128001480Y-80072344D01*
X128046422Y-80057054D01*
X128046175Y-80055848D01*
X128052336Y-80054581D01*
X128246381Y-79993700D01*
X128246391Y-79993695D01*
X128424215Y-79894994D01*
X128424216Y-79894994D01*
X128578530Y-79762521D01*
X128578531Y-79762520D01*
X128703018Y-79601695D01*
X128792588Y-79419093D01*
X128818246Y-79320000D01*
X130126634Y-79320000D01*
X130126931Y-79321946D01*
X130126933Y-79321952D01*
X130197562Y-79512657D01*
X130197565Y-79512664D01*
X130305149Y-79685267D01*
X130445264Y-79832668D01*
X130445266Y-79832669D01*
X130612195Y-79948856D01*
X130799092Y-80029059D01*
X130998310Y-80070000D01*
X131400000Y-80070000D01*
X131400000Y-79370000D01*
X131900000Y-79370000D01*
X131900000Y-80070000D01*
X132250713Y-80070000D01*
X132402338Y-80054581D01*
X132596381Y-79993700D01*
X132596391Y-79993695D01*
X132774215Y-79894994D01*
X132774216Y-79894994D01*
X132928530Y-79762521D01*
X132928531Y-79762520D01*
X133053018Y-79601695D01*
X133142588Y-79419093D01*
X133168246Y-79320000D01*
X132366111Y-79320000D01*
X132405610Y-79295543D01*
X132473201Y-79206038D01*
X132503895Y-79098160D01*
X132493546Y-78986479D01*
X132443552Y-78886078D01*
X132371069Y-78820000D01*
X133173366Y-78820000D01*
X133173068Y-78818053D01*
X133173066Y-78818047D01*
X133102437Y-78627342D01*
X133102434Y-78627335D01*
X132994850Y-78454732D01*
X132854735Y-78307331D01*
X132854733Y-78307330D01*
X132687804Y-78191143D01*
X132500907Y-78110940D01*
X132301690Y-78070000D01*
X131900000Y-78070000D01*
X131900000Y-78770000D01*
X131399999Y-78770000D01*
X131399999Y-78091849D01*
X131419683Y-78024810D01*
X131442789Y-77998143D01*
X131493055Y-77954589D01*
X131566978Y-77839561D01*
X131605500Y-77708367D01*
X131605500Y-77571633D01*
X131601326Y-77557419D01*
X131569535Y-77449147D01*
X131566978Y-77440440D01*
X131566979Y-77440440D01*
X131493057Y-77325413D01*
X131493053Y-77325409D01*
X131389721Y-77235872D01*
X131389714Y-77235867D01*
X131265345Y-77179070D01*
X131265343Y-77179069D01*
X131265342Y-77179069D01*
X131265337Y-77179068D01*
X131265336Y-77179068D01*
X131164011Y-77164500D01*
X131095989Y-77164500D01*
X131095988Y-77164500D01*
X130994663Y-77179068D01*
X130994654Y-77179070D01*
X130870285Y-77235867D01*
X130870278Y-77235872D01*
X130766946Y-77325409D01*
X130766942Y-77325413D01*
X130693021Y-77440440D01*
X130654500Y-77571632D01*
X130654500Y-77708367D01*
X130693020Y-77839557D01*
X130693021Y-77839559D01*
X130693022Y-77839561D01*
X130766945Y-77954589D01*
X130766946Y-77954590D01*
X130770995Y-77960890D01*
X130790679Y-78027930D01*
X130770994Y-78094969D01*
X130718190Y-78140724D01*
X130703815Y-78146237D01*
X130703628Y-78146295D01*
X130703608Y-78146304D01*
X130525784Y-78245005D01*
X130525783Y-78245005D01*
X130371469Y-78377478D01*
X130371468Y-78377479D01*
X130246981Y-78538304D01*
X130157411Y-78720906D01*
X130131754Y-78820000D01*
X130933889Y-78820000D01*
X130894390Y-78844457D01*
X130826799Y-78933962D01*
X130796105Y-79041840D01*
X130806454Y-79153521D01*
X130856448Y-79253922D01*
X130928931Y-79320000D01*
X130126634Y-79320000D01*
X128818246Y-79320000D01*
X128016111Y-79320000D01*
X128055610Y-79295543D01*
X128123201Y-79206038D01*
X128153895Y-79098160D01*
X128143546Y-78986479D01*
X128093552Y-78886078D01*
X128021069Y-78820000D01*
X128823366Y-78820000D01*
X128823068Y-78818053D01*
X128823066Y-78818047D01*
X128752437Y-78627342D01*
X128752434Y-78627335D01*
X128644850Y-78454732D01*
X128504735Y-78307331D01*
X128504733Y-78307330D01*
X128337804Y-78191143D01*
X128150907Y-78110940D01*
X127951690Y-78070000D01*
X127700000Y-78070000D01*
X127700000Y-78770000D01*
X127200000Y-78770000D01*
X127200000Y-78070000D01*
X126999287Y-78070000D01*
X126847661Y-78085418D01*
X126653618Y-78146299D01*
X126653608Y-78146304D01*
X126475784Y-78245005D01*
X126475783Y-78245005D01*
X126321469Y-78377478D01*
X126321468Y-78377479D01*
X126196981Y-78538304D01*
X126107411Y-78720906D01*
X126081754Y-78820000D01*
X126883889Y-78820000D01*
X126844390Y-78844457D01*
X126776799Y-78933962D01*
X126746105Y-79041840D01*
X126756454Y-79153521D01*
X126806448Y-79253922D01*
X126878931Y-79320000D01*
X126076634Y-79320000D01*
X126076931Y-79321946D01*
X126076933Y-79321952D01*
X126147562Y-79512657D01*
X126147565Y-79512664D01*
X126255149Y-79685267D01*
X126395264Y-79832668D01*
X126395266Y-79832669D01*
X126562196Y-79948857D01*
X126615829Y-79971872D01*
X126669673Y-80016398D01*
X126690897Y-80082966D01*
X126672762Y-80150441D01*
X126621026Y-80197401D01*
X126589283Y-80207792D01*
X126502657Y-80223667D01*
X126190835Y-80320835D01*
X126190824Y-80320839D01*
X125892958Y-80454897D01*
X125892956Y-80454898D01*
X125613423Y-80623881D01*
X125425030Y-80771476D01*
X125425030Y-80771477D01*
X126566693Y-81913140D01*
X126552590Y-81920411D01*
X126387460Y-82050271D01*
X126249890Y-82209035D01*
X126215334Y-82268887D01*
X125675370Y-81728923D01*
X125783274Y-81728923D01*
X125822887Y-81811179D01*
X125894266Y-81868101D01*
X125960742Y-81883274D01*
X126005806Y-81883274D01*
X126072282Y-81868101D01*
X126143661Y-81811179D01*
X126183274Y-81728923D01*
X126183274Y-81637625D01*
X126143661Y-81555369D01*
X126072282Y-81498447D01*
X126005806Y-81483274D01*
X125960742Y-81483274D01*
X125894266Y-81498447D01*
X125822887Y-81555369D01*
X125783274Y-81637625D01*
X125783274Y-81728923D01*
X125675370Y-81728923D01*
X125071477Y-81125030D01*
X125071476Y-81125030D01*
X124923881Y-81313423D01*
X124880617Y-81384991D01*
X124829089Y-81432178D01*
X124760230Y-81444017D01*
X124695901Y-81416748D01*
X124656527Y-81359030D01*
X124650500Y-81320841D01*
X124650500Y-70680000D01*
X126076634Y-70680000D01*
X126076931Y-70681946D01*
X126076933Y-70681952D01*
X126147562Y-70872657D01*
X126147565Y-70872664D01*
X126255149Y-71045267D01*
X126395264Y-71192668D01*
X126395266Y-71192669D01*
X126562195Y-71308856D01*
X126749092Y-71389059D01*
X126948310Y-71430000D01*
X127200000Y-71430000D01*
X127200000Y-70730000D01*
X127700000Y-70730000D01*
X127700000Y-71430000D01*
X127900713Y-71430000D01*
X128052338Y-71414581D01*
X128246381Y-71353700D01*
X128246391Y-71353695D01*
X128424215Y-71254994D01*
X128424216Y-71254994D01*
X128578530Y-71122521D01*
X128578531Y-71122520D01*
X128703019Y-70961694D01*
X128739171Y-70887993D01*
X128786367Y-70836473D01*
X128853924Y-70818648D01*
X128920395Y-70840177D01*
X128964673Y-70894225D01*
X128974499Y-70942601D01*
X128974499Y-75710657D01*
X128972117Y-75734844D01*
X128969103Y-75749999D01*
X128969103Y-75750001D01*
X128978085Y-75795167D01*
X128978088Y-75795174D01*
X128990483Y-75857490D01*
X128990484Y-75857493D01*
X128990485Y-75857495D01*
X129010161Y-75886942D01*
X129010162Y-75886943D01*
X129010163Y-75886946D01*
X129035254Y-75924498D01*
X129051375Y-75948623D01*
X129051376Y-75948624D01*
X129064222Y-75957207D01*
X129083012Y-75972628D01*
X129277369Y-76166985D01*
X129292790Y-76185775D01*
X129301373Y-76198621D01*
X129301374Y-76198622D01*
X129301376Y-76198624D01*
X129324376Y-76213992D01*
X129324378Y-76213994D01*
X129378264Y-76250000D01*
X129378265Y-76250000D01*
X129392505Y-76259515D01*
X129392506Y-76259516D01*
X129478833Y-76276687D01*
X129478849Y-76276689D01*
X129499999Y-76280896D01*
X129500000Y-76280896D01*
X129500001Y-76280896D01*
X129515155Y-76277882D01*
X129539343Y-76275500D01*
X130552916Y-76275500D01*
X130619955Y-76295185D01*
X130646629Y-76318298D01*
X130685409Y-76363053D01*
X130685413Y-76363057D01*
X130720095Y-76385345D01*
X130800439Y-76436978D01*
X130866035Y-76456238D01*
X130931632Y-76475500D01*
X130931633Y-76475500D01*
X131068367Y-76475500D01*
X131199561Y-76436978D01*
X131314589Y-76363055D01*
X131404130Y-76259718D01*
X131408568Y-76250000D01*
X132920110Y-76250000D01*
X132939568Y-76385337D01*
X132939570Y-76385345D01*
X132996367Y-76509714D01*
X132996372Y-76509721D01*
X133085909Y-76613053D01*
X133085913Y-76613057D01*
X133114371Y-76631345D01*
X133200939Y-76686978D01*
X133266536Y-76706238D01*
X133332132Y-76725500D01*
X133368166Y-76725500D01*
X133435205Y-76745185D01*
X133480960Y-76797989D01*
X133490904Y-76867147D01*
X133482727Y-76896952D01*
X133441398Y-76996729D01*
X133441396Y-76996734D01*
X133421618Y-77146968D01*
X133421618Y-77146969D01*
X133441396Y-77297203D01*
X133441397Y-77297205D01*
X133467478Y-77360171D01*
X133499386Y-77437202D01*
X133591633Y-77557420D01*
X133711851Y-77649667D01*
X133851848Y-77707656D01*
X133851849Y-77707656D01*
X133857586Y-77709193D01*
X133917249Y-77745554D01*
X133947781Y-77808400D01*
X133949499Y-77828969D01*
X133949499Y-81837163D01*
X133948904Y-81845734D01*
X133947227Y-81857762D01*
X133947227Y-81857764D01*
X133947227Y-81857765D01*
X133947705Y-81868101D01*
X133949434Y-81905509D01*
X133949500Y-81908372D01*
X133949500Y-81927845D01*
X133949993Y-81930482D01*
X133950982Y-81939015D01*
X133952415Y-81969991D01*
X133952416Y-81969997D01*
X133955214Y-81976334D01*
X133963664Y-82003620D01*
X133964937Y-82010429D01*
X133964937Y-82010430D01*
X133981260Y-82036793D01*
X133985263Y-82044386D01*
X133997794Y-82072765D01*
X133997795Y-82072766D01*
X133997796Y-82072768D01*
X134002689Y-82077661D01*
X134020435Y-82100065D01*
X134024077Y-82105948D01*
X134024080Y-82105951D01*
X134048826Y-82124639D01*
X134055311Y-82130282D01*
X134243078Y-82318049D01*
X134248721Y-82324533D01*
X134256041Y-82334226D01*
X134256042Y-82334228D01*
X134280659Y-82356669D01*
X134291375Y-82366439D01*
X134293423Y-82368394D01*
X134307203Y-82382174D01*
X134309413Y-82383688D01*
X134316143Y-82389018D01*
X134318279Y-82390965D01*
X134339064Y-82409914D01*
X134339065Y-82409914D01*
X134339067Y-82409916D01*
X134345530Y-82412419D01*
X134370807Y-82425743D01*
X134376519Y-82429656D01*
X134406702Y-82436754D01*
X134414903Y-82439294D01*
X134443827Y-82450500D01*
X134450751Y-82450500D01*
X134479141Y-82453793D01*
X134485881Y-82455379D01*
X134516590Y-82451095D01*
X134525166Y-82450500D01*
X139194030Y-82450500D01*
X139261069Y-82470185D01*
X139292405Y-82499013D01*
X139339546Y-82560448D01*
X139339547Y-82560449D01*
X139339549Y-82560451D01*
X139459767Y-82652698D01*
X139599764Y-82710687D01*
X139674881Y-82720576D01*
X139749999Y-82730466D01*
X139750000Y-82730466D01*
X139750001Y-82730466D01*
X139813584Y-82722095D01*
X139900236Y-82710687D01*
X140040233Y-82652698D01*
X140160451Y-82560451D01*
X140252698Y-82440233D01*
X140310687Y-82300236D01*
X140330466Y-82150000D01*
X140310687Y-81999764D01*
X140252698Y-81859767D01*
X140160451Y-81739549D01*
X140040233Y-81647302D01*
X140040229Y-81647300D01*
X139900236Y-81589313D01*
X139900234Y-81589312D01*
X139750001Y-81569534D01*
X139749999Y-81569534D01*
X139599765Y-81589312D01*
X139599763Y-81589313D01*
X139459770Y-81647300D01*
X139339546Y-81739551D01*
X139292405Y-81800987D01*
X139235977Y-81842190D01*
X139194030Y-81849500D01*
X134675834Y-81849500D01*
X134608795Y-81829815D01*
X134588153Y-81813181D01*
X134586819Y-81811847D01*
X134553334Y-81750524D01*
X134550500Y-81724166D01*
X134550500Y-80931270D01*
X135020513Y-80931270D01*
X135040291Y-81081504D01*
X135040292Y-81081506D01*
X135070465Y-81154351D01*
X135098281Y-81221503D01*
X135190528Y-81341721D01*
X135310746Y-81433968D01*
X135450743Y-81491957D01*
X135525861Y-81501846D01*
X135600978Y-81511736D01*
X135600979Y-81511736D01*
X135600980Y-81511736D01*
X135651057Y-81505143D01*
X135751215Y-81491957D01*
X135891212Y-81433968D01*
X136011430Y-81341721D01*
X136103677Y-81221503D01*
X136161666Y-81081506D01*
X136181445Y-80931270D01*
X136161666Y-80781034D01*
X136103677Y-80641037D01*
X136011430Y-80520819D01*
X135891212Y-80428572D01*
X135891208Y-80428570D01*
X135751215Y-80370583D01*
X135751213Y-80370582D01*
X135600980Y-80350804D01*
X135600978Y-80350804D01*
X135450744Y-80370582D01*
X135450742Y-80370583D01*
X135310749Y-80428570D01*
X135310746Y-80428571D01*
X135310746Y-80428572D01*
X135190528Y-80520819D01*
X135111446Y-80623881D01*
X135098279Y-80641040D01*
X135040292Y-80781033D01*
X135040291Y-80781035D01*
X135020513Y-80931269D01*
X135020513Y-80931270D01*
X134550500Y-80931270D01*
X134550500Y-78900000D01*
X142269534Y-78900000D01*
X142289312Y-79050234D01*
X142289313Y-79050236D01*
X142347302Y-79190233D01*
X142439549Y-79310451D01*
X142559767Y-79402698D01*
X142699764Y-79460687D01*
X142774881Y-79470576D01*
X142849999Y-79480466D01*
X142850000Y-79480466D01*
X142850001Y-79480466D01*
X142900078Y-79473873D01*
X143000236Y-79460687D01*
X143140233Y-79402698D01*
X143260451Y-79310451D01*
X143352698Y-79190233D01*
X143410687Y-79050236D01*
X143430466Y-78900000D01*
X143410687Y-78749764D01*
X143352698Y-78609767D01*
X143260451Y-78489549D01*
X143140233Y-78397302D01*
X143140229Y-78397300D01*
X143000236Y-78339313D01*
X143000234Y-78339312D01*
X142850001Y-78319534D01*
X142849999Y-78319534D01*
X142699765Y-78339312D01*
X142699763Y-78339313D01*
X142559770Y-78397300D01*
X142439549Y-78489549D01*
X142347300Y-78609770D01*
X142289313Y-78749763D01*
X142289312Y-78749765D01*
X142269534Y-78899999D01*
X142269534Y-78900000D01*
X134550500Y-78900000D01*
X134550500Y-77457723D01*
X134551095Y-77449147D01*
X134552771Y-77437124D01*
X134552773Y-77437120D01*
X134550566Y-77389375D01*
X134550500Y-77386512D01*
X134550500Y-77367043D01*
X134550287Y-77364749D01*
X134550500Y-77363340D01*
X134550500Y-77361305D01*
X134550808Y-77361305D01*
X134559196Y-77305835D01*
X134562771Y-77297205D01*
X134582550Y-77146969D01*
X134562771Y-76996733D01*
X134504782Y-76856736D01*
X134412535Y-76736518D01*
X134384791Y-76715229D01*
X134349012Y-76687774D01*
X134307810Y-76631345D01*
X134300500Y-76589399D01*
X134300500Y-76425000D01*
X154169534Y-76425000D01*
X154189312Y-76575234D01*
X154189313Y-76575236D01*
X154247302Y-76715233D01*
X154339549Y-76835451D01*
X154459767Y-76927698D01*
X154599764Y-76985687D01*
X154674881Y-76995576D01*
X154749999Y-77005466D01*
X154750000Y-77005466D01*
X154750001Y-77005466D01*
X154816326Y-76996734D01*
X154900236Y-76985687D01*
X155040233Y-76927698D01*
X155160451Y-76835451D01*
X155252698Y-76715233D01*
X155310687Y-76575236D01*
X155330466Y-76425000D01*
X159894534Y-76425000D01*
X159914312Y-76575234D01*
X159914313Y-76575236D01*
X159972302Y-76715233D01*
X160064549Y-76835451D01*
X160184767Y-76927698D01*
X160324764Y-76985687D01*
X160399881Y-76995576D01*
X160474999Y-77005466D01*
X160475000Y-77005466D01*
X160475001Y-77005466D01*
X160541326Y-76996734D01*
X160625236Y-76985687D01*
X160765233Y-76927698D01*
X160885451Y-76835451D01*
X160977698Y-76715233D01*
X161035687Y-76575236D01*
X161055466Y-76425000D01*
X161047310Y-76363053D01*
X161035687Y-76274765D01*
X161035687Y-76274764D01*
X160977698Y-76134767D01*
X160885451Y-76014549D01*
X160765233Y-75922302D01*
X160765229Y-75922300D01*
X160625236Y-75864313D01*
X160625234Y-75864312D01*
X160475001Y-75844534D01*
X160474999Y-75844534D01*
X160324765Y-75864312D01*
X160324763Y-75864313D01*
X160184770Y-75922300D01*
X160184767Y-75922301D01*
X160184767Y-75922302D01*
X160064549Y-76014549D01*
X159987733Y-76114658D01*
X159972300Y-76134770D01*
X159914313Y-76274763D01*
X159914312Y-76274765D01*
X159894534Y-76424999D01*
X159894534Y-76425000D01*
X155330466Y-76425000D01*
X155322310Y-76363053D01*
X155310687Y-76274765D01*
X155310687Y-76274764D01*
X155252698Y-76134767D01*
X155160451Y-76014549D01*
X155040233Y-75922302D01*
X155040229Y-75922300D01*
X154900236Y-75864313D01*
X154900234Y-75864312D01*
X154750001Y-75844534D01*
X154749999Y-75844534D01*
X154599765Y-75864312D01*
X154599763Y-75864313D01*
X154459770Y-75922300D01*
X154459767Y-75922301D01*
X154459767Y-75922302D01*
X154339549Y-76014549D01*
X154262733Y-76114658D01*
X154247300Y-76134770D01*
X154189313Y-76274763D01*
X154189312Y-76274765D01*
X154169534Y-76424999D01*
X154169534Y-76425000D01*
X134300500Y-76425000D01*
X134300500Y-74999999D01*
X158769610Y-74999999D01*
X158789068Y-75135337D01*
X158789070Y-75135345D01*
X158845867Y-75259714D01*
X158845872Y-75259721D01*
X158935409Y-75363053D01*
X158935413Y-75363057D01*
X158993108Y-75400134D01*
X159050439Y-75436978D01*
X159116035Y-75456238D01*
X159181632Y-75475500D01*
X159181633Y-75475500D01*
X159318367Y-75475500D01*
X159449561Y-75436978D01*
X159564589Y-75363055D01*
X159654130Y-75259718D01*
X159710931Y-75135342D01*
X159730390Y-75000000D01*
X159710931Y-74864658D01*
X159688062Y-74814582D01*
X159654132Y-74740285D01*
X159654127Y-74740278D01*
X159564590Y-74636946D01*
X159564586Y-74636942D01*
X159449559Y-74563021D01*
X159318368Y-74524500D01*
X159318367Y-74524500D01*
X159181633Y-74524500D01*
X159181632Y-74524500D01*
X159050440Y-74563021D01*
X158935413Y-74636942D01*
X158935409Y-74636946D01*
X158845872Y-74740278D01*
X158845867Y-74740285D01*
X158789070Y-74864654D01*
X158789068Y-74864662D01*
X158769610Y-74999999D01*
X134300500Y-74999999D01*
X134300500Y-74500000D01*
X139519610Y-74500000D01*
X139539068Y-74635337D01*
X139539070Y-74635345D01*
X139595867Y-74759714D01*
X139595872Y-74759721D01*
X139685409Y-74863053D01*
X139685413Y-74863057D01*
X139745979Y-74901979D01*
X139800439Y-74936978D01*
X139844798Y-74950003D01*
X139931632Y-74975500D01*
X139931633Y-74975500D01*
X140068367Y-74975500D01*
X140199561Y-74936978D01*
X140314589Y-74863055D01*
X140395491Y-74769688D01*
X140406287Y-74757229D01*
X140465065Y-74719454D01*
X140534934Y-74719454D01*
X140593713Y-74757228D01*
X140593713Y-74757229D01*
X140685409Y-74863053D01*
X140685413Y-74863057D01*
X140745979Y-74901979D01*
X140800439Y-74936978D01*
X140844798Y-74950003D01*
X140931632Y-74975500D01*
X140931633Y-74975500D01*
X141068367Y-74975500D01*
X141199561Y-74936978D01*
X141314589Y-74863055D01*
X141404130Y-74759718D01*
X141406103Y-74755399D01*
X141422518Y-74719454D01*
X141460931Y-74635342D01*
X141480390Y-74500000D01*
X141460931Y-74364658D01*
X141417702Y-74270000D01*
X141404132Y-74240285D01*
X141404127Y-74240278D01*
X141314590Y-74136946D01*
X141314586Y-74136942D01*
X141199559Y-74063021D01*
X141068368Y-74024500D01*
X141068367Y-74024500D01*
X140931633Y-74024500D01*
X140931632Y-74024500D01*
X140800440Y-74063021D01*
X140685413Y-74136942D01*
X140685413Y-74136943D01*
X140685411Y-74136944D01*
X140685411Y-74136945D01*
X140663108Y-74162684D01*
X140593713Y-74242771D01*
X140534935Y-74280545D01*
X140465065Y-74280545D01*
X140406287Y-74242771D01*
X140389025Y-74222850D01*
X140314589Y-74136945D01*
X140314586Y-74136943D01*
X140314586Y-74136942D01*
X140199559Y-74063021D01*
X140068368Y-74024500D01*
X140068367Y-74024500D01*
X139931633Y-74024500D01*
X139931632Y-74024500D01*
X139800440Y-74063021D01*
X139685413Y-74136942D01*
X139685409Y-74136946D01*
X139595872Y-74240278D01*
X139595867Y-74240285D01*
X139539070Y-74364654D01*
X139539068Y-74364662D01*
X139519610Y-74500000D01*
X134300500Y-74500000D01*
X134300500Y-73050000D01*
X155519610Y-73050000D01*
X155539068Y-73185337D01*
X155539070Y-73185345D01*
X155595867Y-73309714D01*
X155595872Y-73309721D01*
X155685409Y-73413053D01*
X155685413Y-73413057D01*
X155800441Y-73486979D01*
X155865061Y-73505953D01*
X155923839Y-73543727D01*
X155952865Y-73607282D01*
X155952865Y-73642575D01*
X155944610Y-73699997D01*
X155944610Y-73699999D01*
X155964068Y-73835337D01*
X155964070Y-73835345D01*
X156020867Y-73959714D01*
X156020872Y-73959721D01*
X156110409Y-74063053D01*
X156110413Y-74063057D01*
X156148061Y-74087251D01*
X156225439Y-74136978D01*
X156291035Y-74156239D01*
X156356632Y-74175500D01*
X156356633Y-74175500D01*
X156493367Y-74175500D01*
X156624561Y-74136978D01*
X156739589Y-74063055D01*
X156778370Y-74018298D01*
X156837149Y-73980523D01*
X156872084Y-73975500D01*
X160085656Y-73975500D01*
X160109846Y-73977882D01*
X160125000Y-73980897D01*
X160152132Y-73975500D01*
X160152133Y-73975500D01*
X160175734Y-73970805D01*
X160232493Y-73959516D01*
X160232493Y-73959515D01*
X160232495Y-73959515D01*
X160274465Y-73931471D01*
X160281614Y-73926693D01*
X160348292Y-73905819D01*
X160415672Y-73924307D01*
X160462359Y-73976288D01*
X160474500Y-74029799D01*
X160474500Y-74185655D01*
X160472116Y-74209847D01*
X160469103Y-74225000D01*
X160472143Y-74240285D01*
X160473640Y-74247807D01*
X160473647Y-74247849D01*
X160490483Y-74332490D01*
X160490484Y-74332493D01*
X160490485Y-74332495D01*
X160514940Y-74369094D01*
X160551373Y-74423621D01*
X160551376Y-74423624D01*
X160564221Y-74432206D01*
X160583011Y-74447627D01*
X160776872Y-74641488D01*
X160792293Y-74660278D01*
X160800876Y-74673124D01*
X160800877Y-74673125D01*
X160800879Y-74673127D01*
X160821296Y-74686769D01*
X160821320Y-74686786D01*
X160892007Y-74734018D01*
X160892009Y-74734019D01*
X160999503Y-74755400D01*
X161010049Y-74753302D01*
X161014663Y-74752385D01*
X161038851Y-74750003D01*
X161552916Y-74750003D01*
X161619955Y-74769688D01*
X161646629Y-74792801D01*
X161685409Y-74837556D01*
X161685413Y-74837560D01*
X161727580Y-74864658D01*
X161800439Y-74911481D01*
X161837905Y-74922482D01*
X161931632Y-74950003D01*
X161931633Y-74950003D01*
X162068367Y-74950003D01*
X162199561Y-74911481D01*
X162314589Y-74837558D01*
X162404130Y-74734221D01*
X162460931Y-74609845D01*
X162480390Y-74474503D01*
X162460931Y-74339161D01*
X162429346Y-74269999D01*
X162404132Y-74214788D01*
X162404129Y-74214784D01*
X162390027Y-74198509D01*
X162363983Y-74168452D01*
X162334959Y-74104898D01*
X162344903Y-74035739D01*
X162355019Y-74019999D01*
X164721127Y-74019999D01*
X164721128Y-74020000D01*
X165684314Y-74020000D01*
X165672359Y-74031955D01*
X165614835Y-74144852D01*
X165595014Y-74270000D01*
X165614835Y-74395148D01*
X165672359Y-74508045D01*
X165684314Y-74520000D01*
X164721128Y-74520000D01*
X164773730Y-74716317D01*
X164773734Y-74716326D01*
X164869865Y-74922482D01*
X165000342Y-75108820D01*
X165161179Y-75269657D01*
X165347517Y-75400134D01*
X165553673Y-75496265D01*
X165553682Y-75496269D01*
X165749999Y-75548872D01*
X165750000Y-75548871D01*
X165750000Y-74585686D01*
X165761955Y-74597641D01*
X165874852Y-74655165D01*
X165968519Y-74670000D01*
X166031481Y-74670000D01*
X166125148Y-74655165D01*
X166238045Y-74597641D01*
X166250000Y-74585686D01*
X166250000Y-75548872D01*
X166446317Y-75496269D01*
X166446326Y-75496265D01*
X166652482Y-75400134D01*
X166838820Y-75269657D01*
X166999657Y-75108820D01*
X167130134Y-74922482D01*
X167226265Y-74716326D01*
X167226269Y-74716317D01*
X167278872Y-74520000D01*
X166315686Y-74520000D01*
X166327641Y-74508045D01*
X166385165Y-74395148D01*
X166404986Y-74270000D01*
X166404986Y-74269999D01*
X180259780Y-74269999D01*
X180278614Y-74461229D01*
X180334396Y-74645118D01*
X180424973Y-74814575D01*
X180424977Y-74814582D01*
X180546879Y-74963120D01*
X180695417Y-75085022D01*
X180695424Y-75085026D01*
X180864881Y-75175603D01*
X180864883Y-75175603D01*
X180864886Y-75175605D01*
X181048769Y-75231385D01*
X181048768Y-75231385D01*
X181065914Y-75233073D01*
X181240000Y-75250220D01*
X181431231Y-75231385D01*
X181615114Y-75175605D01*
X181784581Y-75085023D01*
X181933120Y-74963120D01*
X182055023Y-74814581D01*
X182145605Y-74645114D01*
X182201385Y-74461231D01*
X182220220Y-74270000D01*
X182201385Y-74078769D01*
X182145605Y-73894886D01*
X182145603Y-73894883D01*
X182145603Y-73894881D01*
X182055026Y-73725424D01*
X182055022Y-73725417D01*
X181933120Y-73576879D01*
X181784582Y-73454977D01*
X181784575Y-73454973D01*
X181615118Y-73364396D01*
X181503030Y-73330395D01*
X181431231Y-73308615D01*
X181431229Y-73308614D01*
X181431231Y-73308614D01*
X181240000Y-73289780D01*
X181048770Y-73308614D01*
X180864881Y-73364396D01*
X180695424Y-73454973D01*
X180695417Y-73454977D01*
X180546879Y-73576879D01*
X180424977Y-73725417D01*
X180424973Y-73725424D01*
X180334396Y-73894881D01*
X180278614Y-74078770D01*
X180259780Y-74269999D01*
X166404986Y-74269999D01*
X166385165Y-74144852D01*
X166327641Y-74031955D01*
X166315686Y-74020000D01*
X167278872Y-74020000D01*
X167278872Y-74019999D01*
X167226269Y-73823682D01*
X167226265Y-73823673D01*
X167130134Y-73617517D01*
X166999657Y-73431179D01*
X166838820Y-73270342D01*
X166652482Y-73139865D01*
X166446328Y-73043734D01*
X166250000Y-72991127D01*
X166250000Y-73954314D01*
X166238045Y-73942359D01*
X166125148Y-73884835D01*
X166031481Y-73870000D01*
X165968519Y-73870000D01*
X165874852Y-73884835D01*
X165761955Y-73942359D01*
X165750000Y-73954314D01*
X165750000Y-72991127D01*
X165553671Y-73043734D01*
X165347517Y-73139865D01*
X165161179Y-73270342D01*
X165000342Y-73431179D01*
X164869865Y-73617517D01*
X164773734Y-73823673D01*
X164773730Y-73823682D01*
X164721127Y-74019999D01*
X162355019Y-74019999D01*
X162363985Y-74006048D01*
X162404127Y-73959722D01*
X162404128Y-73959720D01*
X162404130Y-73959718D01*
X162460931Y-73835342D01*
X162480390Y-73700000D01*
X162460931Y-73564658D01*
X162434121Y-73505953D01*
X162404132Y-73440285D01*
X162404129Y-73440281D01*
X162387999Y-73421666D01*
X162363983Y-73393949D01*
X162334959Y-73330395D01*
X162344903Y-73261236D01*
X162363985Y-73231545D01*
X162369117Y-73225623D01*
X162403645Y-73185775D01*
X162404127Y-73185219D01*
X162404128Y-73185217D01*
X162404130Y-73185215D01*
X162460931Y-73060839D01*
X162480390Y-72925497D01*
X162460931Y-72790155D01*
X162429898Y-72722203D01*
X162404132Y-72665782D01*
X162404130Y-72665780D01*
X162404130Y-72665779D01*
X162314589Y-72562442D01*
X162308781Y-72555739D01*
X162310798Y-72553990D01*
X162280517Y-72506857D01*
X162275500Y-72471941D01*
X162275500Y-72165477D01*
X162295185Y-72098438D01*
X162311815Y-72077800D01*
X162347798Y-72041817D01*
X162409122Y-72008333D01*
X162435478Y-72005500D01*
X164972213Y-72005500D01*
X165039252Y-72025185D01*
X165085007Y-72077989D01*
X165090873Y-72093503D01*
X165094395Y-72105114D01*
X165094398Y-72105121D01*
X165184973Y-72274575D01*
X165184977Y-72274582D01*
X165306879Y-72423120D01*
X165455417Y-72545022D01*
X165455424Y-72545026D01*
X165624881Y-72635603D01*
X165624883Y-72635603D01*
X165624886Y-72635605D01*
X165808769Y-72691385D01*
X165808768Y-72691385D01*
X165825914Y-72693073D01*
X166000000Y-72710220D01*
X166191231Y-72691385D01*
X166375114Y-72635605D01*
X166544581Y-72545023D01*
X166693120Y-72423120D01*
X166815023Y-72274581D01*
X166901359Y-72113057D01*
X166905603Y-72105118D01*
X166905603Y-72105117D01*
X166905605Y-72105114D01*
X166961385Y-71921231D01*
X166980220Y-71730000D01*
X180259780Y-71730000D01*
X180278614Y-71921229D01*
X180334396Y-72105118D01*
X180424973Y-72274575D01*
X180424977Y-72274582D01*
X180546879Y-72423120D01*
X180695417Y-72545022D01*
X180695424Y-72545026D01*
X180864881Y-72635603D01*
X180864883Y-72635603D01*
X180864886Y-72635605D01*
X181048769Y-72691385D01*
X181048768Y-72691385D01*
X181065914Y-72693073D01*
X181240000Y-72710220D01*
X181431231Y-72691385D01*
X181615114Y-72635605D01*
X181784581Y-72545023D01*
X181933120Y-72423120D01*
X182055023Y-72274581D01*
X182141359Y-72113057D01*
X182145603Y-72105118D01*
X182145603Y-72105117D01*
X182145605Y-72105114D01*
X182201385Y-71921231D01*
X182220220Y-71730000D01*
X182201385Y-71538769D01*
X182145605Y-71354886D01*
X182145603Y-71354883D01*
X182145603Y-71354881D01*
X182055026Y-71185424D01*
X182055022Y-71185417D01*
X181933120Y-71036879D01*
X181784582Y-70914977D01*
X181784575Y-70914973D01*
X181615118Y-70824396D01*
X181495722Y-70788178D01*
X181431231Y-70768615D01*
X181431229Y-70768614D01*
X181431231Y-70768614D01*
X181240000Y-70749780D01*
X181048770Y-70768614D01*
X180864881Y-70824396D01*
X180695424Y-70914973D01*
X180695417Y-70914977D01*
X180546879Y-71036879D01*
X180424977Y-71185417D01*
X180424973Y-71185424D01*
X180334396Y-71354881D01*
X180278614Y-71538770D01*
X180259780Y-71730000D01*
X166980220Y-71730000D01*
X166961385Y-71538769D01*
X166905605Y-71354886D01*
X166905603Y-71354883D01*
X166905603Y-71354881D01*
X166815026Y-71185424D01*
X166815022Y-71185417D01*
X166693120Y-71036879D01*
X166544582Y-70914977D01*
X166544575Y-70914973D01*
X166375118Y-70824396D01*
X166255722Y-70788178D01*
X166191231Y-70768615D01*
X166191229Y-70768614D01*
X166191231Y-70768614D01*
X166000000Y-70749780D01*
X165808770Y-70768614D01*
X165624881Y-70824396D01*
X165455424Y-70914973D01*
X165455417Y-70914977D01*
X165306879Y-71036879D01*
X165184977Y-71185417D01*
X165184973Y-71185424D01*
X165094398Y-71354878D01*
X165094395Y-71354885D01*
X165090873Y-71366497D01*
X165052575Y-71424935D01*
X164988762Y-71453391D01*
X164972213Y-71454500D01*
X162309344Y-71454500D01*
X162285154Y-71452117D01*
X162270000Y-71449103D01*
X162269999Y-71449103D01*
X162269998Y-71449103D01*
X162247898Y-71453499D01*
X162247871Y-71453503D01*
X162162509Y-71470483D01*
X162162503Y-71470485D01*
X162132876Y-71490283D01*
X162099831Y-71512361D01*
X162099818Y-71512370D01*
X162094378Y-71516006D01*
X162094376Y-71516007D01*
X162080016Y-71525602D01*
X162071374Y-71531377D01*
X162062791Y-71544222D01*
X162047372Y-71563010D01*
X161833010Y-71777372D01*
X161814222Y-71792791D01*
X161801376Y-71801374D01*
X161786005Y-71824377D01*
X161786006Y-71824378D01*
X161777242Y-71837495D01*
X161775918Y-71839477D01*
X161752601Y-71874371D01*
X161698988Y-71919176D01*
X161629663Y-71927882D01*
X161566636Y-71897726D01*
X161529918Y-71838283D01*
X161525500Y-71805479D01*
X161525500Y-69615478D01*
X161545185Y-69548439D01*
X161561819Y-69527797D01*
X161587797Y-69501819D01*
X161649120Y-69468334D01*
X161675478Y-69465500D01*
X164972213Y-69465500D01*
X165039252Y-69485185D01*
X165085007Y-69537989D01*
X165090873Y-69553503D01*
X165094395Y-69565114D01*
X165094398Y-69565121D01*
X165184973Y-69734575D01*
X165184977Y-69734582D01*
X165306879Y-69883120D01*
X165455417Y-70005022D01*
X165455424Y-70005026D01*
X165624881Y-70095603D01*
X165624883Y-70095603D01*
X165624886Y-70095605D01*
X165808769Y-70151385D01*
X165808768Y-70151385D01*
X165827603Y-70153240D01*
X166000000Y-70170220D01*
X166191231Y-70151385D01*
X166375114Y-70095605D01*
X166391322Y-70086942D01*
X166442900Y-70059372D01*
X166544581Y-70005023D01*
X166693120Y-69883120D01*
X166815023Y-69734581D01*
X166893918Y-69586979D01*
X166905603Y-69565118D01*
X166905603Y-69565117D01*
X166905605Y-69565114D01*
X166961385Y-69381231D01*
X166980220Y-69190000D01*
X180259780Y-69190000D01*
X180278614Y-69381229D01*
X180334396Y-69565118D01*
X180424973Y-69734575D01*
X180424977Y-69734582D01*
X180546879Y-69883120D01*
X180695417Y-70005022D01*
X180695424Y-70005026D01*
X180864881Y-70095603D01*
X180864883Y-70095603D01*
X180864886Y-70095605D01*
X181048769Y-70151385D01*
X181048768Y-70151385D01*
X181065914Y-70153073D01*
X181240000Y-70170220D01*
X181431231Y-70151385D01*
X181615114Y-70095605D01*
X181631322Y-70086942D01*
X181682900Y-70059372D01*
X181784581Y-70005023D01*
X181933120Y-69883120D01*
X182055023Y-69734581D01*
X182133918Y-69586979D01*
X182145603Y-69565118D01*
X182145603Y-69565117D01*
X182145605Y-69565114D01*
X182201385Y-69381231D01*
X182220220Y-69190000D01*
X182201385Y-68998769D01*
X182145605Y-68814886D01*
X182145603Y-68814883D01*
X182145603Y-68814881D01*
X182055026Y-68645424D01*
X182055022Y-68645417D01*
X181933120Y-68496879D01*
X181784582Y-68374977D01*
X181784575Y-68374973D01*
X181615118Y-68284396D01*
X181523172Y-68256505D01*
X181431231Y-68228615D01*
X181431229Y-68228614D01*
X181431231Y-68228614D01*
X181240000Y-68209780D01*
X181048770Y-68228614D01*
X180864881Y-68284396D01*
X180695424Y-68374973D01*
X180695417Y-68374977D01*
X180546879Y-68496879D01*
X180424977Y-68645417D01*
X180424973Y-68645424D01*
X180334396Y-68814881D01*
X180278614Y-68998770D01*
X180259780Y-69190000D01*
X166980220Y-69190000D01*
X166961385Y-68998769D01*
X166905605Y-68814886D01*
X166905603Y-68814883D01*
X166905603Y-68814881D01*
X166815026Y-68645424D01*
X166815022Y-68645417D01*
X166693120Y-68496879D01*
X166544582Y-68374977D01*
X166544575Y-68374973D01*
X166375118Y-68284396D01*
X166283172Y-68256505D01*
X166191231Y-68228615D01*
X166191229Y-68228614D01*
X166191231Y-68228614D01*
X166000000Y-68209780D01*
X165808770Y-68228614D01*
X165624881Y-68284396D01*
X165455424Y-68374973D01*
X165455417Y-68374977D01*
X165306879Y-68496879D01*
X165184977Y-68645417D01*
X165184973Y-68645424D01*
X165094398Y-68814878D01*
X165094395Y-68814885D01*
X165090873Y-68826497D01*
X165052575Y-68884935D01*
X164988762Y-68913391D01*
X164972213Y-68914500D01*
X162782110Y-68914500D01*
X162715071Y-68894815D01*
X162669316Y-68842011D01*
X162659372Y-68772853D01*
X162688397Y-68709297D01*
X162694432Y-68702815D01*
X162698620Y-68698626D01*
X162698624Y-68698624D01*
X162714744Y-68674500D01*
X162759515Y-68607495D01*
X162762223Y-68593878D01*
X162766102Y-68574381D01*
X162766102Y-68574376D01*
X162775500Y-68527133D01*
X162775500Y-68527128D01*
X162775854Y-68525349D01*
X162775854Y-68525345D01*
X162780896Y-68500000D01*
X162777882Y-68484845D01*
X162775500Y-68460657D01*
X162775500Y-67065478D01*
X162795185Y-66998439D01*
X162811822Y-66977794D01*
X162827801Y-66961816D01*
X162889125Y-66928333D01*
X162915479Y-66925500D01*
X164972213Y-66925500D01*
X165039252Y-66945185D01*
X165085007Y-66997989D01*
X165090873Y-67013503D01*
X165094395Y-67025114D01*
X165094398Y-67025121D01*
X165184973Y-67194575D01*
X165184977Y-67194582D01*
X165306879Y-67343120D01*
X165455417Y-67465022D01*
X165455424Y-67465026D01*
X165624881Y-67555603D01*
X165624883Y-67555603D01*
X165624886Y-67555605D01*
X165808769Y-67611385D01*
X165808768Y-67611385D01*
X165827603Y-67613240D01*
X166000000Y-67630220D01*
X166191231Y-67611385D01*
X166375114Y-67555605D01*
X166414994Y-67534289D01*
X166544575Y-67465026D01*
X166544581Y-67465023D01*
X166693120Y-67343120D01*
X166815023Y-67194581D01*
X166884030Y-67065478D01*
X166905603Y-67025118D01*
X166905603Y-67025117D01*
X166905605Y-67025114D01*
X166961385Y-66841231D01*
X166980220Y-66650000D01*
X166980220Y-66649999D01*
X180259780Y-66649999D01*
X180278614Y-66841229D01*
X180334396Y-67025118D01*
X180424973Y-67194575D01*
X180424977Y-67194582D01*
X180546879Y-67343120D01*
X180695417Y-67465022D01*
X180695424Y-67465026D01*
X180864881Y-67555603D01*
X180864883Y-67555603D01*
X180864886Y-67555605D01*
X181048769Y-67611385D01*
X181048768Y-67611385D01*
X181065914Y-67613073D01*
X181240000Y-67630220D01*
X181431231Y-67611385D01*
X181615114Y-67555605D01*
X181654994Y-67534289D01*
X181784575Y-67465026D01*
X181784581Y-67465023D01*
X181933120Y-67343120D01*
X182055023Y-67194581D01*
X182124030Y-67065478D01*
X182145603Y-67025118D01*
X182145603Y-67025117D01*
X182145605Y-67025114D01*
X182201385Y-66841231D01*
X182220220Y-66650000D01*
X182201385Y-66458769D01*
X182145605Y-66274886D01*
X182145603Y-66274883D01*
X182145603Y-66274881D01*
X182055026Y-66105424D01*
X182055022Y-66105417D01*
X181933120Y-65956879D01*
X181784582Y-65834977D01*
X181784575Y-65834973D01*
X181615118Y-65744396D01*
X181490797Y-65706684D01*
X181431231Y-65688615D01*
X181431229Y-65688614D01*
X181431231Y-65688614D01*
X181240000Y-65669780D01*
X181048770Y-65688614D01*
X180864881Y-65744396D01*
X180695424Y-65834973D01*
X180695417Y-65834977D01*
X180546879Y-65956879D01*
X180424977Y-66105417D01*
X180424973Y-66105424D01*
X180334396Y-66274881D01*
X180278614Y-66458770D01*
X180259780Y-66649999D01*
X166980220Y-66649999D01*
X166961385Y-66458769D01*
X166905605Y-66274886D01*
X166905603Y-66274883D01*
X166905603Y-66274881D01*
X166815026Y-66105424D01*
X166815022Y-66105417D01*
X166693120Y-65956879D01*
X166544582Y-65834977D01*
X166544575Y-65834973D01*
X166375118Y-65744396D01*
X166250797Y-65706684D01*
X166191231Y-65688615D01*
X166191229Y-65688614D01*
X166191231Y-65688614D01*
X166000000Y-65669780D01*
X165808770Y-65688614D01*
X165624881Y-65744396D01*
X165455424Y-65834973D01*
X165455417Y-65834977D01*
X165306879Y-65956879D01*
X165184977Y-66105417D01*
X165184973Y-66105424D01*
X165094398Y-66274878D01*
X165094395Y-66274885D01*
X165090873Y-66286497D01*
X165052575Y-66344935D01*
X164988762Y-66373391D01*
X164972213Y-66374500D01*
X162789343Y-66374500D01*
X162765155Y-66372118D01*
X162750001Y-66369104D01*
X162749996Y-66369104D01*
X162730326Y-66373015D01*
X162730321Y-66373017D01*
X162637355Y-66391508D01*
X162627211Y-66400703D01*
X162604638Y-66415787D01*
X162574378Y-66436006D01*
X162574376Y-66436007D01*
X162562582Y-66443887D01*
X162551373Y-66451377D01*
X162542791Y-66464222D01*
X162527372Y-66483010D01*
X162333010Y-66677372D01*
X162314222Y-66692791D01*
X162301380Y-66701371D01*
X162301375Y-66701376D01*
X162240484Y-66792505D01*
X162240484Y-66792506D01*
X162224500Y-66872867D01*
X162219103Y-66899999D01*
X162219103Y-66900001D01*
X162222117Y-66915156D01*
X162224499Y-66939344D01*
X162224499Y-68334521D01*
X162204814Y-68401560D01*
X162188183Y-68422199D01*
X162172205Y-68438178D01*
X162110883Y-68471665D01*
X162084521Y-68474500D01*
X161039343Y-68474500D01*
X161015155Y-68472118D01*
X161000001Y-68469104D01*
X160999996Y-68469104D01*
X160980356Y-68473009D01*
X160980320Y-68473018D01*
X160972869Y-68474500D01*
X160972867Y-68474500D01*
X160920855Y-68484845D01*
X160875318Y-68493902D01*
X160867083Y-68506469D01*
X160855610Y-68515137D01*
X160843388Y-68523303D01*
X160776710Y-68544179D01*
X160709330Y-68525693D01*
X160662642Y-68473712D01*
X160650500Y-68420199D01*
X160650500Y-65528554D01*
X160670185Y-65461515D01*
X160684308Y-65445215D01*
X160683781Y-65444758D01*
X160724500Y-65397765D01*
X160779130Y-65334718D01*
X160835931Y-65210342D01*
X160855390Y-65075000D01*
X160835931Y-64939658D01*
X160822057Y-64909279D01*
X160779132Y-64815285D01*
X160779127Y-64815278D01*
X160689590Y-64711946D01*
X160689586Y-64711942D01*
X160574559Y-64638021D01*
X160443368Y-64599500D01*
X160443367Y-64599500D01*
X160352143Y-64599500D01*
X160285104Y-64579815D01*
X160239349Y-64527011D01*
X160229405Y-64493147D01*
X160220140Y-64428711D01*
X160210931Y-64364658D01*
X160198677Y-64337827D01*
X160154132Y-64240285D01*
X160154127Y-64240278D01*
X160064590Y-64136946D01*
X160064586Y-64136942D01*
X160022661Y-64109999D01*
X165019780Y-64109999D01*
X165038614Y-64301229D01*
X165094396Y-64485118D01*
X165184973Y-64654575D01*
X165184977Y-64654582D01*
X165306879Y-64803120D01*
X165455417Y-64925022D01*
X165455424Y-64925026D01*
X165624881Y-65015603D01*
X165624883Y-65015603D01*
X165624886Y-65015605D01*
X165808769Y-65071385D01*
X165808768Y-65071385D01*
X165827603Y-65073240D01*
X166000000Y-65090220D01*
X166191231Y-65071385D01*
X166375114Y-65015605D01*
X166412749Y-64995489D01*
X166544575Y-64925026D01*
X166544581Y-64925023D01*
X166693120Y-64803120D01*
X166815023Y-64654581D01*
X166905605Y-64485114D01*
X166961385Y-64301231D01*
X166980220Y-64110000D01*
X166980220Y-64109999D01*
X180259780Y-64109999D01*
X180278614Y-64301229D01*
X180334396Y-64485118D01*
X180424973Y-64654575D01*
X180424977Y-64654582D01*
X180546879Y-64803120D01*
X180695417Y-64925022D01*
X180695424Y-64925026D01*
X180864881Y-65015603D01*
X180864883Y-65015603D01*
X180864886Y-65015605D01*
X181048769Y-65071385D01*
X181048768Y-65071385D01*
X181065914Y-65073073D01*
X181240000Y-65090220D01*
X181431231Y-65071385D01*
X181615114Y-65015605D01*
X181652749Y-64995489D01*
X181784575Y-64925026D01*
X181784581Y-64925023D01*
X181933120Y-64803120D01*
X182055023Y-64654581D01*
X182145605Y-64485114D01*
X182201385Y-64301231D01*
X182220220Y-64110000D01*
X182201385Y-63918769D01*
X182145605Y-63734886D01*
X182145603Y-63734883D01*
X182145603Y-63734881D01*
X182055026Y-63565424D01*
X182055022Y-63565417D01*
X181933120Y-63416879D01*
X181784582Y-63294977D01*
X181784575Y-63294973D01*
X181615118Y-63204396D01*
X181451874Y-63154877D01*
X181431231Y-63148615D01*
X181431229Y-63148614D01*
X181431231Y-63148614D01*
X181240000Y-63129780D01*
X181048770Y-63148614D01*
X180864881Y-63204396D01*
X180695424Y-63294973D01*
X180695417Y-63294977D01*
X180546879Y-63416879D01*
X180424977Y-63565417D01*
X180424973Y-63565424D01*
X180334396Y-63734881D01*
X180278614Y-63918770D01*
X180259780Y-64109999D01*
X166980220Y-64109999D01*
X166961385Y-63918769D01*
X166905605Y-63734886D01*
X166905603Y-63734883D01*
X166905603Y-63734881D01*
X166815026Y-63565424D01*
X166815022Y-63565417D01*
X166693120Y-63416879D01*
X166544582Y-63294977D01*
X166544575Y-63294973D01*
X166375118Y-63204396D01*
X166211874Y-63154877D01*
X166191231Y-63148615D01*
X166191229Y-63148614D01*
X166191231Y-63148614D01*
X166000000Y-63129780D01*
X165808770Y-63148614D01*
X165624881Y-63204396D01*
X165455424Y-63294973D01*
X165455417Y-63294977D01*
X165306879Y-63416879D01*
X165184977Y-63565417D01*
X165184973Y-63565424D01*
X165094396Y-63734881D01*
X165038614Y-63918770D01*
X165019780Y-64109999D01*
X160022661Y-64109999D01*
X159949559Y-64063021D01*
X159818368Y-64024500D01*
X159818367Y-64024500D01*
X159727143Y-64024500D01*
X159660104Y-64004815D01*
X159614349Y-63952011D01*
X159604405Y-63918147D01*
X159589525Y-63814658D01*
X159585931Y-63789658D01*
X159562851Y-63739120D01*
X159529132Y-63665285D01*
X159529127Y-63665278D01*
X159439590Y-63561946D01*
X159439586Y-63561942D01*
X159331540Y-63492507D01*
X159324561Y-63488022D01*
X159324560Y-63488021D01*
X159324559Y-63488021D01*
X159193368Y-63449500D01*
X159193367Y-63449500D01*
X159102143Y-63449500D01*
X159035104Y-63429815D01*
X158989349Y-63377011D01*
X158979405Y-63343147D01*
X158964873Y-63242079D01*
X158960931Y-63214658D01*
X158941626Y-63172387D01*
X158904132Y-63090285D01*
X158904127Y-63090278D01*
X158814590Y-62986946D01*
X158814586Y-62986942D01*
X158699559Y-62913021D01*
X158568368Y-62874500D01*
X158568367Y-62874500D01*
X158477143Y-62874500D01*
X158410104Y-62854815D01*
X158364349Y-62802011D01*
X158354405Y-62768147D01*
X158339484Y-62664372D01*
X158335931Y-62639658D01*
X158323677Y-62612827D01*
X158279132Y-62515285D01*
X158279127Y-62515278D01*
X158189590Y-62411946D01*
X158189586Y-62411942D01*
X158074559Y-62338021D01*
X157943368Y-62299500D01*
X157943367Y-62299500D01*
X157852143Y-62299500D01*
X157785104Y-62279815D01*
X157739349Y-62227011D01*
X157729405Y-62193147D01*
X157718210Y-62115285D01*
X157710931Y-62064658D01*
X157690854Y-62020696D01*
X157654132Y-61940285D01*
X157654127Y-61940278D01*
X157564590Y-61836946D01*
X157564586Y-61836942D01*
X157449559Y-61763021D01*
X157318368Y-61724500D01*
X157318367Y-61724500D01*
X157227143Y-61724500D01*
X157160104Y-61704815D01*
X157114349Y-61652011D01*
X157104405Y-61618147D01*
X157097482Y-61570000D01*
X165019780Y-61570000D01*
X165038614Y-61761229D01*
X165094396Y-61945118D01*
X165184973Y-62114575D01*
X165184977Y-62114582D01*
X165306879Y-62263120D01*
X165455417Y-62385022D01*
X165455424Y-62385026D01*
X165624881Y-62475603D01*
X165624883Y-62475603D01*
X165624886Y-62475605D01*
X165808769Y-62531385D01*
X165808768Y-62531385D01*
X165827603Y-62533240D01*
X166000000Y-62550220D01*
X166191231Y-62531385D01*
X166375114Y-62475605D01*
X166375311Y-62475500D01*
X166491615Y-62413334D01*
X166544581Y-62385023D01*
X166693120Y-62263120D01*
X166815023Y-62114581D01*
X166905605Y-61945114D01*
X166961385Y-61761231D01*
X166980220Y-61570000D01*
X166961385Y-61378769D01*
X166943557Y-61319999D01*
X179961127Y-61319999D01*
X179961128Y-61320000D01*
X180924314Y-61320000D01*
X180912359Y-61331955D01*
X180854835Y-61444852D01*
X180835014Y-61570000D01*
X180854835Y-61695148D01*
X180912359Y-61808045D01*
X180924314Y-61820000D01*
X179961128Y-61820000D01*
X180013730Y-62016317D01*
X180013734Y-62016326D01*
X180109865Y-62222482D01*
X180240342Y-62408820D01*
X180401179Y-62569657D01*
X180587517Y-62700134D01*
X180793673Y-62796265D01*
X180793682Y-62796269D01*
X180989999Y-62848872D01*
X180990000Y-62848871D01*
X180990000Y-61885686D01*
X181001955Y-61897641D01*
X181114852Y-61955165D01*
X181208519Y-61970000D01*
X181271481Y-61970000D01*
X181365148Y-61955165D01*
X181478045Y-61897641D01*
X181489999Y-61885686D01*
X181489999Y-62848871D01*
X181490000Y-62848872D01*
X181686317Y-62796269D01*
X181686326Y-62796265D01*
X181892482Y-62700134D01*
X182078820Y-62569657D01*
X182239657Y-62408820D01*
X182370134Y-62222482D01*
X182466265Y-62016326D01*
X182466269Y-62016317D01*
X182518872Y-61820000D01*
X181555686Y-61820000D01*
X181567641Y-61808045D01*
X181625165Y-61695148D01*
X181644986Y-61570000D01*
X181625165Y-61444852D01*
X181567641Y-61331955D01*
X181555686Y-61320000D01*
X182518872Y-61320000D01*
X182518872Y-61319999D01*
X182466269Y-61123682D01*
X182466265Y-61123673D01*
X182370134Y-60917517D01*
X182239657Y-60731179D01*
X182078820Y-60570342D01*
X181892482Y-60439865D01*
X181686328Y-60343734D01*
X181490000Y-60291127D01*
X181490000Y-61254313D01*
X181478045Y-61242359D01*
X181365148Y-61184835D01*
X181271481Y-61170000D01*
X181208519Y-61170000D01*
X181114852Y-61184835D01*
X181001955Y-61242359D01*
X180989999Y-61254314D01*
X180989999Y-60291127D01*
X180793671Y-60343734D01*
X180587517Y-60439865D01*
X180401179Y-60570342D01*
X180240342Y-60731179D01*
X180109865Y-60917517D01*
X180013734Y-61123673D01*
X180013730Y-61123682D01*
X179961127Y-61319999D01*
X166943557Y-61319999D01*
X166905605Y-61194886D01*
X166905603Y-61194883D01*
X166905603Y-61194881D01*
X166815026Y-61025424D01*
X166815022Y-61025417D01*
X166693120Y-60876879D01*
X166544582Y-60754977D01*
X166544575Y-60754973D01*
X166375118Y-60664396D01*
X166283172Y-60636505D01*
X166191231Y-60608615D01*
X166191229Y-60608614D01*
X166191231Y-60608614D01*
X166000000Y-60589780D01*
X165808770Y-60608614D01*
X165624881Y-60664396D01*
X165455424Y-60754973D01*
X165455417Y-60754977D01*
X165306879Y-60876879D01*
X165184977Y-61025417D01*
X165184973Y-61025424D01*
X165094396Y-61194881D01*
X165038614Y-61378770D01*
X165019780Y-61570000D01*
X157097482Y-61570000D01*
X157089955Y-61517646D01*
X157085931Y-61489658D01*
X157053485Y-61418612D01*
X157029132Y-61365285D01*
X157029127Y-61365278D01*
X156939590Y-61261946D01*
X156939586Y-61261942D01*
X156846912Y-61202386D01*
X156824561Y-61188022D01*
X156824560Y-61188021D01*
X156824559Y-61188021D01*
X156693368Y-61149500D01*
X156693367Y-61149500D01*
X156601999Y-61149500D01*
X156534960Y-61129815D01*
X156489205Y-61077011D01*
X156479261Y-61007854D01*
X156480390Y-61000001D01*
X156480390Y-61000000D01*
X156471822Y-60940408D01*
X156460931Y-60864658D01*
X156429204Y-60795185D01*
X156404132Y-60740285D01*
X156404127Y-60740278D01*
X156314590Y-60636946D01*
X156314586Y-60636942D01*
X156199559Y-60563021D01*
X156068368Y-60524500D01*
X156068367Y-60524500D01*
X155931633Y-60524500D01*
X155931632Y-60524500D01*
X155800440Y-60563021D01*
X155685413Y-60636942D01*
X155685409Y-60636946D01*
X155595872Y-60740278D01*
X155595867Y-60740285D01*
X155539070Y-60864654D01*
X155539068Y-60864662D01*
X155519610Y-60999999D01*
X155539068Y-61135337D01*
X155539070Y-61135345D01*
X155595867Y-61259714D01*
X155595872Y-61259721D01*
X155691219Y-61369758D01*
X155689199Y-61371508D01*
X155719475Y-61418612D01*
X155724500Y-61453554D01*
X155724500Y-68696444D01*
X155704815Y-68763483D01*
X155690691Y-68779785D01*
X155691219Y-68780242D01*
X155595870Y-68890282D01*
X155595867Y-68890285D01*
X155539070Y-69014654D01*
X155539068Y-69014662D01*
X155519610Y-69150000D01*
X155539068Y-69285337D01*
X155539070Y-69285345D01*
X155595867Y-69409714D01*
X155595872Y-69409721D01*
X155685409Y-69513053D01*
X155685413Y-69513057D01*
X155800441Y-69586979D01*
X155865061Y-69605953D01*
X155923839Y-69643727D01*
X155952865Y-69707282D01*
X155952865Y-69742575D01*
X155944610Y-69799997D01*
X155944610Y-69800002D01*
X155952865Y-69857424D01*
X155942921Y-69926582D01*
X155897165Y-69979386D01*
X155865063Y-69994046D01*
X155800440Y-70013021D01*
X155685413Y-70086942D01*
X155685409Y-70086946D01*
X155595872Y-70190278D01*
X155595867Y-70190285D01*
X155539070Y-70314654D01*
X155539068Y-70314662D01*
X155519610Y-70449999D01*
X155539068Y-70585337D01*
X155539070Y-70585345D01*
X155595867Y-70709714D01*
X155595872Y-70709721D01*
X155685409Y-70813053D01*
X155685413Y-70813057D01*
X155800441Y-70886979D01*
X155865061Y-70905953D01*
X155923839Y-70943727D01*
X155952865Y-71007282D01*
X155952865Y-71042575D01*
X155944610Y-71099997D01*
X155944610Y-71100002D01*
X155952865Y-71157424D01*
X155942921Y-71226582D01*
X155897165Y-71279386D01*
X155865063Y-71294046D01*
X155800440Y-71313021D01*
X155685413Y-71386942D01*
X155685409Y-71386946D01*
X155595872Y-71490278D01*
X155595867Y-71490285D01*
X155539070Y-71614654D01*
X155539068Y-71614662D01*
X155519610Y-71749999D01*
X155519610Y-71750000D01*
X155524787Y-71786007D01*
X155539068Y-71885337D01*
X155539070Y-71885345D01*
X155595867Y-72009714D01*
X155595872Y-72009721D01*
X155685409Y-72113053D01*
X155685413Y-72113057D01*
X155742899Y-72150000D01*
X155781156Y-72174586D01*
X155800441Y-72186979D01*
X155865061Y-72205953D01*
X155923839Y-72243727D01*
X155952865Y-72307282D01*
X155952865Y-72342575D01*
X155944610Y-72399997D01*
X155944610Y-72400002D01*
X155952865Y-72457424D01*
X155942921Y-72526582D01*
X155897165Y-72579386D01*
X155865063Y-72594046D01*
X155800440Y-72613021D01*
X155685413Y-72686942D01*
X155685409Y-72686946D01*
X155595872Y-72790278D01*
X155595867Y-72790285D01*
X155539070Y-72914654D01*
X155539068Y-72914662D01*
X155519610Y-73050000D01*
X134300500Y-73050000D01*
X134300500Y-72910598D01*
X134320185Y-72843559D01*
X134349010Y-72812225D01*
X134412535Y-72763482D01*
X134504782Y-72643264D01*
X134562771Y-72503267D01*
X134582550Y-72353031D01*
X134581173Y-72342575D01*
X134562771Y-72202796D01*
X134562771Y-72202795D01*
X134504782Y-72062798D01*
X134412535Y-71942580D01*
X134292317Y-71850333D01*
X134292313Y-71850331D01*
X134152320Y-71792344D01*
X134152318Y-71792343D01*
X134002085Y-71772565D01*
X134002083Y-71772565D01*
X133851849Y-71792343D01*
X133851847Y-71792344D01*
X133711854Y-71850331D01*
X133711851Y-71850332D01*
X133711851Y-71850333D01*
X133591633Y-71942580D01*
X133501872Y-72059559D01*
X133499384Y-72062801D01*
X133441397Y-72202794D01*
X133441396Y-72202796D01*
X133421618Y-72353030D01*
X133421618Y-72353031D01*
X133441396Y-72503265D01*
X133441397Y-72503267D01*
X133499384Y-72643261D01*
X133499386Y-72643264D01*
X133591630Y-72763479D01*
X133591633Y-72763482D01*
X133650987Y-72809026D01*
X133692189Y-72865451D01*
X133699500Y-72907406D01*
X133699499Y-72926581D01*
X133679811Y-72993620D01*
X133627005Y-73039372D01*
X133557846Y-73049312D01*
X133540564Y-73045552D01*
X133468868Y-73024500D01*
X133468867Y-73024500D01*
X133332133Y-73024500D01*
X133332132Y-73024500D01*
X133200940Y-73063021D01*
X133085913Y-73136942D01*
X133085909Y-73136946D01*
X132996372Y-73240278D01*
X132996367Y-73240285D01*
X132939570Y-73364654D01*
X132939568Y-73364662D01*
X132920110Y-73499999D01*
X132939568Y-73635337D01*
X132939570Y-73635345D01*
X132996367Y-73759714D01*
X132996372Y-73759721D01*
X133085909Y-73863053D01*
X133085913Y-73863057D01*
X133141258Y-73898624D01*
X133200939Y-73936978D01*
X133260433Y-73954447D01*
X133332132Y-73975500D01*
X133332133Y-73975500D01*
X133468867Y-73975500D01*
X133540567Y-73954447D01*
X133610434Y-73954447D01*
X133669212Y-73992220D01*
X133698238Y-74055776D01*
X133699500Y-74073424D01*
X133699500Y-75676575D01*
X133679815Y-75743614D01*
X133627011Y-75789369D01*
X133557853Y-75799313D01*
X133540565Y-75795552D01*
X133468868Y-75774500D01*
X133468867Y-75774500D01*
X133332133Y-75774500D01*
X133332132Y-75774500D01*
X133200940Y-75813021D01*
X133085913Y-75886942D01*
X133085913Y-75886943D01*
X132996372Y-75990278D01*
X132996367Y-75990285D01*
X132939570Y-76114654D01*
X132939568Y-76114662D01*
X132920110Y-76250000D01*
X131408568Y-76250000D01*
X131460931Y-76135342D01*
X131480390Y-76000000D01*
X131460931Y-75864658D01*
X131448677Y-75837827D01*
X131404132Y-75740285D01*
X131404127Y-75740278D01*
X131314590Y-75636946D01*
X131314586Y-75636942D01*
X131199559Y-75563021D01*
X131068368Y-75524500D01*
X131068367Y-75524500D01*
X130931633Y-75524500D01*
X130931632Y-75524500D01*
X130800440Y-75563021D01*
X130685413Y-75636942D01*
X130685409Y-75636946D01*
X130646629Y-75681702D01*
X130587851Y-75719477D01*
X130552916Y-75724500D01*
X129665478Y-75724500D01*
X129598439Y-75704815D01*
X129577797Y-75688181D01*
X129561819Y-75672203D01*
X129528334Y-75610880D01*
X129525500Y-75584522D01*
X129525500Y-73214477D01*
X129545185Y-73147438D01*
X129597989Y-73101683D01*
X129667147Y-73091739D01*
X129730703Y-73120764D01*
X129737167Y-73126783D01*
X129757822Y-73147438D01*
X129777370Y-73166986D01*
X129792790Y-73185775D01*
X129801373Y-73198621D01*
X129801374Y-73198622D01*
X129801376Y-73198624D01*
X129824376Y-73213992D01*
X129824378Y-73213994D01*
X129879757Y-73250997D01*
X129892505Y-73259515D01*
X129892507Y-73259515D01*
X129892509Y-73259516D01*
X129978833Y-73276687D01*
X129978849Y-73276689D01*
X129999999Y-73280896D01*
X130000000Y-73280896D01*
X130000001Y-73280896D01*
X130015155Y-73277882D01*
X130039343Y-73275500D01*
X130552916Y-73275500D01*
X130619955Y-73295185D01*
X130646629Y-73318298D01*
X130685409Y-73363053D01*
X130685413Y-73363057D01*
X130724508Y-73388181D01*
X130800439Y-73436978D01*
X130811702Y-73440285D01*
X130931632Y-73475500D01*
X130931633Y-73475500D01*
X131068367Y-73475500D01*
X131199561Y-73436978D01*
X131314589Y-73363055D01*
X131404130Y-73259718D01*
X131409197Y-73248624D01*
X131424791Y-73214477D01*
X131460931Y-73135342D01*
X131480390Y-73000000D01*
X131460931Y-72864658D01*
X131435524Y-72809024D01*
X131404132Y-72740285D01*
X131404127Y-72740278D01*
X131314590Y-72636946D01*
X131314586Y-72636942D01*
X131199561Y-72563022D01*
X131196272Y-72561520D01*
X131193542Y-72559154D01*
X131192101Y-72558228D01*
X131192234Y-72558020D01*
X131143472Y-72515761D01*
X131123792Y-72448720D01*
X131143481Y-72381682D01*
X131196289Y-72335931D01*
X131230145Y-72325991D01*
X131251348Y-72322942D01*
X131265336Y-72320932D01*
X131265336Y-72320931D01*
X131265342Y-72320931D01*
X131362887Y-72276383D01*
X131389714Y-72264132D01*
X131389714Y-72264131D01*
X131389718Y-72264130D01*
X131493055Y-72174589D01*
X131566978Y-72059561D01*
X131605500Y-71928367D01*
X131605500Y-71791633D01*
X131593275Y-71750000D01*
X131566978Y-71660440D01*
X131566979Y-71660440D01*
X131493056Y-71545413D01*
X131493055Y-71545411D01*
X131442796Y-71501862D01*
X131405023Y-71443085D01*
X131400000Y-71408150D01*
X131400000Y-70730000D01*
X131900000Y-70730000D01*
X131900000Y-71430000D01*
X132250713Y-71430000D01*
X132402338Y-71414581D01*
X132596381Y-71353700D01*
X132596391Y-71353695D01*
X132774215Y-71254994D01*
X132774216Y-71254994D01*
X132928530Y-71122521D01*
X132928531Y-71122520D01*
X133053018Y-70961695D01*
X133142588Y-70779093D01*
X133168246Y-70680000D01*
X132366111Y-70680000D01*
X132405610Y-70655543D01*
X132473201Y-70566038D01*
X132503895Y-70458160D01*
X132493546Y-70346479D01*
X132443552Y-70246078D01*
X132371069Y-70180000D01*
X133173366Y-70180000D01*
X133173068Y-70178053D01*
X133173066Y-70178047D01*
X133102437Y-69987342D01*
X133102434Y-69987335D01*
X132994850Y-69814732D01*
X132854735Y-69667331D01*
X132854733Y-69667330D01*
X132687804Y-69551143D01*
X132500907Y-69470940D01*
X132301690Y-69430000D01*
X131900000Y-69430000D01*
X131900000Y-70130000D01*
X131400000Y-70130000D01*
X131400000Y-69430000D01*
X131049287Y-69430000D01*
X130897661Y-69445418D01*
X130703618Y-69506299D01*
X130703608Y-69506304D01*
X130525784Y-69605005D01*
X130525783Y-69605005D01*
X130371469Y-69737478D01*
X130371468Y-69737480D01*
X130247556Y-69897561D01*
X130190955Y-69938525D01*
X130121192Y-69942385D01*
X130060416Y-69907916D01*
X130027925Y-69846061D01*
X130025500Y-69821660D01*
X130025500Y-68962000D01*
X130045185Y-68894961D01*
X130097989Y-68849206D01*
X130149500Y-68838000D01*
X130379440Y-68838000D01*
X130379574Y-68838011D01*
X130387678Y-68838010D01*
X130387800Y-68838045D01*
X130439091Y-68838036D01*
X130439091Y-68838037D01*
X130500044Y-68838026D01*
X130617790Y-68806456D01*
X130723354Y-68745489D01*
X130809546Y-68659281D01*
X130870491Y-68553705D01*
X130902038Y-68435952D01*
X130902037Y-68375000D01*
X130902037Y-68326422D01*
X130902037Y-68315598D01*
X130902001Y-68315193D01*
X130902001Y-68314052D01*
X130870456Y-68196310D01*
X130870439Y-68196281D01*
X130809515Y-68090742D01*
X130806457Y-68087683D01*
X130804703Y-68084470D01*
X130804568Y-68084294D01*
X130804595Y-68084272D01*
X130772979Y-68026356D01*
X130777971Y-67956665D01*
X130806467Y-67912331D01*
X130809508Y-67909289D01*
X130809507Y-67909289D01*
X130809511Y-67909286D01*
X130870462Y-67803709D01*
X130902013Y-67685954D01*
X130902013Y-67625000D01*
X130902013Y-67576422D01*
X130902013Y-67565728D01*
X130902000Y-67565577D01*
X130902000Y-67564048D01*
X130901999Y-67564042D01*
X130870451Y-67446299D01*
X130870450Y-67446298D01*
X130870450Y-67446296D01*
X130809500Y-67340722D01*
X130809498Y-67340720D01*
X130809497Y-67340718D01*
X130806479Y-67337700D01*
X130804745Y-67334524D01*
X130804553Y-67334274D01*
X130804592Y-67334243D01*
X130772997Y-67276375D01*
X130777986Y-67206684D01*
X130806477Y-67162349D01*
X130809546Y-67159281D01*
X130870491Y-67053705D01*
X130902038Y-66935952D01*
X130902037Y-66875000D01*
X130902037Y-66826422D01*
X130902037Y-66826421D01*
X130902037Y-66815598D01*
X130902001Y-66815193D01*
X130902001Y-66814052D01*
X130870456Y-66696310D01*
X130864508Y-66686007D01*
X130809515Y-66590742D01*
X130806457Y-66587683D01*
X130804703Y-66584470D01*
X130804568Y-66584294D01*
X130804595Y-66584272D01*
X130772979Y-66526356D01*
X130777971Y-66456665D01*
X130806467Y-66412331D01*
X130809508Y-66409289D01*
X130809507Y-66409289D01*
X130809511Y-66409286D01*
X130870462Y-66303709D01*
X130902013Y-66185954D01*
X130902013Y-66125000D01*
X130902013Y-66076422D01*
X130902013Y-66065728D01*
X130902000Y-66065577D01*
X130902000Y-66064048D01*
X130901999Y-66064042D01*
X130870451Y-65946299D01*
X130870450Y-65946298D01*
X130870450Y-65946296D01*
X130809500Y-65840722D01*
X130809498Y-65840720D01*
X130809497Y-65840718D01*
X130806479Y-65837700D01*
X130804745Y-65834524D01*
X130804553Y-65834274D01*
X130804592Y-65834243D01*
X130772997Y-65776375D01*
X130777986Y-65706684D01*
X130806477Y-65662349D01*
X130809546Y-65659281D01*
X130870491Y-65553705D01*
X130902038Y-65435952D01*
X130902037Y-65375000D01*
X130902037Y-65326422D01*
X130902037Y-65326421D01*
X130902037Y-65315598D01*
X130902001Y-65315193D01*
X130902001Y-65314052D01*
X130870456Y-65196310D01*
X130870442Y-65196286D01*
X130809515Y-65090742D01*
X130806471Y-65087697D01*
X130804725Y-65084498D01*
X130804568Y-65084294D01*
X130804599Y-65084269D01*
X130772993Y-65026370D01*
X130777985Y-64956679D01*
X130806478Y-64912349D01*
X130809546Y-64909281D01*
X130870491Y-64803705D01*
X130902038Y-64685952D01*
X130902037Y-64625000D01*
X130902037Y-64576422D01*
X130902037Y-64565598D01*
X130902001Y-64565193D01*
X130902001Y-64564052D01*
X130870456Y-64446310D01*
X130870439Y-64446281D01*
X130809515Y-64340742D01*
X130723331Y-64254541D01*
X130723328Y-64254539D01*
X130723326Y-64254537D01*
X130617775Y-64193579D01*
X130617697Y-64193558D01*
X130500039Y-64162011D01*
X130500013Y-64162010D01*
X130468798Y-64162004D01*
X130468700Y-64162000D01*
X130466170Y-64162000D01*
X130439105Y-64162000D01*
X130438431Y-64161999D01*
X130390513Y-64161990D01*
X130390512Y-64161990D01*
X130379574Y-64161988D01*
X130379440Y-64162000D01*
X130349528Y-64162000D01*
X130282489Y-64142315D01*
X130236734Y-64089511D01*
X130226790Y-64020353D01*
X130255815Y-63956797D01*
X130263659Y-63950000D01*
X133519610Y-63950000D01*
X133539068Y-64085337D01*
X133539070Y-64085345D01*
X133595867Y-64209714D01*
X133595872Y-64209721D01*
X133685409Y-64313053D01*
X133685413Y-64313057D01*
X133728437Y-64340706D01*
X133800439Y-64386978D01*
X133865634Y-64406121D01*
X133931632Y-64425500D01*
X133931633Y-64425500D01*
X134068367Y-64425500D01*
X134199561Y-64386978D01*
X134314589Y-64313055D01*
X134404130Y-64209718D01*
X134411501Y-64193579D01*
X134437364Y-64136946D01*
X134460931Y-64085342D01*
X134480390Y-63950000D01*
X134460931Y-63814658D01*
X134415015Y-63714116D01*
X134404132Y-63690285D01*
X134404127Y-63690278D01*
X134314590Y-63586946D01*
X134314586Y-63586942D01*
X134199559Y-63513021D01*
X134068368Y-63474500D01*
X134068367Y-63474500D01*
X133931633Y-63474500D01*
X133931632Y-63474500D01*
X133800440Y-63513021D01*
X133685413Y-63586942D01*
X133685409Y-63586946D01*
X133595872Y-63690278D01*
X133595867Y-63690285D01*
X133539070Y-63814654D01*
X133539068Y-63814662D01*
X133519610Y-63950000D01*
X130263659Y-63950000D01*
X130282489Y-63933684D01*
X130314589Y-63913055D01*
X130404130Y-63809718D01*
X130460931Y-63685342D01*
X130480390Y-63550000D01*
X130460931Y-63414658D01*
X130443738Y-63377011D01*
X130404132Y-63290285D01*
X130404127Y-63290278D01*
X130314590Y-63186946D01*
X130314586Y-63186942D01*
X130199559Y-63113021D01*
X130068368Y-63074500D01*
X130068367Y-63074500D01*
X129931633Y-63074500D01*
X129931632Y-63074500D01*
X129800440Y-63113021D01*
X129685413Y-63186942D01*
X129685413Y-63186943D01*
X129593713Y-63292771D01*
X129534935Y-63330545D01*
X129465065Y-63330545D01*
X129406287Y-63292771D01*
X129362362Y-63242079D01*
X129314589Y-63186945D01*
X129314586Y-63186943D01*
X129314586Y-63186942D01*
X129199559Y-63113021D01*
X129068368Y-63074500D01*
X129068367Y-63074500D01*
X128931633Y-63074500D01*
X128931632Y-63074500D01*
X128800440Y-63113021D01*
X128685413Y-63186942D01*
X128685409Y-63186946D01*
X128595872Y-63290278D01*
X128595867Y-63290285D01*
X128539070Y-63414654D01*
X128539068Y-63414662D01*
X128519610Y-63550000D01*
X128539068Y-63685337D01*
X128539070Y-63685345D01*
X128595867Y-63809714D01*
X128595872Y-63809721D01*
X128685409Y-63913053D01*
X128685413Y-63913057D01*
X128742899Y-63950000D01*
X128793988Y-63982832D01*
X128839743Y-64035634D01*
X128849687Y-64104792D01*
X128820663Y-64168349D01*
X128788940Y-64194539D01*
X128685056Y-64254505D01*
X128598842Y-64340708D01*
X128537882Y-64446281D01*
X128506326Y-64564043D01*
X128506325Y-64573626D01*
X128506299Y-64573714D01*
X128506300Y-64685959D01*
X128514273Y-64715711D01*
X128537853Y-64803705D01*
X128537860Y-64803729D01*
X128598822Y-64909306D01*
X128598825Y-64909310D01*
X128601835Y-64912320D01*
X128603562Y-64915483D01*
X128603771Y-64915755D01*
X128603728Y-64915787D01*
X128635324Y-64973641D01*
X128630343Y-65043333D01*
X128601840Y-65087687D01*
X128598820Y-65090706D01*
X128537861Y-65196286D01*
X128506307Y-65314045D01*
X128506307Y-65323631D01*
X128506299Y-65323654D01*
X128506300Y-65435955D01*
X128506300Y-65435959D01*
X128537852Y-65553709D01*
X128537854Y-65553713D01*
X128537855Y-65553715D01*
X128562592Y-65596561D01*
X128598810Y-65659292D01*
X128598814Y-65659297D01*
X128601852Y-65662335D01*
X128603595Y-65665527D01*
X128603759Y-65665741D01*
X128603725Y-65665766D01*
X128635337Y-65723658D01*
X128630353Y-65793350D01*
X128601852Y-65837697D01*
X128598847Y-65840701D01*
X128598842Y-65840708D01*
X128537882Y-65946281D01*
X128506326Y-66064043D01*
X128506325Y-66073626D01*
X128506299Y-66073714D01*
X128506300Y-66185959D01*
X128525469Y-66257490D01*
X128537854Y-66303709D01*
X128537860Y-66303729D01*
X128598822Y-66409306D01*
X128598825Y-66409310D01*
X128601835Y-66412320D01*
X128603562Y-66415483D01*
X128603771Y-66415755D01*
X128603728Y-66415787D01*
X128635324Y-66473641D01*
X128630343Y-66543333D01*
X128601840Y-66587687D01*
X128598820Y-66590706D01*
X128537861Y-66696286D01*
X128506307Y-66814045D01*
X128506307Y-66823631D01*
X128506299Y-66823654D01*
X128506300Y-66935955D01*
X128506300Y-66935959D01*
X128537852Y-67053709D01*
X128537854Y-67053713D01*
X128537855Y-67053715D01*
X128562592Y-67096561D01*
X128598810Y-67159292D01*
X128601836Y-67162318D01*
X128603573Y-67165498D01*
X128603759Y-67165741D01*
X128603721Y-67165769D01*
X128635325Y-67223639D01*
X128630344Y-67293331D01*
X128601846Y-67337680D01*
X128598821Y-67340705D01*
X128537861Y-67446286D01*
X128506306Y-67564045D01*
X128506307Y-67573630D01*
X128506299Y-67573653D01*
X128506300Y-67685955D01*
X128506300Y-67685959D01*
X128537852Y-67803709D01*
X128537854Y-67803713D01*
X128537855Y-67803715D01*
X128562592Y-67846561D01*
X128598810Y-67909292D01*
X128598814Y-67909297D01*
X128601852Y-67912335D01*
X128603595Y-67915527D01*
X128603759Y-67915741D01*
X128603725Y-67915766D01*
X128635337Y-67973658D01*
X128630353Y-68043350D01*
X128601852Y-68087697D01*
X128598847Y-68090701D01*
X128598842Y-68090708D01*
X128537882Y-68196281D01*
X128506326Y-68314043D01*
X128506325Y-68323626D01*
X128506299Y-68323714D01*
X128506300Y-68435959D01*
X128522626Y-68496880D01*
X128537853Y-68553705D01*
X128537860Y-68553729D01*
X128598822Y-68659306D01*
X128598821Y-68659306D01*
X128598823Y-68659308D01*
X128598824Y-68659309D01*
X128685040Y-68745514D01*
X128790632Y-68806465D01*
X128882579Y-68831091D01*
X128942243Y-68867448D01*
X128972780Y-68930291D01*
X128974499Y-68950869D01*
X128974499Y-69910245D01*
X128954814Y-69977284D01*
X128902010Y-70023039D01*
X128832852Y-70032983D01*
X128769296Y-70003958D01*
X128745267Y-69975836D01*
X128644852Y-69814734D01*
X128504735Y-69667331D01*
X128504733Y-69667330D01*
X128337804Y-69551143D01*
X128150907Y-69470940D01*
X127951690Y-69430000D01*
X127700000Y-69430000D01*
X127700000Y-70130000D01*
X127200000Y-70130000D01*
X127200000Y-69430000D01*
X126999287Y-69430000D01*
X126847661Y-69445418D01*
X126653618Y-69506299D01*
X126653608Y-69506304D01*
X126475784Y-69605005D01*
X126475783Y-69605005D01*
X126321469Y-69737478D01*
X126321468Y-69737479D01*
X126196981Y-69898304D01*
X126107411Y-70080906D01*
X126081754Y-70180000D01*
X126883889Y-70180000D01*
X126844390Y-70204457D01*
X126776799Y-70293962D01*
X126746105Y-70401840D01*
X126756454Y-70513521D01*
X126806448Y-70613922D01*
X126878931Y-70680000D01*
X126076634Y-70680000D01*
X124650500Y-70680000D01*
X124650500Y-62000000D01*
X126394610Y-62000000D01*
X126414068Y-62135337D01*
X126414070Y-62135345D01*
X126470867Y-62259714D01*
X126470872Y-62259721D01*
X126560409Y-62363053D01*
X126560413Y-62363057D01*
X126594594Y-62385023D01*
X126675439Y-62436978D01*
X126741036Y-62456239D01*
X126806632Y-62475500D01*
X126806633Y-62475500D01*
X126943367Y-62475500D01*
X127074561Y-62436978D01*
X127098954Y-62421301D01*
X127165988Y-62401618D01*
X127233028Y-62421302D01*
X127278784Y-62474105D01*
X127288728Y-62507971D01*
X127289068Y-62510337D01*
X127289070Y-62510345D01*
X127345867Y-62634714D01*
X127345872Y-62634721D01*
X127435409Y-62738053D01*
X127435413Y-62738057D01*
X127492899Y-62775000D01*
X127550439Y-62811978D01*
X127616035Y-62831239D01*
X127681632Y-62850500D01*
X127681633Y-62850500D01*
X127818367Y-62850500D01*
X127949561Y-62811978D01*
X128064589Y-62738055D01*
X128154130Y-62634718D01*
X128210931Y-62510342D01*
X128230390Y-62375000D01*
X128210931Y-62239658D01*
X128163293Y-62135345D01*
X128154132Y-62115285D01*
X128154127Y-62115278D01*
X128064590Y-62011946D01*
X128064586Y-62011942D01*
X127973736Y-61953558D01*
X127949561Y-61938022D01*
X127949560Y-61938021D01*
X127949559Y-61938021D01*
X127818368Y-61899500D01*
X127818367Y-61899500D01*
X127681633Y-61899500D01*
X127681632Y-61899500D01*
X127550441Y-61938020D01*
X127526046Y-61953698D01*
X127459006Y-61973381D01*
X127391967Y-61953695D01*
X127346213Y-61900890D01*
X127336270Y-61867019D01*
X127335931Y-61864662D01*
X127335931Y-61864658D01*
X127310077Y-61808045D01*
X127279132Y-61740285D01*
X127279127Y-61740278D01*
X127189590Y-61636946D01*
X127189591Y-61636946D01*
X127180899Y-61631360D01*
X127138813Y-61604313D01*
X127093060Y-61551513D01*
X127083116Y-61482355D01*
X127112140Y-61418799D01*
X127138809Y-61395688D01*
X127189589Y-61363055D01*
X127279130Y-61259718D01*
X127335931Y-61135342D01*
X127355390Y-61000000D01*
X127335931Y-60864658D01*
X127304204Y-60795185D01*
X127279132Y-60740285D01*
X127279127Y-60740278D01*
X127189590Y-60636946D01*
X127189586Y-60636942D01*
X127074559Y-60563021D01*
X126943368Y-60524500D01*
X126943367Y-60524500D01*
X126806633Y-60524500D01*
X126806632Y-60524500D01*
X126675440Y-60563021D01*
X126560413Y-60636942D01*
X126560409Y-60636946D01*
X126470872Y-60740278D01*
X126470867Y-60740285D01*
X126414070Y-60864654D01*
X126414068Y-60864662D01*
X126394610Y-61000000D01*
X126414068Y-61135337D01*
X126414070Y-61135345D01*
X126470867Y-61259714D01*
X126470872Y-61259721D01*
X126523103Y-61319999D01*
X126560411Y-61363055D01*
X126611184Y-61395684D01*
X126656939Y-61448488D01*
X126666883Y-61517646D01*
X126637859Y-61581202D01*
X126611185Y-61604314D01*
X126611182Y-61604317D01*
X126560410Y-61636945D01*
X126560409Y-61636946D01*
X126470872Y-61740278D01*
X126470867Y-61740285D01*
X126414070Y-61864654D01*
X126414068Y-61864662D01*
X126394610Y-62000000D01*
X124650500Y-62000000D01*
X124650500Y-46500000D01*
X133169533Y-46500000D01*
X133189312Y-46650234D01*
X133189313Y-46650236D01*
X133234660Y-46759714D01*
X133247302Y-46790233D01*
X133339549Y-46910451D01*
X133459767Y-47002698D01*
X133599764Y-47060687D01*
X133674881Y-47070576D01*
X133749999Y-47080466D01*
X133750000Y-47080466D01*
X133750001Y-47080466D01*
X133800078Y-47073873D01*
X133900236Y-47060687D01*
X134040233Y-47002698D01*
X134160451Y-46910451D01*
X134252698Y-46790233D01*
X134310687Y-46650236D01*
X134330466Y-46500000D01*
X134310687Y-46349764D01*
X134252698Y-46209767D01*
X134160451Y-46089549D01*
X134040233Y-45997302D01*
X134040229Y-45997300D01*
X133900236Y-45939313D01*
X133900234Y-45939312D01*
X133750001Y-45919534D01*
X133749999Y-45919534D01*
X133599765Y-45939312D01*
X133599763Y-45939313D01*
X133459770Y-45997300D01*
X133459767Y-45997301D01*
X133459767Y-45997302D01*
X133339549Y-46089549D01*
X133252671Y-46202771D01*
X133247300Y-46209770D01*
X133189313Y-46349763D01*
X133189312Y-46349765D01*
X133169533Y-46499999D01*
X133169533Y-46500000D01*
X124650500Y-46500000D01*
X124650500Y-41785000D01*
X128629364Y-41785000D01*
X128686567Y-41998486D01*
X128686570Y-41998492D01*
X128786399Y-42212578D01*
X128921894Y-42406082D01*
X129088917Y-42573105D01*
X129282421Y-42708600D01*
X129496507Y-42808429D01*
X129496516Y-42808433D01*
X129710000Y-42865634D01*
X129710000Y-41970501D01*
X129817685Y-42019680D01*
X129924237Y-42035000D01*
X129995763Y-42035000D01*
X130102315Y-42019680D01*
X130210000Y-41970501D01*
X130210000Y-42865633D01*
X130423483Y-42808433D01*
X130423492Y-42808429D01*
X130637578Y-42708600D01*
X130831082Y-42573105D01*
X130998105Y-42406082D01*
X131133600Y-42212578D01*
X131233429Y-41998492D01*
X131233433Y-41998483D01*
X131278411Y-41830621D01*
X131314776Y-41770960D01*
X131377622Y-41740431D01*
X131446998Y-41748725D01*
X131500876Y-41793211D01*
X131516846Y-41826718D01*
X131547977Y-41929342D01*
X131643198Y-42107488D01*
X131643201Y-42107492D01*
X131643202Y-42107494D01*
X131657158Y-42124500D01*
X131771352Y-42263647D01*
X131806135Y-42292192D01*
X131927506Y-42391798D01*
X131927509Y-42391799D01*
X131927511Y-42391801D01*
X132105656Y-42487022D01*
X132105658Y-42487022D01*
X132105659Y-42487023D01*
X132136494Y-42496376D01*
X132194932Y-42534671D01*
X132223390Y-42598482D01*
X132224500Y-42615037D01*
X132224499Y-43960655D01*
X132222117Y-43984842D01*
X132219103Y-43999996D01*
X132219103Y-43999998D01*
X132219103Y-44000000D01*
X132223491Y-44022061D01*
X132223640Y-44022807D01*
X132223647Y-44022849D01*
X132240483Y-44107493D01*
X132240484Y-44107495D01*
X132260166Y-44136949D01*
X132260168Y-44136957D01*
X132260171Y-44136956D01*
X132275379Y-44159718D01*
X132275381Y-44159721D01*
X132275380Y-44159721D01*
X132301374Y-44198623D01*
X132305585Y-44201436D01*
X132314222Y-44207207D01*
X132333012Y-44222628D01*
X132527370Y-44416986D01*
X132542791Y-44435776D01*
X132551375Y-44448624D01*
X132559374Y-44453968D01*
X132574376Y-44463992D01*
X132574378Y-44463994D01*
X132603002Y-44483120D01*
X132642505Y-44509515D01*
X132642507Y-44509515D01*
X132642507Y-44509516D01*
X132728833Y-44526687D01*
X132728849Y-44526689D01*
X132749999Y-44530896D01*
X132750000Y-44530896D01*
X132750001Y-44530896D01*
X132765155Y-44527882D01*
X132789343Y-44525500D01*
X135084521Y-44525500D01*
X135151560Y-44545185D01*
X135172199Y-44561816D01*
X135188178Y-44577794D01*
X135221665Y-44639116D01*
X135224500Y-44665478D01*
X135224500Y-45529829D01*
X135224529Y-45530426D01*
X135224529Y-45559104D01*
X135249147Y-45650988D01*
X135247482Y-45720838D01*
X135208318Y-45778699D01*
X135161455Y-45802855D01*
X135152978Y-45805125D01*
X135152971Y-45805128D01*
X135050545Y-45864251D01*
X135050541Y-45864254D01*
X134966909Y-45947868D01*
X134907764Y-46050283D01*
X134877143Y-46164512D01*
X134877142Y-46164519D01*
X134877139Y-46192086D01*
X134877131Y-46192186D01*
X134877131Y-46199959D01*
X134877094Y-46200084D01*
X134877107Y-46310485D01*
X134877108Y-46310493D01*
X134891627Y-46364654D01*
X134907731Y-46424730D01*
X134951198Y-46499999D01*
X134966881Y-46527156D01*
X134971825Y-46533597D01*
X134970077Y-46534938D01*
X134998051Y-46586149D01*
X134993077Y-46655842D01*
X134970760Y-46690578D01*
X134971858Y-46691421D01*
X134966910Y-46697867D01*
X134907764Y-46800283D01*
X134877143Y-46914512D01*
X134877142Y-46914519D01*
X134877139Y-46942086D01*
X134877131Y-46942186D01*
X134877131Y-46949959D01*
X134877094Y-46950084D01*
X134877107Y-47060485D01*
X134877108Y-47060493D01*
X134907730Y-47174727D01*
X134907731Y-47174730D01*
X134942885Y-47235603D01*
X134962342Y-47269297D01*
X134966880Y-47277154D01*
X135050523Y-47360779D01*
X135152959Y-47419906D01*
X135161044Y-47422071D01*
X135220707Y-47458428D01*
X135251244Y-47521271D01*
X135248733Y-47573960D01*
X135224512Y-47664299D01*
X135224511Y-47664307D01*
X135224505Y-47693242D01*
X135224500Y-47693350D01*
X135224500Y-47723413D01*
X135224487Y-47782805D01*
X135224500Y-47782952D01*
X135224500Y-50196444D01*
X135204815Y-50263483D01*
X135190691Y-50279785D01*
X135191219Y-50280242D01*
X135095870Y-50390282D01*
X135095867Y-50390285D01*
X135039070Y-50514654D01*
X135039068Y-50514662D01*
X135019610Y-50649999D01*
X135039068Y-50785337D01*
X135039070Y-50785345D01*
X135095867Y-50909714D01*
X135095872Y-50909721D01*
X135191219Y-51019758D01*
X135189199Y-51021508D01*
X135219475Y-51068612D01*
X135224500Y-51103554D01*
X135224500Y-53334520D01*
X135204815Y-53401559D01*
X135188184Y-53422198D01*
X135172205Y-53438178D01*
X135110883Y-53471665D01*
X135084521Y-53474500D01*
X133539343Y-53474500D01*
X133515155Y-53472118D01*
X133500001Y-53469104D01*
X133499999Y-53469104D01*
X133477896Y-53473500D01*
X133477844Y-53473509D01*
X133362079Y-53496536D01*
X133330714Y-53531772D01*
X133329717Y-53532438D01*
X133324378Y-53536006D01*
X133324376Y-53536007D01*
X133312561Y-53543901D01*
X133301373Y-53551377D01*
X133292791Y-53564222D01*
X133277372Y-53583010D01*
X133083010Y-53777372D01*
X133064222Y-53792791D01*
X133051376Y-53801374D01*
X133041130Y-53816709D01*
X133036007Y-53824376D01*
X133036006Y-53824378D01*
X133018528Y-53850534D01*
X133018526Y-53850537D01*
X132997267Y-53882353D01*
X132981846Y-53901143D01*
X132980860Y-53902128D01*
X132983559Y-53927224D01*
X132983146Y-53929399D01*
X132969103Y-53999997D01*
X132969103Y-53999998D01*
X132969103Y-54000000D01*
X132971478Y-54011942D01*
X132972117Y-54015151D01*
X132974500Y-54039344D01*
X132974500Y-54650500D01*
X132954815Y-54717539D01*
X132902011Y-54763294D01*
X132850500Y-54774500D01*
X132787995Y-54774500D01*
X132787975Y-54774498D01*
X132778950Y-54774498D01*
X132778912Y-54774487D01*
X132662740Y-54774490D01*
X132662733Y-54774491D01*
X132580627Y-54793234D01*
X132536302Y-54803353D01*
X132536295Y-54803356D01*
X132536293Y-54803357D01*
X132419464Y-54859620D01*
X132318073Y-54940480D01*
X132318065Y-54940487D01*
X132237215Y-55041874D01*
X132237212Y-55041879D01*
X132180947Y-55158719D01*
X132180944Y-55158729D01*
X132152088Y-55285154D01*
X132152088Y-55285157D01*
X132152089Y-55350001D01*
X132152088Y-55409180D01*
X132152099Y-55409295D01*
X132152099Y-55414847D01*
X132180953Y-55541264D01*
X132180957Y-55541276D01*
X132237221Y-55658114D01*
X132237224Y-55658119D01*
X132318074Y-55759506D01*
X132343024Y-55779404D01*
X132419466Y-55840366D01*
X132536306Y-55896637D01*
X132662737Y-55925498D01*
X132694330Y-55925498D01*
X132694344Y-55925500D01*
X132700456Y-55925500D01*
X132727576Y-55925500D01*
X132727581Y-55925500D01*
X132776157Y-55925502D01*
X132776159Y-55925500D01*
X132787974Y-55925501D01*
X132787995Y-55925500D01*
X132849269Y-55925500D01*
X132916308Y-55945185D01*
X132962063Y-55997989D01*
X132973269Y-56049500D01*
X132973269Y-57297511D01*
X132953584Y-57364550D01*
X132940516Y-57379633D01*
X132941219Y-57380242D01*
X132845870Y-57490282D01*
X132845867Y-57490285D01*
X132789070Y-57614654D01*
X132789068Y-57614662D01*
X132769610Y-57749999D01*
X132789068Y-57885337D01*
X132789070Y-57885345D01*
X132845867Y-58009714D01*
X132845872Y-58009721D01*
X132935409Y-58113053D01*
X132935413Y-58113057D01*
X132995979Y-58151979D01*
X133050439Y-58186978D01*
X133106892Y-58203554D01*
X133181632Y-58225500D01*
X133181633Y-58225500D01*
X133318367Y-58225500D01*
X133449561Y-58186978D01*
X133564589Y-58113055D01*
X133654130Y-58009718D01*
X133710931Y-57885342D01*
X133721606Y-57811094D01*
X133750629Y-57747541D01*
X133809407Y-57709766D01*
X133879275Y-57709765D01*
X133879276Y-57709765D01*
X133879278Y-57709766D01*
X133932863Y-57725500D01*
X133932864Y-57725500D01*
X134069596Y-57725500D01*
X134069598Y-57725500D01*
X134120822Y-57710458D01*
X134190688Y-57710458D01*
X134249467Y-57748232D01*
X134278493Y-57811787D01*
X134278493Y-57811788D01*
X134289068Y-57885337D01*
X134289070Y-57885345D01*
X134345867Y-58009714D01*
X134345872Y-58009721D01*
X134441219Y-58119758D01*
X134439199Y-58121508D01*
X134469475Y-58168612D01*
X134474500Y-58203554D01*
X134474500Y-59362624D01*
X134454815Y-59429663D01*
X134402011Y-59475418D01*
X134332853Y-59485362D01*
X134283462Y-59466941D01*
X134273458Y-59460512D01*
X134199561Y-59413022D01*
X134199557Y-59413020D01*
X134199556Y-59413020D01*
X134068368Y-59374500D01*
X134068367Y-59374500D01*
X133931633Y-59374500D01*
X133931632Y-59374500D01*
X133800440Y-59413021D01*
X133685413Y-59486942D01*
X133685409Y-59486946D01*
X133595872Y-59590278D01*
X133595867Y-59590285D01*
X133539070Y-59714654D01*
X133539068Y-59714662D01*
X133519610Y-59850000D01*
X133539068Y-59985337D01*
X133539070Y-59985345D01*
X133595867Y-60109714D01*
X133595872Y-60109721D01*
X133685409Y-60213053D01*
X133685413Y-60213057D01*
X133719317Y-60234845D01*
X133800439Y-60286978D01*
X133866035Y-60306239D01*
X133931632Y-60325500D01*
X133931633Y-60325500D01*
X134068367Y-60325500D01*
X134199561Y-60286978D01*
X134291934Y-60227613D01*
X134358970Y-60207931D01*
X134426010Y-60227616D01*
X134471765Y-60280420D01*
X134480587Y-60307739D01*
X134490483Y-60357490D01*
X134490484Y-60357493D01*
X134490485Y-60357495D01*
X134514940Y-60394094D01*
X134551373Y-60448621D01*
X134551376Y-60448624D01*
X134564221Y-60457206D01*
X134583011Y-60472627D01*
X134777369Y-60666985D01*
X134792790Y-60685775D01*
X134801373Y-60698621D01*
X134801374Y-60698622D01*
X134801376Y-60698624D01*
X134821793Y-60712266D01*
X134821806Y-60712276D01*
X134836642Y-60722189D01*
X134863721Y-60740282D01*
X134892505Y-60759515D01*
X134892508Y-60759515D01*
X134892509Y-60759516D01*
X134978833Y-60776687D01*
X134978849Y-60776689D01*
X134999999Y-60780896D01*
X135000000Y-60780896D01*
X135000001Y-60780896D01*
X135015155Y-60777882D01*
X135039343Y-60775500D01*
X137572808Y-60775500D01*
X137639847Y-60795185D01*
X137685602Y-60847989D01*
X137695070Y-60913843D01*
X137695902Y-60913937D01*
X137695542Y-60917124D01*
X137695546Y-60917147D01*
X137695531Y-60917224D01*
X137674938Y-61099997D01*
X137674938Y-61100002D01*
X137695121Y-61279138D01*
X137695122Y-61279141D01*
X137754662Y-61449298D01*
X137754667Y-61449308D01*
X137763338Y-61463108D01*
X138148172Y-61078275D01*
X138301077Y-61078275D01*
X138311475Y-61163913D01*
X138360481Y-61234909D01*
X138436866Y-61275000D01*
X138501247Y-61275000D01*
X138563760Y-61259592D01*
X138628332Y-61202386D01*
X138658923Y-61121725D01*
X138648525Y-61036087D01*
X138599519Y-60965091D01*
X138523134Y-60925000D01*
X138458753Y-60925000D01*
X138396240Y-60940408D01*
X138331668Y-60997614D01*
X138301077Y-61078275D01*
X138148172Y-61078275D01*
X138392319Y-60834128D01*
X138453642Y-60800643D01*
X138523334Y-60805627D01*
X138567681Y-60834128D01*
X138745872Y-61012319D01*
X138779357Y-61073642D01*
X138774373Y-61143334D01*
X138745872Y-61187681D01*
X138198553Y-61734999D01*
X138198553Y-61735000D01*
X138745872Y-62282319D01*
X138779357Y-62343642D01*
X138774373Y-62413334D01*
X138745872Y-62457681D01*
X138567681Y-62635871D01*
X138506358Y-62669356D01*
X138436666Y-62664372D01*
X138392319Y-62635871D01*
X138104723Y-62348275D01*
X138301077Y-62348275D01*
X138311475Y-62433913D01*
X138360481Y-62504909D01*
X138436866Y-62545000D01*
X138501247Y-62545000D01*
X138563760Y-62529592D01*
X138628332Y-62472386D01*
X138658923Y-62391725D01*
X138648525Y-62306087D01*
X138599519Y-62235091D01*
X138523134Y-62195000D01*
X138458753Y-62195000D01*
X138396240Y-62210408D01*
X138331668Y-62267614D01*
X138301077Y-62348275D01*
X138104723Y-62348275D01*
X137763338Y-62006890D01*
X137763338Y-62006891D01*
X137754664Y-62020696D01*
X137695122Y-62190858D01*
X137695121Y-62190861D01*
X137674938Y-62369997D01*
X137674938Y-62370002D01*
X137695121Y-62549138D01*
X137695122Y-62549141D01*
X137754663Y-62719301D01*
X137850575Y-62871944D01*
X137850747Y-62872160D01*
X137850814Y-62872325D01*
X137854282Y-62877844D01*
X137853315Y-62878451D01*
X137877157Y-62936846D01*
X137864403Y-63005542D01*
X137847516Y-63030678D01*
X137795870Y-63090281D01*
X137795867Y-63090285D01*
X137739070Y-63214654D01*
X137739068Y-63214662D01*
X137719610Y-63349999D01*
X137739068Y-63485337D01*
X137739070Y-63485345D01*
X137795867Y-63609714D01*
X137795872Y-63609721D01*
X137885409Y-63713053D01*
X137885413Y-63713057D01*
X137919373Y-63734881D01*
X138000439Y-63786978D01*
X138066035Y-63806239D01*
X138131632Y-63825500D01*
X138131633Y-63825500D01*
X138268367Y-63825500D01*
X138399561Y-63786978D01*
X138514589Y-63713055D01*
X138553370Y-63668298D01*
X138612149Y-63630523D01*
X138647084Y-63625500D01*
X139534522Y-63625500D01*
X139601561Y-63645185D01*
X139622203Y-63661819D01*
X139638181Y-63677797D01*
X139671666Y-63739120D01*
X139674500Y-63765478D01*
X139674500Y-66110655D01*
X139672117Y-66134847D01*
X139669103Y-66149999D01*
X139669103Y-66150000D01*
X139673640Y-66172807D01*
X139673647Y-66172849D01*
X139690483Y-66257490D01*
X139690484Y-66257493D01*
X139690485Y-66257495D01*
X139709864Y-66286497D01*
X139751373Y-66348621D01*
X139751376Y-66348624D01*
X139764221Y-66357206D01*
X139783011Y-66372627D01*
X139887130Y-66476746D01*
X139920615Y-66538069D01*
X139922187Y-66582071D01*
X139919610Y-66599997D01*
X139919610Y-66599999D01*
X139939068Y-66735337D01*
X139939070Y-66735345D01*
X139995867Y-66859714D01*
X139995872Y-66859721D01*
X140085409Y-66963053D01*
X140085413Y-66963057D01*
X140139770Y-66997989D01*
X140200439Y-67036978D01*
X140257406Y-67053705D01*
X140331632Y-67075500D01*
X140331633Y-67075500D01*
X140468367Y-67075500D01*
X140599561Y-67036978D01*
X140714589Y-66963055D01*
X140804130Y-66859718D01*
X140860931Y-66735342D01*
X140880390Y-66600000D01*
X140860931Y-66464658D01*
X140838598Y-66415755D01*
X140804132Y-66340285D01*
X140804127Y-66340278D01*
X140714590Y-66236946D01*
X140714586Y-66236942D01*
X140599559Y-66163021D01*
X140468368Y-66124500D01*
X140468367Y-66124500D01*
X140365478Y-66124500D01*
X140298439Y-66104815D01*
X140277797Y-66088181D01*
X140261819Y-66072203D01*
X140228334Y-66010880D01*
X140225500Y-65984522D01*
X140225500Y-63639339D01*
X140227883Y-63615146D01*
X140230896Y-63599999D01*
X140230896Y-63599998D01*
X140226689Y-63578849D01*
X140226687Y-63578833D01*
X140209516Y-63492507D01*
X140206519Y-63488022D01*
X140180780Y-63449500D01*
X140163994Y-63424378D01*
X140163992Y-63424376D01*
X140148624Y-63401376D01*
X140148622Y-63401374D01*
X140148621Y-63401373D01*
X140135775Y-63392790D01*
X140116985Y-63377369D01*
X140043018Y-63303402D01*
X140009533Y-63242079D01*
X140014517Y-63172387D01*
X140056389Y-63116454D01*
X140089750Y-63098678D01*
X140099302Y-63095335D01*
X140099307Y-63095333D01*
X140113107Y-63086661D01*
X140113107Y-63086660D01*
X140656891Y-63086660D01*
X140670697Y-63095335D01*
X140670701Y-63095337D01*
X140840858Y-63154877D01*
X140840861Y-63154878D01*
X141019997Y-63175062D01*
X141020003Y-63175062D01*
X141199138Y-63154878D01*
X141369307Y-63095333D01*
X141383107Y-63086661D01*
X141383107Y-63086660D01*
X141020001Y-62723553D01*
X141020000Y-62723553D01*
X140656891Y-63086660D01*
X140113107Y-63086660D01*
X139484128Y-62457681D01*
X139450643Y-62396358D01*
X139454082Y-62348275D01*
X139571077Y-62348275D01*
X139581475Y-62433913D01*
X139630481Y-62504909D01*
X139706866Y-62545000D01*
X139771247Y-62545000D01*
X139833760Y-62529592D01*
X139898332Y-62472386D01*
X139928923Y-62391725D01*
X139918525Y-62306087D01*
X139869519Y-62235091D01*
X139793134Y-62195000D01*
X139728753Y-62195000D01*
X139666240Y-62210408D01*
X139601668Y-62267614D01*
X139571077Y-62348275D01*
X139454082Y-62348275D01*
X139455627Y-62326666D01*
X139484128Y-62282319D01*
X139662319Y-62104128D01*
X139723642Y-62070643D01*
X139793334Y-62075627D01*
X139837681Y-62104128D01*
X140385000Y-62651447D01*
X140688172Y-62348275D01*
X140841077Y-62348275D01*
X140851475Y-62433913D01*
X140900481Y-62504909D01*
X140976866Y-62545000D01*
X141041247Y-62545000D01*
X141103760Y-62529592D01*
X141168332Y-62472386D01*
X141198923Y-62391725D01*
X141196285Y-62369999D01*
X141373553Y-62369999D01*
X141736660Y-62733107D01*
X141736661Y-62733107D01*
X141745333Y-62719307D01*
X141804878Y-62549138D01*
X141825062Y-62370002D01*
X141825062Y-62369997D01*
X141804878Y-62190861D01*
X141804877Y-62190858D01*
X141745337Y-62020701D01*
X141745335Y-62020697D01*
X141736660Y-62006891D01*
X141373553Y-62369998D01*
X141373553Y-62369999D01*
X141196285Y-62369999D01*
X141188525Y-62306087D01*
X141139519Y-62235091D01*
X141063134Y-62195000D01*
X140998753Y-62195000D01*
X140936240Y-62210408D01*
X140871668Y-62267614D01*
X140841077Y-62348275D01*
X140688172Y-62348275D01*
X141301447Y-61735000D01*
X141301447Y-61734999D01*
X140754128Y-61187680D01*
X140720643Y-61126357D01*
X140724082Y-61078275D01*
X140841077Y-61078275D01*
X140851475Y-61163913D01*
X140900481Y-61234909D01*
X140976866Y-61275000D01*
X141041247Y-61275000D01*
X141103760Y-61259592D01*
X141168332Y-61202386D01*
X141198923Y-61121725D01*
X141188525Y-61036087D01*
X141139519Y-60965091D01*
X141063134Y-60925000D01*
X140998753Y-60925000D01*
X140936240Y-60940408D01*
X140871668Y-60997614D01*
X140841077Y-61078275D01*
X140724082Y-61078275D01*
X140725627Y-61056665D01*
X140754128Y-61012318D01*
X140932319Y-60834127D01*
X140993642Y-60800642D01*
X141063334Y-60805626D01*
X141107681Y-60834127D01*
X141736660Y-61463107D01*
X141736661Y-61463107D01*
X141745333Y-61449307D01*
X141804878Y-61279138D01*
X141825062Y-61100002D01*
X141825062Y-61099997D01*
X141804098Y-60913937D01*
X141807120Y-60913596D01*
X141810590Y-60857310D01*
X141851910Y-60800968D01*
X141917131Y-60775909D01*
X141927192Y-60775500D01*
X147210656Y-60775500D01*
X147234846Y-60777882D01*
X147250000Y-60780897D01*
X147277132Y-60775500D01*
X147277133Y-60775500D01*
X147300734Y-60770805D01*
X147357493Y-60759516D01*
X147357493Y-60759515D01*
X147357495Y-60759515D01*
X147399465Y-60731471D01*
X147425622Y-60713994D01*
X147425622Y-60713993D01*
X147439051Y-60705021D01*
X147439053Y-60705018D01*
X147448624Y-60698624D01*
X147457208Y-60685775D01*
X147472624Y-60666990D01*
X147666989Y-60472625D01*
X147685774Y-60457209D01*
X147698624Y-60448624D01*
X147759515Y-60357495D01*
X147761006Y-60350000D01*
X158769610Y-60350000D01*
X158789068Y-60485337D01*
X158789070Y-60485345D01*
X158845867Y-60609714D01*
X158845872Y-60609721D01*
X158935409Y-60713053D01*
X158935413Y-60713057D01*
X158977782Y-60740285D01*
X159050439Y-60786978D01*
X159096978Y-60800643D01*
X159181632Y-60825500D01*
X159181633Y-60825500D01*
X159318367Y-60825500D01*
X159449561Y-60786978D01*
X159564589Y-60713055D01*
X159654130Y-60609718D01*
X159710931Y-60485342D01*
X159730390Y-60350000D01*
X159710931Y-60214658D01*
X159691542Y-60172203D01*
X159654132Y-60090285D01*
X159654127Y-60090278D01*
X159564590Y-59986946D01*
X159564586Y-59986942D01*
X159473736Y-59928558D01*
X159449561Y-59913022D01*
X159449560Y-59913021D01*
X159449559Y-59913021D01*
X159318368Y-59874500D01*
X159318367Y-59874500D01*
X159181633Y-59874500D01*
X159181632Y-59874500D01*
X159050440Y-59913021D01*
X158935413Y-59986942D01*
X158935409Y-59986946D01*
X158845872Y-60090278D01*
X158845867Y-60090285D01*
X158789070Y-60214654D01*
X158789068Y-60214662D01*
X158769610Y-60350000D01*
X147761006Y-60350000D01*
X147769412Y-60307739D01*
X147775853Y-60275359D01*
X147775855Y-60275338D01*
X147780896Y-60250000D01*
X147777882Y-60234845D01*
X147775500Y-60210657D01*
X147775500Y-60187375D01*
X147795185Y-60120336D01*
X147847989Y-60074581D01*
X147917147Y-60064637D01*
X147966537Y-60083058D01*
X148050439Y-60136978D01*
X148050441Y-60136978D01*
X148050442Y-60136979D01*
X148181632Y-60175500D01*
X148181633Y-60175500D01*
X148318367Y-60175500D01*
X148449561Y-60136978D01*
X148564589Y-60063055D01*
X148654130Y-59959718D01*
X148710931Y-59835342D01*
X148730390Y-59700000D01*
X148722783Y-59647094D01*
X148732726Y-59577940D01*
X148778481Y-59525135D01*
X148845520Y-59505450D01*
X148880456Y-59510473D01*
X148931632Y-59525500D01*
X148931633Y-59525500D01*
X149068367Y-59525500D01*
X149199561Y-59486978D01*
X149314589Y-59413055D01*
X149404130Y-59309718D01*
X149413357Y-59289515D01*
X149434931Y-59242273D01*
X149460931Y-59185342D01*
X149480390Y-59050000D01*
X149477514Y-59029999D01*
X165019780Y-59029999D01*
X165038614Y-59221229D01*
X165094396Y-59405118D01*
X165184973Y-59574575D01*
X165184977Y-59574582D01*
X165306879Y-59723120D01*
X165455417Y-59845022D01*
X165455424Y-59845026D01*
X165624881Y-59935603D01*
X165624883Y-59935603D01*
X165624886Y-59935605D01*
X165808769Y-59991385D01*
X165808768Y-59991385D01*
X165827603Y-59993240D01*
X166000000Y-60010220D01*
X166191231Y-59991385D01*
X166375114Y-59935605D01*
X166381137Y-59932386D01*
X166491615Y-59873334D01*
X166544581Y-59845023D01*
X166693120Y-59723120D01*
X166815023Y-59574581D01*
X166901359Y-59413057D01*
X166905603Y-59405118D01*
X166905603Y-59405117D01*
X166905605Y-59405114D01*
X166961385Y-59221231D01*
X166980220Y-59030000D01*
X166961385Y-58838769D01*
X166905605Y-58654886D01*
X166905603Y-58654883D01*
X166905603Y-58654881D01*
X166815026Y-58485424D01*
X166815022Y-58485417D01*
X166693120Y-58336879D01*
X166544582Y-58214977D01*
X166544575Y-58214973D01*
X166375118Y-58124396D01*
X166283172Y-58096505D01*
X166191231Y-58068615D01*
X166191229Y-58068614D01*
X166191231Y-58068614D01*
X166000000Y-58049780D01*
X165808770Y-58068614D01*
X165624881Y-58124396D01*
X165455424Y-58214973D01*
X165455417Y-58214977D01*
X165306879Y-58336879D01*
X165184977Y-58485417D01*
X165184973Y-58485424D01*
X165094396Y-58654881D01*
X165038614Y-58838770D01*
X165019780Y-59029999D01*
X149477514Y-59029999D01*
X149472783Y-58997094D01*
X149482726Y-58927940D01*
X149528481Y-58875135D01*
X149595520Y-58855450D01*
X149630456Y-58860473D01*
X149681632Y-58875500D01*
X149681633Y-58875500D01*
X149818367Y-58875500D01*
X149949561Y-58836978D01*
X150064589Y-58763055D01*
X150154130Y-58659718D01*
X150156156Y-58655283D01*
X150176434Y-58610880D01*
X150210931Y-58535342D01*
X150230390Y-58400000D01*
X150222783Y-58347094D01*
X150232726Y-58277940D01*
X150278481Y-58225135D01*
X150345520Y-58205450D01*
X150380456Y-58210473D01*
X150431632Y-58225500D01*
X150431633Y-58225500D01*
X150568367Y-58225500D01*
X150699561Y-58186978D01*
X150814589Y-58113055D01*
X150904130Y-58009718D01*
X150960931Y-57885342D01*
X150980390Y-57750000D01*
X150972783Y-57697094D01*
X150982726Y-57627940D01*
X151028481Y-57575135D01*
X151095520Y-57555450D01*
X151130456Y-57560473D01*
X151181632Y-57575500D01*
X151181633Y-57575500D01*
X151318367Y-57575500D01*
X151449561Y-57536978D01*
X151564589Y-57463055D01*
X151654130Y-57359718D01*
X151710931Y-57235342D01*
X151730390Y-57100000D01*
X151719121Y-57021623D01*
X151729064Y-56952467D01*
X151774819Y-56899663D01*
X151841859Y-56879978D01*
X151876794Y-56885001D01*
X151943668Y-56904637D01*
X151943669Y-56904637D01*
X152080403Y-56904637D01*
X152211597Y-56866115D01*
X152326625Y-56792192D01*
X152416166Y-56688855D01*
X152472967Y-56564479D01*
X152483675Y-56490000D01*
X165019780Y-56490000D01*
X165038614Y-56681229D01*
X165094396Y-56865118D01*
X165184973Y-57034575D01*
X165184977Y-57034582D01*
X165306879Y-57183120D01*
X165455417Y-57305022D01*
X165455424Y-57305026D01*
X165624881Y-57395603D01*
X165624883Y-57395603D01*
X165624886Y-57395605D01*
X165808769Y-57451385D01*
X165808768Y-57451385D01*
X165827602Y-57453240D01*
X166000000Y-57470220D01*
X166191231Y-57451385D01*
X166375114Y-57395605D01*
X166391320Y-57386943D01*
X166529616Y-57313022D01*
X166544581Y-57305023D01*
X166693120Y-57183120D01*
X166815023Y-57034581D01*
X166905605Y-56865114D01*
X166961385Y-56681231D01*
X166980220Y-56490000D01*
X166961385Y-56298769D01*
X166905605Y-56114886D01*
X166905603Y-56114883D01*
X166905603Y-56114881D01*
X166815026Y-55945424D01*
X166815022Y-55945417D01*
X166693120Y-55796879D01*
X166544582Y-55674977D01*
X166544575Y-55674973D01*
X166375118Y-55584396D01*
X166232982Y-55541280D01*
X166191231Y-55528615D01*
X166191229Y-55528614D01*
X166191231Y-55528614D01*
X166000000Y-55509780D01*
X165808770Y-55528614D01*
X165624881Y-55584396D01*
X165455424Y-55674973D01*
X165455417Y-55674977D01*
X165306879Y-55796879D01*
X165184977Y-55945417D01*
X165184973Y-55945424D01*
X165094396Y-56114881D01*
X165038614Y-56298770D01*
X165019780Y-56490000D01*
X152483675Y-56490000D01*
X152492426Y-56429137D01*
X152488482Y-56401706D01*
X152498426Y-56332549D01*
X152544180Y-56279745D01*
X152611220Y-56260060D01*
X152646155Y-56265083D01*
X152681632Y-56275500D01*
X152681633Y-56275500D01*
X152818367Y-56275500D01*
X152949561Y-56236978D01*
X153064589Y-56163055D01*
X153154130Y-56059718D01*
X153158797Y-56049500D01*
X153189412Y-55982461D01*
X153210931Y-55935342D01*
X153230390Y-55800000D01*
X153222783Y-55747094D01*
X153232726Y-55677940D01*
X153278481Y-55625135D01*
X153345520Y-55605450D01*
X153380456Y-55610473D01*
X153431632Y-55625500D01*
X153431633Y-55625500D01*
X153568367Y-55625500D01*
X153699561Y-55586978D01*
X153814589Y-55513055D01*
X153904130Y-55409718D01*
X153960931Y-55285342D01*
X153980390Y-55150000D01*
X153960931Y-55014658D01*
X153948677Y-54987827D01*
X153904132Y-54890285D01*
X153904130Y-54890283D01*
X153904130Y-54890282D01*
X153814589Y-54786945D01*
X153808781Y-54780242D01*
X153810798Y-54778493D01*
X153780517Y-54731360D01*
X153775500Y-54696444D01*
X153775500Y-52500000D01*
X154419534Y-52500000D01*
X154439312Y-52650234D01*
X154439313Y-52650236D01*
X154497302Y-52790233D01*
X154589549Y-52910451D01*
X154709767Y-53002698D01*
X154849764Y-53060687D01*
X154924881Y-53070576D01*
X154999999Y-53080466D01*
X155000000Y-53080466D01*
X155000001Y-53080466D01*
X155050078Y-53073873D01*
X155150236Y-53060687D01*
X155290233Y-53002698D01*
X155410451Y-52910451D01*
X155502698Y-52790233D01*
X155560687Y-52650236D01*
X155580466Y-52500000D01*
X156919534Y-52500000D01*
X156939312Y-52650234D01*
X156939313Y-52650236D01*
X156997302Y-52790233D01*
X157089549Y-52910451D01*
X157209767Y-53002698D01*
X157349764Y-53060687D01*
X157424881Y-53070576D01*
X157499999Y-53080466D01*
X157500000Y-53080466D01*
X157500001Y-53080466D01*
X157550078Y-53073873D01*
X157650236Y-53060687D01*
X157790233Y-53002698D01*
X157910451Y-52910451D01*
X158002698Y-52790233D01*
X158060687Y-52650236D01*
X158080466Y-52500000D01*
X159419534Y-52500000D01*
X159439312Y-52650234D01*
X159439313Y-52650236D01*
X159497302Y-52790233D01*
X159589549Y-52910451D01*
X159709767Y-53002698D01*
X159849764Y-53060687D01*
X159924881Y-53070576D01*
X159999999Y-53080466D01*
X160004320Y-53080466D01*
X160007831Y-53081497D01*
X160008058Y-53081527D01*
X160008053Y-53081562D01*
X160071359Y-53100151D01*
X160117114Y-53152955D01*
X160127058Y-53222113D01*
X160098033Y-53285669D01*
X160079807Y-53302841D01*
X160064551Y-53314547D01*
X160064550Y-53314548D01*
X160064549Y-53314549D01*
X159994822Y-53405419D01*
X159972300Y-53434770D01*
X159914313Y-53574763D01*
X159914312Y-53574765D01*
X159894534Y-53724999D01*
X159894534Y-53725000D01*
X159914312Y-53875234D01*
X159914313Y-53875236D01*
X159970938Y-54011942D01*
X159972302Y-54015233D01*
X160064549Y-54135451D01*
X160184767Y-54227698D01*
X160324764Y-54285687D01*
X160378724Y-54292791D01*
X160474999Y-54305466D01*
X160475000Y-54305466D01*
X160475001Y-54305466D01*
X160531793Y-54297989D01*
X160625236Y-54285687D01*
X160765233Y-54227698D01*
X160885451Y-54135451D01*
X160977698Y-54015233D01*
X161004719Y-53949999D01*
X165019780Y-53949999D01*
X165038614Y-54141229D01*
X165094396Y-54325118D01*
X165184973Y-54494575D01*
X165184977Y-54494582D01*
X165306879Y-54643120D01*
X165455417Y-54765022D01*
X165455424Y-54765026D01*
X165624881Y-54855603D01*
X165624883Y-54855603D01*
X165624886Y-54855605D01*
X165808769Y-54911385D01*
X165808768Y-54911385D01*
X165827603Y-54913240D01*
X166000000Y-54930220D01*
X166191231Y-54911385D01*
X166375114Y-54855605D01*
X166390117Y-54847586D01*
X166519380Y-54778493D01*
X166544581Y-54765023D01*
X166693120Y-54643120D01*
X166815023Y-54494581D01*
X166892018Y-54350534D01*
X166905603Y-54325118D01*
X166905603Y-54325117D01*
X166905605Y-54325114D01*
X166961385Y-54141231D01*
X166980220Y-53950000D01*
X166961385Y-53758769D01*
X166905605Y-53574886D01*
X166905603Y-53574883D01*
X166905603Y-53574881D01*
X166815026Y-53405424D01*
X166815022Y-53405417D01*
X166693120Y-53256879D01*
X166544582Y-53134977D01*
X166544575Y-53134973D01*
X166375118Y-53044396D01*
X166283172Y-53016504D01*
X166191231Y-52988615D01*
X166191229Y-52988614D01*
X166191231Y-52988614D01*
X166000000Y-52969780D01*
X165808770Y-52988614D01*
X165624881Y-53044396D01*
X165455424Y-53134973D01*
X165455417Y-53134977D01*
X165306879Y-53256879D01*
X165184977Y-53405417D01*
X165184973Y-53405424D01*
X165094396Y-53574881D01*
X165038614Y-53758770D01*
X165019780Y-53949999D01*
X161004719Y-53949999D01*
X161035687Y-53875236D01*
X161055466Y-53725000D01*
X161052455Y-53702133D01*
X161037232Y-53586497D01*
X161035687Y-53574764D01*
X160977698Y-53434767D01*
X160885451Y-53314549D01*
X160765233Y-53222302D01*
X160765229Y-53222300D01*
X160625236Y-53164313D01*
X160625234Y-53164312D01*
X160475001Y-53144534D01*
X160470680Y-53144534D01*
X160467168Y-53143502D01*
X160466942Y-53143473D01*
X160466946Y-53143437D01*
X160403641Y-53124849D01*
X160357886Y-53072045D01*
X160347942Y-53002887D01*
X160376967Y-52939331D01*
X160395193Y-52922159D01*
X160395901Y-52921615D01*
X160410451Y-52910451D01*
X160502698Y-52790233D01*
X160560687Y-52650236D01*
X160580466Y-52500000D01*
X160560687Y-52349764D01*
X160502698Y-52209767D01*
X160410451Y-52089549D01*
X160290233Y-51997302D01*
X160290229Y-51997300D01*
X160150236Y-51939313D01*
X160150234Y-51939312D01*
X160000001Y-51919534D01*
X159999999Y-51919534D01*
X159849765Y-51939312D01*
X159849763Y-51939313D01*
X159709770Y-51997300D01*
X159589549Y-52089549D01*
X159497300Y-52209770D01*
X159439313Y-52349763D01*
X159439312Y-52349765D01*
X159419534Y-52499999D01*
X159419534Y-52500000D01*
X158080466Y-52500000D01*
X158060687Y-52349764D01*
X158002698Y-52209767D01*
X157910451Y-52089549D01*
X157790233Y-51997302D01*
X157790229Y-51997300D01*
X157650236Y-51939313D01*
X157650234Y-51939312D01*
X157500001Y-51919534D01*
X157499999Y-51919534D01*
X157349765Y-51939312D01*
X157349763Y-51939313D01*
X157209770Y-51997300D01*
X157089549Y-52089549D01*
X156997300Y-52209770D01*
X156939313Y-52349763D01*
X156939312Y-52349765D01*
X156919534Y-52499999D01*
X156919534Y-52500000D01*
X155580466Y-52500000D01*
X155560687Y-52349764D01*
X155502698Y-52209767D01*
X155410451Y-52089549D01*
X155290233Y-51997302D01*
X155290229Y-51997300D01*
X155150236Y-51939313D01*
X155150234Y-51939312D01*
X155000001Y-51919534D01*
X154999999Y-51919534D01*
X154849765Y-51939312D01*
X154849763Y-51939313D01*
X154709770Y-51997300D01*
X154589549Y-52089549D01*
X154497300Y-52209770D01*
X154439313Y-52349763D01*
X154439312Y-52349765D01*
X154419534Y-52499999D01*
X154419534Y-52500000D01*
X153775500Y-52500000D01*
X153775500Y-51410000D01*
X165019780Y-51410000D01*
X165038614Y-51601229D01*
X165094396Y-51785118D01*
X165184973Y-51954575D01*
X165184977Y-51954582D01*
X165306879Y-52103120D01*
X165455417Y-52225022D01*
X165455424Y-52225026D01*
X165624881Y-52315603D01*
X165624883Y-52315603D01*
X165624886Y-52315605D01*
X165808769Y-52371385D01*
X165808768Y-52371385D01*
X165827603Y-52373240D01*
X166000000Y-52390220D01*
X166191231Y-52371385D01*
X166375114Y-52315605D01*
X166544581Y-52225023D01*
X166693120Y-52103120D01*
X166815023Y-51954581D01*
X166905605Y-51785114D01*
X166961385Y-51601231D01*
X166980220Y-51410000D01*
X166961385Y-51218769D01*
X166905605Y-51034886D01*
X166905603Y-51034883D01*
X166905603Y-51034881D01*
X166815026Y-50865424D01*
X166815022Y-50865417D01*
X166693120Y-50716879D01*
X166544582Y-50594977D01*
X166544575Y-50594973D01*
X166375118Y-50504396D01*
X166283172Y-50476505D01*
X166191231Y-50448615D01*
X166191229Y-50448614D01*
X166191231Y-50448614D01*
X166000000Y-50429780D01*
X165808770Y-50448614D01*
X165624881Y-50504396D01*
X165455424Y-50594973D01*
X165455417Y-50594977D01*
X165306879Y-50716879D01*
X165184977Y-50865417D01*
X165184973Y-50865424D01*
X165094396Y-51034881D01*
X165038614Y-51218770D01*
X165019780Y-51410000D01*
X153775500Y-51410000D01*
X153775500Y-47250000D01*
X155269610Y-47250000D01*
X155289068Y-47385337D01*
X155289070Y-47385345D01*
X155345867Y-47509714D01*
X155345872Y-47509721D01*
X155435409Y-47613053D01*
X155435413Y-47613057D01*
X155470095Y-47635345D01*
X155550439Y-47686978D01*
X155590102Y-47698624D01*
X155681632Y-47725500D01*
X155681633Y-47725500D01*
X155818367Y-47725500D01*
X155949561Y-47686978D01*
X156064589Y-47613055D01*
X156154130Y-47509718D01*
X156162914Y-47490485D01*
X156172678Y-47469103D01*
X156210931Y-47385342D01*
X156230390Y-47250000D01*
X156210931Y-47114658D01*
X156194949Y-47079663D01*
X156154132Y-46990285D01*
X156154127Y-46990278D01*
X156064590Y-46886946D01*
X156064586Y-46886942D01*
X155949559Y-46813021D01*
X155818368Y-46774500D01*
X155818367Y-46774500D01*
X155681633Y-46774500D01*
X155681632Y-46774500D01*
X155550440Y-46813021D01*
X155435413Y-46886942D01*
X155435409Y-46886946D01*
X155345872Y-46990278D01*
X155345867Y-46990285D01*
X155289070Y-47114654D01*
X155289068Y-47114662D01*
X155269610Y-47250000D01*
X153775500Y-47250000D01*
X153775500Y-45850000D01*
X158769610Y-45850000D01*
X158789068Y-45985337D01*
X158789070Y-45985345D01*
X158845867Y-46109714D01*
X158845872Y-46109721D01*
X158935409Y-46213053D01*
X158935413Y-46213057D01*
X158977782Y-46240285D01*
X159050439Y-46286978D01*
X159116036Y-46306239D01*
X159181632Y-46325500D01*
X159181633Y-46325500D01*
X159318367Y-46325500D01*
X159449561Y-46286978D01*
X159564589Y-46213055D01*
X159654130Y-46109718D01*
X159710931Y-45985342D01*
X159730390Y-45850000D01*
X159710931Y-45714658D01*
X159675411Y-45636880D01*
X159654132Y-45590285D01*
X159654127Y-45590278D01*
X159564589Y-45486945D01*
X159564586Y-45486942D01*
X159469167Y-45425622D01*
X159449561Y-45413022D01*
X159449560Y-45413021D01*
X159449559Y-45413021D01*
X159318368Y-45374500D01*
X159318367Y-45374500D01*
X159181633Y-45374500D01*
X159181632Y-45374500D01*
X159050440Y-45413021D01*
X158935413Y-45486942D01*
X158935411Y-45486945D01*
X158845872Y-45590278D01*
X158845867Y-45590285D01*
X158789070Y-45714654D01*
X158789068Y-45714662D01*
X158769610Y-45850000D01*
X153775500Y-45850000D01*
X153775500Y-44250000D01*
X161269610Y-44250000D01*
X161289068Y-44385337D01*
X161289070Y-44385345D01*
X161345867Y-44509714D01*
X161345872Y-44509721D01*
X161441219Y-44619758D01*
X161439199Y-44621508D01*
X161469475Y-44668612D01*
X161474500Y-44703554D01*
X161474500Y-47460655D01*
X161472117Y-47484847D01*
X161469103Y-47499999D01*
X161469103Y-47500000D01*
X161473640Y-47522807D01*
X161473647Y-47522849D01*
X161490483Y-47607490D01*
X161490484Y-47607493D01*
X161490485Y-47607495D01*
X161509089Y-47635337D01*
X161551373Y-47698621D01*
X161551376Y-47698624D01*
X161564221Y-47707206D01*
X161583011Y-47722627D01*
X161777370Y-47916986D01*
X161792791Y-47935776D01*
X161801375Y-47948624D01*
X161808754Y-47953554D01*
X161824376Y-47963992D01*
X161824378Y-47963994D01*
X161857854Y-47986362D01*
X161892505Y-48009515D01*
X161892507Y-48009515D01*
X161892507Y-48009516D01*
X161978833Y-48026687D01*
X161978849Y-48026689D01*
X161999999Y-48030896D01*
X162000000Y-48030896D01*
X162000001Y-48030896D01*
X162015155Y-48027882D01*
X162039343Y-48025500D01*
X165168938Y-48025500D01*
X165235977Y-48045185D01*
X165281732Y-48097989D01*
X165291676Y-48167147D01*
X165264791Y-48228165D01*
X165184977Y-48325417D01*
X165184973Y-48325424D01*
X165094396Y-48494881D01*
X165038614Y-48678770D01*
X165019780Y-48870000D01*
X165038614Y-49061229D01*
X165094396Y-49245118D01*
X165184973Y-49414575D01*
X165184977Y-49414582D01*
X165306879Y-49563120D01*
X165455417Y-49685022D01*
X165455424Y-49685026D01*
X165624881Y-49775603D01*
X165624883Y-49775603D01*
X165624886Y-49775605D01*
X165808769Y-49831385D01*
X165808768Y-49831385D01*
X165827603Y-49833240D01*
X166000000Y-49850220D01*
X166191231Y-49831385D01*
X166375114Y-49775605D01*
X166544581Y-49685023D01*
X166693120Y-49563120D01*
X166815023Y-49414581D01*
X166905605Y-49245114D01*
X166961385Y-49061231D01*
X166980220Y-48870000D01*
X166961385Y-48678769D01*
X166905605Y-48494886D01*
X166905603Y-48494883D01*
X166905603Y-48494881D01*
X166815026Y-48325424D01*
X166815022Y-48325417D01*
X166735209Y-48228165D01*
X166707896Y-48163855D01*
X166719687Y-48094987D01*
X166766839Y-48043427D01*
X166831062Y-48025500D01*
X178334521Y-48025500D01*
X178401560Y-48045185D01*
X178422199Y-48061816D01*
X178438178Y-48077794D01*
X178471665Y-48139116D01*
X178474500Y-48165478D01*
X178474500Y-58710655D01*
X178472116Y-58734847D01*
X178469103Y-58750000D01*
X178472242Y-58765783D01*
X178473640Y-58772807D01*
X178473647Y-58772849D01*
X178490483Y-58857493D01*
X178490484Y-58857495D01*
X178502513Y-58875496D01*
X178502514Y-58875500D01*
X178502516Y-58875500D01*
X178533923Y-58922505D01*
X178533924Y-58922506D01*
X178533923Y-58922506D01*
X178551374Y-58948623D01*
X178555585Y-58951436D01*
X178564222Y-58957207D01*
X178583012Y-58972628D01*
X178807369Y-59196985D01*
X178822790Y-59215775D01*
X178831373Y-59228621D01*
X178831374Y-59228622D01*
X178831376Y-59228624D01*
X178854376Y-59243992D01*
X178854378Y-59243994D01*
X178880534Y-59261471D01*
X178922505Y-59289515D01*
X178922507Y-59289515D01*
X178922507Y-59289516D01*
X179008832Y-59306687D01*
X179008839Y-59306687D01*
X179030000Y-59310897D01*
X179045154Y-59307882D01*
X179069344Y-59305500D01*
X180212213Y-59305500D01*
X180279252Y-59325185D01*
X180325007Y-59377989D01*
X180330873Y-59393503D01*
X180334395Y-59405114D01*
X180334398Y-59405121D01*
X180424973Y-59574575D01*
X180424977Y-59574582D01*
X180546879Y-59723120D01*
X180695417Y-59845022D01*
X180695424Y-59845026D01*
X180864881Y-59935603D01*
X180864883Y-59935603D01*
X180864886Y-59935605D01*
X181048769Y-59991385D01*
X181048768Y-59991385D01*
X181065914Y-59993073D01*
X181240000Y-60010220D01*
X181431231Y-59991385D01*
X181615114Y-59935605D01*
X181621137Y-59932386D01*
X181731615Y-59873334D01*
X181784581Y-59845023D01*
X181933120Y-59723120D01*
X182055023Y-59574581D01*
X182141359Y-59413057D01*
X182145603Y-59405118D01*
X182145603Y-59405117D01*
X182145605Y-59405114D01*
X182201385Y-59221231D01*
X182220220Y-59030000D01*
X182201385Y-58838769D01*
X182145605Y-58654886D01*
X182145603Y-58654883D01*
X182145603Y-58654881D01*
X182055026Y-58485424D01*
X182055022Y-58485417D01*
X181933120Y-58336879D01*
X181784582Y-58214977D01*
X181784575Y-58214973D01*
X181615118Y-58124396D01*
X181523172Y-58096504D01*
X181431231Y-58068615D01*
X181431229Y-58068614D01*
X181431231Y-58068614D01*
X181240000Y-58049780D01*
X181048770Y-58068614D01*
X180864881Y-58124396D01*
X180695424Y-58214973D01*
X180695417Y-58214977D01*
X180546879Y-58336879D01*
X180424977Y-58485417D01*
X180424973Y-58485424D01*
X180334398Y-58654878D01*
X180334395Y-58654885D01*
X180330873Y-58666497D01*
X180292575Y-58724935D01*
X180228762Y-58753391D01*
X180212213Y-58754500D01*
X179195478Y-58754500D01*
X179128439Y-58734815D01*
X179107797Y-58718181D01*
X179061819Y-58672203D01*
X179028334Y-58610880D01*
X179025500Y-58584522D01*
X179025500Y-56490000D01*
X180259780Y-56490000D01*
X180278614Y-56681229D01*
X180334396Y-56865118D01*
X180424973Y-57034575D01*
X180424977Y-57034582D01*
X180546879Y-57183120D01*
X180695417Y-57305022D01*
X180695424Y-57305026D01*
X180864881Y-57395603D01*
X180864883Y-57395603D01*
X180864886Y-57395605D01*
X181048769Y-57451385D01*
X181048768Y-57451385D01*
X181065914Y-57453073D01*
X181240000Y-57470220D01*
X181431231Y-57451385D01*
X181615114Y-57395605D01*
X181631320Y-57386943D01*
X181769616Y-57313022D01*
X181784581Y-57305023D01*
X181933120Y-57183120D01*
X182055023Y-57034581D01*
X182145605Y-56865114D01*
X182201385Y-56681231D01*
X182220220Y-56490000D01*
X182201385Y-56298769D01*
X182145605Y-56114886D01*
X182145603Y-56114883D01*
X182145603Y-56114881D01*
X182055026Y-55945424D01*
X182055022Y-55945417D01*
X181933120Y-55796879D01*
X181784582Y-55674977D01*
X181784575Y-55674973D01*
X181615118Y-55584396D01*
X181472982Y-55541280D01*
X181431231Y-55528615D01*
X181431229Y-55528614D01*
X181431231Y-55528614D01*
X181240000Y-55509780D01*
X181048770Y-55528614D01*
X180864881Y-55584396D01*
X180695424Y-55674973D01*
X180695417Y-55674977D01*
X180546879Y-55796879D01*
X180424977Y-55945417D01*
X180424973Y-55945424D01*
X180334396Y-56114881D01*
X180278614Y-56298770D01*
X180259780Y-56490000D01*
X179025500Y-56490000D01*
X179025500Y-53869520D01*
X179045185Y-53802481D01*
X179097989Y-53756726D01*
X179167147Y-53746782D01*
X179230703Y-53775807D01*
X179252601Y-53800628D01*
X179280582Y-53842505D01*
X179280583Y-53842506D01*
X179280582Y-53842506D01*
X179301374Y-53873623D01*
X179305585Y-53876436D01*
X179314222Y-53882207D01*
X179333012Y-53897628D01*
X179552369Y-54116985D01*
X179567790Y-54135775D01*
X179576373Y-54148621D01*
X179576374Y-54148622D01*
X179576376Y-54148624D01*
X179597236Y-54162562D01*
X179597251Y-54162573D01*
X179616774Y-54175617D01*
X179616779Y-54175623D01*
X179616781Y-54175622D01*
X179667505Y-54209515D01*
X179667508Y-54209515D01*
X179667509Y-54209516D01*
X179753832Y-54226687D01*
X179753839Y-54226687D01*
X179775000Y-54230897D01*
X179790154Y-54227882D01*
X179814344Y-54225500D01*
X180212213Y-54225500D01*
X180279252Y-54245185D01*
X180325007Y-54297989D01*
X180330873Y-54313503D01*
X180334395Y-54325114D01*
X180334398Y-54325121D01*
X180424973Y-54494575D01*
X180424977Y-54494582D01*
X180546879Y-54643120D01*
X180695417Y-54765022D01*
X180695424Y-54765026D01*
X180864881Y-54855603D01*
X180864883Y-54855603D01*
X180864886Y-54855605D01*
X181048769Y-54911385D01*
X181048768Y-54911385D01*
X181065914Y-54913073D01*
X181240000Y-54930220D01*
X181431231Y-54911385D01*
X181615114Y-54855605D01*
X181630117Y-54847586D01*
X181759380Y-54778493D01*
X181784581Y-54765023D01*
X181933120Y-54643120D01*
X182055023Y-54494581D01*
X182132018Y-54350534D01*
X182145603Y-54325118D01*
X182145603Y-54325117D01*
X182145605Y-54325114D01*
X182201385Y-54141231D01*
X182220220Y-53950000D01*
X182201385Y-53758769D01*
X182145605Y-53574886D01*
X182145603Y-53574883D01*
X182145603Y-53574881D01*
X182055026Y-53405424D01*
X182055022Y-53405417D01*
X181933120Y-53256879D01*
X181784582Y-53134977D01*
X181784575Y-53134973D01*
X181615118Y-53044396D01*
X181523172Y-53016504D01*
X181431231Y-52988615D01*
X181431229Y-52988614D01*
X181431231Y-52988614D01*
X181240000Y-52969780D01*
X181048770Y-52988614D01*
X180864881Y-53044396D01*
X180695424Y-53134973D01*
X180695417Y-53134977D01*
X180546879Y-53256879D01*
X180424977Y-53405417D01*
X180424973Y-53405424D01*
X180334398Y-53574878D01*
X180334395Y-53574885D01*
X180330873Y-53586497D01*
X180292575Y-53644935D01*
X180228762Y-53673391D01*
X180212213Y-53674500D01*
X179940478Y-53674500D01*
X179873439Y-53654815D01*
X179852797Y-53638181D01*
X179811819Y-53597203D01*
X179778334Y-53535880D01*
X179775500Y-53509522D01*
X179775500Y-51410000D01*
X180259780Y-51410000D01*
X180278614Y-51601229D01*
X180334396Y-51785118D01*
X180424973Y-51954575D01*
X180424977Y-51954582D01*
X180546879Y-52103120D01*
X180695417Y-52225022D01*
X180695424Y-52225026D01*
X180864881Y-52315603D01*
X180864883Y-52315603D01*
X180864886Y-52315605D01*
X181048769Y-52371385D01*
X181048768Y-52371385D01*
X181065914Y-52373073D01*
X181240000Y-52390220D01*
X181431231Y-52371385D01*
X181615114Y-52315605D01*
X181784581Y-52225023D01*
X181933120Y-52103120D01*
X182055023Y-51954581D01*
X182145605Y-51785114D01*
X182201385Y-51601231D01*
X182220220Y-51410000D01*
X182201385Y-51218769D01*
X182145605Y-51034886D01*
X182145603Y-51034883D01*
X182145603Y-51034881D01*
X182055026Y-50865424D01*
X182055022Y-50865417D01*
X181933120Y-50716879D01*
X181784582Y-50594977D01*
X181784575Y-50594973D01*
X181615118Y-50504396D01*
X181523172Y-50476504D01*
X181431231Y-50448615D01*
X181431229Y-50448614D01*
X181431231Y-50448614D01*
X181240000Y-50429780D01*
X181048770Y-50448614D01*
X180864881Y-50504396D01*
X180695424Y-50594973D01*
X180695417Y-50594977D01*
X180546879Y-50716879D01*
X180424977Y-50865417D01*
X180424973Y-50865424D01*
X180334396Y-51034881D01*
X180278614Y-51218770D01*
X180259780Y-51410000D01*
X179775500Y-51410000D01*
X179775500Y-48870000D01*
X180259780Y-48870000D01*
X180278614Y-49061229D01*
X180334396Y-49245118D01*
X180424973Y-49414575D01*
X180424977Y-49414582D01*
X180546879Y-49563120D01*
X180695417Y-49685022D01*
X180695424Y-49685026D01*
X180864881Y-49775603D01*
X180864883Y-49775603D01*
X180864886Y-49775605D01*
X181048769Y-49831385D01*
X181048768Y-49831385D01*
X181065914Y-49833073D01*
X181240000Y-49850220D01*
X181431231Y-49831385D01*
X181615114Y-49775605D01*
X181784581Y-49685023D01*
X181933120Y-49563120D01*
X182055023Y-49414581D01*
X182145605Y-49245114D01*
X182201385Y-49061231D01*
X182220220Y-48870000D01*
X182201385Y-48678769D01*
X182145605Y-48494886D01*
X182145603Y-48494883D01*
X182145603Y-48494881D01*
X182055026Y-48325424D01*
X182055022Y-48325417D01*
X181933120Y-48176879D01*
X181784582Y-48054977D01*
X181784575Y-48054973D01*
X181615118Y-47964396D01*
X181487296Y-47925622D01*
X181431231Y-47908615D01*
X181431229Y-47908614D01*
X181431231Y-47908614D01*
X181240000Y-47889780D01*
X181048770Y-47908614D01*
X180864881Y-47964396D01*
X180695424Y-48054973D01*
X180695417Y-48054977D01*
X180546879Y-48176879D01*
X180424977Y-48325417D01*
X180424973Y-48325424D01*
X180334396Y-48494881D01*
X180278614Y-48678770D01*
X180259780Y-48870000D01*
X179775500Y-48870000D01*
X179775500Y-46329999D01*
X180259780Y-46329999D01*
X180278614Y-46521229D01*
X180334396Y-46705118D01*
X180424973Y-46874575D01*
X180424977Y-46874582D01*
X180546879Y-47023120D01*
X180695417Y-47145022D01*
X180695424Y-47145026D01*
X180864881Y-47235603D01*
X180864883Y-47235603D01*
X180864886Y-47235605D01*
X181048769Y-47291385D01*
X181048768Y-47291385D01*
X181065914Y-47293073D01*
X181240000Y-47310220D01*
X181431231Y-47291385D01*
X181615114Y-47235605D01*
X181784581Y-47145023D01*
X181933120Y-47023120D01*
X182055023Y-46874581D01*
X182145605Y-46705114D01*
X182201385Y-46521231D01*
X182220220Y-46330000D01*
X182201385Y-46138769D01*
X182145605Y-45954886D01*
X182145603Y-45954883D01*
X182145603Y-45954881D01*
X182055026Y-45785424D01*
X182055022Y-45785417D01*
X181933120Y-45636879D01*
X181784582Y-45514977D01*
X181784575Y-45514973D01*
X181615118Y-45424396D01*
X181450631Y-45374500D01*
X181431231Y-45368615D01*
X181431229Y-45368614D01*
X181431231Y-45368614D01*
X181240000Y-45349780D01*
X181048770Y-45368614D01*
X180864881Y-45424396D01*
X180695424Y-45514973D01*
X180695417Y-45514977D01*
X180546879Y-45636879D01*
X180424977Y-45785417D01*
X180424973Y-45785424D01*
X180334396Y-45954881D01*
X180278614Y-46138770D01*
X180259780Y-46329999D01*
X179775500Y-46329999D01*
X179775500Y-45539339D01*
X179777883Y-45515146D01*
X179777918Y-45514973D01*
X179780896Y-45500000D01*
X179776688Y-45478848D01*
X179776687Y-45478833D01*
X179759516Y-45392509D01*
X179759515Y-45392508D01*
X179759515Y-45392505D01*
X179721316Y-45335337D01*
X179698624Y-45301375D01*
X179685775Y-45292790D01*
X179666985Y-45277369D01*
X179472627Y-45083011D01*
X179457205Y-45064219D01*
X179448624Y-45051376D01*
X179448620Y-45051372D01*
X179425623Y-45036007D01*
X179373793Y-45001375D01*
X179373793Y-45001374D01*
X179373790Y-45001373D01*
X179357495Y-44990484D01*
X179357493Y-44990483D01*
X179272849Y-44973647D01*
X179272816Y-44973641D01*
X179258854Y-44970864D01*
X179250001Y-44969103D01*
X179250000Y-44969103D01*
X179234846Y-44972117D01*
X179210656Y-44974500D01*
X166291660Y-44974500D01*
X166224621Y-44954815D01*
X166178866Y-44902011D01*
X166168922Y-44832853D01*
X166197947Y-44769297D01*
X166255664Y-44731839D01*
X166375114Y-44695605D01*
X166544581Y-44605023D01*
X166693120Y-44483120D01*
X166815023Y-44334581D01*
X166899862Y-44175858D01*
X166905603Y-44165118D01*
X166905603Y-44165117D01*
X166905605Y-44165114D01*
X166961385Y-43981231D01*
X166980220Y-43790000D01*
X180259780Y-43790000D01*
X180261837Y-43810891D01*
X180278614Y-43981229D01*
X180334396Y-44165118D01*
X180424973Y-44334575D01*
X180424977Y-44334582D01*
X180546879Y-44483120D01*
X180695417Y-44605022D01*
X180695424Y-44605026D01*
X180864881Y-44695603D01*
X180864883Y-44695603D01*
X180864886Y-44695605D01*
X181048769Y-44751385D01*
X181048768Y-44751385D01*
X181065914Y-44753073D01*
X181240000Y-44770220D01*
X181431231Y-44751385D01*
X181615114Y-44695605D01*
X181784581Y-44605023D01*
X181933120Y-44483120D01*
X182055023Y-44334581D01*
X182139862Y-44175858D01*
X182145603Y-44165118D01*
X182145603Y-44165117D01*
X182145605Y-44165114D01*
X182201385Y-43981231D01*
X182220220Y-43790000D01*
X182201385Y-43598769D01*
X182145605Y-43414886D01*
X182145603Y-43414883D01*
X182145603Y-43414881D01*
X182055026Y-43245424D01*
X182055022Y-43245417D01*
X181933120Y-43096879D01*
X181784582Y-42974977D01*
X181784575Y-42974973D01*
X181615118Y-42884396D01*
X181523172Y-42856505D01*
X181431231Y-42828615D01*
X181431229Y-42828614D01*
X181431231Y-42828614D01*
X181240000Y-42809780D01*
X181048770Y-42828614D01*
X180864881Y-42884396D01*
X180695424Y-42974973D01*
X180695417Y-42974977D01*
X180546879Y-43096879D01*
X180424977Y-43245417D01*
X180424973Y-43245424D01*
X180334396Y-43414881D01*
X180278614Y-43598770D01*
X180261024Y-43777369D01*
X180259780Y-43790000D01*
X166980220Y-43790000D01*
X166961385Y-43598769D01*
X166905605Y-43414886D01*
X166905603Y-43414883D01*
X166905603Y-43414881D01*
X166815026Y-43245424D01*
X166815022Y-43245417D01*
X166693120Y-43096879D01*
X166544582Y-42974977D01*
X166544575Y-42974973D01*
X166375118Y-42884396D01*
X166283172Y-42856505D01*
X166191231Y-42828615D01*
X166191229Y-42828614D01*
X166191231Y-42828614D01*
X166000000Y-42809780D01*
X165808770Y-42828614D01*
X165624881Y-42884396D01*
X165455424Y-42974973D01*
X165455417Y-42974977D01*
X165306879Y-43096879D01*
X165184977Y-43245417D01*
X165184973Y-43245424D01*
X165094396Y-43414881D01*
X165038614Y-43598770D01*
X165021024Y-43777369D01*
X165019780Y-43790000D01*
X165021837Y-43810891D01*
X165038614Y-43981229D01*
X165094396Y-44165118D01*
X165184973Y-44334575D01*
X165184977Y-44334582D01*
X165306879Y-44483120D01*
X165455417Y-44605022D01*
X165455424Y-44605026D01*
X165624881Y-44695603D01*
X165624883Y-44695603D01*
X165624886Y-44695605D01*
X165744335Y-44731839D01*
X165802774Y-44770137D01*
X165831230Y-44833949D01*
X165820670Y-44903016D01*
X165774446Y-44955410D01*
X165708340Y-44974500D01*
X162915478Y-44974500D01*
X162848439Y-44954815D01*
X162827797Y-44938181D01*
X162811818Y-44922202D01*
X162778333Y-44860879D01*
X162775500Y-44834530D01*
X162775500Y-43539338D01*
X162777883Y-43515146D01*
X162779004Y-43509514D01*
X162780896Y-43500000D01*
X162779003Y-43490485D01*
X162776689Y-43478849D01*
X162776687Y-43478833D01*
X162759516Y-43392509D01*
X162759515Y-43392508D01*
X162759515Y-43392505D01*
X162699644Y-43302902D01*
X162698624Y-43301375D01*
X162685775Y-43292790D01*
X162666985Y-43277369D01*
X162472627Y-43083011D01*
X162457205Y-43064219D01*
X162448624Y-43051376D01*
X162448621Y-43051373D01*
X162430688Y-43039391D01*
X162425622Y-43036006D01*
X162399465Y-43018528D01*
X162357495Y-42990485D01*
X162357494Y-42990484D01*
X162357493Y-42990484D01*
X162272849Y-42973647D01*
X162272816Y-42973641D01*
X162258854Y-42970864D01*
X162250001Y-42969103D01*
X162250000Y-42969103D01*
X162234846Y-42972117D01*
X162210656Y-42974500D01*
X162197084Y-42974500D01*
X162130045Y-42954815D01*
X162103371Y-42931702D01*
X162064590Y-42886946D01*
X162064586Y-42886942D01*
X161949559Y-42813021D01*
X161818368Y-42774500D01*
X161818367Y-42774500D01*
X161681633Y-42774500D01*
X161681632Y-42774500D01*
X161550440Y-42813021D01*
X161435413Y-42886942D01*
X161435409Y-42886946D01*
X161345872Y-42990278D01*
X161345867Y-42990285D01*
X161289070Y-43114654D01*
X161289068Y-43114662D01*
X161269610Y-43250000D01*
X161289068Y-43385337D01*
X161289070Y-43385345D01*
X161345867Y-43509714D01*
X161345872Y-43509721D01*
X161409378Y-43583011D01*
X161435411Y-43613055D01*
X161486184Y-43645684D01*
X161531939Y-43698488D01*
X161541883Y-43767646D01*
X161512859Y-43831202D01*
X161486185Y-43854314D01*
X161478844Y-43859033D01*
X161435410Y-43886945D01*
X161435409Y-43886946D01*
X161345872Y-43990278D01*
X161345867Y-43990285D01*
X161289070Y-44114654D01*
X161289068Y-44114662D01*
X161269610Y-44250000D01*
X153775500Y-44250000D01*
X153775500Y-42067288D01*
X165024500Y-42067288D01*
X165034681Y-42118475D01*
X165034682Y-42118476D01*
X165073471Y-42176528D01*
X165131523Y-42215317D01*
X165131524Y-42215318D01*
X165182711Y-42225499D01*
X165182714Y-42225500D01*
X165182716Y-42225500D01*
X166817286Y-42225500D01*
X166817287Y-42225499D01*
X166830257Y-42222919D01*
X166868475Y-42215318D01*
X166868475Y-42215317D01*
X166868477Y-42215317D01*
X166926528Y-42176528D01*
X166965317Y-42118477D01*
X166965317Y-42118475D01*
X166965318Y-42118475D01*
X166975499Y-42067288D01*
X166975500Y-42067286D01*
X166975500Y-41250000D01*
X180259780Y-41250000D01*
X180278614Y-41441229D01*
X180334396Y-41625118D01*
X180424973Y-41794575D01*
X180424977Y-41794582D01*
X180546879Y-41943120D01*
X180695417Y-42065022D01*
X180695424Y-42065026D01*
X180864881Y-42155603D01*
X180864883Y-42155603D01*
X180864886Y-42155605D01*
X181048769Y-42211385D01*
X181048768Y-42211385D01*
X181060881Y-42212578D01*
X181240000Y-42230220D01*
X181431231Y-42211385D01*
X181615114Y-42155605D01*
X181627176Y-42149158D01*
X181705123Y-42107494D01*
X181784581Y-42065023D01*
X181933120Y-41943120D01*
X182055023Y-41794581D01*
X182121922Y-41669422D01*
X182145603Y-41625118D01*
X182145603Y-41625117D01*
X182145605Y-41625114D01*
X182201385Y-41441231D01*
X182220220Y-41250000D01*
X182201385Y-41058769D01*
X182145605Y-40874886D01*
X182145603Y-40874883D01*
X182145603Y-40874881D01*
X182055026Y-40705424D01*
X182055022Y-40705417D01*
X181933120Y-40556879D01*
X181784582Y-40434977D01*
X181784575Y-40434973D01*
X181615118Y-40344396D01*
X181523172Y-40316505D01*
X181431231Y-40288615D01*
X181431229Y-40288614D01*
X181431231Y-40288614D01*
X181240000Y-40269780D01*
X181048770Y-40288614D01*
X180864881Y-40344396D01*
X180695424Y-40434973D01*
X180695417Y-40434977D01*
X180546879Y-40556879D01*
X180424977Y-40705417D01*
X180424973Y-40705424D01*
X180334396Y-40874881D01*
X180278614Y-41058770D01*
X180259780Y-41250000D01*
X166975500Y-41250000D01*
X166975500Y-40432713D01*
X166975499Y-40432711D01*
X166965318Y-40381524D01*
X166965317Y-40381523D01*
X166926528Y-40323471D01*
X166868476Y-40284682D01*
X166868475Y-40284681D01*
X166817288Y-40274500D01*
X166817284Y-40274500D01*
X165182716Y-40274500D01*
X165182711Y-40274500D01*
X165131524Y-40284681D01*
X165131523Y-40284682D01*
X165073471Y-40323471D01*
X165034682Y-40381523D01*
X165034681Y-40381524D01*
X165024500Y-40432711D01*
X165024500Y-42067288D01*
X153775500Y-42067288D01*
X153775500Y-41103554D01*
X153795185Y-41036515D01*
X153809308Y-41020215D01*
X153808781Y-41019758D01*
X153880538Y-40936945D01*
X153904130Y-40909718D01*
X153912318Y-40891790D01*
X153936186Y-40839526D01*
X153960931Y-40785342D01*
X153980390Y-40650000D01*
X153960931Y-40514658D01*
X153923507Y-40432711D01*
X153904132Y-40390285D01*
X153904127Y-40390278D01*
X153814590Y-40286946D01*
X153814586Y-40286942D01*
X153699559Y-40213021D01*
X153568368Y-40174500D01*
X153568367Y-40174500D01*
X153431633Y-40174500D01*
X153431632Y-40174500D01*
X153300440Y-40213021D01*
X153185413Y-40286942D01*
X153185409Y-40286946D01*
X153095872Y-40390278D01*
X153095867Y-40390285D01*
X153039070Y-40514654D01*
X153039068Y-40514662D01*
X153019610Y-40650000D01*
X153027216Y-40702902D01*
X153017272Y-40772061D01*
X152971517Y-40824865D01*
X152904478Y-40844549D01*
X152869544Y-40839526D01*
X152818369Y-40824500D01*
X152818367Y-40824500D01*
X152681633Y-40824500D01*
X152681632Y-40824500D01*
X152550440Y-40863021D01*
X152435413Y-40936942D01*
X152435409Y-40936946D01*
X152345872Y-41040278D01*
X152345867Y-41040285D01*
X152289070Y-41164654D01*
X152289068Y-41164662D01*
X152269610Y-41300000D01*
X152269610Y-41300003D01*
X152273553Y-41327432D01*
X152263608Y-41396590D01*
X152217852Y-41449393D01*
X152150812Y-41469076D01*
X152115882Y-41464054D01*
X152080403Y-41453637D01*
X151943669Y-41453637D01*
X151943668Y-41453637D01*
X151812476Y-41492158D01*
X151697449Y-41566079D01*
X151697445Y-41566083D01*
X151607908Y-41669415D01*
X151607903Y-41669422D01*
X151551106Y-41793791D01*
X151551104Y-41793799D01*
X151531646Y-41929137D01*
X151542914Y-42007512D01*
X151532970Y-42076670D01*
X151487215Y-42129474D01*
X151420175Y-42149158D01*
X151385242Y-42144135D01*
X151318370Y-42124500D01*
X151318367Y-42124500D01*
X151181633Y-42124500D01*
X151181632Y-42124500D01*
X151050440Y-42163021D01*
X150935413Y-42236942D01*
X150935409Y-42236946D01*
X150845872Y-42340278D01*
X150845867Y-42340285D01*
X150789070Y-42464654D01*
X150789068Y-42464662D01*
X150769610Y-42600000D01*
X150777216Y-42652902D01*
X150767272Y-42722061D01*
X150721517Y-42774865D01*
X150654478Y-42794549D01*
X150619544Y-42789526D01*
X150568369Y-42774500D01*
X150568367Y-42774500D01*
X150431633Y-42774500D01*
X150431632Y-42774500D01*
X150300440Y-42813021D01*
X150185413Y-42886942D01*
X150185409Y-42886946D01*
X150095872Y-42990278D01*
X150095867Y-42990285D01*
X150039070Y-43114654D01*
X150039068Y-43114662D01*
X150019610Y-43250000D01*
X150027216Y-43302902D01*
X150017272Y-43372061D01*
X149971517Y-43424865D01*
X149904478Y-43444549D01*
X149869544Y-43439526D01*
X149818369Y-43424500D01*
X149818367Y-43424500D01*
X149681633Y-43424500D01*
X149681632Y-43424500D01*
X149550440Y-43463021D01*
X149435413Y-43536942D01*
X149435409Y-43536946D01*
X149345872Y-43640278D01*
X149345867Y-43640285D01*
X149289070Y-43764654D01*
X149289068Y-43764662D01*
X149269610Y-43900000D01*
X149277216Y-43952902D01*
X149267272Y-44022061D01*
X149221517Y-44074865D01*
X149154478Y-44094549D01*
X149119544Y-44089526D01*
X149068369Y-44074500D01*
X149068367Y-44074500D01*
X148931633Y-44074500D01*
X148931632Y-44074500D01*
X148800440Y-44113021D01*
X148685413Y-44186942D01*
X148685409Y-44186946D01*
X148595872Y-44290278D01*
X148595867Y-44290285D01*
X148539070Y-44414654D01*
X148539068Y-44414662D01*
X148519610Y-44550000D01*
X148527216Y-44602902D01*
X148517272Y-44672061D01*
X148471517Y-44724865D01*
X148404478Y-44744549D01*
X148369544Y-44739526D01*
X148318369Y-44724500D01*
X148318367Y-44724500D01*
X148181633Y-44724500D01*
X148181632Y-44724500D01*
X148050440Y-44763021D01*
X147935413Y-44836942D01*
X147935409Y-44836946D01*
X147845872Y-44940278D01*
X147845867Y-44940285D01*
X147789070Y-45064654D01*
X147789068Y-45064662D01*
X147769610Y-45200000D01*
X147789068Y-45335337D01*
X147789070Y-45335345D01*
X147845867Y-45459714D01*
X147845872Y-45459721D01*
X147941219Y-45569758D01*
X147939199Y-45571508D01*
X147969475Y-45618612D01*
X147974500Y-45653554D01*
X147974500Y-47012624D01*
X147954815Y-47079663D01*
X147902011Y-47125418D01*
X147832853Y-47135362D01*
X147783462Y-47116941D01*
X147773458Y-47110512D01*
X147699561Y-47063022D01*
X147699557Y-47063020D01*
X147699556Y-47063020D01*
X147568368Y-47024500D01*
X147568367Y-47024500D01*
X147431633Y-47024500D01*
X147431632Y-47024500D01*
X147300440Y-47063021D01*
X147185413Y-47136942D01*
X147185409Y-47136946D01*
X147095872Y-47240278D01*
X147095867Y-47240285D01*
X147039070Y-47364654D01*
X147039068Y-47364662D01*
X147019610Y-47499999D01*
X147039068Y-47635337D01*
X147039070Y-47635345D01*
X147095867Y-47759714D01*
X147095872Y-47759721D01*
X147191219Y-47869758D01*
X147189199Y-47871508D01*
X147219475Y-47918612D01*
X147224500Y-47953554D01*
X147224500Y-54137291D01*
X147204815Y-54204330D01*
X147152011Y-54250085D01*
X147082853Y-54260029D01*
X147019297Y-54231004D01*
X146987706Y-54188802D01*
X146954132Y-54115285D01*
X146954127Y-54115278D01*
X146864590Y-54011946D01*
X146864586Y-54011942D01*
X146749559Y-53938021D01*
X146618368Y-53899500D01*
X146618367Y-53899500D01*
X146481633Y-53899500D01*
X146481632Y-53899500D01*
X146350440Y-53938021D01*
X146235413Y-54011942D01*
X146235409Y-54011946D01*
X146145872Y-54115278D01*
X146145867Y-54115285D01*
X146089070Y-54239654D01*
X146089068Y-54239662D01*
X146069610Y-54374999D01*
X146089068Y-54510337D01*
X146089070Y-54510345D01*
X146145867Y-54634714D01*
X146145872Y-54634721D01*
X146235409Y-54738053D01*
X146235413Y-54738057D01*
X146277379Y-54765026D01*
X146350439Y-54811978D01*
X146416035Y-54831239D01*
X146481632Y-54850500D01*
X146481633Y-54850500D01*
X146618367Y-54850500D01*
X146749561Y-54811978D01*
X146861130Y-54740278D01*
X146864586Y-54738057D01*
X146864586Y-54738056D01*
X146864589Y-54738055D01*
X146954130Y-54634718D01*
X146987707Y-54561194D01*
X147033460Y-54508393D01*
X147100499Y-54488708D01*
X147167539Y-54508392D01*
X147213294Y-54561196D01*
X147224500Y-54612708D01*
X147224500Y-60084521D01*
X147204815Y-60151560D01*
X147188184Y-60172199D01*
X147172206Y-60188178D01*
X147110884Y-60221665D01*
X147084522Y-60224500D01*
X141904282Y-60224500D01*
X141837243Y-60204815D01*
X141791488Y-60152011D01*
X141781544Y-60082853D01*
X141787241Y-60059545D01*
X141804876Y-60009146D01*
X141804878Y-60009138D01*
X141825062Y-59830002D01*
X141825062Y-59829997D01*
X141804878Y-59650861D01*
X141804877Y-59650858D01*
X141745337Y-59480701D01*
X141745335Y-59480697D01*
X141736660Y-59466891D01*
X141107680Y-60095871D01*
X141046357Y-60129356D01*
X140976665Y-60124372D01*
X140932318Y-60095871D01*
X140644722Y-59808275D01*
X140841077Y-59808275D01*
X140851475Y-59893913D01*
X140900481Y-59964909D01*
X140976866Y-60005000D01*
X141041247Y-60005000D01*
X141103760Y-59989592D01*
X141168332Y-59932386D01*
X141198923Y-59851725D01*
X141188525Y-59766087D01*
X141139519Y-59695091D01*
X141063134Y-59655000D01*
X140998753Y-59655000D01*
X140936240Y-59670408D01*
X140871668Y-59727614D01*
X140841077Y-59808275D01*
X140644722Y-59808275D01*
X140385000Y-59548553D01*
X139837681Y-60095872D01*
X139776358Y-60129357D01*
X139706666Y-60124373D01*
X139662319Y-60095872D01*
X139484128Y-59917681D01*
X139450643Y-59856358D01*
X139454082Y-59808275D01*
X139571077Y-59808275D01*
X139581475Y-59893913D01*
X139630481Y-59964909D01*
X139706866Y-60005000D01*
X139771247Y-60005000D01*
X139833760Y-59989592D01*
X139898332Y-59932386D01*
X139928923Y-59851725D01*
X139918525Y-59766087D01*
X139869519Y-59695091D01*
X139793134Y-59655000D01*
X139728753Y-59655000D01*
X139666240Y-59670408D01*
X139601668Y-59727614D01*
X139571077Y-59808275D01*
X139454082Y-59808275D01*
X139455627Y-59786666D01*
X139484128Y-59742319D01*
X140113108Y-59113338D01*
X140656890Y-59113338D01*
X141020000Y-59476447D01*
X141020001Y-59476447D01*
X141383108Y-59113338D01*
X141383108Y-59113337D01*
X141369308Y-59104667D01*
X141369298Y-59104662D01*
X141199141Y-59045122D01*
X141199138Y-59045121D01*
X141020003Y-59024938D01*
X141019997Y-59024938D01*
X140840861Y-59045121D01*
X140840858Y-59045122D01*
X140670696Y-59104664D01*
X140656891Y-59113338D01*
X140656890Y-59113338D01*
X140113108Y-59113338D01*
X140113108Y-59113337D01*
X140099308Y-59104667D01*
X140099298Y-59104662D01*
X139929141Y-59045122D01*
X139929138Y-59045121D01*
X139750003Y-59024938D01*
X139743037Y-59024938D01*
X139743037Y-59023224D01*
X139682890Y-59012683D01*
X139631516Y-58965328D01*
X139615102Y-58919168D01*
X139610932Y-58890161D01*
X139610931Y-58890159D01*
X139610931Y-58890156D01*
X139559315Y-58777133D01*
X139554132Y-58765783D01*
X139554130Y-58765781D01*
X139554130Y-58765780D01*
X139464589Y-58662443D01*
X139458781Y-58655740D01*
X139460798Y-58653991D01*
X139430517Y-58606858D01*
X139425500Y-58571942D01*
X139425500Y-56239344D01*
X139427883Y-56215151D01*
X139430897Y-56199999D01*
X139430897Y-56199500D01*
X139431205Y-56198450D01*
X139433280Y-56188020D01*
X139434213Y-56188205D01*
X139450582Y-56132461D01*
X139503386Y-56086706D01*
X139554897Y-56075500D01*
X139618367Y-56075500D01*
X139749561Y-56036978D01*
X139864589Y-55963055D01*
X139954130Y-55859718D01*
X140010931Y-55735342D01*
X140030390Y-55600000D01*
X140010931Y-55464658D01*
X139998275Y-55436945D01*
X139954132Y-55340285D01*
X139954127Y-55340278D01*
X139864590Y-55236946D01*
X139864586Y-55236942D01*
X139749559Y-55163021D01*
X139618368Y-55124500D01*
X139618367Y-55124500D01*
X139481633Y-55124500D01*
X139481632Y-55124500D01*
X139350440Y-55163021D01*
X139235413Y-55236942D01*
X139235413Y-55236943D01*
X139235411Y-55236944D01*
X139235411Y-55236945D01*
X139227962Y-55245542D01*
X139143713Y-55342771D01*
X139084935Y-55380545D01*
X139015065Y-55380545D01*
X138956287Y-55342771D01*
X138906527Y-55285345D01*
X138864589Y-55236945D01*
X138864586Y-55236943D01*
X138864586Y-55236942D01*
X138749559Y-55163021D01*
X138618368Y-55124500D01*
X138618367Y-55124500D01*
X138481633Y-55124500D01*
X138481632Y-55124500D01*
X138350440Y-55163021D01*
X138235413Y-55236942D01*
X138235409Y-55236946D01*
X138145872Y-55340278D01*
X138145867Y-55340285D01*
X138089070Y-55464654D01*
X138089068Y-55464662D01*
X138069610Y-55600000D01*
X138089068Y-55735337D01*
X138089070Y-55735345D01*
X138145867Y-55859714D01*
X138145872Y-55859721D01*
X138235409Y-55963053D01*
X138235413Y-55963057D01*
X138289770Y-55997989D01*
X138350439Y-56036978D01*
X138390347Y-56048696D01*
X138481632Y-56075500D01*
X138584522Y-56075500D01*
X138651561Y-56095185D01*
X138672198Y-56111814D01*
X138838182Y-56277797D01*
X138871666Y-56339119D01*
X138874500Y-56365477D01*
X138874500Y-58571942D01*
X138854815Y-58638981D01*
X138840691Y-58655283D01*
X138841219Y-58655740D01*
X138745870Y-58765780D01*
X138745867Y-58765783D01*
X138689070Y-58890152D01*
X138689068Y-58890160D01*
X138683781Y-58926932D01*
X138654755Y-58990488D01*
X138595977Y-59028261D01*
X138547161Y-59032504D01*
X138480005Y-59024938D01*
X138479997Y-59024938D01*
X138300861Y-59045121D01*
X138300858Y-59045122D01*
X138130696Y-59104664D01*
X138116891Y-59113338D01*
X138116890Y-59113338D01*
X138745871Y-59742319D01*
X138779356Y-59803642D01*
X138774372Y-59873334D01*
X138745871Y-59917681D01*
X138567681Y-60095871D01*
X138506358Y-60129356D01*
X138436666Y-60124372D01*
X138392319Y-60095871D01*
X138104723Y-59808275D01*
X138301077Y-59808275D01*
X138311475Y-59893913D01*
X138360481Y-59964909D01*
X138436866Y-60005000D01*
X138501247Y-60005000D01*
X138563760Y-59989592D01*
X138628332Y-59932386D01*
X138658923Y-59851725D01*
X138648525Y-59766087D01*
X138599519Y-59695091D01*
X138523134Y-59655000D01*
X138458753Y-59655000D01*
X138396240Y-59670408D01*
X138331668Y-59727614D01*
X138301077Y-59808275D01*
X138104723Y-59808275D01*
X137763338Y-59466890D01*
X137763338Y-59466891D01*
X137754664Y-59480696D01*
X137695122Y-59650858D01*
X137695121Y-59650861D01*
X137674938Y-59829997D01*
X137674938Y-59830002D01*
X137695121Y-60009138D01*
X137695123Y-60009146D01*
X137712759Y-60059545D01*
X137716321Y-60129324D01*
X137681593Y-60189951D01*
X137619599Y-60222179D01*
X137595718Y-60224500D01*
X135165478Y-60224500D01*
X135098439Y-60204815D01*
X135077797Y-60188181D01*
X135061819Y-60172203D01*
X135028334Y-60110880D01*
X135025500Y-60084522D01*
X135025500Y-58203554D01*
X135045185Y-58136515D01*
X135059308Y-58120215D01*
X135058781Y-58119758D01*
X135156287Y-58007229D01*
X135215065Y-57969454D01*
X135284934Y-57969454D01*
X135343713Y-58007228D01*
X135343713Y-58007229D01*
X135435409Y-58113053D01*
X135435413Y-58113057D01*
X135495979Y-58151979D01*
X135550439Y-58186978D01*
X135606892Y-58203554D01*
X135681632Y-58225500D01*
X135681633Y-58225500D01*
X135818367Y-58225500D01*
X135949561Y-58186978D01*
X136064589Y-58113055D01*
X136154130Y-58009718D01*
X136210931Y-57885342D01*
X136230390Y-57750000D01*
X136211151Y-57616189D01*
X136221095Y-57547031D01*
X136266850Y-57494228D01*
X136309907Y-57478169D01*
X136309857Y-57477999D01*
X136312238Y-57477299D01*
X136316249Y-57475804D01*
X136318357Y-57475500D01*
X136318367Y-57475500D01*
X136449561Y-57436978D01*
X136564589Y-57363055D01*
X136654130Y-57259718D01*
X136710931Y-57135342D01*
X136730390Y-57000000D01*
X136710931Y-56864658D01*
X136695724Y-56831360D01*
X136654132Y-56740285D01*
X136654127Y-56740278D01*
X136564590Y-56636946D01*
X136564591Y-56636946D01*
X136555899Y-56631360D01*
X136513813Y-56604313D01*
X136468060Y-56551513D01*
X136458116Y-56482355D01*
X136487140Y-56418799D01*
X136513809Y-56395688D01*
X136564589Y-56363055D01*
X136654130Y-56259718D01*
X136710931Y-56135342D01*
X136730390Y-56000000D01*
X136710931Y-55864658D01*
X136698677Y-55837827D01*
X136654132Y-55740285D01*
X136654127Y-55740278D01*
X136564590Y-55636946D01*
X136564591Y-55636946D01*
X136546212Y-55625135D01*
X136513813Y-55604313D01*
X136468060Y-55551513D01*
X136458116Y-55482355D01*
X136487140Y-55418799D01*
X136513809Y-55395688D01*
X136564589Y-55363055D01*
X136654130Y-55259718D01*
X136710931Y-55135342D01*
X136730390Y-55000000D01*
X136710931Y-54864658D01*
X136698677Y-54837827D01*
X136654132Y-54740285D01*
X136654127Y-54740278D01*
X136564590Y-54636946D01*
X136564586Y-54636942D01*
X136449559Y-54563021D01*
X136361774Y-54537245D01*
X136302996Y-54499471D01*
X136273971Y-54435915D01*
X136283915Y-54366757D01*
X136309023Y-54330592D01*
X136416995Y-54222619D01*
X136435774Y-54207209D01*
X136448624Y-54198624D01*
X136471764Y-54163994D01*
X136509515Y-54107495D01*
X136510959Y-54100236D01*
X136525500Y-54027133D01*
X136525500Y-54027128D01*
X136530896Y-54000000D01*
X136527882Y-53984845D01*
X136525500Y-53960657D01*
X136525500Y-52378554D01*
X136545185Y-52311515D01*
X136559308Y-52295215D01*
X136558781Y-52294758D01*
X136619207Y-52225022D01*
X136654130Y-52184718D01*
X136710931Y-52060342D01*
X136730390Y-51925000D01*
X136710931Y-51789658D01*
X136698677Y-51762827D01*
X136654132Y-51665285D01*
X136654130Y-51665283D01*
X136654130Y-51665282D01*
X136564589Y-51561945D01*
X136558781Y-51555242D01*
X136560798Y-51553493D01*
X136530517Y-51506360D01*
X136525500Y-51471444D01*
X136525500Y-50500000D01*
X139769610Y-50500000D01*
X139789068Y-50635337D01*
X139789070Y-50635345D01*
X139845867Y-50759714D01*
X139845872Y-50759721D01*
X139935409Y-50863053D01*
X139935413Y-50863057D01*
X139995979Y-50901979D01*
X140050439Y-50936978D01*
X140116035Y-50956239D01*
X140181632Y-50975500D01*
X140181633Y-50975500D01*
X140318367Y-50975500D01*
X140449561Y-50936978D01*
X140560903Y-50865424D01*
X140564586Y-50863057D01*
X140564586Y-50863056D01*
X140564589Y-50863055D01*
X140654130Y-50759718D01*
X140710931Y-50635342D01*
X140730390Y-50500000D01*
X140710931Y-50364658D01*
X140698677Y-50337827D01*
X140654132Y-50240285D01*
X140654127Y-50240278D01*
X140564590Y-50136946D01*
X140564586Y-50136942D01*
X140449559Y-50063021D01*
X140318368Y-50024500D01*
X140318367Y-50024500D01*
X140181633Y-50024500D01*
X140181632Y-50024500D01*
X140050440Y-50063021D01*
X139935413Y-50136942D01*
X139935409Y-50136946D01*
X139845872Y-50240278D01*
X139845867Y-50240285D01*
X139789070Y-50364654D01*
X139789068Y-50364662D01*
X139769610Y-50500000D01*
X136525500Y-50500000D01*
X136525500Y-46500000D01*
X139769610Y-46500000D01*
X139789068Y-46635337D01*
X139789070Y-46635345D01*
X139845867Y-46759714D01*
X139845872Y-46759721D01*
X139935409Y-46863053D01*
X139935413Y-46863057D01*
X139995979Y-46901979D01*
X140050439Y-46936978D01*
X140104225Y-46952771D01*
X140181632Y-46975500D01*
X140181633Y-46975500D01*
X140318367Y-46975500D01*
X140449561Y-46936978D01*
X140564589Y-46863055D01*
X140654130Y-46759718D01*
X140710931Y-46635342D01*
X140730390Y-46500000D01*
X140710931Y-46364658D01*
X140686191Y-46310485D01*
X140654132Y-46240285D01*
X140654127Y-46240278D01*
X140564590Y-46136946D01*
X140564586Y-46136942D01*
X140449559Y-46063021D01*
X140318368Y-46024500D01*
X140318367Y-46024500D01*
X140181633Y-46024500D01*
X140181632Y-46024500D01*
X140050440Y-46063021D01*
X139935413Y-46136942D01*
X139935409Y-46136946D01*
X139845872Y-46240278D01*
X139845867Y-46240285D01*
X139789070Y-46364654D01*
X139789068Y-46364662D01*
X139769610Y-46500000D01*
X136525500Y-46500000D01*
X136525500Y-44039339D01*
X136527883Y-44015146D01*
X136530896Y-43999999D01*
X136530896Y-43999998D01*
X136526689Y-43978849D01*
X136526687Y-43978833D01*
X136509516Y-43892509D01*
X136509515Y-43892508D01*
X136509515Y-43892505D01*
X136456406Y-43813022D01*
X136448624Y-43801375D01*
X136435775Y-43792790D01*
X136416985Y-43777369D01*
X136222627Y-43583011D01*
X136207205Y-43564219D01*
X136198624Y-43551376D01*
X136198620Y-43551372D01*
X136175623Y-43536007D01*
X136135974Y-43509514D01*
X136107494Y-43490484D01*
X136107493Y-43490483D01*
X136022849Y-43473647D01*
X136022816Y-43473641D01*
X136008854Y-43470864D01*
X136000001Y-43469103D01*
X136000000Y-43469103D01*
X135984846Y-43472117D01*
X135960656Y-43474500D01*
X134165479Y-43474500D01*
X134098440Y-43454815D01*
X134077795Y-43438178D01*
X134061816Y-43422198D01*
X134028333Y-43360874D01*
X134025500Y-43334520D01*
X134025500Y-42261891D01*
X134045185Y-42194852D01*
X134097989Y-42149097D01*
X134167147Y-42139153D01*
X134230703Y-42168178D01*
X134245350Y-42183222D01*
X134311353Y-42263647D01*
X134467506Y-42391798D01*
X134467509Y-42391799D01*
X134467511Y-42391801D01*
X134645654Y-42487021D01*
X134645656Y-42487021D01*
X134645659Y-42487023D01*
X134838967Y-42545662D01*
X135040000Y-42565462D01*
X135241033Y-42545662D01*
X135391561Y-42500000D01*
X139769610Y-42500000D01*
X139789068Y-42635337D01*
X139789070Y-42635345D01*
X139845867Y-42759714D01*
X139845872Y-42759721D01*
X139935409Y-42863053D01*
X139935413Y-42863057D01*
X139995979Y-42901979D01*
X140050439Y-42936978D01*
X140111186Y-42954815D01*
X140181632Y-42975500D01*
X140181633Y-42975500D01*
X140318367Y-42975500D01*
X140449561Y-42936978D01*
X140560576Y-42865634D01*
X140564586Y-42863057D01*
X140564586Y-42863056D01*
X140564589Y-42863055D01*
X140654130Y-42759718D01*
X140710931Y-42635342D01*
X140730390Y-42500000D01*
X140710931Y-42364658D01*
X140676699Y-42289701D01*
X140654132Y-42240285D01*
X140654127Y-42240278D01*
X140564590Y-42136946D01*
X140564586Y-42136942D01*
X140452679Y-42065026D01*
X140449561Y-42063022D01*
X140449560Y-42063021D01*
X140449559Y-42063021D01*
X140318368Y-42024500D01*
X140318367Y-42024500D01*
X140181633Y-42024500D01*
X140181632Y-42024500D01*
X140050440Y-42063021D01*
X139935413Y-42136942D01*
X139935409Y-42136946D01*
X139845872Y-42240278D01*
X139845867Y-42240285D01*
X139789070Y-42364654D01*
X139789068Y-42364662D01*
X139769610Y-42500000D01*
X135391561Y-42500000D01*
X135434341Y-42487023D01*
X135612494Y-42391798D01*
X135768647Y-42263647D01*
X135896798Y-42107494D01*
X135992023Y-41929341D01*
X136050662Y-41736033D01*
X136070462Y-41535000D01*
X136050662Y-41333967D01*
X135992023Y-41140659D01*
X135992021Y-41140656D01*
X135992021Y-41140654D01*
X135896801Y-40962511D01*
X135896799Y-40962509D01*
X135896798Y-40962506D01*
X135830816Y-40882106D01*
X135768647Y-40806352D01*
X135612495Y-40678203D01*
X135612488Y-40678198D01*
X135434345Y-40582978D01*
X135241031Y-40524337D01*
X135061962Y-40506701D01*
X135040000Y-40504538D01*
X135039999Y-40504538D01*
X134838968Y-40524337D01*
X134645654Y-40582978D01*
X134467511Y-40678198D01*
X134467504Y-40678203D01*
X134311352Y-40806352D01*
X134245353Y-40886773D01*
X134187607Y-40926107D01*
X134117763Y-40927978D01*
X134057994Y-40891790D01*
X134027279Y-40829034D01*
X134025500Y-40808108D01*
X134025500Y-40269344D01*
X134027883Y-40245151D01*
X134030897Y-40229999D01*
X134011898Y-40134486D01*
X134011296Y-40128375D01*
X134009515Y-40122506D01*
X134009515Y-40122505D01*
X133979069Y-40076940D01*
X133948624Y-40031375D01*
X133935775Y-40022790D01*
X133916985Y-40007369D01*
X133458510Y-39548894D01*
X133425025Y-39487571D01*
X133430009Y-39417879D01*
X133436833Y-39402759D01*
X133452023Y-39374341D01*
X133510662Y-39181033D01*
X133530462Y-38980000D01*
X134009538Y-38980000D01*
X134029337Y-39181031D01*
X134087978Y-39374345D01*
X134183198Y-39552488D01*
X134183203Y-39552495D01*
X134311352Y-39708647D01*
X134405227Y-39785687D01*
X134467506Y-39836798D01*
X134467509Y-39836799D01*
X134467511Y-39836801D01*
X134645654Y-39932021D01*
X134645656Y-39932021D01*
X134645659Y-39932023D01*
X134838967Y-39990662D01*
X135040000Y-40010462D01*
X135241033Y-39990662D01*
X135434341Y-39932023D01*
X135462760Y-39916833D01*
X135543865Y-39873481D01*
X135612494Y-39836798D01*
X135768647Y-39708647D01*
X135896798Y-39552494D01*
X135992023Y-39374341D01*
X136037325Y-39225000D01*
X159894534Y-39225000D01*
X159914312Y-39375234D01*
X159914313Y-39375236D01*
X159972302Y-39515233D01*
X160064549Y-39635451D01*
X160184767Y-39727698D01*
X160324764Y-39785687D01*
X160399882Y-39795576D01*
X160474999Y-39805466D01*
X160475000Y-39805466D01*
X160475001Y-39805466D01*
X160525078Y-39798872D01*
X160625236Y-39785687D01*
X160765233Y-39727698D01*
X160885451Y-39635451D01*
X160977698Y-39515233D01*
X161035687Y-39375236D01*
X161055466Y-39225000D01*
X161035687Y-39074764D01*
X160977698Y-38934767D01*
X160885451Y-38814549D01*
X160765233Y-38722302D01*
X160765229Y-38722300D01*
X160625236Y-38664313D01*
X160625234Y-38664312D01*
X160475001Y-38644534D01*
X160474999Y-38644534D01*
X160324765Y-38664312D01*
X160324763Y-38664313D01*
X160184770Y-38722300D01*
X160064549Y-38814549D01*
X159972300Y-38934770D01*
X159914313Y-39074763D01*
X159914312Y-39074765D01*
X159894534Y-39224999D01*
X159894534Y-39225000D01*
X136037325Y-39225000D01*
X136050662Y-39181033D01*
X136070462Y-38980000D01*
X136050662Y-38778967D01*
X135992023Y-38585659D01*
X135992021Y-38585656D01*
X135992021Y-38585654D01*
X135896801Y-38407511D01*
X135896799Y-38407509D01*
X135896798Y-38407506D01*
X135857824Y-38360016D01*
X135768647Y-38251352D01*
X135636238Y-38142688D01*
X135612494Y-38123202D01*
X135612492Y-38123201D01*
X135612488Y-38123198D01*
X135434345Y-38027978D01*
X135241031Y-37969337D01*
X135061962Y-37951701D01*
X135040000Y-37949538D01*
X135039999Y-37949538D01*
X134838968Y-37969337D01*
X134645654Y-38027978D01*
X134467511Y-38123198D01*
X134467504Y-38123203D01*
X134311352Y-38251352D01*
X134183203Y-38407504D01*
X134183198Y-38407511D01*
X134087978Y-38585654D01*
X134029337Y-38778968D01*
X134009538Y-38980000D01*
X133530462Y-38980000D01*
X133510662Y-38778967D01*
X133452023Y-38585659D01*
X133452021Y-38585656D01*
X133452021Y-38585654D01*
X133356801Y-38407511D01*
X133356799Y-38407509D01*
X133356798Y-38407506D01*
X133317824Y-38360016D01*
X133228647Y-38251352D01*
X133096238Y-38142688D01*
X133072494Y-38123202D01*
X133072492Y-38123201D01*
X133072488Y-38123198D01*
X132894345Y-38027978D01*
X132701031Y-37969337D01*
X132521962Y-37951701D01*
X132500000Y-37949538D01*
X132499999Y-37949538D01*
X132298968Y-37969337D01*
X132105654Y-38027978D01*
X131927511Y-38123198D01*
X131927504Y-38123203D01*
X131771352Y-38251352D01*
X131643203Y-38407504D01*
X131643198Y-38407511D01*
X131547978Y-38585654D01*
X131489337Y-38778968D01*
X131469538Y-38979999D01*
X131489337Y-39181031D01*
X131547978Y-39374345D01*
X131643198Y-39552488D01*
X131643203Y-39552495D01*
X131771352Y-39708647D01*
X131865227Y-39785687D01*
X131927506Y-39836798D01*
X131927509Y-39836799D01*
X131927511Y-39836801D01*
X132105654Y-39932021D01*
X132105656Y-39932021D01*
X132105659Y-39932023D01*
X132298967Y-39990662D01*
X132500000Y-40010462D01*
X132701033Y-39990662D01*
X132894341Y-39932023D01*
X132922759Y-39916832D01*
X132991162Y-39902591D01*
X133056406Y-39927590D01*
X133068894Y-39938510D01*
X133438181Y-40307796D01*
X133471666Y-40369119D01*
X133474500Y-40395477D01*
X133474500Y-40759368D01*
X133454815Y-40826407D01*
X133402011Y-40872162D01*
X133332853Y-40882106D01*
X133269297Y-40853081D01*
X133254647Y-40838033D01*
X133228647Y-40806352D01*
X133072495Y-40678203D01*
X133072488Y-40678198D01*
X132894345Y-40582978D01*
X132701031Y-40524337D01*
X132500000Y-40504538D01*
X132298968Y-40524337D01*
X132105654Y-40582978D01*
X131927511Y-40678198D01*
X131927504Y-40678203D01*
X131771352Y-40806352D01*
X131643203Y-40962504D01*
X131643198Y-40962511D01*
X131547977Y-41140657D01*
X131516846Y-41243281D01*
X131478549Y-41301719D01*
X131414736Y-41330176D01*
X131345669Y-41319615D01*
X131293276Y-41273390D01*
X131278411Y-41239378D01*
X131233433Y-41071516D01*
X131233429Y-41071507D01*
X131133600Y-40857422D01*
X131133599Y-40857420D01*
X130998113Y-40663926D01*
X130998108Y-40663920D01*
X130831082Y-40496894D01*
X130637578Y-40361399D01*
X130423492Y-40261570D01*
X130423483Y-40261566D01*
X130377610Y-40249275D01*
X130317949Y-40212910D01*
X130287420Y-40150063D01*
X130295715Y-40080688D01*
X130340200Y-40026810D01*
X130406752Y-40005535D01*
X130409703Y-40005500D01*
X130827286Y-40005500D01*
X130827287Y-40005499D01*
X130840257Y-40002919D01*
X130878475Y-39995318D01*
X130878475Y-39995317D01*
X130878477Y-39995317D01*
X130936528Y-39956528D01*
X130975317Y-39898477D01*
X130975317Y-39898475D01*
X130975318Y-39898475D01*
X130985499Y-39847288D01*
X130985500Y-39847286D01*
X130985500Y-38112713D01*
X130985499Y-38112711D01*
X130975318Y-38061524D01*
X130975317Y-38061523D01*
X130936528Y-38003471D01*
X130878476Y-37964682D01*
X130878475Y-37964681D01*
X130827288Y-37954500D01*
X130827284Y-37954500D01*
X129092716Y-37954500D01*
X129092711Y-37954500D01*
X129041524Y-37964681D01*
X129041523Y-37964682D01*
X128983471Y-38003471D01*
X128944682Y-38061523D01*
X128944681Y-38061524D01*
X128934500Y-38112711D01*
X128934500Y-39847288D01*
X128944681Y-39898475D01*
X128944682Y-39898476D01*
X128983471Y-39956528D01*
X129041523Y-39995317D01*
X129041524Y-39995318D01*
X129092711Y-40005499D01*
X129092714Y-40005500D01*
X129510297Y-40005500D01*
X129577336Y-40025185D01*
X129623091Y-40077989D01*
X129633035Y-40147147D01*
X129604010Y-40210703D01*
X129545232Y-40248477D01*
X129542390Y-40249275D01*
X129496516Y-40261566D01*
X129496507Y-40261570D01*
X129282422Y-40361399D01*
X129282420Y-40361400D01*
X129088926Y-40496886D01*
X129088920Y-40496891D01*
X128921891Y-40663920D01*
X128921886Y-40663926D01*
X128786400Y-40857420D01*
X128786399Y-40857422D01*
X128686570Y-41071507D01*
X128686567Y-41071513D01*
X128629364Y-41284999D01*
X128629364Y-41285000D01*
X129526314Y-41285000D01*
X129500507Y-41325156D01*
X129460000Y-41463111D01*
X129460000Y-41606889D01*
X129500507Y-41744844D01*
X129526314Y-41785000D01*
X128629364Y-41785000D01*
X124650500Y-41785000D01*
X124650500Y-37625000D01*
X150219534Y-37625000D01*
X150239312Y-37775234D01*
X150239313Y-37775236D01*
X150297302Y-37915233D01*
X150389549Y-38035451D01*
X150509767Y-38127698D01*
X150649764Y-38185687D01*
X150724882Y-38195576D01*
X150799999Y-38205466D01*
X150800000Y-38205466D01*
X150800001Y-38205466D01*
X150850078Y-38198872D01*
X150950236Y-38185687D01*
X151090233Y-38127698D01*
X151210451Y-38035451D01*
X151302698Y-37915233D01*
X151360687Y-37775236D01*
X151380466Y-37625000D01*
X158969534Y-37625000D01*
X158989312Y-37775234D01*
X158989313Y-37775236D01*
X159047302Y-37915233D01*
X159139549Y-38035451D01*
X159259767Y-38127698D01*
X159399764Y-38185687D01*
X159474881Y-38195576D01*
X159549999Y-38205466D01*
X159550000Y-38205466D01*
X159550001Y-38205466D01*
X159600078Y-38198872D01*
X159700236Y-38185687D01*
X159840233Y-38127698D01*
X159960451Y-38035451D01*
X160052698Y-37915233D01*
X160110687Y-37775236D01*
X160130466Y-37625000D01*
X160110687Y-37474764D01*
X160052698Y-37334767D01*
X159960451Y-37214549D01*
X159840233Y-37122302D01*
X159840229Y-37122300D01*
X159700236Y-37064313D01*
X159700234Y-37064312D01*
X159550001Y-37044534D01*
X159549999Y-37044534D01*
X159399765Y-37064312D01*
X159399763Y-37064313D01*
X159259770Y-37122300D01*
X159139549Y-37214549D01*
X159047300Y-37334770D01*
X158989313Y-37474763D01*
X158989312Y-37474765D01*
X158969534Y-37624999D01*
X158969534Y-37625000D01*
X151380466Y-37625000D01*
X151360687Y-37474764D01*
X151302698Y-37334767D01*
X151210451Y-37214549D01*
X151090233Y-37122302D01*
X151090229Y-37122300D01*
X150950236Y-37064313D01*
X150950234Y-37064312D01*
X150800001Y-37044534D01*
X150799999Y-37044534D01*
X150649765Y-37064312D01*
X150649763Y-37064313D01*
X150509770Y-37122300D01*
X150389549Y-37214549D01*
X150297300Y-37334770D01*
X150239313Y-37474763D01*
X150239312Y-37474765D01*
X150219534Y-37624999D01*
X150219534Y-37625000D01*
X124650500Y-37625000D01*
X124650500Y-34279157D01*
X124670185Y-34212118D01*
X124722989Y-34166363D01*
X124792147Y-34156419D01*
X124855703Y-34185444D01*
X124880617Y-34215007D01*
X124923888Y-34286586D01*
X125071477Y-34474968D01*
X125584070Y-33962375D01*
X125783274Y-33962375D01*
X125822887Y-34044631D01*
X125894266Y-34101553D01*
X125960742Y-34116726D01*
X126005806Y-34116726D01*
X126072282Y-34101553D01*
X126143661Y-34044631D01*
X126183274Y-33962375D01*
X126183274Y-33871077D01*
X126143661Y-33788821D01*
X126072282Y-33731899D01*
X126005806Y-33716726D01*
X125960742Y-33716726D01*
X125894266Y-33731899D01*
X125822887Y-33788821D01*
X125783274Y-33871077D01*
X125783274Y-33962375D01*
X125584070Y-33962375D01*
X126214210Y-33332235D01*
X126314894Y-33473624D01*
X126466932Y-33618592D01*
X126569222Y-33684330D01*
X125425030Y-34828521D01*
X125425030Y-34828522D01*
X125613414Y-34976112D01*
X125613423Y-34976118D01*
X125892956Y-35145101D01*
X125892958Y-35145102D01*
X126190824Y-35279160D01*
X126190835Y-35279164D01*
X126502658Y-35376332D01*
X126823961Y-35435213D01*
X127150000Y-35454934D01*
X127231571Y-35450000D01*
X150219534Y-35450000D01*
X150239312Y-35600234D01*
X150239313Y-35600236D01*
X150297302Y-35740233D01*
X150389549Y-35860451D01*
X150509767Y-35952698D01*
X150649764Y-36010687D01*
X150724882Y-36020576D01*
X150799999Y-36030466D01*
X150800000Y-36030466D01*
X150800001Y-36030466D01*
X150850078Y-36023872D01*
X150950236Y-36010687D01*
X151090233Y-35952698D01*
X151210451Y-35860451D01*
X151302698Y-35740233D01*
X151360687Y-35600236D01*
X151380466Y-35450000D01*
X158969534Y-35450000D01*
X158989312Y-35600234D01*
X158989313Y-35600236D01*
X159047302Y-35740233D01*
X159139549Y-35860451D01*
X159259767Y-35952698D01*
X159399764Y-36010687D01*
X159474881Y-36020576D01*
X159549999Y-36030466D01*
X159550000Y-36030466D01*
X159550001Y-36030466D01*
X159600078Y-36023873D01*
X159700236Y-36010687D01*
X159840233Y-35952698D01*
X159960451Y-35860451D01*
X160052698Y-35740233D01*
X160110687Y-35600236D01*
X160130466Y-35450000D01*
X160110687Y-35299764D01*
X160052698Y-35159767D01*
X159960451Y-35039549D01*
X159840233Y-34947302D01*
X159840229Y-34947300D01*
X159700236Y-34889313D01*
X159700234Y-34889312D01*
X159550001Y-34869534D01*
X159549999Y-34869534D01*
X159399765Y-34889312D01*
X159399763Y-34889313D01*
X159259770Y-34947300D01*
X159259767Y-34947301D01*
X159259767Y-34947302D01*
X159139549Y-35039549D01*
X159047300Y-35159770D01*
X158989313Y-35299763D01*
X158989312Y-35299765D01*
X158969534Y-35449999D01*
X158969534Y-35450000D01*
X151380466Y-35450000D01*
X151360687Y-35299764D01*
X151302698Y-35159767D01*
X151210451Y-35039549D01*
X151090233Y-34947302D01*
X151090229Y-34947300D01*
X150950236Y-34889313D01*
X150950234Y-34889312D01*
X150800001Y-34869534D01*
X150799999Y-34869534D01*
X150649765Y-34889312D01*
X150649763Y-34889313D01*
X150509770Y-34947300D01*
X150509767Y-34947301D01*
X150509767Y-34947302D01*
X150389549Y-35039549D01*
X150297300Y-35159770D01*
X150239313Y-35299763D01*
X150239312Y-35299765D01*
X150219534Y-35449999D01*
X150219534Y-35450000D01*
X127231571Y-35450000D01*
X127476038Y-35435213D01*
X127797341Y-35376332D01*
X128109164Y-35279164D01*
X128109175Y-35279160D01*
X128407041Y-35145102D01*
X128407043Y-35145101D01*
X128686576Y-34976118D01*
X128686584Y-34976112D01*
X128874968Y-34828522D01*
X128874968Y-34828521D01*
X128008822Y-33962375D01*
X128116726Y-33962375D01*
X128156339Y-34044631D01*
X128227718Y-34101553D01*
X128294194Y-34116726D01*
X128339258Y-34116726D01*
X128405734Y-34101553D01*
X128477113Y-34044631D01*
X128516726Y-33962375D01*
X128516726Y-33871077D01*
X128477113Y-33788821D01*
X128405734Y-33731899D01*
X128339258Y-33716726D01*
X128294194Y-33716726D01*
X128227718Y-33731899D01*
X128156339Y-33788821D01*
X128116726Y-33871077D01*
X128116726Y-33962375D01*
X128008822Y-33962375D01*
X127733306Y-33686859D01*
X127747410Y-33679589D01*
X127912540Y-33549729D01*
X128050110Y-33390965D01*
X128084665Y-33331112D01*
X129228521Y-34474968D01*
X129228522Y-34474968D01*
X129376112Y-34286584D01*
X129376118Y-34286576D01*
X129545101Y-34007043D01*
X129545102Y-34007041D01*
X129679160Y-33709175D01*
X129679164Y-33709164D01*
X129707794Y-33617288D01*
X131434500Y-33617288D01*
X131444681Y-33668475D01*
X131444682Y-33668476D01*
X131483471Y-33726528D01*
X131541523Y-33765317D01*
X131541524Y-33765318D01*
X131592711Y-33775499D01*
X131592714Y-33775500D01*
X131592716Y-33775500D01*
X133327286Y-33775500D01*
X133327287Y-33775499D01*
X133340257Y-33772919D01*
X133378475Y-33765318D01*
X133378475Y-33765317D01*
X133378477Y-33765317D01*
X133436528Y-33726528D01*
X133475317Y-33668477D01*
X133475317Y-33668475D01*
X133475318Y-33668475D01*
X133482919Y-33630257D01*
X133485500Y-33617284D01*
X133485500Y-33254397D01*
X133505185Y-33187359D01*
X133557989Y-33141604D01*
X133627147Y-33131660D01*
X133690703Y-33160685D01*
X133723825Y-33208796D01*
X133724281Y-33208584D01*
X133725544Y-33211294D01*
X133726021Y-33211986D01*
X133726567Y-33213487D01*
X133826399Y-33427578D01*
X133961894Y-33621082D01*
X134128917Y-33788105D01*
X134322421Y-33923600D01*
X134536507Y-34023429D01*
X134536516Y-34023433D01*
X134750000Y-34080634D01*
X134750000Y-33185501D01*
X134857685Y-33234680D01*
X134964237Y-33250000D01*
X135035763Y-33250000D01*
X135142315Y-33234680D01*
X135250000Y-33185501D01*
X135250000Y-34080633D01*
X135463483Y-34023433D01*
X135463492Y-34023429D01*
X135677578Y-33923600D01*
X135871082Y-33788105D01*
X136038105Y-33621082D01*
X136173600Y-33427578D01*
X136273429Y-33213492D01*
X136273433Y-33213483D01*
X136318411Y-33045621D01*
X136354776Y-32985960D01*
X136417622Y-32955431D01*
X136486998Y-32963725D01*
X136540876Y-33008211D01*
X136556846Y-33041718D01*
X136587977Y-33144342D01*
X136683198Y-33322488D01*
X136683201Y-33322492D01*
X136683202Y-33322494D01*
X136702688Y-33346238D01*
X136811352Y-33478647D01*
X136897967Y-33549729D01*
X136967506Y-33606798D01*
X136967509Y-33606799D01*
X136967511Y-33606801D01*
X137145654Y-33702021D01*
X137145656Y-33702021D01*
X137145659Y-33702023D01*
X137338967Y-33760662D01*
X137540000Y-33780462D01*
X137741033Y-33760662D01*
X137934341Y-33702023D01*
X138112494Y-33606798D01*
X138268647Y-33478647D01*
X138396798Y-33322494D01*
X138492023Y-33144341D01*
X138550662Y-32951033D01*
X138570462Y-32750000D01*
X148669534Y-32750000D01*
X148689312Y-32900234D01*
X148689313Y-32900236D01*
X148714003Y-32959844D01*
X148747302Y-33040233D01*
X148839549Y-33160451D01*
X148959767Y-33252698D01*
X149099764Y-33310687D01*
X149174881Y-33320576D01*
X149249999Y-33330466D01*
X149250000Y-33330466D01*
X149250001Y-33330466D01*
X149300078Y-33323873D01*
X149400236Y-33310687D01*
X149540233Y-33252698D01*
X149660451Y-33160451D01*
X149752698Y-33040233D01*
X149810687Y-32900236D01*
X149830466Y-32750000D01*
X157419534Y-32750000D01*
X157439312Y-32900234D01*
X157439313Y-32900236D01*
X157464003Y-32959844D01*
X157497302Y-33040233D01*
X157589549Y-33160451D01*
X157709767Y-33252698D01*
X157849764Y-33310687D01*
X157924882Y-33320576D01*
X157999999Y-33330466D01*
X158000000Y-33330466D01*
X158000001Y-33330466D01*
X158050078Y-33323872D01*
X158150236Y-33310687D01*
X158290233Y-33252698D01*
X158410451Y-33160451D01*
X158502698Y-33040233D01*
X158560687Y-32900236D01*
X158580466Y-32750000D01*
X158560687Y-32599764D01*
X158502698Y-32459767D01*
X158410451Y-32339549D01*
X158290233Y-32247302D01*
X158290229Y-32247300D01*
X158150236Y-32189313D01*
X158150234Y-32189312D01*
X158000001Y-32169534D01*
X157999999Y-32169534D01*
X157849765Y-32189312D01*
X157849763Y-32189313D01*
X157709770Y-32247300D01*
X157709767Y-32247301D01*
X157709767Y-32247302D01*
X157589549Y-32339549D01*
X157498443Y-32458281D01*
X157497300Y-32459770D01*
X157439313Y-32599763D01*
X157439312Y-32599765D01*
X157419534Y-32749999D01*
X157419534Y-32750000D01*
X149830466Y-32750000D01*
X149810687Y-32599764D01*
X149752698Y-32459767D01*
X149660451Y-32339549D01*
X149540233Y-32247302D01*
X149540229Y-32247300D01*
X149400236Y-32189313D01*
X149400234Y-32189312D01*
X149250001Y-32169534D01*
X149249999Y-32169534D01*
X149099765Y-32189312D01*
X149099763Y-32189313D01*
X148959770Y-32247300D01*
X148959767Y-32247301D01*
X148959767Y-32247302D01*
X148839549Y-32339549D01*
X148748443Y-32458281D01*
X148747300Y-32459770D01*
X148689313Y-32599763D01*
X148689312Y-32599765D01*
X148669534Y-32749999D01*
X148669534Y-32750000D01*
X138570462Y-32750000D01*
X138550662Y-32548967D01*
X138492023Y-32355659D01*
X138492021Y-32355656D01*
X138492021Y-32355654D01*
X138396801Y-32177511D01*
X138396799Y-32177509D01*
X138396798Y-32177506D01*
X138335372Y-32102658D01*
X138268647Y-32021352D01*
X138112495Y-31893203D01*
X138112488Y-31893198D01*
X137934345Y-31797978D01*
X137741031Y-31739337D01*
X137540000Y-31719538D01*
X137338968Y-31739337D01*
X137145654Y-31797978D01*
X136967511Y-31893198D01*
X136967504Y-31893203D01*
X136811352Y-32021352D01*
X136683203Y-32177504D01*
X136683198Y-32177511D01*
X136587977Y-32355657D01*
X136556846Y-32458281D01*
X136518549Y-32516719D01*
X136454736Y-32545176D01*
X136385669Y-32534615D01*
X136333276Y-32488390D01*
X136318411Y-32454378D01*
X136273433Y-32286516D01*
X136273429Y-32286507D01*
X136173600Y-32072422D01*
X136173599Y-32072420D01*
X136038113Y-31878926D01*
X136038108Y-31878920D01*
X135871082Y-31711894D01*
X135677578Y-31576399D01*
X135463492Y-31476570D01*
X135463486Y-31476567D01*
X135250000Y-31419364D01*
X135250000Y-32314498D01*
X135142315Y-32265320D01*
X135035763Y-32250000D01*
X134964237Y-32250000D01*
X134857685Y-32265320D01*
X134750000Y-32314498D01*
X134750000Y-31419364D01*
X134749999Y-31419364D01*
X134536513Y-31476567D01*
X134536507Y-31476570D01*
X134322422Y-31576399D01*
X134322420Y-31576400D01*
X134128926Y-31711886D01*
X134128920Y-31711891D01*
X133961891Y-31878920D01*
X133961886Y-31878926D01*
X133826400Y-32072420D01*
X133826399Y-32072422D01*
X133726565Y-32286517D01*
X133726019Y-32288018D01*
X133725600Y-32288586D01*
X133724281Y-32291416D01*
X133723712Y-32291150D01*
X133684590Y-32344280D01*
X133619320Y-32369212D01*
X133550932Y-32354898D01*
X133501139Y-32305883D01*
X133485500Y-32245601D01*
X133485500Y-31882713D01*
X133485499Y-31882711D01*
X133475318Y-31831524D01*
X133475317Y-31831523D01*
X133436528Y-31773471D01*
X133378476Y-31734682D01*
X133378475Y-31734681D01*
X133327288Y-31724500D01*
X133327284Y-31724500D01*
X131592716Y-31724500D01*
X131592711Y-31724500D01*
X131541524Y-31734681D01*
X131541523Y-31734682D01*
X131483471Y-31773471D01*
X131444682Y-31831523D01*
X131444681Y-31831524D01*
X131434500Y-31882711D01*
X131434500Y-33617288D01*
X129707794Y-33617288D01*
X129776332Y-33397341D01*
X129835213Y-33076038D01*
X129854934Y-32749999D01*
X129835213Y-32423961D01*
X129776332Y-32102658D01*
X129679164Y-31790835D01*
X129679160Y-31790824D01*
X129545102Y-31492958D01*
X129545101Y-31492956D01*
X129398229Y-31250000D01*
X162669534Y-31250000D01*
X162689312Y-31400234D01*
X162689313Y-31400236D01*
X162746221Y-31537625D01*
X162747302Y-31540233D01*
X162839549Y-31660451D01*
X162959767Y-31752698D01*
X163099764Y-31810687D01*
X163173625Y-31820411D01*
X163249999Y-31830466D01*
X163250000Y-31830466D01*
X163250001Y-31830466D01*
X163326375Y-31820411D01*
X163400236Y-31810687D01*
X163540233Y-31752698D01*
X163660451Y-31660451D01*
X163752698Y-31540233D01*
X163810687Y-31400236D01*
X163830466Y-31250000D01*
X163810687Y-31099764D01*
X163752698Y-30959767D01*
X163660451Y-30839549D01*
X163540233Y-30747302D01*
X163540229Y-30747300D01*
X163400236Y-30689313D01*
X163400234Y-30689312D01*
X163250001Y-30669534D01*
X163249999Y-30669534D01*
X163099765Y-30689312D01*
X163099763Y-30689313D01*
X162959770Y-30747300D01*
X162959767Y-30747301D01*
X162959767Y-30747302D01*
X162839549Y-30839549D01*
X162781521Y-30915173D01*
X162747300Y-30959770D01*
X162689313Y-31099763D01*
X162689312Y-31099765D01*
X162669534Y-31249999D01*
X162669534Y-31250000D01*
X129398229Y-31250000D01*
X129376118Y-31213423D01*
X129376112Y-31213414D01*
X129228521Y-31025030D01*
X128085788Y-32167763D01*
X127985106Y-32026376D01*
X127833068Y-31881408D01*
X127730776Y-31815669D01*
X127917522Y-31628923D01*
X128116726Y-31628923D01*
X128156339Y-31711179D01*
X128227718Y-31768101D01*
X128294194Y-31783274D01*
X128339258Y-31783274D01*
X128405734Y-31768101D01*
X128477113Y-31711179D01*
X128516726Y-31628923D01*
X128516726Y-31537625D01*
X128477113Y-31455369D01*
X128405734Y-31398447D01*
X128339258Y-31383274D01*
X128294194Y-31383274D01*
X128227718Y-31398447D01*
X128156339Y-31455369D01*
X128116726Y-31537625D01*
X128116726Y-31628923D01*
X127917522Y-31628923D01*
X128874968Y-30671477D01*
X128874968Y-30671476D01*
X128686586Y-30523887D01*
X128615008Y-30480617D01*
X128567820Y-30429089D01*
X128555982Y-30360229D01*
X128583251Y-30295901D01*
X128640970Y-30256527D01*
X128679158Y-30250500D01*
X185720841Y-30250500D01*
X185787880Y-30270185D01*
G37*
%TD.AperFunction*%
%TD*%
M02*
