%TF.GenerationSoftware,KiCad,Pcbnew,7.0.5-7.0.5~ubuntu22.04.1*%
%TF.CreationDate,2023-06-06T15:21:38+02:00*%
%TF.ProjectId,sao_eprom_v2,73616f5f-6570-4726-9f6d-5f76322e6b69,rev?*%
%TF.SameCoordinates,Original*%
%TF.FileFunction,Paste,Top*%
%TF.FilePolarity,Positive*%
%FSLAX46Y46*%
G04 Gerber Fmt 4.6, Leading zero omitted, Abs format (unit mm)*
G04 Created by KiCad (PCBNEW 7.0.5-7.0.5~ubuntu22.04.1) date 2023-06-06 15:21:38*
%MOMM*%
%LPD*%
G01*
G04 APERTURE LIST*
G04 Aperture macros list*
%AMRoundRect*
0 Rectangle with rounded corners*
0 $1 Rounding radius*
0 $2 $3 $4 $5 $6 $7 $8 $9 X,Y pos of 4 corners*
0 Add a 4 corners polygon primitive as box body*
4,1,4,$2,$3,$4,$5,$6,$7,$8,$9,$2,$3,0*
0 Add four circle primitives for the rounded corners*
1,1,$1+$1,$2,$3*
1,1,$1+$1,$4,$5*
1,1,$1+$1,$6,$7*
1,1,$1+$1,$8,$9*
0 Add four rect primitives between the rounded corners*
20,1,$1+$1,$2,$3,$4,$5,0*
20,1,$1+$1,$4,$5,$6,$7,0*
20,1,$1+$1,$6,$7,$8,$9,0*
20,1,$1+$1,$8,$9,$2,$3,0*%
G04 Aperture macros list end*
%ADD10RoundRect,0.250000X0.300000X-0.300000X0.300000X0.300000X-0.300000X0.300000X-0.300000X-0.300000X0*%
%ADD11RoundRect,0.160000X-0.197500X-0.160000X0.197500X-0.160000X0.197500X0.160000X-0.197500X0.160000X0*%
%ADD12RoundRect,0.150000X-0.512500X-0.150000X0.512500X-0.150000X0.512500X0.150000X-0.512500X0.150000X0*%
%ADD13RoundRect,0.155000X0.212500X0.155000X-0.212500X0.155000X-0.212500X-0.155000X0.212500X-0.155000X0*%
%ADD14RoundRect,0.160000X0.160000X-0.197500X0.160000X0.197500X-0.160000X0.197500X-0.160000X-0.197500X0*%
%ADD15RoundRect,0.155000X0.155000X-0.212500X0.155000X0.212500X-0.155000X0.212500X-0.155000X-0.212500X0*%
%ADD16R,0.600000X0.500000*%
%ADD17RoundRect,0.112500X0.187500X0.112500X-0.187500X0.112500X-0.187500X-0.112500X0.187500X-0.112500X0*%
%ADD18RoundRect,0.100000X0.637500X0.100000X-0.637500X0.100000X-0.637500X-0.100000X0.637500X-0.100000X0*%
%ADD19RoundRect,0.155000X-0.212500X-0.155000X0.212500X-0.155000X0.212500X0.155000X-0.212500X0.155000X0*%
%ADD20RoundRect,0.155000X-0.155000X0.212500X-0.155000X-0.212500X0.155000X-0.212500X0.155000X0.212500X0*%
%ADD21RoundRect,0.150000X0.650000X0.150000X-0.650000X0.150000X-0.650000X-0.150000X0.650000X-0.150000X0*%
%ADD22RoundRect,0.160000X-0.160000X0.222500X-0.160000X-0.222500X0.160000X-0.222500X0.160000X0.222500X0*%
%ADD23RoundRect,0.249999X0.395001X0.395001X-0.395001X0.395001X-0.395001X-0.395001X0.395001X-0.395001X0*%
%ADD24RoundRect,0.050000X0.387500X0.050000X-0.387500X0.050000X-0.387500X-0.050000X0.387500X-0.050000X0*%
%ADD25RoundRect,0.050000X0.050000X0.387500X-0.050000X0.387500X-0.050000X-0.387500X0.050000X-0.387500X0*%
%ADD26RoundRect,0.237500X0.237500X-0.300000X0.237500X0.300000X-0.237500X0.300000X-0.237500X-0.300000X0*%
%ADD27RoundRect,0.250000X0.475000X-0.337500X0.475000X0.337500X-0.475000X0.337500X-0.475000X-0.337500X0*%
%ADD28RoundRect,0.150000X-0.825000X-0.150000X0.825000X-0.150000X0.825000X0.150000X-0.825000X0.150000X0*%
%ADD29RoundRect,0.100000X-0.637500X-0.100000X0.637500X-0.100000X0.637500X0.100000X-0.637500X0.100000X0*%
%ADD30R,1.240000X0.600000*%
%ADD31R,1.240000X0.300000*%
%ADD32R,1.400000X1.200000*%
G04 APERTURE END LIST*
D10*
%TO.C,D1*%
X155000000Y-51400000D03*
X155000000Y-48600000D03*
%TD*%
%TO.C,D3*%
X160000000Y-51400000D03*
X160000000Y-48600000D03*
%TD*%
D11*
%TO.C,R4*%
X128500000Y-66500000D03*
X129695000Y-66500000D03*
%TD*%
D12*
%TO.C,U8*%
X137462500Y-81200000D03*
X137462500Y-82150000D03*
X137462500Y-83100000D03*
X139737500Y-83100000D03*
X139737500Y-81200000D03*
%TD*%
D13*
%TO.C,C17*%
X147335000Y-64250000D03*
X146200000Y-64250000D03*
%TD*%
D14*
%TO.C,R14*%
X154000000Y-37200000D03*
X154000000Y-36005000D03*
%TD*%
D15*
%TO.C,C21*%
X141000000Y-68667500D03*
X141000000Y-67532500D03*
%TD*%
D16*
%TO.C,Q6*%
X145600000Y-48500000D03*
X145600000Y-49500000D03*
X146900000Y-49000000D03*
%TD*%
D14*
%TO.C,R6*%
X140000000Y-73695000D03*
X140000000Y-72500000D03*
%TD*%
D17*
%TO.C,D5*%
X150300000Y-32700000D03*
X148200000Y-32700000D03*
%TD*%
D18*
%TO.C,U6*%
X160475000Y-75650000D03*
X160475000Y-75000000D03*
X160475000Y-74350000D03*
X160475000Y-73700000D03*
X160475000Y-73050000D03*
X160475000Y-72400000D03*
X160475000Y-71750000D03*
X160475000Y-71100000D03*
X160475000Y-70450000D03*
X160475000Y-69800000D03*
X160475000Y-69150000D03*
X160475000Y-68500000D03*
X154750000Y-68500000D03*
X154750000Y-69150000D03*
X154750000Y-69800000D03*
X154750000Y-70450000D03*
X154750000Y-71100000D03*
X154750000Y-71750000D03*
X154750000Y-72400000D03*
X154750000Y-73050000D03*
X154750000Y-73700000D03*
X154750000Y-74350000D03*
X154750000Y-75000000D03*
X154750000Y-75650000D03*
%TD*%
D14*
%TO.C,R16*%
X140250000Y-41597500D03*
X140250000Y-40402500D03*
%TD*%
D19*
%TO.C,C20*%
X131865000Y-59850000D03*
X133000000Y-59850000D03*
%TD*%
D16*
%TO.C,Q2*%
X145600000Y-40500000D03*
X145600000Y-41500000D03*
X146900000Y-41000000D03*
%TD*%
D11*
%TO.C,R3*%
X128500000Y-57500000D03*
X129695000Y-57500000D03*
%TD*%
D20*
%TO.C,C18*%
X139550000Y-53665000D03*
X139550000Y-54800000D03*
%TD*%
D12*
%TO.C,U9*%
X155862500Y-35050000D03*
X155862500Y-36000000D03*
X155862500Y-36950000D03*
X158137500Y-36950000D03*
X158137500Y-35050000D03*
%TD*%
D21*
%TO.C,U1*%
X153100000Y-82905000D03*
X153100000Y-81635000D03*
X153100000Y-80365000D03*
X153100000Y-79095000D03*
X145900000Y-79095000D03*
X145900000Y-80365000D03*
X145900000Y-81635000D03*
X145900000Y-82905000D03*
%TD*%
D12*
%TO.C,U10*%
X147112500Y-35050000D03*
X147112500Y-36000000D03*
X147112500Y-36950000D03*
X149387500Y-36950000D03*
X149387500Y-35050000D03*
%TD*%
D15*
%TO.C,C4*%
X135000000Y-68667500D03*
X135000000Y-67532500D03*
%TD*%
D22*
%TO.C,L2*%
X155500000Y-32277500D03*
X155500000Y-33422500D03*
%TD*%
D23*
%TO.C,U2*%
X140550000Y-61900000D03*
X140550000Y-60300000D03*
X138950000Y-61900000D03*
X138950000Y-60300000D03*
D24*
X143187500Y-63700000D03*
X143187500Y-63300000D03*
X143187500Y-62900000D03*
X143187500Y-62500000D03*
X143187500Y-62100000D03*
X143187500Y-61700000D03*
X143187500Y-61300000D03*
X143187500Y-60900000D03*
X143187500Y-60500000D03*
X143187500Y-60100000D03*
X143187500Y-59700000D03*
X143187500Y-59300000D03*
X143187500Y-58900000D03*
X143187500Y-58500000D03*
D25*
X142350000Y-57662500D03*
X141950000Y-57662500D03*
X141550000Y-57662500D03*
X141150000Y-57662500D03*
X140750000Y-57662500D03*
X140350000Y-57662500D03*
X139950000Y-57662500D03*
X139550000Y-57662500D03*
X139150000Y-57662500D03*
X138750000Y-57662500D03*
X138350000Y-57662500D03*
X137950000Y-57662500D03*
X137550000Y-57662500D03*
X137150000Y-57662500D03*
D24*
X136312500Y-58500000D03*
X136312500Y-58900000D03*
X136312500Y-59300000D03*
X136312500Y-59700000D03*
X136312500Y-60100000D03*
X136312500Y-60500000D03*
X136312500Y-60900000D03*
X136312500Y-61300000D03*
X136312500Y-61700000D03*
X136312500Y-62100000D03*
X136312500Y-62500000D03*
X136312500Y-62900000D03*
X136312500Y-63300000D03*
X136312500Y-63700000D03*
D25*
X137150000Y-64537500D03*
X137550000Y-64537500D03*
X137950000Y-64537500D03*
X138350000Y-64537500D03*
X138750000Y-64537500D03*
X139150000Y-64537500D03*
X139550000Y-64537500D03*
X139950000Y-64537500D03*
X140350000Y-64537500D03*
X140750000Y-64537500D03*
X141150000Y-64537500D03*
X141550000Y-64537500D03*
X141950000Y-64537500D03*
X142350000Y-64537500D03*
%TD*%
D26*
%TO.C,C9*%
X160750000Y-34087500D03*
X160750000Y-32362500D03*
%TD*%
D27*
%TO.C,C7*%
X141850000Y-81987500D03*
X141850000Y-79912500D03*
%TD*%
D26*
%TO.C,C11*%
X152000000Y-34087500D03*
X152000000Y-32362500D03*
%TD*%
D11*
%TO.C,R5*%
X128500000Y-65500000D03*
X129695000Y-65500000D03*
%TD*%
D16*
%TO.C,Q1*%
X141600000Y-40500000D03*
X141600000Y-41500000D03*
X142900000Y-41000000D03*
%TD*%
D15*
%TO.C,C23*%
X147000000Y-53567500D03*
X147000000Y-52432500D03*
%TD*%
D14*
%TO.C,R7*%
X141000000Y-73695000D03*
X141000000Y-72500000D03*
%TD*%
D28*
%TO.C,U3*%
X127775000Y-48095000D03*
X127775000Y-49365000D03*
X127775000Y-50635000D03*
X127775000Y-51905000D03*
X132725000Y-51905000D03*
X132725000Y-50635000D03*
X132725000Y-49365000D03*
X132725000Y-48095000D03*
%TD*%
D13*
%TO.C,C16*%
X147334842Y-60350000D03*
X146199842Y-60350000D03*
%TD*%
D27*
%TO.C,C12*%
X136100000Y-79437500D03*
X136100000Y-77362500D03*
%TD*%
D14*
%TO.C,R2*%
X144250000Y-49597500D03*
X144250000Y-48402500D03*
%TD*%
D20*
%TO.C,C15*%
X143775000Y-82207500D03*
X143775000Y-83342500D03*
%TD*%
D29*
%TO.C,U7*%
X154750000Y-40000000D03*
X154750000Y-40650000D03*
X154750000Y-41300000D03*
X154750000Y-41950000D03*
X154750000Y-42600000D03*
X154750000Y-43250000D03*
X154750000Y-43900000D03*
X154750000Y-44550000D03*
X154750000Y-45200000D03*
X154750000Y-45850000D03*
X160475000Y-45850000D03*
X160475000Y-45200000D03*
X160475000Y-44550000D03*
X160475000Y-43900000D03*
X160475000Y-43250000D03*
X160475000Y-42600000D03*
X160475000Y-41950000D03*
X160475000Y-41300000D03*
X160475000Y-40650000D03*
X160475000Y-40000000D03*
%TD*%
D16*
%TO.C,Q3*%
X141600000Y-44500000D03*
X141600000Y-45500000D03*
X142900000Y-45000000D03*
%TD*%
D19*
%TO.C,C19*%
X131865000Y-63950000D03*
X133000000Y-63950000D03*
%TD*%
D22*
%TO.C,L3*%
X146750000Y-32277500D03*
X146750000Y-33422500D03*
%TD*%
D27*
%TO.C,C13*%
X138100000Y-79437500D03*
X138100000Y-77362500D03*
%TD*%
D14*
%TO.C,R12*%
X154000000Y-33447500D03*
X154000000Y-32252500D03*
%TD*%
D11*
%TO.C,R11*%
X139702500Y-78500000D03*
X140897500Y-78500000D03*
%TD*%
%TO.C,R10*%
X139702500Y-77150000D03*
X140897500Y-77150000D03*
%TD*%
D14*
%TO.C,R15*%
X145250000Y-37197500D03*
X145250000Y-36002500D03*
%TD*%
D17*
%TO.C,D4*%
X159050000Y-32700000D03*
X156950000Y-32700000D03*
%TD*%
D22*
%TO.C,L1*%
X135600000Y-82177500D03*
X135600000Y-83322500D03*
%TD*%
D13*
%TO.C,C14*%
X132750000Y-46500000D03*
X131615000Y-46500000D03*
%TD*%
D15*
%TO.C,C3*%
X136000000Y-68667500D03*
X136000000Y-67532500D03*
%TD*%
D29*
%TO.C,U4*%
X154750000Y-54500000D03*
X154750000Y-55150000D03*
X154750000Y-55800000D03*
X154750000Y-56450000D03*
X154750000Y-57100000D03*
X154750000Y-57750000D03*
X154750000Y-58400000D03*
X154750000Y-59050000D03*
X154750000Y-59700000D03*
X154750000Y-60350000D03*
X160475000Y-60350000D03*
X160475000Y-59700000D03*
X160475000Y-59050000D03*
X160475000Y-58400000D03*
X160475000Y-57750000D03*
X160475000Y-57100000D03*
X160475000Y-56450000D03*
X160475000Y-55800000D03*
X160475000Y-55150000D03*
X160475000Y-54500000D03*
%TD*%
D26*
%TO.C,C8*%
X160750000Y-37412500D03*
X160750000Y-35687500D03*
%TD*%
D15*
%TO.C,C5*%
X142350000Y-78197500D03*
X142350000Y-77062500D03*
%TD*%
%TO.C,C2*%
X139000000Y-68667500D03*
X139000000Y-67532500D03*
%TD*%
D16*
%TO.C,Q4*%
X145600000Y-44500000D03*
X145600000Y-45500000D03*
X146900000Y-45000000D03*
%TD*%
D14*
%TO.C,R18*%
X140250000Y-45597500D03*
X140250000Y-44402500D03*
%TD*%
D10*
%TO.C,D2*%
X157500000Y-51400000D03*
X157500000Y-48600000D03*
%TD*%
D26*
%TO.C,C10*%
X152000000Y-37412500D03*
X152000000Y-35687500D03*
%TD*%
D30*
%TO.C,J2*%
X132250000Y-71550000D03*
X132250000Y-72350000D03*
D31*
X132250000Y-73500000D03*
X132250000Y-74500000D03*
X132250000Y-75000000D03*
X132250000Y-76000000D03*
D30*
X132250000Y-77150000D03*
X132250000Y-77950000D03*
X132250000Y-77950000D03*
X132250000Y-77150000D03*
D31*
X132250000Y-76500000D03*
X132250000Y-75500000D03*
X132250000Y-74000000D03*
X132250000Y-73000000D03*
D30*
X132250000Y-72350000D03*
X132250000Y-71550000D03*
%TD*%
D19*
%TO.C,C6*%
X141282500Y-83400000D03*
X142417500Y-83400000D03*
%TD*%
D14*
%TO.C,R17*%
X144250000Y-41597500D03*
X144250000Y-40402500D03*
%TD*%
%TO.C,R9*%
X138000000Y-68697500D03*
X138000000Y-67502500D03*
%TD*%
D16*
%TO.C,Q5*%
X141600000Y-48500000D03*
X141600000Y-49500000D03*
X142900000Y-49000000D03*
%TD*%
D15*
%TO.C,C1*%
X140000000Y-68667500D03*
X140000000Y-67532500D03*
%TD*%
D14*
%TO.C,R1*%
X140250000Y-49597500D03*
X140250000Y-48402500D03*
%TD*%
D20*
%TO.C,C22*%
X138550000Y-53665000D03*
X138550000Y-54800000D03*
%TD*%
D32*
%TO.C,X1*%
X145100000Y-52150000D03*
X142900000Y-52150000D03*
X142900000Y-53850000D03*
X145100000Y-53850000D03*
%TD*%
D14*
%TO.C,R19*%
X144250000Y-45597500D03*
X144250000Y-44402500D03*
%TD*%
%TO.C,R8*%
X137000000Y-68697500D03*
X137000000Y-67502500D03*
%TD*%
%TO.C,R13*%
X145250000Y-33447500D03*
X145250000Y-32252500D03*
%TD*%
M02*
