%TF.GenerationSoftware,KiCad,Pcbnew,7.0.5-7.0.5~ubuntu20.04.1*%
%TF.CreationDate,2023-07-06T19:43:48+02:00*%
%TF.ProjectId,sao_keyboard,73616f5f-6b65-4796-926f-6172642e6b69,rev?*%
%TF.SameCoordinates,Original*%
%TF.FileFunction,Soldermask,Top*%
%TF.FilePolarity,Negative*%
%FSLAX46Y46*%
G04 Gerber Fmt 4.6, Leading zero omitted, Abs format (unit mm)*
G04 Created by KiCad (PCBNEW 7.0.5-7.0.5~ubuntu20.04.1) date 2023-07-06 19:43:48*
%MOMM*%
%LPD*%
G01*
G04 APERTURE LIST*
G04 Aperture macros list*
%AMFreePoly0*
4,1,56,1.250000,1.250000,1.250000,-7.250000,1.500000,-7.500000,2.250000,-7.500000,2.500000,-7.750000,2.500000,-13.250000,2.250000,-13.500000,-1.000000,-13.500000,-1.250000,-13.250000,-1.250000,-2.975000,-0.625000,-2.975000,-0.600000,-3.000000,-0.400000,-3.000000,-0.375000,-3.025000,-0.375000,-3.225000,-0.350000,-3.250000,0.350000,-3.250000,0.375000,-3.225000,0.375000,-3.025000,0.400000,-3.000000,
0.600000,-3.000000,0.625000,-2.975000,0.625000,-2.775000,0.600000,-2.750000,0.400000,-2.750000,0.375000,-2.775000,0.375000,-2.975000,0.350000,-3.000000,-0.350000,-3.000000,-0.375000,-2.975000,-0.375000,-1.775000,-0.350000,-1.750000,0.350000,-1.750000,0.375000,-1.775000,0.375000,-1.975000,0.400000,-2.000000,0.600000,-2.000000,0.625000,-1.975000,0.625000,-1.775000,0.600000,-1.750000,
0.400000,-1.750000,0.375000,-1.725000,0.375000,-1.525000,0.350000,-1.500000,-0.350000,-1.500000,-0.375000,-1.525000,-0.375000,-1.725000,-0.400000,-1.750000,-0.600000,-1.750000,-0.625000,-1.775000,-0.625000,-2.975000,-1.250000,-2.975000,-1.250000,1.250000,-1.000000,1.500000,1.000000,1.500000,1.250000,1.250000,1.250000,1.250000,$1*%
%AMFreePoly1*
4,1,111,1.000000,1.250000,1.000000,-6.750000,0.750000,-7.000000,-0.750000,-7.000000,-1.000000,-6.750000,-1.000000,-4.975000,-0.625000,-4.975000,-0.600000,-5.000000,-0.400000,-5.000000,-0.375000,-5.025000,-0.375000,-5.475000,-0.350000,-5.500000,-0.150000,-5.500000,-0.125000,-5.475000,-0.125000,-5.025000,-0.100000,-5.000000,0.100000,-5.000000,0.125000,-5.025000,0.125000,-5.475000,0.150000,-5.500000,
0.350000,-5.500000,0.375000,-5.475000,0.375000,-5.025000,0.400000,-5.000000,0.600000,-5.000000,0.625000,-4.975000,0.625000,-4.775000,0.600000,-4.750000,0.400000,-4.750000,0.375000,-4.725000,0.375000,-4.525000,0.400000,-4.500000,0.600000,-4.500000,0.625000,-4.475000,0.625000,-4.275000,0.600000,-4.250000,0.400000,-4.250000,0.375000,-4.225000,0.375000,-3.775000,0.350000,-3.750000,
0.150000,-3.750000,0.125000,-3.775000,0.125000,-4.225000,0.100000,-4.250000,-0.100000,-4.250000,-0.125000,-4.225000,-0.125000,-3.775000,-0.150000,-3.750000,-0.350000,-3.750000,-0.375000,-3.775000,-0.375000,-4.225000,-0.400000,-4.250000,-0.600000,-4.250000,-0.625000,-4.275000,-0.625000,-4.475000,-0.600000,-4.500000,-0.400000,-4.500000,-0.375000,-4.525000,-0.375000,-4.725000,-0.400000,-4.750000,
-0.600000,-4.750000,-0.625000,-4.775000,-0.625000,-4.975000,-1.000000,-4.975000,-1.000000,-2.975000,-0.625000,-2.975000,-0.600000,-3.000000,-0.400000,-3.000000,-0.375000,-3.025000,-0.375000,-3.225000,-0.350000,-3.250000,0.350000,-3.250000,0.375000,-3.225000,0.375000,-3.025000,0.400000,-3.000000,0.600000,-3.000000,0.625000,-2.975000,0.625000,-2.775000,0.600000,-2.750000,0.400000,-2.750000,
0.375000,-2.775000,0.375000,-2.975000,0.350000,-3.000000,-0.350000,-3.000000,-0.375000,-2.975000,-0.375000,-1.775000,-0.350000,-1.750000,0.350000,-1.750000,0.375000,-1.775000,0.375000,-1.975000,0.400000,-2.000000,0.600000,-2.000000,0.625000,-1.975000,0.625000,-1.775000,0.600000,-1.750000,0.400000,-1.750000,0.375000,-1.725000,0.375000,-1.525000,0.350000,-1.500000,-0.350000,-1.500000,
-0.375000,-1.525000,-0.375000,-1.725000,-0.400000,-1.750000,-0.600000,-1.750000,-0.625000,-1.775000,-0.625000,-2.975000,-1.000000,-2.975000,-1.000000,1.250000,-0.750000,1.500000,0.750000,1.500000,1.000000,1.250000,1.000000,1.250000,$1*%
%AMFreePoly2*
4,1,46,1.000000,1.250000,1.000000,-7.250000,1.250000,-7.500000,2.000000,-7.500000,2.250000,-7.750000,2.250000,-13.250000,2.000000,-13.500000,-2.000000,-13.500000,-2.250000,-13.250000,-2.250000,-7.750000,-2.000000,-7.500000,-1.250000,-7.500000,-1.000000,-7.250000,-1.000000,-3.225000,-0.625000,-3.225000,-0.600000,-3.250000,0.350000,-3.250000,0.375000,-3.225000,0.375000,-3.025000,0.350000,-3.000000,
-0.350000,-3.000000,-0.375000,-2.975000,0.375000,-2.975000,0.400000,-3.000000,0.600000,-3.000000,0.625000,-2.975000,0.625000,-1.775000,0.600000,-1.750000,0.400000,-1.750000,0.375000,-1.775000,0.375000,-2.975000,-0.375000,-2.975000,-0.375000,-1.775000,-0.350000,-1.750000,0.350000,-1.750000,0.375000,-1.725000,0.375000,-1.525000,0.350000,-1.500000,-0.600000,-1.500000,-0.625000,-1.525000,
-0.625000,-3.225000,-1.000000,-3.225000,-1.000000,1.250000,-0.750000,1.500000,0.750000,1.500000,1.000000,1.250000,1.000000,1.250000,$1*%
%AMFreePoly3*
4,1,97,1.000000,1.250000,1.000000,-6.750000,0.750000,-7.000000,-0.750000,-7.000000,-1.000000,-6.750000,-1.000000,-4.975000,-0.625000,-4.975000,-0.600000,-5.000000,-0.400000,-5.000000,-0.375000,-5.025000,-0.375000,-5.475000,-0.350000,-5.500000,-0.150000,-5.500000,-0.125000,-5.475000,-0.125000,-5.025000,-0.100000,-5.000000,0.100000,-5.000000,0.125000,-5.025000,0.125000,-5.475000,0.150000,-5.500000,
0.350000,-5.500000,0.375000,-5.475000,0.375000,-5.025000,0.400000,-5.000000,0.600000,-5.000000,0.625000,-4.975000,0.625000,-4.775000,0.600000,-4.750000,0.400000,-4.750000,0.375000,-4.725000,0.375000,-4.525000,0.400000,-4.500000,0.600000,-4.500000,0.625000,-4.475000,0.625000,-4.275000,0.600000,-4.250000,0.400000,-4.250000,0.375000,-4.225000,0.375000,-3.775000,0.350000,-3.750000,
0.150000,-3.750000,0.125000,-3.775000,0.125000,-4.225000,0.100000,-4.250000,-0.100000,-4.250000,-0.125000,-4.225000,-0.125000,-3.775000,-0.150000,-3.750000,-0.350000,-3.750000,-0.375000,-3.775000,-0.375000,-4.225000,-0.400000,-4.250000,-0.600000,-4.250000,-0.625000,-4.275000,-0.625000,-4.475000,-0.600000,-4.500000,-0.400000,-4.500000,-0.375000,-4.525000,-0.375000,-4.725000,-0.400000,-4.750000,
-0.600000,-4.750000,-0.625000,-4.775000,-0.625000,-4.975000,-1.000000,-4.975000,-1.000000,-3.225000,-0.625000,-3.225000,-0.600000,-3.250000,0.350000,-3.250000,0.375000,-3.225000,0.375000,-3.025000,0.350000,-3.000000,-0.350000,-3.000000,-0.375000,-2.975000,0.375000,-2.975000,0.400000,-3.000000,0.600000,-3.000000,0.625000,-2.975000,0.625000,-1.775000,0.600000,-1.750000,0.400000,-1.750000,
0.375000,-1.775000,0.375000,-2.975000,-0.375000,-2.975000,-0.375000,-1.775000,-0.350000,-1.750000,0.350000,-1.750000,0.375000,-1.725000,0.375000,-1.525000,0.350000,-1.500000,-0.600000,-1.500000,-0.625000,-1.525000,-0.625000,-3.225000,-1.000000,-3.225000,-1.000000,1.250000,-0.750000,1.500000,0.750000,1.500000,1.000000,1.250000,1.000000,1.250000,$1*%
%AMFreePoly4*
4,1,40,1.250000,1.250000,1.250000,-13.250000,1.000000,-13.500000,-2.250000,-13.500000,-2.500000,-13.250000,-2.500000,-7.750000,-2.250000,-7.500000,-1.500000,-7.500000,-1.250000,-7.250000,-1.250000,-3.225000,-0.625000,-3.225000,-0.600000,-3.250000,0.600000,-3.250000,0.625000,-3.225000,0.625000,-3.025000,0.600000,-3.000000,-0.350000,-3.000000,-0.375000,-2.975000,-0.375000,-2.525000,-0.350000,-2.500000,
0.100000,-2.500000,0.125000,-2.475000,0.125000,-2.275000,0.100000,-2.250000,-0.350000,-2.250000,-0.375000,-2.225000,-0.375000,-1.775000,-0.350000,-1.750000,0.600000,-1.750000,0.625000,-1.725000,0.625000,-1.525000,0.600000,-1.500000,-0.600000,-1.500000,-0.625000,-1.525000,-0.625000,-3.225000,-1.250000,-3.225000,-1.250000,1.250000,-1.000000,1.500000,1.000000,1.500000,1.250000,1.250000,
1.250000,1.250000,$1*%
%AMFreePoly5*
4,1,36,1.250000,1.250000,1.250000,-7.250000,1.500000,-7.500000,2.250000,-7.500000,2.500000,-7.750000,2.500000,-13.250000,2.250000,-13.500000,-1.000000,-13.500000,-1.250000,-13.250000,-1.250000,-3.225000,-0.625000,-3.225000,-0.600000,-3.250000,-0.400000,-3.250000,-0.375000,-3.225000,-0.375000,-2.525000,-0.350000,-2.500000,0.100000,-2.500000,0.125000,-2.475000,0.125000,-2.275000,0.100000,-2.250000,
-0.350000,-2.250000,-0.375000,-2.225000,-0.375000,-1.775000,-0.350000,-1.750000,0.600000,-1.750000,0.625000,-1.725000,0.625000,-1.525000,0.600000,-1.500000,-0.600000,-1.500000,-0.625000,-1.525000,-0.625000,-3.225000,-1.250000,-3.225000,-1.250000,1.250000,-1.000000,1.500000,1.000000,1.500000,1.250000,1.250000,1.250000,1.250000,$1*%
%AMFreePoly6*
4,1,91,1.000000,1.250000,1.000000,-6.750000,0.750000,-7.000000,-0.750000,-7.000000,-1.000000,-6.750000,-1.000000,-4.975000,-0.625000,-4.975000,-0.600000,-5.000000,-0.400000,-5.000000,-0.375000,-5.025000,-0.375000,-5.475000,-0.350000,-5.500000,-0.150000,-5.500000,-0.125000,-5.475000,-0.125000,-5.025000,-0.100000,-5.000000,0.100000,-5.000000,0.125000,-5.025000,0.125000,-5.475000,0.150000,-5.500000,
0.350000,-5.500000,0.375000,-5.475000,0.375000,-5.025000,0.400000,-5.000000,0.600000,-5.000000,0.625000,-4.975000,0.625000,-4.775000,0.600000,-4.750000,0.400000,-4.750000,0.375000,-4.725000,0.375000,-4.525000,0.400000,-4.500000,0.600000,-4.500000,0.625000,-4.475000,0.625000,-4.275000,0.600000,-4.250000,0.400000,-4.250000,0.375000,-4.225000,0.375000,-3.775000,0.350000,-3.750000,
0.150000,-3.750000,0.125000,-3.775000,0.125000,-4.225000,0.100000,-4.250000,-0.100000,-4.250000,-0.125000,-4.225000,-0.125000,-3.775000,-0.150000,-3.750000,-0.350000,-3.750000,-0.375000,-3.775000,-0.375000,-4.225000,-0.400000,-4.250000,-0.600000,-4.250000,-0.625000,-4.275000,-0.625000,-4.475000,-0.600000,-4.500000,-0.400000,-4.500000,-0.375000,-4.525000,-0.375000,-4.725000,-0.400000,-4.750000,
-0.600000,-4.750000,-0.625000,-4.775000,-0.625000,-4.975000,-1.000000,-4.975000,-1.000000,-3.225000,-0.625000,-3.225000,-0.600000,-3.250000,-0.400000,-3.250000,-0.375000,-3.225000,-0.375000,-2.525000,-0.350000,-2.500000,0.100000,-2.500000,0.125000,-2.475000,0.125000,-2.275000,0.100000,-2.250000,-0.350000,-2.250000,-0.375000,-2.225000,-0.375000,-1.775000,-0.350000,-1.750000,0.600000,-1.750000,
0.625000,-1.725000,0.625000,-1.525000,0.600000,-1.500000,-0.600000,-1.500000,-0.625000,-1.525000,-0.625000,-3.225000,-1.000000,-3.225000,-1.000000,1.250000,-0.750000,1.500000,0.750000,1.500000,1.000000,1.250000,1.000000,1.250000,$1*%
%AMFreePoly7*
4,1,56,1.000000,1.250000,1.000000,-7.250000,1.250000,-7.500000,2.000000,-7.500000,2.250000,-7.750000,2.250000,-13.250000,2.000000,-13.500000,-2.000000,-13.500000,-2.250000,-13.250000,-2.250000,-7.750000,-2.000000,-7.500000,-1.250000,-7.500000,-1.000000,-7.250000,-1.000000,-2.975000,-0.625000,-2.975000,-0.600000,-3.000000,-0.400000,-3.000000,-0.375000,-3.025000,-0.375000,-3.225000,-0.350000,-3.250000,
0.350000,-3.250000,0.375000,-3.225000,0.375000,-3.025000,0.400000,-3.000000,0.600000,-3.000000,0.625000,-2.975000,0.625000,-2.275000,0.600000,-2.250000,0.150000,-2.250000,0.125000,-2.275000,0.125000,-2.475000,0.150000,-2.500000,0.350000,-2.500000,0.375000,-2.525000,0.375000,-2.975000,0.350000,-3.000000,-0.350000,-3.000000,-0.375000,-2.975000,-0.375000,-1.775000,-0.350000,-1.750000,
0.600000,-1.750000,0.625000,-1.725000,0.625000,-1.525000,0.600000,-1.500000,-0.350000,-1.500000,-0.375000,-1.525000,-0.375000,-1.725000,-0.400000,-1.750000,-0.600000,-1.750000,-0.625000,-1.775000,-0.625000,-2.975000,-1.000000,-2.975000,-1.000000,1.250000,-0.750000,1.500000,0.750000,1.500000,1.000000,1.250000,1.000000,1.250000,$1*%
%AMFreePoly8*
4,1,107,1.000000,1.250000,1.000000,-6.750000,0.750000,-7.000000,-0.750000,-7.000000,-1.000000,-6.750000,-1.000000,-4.975000,-0.625000,-4.975000,-0.600000,-5.000000,-0.400000,-5.000000,-0.375000,-5.025000,-0.375000,-5.475000,-0.350000,-5.500000,-0.150000,-5.500000,-0.125000,-5.475000,-0.125000,-5.025000,-0.100000,-5.000000,0.100000,-5.000000,0.125000,-5.025000,0.125000,-5.475000,0.150000,-5.500000,
0.350000,-5.500000,0.375000,-5.475000,0.375000,-5.025000,0.400000,-5.000000,0.600000,-5.000000,0.625000,-4.975000,0.625000,-4.775000,0.600000,-4.750000,0.400000,-4.750000,0.375000,-4.725000,0.375000,-4.525000,0.400000,-4.500000,0.600000,-4.500000,0.625000,-4.475000,0.625000,-4.275000,0.600000,-4.250000,0.400000,-4.250000,0.375000,-4.225000,0.375000,-3.775000,0.350000,-3.750000,
0.150000,-3.750000,0.125000,-3.775000,0.125000,-4.225000,0.100000,-4.250000,-0.100000,-4.250000,-0.125000,-4.225000,-0.125000,-3.775000,-0.150000,-3.750000,-0.350000,-3.750000,-0.375000,-3.775000,-0.375000,-4.225000,-0.400000,-4.250000,-0.600000,-4.250000,-0.625000,-4.275000,-0.625000,-4.475000,-0.600000,-4.500000,-0.400000,-4.500000,-0.375000,-4.525000,-0.375000,-4.725000,-0.400000,-4.750000,
-0.600000,-4.750000,-0.625000,-4.775000,-0.625000,-4.975000,-1.000000,-4.975000,-1.000000,-2.975000,-0.625000,-2.975000,-0.600000,-3.000000,-0.400000,-3.000000,-0.375000,-3.025000,-0.375000,-3.225000,-0.350000,-3.250000,0.350000,-3.250000,0.375000,-3.225000,0.375000,-3.025000,0.400000,-3.000000,0.600000,-3.000000,0.625000,-2.975000,0.625000,-2.275000,0.600000,-2.250000,0.150000,-2.250000,
0.125000,-2.275000,0.125000,-2.475000,0.150000,-2.500000,0.350000,-2.500000,0.375000,-2.525000,0.375000,-2.975000,0.350000,-3.000000,-0.350000,-3.000000,-0.375000,-2.975000,-0.375000,-1.775000,-0.350000,-1.750000,0.600000,-1.750000,0.625000,-1.725000,0.625000,-1.525000,0.600000,-1.500000,-0.350000,-1.500000,-0.375000,-1.525000,-0.375000,-1.725000,-0.400000,-1.750000,-0.600000,-1.750000,
-0.625000,-1.775000,-0.625000,-2.975000,-1.000000,-2.975000,-1.000000,1.250000,-0.750000,1.500000,0.750000,1.500000,1.000000,1.250000,1.000000,1.250000,$1*%
%AMFreePoly9*
4,1,55,1.000000,1.250000,1.000000,-7.250000,1.250000,-7.500000,2.000000,-7.500000,2.250000,-7.750000,2.250000,-13.250000,2.000000,-13.500000,-2.000000,-13.500000,-2.250000,-13.250000,-2.250000,-7.750000,-2.000000,-7.500000,-1.250000,-7.500000,-1.000000,-7.250000,-1.000000,-3.225000,-0.625000,-3.225000,-0.600000,-3.250000,-0.400000,-3.250000,-0.375000,-3.225000,-0.375000,-2.525000,-0.350000,-2.500000,
0.350000,-2.500000,0.375000,-2.525000,0.375000,-3.225000,0.400000,-3.250000,0.600000,-3.250000,0.625000,-3.225000,0.625000,-1.775000,0.600000,-1.750000,0.400000,-1.750000,0.375000,-1.775000,0.375000,-2.225000,0.350000,-2.250000,-0.350000,-2.250000,-0.375000,-2.225000,-0.375000,-1.775000,-0.400000,-1.750000,-0.600000,-1.750000,-0.625000,-1.775000,-0.625000,-3.225000,-1.000000,-3.225000,
-1.000000,-1.725000,-0.375000,-1.725000,-0.350000,-1.750000,0.350000,-1.750000,0.375000,-1.725000,0.375000,-1.525000,0.350000,-1.500000,-0.350000,-1.500000,-0.375000,-1.525000,-0.375000,-1.725000,-1.000000,-1.725000,-1.000000,1.250000,-0.750000,1.500000,0.750000,1.500000,1.000000,1.250000,1.000000,1.250000,$1*%
%AMFreePoly10*
4,1,106,1.000000,1.250000,1.000000,-6.750000,0.750000,-7.000000,-0.750000,-7.000000,-1.000000,-6.750000,-1.000000,-4.975000,-0.625000,-4.975000,-0.600000,-5.000000,-0.400000,-5.000000,-0.375000,-5.025000,-0.375000,-5.475000,-0.350000,-5.500000,-0.150000,-5.500000,-0.125000,-5.475000,-0.125000,-5.025000,-0.100000,-5.000000,0.100000,-5.000000,0.125000,-5.025000,0.125000,-5.475000,0.150000,-5.500000,
0.350000,-5.500000,0.375000,-5.475000,0.375000,-5.025000,0.400000,-5.000000,0.600000,-5.000000,0.625000,-4.975000,0.625000,-4.775000,0.600000,-4.750000,0.400000,-4.750000,0.375000,-4.725000,0.375000,-4.525000,0.400000,-4.500000,0.600000,-4.500000,0.625000,-4.475000,0.625000,-4.275000,0.600000,-4.250000,0.400000,-4.250000,0.375000,-4.225000,0.375000,-3.775000,0.350000,-3.750000,
0.150000,-3.750000,0.125000,-3.775000,0.125000,-4.225000,0.100000,-4.250000,-0.100000,-4.250000,-0.125000,-4.225000,-0.125000,-3.775000,-0.150000,-3.750000,-0.350000,-3.750000,-0.375000,-3.775000,-0.375000,-4.225000,-0.400000,-4.250000,-0.600000,-4.250000,-0.625000,-4.275000,-0.625000,-4.475000,-0.600000,-4.500000,-0.400000,-4.500000,-0.375000,-4.525000,-0.375000,-4.725000,-0.400000,-4.750000,
-0.600000,-4.750000,-0.625000,-4.775000,-0.625000,-4.975000,-1.000000,-4.975000,-1.000000,-3.225000,-0.625000,-3.225000,-0.600000,-3.250000,-0.400000,-3.250000,-0.375000,-3.225000,-0.375000,-2.525000,-0.350000,-2.500000,0.350000,-2.500000,0.375000,-2.525000,0.375000,-3.225000,0.400000,-3.250000,0.600000,-3.250000,0.625000,-3.225000,0.625000,-1.775000,0.600000,-1.750000,0.400000,-1.750000,
0.375000,-1.775000,0.375000,-2.225000,0.350000,-2.250000,-0.350000,-2.250000,-0.375000,-2.225000,-0.375000,-1.775000,-0.400000,-1.750000,-0.600000,-1.750000,-0.625000,-1.775000,-0.625000,-3.225000,-1.000000,-3.225000,-1.000000,-1.725000,-0.375000,-1.725000,-0.350000,-1.750000,0.350000,-1.750000,0.375000,-1.725000,0.375000,-1.525000,0.350000,-1.500000,-0.350000,-1.500000,-0.375000,-1.525000,
-0.375000,-1.725000,-1.000000,-1.725000,-1.000000,1.250000,-0.750000,1.500000,0.750000,1.500000,1.000000,1.250000,1.000000,1.250000,$1*%
%AMFreePoly11*
4,1,60,1.250000,1.250000,1.250000,-13.250000,1.000000,-13.500000,-2.250000,-13.500000,-2.500000,-13.250000,-2.500000,-7.750000,-2.250000,-7.500000,-1.500000,-7.500000,-1.250000,-7.250000,-1.250000,-3.225000,-0.625000,-3.225000,-0.600000,-3.250000,0.350000,-3.250000,0.375000,-3.225000,0.375000,-3.025000,0.350000,-3.000000,-0.350000,-3.000000,-0.375000,-2.975000,0.375000,-2.975000,0.400000,-3.000000,
0.600000,-3.000000,0.625000,-2.975000,0.625000,-2.525000,0.600000,-2.500000,0.400000,-2.500000,0.375000,-2.525000,0.375000,-2.975000,-0.375000,-2.975000,-0.375000,-2.525000,-0.350000,-2.500000,0.350000,-2.500000,0.375000,-2.475000,0.375000,-2.275000,0.350000,-2.250000,-0.350000,-2.250000,-0.375000,-2.225000,0.375000,-2.225000,0.400000,-2.250000,0.600000,-2.250000,0.625000,-2.225000,
0.625000,-1.775000,0.600000,-1.750000,0.400000,-1.750000,0.375000,-1.775000,0.375000,-2.225000,-0.375000,-2.225000,-0.375000,-1.775000,-0.350000,-1.750000,0.350000,-1.750000,0.375000,-1.725000,0.375000,-1.525000,0.350000,-1.500000,-0.600000,-1.500000,-0.625000,-1.525000,-0.625000,-3.225000,-1.250000,-3.225000,-1.250000,1.250000,-1.000000,1.500000,1.000000,1.500000,1.250000,1.250000,
1.250000,1.250000,$1*%
G04 Aperture macros list end*
%ADD10R,1.700000X1.700000*%
%ADD11O,1.700000X1.700000*%
%ADD12FreePoly0,0.000000*%
%ADD13FreePoly1,0.000000*%
%ADD14FreePoly2,0.000000*%
%ADD15FreePoly3,0.000000*%
%ADD16FreePoly4,0.000000*%
%ADD17FreePoly5,0.000000*%
%ADD18FreePoly6,0.000000*%
%ADD19FreePoly7,0.000000*%
%ADD20FreePoly8,0.000000*%
%ADD21FreePoly9,0.000000*%
%ADD22FreePoly10,0.000000*%
%ADD23FreePoly11,0.000000*%
%ADD24R,1.500000X0.900000*%
%ADD25C,0.700000*%
%ADD26C,4.400000*%
G04 APERTURE END LIST*
%TO.C,J2*%
G36*
X131625000Y-89775000D02*
G01*
X131625000Y-90975000D01*
X131600000Y-91000000D01*
X131400000Y-91000000D01*
X131375000Y-90975000D01*
X131375000Y-89775000D01*
X131400000Y-89750000D01*
X131600000Y-89750000D01*
X131625000Y-89775000D01*
G37*
G36*
X134125000Y-89775000D02*
G01*
X134125000Y-90975000D01*
X134100000Y-91000000D01*
X133900000Y-91000000D01*
X133875000Y-90975000D01*
X133875000Y-89775000D01*
X133900000Y-89750000D01*
X134100000Y-89750000D01*
X134125000Y-89775000D01*
G37*
G36*
X149875000Y-89525000D02*
G01*
X149875000Y-89725000D01*
X149850000Y-89750000D01*
X149150000Y-89750000D01*
X149125000Y-89725000D01*
X149125000Y-89525000D01*
X149150000Y-89500000D01*
X149850000Y-89500000D01*
X149875000Y-89525000D01*
G37*
G36*
X152375000Y-89525000D02*
G01*
X152375000Y-89725000D01*
X152350000Y-89750000D01*
X151650000Y-89750000D01*
X151625000Y-89725000D01*
X151625000Y-89525000D01*
X151650000Y-89500000D01*
X152350000Y-89500000D01*
X152375000Y-89525000D01*
G37*
G36*
X155375000Y-89775000D02*
G01*
X155375000Y-90225000D01*
X155350000Y-90250000D01*
X155150000Y-90250000D01*
X155125000Y-90225000D01*
X155125000Y-89775000D01*
X155150000Y-89750000D01*
X155350000Y-89750000D01*
X155375000Y-89775000D01*
G37*
G36*
X155375000Y-90525000D02*
G01*
X155375000Y-90975000D01*
X155350000Y-91000000D01*
X155150000Y-91000000D01*
X155125000Y-90975000D01*
X155125000Y-90525000D01*
X155150000Y-90500000D01*
X155350000Y-90500000D01*
X155375000Y-90525000D01*
G37*
G36*
X131375000Y-89525000D02*
G01*
X131375000Y-89725000D01*
X131350000Y-89750000D01*
X130650000Y-89750000D01*
X130625000Y-89775000D01*
X130625000Y-90975000D01*
X130650000Y-91000000D01*
X131350000Y-91000000D01*
X131375000Y-91025000D01*
X131375000Y-91225000D01*
X131350000Y-91250000D01*
X130400000Y-91250000D01*
X130375000Y-91225000D01*
X130375000Y-89525000D01*
X130400000Y-89500000D01*
X131350000Y-89500000D01*
X131375000Y-89525000D01*
G37*
G36*
X133875000Y-89525000D02*
G01*
X133875000Y-89725000D01*
X133850000Y-89750000D01*
X133150000Y-89750000D01*
X133125000Y-89775000D01*
X133125000Y-90975000D01*
X133150000Y-91000000D01*
X133850000Y-91000000D01*
X133875000Y-91025000D01*
X133875000Y-91225000D01*
X133850000Y-91250000D01*
X132900000Y-91250000D01*
X132875000Y-91225000D01*
X132875000Y-89525000D01*
X132900000Y-89500000D01*
X133850000Y-89500000D01*
X133875000Y-89525000D01*
G37*
G36*
X139875000Y-89525000D02*
G01*
X139875000Y-89725000D01*
X139850000Y-89750000D01*
X138900000Y-89750000D01*
X138875000Y-89775000D01*
X138875000Y-90225000D01*
X138900000Y-90250000D01*
X139350000Y-90250000D01*
X139375000Y-90275000D01*
X139375000Y-90475000D01*
X139350000Y-90500000D01*
X138900000Y-90500000D01*
X138875000Y-90525000D01*
X138875000Y-90975000D01*
X138875000Y-91225000D01*
X138850000Y-91250000D01*
X138650000Y-91250000D01*
X138625000Y-91225000D01*
X138625000Y-89525000D01*
X138650000Y-89500000D01*
X139850000Y-89500000D01*
X139875000Y-89525000D01*
G37*
G36*
X142625000Y-89525000D02*
G01*
X142625000Y-89725000D01*
X142600000Y-89750000D01*
X141650000Y-89750000D01*
X141625000Y-89775000D01*
X141625000Y-90225000D01*
X141650000Y-90250000D01*
X142100000Y-90250000D01*
X142125000Y-90275000D01*
X142125000Y-90475000D01*
X142100000Y-90500000D01*
X141650000Y-90500000D01*
X141625000Y-90525000D01*
X141625000Y-90975000D01*
X141625000Y-91225000D01*
X141600000Y-91250000D01*
X141400000Y-91250000D01*
X141375000Y-91225000D01*
X141375000Y-89525000D01*
X141400000Y-89500000D01*
X142600000Y-89500000D01*
X142625000Y-89525000D01*
G37*
G36*
X136875000Y-89525000D02*
G01*
X136875000Y-89725000D01*
X136850000Y-89750000D01*
X135900000Y-89750000D01*
X135875000Y-89775000D01*
X135875000Y-90225000D01*
X135900000Y-90250000D01*
X136350000Y-90250000D01*
X136375000Y-90275000D01*
X136375000Y-90475000D01*
X136350000Y-90500000D01*
X135900000Y-90500000D01*
X135875000Y-90525000D01*
X135875000Y-90975000D01*
X135900000Y-91000000D01*
X136850000Y-91000000D01*
X136875000Y-91025000D01*
X136875000Y-91225000D01*
X136850000Y-91250000D01*
X135650000Y-91250000D01*
X135625000Y-91225000D01*
X135625000Y-89525000D01*
X135650000Y-89500000D01*
X136850000Y-89500000D01*
X136875000Y-89525000D01*
G37*
G36*
X149125000Y-89775000D02*
G01*
X149125000Y-90225000D01*
X149150000Y-90250000D01*
X149850000Y-90250000D01*
X149875000Y-90225000D01*
X149875000Y-89775000D01*
X149900000Y-89750000D01*
X150100000Y-89750000D01*
X150125000Y-89775000D01*
X150125000Y-91225000D01*
X150100000Y-91250000D01*
X149900000Y-91250000D01*
X149875000Y-91225000D01*
X149875000Y-90525000D01*
X149850000Y-90500000D01*
X149150000Y-90500000D01*
X149125000Y-90525000D01*
X149125000Y-91225000D01*
X149100000Y-91250000D01*
X148900000Y-91250000D01*
X148875000Y-91225000D01*
X148875000Y-89775000D01*
X148900000Y-89750000D01*
X149100000Y-89750000D01*
X149125000Y-89775000D01*
G37*
G36*
X151625000Y-89775000D02*
G01*
X151625000Y-90225000D01*
X151650000Y-90250000D01*
X152350000Y-90250000D01*
X152375000Y-90225000D01*
X152375000Y-89775000D01*
X152400000Y-89750000D01*
X152600000Y-89750000D01*
X152625000Y-89775000D01*
X152625000Y-91225000D01*
X152600000Y-91250000D01*
X152400000Y-91250000D01*
X152375000Y-91225000D01*
X152375000Y-90525000D01*
X152350000Y-90500000D01*
X151650000Y-90500000D01*
X151625000Y-90525000D01*
X151625000Y-91225000D01*
X151600000Y-91250000D01*
X151400000Y-91250000D01*
X151375000Y-91225000D01*
X151375000Y-89775000D01*
X151400000Y-89750000D01*
X151600000Y-89750000D01*
X151625000Y-89775000D01*
G37*
G36*
X155125000Y-89525000D02*
G01*
X155125000Y-89725000D01*
X155100000Y-89750000D01*
X154400000Y-89750000D01*
X154375000Y-89775000D01*
X154375000Y-90225000D01*
X154400000Y-90250000D01*
X155100000Y-90250000D01*
X155125000Y-90275000D01*
X155125000Y-90475000D01*
X155100000Y-90500000D01*
X154400000Y-90500000D01*
X154375000Y-90525000D01*
X154375000Y-90975000D01*
X154400000Y-91000000D01*
X155100000Y-91000000D01*
X155125000Y-91025000D01*
X155125000Y-91225000D01*
X155100000Y-91250000D01*
X154150000Y-91250000D01*
X154125000Y-91225000D01*
X154125000Y-89525000D01*
X154150000Y-89500000D01*
X155100000Y-89500000D01*
X155125000Y-89525000D01*
G37*
G36*
X145125000Y-89525000D02*
G01*
X145125000Y-89725000D01*
X145100000Y-89750000D01*
X144150000Y-89750000D01*
X144125000Y-89775000D01*
X144125000Y-90975000D01*
X144150000Y-91000000D01*
X144850000Y-91000000D01*
X144875000Y-90975000D01*
X144875000Y-90525000D01*
X144850000Y-90500000D01*
X144650000Y-90500000D01*
X144625000Y-90475000D01*
X144625000Y-90275000D01*
X144650000Y-90250000D01*
X145100000Y-90250000D01*
X145125000Y-90275000D01*
X145125000Y-90975000D01*
X145100000Y-91000000D01*
X144900000Y-91000000D01*
X144875000Y-91025000D01*
X144875000Y-91225000D01*
X144850000Y-91250000D01*
X144150000Y-91250000D01*
X144125000Y-91225000D01*
X144125000Y-91025000D01*
X144100000Y-91000000D01*
X143900000Y-91000000D01*
X143875000Y-90975000D01*
X143875000Y-89775000D01*
X143900000Y-89750000D01*
X144100000Y-89750000D01*
X144125000Y-89725000D01*
X144125000Y-89525000D01*
X144150000Y-89500000D01*
X145100000Y-89500000D01*
X145125000Y-89525000D01*
G37*
G36*
X147625000Y-89525000D02*
G01*
X147625000Y-89725000D01*
X147600000Y-89750000D01*
X146650000Y-89750000D01*
X146625000Y-89775000D01*
X146625000Y-90975000D01*
X146650000Y-91000000D01*
X147350000Y-91000000D01*
X147375000Y-90975000D01*
X147375000Y-90525000D01*
X147350000Y-90500000D01*
X147150000Y-90500000D01*
X147125000Y-90475000D01*
X147125000Y-90275000D01*
X147150000Y-90250000D01*
X147600000Y-90250000D01*
X147625000Y-90275000D01*
X147625000Y-90975000D01*
X147600000Y-91000000D01*
X147400000Y-91000000D01*
X147375000Y-91025000D01*
X147375000Y-91225000D01*
X147350000Y-91250000D01*
X146650000Y-91250000D01*
X146625000Y-91225000D01*
X146625000Y-91025000D01*
X146600000Y-91000000D01*
X146400000Y-91000000D01*
X146375000Y-90975000D01*
X146375000Y-89775000D01*
X146400000Y-89750000D01*
X146600000Y-89750000D01*
X146625000Y-89725000D01*
X146625000Y-89525000D01*
X146650000Y-89500000D01*
X147600000Y-89500000D01*
X147625000Y-89525000D01*
G37*
G36*
X126125000Y-89525000D02*
G01*
X126125000Y-89725000D01*
X126150000Y-89750000D01*
X126350000Y-89750000D01*
X126375000Y-89775000D01*
X126375000Y-89975000D01*
X126350000Y-90000000D01*
X126150000Y-90000000D01*
X126125000Y-89975000D01*
X126125000Y-89775000D01*
X126100000Y-89750000D01*
X125400000Y-89750000D01*
X125375000Y-89775000D01*
X125375000Y-90975000D01*
X125400000Y-91000000D01*
X126100000Y-91000000D01*
X126125000Y-90975000D01*
X126125000Y-90775000D01*
X126150000Y-90750000D01*
X126350000Y-90750000D01*
X126375000Y-90775000D01*
X126375000Y-90975000D01*
X126350000Y-91000000D01*
X126150000Y-91000000D01*
X126125000Y-91025000D01*
X126125000Y-91225000D01*
X126100000Y-91250000D01*
X125400000Y-91250000D01*
X125375000Y-91225000D01*
X125375000Y-91025000D01*
X125350000Y-91000000D01*
X125150000Y-91000000D01*
X125125000Y-90975000D01*
X125125000Y-89775000D01*
X125150000Y-89750000D01*
X125350000Y-89750000D01*
X125375000Y-89725000D01*
X125375000Y-89525000D01*
X125400000Y-89500000D01*
X126100000Y-89500000D01*
X126125000Y-89525000D01*
G37*
G36*
X128875000Y-89525000D02*
G01*
X128875000Y-89725000D01*
X128900000Y-89750000D01*
X129100000Y-89750000D01*
X129125000Y-89775000D01*
X129125000Y-89975000D01*
X129100000Y-90000000D01*
X128900000Y-90000000D01*
X128875000Y-89975000D01*
X128875000Y-89775000D01*
X128850000Y-89750000D01*
X128150000Y-89750000D01*
X128125000Y-89775000D01*
X128125000Y-90975000D01*
X128150000Y-91000000D01*
X128850000Y-91000000D01*
X128875000Y-90975000D01*
X128875000Y-90775000D01*
X128900000Y-90750000D01*
X129100000Y-90750000D01*
X129125000Y-90775000D01*
X129125000Y-90975000D01*
X129100000Y-91000000D01*
X128900000Y-91000000D01*
X128875000Y-91025000D01*
X128875000Y-91225000D01*
X128850000Y-91250000D01*
X128150000Y-91250000D01*
X128125000Y-91225000D01*
X128125000Y-91025000D01*
X128100000Y-91000000D01*
X127900000Y-91000000D01*
X127875000Y-90975000D01*
X127875000Y-89775000D01*
X127900000Y-89750000D01*
X128100000Y-89750000D01*
X128125000Y-89725000D01*
X128125000Y-89525000D01*
X128150000Y-89500000D01*
X128850000Y-89500000D01*
X128875000Y-89525000D01*
G37*
G36*
X128375000Y-91775000D02*
G01*
X128375000Y-92225000D01*
X128400000Y-92250000D01*
X128600000Y-92250000D01*
X128625000Y-92225000D01*
X128625000Y-91775000D01*
X128650000Y-91750000D01*
X128850000Y-91750000D01*
X128875000Y-91775000D01*
X128875000Y-92225000D01*
X128900000Y-92250000D01*
X129100000Y-92250000D01*
X129125000Y-92275000D01*
X129125000Y-92475000D01*
X129100000Y-92500000D01*
X128900000Y-92500000D01*
X128875000Y-92525000D01*
X128875000Y-92725000D01*
X128900000Y-92750000D01*
X129100000Y-92750000D01*
X129125000Y-92775000D01*
X129125000Y-92975000D01*
X129100000Y-93000000D01*
X128900000Y-93000000D01*
X128875000Y-93025000D01*
X128875000Y-93475000D01*
X128850000Y-93500000D01*
X128650000Y-93500000D01*
X128625000Y-93475000D01*
X128625000Y-93025000D01*
X128600000Y-93000000D01*
X128400000Y-93000000D01*
X128375000Y-93025000D01*
X128375000Y-93475000D01*
X128350000Y-93500000D01*
X128150000Y-93500000D01*
X128125000Y-93475000D01*
X128125000Y-93025000D01*
X128100000Y-93000000D01*
X127900000Y-93000000D01*
X127875000Y-92975000D01*
X127875000Y-92775000D01*
X127900000Y-92750000D01*
X128100000Y-92750000D01*
X128125000Y-92725000D01*
X128125000Y-92525000D01*
X128100000Y-92500000D01*
X127900000Y-92500000D01*
X127875000Y-92475000D01*
X127875000Y-92275000D01*
X127900000Y-92250000D01*
X128100000Y-92250000D01*
X128125000Y-92225000D01*
X128125000Y-91775000D01*
X128150000Y-91750000D01*
X128350000Y-91750000D01*
X128375000Y-91775000D01*
G37*
G36*
X133375000Y-91775000D02*
G01*
X133375000Y-92225000D01*
X133400000Y-92250000D01*
X133600000Y-92250000D01*
X133625000Y-92225000D01*
X133625000Y-91775000D01*
X133650000Y-91750000D01*
X133850000Y-91750000D01*
X133875000Y-91775000D01*
X133875000Y-92225000D01*
X133900000Y-92250000D01*
X134100000Y-92250000D01*
X134125000Y-92275000D01*
X134125000Y-92475000D01*
X134100000Y-92500000D01*
X133900000Y-92500000D01*
X133875000Y-92525000D01*
X133875000Y-92725000D01*
X133900000Y-92750000D01*
X134100000Y-92750000D01*
X134125000Y-92775000D01*
X134125000Y-92975000D01*
X134100000Y-93000000D01*
X133900000Y-93000000D01*
X133875000Y-93025000D01*
X133875000Y-93475000D01*
X133850000Y-93500000D01*
X133650000Y-93500000D01*
X133625000Y-93475000D01*
X133625000Y-93025000D01*
X133600000Y-93000000D01*
X133400000Y-93000000D01*
X133375000Y-93025000D01*
X133375000Y-93475000D01*
X133350000Y-93500000D01*
X133150000Y-93500000D01*
X133125000Y-93475000D01*
X133125000Y-93025000D01*
X133100000Y-93000000D01*
X132900000Y-93000000D01*
X132875000Y-92975000D01*
X132875000Y-92775000D01*
X132900000Y-92750000D01*
X133100000Y-92750000D01*
X133125000Y-92725000D01*
X133125000Y-92525000D01*
X133100000Y-92500000D01*
X132900000Y-92500000D01*
X132875000Y-92475000D01*
X132875000Y-92275000D01*
X132900000Y-92250000D01*
X133100000Y-92250000D01*
X133125000Y-92225000D01*
X133125000Y-91775000D01*
X133150000Y-91750000D01*
X133350000Y-91750000D01*
X133375000Y-91775000D01*
G37*
G36*
X141875000Y-91775000D02*
G01*
X141875000Y-92225000D01*
X141900000Y-92250000D01*
X142100000Y-92250000D01*
X142125000Y-92225000D01*
X142125000Y-91775000D01*
X142150000Y-91750000D01*
X142350000Y-91750000D01*
X142375000Y-91775000D01*
X142375000Y-92225000D01*
X142400000Y-92250000D01*
X142600000Y-92250000D01*
X142625000Y-92275000D01*
X142625000Y-92475000D01*
X142600000Y-92500000D01*
X142400000Y-92500000D01*
X142375000Y-92525000D01*
X142375000Y-92725000D01*
X142400000Y-92750000D01*
X142600000Y-92750000D01*
X142625000Y-92775000D01*
X142625000Y-92975000D01*
X142600000Y-93000000D01*
X142400000Y-93000000D01*
X142375000Y-93025000D01*
X142375000Y-93475000D01*
X142350000Y-93500000D01*
X142150000Y-93500000D01*
X142125000Y-93475000D01*
X142125000Y-93025000D01*
X142100000Y-93000000D01*
X141900000Y-93000000D01*
X141875000Y-93025000D01*
X141875000Y-93475000D01*
X141850000Y-93500000D01*
X141650000Y-93500000D01*
X141625000Y-93475000D01*
X141625000Y-93025000D01*
X141600000Y-93000000D01*
X141400000Y-93000000D01*
X141375000Y-92975000D01*
X141375000Y-92775000D01*
X141400000Y-92750000D01*
X141600000Y-92750000D01*
X141625000Y-92725000D01*
X141625000Y-92525000D01*
X141600000Y-92500000D01*
X141400000Y-92500000D01*
X141375000Y-92475000D01*
X141375000Y-92275000D01*
X141400000Y-92250000D01*
X141600000Y-92250000D01*
X141625000Y-92225000D01*
X141625000Y-91775000D01*
X141650000Y-91750000D01*
X141850000Y-91750000D01*
X141875000Y-91775000D01*
G37*
G36*
X146875000Y-91775000D02*
G01*
X146875000Y-92225000D01*
X146900000Y-92250000D01*
X147100000Y-92250000D01*
X147125000Y-92225000D01*
X147125000Y-91775000D01*
X147150000Y-91750000D01*
X147350000Y-91750000D01*
X147375000Y-91775000D01*
X147375000Y-92225000D01*
X147400000Y-92250000D01*
X147600000Y-92250000D01*
X147625000Y-92275000D01*
X147625000Y-92475000D01*
X147600000Y-92500000D01*
X147400000Y-92500000D01*
X147375000Y-92525000D01*
X147375000Y-92725000D01*
X147400000Y-92750000D01*
X147600000Y-92750000D01*
X147625000Y-92775000D01*
X147625000Y-92975000D01*
X147600000Y-93000000D01*
X147400000Y-93000000D01*
X147375000Y-93025000D01*
X147375000Y-93475000D01*
X147350000Y-93500000D01*
X147150000Y-93500000D01*
X147125000Y-93475000D01*
X147125000Y-93025000D01*
X147100000Y-93000000D01*
X146900000Y-93000000D01*
X146875000Y-93025000D01*
X146875000Y-93475000D01*
X146850000Y-93500000D01*
X146650000Y-93500000D01*
X146625000Y-93475000D01*
X146625000Y-93025000D01*
X146600000Y-93000000D01*
X146400000Y-93000000D01*
X146375000Y-92975000D01*
X146375000Y-92775000D01*
X146400000Y-92750000D01*
X146600000Y-92750000D01*
X146625000Y-92725000D01*
X146625000Y-92525000D01*
X146600000Y-92500000D01*
X146400000Y-92500000D01*
X146375000Y-92475000D01*
X146375000Y-92275000D01*
X146400000Y-92250000D01*
X146600000Y-92250000D01*
X146625000Y-92225000D01*
X146625000Y-91775000D01*
X146650000Y-91750000D01*
X146850000Y-91750000D01*
X146875000Y-91775000D01*
G37*
G36*
X151875000Y-91775000D02*
G01*
X151875000Y-92225000D01*
X151900000Y-92250000D01*
X152100000Y-92250000D01*
X152125000Y-92225000D01*
X152125000Y-91775000D01*
X152150000Y-91750000D01*
X152350000Y-91750000D01*
X152375000Y-91775000D01*
X152375000Y-92225000D01*
X152400000Y-92250000D01*
X152600000Y-92250000D01*
X152625000Y-92275000D01*
X152625000Y-92475000D01*
X152600000Y-92500000D01*
X152400000Y-92500000D01*
X152375000Y-92525000D01*
X152375000Y-92725000D01*
X152400000Y-92750000D01*
X152600000Y-92750000D01*
X152625000Y-92775000D01*
X152625000Y-92975000D01*
X152600000Y-93000000D01*
X152400000Y-93000000D01*
X152375000Y-93025000D01*
X152375000Y-93475000D01*
X152350000Y-93500000D01*
X152150000Y-93500000D01*
X152125000Y-93475000D01*
X152125000Y-93025000D01*
X152100000Y-93000000D01*
X151900000Y-93000000D01*
X151875000Y-93025000D01*
X151875000Y-93475000D01*
X151850000Y-93500000D01*
X151650000Y-93500000D01*
X151625000Y-93475000D01*
X151625000Y-93025000D01*
X151600000Y-93000000D01*
X151400000Y-93000000D01*
X151375000Y-92975000D01*
X151375000Y-92775000D01*
X151400000Y-92750000D01*
X151600000Y-92750000D01*
X151625000Y-92725000D01*
X151625000Y-92525000D01*
X151600000Y-92500000D01*
X151400000Y-92500000D01*
X151375000Y-92475000D01*
X151375000Y-92275000D01*
X151400000Y-92250000D01*
X151600000Y-92250000D01*
X151625000Y-92225000D01*
X151625000Y-91775000D01*
X151650000Y-91750000D01*
X151850000Y-91750000D01*
X151875000Y-91775000D01*
G37*
%TO.C,J1*%
G36*
X99625000Y-89775000D02*
G01*
X99625000Y-90975000D01*
X99600000Y-91000000D01*
X99400000Y-91000000D01*
X99375000Y-90975000D01*
X99375000Y-89775000D01*
X99400000Y-89750000D01*
X99600000Y-89750000D01*
X99625000Y-89775000D01*
G37*
G36*
X102125000Y-89775000D02*
G01*
X102125000Y-90975000D01*
X102100000Y-91000000D01*
X101900000Y-91000000D01*
X101875000Y-90975000D01*
X101875000Y-89775000D01*
X101900000Y-89750000D01*
X102100000Y-89750000D01*
X102125000Y-89775000D01*
G37*
G36*
X117875000Y-89525000D02*
G01*
X117875000Y-89725000D01*
X117850000Y-89750000D01*
X117150000Y-89750000D01*
X117125000Y-89725000D01*
X117125000Y-89525000D01*
X117150000Y-89500000D01*
X117850000Y-89500000D01*
X117875000Y-89525000D01*
G37*
G36*
X120375000Y-89525000D02*
G01*
X120375000Y-89725000D01*
X120350000Y-89750000D01*
X119650000Y-89750000D01*
X119625000Y-89725000D01*
X119625000Y-89525000D01*
X119650000Y-89500000D01*
X120350000Y-89500000D01*
X120375000Y-89525000D01*
G37*
G36*
X123375000Y-89775000D02*
G01*
X123375000Y-90225000D01*
X123350000Y-90250000D01*
X123150000Y-90250000D01*
X123125000Y-90225000D01*
X123125000Y-89775000D01*
X123150000Y-89750000D01*
X123350000Y-89750000D01*
X123375000Y-89775000D01*
G37*
G36*
X123375000Y-90525000D02*
G01*
X123375000Y-90975000D01*
X123350000Y-91000000D01*
X123150000Y-91000000D01*
X123125000Y-90975000D01*
X123125000Y-90525000D01*
X123150000Y-90500000D01*
X123350000Y-90500000D01*
X123375000Y-90525000D01*
G37*
G36*
X99375000Y-89525000D02*
G01*
X99375000Y-89725000D01*
X99350000Y-89750000D01*
X98650000Y-89750000D01*
X98625000Y-89775000D01*
X98625000Y-90975000D01*
X98650000Y-91000000D01*
X99350000Y-91000000D01*
X99375000Y-91025000D01*
X99375000Y-91225000D01*
X99350000Y-91250000D01*
X98400000Y-91250000D01*
X98375000Y-91225000D01*
X98375000Y-89525000D01*
X98400000Y-89500000D01*
X99350000Y-89500000D01*
X99375000Y-89525000D01*
G37*
G36*
X101875000Y-89525000D02*
G01*
X101875000Y-89725000D01*
X101850000Y-89750000D01*
X101150000Y-89750000D01*
X101125000Y-89775000D01*
X101125000Y-90975000D01*
X101150000Y-91000000D01*
X101850000Y-91000000D01*
X101875000Y-91025000D01*
X101875000Y-91225000D01*
X101850000Y-91250000D01*
X100900000Y-91250000D01*
X100875000Y-91225000D01*
X100875000Y-89525000D01*
X100900000Y-89500000D01*
X101850000Y-89500000D01*
X101875000Y-89525000D01*
G37*
G36*
X107875000Y-89525000D02*
G01*
X107875000Y-89725000D01*
X107850000Y-89750000D01*
X106900000Y-89750000D01*
X106875000Y-89775000D01*
X106875000Y-90225000D01*
X106900000Y-90250000D01*
X107350000Y-90250000D01*
X107375000Y-90275000D01*
X107375000Y-90475000D01*
X107350000Y-90500000D01*
X106900000Y-90500000D01*
X106875000Y-90525000D01*
X106875000Y-90975000D01*
X106875000Y-91225000D01*
X106850000Y-91250000D01*
X106650000Y-91250000D01*
X106625000Y-91225000D01*
X106625000Y-89525000D01*
X106650000Y-89500000D01*
X107850000Y-89500000D01*
X107875000Y-89525000D01*
G37*
G36*
X110625000Y-89525000D02*
G01*
X110625000Y-89725000D01*
X110600000Y-89750000D01*
X109650000Y-89750000D01*
X109625000Y-89775000D01*
X109625000Y-90225000D01*
X109650000Y-90250000D01*
X110100000Y-90250000D01*
X110125000Y-90275000D01*
X110125000Y-90475000D01*
X110100000Y-90500000D01*
X109650000Y-90500000D01*
X109625000Y-90525000D01*
X109625000Y-90975000D01*
X109625000Y-91225000D01*
X109600000Y-91250000D01*
X109400000Y-91250000D01*
X109375000Y-91225000D01*
X109375000Y-89525000D01*
X109400000Y-89500000D01*
X110600000Y-89500000D01*
X110625000Y-89525000D01*
G37*
G36*
X104875000Y-89525000D02*
G01*
X104875000Y-89725000D01*
X104850000Y-89750000D01*
X103900000Y-89750000D01*
X103875000Y-89775000D01*
X103875000Y-90225000D01*
X103900000Y-90250000D01*
X104350000Y-90250000D01*
X104375000Y-90275000D01*
X104375000Y-90475000D01*
X104350000Y-90500000D01*
X103900000Y-90500000D01*
X103875000Y-90525000D01*
X103875000Y-90975000D01*
X103900000Y-91000000D01*
X104850000Y-91000000D01*
X104875000Y-91025000D01*
X104875000Y-91225000D01*
X104850000Y-91250000D01*
X103650000Y-91250000D01*
X103625000Y-91225000D01*
X103625000Y-89525000D01*
X103650000Y-89500000D01*
X104850000Y-89500000D01*
X104875000Y-89525000D01*
G37*
G36*
X117125000Y-89775000D02*
G01*
X117125000Y-90225000D01*
X117150000Y-90250000D01*
X117850000Y-90250000D01*
X117875000Y-90225000D01*
X117875000Y-89775000D01*
X117900000Y-89750000D01*
X118100000Y-89750000D01*
X118125000Y-89775000D01*
X118125000Y-91225000D01*
X118100000Y-91250000D01*
X117900000Y-91250000D01*
X117875000Y-91225000D01*
X117875000Y-90525000D01*
X117850000Y-90500000D01*
X117150000Y-90500000D01*
X117125000Y-90525000D01*
X117125000Y-91225000D01*
X117100000Y-91250000D01*
X116900000Y-91250000D01*
X116875000Y-91225000D01*
X116875000Y-89775000D01*
X116900000Y-89750000D01*
X117100000Y-89750000D01*
X117125000Y-89775000D01*
G37*
G36*
X119625000Y-89775000D02*
G01*
X119625000Y-90225000D01*
X119650000Y-90250000D01*
X120350000Y-90250000D01*
X120375000Y-90225000D01*
X120375000Y-89775000D01*
X120400000Y-89750000D01*
X120600000Y-89750000D01*
X120625000Y-89775000D01*
X120625000Y-91225000D01*
X120600000Y-91250000D01*
X120400000Y-91250000D01*
X120375000Y-91225000D01*
X120375000Y-90525000D01*
X120350000Y-90500000D01*
X119650000Y-90500000D01*
X119625000Y-90525000D01*
X119625000Y-91225000D01*
X119600000Y-91250000D01*
X119400000Y-91250000D01*
X119375000Y-91225000D01*
X119375000Y-89775000D01*
X119400000Y-89750000D01*
X119600000Y-89750000D01*
X119625000Y-89775000D01*
G37*
G36*
X123125000Y-89525000D02*
G01*
X123125000Y-89725000D01*
X123100000Y-89750000D01*
X122400000Y-89750000D01*
X122375000Y-89775000D01*
X122375000Y-90225000D01*
X122400000Y-90250000D01*
X123100000Y-90250000D01*
X123125000Y-90275000D01*
X123125000Y-90475000D01*
X123100000Y-90500000D01*
X122400000Y-90500000D01*
X122375000Y-90525000D01*
X122375000Y-90975000D01*
X122400000Y-91000000D01*
X123100000Y-91000000D01*
X123125000Y-91025000D01*
X123125000Y-91225000D01*
X123100000Y-91250000D01*
X122150000Y-91250000D01*
X122125000Y-91225000D01*
X122125000Y-89525000D01*
X122150000Y-89500000D01*
X123100000Y-89500000D01*
X123125000Y-89525000D01*
G37*
G36*
X113125000Y-89525000D02*
G01*
X113125000Y-89725000D01*
X113100000Y-89750000D01*
X112150000Y-89750000D01*
X112125000Y-89775000D01*
X112125000Y-90975000D01*
X112150000Y-91000000D01*
X112850000Y-91000000D01*
X112875000Y-90975000D01*
X112875000Y-90525000D01*
X112850000Y-90500000D01*
X112650000Y-90500000D01*
X112625000Y-90475000D01*
X112625000Y-90275000D01*
X112650000Y-90250000D01*
X113100000Y-90250000D01*
X113125000Y-90275000D01*
X113125000Y-90975000D01*
X113100000Y-91000000D01*
X112900000Y-91000000D01*
X112875000Y-91025000D01*
X112875000Y-91225000D01*
X112850000Y-91250000D01*
X112150000Y-91250000D01*
X112125000Y-91225000D01*
X112125000Y-91025000D01*
X112100000Y-91000000D01*
X111900000Y-91000000D01*
X111875000Y-90975000D01*
X111875000Y-89775000D01*
X111900000Y-89750000D01*
X112100000Y-89750000D01*
X112125000Y-89725000D01*
X112125000Y-89525000D01*
X112150000Y-89500000D01*
X113100000Y-89500000D01*
X113125000Y-89525000D01*
G37*
G36*
X115625000Y-89525000D02*
G01*
X115625000Y-89725000D01*
X115600000Y-89750000D01*
X114650000Y-89750000D01*
X114625000Y-89775000D01*
X114625000Y-90975000D01*
X114650000Y-91000000D01*
X115350000Y-91000000D01*
X115375000Y-90975000D01*
X115375000Y-90525000D01*
X115350000Y-90500000D01*
X115150000Y-90500000D01*
X115125000Y-90475000D01*
X115125000Y-90275000D01*
X115150000Y-90250000D01*
X115600000Y-90250000D01*
X115625000Y-90275000D01*
X115625000Y-90975000D01*
X115600000Y-91000000D01*
X115400000Y-91000000D01*
X115375000Y-91025000D01*
X115375000Y-91225000D01*
X115350000Y-91250000D01*
X114650000Y-91250000D01*
X114625000Y-91225000D01*
X114625000Y-91025000D01*
X114600000Y-91000000D01*
X114400000Y-91000000D01*
X114375000Y-90975000D01*
X114375000Y-89775000D01*
X114400000Y-89750000D01*
X114600000Y-89750000D01*
X114625000Y-89725000D01*
X114625000Y-89525000D01*
X114650000Y-89500000D01*
X115600000Y-89500000D01*
X115625000Y-89525000D01*
G37*
G36*
X94125000Y-89525000D02*
G01*
X94125000Y-89725000D01*
X94150000Y-89750000D01*
X94350000Y-89750000D01*
X94375000Y-89775000D01*
X94375000Y-89975000D01*
X94350000Y-90000000D01*
X94150000Y-90000000D01*
X94125000Y-89975000D01*
X94125000Y-89775000D01*
X94100000Y-89750000D01*
X93400000Y-89750000D01*
X93375000Y-89775000D01*
X93375000Y-90975000D01*
X93400000Y-91000000D01*
X94100000Y-91000000D01*
X94125000Y-90975000D01*
X94125000Y-90775000D01*
X94150000Y-90750000D01*
X94350000Y-90750000D01*
X94375000Y-90775000D01*
X94375000Y-90975000D01*
X94350000Y-91000000D01*
X94150000Y-91000000D01*
X94125000Y-91025000D01*
X94125000Y-91225000D01*
X94100000Y-91250000D01*
X93400000Y-91250000D01*
X93375000Y-91225000D01*
X93375000Y-91025000D01*
X93350000Y-91000000D01*
X93150000Y-91000000D01*
X93125000Y-90975000D01*
X93125000Y-89775000D01*
X93150000Y-89750000D01*
X93350000Y-89750000D01*
X93375000Y-89725000D01*
X93375000Y-89525000D01*
X93400000Y-89500000D01*
X94100000Y-89500000D01*
X94125000Y-89525000D01*
G37*
G36*
X96875000Y-89525000D02*
G01*
X96875000Y-89725000D01*
X96900000Y-89750000D01*
X97100000Y-89750000D01*
X97125000Y-89775000D01*
X97125000Y-89975000D01*
X97100000Y-90000000D01*
X96900000Y-90000000D01*
X96875000Y-89975000D01*
X96875000Y-89775000D01*
X96850000Y-89750000D01*
X96150000Y-89750000D01*
X96125000Y-89775000D01*
X96125000Y-90975000D01*
X96150000Y-91000000D01*
X96850000Y-91000000D01*
X96875000Y-90975000D01*
X96875000Y-90775000D01*
X96900000Y-90750000D01*
X97100000Y-90750000D01*
X97125000Y-90775000D01*
X97125000Y-90975000D01*
X97100000Y-91000000D01*
X96900000Y-91000000D01*
X96875000Y-91025000D01*
X96875000Y-91225000D01*
X96850000Y-91250000D01*
X96150000Y-91250000D01*
X96125000Y-91225000D01*
X96125000Y-91025000D01*
X96100000Y-91000000D01*
X95900000Y-91000000D01*
X95875000Y-90975000D01*
X95875000Y-89775000D01*
X95900000Y-89750000D01*
X96100000Y-89750000D01*
X96125000Y-89725000D01*
X96125000Y-89525000D01*
X96150000Y-89500000D01*
X96850000Y-89500000D01*
X96875000Y-89525000D01*
G37*
G36*
X96375000Y-91775000D02*
G01*
X96375000Y-92225000D01*
X96400000Y-92250000D01*
X96600000Y-92250000D01*
X96625000Y-92225000D01*
X96625000Y-91775000D01*
X96650000Y-91750000D01*
X96850000Y-91750000D01*
X96875000Y-91775000D01*
X96875000Y-92225000D01*
X96900000Y-92250000D01*
X97100000Y-92250000D01*
X97125000Y-92275000D01*
X97125000Y-92475000D01*
X97100000Y-92500000D01*
X96900000Y-92500000D01*
X96875000Y-92525000D01*
X96875000Y-92725000D01*
X96900000Y-92750000D01*
X97100000Y-92750000D01*
X97125000Y-92775000D01*
X97125000Y-92975000D01*
X97100000Y-93000000D01*
X96900000Y-93000000D01*
X96875000Y-93025000D01*
X96875000Y-93475000D01*
X96850000Y-93500000D01*
X96650000Y-93500000D01*
X96625000Y-93475000D01*
X96625000Y-93025000D01*
X96600000Y-93000000D01*
X96400000Y-93000000D01*
X96375000Y-93025000D01*
X96375000Y-93475000D01*
X96350000Y-93500000D01*
X96150000Y-93500000D01*
X96125000Y-93475000D01*
X96125000Y-93025000D01*
X96100000Y-93000000D01*
X95900000Y-93000000D01*
X95875000Y-92975000D01*
X95875000Y-92775000D01*
X95900000Y-92750000D01*
X96100000Y-92750000D01*
X96125000Y-92725000D01*
X96125000Y-92525000D01*
X96100000Y-92500000D01*
X95900000Y-92500000D01*
X95875000Y-92475000D01*
X95875000Y-92275000D01*
X95900000Y-92250000D01*
X96100000Y-92250000D01*
X96125000Y-92225000D01*
X96125000Y-91775000D01*
X96150000Y-91750000D01*
X96350000Y-91750000D01*
X96375000Y-91775000D01*
G37*
G36*
X101375000Y-91775000D02*
G01*
X101375000Y-92225000D01*
X101400000Y-92250000D01*
X101600000Y-92250000D01*
X101625000Y-92225000D01*
X101625000Y-91775000D01*
X101650000Y-91750000D01*
X101850000Y-91750000D01*
X101875000Y-91775000D01*
X101875000Y-92225000D01*
X101900000Y-92250000D01*
X102100000Y-92250000D01*
X102125000Y-92275000D01*
X102125000Y-92475000D01*
X102100000Y-92500000D01*
X101900000Y-92500000D01*
X101875000Y-92525000D01*
X101875000Y-92725000D01*
X101900000Y-92750000D01*
X102100000Y-92750000D01*
X102125000Y-92775000D01*
X102125000Y-92975000D01*
X102100000Y-93000000D01*
X101900000Y-93000000D01*
X101875000Y-93025000D01*
X101875000Y-93475000D01*
X101850000Y-93500000D01*
X101650000Y-93500000D01*
X101625000Y-93475000D01*
X101625000Y-93025000D01*
X101600000Y-93000000D01*
X101400000Y-93000000D01*
X101375000Y-93025000D01*
X101375000Y-93475000D01*
X101350000Y-93500000D01*
X101150000Y-93500000D01*
X101125000Y-93475000D01*
X101125000Y-93025000D01*
X101100000Y-93000000D01*
X100900000Y-93000000D01*
X100875000Y-92975000D01*
X100875000Y-92775000D01*
X100900000Y-92750000D01*
X101100000Y-92750000D01*
X101125000Y-92725000D01*
X101125000Y-92525000D01*
X101100000Y-92500000D01*
X100900000Y-92500000D01*
X100875000Y-92475000D01*
X100875000Y-92275000D01*
X100900000Y-92250000D01*
X101100000Y-92250000D01*
X101125000Y-92225000D01*
X101125000Y-91775000D01*
X101150000Y-91750000D01*
X101350000Y-91750000D01*
X101375000Y-91775000D01*
G37*
G36*
X109875000Y-91775000D02*
G01*
X109875000Y-92225000D01*
X109900000Y-92250000D01*
X110100000Y-92250000D01*
X110125000Y-92225000D01*
X110125000Y-91775000D01*
X110150000Y-91750000D01*
X110350000Y-91750000D01*
X110375000Y-91775000D01*
X110375000Y-92225000D01*
X110400000Y-92250000D01*
X110600000Y-92250000D01*
X110625000Y-92275000D01*
X110625000Y-92475000D01*
X110600000Y-92500000D01*
X110400000Y-92500000D01*
X110375000Y-92525000D01*
X110375000Y-92725000D01*
X110400000Y-92750000D01*
X110600000Y-92750000D01*
X110625000Y-92775000D01*
X110625000Y-92975000D01*
X110600000Y-93000000D01*
X110400000Y-93000000D01*
X110375000Y-93025000D01*
X110375000Y-93475000D01*
X110350000Y-93500000D01*
X110150000Y-93500000D01*
X110125000Y-93475000D01*
X110125000Y-93025000D01*
X110100000Y-93000000D01*
X109900000Y-93000000D01*
X109875000Y-93025000D01*
X109875000Y-93475000D01*
X109850000Y-93500000D01*
X109650000Y-93500000D01*
X109625000Y-93475000D01*
X109625000Y-93025000D01*
X109600000Y-93000000D01*
X109400000Y-93000000D01*
X109375000Y-92975000D01*
X109375000Y-92775000D01*
X109400000Y-92750000D01*
X109600000Y-92750000D01*
X109625000Y-92725000D01*
X109625000Y-92525000D01*
X109600000Y-92500000D01*
X109400000Y-92500000D01*
X109375000Y-92475000D01*
X109375000Y-92275000D01*
X109400000Y-92250000D01*
X109600000Y-92250000D01*
X109625000Y-92225000D01*
X109625000Y-91775000D01*
X109650000Y-91750000D01*
X109850000Y-91750000D01*
X109875000Y-91775000D01*
G37*
G36*
X114875000Y-91775000D02*
G01*
X114875000Y-92225000D01*
X114900000Y-92250000D01*
X115100000Y-92250000D01*
X115125000Y-92225000D01*
X115125000Y-91775000D01*
X115150000Y-91750000D01*
X115350000Y-91750000D01*
X115375000Y-91775000D01*
X115375000Y-92225000D01*
X115400000Y-92250000D01*
X115600000Y-92250000D01*
X115625000Y-92275000D01*
X115625000Y-92475000D01*
X115600000Y-92500000D01*
X115400000Y-92500000D01*
X115375000Y-92525000D01*
X115375000Y-92725000D01*
X115400000Y-92750000D01*
X115600000Y-92750000D01*
X115625000Y-92775000D01*
X115625000Y-92975000D01*
X115600000Y-93000000D01*
X115400000Y-93000000D01*
X115375000Y-93025000D01*
X115375000Y-93475000D01*
X115350000Y-93500000D01*
X115150000Y-93500000D01*
X115125000Y-93475000D01*
X115125000Y-93025000D01*
X115100000Y-93000000D01*
X114900000Y-93000000D01*
X114875000Y-93025000D01*
X114875000Y-93475000D01*
X114850000Y-93500000D01*
X114650000Y-93500000D01*
X114625000Y-93475000D01*
X114625000Y-93025000D01*
X114600000Y-93000000D01*
X114400000Y-93000000D01*
X114375000Y-92975000D01*
X114375000Y-92775000D01*
X114400000Y-92750000D01*
X114600000Y-92750000D01*
X114625000Y-92725000D01*
X114625000Y-92525000D01*
X114600000Y-92500000D01*
X114400000Y-92500000D01*
X114375000Y-92475000D01*
X114375000Y-92275000D01*
X114400000Y-92250000D01*
X114600000Y-92250000D01*
X114625000Y-92225000D01*
X114625000Y-91775000D01*
X114650000Y-91750000D01*
X114850000Y-91750000D01*
X114875000Y-91775000D01*
G37*
G36*
X119875000Y-91775000D02*
G01*
X119875000Y-92225000D01*
X119900000Y-92250000D01*
X120100000Y-92250000D01*
X120125000Y-92225000D01*
X120125000Y-91775000D01*
X120150000Y-91750000D01*
X120350000Y-91750000D01*
X120375000Y-91775000D01*
X120375000Y-92225000D01*
X120400000Y-92250000D01*
X120600000Y-92250000D01*
X120625000Y-92275000D01*
X120625000Y-92475000D01*
X120600000Y-92500000D01*
X120400000Y-92500000D01*
X120375000Y-92525000D01*
X120375000Y-92725000D01*
X120400000Y-92750000D01*
X120600000Y-92750000D01*
X120625000Y-92775000D01*
X120625000Y-92975000D01*
X120600000Y-93000000D01*
X120400000Y-93000000D01*
X120375000Y-93025000D01*
X120375000Y-93475000D01*
X120350000Y-93500000D01*
X120150000Y-93500000D01*
X120125000Y-93475000D01*
X120125000Y-93025000D01*
X120100000Y-93000000D01*
X119900000Y-93000000D01*
X119875000Y-93025000D01*
X119875000Y-93475000D01*
X119850000Y-93500000D01*
X119650000Y-93500000D01*
X119625000Y-93475000D01*
X119625000Y-93025000D01*
X119600000Y-93000000D01*
X119400000Y-93000000D01*
X119375000Y-92975000D01*
X119375000Y-92775000D01*
X119400000Y-92750000D01*
X119600000Y-92750000D01*
X119625000Y-92725000D01*
X119625000Y-92525000D01*
X119600000Y-92500000D01*
X119400000Y-92500000D01*
X119375000Y-92475000D01*
X119375000Y-92275000D01*
X119400000Y-92250000D01*
X119600000Y-92250000D01*
X119625000Y-92225000D01*
X119625000Y-91775000D01*
X119650000Y-91750000D01*
X119850000Y-91750000D01*
X119875000Y-91775000D01*
G37*
%TO.C,J3*%
G36*
X163625000Y-89775000D02*
G01*
X163625000Y-90975000D01*
X163600000Y-91000000D01*
X163400000Y-91000000D01*
X163375000Y-90975000D01*
X163375000Y-89775000D01*
X163400000Y-89750000D01*
X163600000Y-89750000D01*
X163625000Y-89775000D01*
G37*
G36*
X166125000Y-89775000D02*
G01*
X166125000Y-90975000D01*
X166100000Y-91000000D01*
X165900000Y-91000000D01*
X165875000Y-90975000D01*
X165875000Y-89775000D01*
X165900000Y-89750000D01*
X166100000Y-89750000D01*
X166125000Y-89775000D01*
G37*
G36*
X181875000Y-89525000D02*
G01*
X181875000Y-89725000D01*
X181850000Y-89750000D01*
X181150000Y-89750000D01*
X181125000Y-89725000D01*
X181125000Y-89525000D01*
X181150000Y-89500000D01*
X181850000Y-89500000D01*
X181875000Y-89525000D01*
G37*
G36*
X184375000Y-89525000D02*
G01*
X184375000Y-89725000D01*
X184350000Y-89750000D01*
X183650000Y-89750000D01*
X183625000Y-89725000D01*
X183625000Y-89525000D01*
X183650000Y-89500000D01*
X184350000Y-89500000D01*
X184375000Y-89525000D01*
G37*
G36*
X187375000Y-89775000D02*
G01*
X187375000Y-90225000D01*
X187350000Y-90250000D01*
X187150000Y-90250000D01*
X187125000Y-90225000D01*
X187125000Y-89775000D01*
X187150000Y-89750000D01*
X187350000Y-89750000D01*
X187375000Y-89775000D01*
G37*
G36*
X187375000Y-90525000D02*
G01*
X187375000Y-90975000D01*
X187350000Y-91000000D01*
X187150000Y-91000000D01*
X187125000Y-90975000D01*
X187125000Y-90525000D01*
X187150000Y-90500000D01*
X187350000Y-90500000D01*
X187375000Y-90525000D01*
G37*
G36*
X163375000Y-89525000D02*
G01*
X163375000Y-89725000D01*
X163350000Y-89750000D01*
X162650000Y-89750000D01*
X162625000Y-89775000D01*
X162625000Y-90975000D01*
X162650000Y-91000000D01*
X163350000Y-91000000D01*
X163375000Y-91025000D01*
X163375000Y-91225000D01*
X163350000Y-91250000D01*
X162400000Y-91250000D01*
X162375000Y-91225000D01*
X162375000Y-89525000D01*
X162400000Y-89500000D01*
X163350000Y-89500000D01*
X163375000Y-89525000D01*
G37*
G36*
X165875000Y-89525000D02*
G01*
X165875000Y-89725000D01*
X165850000Y-89750000D01*
X165150000Y-89750000D01*
X165125000Y-89775000D01*
X165125000Y-90975000D01*
X165150000Y-91000000D01*
X165850000Y-91000000D01*
X165875000Y-91025000D01*
X165875000Y-91225000D01*
X165850000Y-91250000D01*
X164900000Y-91250000D01*
X164875000Y-91225000D01*
X164875000Y-89525000D01*
X164900000Y-89500000D01*
X165850000Y-89500000D01*
X165875000Y-89525000D01*
G37*
G36*
X171875000Y-89525000D02*
G01*
X171875000Y-89725000D01*
X171850000Y-89750000D01*
X170900000Y-89750000D01*
X170875000Y-89775000D01*
X170875000Y-90225000D01*
X170900000Y-90250000D01*
X171350000Y-90250000D01*
X171375000Y-90275000D01*
X171375000Y-90475000D01*
X171350000Y-90500000D01*
X170900000Y-90500000D01*
X170875000Y-90525000D01*
X170875000Y-90975000D01*
X170875000Y-91225000D01*
X170850000Y-91250000D01*
X170650000Y-91250000D01*
X170625000Y-91225000D01*
X170625000Y-89525000D01*
X170650000Y-89500000D01*
X171850000Y-89500000D01*
X171875000Y-89525000D01*
G37*
G36*
X174625000Y-89525000D02*
G01*
X174625000Y-89725000D01*
X174600000Y-89750000D01*
X173650000Y-89750000D01*
X173625000Y-89775000D01*
X173625000Y-90225000D01*
X173650000Y-90250000D01*
X174100000Y-90250000D01*
X174125000Y-90275000D01*
X174125000Y-90475000D01*
X174100000Y-90500000D01*
X173650000Y-90500000D01*
X173625000Y-90525000D01*
X173625000Y-90975000D01*
X173625000Y-91225000D01*
X173600000Y-91250000D01*
X173400000Y-91250000D01*
X173375000Y-91225000D01*
X173375000Y-89525000D01*
X173400000Y-89500000D01*
X174600000Y-89500000D01*
X174625000Y-89525000D01*
G37*
G36*
X168875000Y-89525000D02*
G01*
X168875000Y-89725000D01*
X168850000Y-89750000D01*
X167900000Y-89750000D01*
X167875000Y-89775000D01*
X167875000Y-90225000D01*
X167900000Y-90250000D01*
X168350000Y-90250000D01*
X168375000Y-90275000D01*
X168375000Y-90475000D01*
X168350000Y-90500000D01*
X167900000Y-90500000D01*
X167875000Y-90525000D01*
X167875000Y-90975000D01*
X167900000Y-91000000D01*
X168850000Y-91000000D01*
X168875000Y-91025000D01*
X168875000Y-91225000D01*
X168850000Y-91250000D01*
X167650000Y-91250000D01*
X167625000Y-91225000D01*
X167625000Y-89525000D01*
X167650000Y-89500000D01*
X168850000Y-89500000D01*
X168875000Y-89525000D01*
G37*
G36*
X181125000Y-89775000D02*
G01*
X181125000Y-90225000D01*
X181150000Y-90250000D01*
X181850000Y-90250000D01*
X181875000Y-90225000D01*
X181875000Y-89775000D01*
X181900000Y-89750000D01*
X182100000Y-89750000D01*
X182125000Y-89775000D01*
X182125000Y-91225000D01*
X182100000Y-91250000D01*
X181900000Y-91250000D01*
X181875000Y-91225000D01*
X181875000Y-90525000D01*
X181850000Y-90500000D01*
X181150000Y-90500000D01*
X181125000Y-90525000D01*
X181125000Y-91225000D01*
X181100000Y-91250000D01*
X180900000Y-91250000D01*
X180875000Y-91225000D01*
X180875000Y-89775000D01*
X180900000Y-89750000D01*
X181100000Y-89750000D01*
X181125000Y-89775000D01*
G37*
G36*
X183625000Y-89775000D02*
G01*
X183625000Y-90225000D01*
X183650000Y-90250000D01*
X184350000Y-90250000D01*
X184375000Y-90225000D01*
X184375000Y-89775000D01*
X184400000Y-89750000D01*
X184600000Y-89750000D01*
X184625000Y-89775000D01*
X184625000Y-91225000D01*
X184600000Y-91250000D01*
X184400000Y-91250000D01*
X184375000Y-91225000D01*
X184375000Y-90525000D01*
X184350000Y-90500000D01*
X183650000Y-90500000D01*
X183625000Y-90525000D01*
X183625000Y-91225000D01*
X183600000Y-91250000D01*
X183400000Y-91250000D01*
X183375000Y-91225000D01*
X183375000Y-89775000D01*
X183400000Y-89750000D01*
X183600000Y-89750000D01*
X183625000Y-89775000D01*
G37*
G36*
X187125000Y-89525000D02*
G01*
X187125000Y-89725000D01*
X187100000Y-89750000D01*
X186400000Y-89750000D01*
X186375000Y-89775000D01*
X186375000Y-90225000D01*
X186400000Y-90250000D01*
X187100000Y-90250000D01*
X187125000Y-90275000D01*
X187125000Y-90475000D01*
X187100000Y-90500000D01*
X186400000Y-90500000D01*
X186375000Y-90525000D01*
X186375000Y-90975000D01*
X186400000Y-91000000D01*
X187100000Y-91000000D01*
X187125000Y-91025000D01*
X187125000Y-91225000D01*
X187100000Y-91250000D01*
X186150000Y-91250000D01*
X186125000Y-91225000D01*
X186125000Y-89525000D01*
X186150000Y-89500000D01*
X187100000Y-89500000D01*
X187125000Y-89525000D01*
G37*
G36*
X177125000Y-89525000D02*
G01*
X177125000Y-89725000D01*
X177100000Y-89750000D01*
X176150000Y-89750000D01*
X176125000Y-89775000D01*
X176125000Y-90975000D01*
X176150000Y-91000000D01*
X176850000Y-91000000D01*
X176875000Y-90975000D01*
X176875000Y-90525000D01*
X176850000Y-90500000D01*
X176650000Y-90500000D01*
X176625000Y-90475000D01*
X176625000Y-90275000D01*
X176650000Y-90250000D01*
X177100000Y-90250000D01*
X177125000Y-90275000D01*
X177125000Y-90975000D01*
X177100000Y-91000000D01*
X176900000Y-91000000D01*
X176875000Y-91025000D01*
X176875000Y-91225000D01*
X176850000Y-91250000D01*
X176150000Y-91250000D01*
X176125000Y-91225000D01*
X176125000Y-91025000D01*
X176100000Y-91000000D01*
X175900000Y-91000000D01*
X175875000Y-90975000D01*
X175875000Y-89775000D01*
X175900000Y-89750000D01*
X176100000Y-89750000D01*
X176125000Y-89725000D01*
X176125000Y-89525000D01*
X176150000Y-89500000D01*
X177100000Y-89500000D01*
X177125000Y-89525000D01*
G37*
G36*
X179625000Y-89525000D02*
G01*
X179625000Y-89725000D01*
X179600000Y-89750000D01*
X178650000Y-89750000D01*
X178625000Y-89775000D01*
X178625000Y-90975000D01*
X178650000Y-91000000D01*
X179350000Y-91000000D01*
X179375000Y-90975000D01*
X179375000Y-90525000D01*
X179350000Y-90500000D01*
X179150000Y-90500000D01*
X179125000Y-90475000D01*
X179125000Y-90275000D01*
X179150000Y-90250000D01*
X179600000Y-90250000D01*
X179625000Y-90275000D01*
X179625000Y-90975000D01*
X179600000Y-91000000D01*
X179400000Y-91000000D01*
X179375000Y-91025000D01*
X179375000Y-91225000D01*
X179350000Y-91250000D01*
X178650000Y-91250000D01*
X178625000Y-91225000D01*
X178625000Y-91025000D01*
X178600000Y-91000000D01*
X178400000Y-91000000D01*
X178375000Y-90975000D01*
X178375000Y-89775000D01*
X178400000Y-89750000D01*
X178600000Y-89750000D01*
X178625000Y-89725000D01*
X178625000Y-89525000D01*
X178650000Y-89500000D01*
X179600000Y-89500000D01*
X179625000Y-89525000D01*
G37*
G36*
X158125000Y-89525000D02*
G01*
X158125000Y-89725000D01*
X158150000Y-89750000D01*
X158350000Y-89750000D01*
X158375000Y-89775000D01*
X158375000Y-89975000D01*
X158350000Y-90000000D01*
X158150000Y-90000000D01*
X158125000Y-89975000D01*
X158125000Y-89775000D01*
X158100000Y-89750000D01*
X157400000Y-89750000D01*
X157375000Y-89775000D01*
X157375000Y-90975000D01*
X157400000Y-91000000D01*
X158100000Y-91000000D01*
X158125000Y-90975000D01*
X158125000Y-90775000D01*
X158150000Y-90750000D01*
X158350000Y-90750000D01*
X158375000Y-90775000D01*
X158375000Y-90975000D01*
X158350000Y-91000000D01*
X158150000Y-91000000D01*
X158125000Y-91025000D01*
X158125000Y-91225000D01*
X158100000Y-91250000D01*
X157400000Y-91250000D01*
X157375000Y-91225000D01*
X157375000Y-91025000D01*
X157350000Y-91000000D01*
X157150000Y-91000000D01*
X157125000Y-90975000D01*
X157125000Y-89775000D01*
X157150000Y-89750000D01*
X157350000Y-89750000D01*
X157375000Y-89725000D01*
X157375000Y-89525000D01*
X157400000Y-89500000D01*
X158100000Y-89500000D01*
X158125000Y-89525000D01*
G37*
G36*
X160875000Y-89525000D02*
G01*
X160875000Y-89725000D01*
X160900000Y-89750000D01*
X161100000Y-89750000D01*
X161125000Y-89775000D01*
X161125000Y-89975000D01*
X161100000Y-90000000D01*
X160900000Y-90000000D01*
X160875000Y-89975000D01*
X160875000Y-89775000D01*
X160850000Y-89750000D01*
X160150000Y-89750000D01*
X160125000Y-89775000D01*
X160125000Y-90975000D01*
X160150000Y-91000000D01*
X160850000Y-91000000D01*
X160875000Y-90975000D01*
X160875000Y-90775000D01*
X160900000Y-90750000D01*
X161100000Y-90750000D01*
X161125000Y-90775000D01*
X161125000Y-90975000D01*
X161100000Y-91000000D01*
X160900000Y-91000000D01*
X160875000Y-91025000D01*
X160875000Y-91225000D01*
X160850000Y-91250000D01*
X160150000Y-91250000D01*
X160125000Y-91225000D01*
X160125000Y-91025000D01*
X160100000Y-91000000D01*
X159900000Y-91000000D01*
X159875000Y-90975000D01*
X159875000Y-89775000D01*
X159900000Y-89750000D01*
X160100000Y-89750000D01*
X160125000Y-89725000D01*
X160125000Y-89525000D01*
X160150000Y-89500000D01*
X160850000Y-89500000D01*
X160875000Y-89525000D01*
G37*
G36*
X160375000Y-91775000D02*
G01*
X160375000Y-92225000D01*
X160400000Y-92250000D01*
X160600000Y-92250000D01*
X160625000Y-92225000D01*
X160625000Y-91775000D01*
X160650000Y-91750000D01*
X160850000Y-91750000D01*
X160875000Y-91775000D01*
X160875000Y-92225000D01*
X160900000Y-92250000D01*
X161100000Y-92250000D01*
X161125000Y-92275000D01*
X161125000Y-92475000D01*
X161100000Y-92500000D01*
X160900000Y-92500000D01*
X160875000Y-92525000D01*
X160875000Y-92725000D01*
X160900000Y-92750000D01*
X161100000Y-92750000D01*
X161125000Y-92775000D01*
X161125000Y-92975000D01*
X161100000Y-93000000D01*
X160900000Y-93000000D01*
X160875000Y-93025000D01*
X160875000Y-93475000D01*
X160850000Y-93500000D01*
X160650000Y-93500000D01*
X160625000Y-93475000D01*
X160625000Y-93025000D01*
X160600000Y-93000000D01*
X160400000Y-93000000D01*
X160375000Y-93025000D01*
X160375000Y-93475000D01*
X160350000Y-93500000D01*
X160150000Y-93500000D01*
X160125000Y-93475000D01*
X160125000Y-93025000D01*
X160100000Y-93000000D01*
X159900000Y-93000000D01*
X159875000Y-92975000D01*
X159875000Y-92775000D01*
X159900000Y-92750000D01*
X160100000Y-92750000D01*
X160125000Y-92725000D01*
X160125000Y-92525000D01*
X160100000Y-92500000D01*
X159900000Y-92500000D01*
X159875000Y-92475000D01*
X159875000Y-92275000D01*
X159900000Y-92250000D01*
X160100000Y-92250000D01*
X160125000Y-92225000D01*
X160125000Y-91775000D01*
X160150000Y-91750000D01*
X160350000Y-91750000D01*
X160375000Y-91775000D01*
G37*
G36*
X165375000Y-91775000D02*
G01*
X165375000Y-92225000D01*
X165400000Y-92250000D01*
X165600000Y-92250000D01*
X165625000Y-92225000D01*
X165625000Y-91775000D01*
X165650000Y-91750000D01*
X165850000Y-91750000D01*
X165875000Y-91775000D01*
X165875000Y-92225000D01*
X165900000Y-92250000D01*
X166100000Y-92250000D01*
X166125000Y-92275000D01*
X166125000Y-92475000D01*
X166100000Y-92500000D01*
X165900000Y-92500000D01*
X165875000Y-92525000D01*
X165875000Y-92725000D01*
X165900000Y-92750000D01*
X166100000Y-92750000D01*
X166125000Y-92775000D01*
X166125000Y-92975000D01*
X166100000Y-93000000D01*
X165900000Y-93000000D01*
X165875000Y-93025000D01*
X165875000Y-93475000D01*
X165850000Y-93500000D01*
X165650000Y-93500000D01*
X165625000Y-93475000D01*
X165625000Y-93025000D01*
X165600000Y-93000000D01*
X165400000Y-93000000D01*
X165375000Y-93025000D01*
X165375000Y-93475000D01*
X165350000Y-93500000D01*
X165150000Y-93500000D01*
X165125000Y-93475000D01*
X165125000Y-93025000D01*
X165100000Y-93000000D01*
X164900000Y-93000000D01*
X164875000Y-92975000D01*
X164875000Y-92775000D01*
X164900000Y-92750000D01*
X165100000Y-92750000D01*
X165125000Y-92725000D01*
X165125000Y-92525000D01*
X165100000Y-92500000D01*
X164900000Y-92500000D01*
X164875000Y-92475000D01*
X164875000Y-92275000D01*
X164900000Y-92250000D01*
X165100000Y-92250000D01*
X165125000Y-92225000D01*
X165125000Y-91775000D01*
X165150000Y-91750000D01*
X165350000Y-91750000D01*
X165375000Y-91775000D01*
G37*
G36*
X173875000Y-91775000D02*
G01*
X173875000Y-92225000D01*
X173900000Y-92250000D01*
X174100000Y-92250000D01*
X174125000Y-92225000D01*
X174125000Y-91775000D01*
X174150000Y-91750000D01*
X174350000Y-91750000D01*
X174375000Y-91775000D01*
X174375000Y-92225000D01*
X174400000Y-92250000D01*
X174600000Y-92250000D01*
X174625000Y-92275000D01*
X174625000Y-92475000D01*
X174600000Y-92500000D01*
X174400000Y-92500000D01*
X174375000Y-92525000D01*
X174375000Y-92725000D01*
X174400000Y-92750000D01*
X174600000Y-92750000D01*
X174625000Y-92775000D01*
X174625000Y-92975000D01*
X174600000Y-93000000D01*
X174400000Y-93000000D01*
X174375000Y-93025000D01*
X174375000Y-93475000D01*
X174350000Y-93500000D01*
X174150000Y-93500000D01*
X174125000Y-93475000D01*
X174125000Y-93025000D01*
X174100000Y-93000000D01*
X173900000Y-93000000D01*
X173875000Y-93025000D01*
X173875000Y-93475000D01*
X173850000Y-93500000D01*
X173650000Y-93500000D01*
X173625000Y-93475000D01*
X173625000Y-93025000D01*
X173600000Y-93000000D01*
X173400000Y-93000000D01*
X173375000Y-92975000D01*
X173375000Y-92775000D01*
X173400000Y-92750000D01*
X173600000Y-92750000D01*
X173625000Y-92725000D01*
X173625000Y-92525000D01*
X173600000Y-92500000D01*
X173400000Y-92500000D01*
X173375000Y-92475000D01*
X173375000Y-92275000D01*
X173400000Y-92250000D01*
X173600000Y-92250000D01*
X173625000Y-92225000D01*
X173625000Y-91775000D01*
X173650000Y-91750000D01*
X173850000Y-91750000D01*
X173875000Y-91775000D01*
G37*
G36*
X178875000Y-91775000D02*
G01*
X178875000Y-92225000D01*
X178900000Y-92250000D01*
X179100000Y-92250000D01*
X179125000Y-92225000D01*
X179125000Y-91775000D01*
X179150000Y-91750000D01*
X179350000Y-91750000D01*
X179375000Y-91775000D01*
X179375000Y-92225000D01*
X179400000Y-92250000D01*
X179600000Y-92250000D01*
X179625000Y-92275000D01*
X179625000Y-92475000D01*
X179600000Y-92500000D01*
X179400000Y-92500000D01*
X179375000Y-92525000D01*
X179375000Y-92725000D01*
X179400000Y-92750000D01*
X179600000Y-92750000D01*
X179625000Y-92775000D01*
X179625000Y-92975000D01*
X179600000Y-93000000D01*
X179400000Y-93000000D01*
X179375000Y-93025000D01*
X179375000Y-93475000D01*
X179350000Y-93500000D01*
X179150000Y-93500000D01*
X179125000Y-93475000D01*
X179125000Y-93025000D01*
X179100000Y-93000000D01*
X178900000Y-93000000D01*
X178875000Y-93025000D01*
X178875000Y-93475000D01*
X178850000Y-93500000D01*
X178650000Y-93500000D01*
X178625000Y-93475000D01*
X178625000Y-93025000D01*
X178600000Y-93000000D01*
X178400000Y-93000000D01*
X178375000Y-92975000D01*
X178375000Y-92775000D01*
X178400000Y-92750000D01*
X178600000Y-92750000D01*
X178625000Y-92725000D01*
X178625000Y-92525000D01*
X178600000Y-92500000D01*
X178400000Y-92500000D01*
X178375000Y-92475000D01*
X178375000Y-92275000D01*
X178400000Y-92250000D01*
X178600000Y-92250000D01*
X178625000Y-92225000D01*
X178625000Y-91775000D01*
X178650000Y-91750000D01*
X178850000Y-91750000D01*
X178875000Y-91775000D01*
G37*
G36*
X183875000Y-91775000D02*
G01*
X183875000Y-92225000D01*
X183900000Y-92250000D01*
X184100000Y-92250000D01*
X184125000Y-92225000D01*
X184125000Y-91775000D01*
X184150000Y-91750000D01*
X184350000Y-91750000D01*
X184375000Y-91775000D01*
X184375000Y-92225000D01*
X184400000Y-92250000D01*
X184600000Y-92250000D01*
X184625000Y-92275000D01*
X184625000Y-92475000D01*
X184600000Y-92500000D01*
X184400000Y-92500000D01*
X184375000Y-92525000D01*
X184375000Y-92725000D01*
X184400000Y-92750000D01*
X184600000Y-92750000D01*
X184625000Y-92775000D01*
X184625000Y-92975000D01*
X184600000Y-93000000D01*
X184400000Y-93000000D01*
X184375000Y-93025000D01*
X184375000Y-93475000D01*
X184350000Y-93500000D01*
X184150000Y-93500000D01*
X184125000Y-93475000D01*
X184125000Y-93025000D01*
X184100000Y-93000000D01*
X183900000Y-93000000D01*
X183875000Y-93025000D01*
X183875000Y-93475000D01*
X183850000Y-93500000D01*
X183650000Y-93500000D01*
X183625000Y-93475000D01*
X183625000Y-93025000D01*
X183600000Y-93000000D01*
X183400000Y-93000000D01*
X183375000Y-92975000D01*
X183375000Y-92775000D01*
X183400000Y-92750000D01*
X183600000Y-92750000D01*
X183625000Y-92725000D01*
X183625000Y-92525000D01*
X183600000Y-92500000D01*
X183400000Y-92500000D01*
X183375000Y-92475000D01*
X183375000Y-92275000D01*
X183400000Y-92250000D01*
X183600000Y-92250000D01*
X183625000Y-92225000D01*
X183625000Y-91775000D01*
X183650000Y-91750000D01*
X183850000Y-91750000D01*
X183875000Y-91775000D01*
G37*
%TD*%
D10*
%TO.C,J6*%
X102710000Y-70980000D03*
D11*
X102710000Y-73535000D03*
X105250000Y-70980000D03*
X105250000Y-73535000D03*
X107790000Y-70980000D03*
X107790000Y-73535000D03*
%TD*%
D12*
%TO.C,J2*%
X125750000Y-88000000D03*
D13*
X128500000Y-88000000D03*
D14*
X131000000Y-88000000D03*
D15*
X133500000Y-88000000D03*
D16*
X136250000Y-88000000D03*
D17*
X139250000Y-88000000D03*
D18*
X142000000Y-88000000D03*
D19*
X144500000Y-88000000D03*
D20*
X147000000Y-88000000D03*
D21*
X149500000Y-88000000D03*
D22*
X152000000Y-88000000D03*
D23*
X154750000Y-88000000D03*
%TD*%
D24*
%TO.C,D3*%
X137700000Y-71650000D03*
X137700000Y-68350000D03*
X132800000Y-68350000D03*
X132800000Y-71650000D03*
%TD*%
%TO.C,D2*%
X127700000Y-71650000D03*
X127700000Y-68350000D03*
X122800000Y-68350000D03*
X122800000Y-71650000D03*
%TD*%
%TO.C,D6*%
X167700000Y-71650000D03*
X167700000Y-68350000D03*
X162800000Y-68350000D03*
X162800000Y-71650000D03*
%TD*%
D12*
%TO.C,J1*%
X93750000Y-88000000D03*
D13*
X96500000Y-88000000D03*
D14*
X99000000Y-88000000D03*
D15*
X101500000Y-88000000D03*
D16*
X104250000Y-88000000D03*
D17*
X107250000Y-88000000D03*
D18*
X110000000Y-88000000D03*
D19*
X112500000Y-88000000D03*
D20*
X115000000Y-88000000D03*
D21*
X117500000Y-88000000D03*
D22*
X120000000Y-88000000D03*
D23*
X122750000Y-88000000D03*
%TD*%
D25*
%TO.C,H2*%
X93100000Y-69250000D03*
X93583274Y-68083274D03*
X93583274Y-70416726D03*
X94750000Y-67600000D03*
D26*
X94750000Y-69250000D03*
D25*
X94750000Y-70900000D03*
X95916726Y-68083274D03*
X95916726Y-70416726D03*
X96400000Y-69250000D03*
%TD*%
%TO.C,H1*%
X184100000Y-69250000D03*
X184583274Y-68083274D03*
X184583274Y-70416726D03*
X185750000Y-67600000D03*
D26*
X185750000Y-69250000D03*
D25*
X185750000Y-70900000D03*
X186916726Y-68083274D03*
X186916726Y-70416726D03*
X187400000Y-69250000D03*
%TD*%
D24*
%TO.C,D1*%
X117700000Y-71650000D03*
X117700000Y-68350000D03*
X112800000Y-68350000D03*
X112800000Y-71650000D03*
%TD*%
%TO.C,D5*%
X157700000Y-71650000D03*
X157700000Y-68350000D03*
X152800000Y-68350000D03*
X152800000Y-71650000D03*
%TD*%
D12*
%TO.C,J3*%
X157750000Y-88000000D03*
D13*
X160500000Y-88000000D03*
D14*
X163000000Y-88000000D03*
D15*
X165500000Y-88000000D03*
D16*
X168250000Y-88000000D03*
D17*
X171250000Y-88000000D03*
D18*
X174000000Y-88000000D03*
D19*
X176500000Y-88000000D03*
D20*
X179000000Y-88000000D03*
D21*
X181500000Y-88000000D03*
D22*
X184000000Y-88000000D03*
D23*
X186750000Y-88000000D03*
%TD*%
D24*
%TO.C,D4*%
X147700000Y-71650000D03*
X147700000Y-68350000D03*
X142800000Y-68350000D03*
X142800000Y-71650000D03*
%TD*%
M02*
