M48
; DRILL file {KiCad 7.0.5-7.0.5~ubuntu20.04.1} date Thu 06 Jul 2023 07:43:50 PM CEST
; FORMAT={-:-/ absolute / inch / decimal}
; #@! TF.CreationDate,2023-07-06T19:43:50+02:00
; #@! TF.GenerationSoftware,Kicad,Pcbnew,7.0.5-7.0.5~ubuntu20.04.1
; #@! TF.FileFunction,Plated,1,2,PTH
FMAT,2
INCH
; #@! TA.AperFunction,Plated,PTH,ViaDrill
T1C0.0157
; #@! TA.AperFunction,Plated,PTH,ComponentDrill
T2C0.0157
; #@! TA.AperFunction,Plated,PTH,ComponentDrill
T3C0.0394
; #@! TA.AperFunction,Plated,PTH,ComponentDrill
T4C0.0866
%
G90
G05
T1
X3.6909Y-3.7205
X3.7992Y-3.7205
X3.8386Y-3.1988
X3.8386Y-3.2579
X3.8386Y-3.3169
X3.8976Y-3.1988
X3.8976Y-3.2579
X3.8976Y-3.3169
X3.8976Y-3.7205
X3.9341Y-3.0512
X3.9587Y-3.0906
X3.9843Y-3.1299
X3.9961Y-3.7205
X4.0098Y-3.1693
X4.0354Y-3.2087
X4.061Y-3.248
X4.0866Y-3.2874
X4.1043Y-3.7205
X4.1122Y-3.3268
X4.1437Y-2.9921
X4.1929Y-3.0217
X4.1929Y-3.3661
X4.2224Y-3.7205
X4.3307Y-3.7205
X4.4094Y-3.3661
X4.4291Y-3.7205
X4.4587Y-2.9232
X4.498Y-2.9232
X4.5276Y-3.7205
X4.5374Y-2.9232
X4.5768Y-2.6673
X4.5768Y-2.7067
X4.5866Y-2.9626
X4.5965Y-2.7638
X4.626Y-3.7205
X4.6358Y-3.0217
X4.6752Y-2.9626
X4.7244Y-3.7205
X4.7343Y-3.3661
X4.7805Y-3.0512
X4.8051Y-3.0906
X4.8307Y-3.1299
X4.8327Y-3.7205
X4.8563Y-3.1693
X4.8819Y-3.2087
X4.9075Y-3.248
X4.9311Y-2.7559
X4.9331Y-3.2874
X4.9409Y-2.9626
X4.9409Y-3.0217
X4.9508Y-3.7205
X4.9587Y-3.3268
X4.9902Y-3.0217
X5.0394Y-3.3661
X5.0591Y-3.7205
X5.1575Y-3.7205
X5.2362Y-2.9232
X5.2559Y-3.7205
X5.3248Y-2.7559
X5.3642Y-3.7205
X5.4823Y-3.7205
X5.5906Y-3.3661
X5.5906Y-3.7205
X5.6102Y-2.9626
X5.627Y-3.0512
X5.6516Y-3.0906
X5.6772Y-3.1299
X5.689Y-3.7205
X5.7028Y-3.1693
X5.7185Y-2.7559
X5.7283Y-3.2087
X5.7539Y-3.248
X5.7776Y-2.8937
X5.7795Y-3.2874
X5.7874Y-3.7205
X5.8051Y-3.3268
X5.8071Y-3.0512
X5.876Y-2.9921
X5.8799Y-2.8543
X5.8858Y-3.3661
X5.8858Y-3.7205
X5.9843Y-3.7205
X6.0236Y-2.9232
X6.0236Y-3.0217
X6.0925Y-3.7205
X6.1122Y-2.7559
X6.186Y-3.3268
X6.1909Y-2.9232
X6.1909Y-3.002
X6.2106Y-3.7205
X6.2992Y-3.0906
X6.3189Y-3.7205
X6.3287Y-3.1299
X6.3583Y-3.0217
X6.3583Y-3.3661
X6.4173Y-3.7205
X6.4537Y-3.0512
X6.4783Y-3.0906
X6.5039Y-3.1299
X6.5059Y-2.7559
X6.5157Y-3.7205
X6.5295Y-3.1693
X6.5551Y-3.2087
X6.5807Y-3.248
X6.6063Y-3.2874
X6.624Y-3.7205
X6.6319Y-3.3268
X6.7126Y-3.0217
X6.7126Y-3.3661
X6.7421Y-3.7205
X6.8504Y-3.7205
X6.9488Y-3.7205
X6.9852Y-3.0512
X7.0098Y-3.0906
X7.0354Y-3.1299
X7.0472Y-3.7205
X7.061Y-3.1693
X7.0866Y-3.2087
X7.1122Y-3.248
X7.1378Y-3.2874
X7.1457Y-3.0709
X7.1457Y-3.7205
X7.1634Y-3.3268
X7.2441Y-3.2874
X7.2441Y-3.3661
X7.2441Y-3.7205
X7.3524Y-3.3661
X7.3524Y-3.7205
T2
X3.6654Y-2.7264
X3.6844Y-2.6804
X3.6844Y-2.7723
X3.7303Y-2.6614
X3.7303Y-2.7913
X3.7762Y-2.6804
X3.7762Y-2.7723
X3.7953Y-2.7264
X7.248Y-2.7264
X7.2671Y-2.6804
X7.2671Y-2.7723
X7.313Y-2.6614
X7.313Y-2.7913
X7.3589Y-2.6804
X7.3589Y-2.7723
X7.378Y-2.7264
T3
X4.0437Y-2.7945
X4.0437Y-2.8951
X4.1437Y-2.7945
X4.1437Y-2.8951
X4.2437Y-2.7945
X4.2437Y-2.8951
T4
X3.7303Y-2.7264
X7.313Y-2.7264
T0
M30
