%TF.GenerationSoftware,KiCad,Pcbnew,7.0.5-7.0.5~ubuntu20.04.1*%
%TF.CreationDate,2023-07-06T19:43:48+02:00*%
%TF.ProjectId,sao_keyboard,73616f5f-6b65-4796-926f-6172642e6b69,rev?*%
%TF.SameCoordinates,Original*%
%TF.FileFunction,Copper,L1,Top*%
%TF.FilePolarity,Positive*%
%FSLAX46Y46*%
G04 Gerber Fmt 4.6, Leading zero omitted, Abs format (unit mm)*
G04 Created by KiCad (PCBNEW 7.0.5-7.0.5~ubuntu20.04.1) date 2023-07-06 19:43:48*
%MOMM*%
%LPD*%
G01*
G04 APERTURE LIST*
G04 Aperture macros list*
%AMFreePoly0*
4,1,56,1.250000,1.250000,1.250000,-7.250000,1.500000,-7.500000,2.250000,-7.500000,2.500000,-7.750000,2.500000,-13.250000,2.250000,-13.500000,-1.000000,-13.500000,-1.250000,-13.250000,-1.250000,-2.975000,-0.625000,-2.975000,-0.600000,-3.000000,-0.400000,-3.000000,-0.375000,-3.025000,-0.375000,-3.225000,-0.350000,-3.250000,0.350000,-3.250000,0.375000,-3.225000,0.375000,-3.025000,0.400000,-3.000000,
0.600000,-3.000000,0.625000,-2.975000,0.625000,-2.775000,0.600000,-2.750000,0.400000,-2.750000,0.375000,-2.775000,0.375000,-2.975000,0.350000,-3.000000,-0.350000,-3.000000,-0.375000,-2.975000,-0.375000,-1.775000,-0.350000,-1.750000,0.350000,-1.750000,0.375000,-1.775000,0.375000,-1.975000,0.400000,-2.000000,0.600000,-2.000000,0.625000,-1.975000,0.625000,-1.775000,0.600000,-1.750000,
0.400000,-1.750000,0.375000,-1.725000,0.375000,-1.525000,0.350000,-1.500000,-0.350000,-1.500000,-0.375000,-1.525000,-0.375000,-1.725000,-0.400000,-1.750000,-0.600000,-1.750000,-0.625000,-1.775000,-0.625000,-2.975000,-1.250000,-2.975000,-1.250000,1.250000,-1.000000,1.500000,1.000000,1.500000,1.250000,1.250000,1.250000,1.250000,$1*%
%AMFreePoly1*
4,1,111,1.000000,1.250000,1.000000,-6.750000,0.750000,-7.000000,-0.750000,-7.000000,-1.000000,-6.750000,-1.000000,-4.975000,-0.625000,-4.975000,-0.600000,-5.000000,-0.400000,-5.000000,-0.375000,-5.025000,-0.375000,-5.475000,-0.350000,-5.500000,-0.150000,-5.500000,-0.125000,-5.475000,-0.125000,-5.025000,-0.100000,-5.000000,0.100000,-5.000000,0.125000,-5.025000,0.125000,-5.475000,0.150000,-5.500000,
0.350000,-5.500000,0.375000,-5.475000,0.375000,-5.025000,0.400000,-5.000000,0.600000,-5.000000,0.625000,-4.975000,0.625000,-4.775000,0.600000,-4.750000,0.400000,-4.750000,0.375000,-4.725000,0.375000,-4.525000,0.400000,-4.500000,0.600000,-4.500000,0.625000,-4.475000,0.625000,-4.275000,0.600000,-4.250000,0.400000,-4.250000,0.375000,-4.225000,0.375000,-3.775000,0.350000,-3.750000,
0.150000,-3.750000,0.125000,-3.775000,0.125000,-4.225000,0.100000,-4.250000,-0.100000,-4.250000,-0.125000,-4.225000,-0.125000,-3.775000,-0.150000,-3.750000,-0.350000,-3.750000,-0.375000,-3.775000,-0.375000,-4.225000,-0.400000,-4.250000,-0.600000,-4.250000,-0.625000,-4.275000,-0.625000,-4.475000,-0.600000,-4.500000,-0.400000,-4.500000,-0.375000,-4.525000,-0.375000,-4.725000,-0.400000,-4.750000,
-0.600000,-4.750000,-0.625000,-4.775000,-0.625000,-4.975000,-1.000000,-4.975000,-1.000000,-2.975000,-0.625000,-2.975000,-0.600000,-3.000000,-0.400000,-3.000000,-0.375000,-3.025000,-0.375000,-3.225000,-0.350000,-3.250000,0.350000,-3.250000,0.375000,-3.225000,0.375000,-3.025000,0.400000,-3.000000,0.600000,-3.000000,0.625000,-2.975000,0.625000,-2.775000,0.600000,-2.750000,0.400000,-2.750000,
0.375000,-2.775000,0.375000,-2.975000,0.350000,-3.000000,-0.350000,-3.000000,-0.375000,-2.975000,-0.375000,-1.775000,-0.350000,-1.750000,0.350000,-1.750000,0.375000,-1.775000,0.375000,-1.975000,0.400000,-2.000000,0.600000,-2.000000,0.625000,-1.975000,0.625000,-1.775000,0.600000,-1.750000,0.400000,-1.750000,0.375000,-1.725000,0.375000,-1.525000,0.350000,-1.500000,-0.350000,-1.500000,
-0.375000,-1.525000,-0.375000,-1.725000,-0.400000,-1.750000,-0.600000,-1.750000,-0.625000,-1.775000,-0.625000,-2.975000,-1.000000,-2.975000,-1.000000,1.250000,-0.750000,1.500000,0.750000,1.500000,1.000000,1.250000,1.000000,1.250000,$1*%
%AMFreePoly2*
4,1,46,1.000000,1.250000,1.000000,-7.250000,1.250000,-7.500000,2.000000,-7.500000,2.250000,-7.750000,2.250000,-13.250000,2.000000,-13.500000,-2.000000,-13.500000,-2.250000,-13.250000,-2.250000,-7.750000,-2.000000,-7.500000,-1.250000,-7.500000,-1.000000,-7.250000,-1.000000,-3.225000,-0.625000,-3.225000,-0.600000,-3.250000,0.350000,-3.250000,0.375000,-3.225000,0.375000,-3.025000,0.350000,-3.000000,
-0.350000,-3.000000,-0.375000,-2.975000,0.375000,-2.975000,0.400000,-3.000000,0.600000,-3.000000,0.625000,-2.975000,0.625000,-1.775000,0.600000,-1.750000,0.400000,-1.750000,0.375000,-1.775000,0.375000,-2.975000,-0.375000,-2.975000,-0.375000,-1.775000,-0.350000,-1.750000,0.350000,-1.750000,0.375000,-1.725000,0.375000,-1.525000,0.350000,-1.500000,-0.600000,-1.500000,-0.625000,-1.525000,
-0.625000,-3.225000,-1.000000,-3.225000,-1.000000,1.250000,-0.750000,1.500000,0.750000,1.500000,1.000000,1.250000,1.000000,1.250000,$1*%
%AMFreePoly3*
4,1,97,1.000000,1.250000,1.000000,-6.750000,0.750000,-7.000000,-0.750000,-7.000000,-1.000000,-6.750000,-1.000000,-4.975000,-0.625000,-4.975000,-0.600000,-5.000000,-0.400000,-5.000000,-0.375000,-5.025000,-0.375000,-5.475000,-0.350000,-5.500000,-0.150000,-5.500000,-0.125000,-5.475000,-0.125000,-5.025000,-0.100000,-5.000000,0.100000,-5.000000,0.125000,-5.025000,0.125000,-5.475000,0.150000,-5.500000,
0.350000,-5.500000,0.375000,-5.475000,0.375000,-5.025000,0.400000,-5.000000,0.600000,-5.000000,0.625000,-4.975000,0.625000,-4.775000,0.600000,-4.750000,0.400000,-4.750000,0.375000,-4.725000,0.375000,-4.525000,0.400000,-4.500000,0.600000,-4.500000,0.625000,-4.475000,0.625000,-4.275000,0.600000,-4.250000,0.400000,-4.250000,0.375000,-4.225000,0.375000,-3.775000,0.350000,-3.750000,
0.150000,-3.750000,0.125000,-3.775000,0.125000,-4.225000,0.100000,-4.250000,-0.100000,-4.250000,-0.125000,-4.225000,-0.125000,-3.775000,-0.150000,-3.750000,-0.350000,-3.750000,-0.375000,-3.775000,-0.375000,-4.225000,-0.400000,-4.250000,-0.600000,-4.250000,-0.625000,-4.275000,-0.625000,-4.475000,-0.600000,-4.500000,-0.400000,-4.500000,-0.375000,-4.525000,-0.375000,-4.725000,-0.400000,-4.750000,
-0.600000,-4.750000,-0.625000,-4.775000,-0.625000,-4.975000,-1.000000,-4.975000,-1.000000,-3.225000,-0.625000,-3.225000,-0.600000,-3.250000,0.350000,-3.250000,0.375000,-3.225000,0.375000,-3.025000,0.350000,-3.000000,-0.350000,-3.000000,-0.375000,-2.975000,0.375000,-2.975000,0.400000,-3.000000,0.600000,-3.000000,0.625000,-2.975000,0.625000,-1.775000,0.600000,-1.750000,0.400000,-1.750000,
0.375000,-1.775000,0.375000,-2.975000,-0.375000,-2.975000,-0.375000,-1.775000,-0.350000,-1.750000,0.350000,-1.750000,0.375000,-1.725000,0.375000,-1.525000,0.350000,-1.500000,-0.600000,-1.500000,-0.625000,-1.525000,-0.625000,-3.225000,-1.000000,-3.225000,-1.000000,1.250000,-0.750000,1.500000,0.750000,1.500000,1.000000,1.250000,1.000000,1.250000,$1*%
%AMFreePoly4*
4,1,40,1.250000,1.250000,1.250000,-13.250000,1.000000,-13.500000,-2.250000,-13.500000,-2.500000,-13.250000,-2.500000,-7.750000,-2.250000,-7.500000,-1.500000,-7.500000,-1.250000,-7.250000,-1.250000,-3.225000,-0.625000,-3.225000,-0.600000,-3.250000,0.600000,-3.250000,0.625000,-3.225000,0.625000,-3.025000,0.600000,-3.000000,-0.350000,-3.000000,-0.375000,-2.975000,-0.375000,-2.525000,-0.350000,-2.500000,
0.100000,-2.500000,0.125000,-2.475000,0.125000,-2.275000,0.100000,-2.250000,-0.350000,-2.250000,-0.375000,-2.225000,-0.375000,-1.775000,-0.350000,-1.750000,0.600000,-1.750000,0.625000,-1.725000,0.625000,-1.525000,0.600000,-1.500000,-0.600000,-1.500000,-0.625000,-1.525000,-0.625000,-3.225000,-1.250000,-3.225000,-1.250000,1.250000,-1.000000,1.500000,1.000000,1.500000,1.250000,1.250000,
1.250000,1.250000,$1*%
%AMFreePoly5*
4,1,36,1.250000,1.250000,1.250000,-7.250000,1.500000,-7.500000,2.250000,-7.500000,2.500000,-7.750000,2.500000,-13.250000,2.250000,-13.500000,-1.000000,-13.500000,-1.250000,-13.250000,-1.250000,-3.225000,-0.625000,-3.225000,-0.600000,-3.250000,-0.400000,-3.250000,-0.375000,-3.225000,-0.375000,-2.525000,-0.350000,-2.500000,0.100000,-2.500000,0.125000,-2.475000,0.125000,-2.275000,0.100000,-2.250000,
-0.350000,-2.250000,-0.375000,-2.225000,-0.375000,-1.775000,-0.350000,-1.750000,0.600000,-1.750000,0.625000,-1.725000,0.625000,-1.525000,0.600000,-1.500000,-0.600000,-1.500000,-0.625000,-1.525000,-0.625000,-3.225000,-1.250000,-3.225000,-1.250000,1.250000,-1.000000,1.500000,1.000000,1.500000,1.250000,1.250000,1.250000,1.250000,$1*%
%AMFreePoly6*
4,1,91,1.000000,1.250000,1.000000,-6.750000,0.750000,-7.000000,-0.750000,-7.000000,-1.000000,-6.750000,-1.000000,-4.975000,-0.625000,-4.975000,-0.600000,-5.000000,-0.400000,-5.000000,-0.375000,-5.025000,-0.375000,-5.475000,-0.350000,-5.500000,-0.150000,-5.500000,-0.125000,-5.475000,-0.125000,-5.025000,-0.100000,-5.000000,0.100000,-5.000000,0.125000,-5.025000,0.125000,-5.475000,0.150000,-5.500000,
0.350000,-5.500000,0.375000,-5.475000,0.375000,-5.025000,0.400000,-5.000000,0.600000,-5.000000,0.625000,-4.975000,0.625000,-4.775000,0.600000,-4.750000,0.400000,-4.750000,0.375000,-4.725000,0.375000,-4.525000,0.400000,-4.500000,0.600000,-4.500000,0.625000,-4.475000,0.625000,-4.275000,0.600000,-4.250000,0.400000,-4.250000,0.375000,-4.225000,0.375000,-3.775000,0.350000,-3.750000,
0.150000,-3.750000,0.125000,-3.775000,0.125000,-4.225000,0.100000,-4.250000,-0.100000,-4.250000,-0.125000,-4.225000,-0.125000,-3.775000,-0.150000,-3.750000,-0.350000,-3.750000,-0.375000,-3.775000,-0.375000,-4.225000,-0.400000,-4.250000,-0.600000,-4.250000,-0.625000,-4.275000,-0.625000,-4.475000,-0.600000,-4.500000,-0.400000,-4.500000,-0.375000,-4.525000,-0.375000,-4.725000,-0.400000,-4.750000,
-0.600000,-4.750000,-0.625000,-4.775000,-0.625000,-4.975000,-1.000000,-4.975000,-1.000000,-3.225000,-0.625000,-3.225000,-0.600000,-3.250000,-0.400000,-3.250000,-0.375000,-3.225000,-0.375000,-2.525000,-0.350000,-2.500000,0.100000,-2.500000,0.125000,-2.475000,0.125000,-2.275000,0.100000,-2.250000,-0.350000,-2.250000,-0.375000,-2.225000,-0.375000,-1.775000,-0.350000,-1.750000,0.600000,-1.750000,
0.625000,-1.725000,0.625000,-1.525000,0.600000,-1.500000,-0.600000,-1.500000,-0.625000,-1.525000,-0.625000,-3.225000,-1.000000,-3.225000,-1.000000,1.250000,-0.750000,1.500000,0.750000,1.500000,1.000000,1.250000,1.000000,1.250000,$1*%
%AMFreePoly7*
4,1,56,1.000000,1.250000,1.000000,-7.250000,1.250000,-7.500000,2.000000,-7.500000,2.250000,-7.750000,2.250000,-13.250000,2.000000,-13.500000,-2.000000,-13.500000,-2.250000,-13.250000,-2.250000,-7.750000,-2.000000,-7.500000,-1.250000,-7.500000,-1.000000,-7.250000,-1.000000,-2.975000,-0.625000,-2.975000,-0.600000,-3.000000,-0.400000,-3.000000,-0.375000,-3.025000,-0.375000,-3.225000,-0.350000,-3.250000,
0.350000,-3.250000,0.375000,-3.225000,0.375000,-3.025000,0.400000,-3.000000,0.600000,-3.000000,0.625000,-2.975000,0.625000,-2.275000,0.600000,-2.250000,0.150000,-2.250000,0.125000,-2.275000,0.125000,-2.475000,0.150000,-2.500000,0.350000,-2.500000,0.375000,-2.525000,0.375000,-2.975000,0.350000,-3.000000,-0.350000,-3.000000,-0.375000,-2.975000,-0.375000,-1.775000,-0.350000,-1.750000,
0.600000,-1.750000,0.625000,-1.725000,0.625000,-1.525000,0.600000,-1.500000,-0.350000,-1.500000,-0.375000,-1.525000,-0.375000,-1.725000,-0.400000,-1.750000,-0.600000,-1.750000,-0.625000,-1.775000,-0.625000,-2.975000,-1.000000,-2.975000,-1.000000,1.250000,-0.750000,1.500000,0.750000,1.500000,1.000000,1.250000,1.000000,1.250000,$1*%
%AMFreePoly8*
4,1,107,1.000000,1.250000,1.000000,-6.750000,0.750000,-7.000000,-0.750000,-7.000000,-1.000000,-6.750000,-1.000000,-4.975000,-0.625000,-4.975000,-0.600000,-5.000000,-0.400000,-5.000000,-0.375000,-5.025000,-0.375000,-5.475000,-0.350000,-5.500000,-0.150000,-5.500000,-0.125000,-5.475000,-0.125000,-5.025000,-0.100000,-5.000000,0.100000,-5.000000,0.125000,-5.025000,0.125000,-5.475000,0.150000,-5.500000,
0.350000,-5.500000,0.375000,-5.475000,0.375000,-5.025000,0.400000,-5.000000,0.600000,-5.000000,0.625000,-4.975000,0.625000,-4.775000,0.600000,-4.750000,0.400000,-4.750000,0.375000,-4.725000,0.375000,-4.525000,0.400000,-4.500000,0.600000,-4.500000,0.625000,-4.475000,0.625000,-4.275000,0.600000,-4.250000,0.400000,-4.250000,0.375000,-4.225000,0.375000,-3.775000,0.350000,-3.750000,
0.150000,-3.750000,0.125000,-3.775000,0.125000,-4.225000,0.100000,-4.250000,-0.100000,-4.250000,-0.125000,-4.225000,-0.125000,-3.775000,-0.150000,-3.750000,-0.350000,-3.750000,-0.375000,-3.775000,-0.375000,-4.225000,-0.400000,-4.250000,-0.600000,-4.250000,-0.625000,-4.275000,-0.625000,-4.475000,-0.600000,-4.500000,-0.400000,-4.500000,-0.375000,-4.525000,-0.375000,-4.725000,-0.400000,-4.750000,
-0.600000,-4.750000,-0.625000,-4.775000,-0.625000,-4.975000,-1.000000,-4.975000,-1.000000,-2.975000,-0.625000,-2.975000,-0.600000,-3.000000,-0.400000,-3.000000,-0.375000,-3.025000,-0.375000,-3.225000,-0.350000,-3.250000,0.350000,-3.250000,0.375000,-3.225000,0.375000,-3.025000,0.400000,-3.000000,0.600000,-3.000000,0.625000,-2.975000,0.625000,-2.275000,0.600000,-2.250000,0.150000,-2.250000,
0.125000,-2.275000,0.125000,-2.475000,0.150000,-2.500000,0.350000,-2.500000,0.375000,-2.525000,0.375000,-2.975000,0.350000,-3.000000,-0.350000,-3.000000,-0.375000,-2.975000,-0.375000,-1.775000,-0.350000,-1.750000,0.600000,-1.750000,0.625000,-1.725000,0.625000,-1.525000,0.600000,-1.500000,-0.350000,-1.500000,-0.375000,-1.525000,-0.375000,-1.725000,-0.400000,-1.750000,-0.600000,-1.750000,
-0.625000,-1.775000,-0.625000,-2.975000,-1.000000,-2.975000,-1.000000,1.250000,-0.750000,1.500000,0.750000,1.500000,1.000000,1.250000,1.000000,1.250000,$1*%
%AMFreePoly9*
4,1,55,1.000000,1.250000,1.000000,-7.250000,1.250000,-7.500000,2.000000,-7.500000,2.250000,-7.750000,2.250000,-13.250000,2.000000,-13.500000,-2.000000,-13.500000,-2.250000,-13.250000,-2.250000,-7.750000,-2.000000,-7.500000,-1.250000,-7.500000,-1.000000,-7.250000,-1.000000,-3.225000,-0.625000,-3.225000,-0.600000,-3.250000,-0.400000,-3.250000,-0.375000,-3.225000,-0.375000,-2.525000,-0.350000,-2.500000,
0.350000,-2.500000,0.375000,-2.525000,0.375000,-3.225000,0.400000,-3.250000,0.600000,-3.250000,0.625000,-3.225000,0.625000,-1.775000,0.600000,-1.750000,0.400000,-1.750000,0.375000,-1.775000,0.375000,-2.225000,0.350000,-2.250000,-0.350000,-2.250000,-0.375000,-2.225000,-0.375000,-1.775000,-0.400000,-1.750000,-0.600000,-1.750000,-0.625000,-1.775000,-0.625000,-3.225000,-1.000000,-3.225000,
-1.000000,-1.725000,-0.375000,-1.725000,-0.350000,-1.750000,0.350000,-1.750000,0.375000,-1.725000,0.375000,-1.525000,0.350000,-1.500000,-0.350000,-1.500000,-0.375000,-1.525000,-0.375000,-1.725000,-1.000000,-1.725000,-1.000000,1.250000,-0.750000,1.500000,0.750000,1.500000,1.000000,1.250000,1.000000,1.250000,$1*%
%AMFreePoly10*
4,1,106,1.000000,1.250000,1.000000,-6.750000,0.750000,-7.000000,-0.750000,-7.000000,-1.000000,-6.750000,-1.000000,-4.975000,-0.625000,-4.975000,-0.600000,-5.000000,-0.400000,-5.000000,-0.375000,-5.025000,-0.375000,-5.475000,-0.350000,-5.500000,-0.150000,-5.500000,-0.125000,-5.475000,-0.125000,-5.025000,-0.100000,-5.000000,0.100000,-5.000000,0.125000,-5.025000,0.125000,-5.475000,0.150000,-5.500000,
0.350000,-5.500000,0.375000,-5.475000,0.375000,-5.025000,0.400000,-5.000000,0.600000,-5.000000,0.625000,-4.975000,0.625000,-4.775000,0.600000,-4.750000,0.400000,-4.750000,0.375000,-4.725000,0.375000,-4.525000,0.400000,-4.500000,0.600000,-4.500000,0.625000,-4.475000,0.625000,-4.275000,0.600000,-4.250000,0.400000,-4.250000,0.375000,-4.225000,0.375000,-3.775000,0.350000,-3.750000,
0.150000,-3.750000,0.125000,-3.775000,0.125000,-4.225000,0.100000,-4.250000,-0.100000,-4.250000,-0.125000,-4.225000,-0.125000,-3.775000,-0.150000,-3.750000,-0.350000,-3.750000,-0.375000,-3.775000,-0.375000,-4.225000,-0.400000,-4.250000,-0.600000,-4.250000,-0.625000,-4.275000,-0.625000,-4.475000,-0.600000,-4.500000,-0.400000,-4.500000,-0.375000,-4.525000,-0.375000,-4.725000,-0.400000,-4.750000,
-0.600000,-4.750000,-0.625000,-4.775000,-0.625000,-4.975000,-1.000000,-4.975000,-1.000000,-3.225000,-0.625000,-3.225000,-0.600000,-3.250000,-0.400000,-3.250000,-0.375000,-3.225000,-0.375000,-2.525000,-0.350000,-2.500000,0.350000,-2.500000,0.375000,-2.525000,0.375000,-3.225000,0.400000,-3.250000,0.600000,-3.250000,0.625000,-3.225000,0.625000,-1.775000,0.600000,-1.750000,0.400000,-1.750000,
0.375000,-1.775000,0.375000,-2.225000,0.350000,-2.250000,-0.350000,-2.250000,-0.375000,-2.225000,-0.375000,-1.775000,-0.400000,-1.750000,-0.600000,-1.750000,-0.625000,-1.775000,-0.625000,-3.225000,-1.000000,-3.225000,-1.000000,-1.725000,-0.375000,-1.725000,-0.350000,-1.750000,0.350000,-1.750000,0.375000,-1.725000,0.375000,-1.525000,0.350000,-1.500000,-0.350000,-1.500000,-0.375000,-1.525000,
-0.375000,-1.725000,-1.000000,-1.725000,-1.000000,1.250000,-0.750000,1.500000,0.750000,1.500000,1.000000,1.250000,1.000000,1.250000,$1*%
%AMFreePoly11*
4,1,60,1.250000,1.250000,1.250000,-13.250000,1.000000,-13.500000,-2.250000,-13.500000,-2.500000,-13.250000,-2.500000,-7.750000,-2.250000,-7.500000,-1.500000,-7.500000,-1.250000,-7.250000,-1.250000,-3.225000,-0.625000,-3.225000,-0.600000,-3.250000,0.350000,-3.250000,0.375000,-3.225000,0.375000,-3.025000,0.350000,-3.000000,-0.350000,-3.000000,-0.375000,-2.975000,0.375000,-2.975000,0.400000,-3.000000,
0.600000,-3.000000,0.625000,-2.975000,0.625000,-2.525000,0.600000,-2.500000,0.400000,-2.500000,0.375000,-2.525000,0.375000,-2.975000,-0.375000,-2.975000,-0.375000,-2.525000,-0.350000,-2.500000,0.350000,-2.500000,0.375000,-2.475000,0.375000,-2.275000,0.350000,-2.250000,-0.350000,-2.250000,-0.375000,-2.225000,0.375000,-2.225000,0.400000,-2.250000,0.600000,-2.250000,0.625000,-2.225000,
0.625000,-1.775000,0.600000,-1.750000,0.400000,-1.750000,0.375000,-1.775000,0.375000,-2.225000,-0.375000,-2.225000,-0.375000,-1.775000,-0.350000,-1.750000,0.350000,-1.750000,0.375000,-1.725000,0.375000,-1.525000,0.350000,-1.500000,-0.600000,-1.500000,-0.625000,-1.525000,-0.625000,-3.225000,-1.250000,-3.225000,-1.250000,1.250000,-1.000000,1.500000,1.000000,1.500000,1.250000,1.250000,
1.250000,1.250000,$1*%
G04 Aperture macros list end*
%TA.AperFunction,ComponentPad*%
%ADD10R,1.700000X1.700000*%
%TD*%
%TA.AperFunction,ComponentPad*%
%ADD11O,1.700000X1.700000*%
%TD*%
%TA.AperFunction,ConnectorPad*%
%ADD12FreePoly0,0.000000*%
%TD*%
%TA.AperFunction,ConnectorPad*%
%ADD13FreePoly1,0.000000*%
%TD*%
%TA.AperFunction,ConnectorPad*%
%ADD14FreePoly2,0.000000*%
%TD*%
%TA.AperFunction,ConnectorPad*%
%ADD15FreePoly3,0.000000*%
%TD*%
%TA.AperFunction,ConnectorPad*%
%ADD16FreePoly4,0.000000*%
%TD*%
%TA.AperFunction,ConnectorPad*%
%ADD17FreePoly5,0.000000*%
%TD*%
%TA.AperFunction,ConnectorPad*%
%ADD18FreePoly6,0.000000*%
%TD*%
%TA.AperFunction,ConnectorPad*%
%ADD19FreePoly7,0.000000*%
%TD*%
%TA.AperFunction,ConnectorPad*%
%ADD20FreePoly8,0.000000*%
%TD*%
%TA.AperFunction,ConnectorPad*%
%ADD21FreePoly9,0.000000*%
%TD*%
%TA.AperFunction,ConnectorPad*%
%ADD22FreePoly10,0.000000*%
%TD*%
%TA.AperFunction,ConnectorPad*%
%ADD23FreePoly11,0.000000*%
%TD*%
%TA.AperFunction,SMDPad,CuDef*%
%ADD24R,1.500000X0.900000*%
%TD*%
%TA.AperFunction,ComponentPad*%
%ADD25C,0.700000*%
%TD*%
%TA.AperFunction,ComponentPad*%
%ADD26C,4.400000*%
%TD*%
%TA.AperFunction,ViaPad*%
%ADD27C,0.800000*%
%TD*%
%TA.AperFunction,Conductor*%
%ADD28C,0.250000*%
%TD*%
G04 APERTURE END LIST*
%TA.AperFunction,EtchedComponent*%
%TO.C,J2*%
G36*
X128625000Y-92525000D02*
G01*
X128625000Y-92725000D01*
X128600000Y-92750000D01*
X128400000Y-92750000D01*
X128375000Y-92725000D01*
X128375000Y-92525000D01*
X128400000Y-92500000D01*
X128600000Y-92500000D01*
X128625000Y-92525000D01*
G37*
%TD.AperFunction*%
%TA.AperFunction,EtchedComponent*%
G36*
X133625000Y-92525000D02*
G01*
X133625000Y-92725000D01*
X133600000Y-92750000D01*
X133400000Y-92750000D01*
X133375000Y-92725000D01*
X133375000Y-92525000D01*
X133400000Y-92500000D01*
X133600000Y-92500000D01*
X133625000Y-92525000D01*
G37*
%TD.AperFunction*%
%TA.AperFunction,EtchedComponent*%
G36*
X142125000Y-92525000D02*
G01*
X142125000Y-92725000D01*
X142100000Y-92750000D01*
X141900000Y-92750000D01*
X141875000Y-92725000D01*
X141875000Y-92525000D01*
X141900000Y-92500000D01*
X142100000Y-92500000D01*
X142125000Y-92525000D01*
G37*
%TD.AperFunction*%
%TA.AperFunction,EtchedComponent*%
G36*
X147125000Y-92525000D02*
G01*
X147125000Y-92725000D01*
X147100000Y-92750000D01*
X146900000Y-92750000D01*
X146875000Y-92725000D01*
X146875000Y-92525000D01*
X146900000Y-92500000D01*
X147100000Y-92500000D01*
X147125000Y-92525000D01*
G37*
%TD.AperFunction*%
%TA.AperFunction,EtchedComponent*%
G36*
X152125000Y-92525000D02*
G01*
X152125000Y-92725000D01*
X152100000Y-92750000D01*
X151900000Y-92750000D01*
X151875000Y-92725000D01*
X151875000Y-92525000D01*
X151900000Y-92500000D01*
X152100000Y-92500000D01*
X152125000Y-92525000D01*
G37*
%TD.AperFunction*%
%TA.AperFunction,EtchedComponent*%
%TO.C,J1*%
G36*
X96625000Y-92525000D02*
G01*
X96625000Y-92725000D01*
X96600000Y-92750000D01*
X96400000Y-92750000D01*
X96375000Y-92725000D01*
X96375000Y-92525000D01*
X96400000Y-92500000D01*
X96600000Y-92500000D01*
X96625000Y-92525000D01*
G37*
%TD.AperFunction*%
%TA.AperFunction,EtchedComponent*%
G36*
X101625000Y-92525000D02*
G01*
X101625000Y-92725000D01*
X101600000Y-92750000D01*
X101400000Y-92750000D01*
X101375000Y-92725000D01*
X101375000Y-92525000D01*
X101400000Y-92500000D01*
X101600000Y-92500000D01*
X101625000Y-92525000D01*
G37*
%TD.AperFunction*%
%TA.AperFunction,EtchedComponent*%
G36*
X110125000Y-92525000D02*
G01*
X110125000Y-92725000D01*
X110100000Y-92750000D01*
X109900000Y-92750000D01*
X109875000Y-92725000D01*
X109875000Y-92525000D01*
X109900000Y-92500000D01*
X110100000Y-92500000D01*
X110125000Y-92525000D01*
G37*
%TD.AperFunction*%
%TA.AperFunction,EtchedComponent*%
G36*
X115125000Y-92525000D02*
G01*
X115125000Y-92725000D01*
X115100000Y-92750000D01*
X114900000Y-92750000D01*
X114875000Y-92725000D01*
X114875000Y-92525000D01*
X114900000Y-92500000D01*
X115100000Y-92500000D01*
X115125000Y-92525000D01*
G37*
%TD.AperFunction*%
%TA.AperFunction,EtchedComponent*%
G36*
X120125000Y-92525000D02*
G01*
X120125000Y-92725000D01*
X120100000Y-92750000D01*
X119900000Y-92750000D01*
X119875000Y-92725000D01*
X119875000Y-92525000D01*
X119900000Y-92500000D01*
X120100000Y-92500000D01*
X120125000Y-92525000D01*
G37*
%TD.AperFunction*%
%TA.AperFunction,EtchedComponent*%
%TO.C,J3*%
G36*
X160625000Y-92525000D02*
G01*
X160625000Y-92725000D01*
X160600000Y-92750000D01*
X160400000Y-92750000D01*
X160375000Y-92725000D01*
X160375000Y-92525000D01*
X160400000Y-92500000D01*
X160600000Y-92500000D01*
X160625000Y-92525000D01*
G37*
%TD.AperFunction*%
%TA.AperFunction,EtchedComponent*%
G36*
X165625000Y-92525000D02*
G01*
X165625000Y-92725000D01*
X165600000Y-92750000D01*
X165400000Y-92750000D01*
X165375000Y-92725000D01*
X165375000Y-92525000D01*
X165400000Y-92500000D01*
X165600000Y-92500000D01*
X165625000Y-92525000D01*
G37*
%TD.AperFunction*%
%TA.AperFunction,EtchedComponent*%
G36*
X174125000Y-92525000D02*
G01*
X174125000Y-92725000D01*
X174100000Y-92750000D01*
X173900000Y-92750000D01*
X173875000Y-92725000D01*
X173875000Y-92525000D01*
X173900000Y-92500000D01*
X174100000Y-92500000D01*
X174125000Y-92525000D01*
G37*
%TD.AperFunction*%
%TA.AperFunction,EtchedComponent*%
G36*
X179125000Y-92525000D02*
G01*
X179125000Y-92725000D01*
X179100000Y-92750000D01*
X178900000Y-92750000D01*
X178875000Y-92725000D01*
X178875000Y-92525000D01*
X178900000Y-92500000D01*
X179100000Y-92500000D01*
X179125000Y-92525000D01*
G37*
%TD.AperFunction*%
%TA.AperFunction,EtchedComponent*%
G36*
X184125000Y-92525000D02*
G01*
X184125000Y-92725000D01*
X184100000Y-92750000D01*
X183900000Y-92750000D01*
X183875000Y-92725000D01*
X183875000Y-92525000D01*
X183900000Y-92500000D01*
X184100000Y-92500000D01*
X184125000Y-92525000D01*
G37*
%TD.AperFunction*%
%TD*%
D10*
%TO.P,J6,1,3V3*%
%TO.N,+3V3*%
X102710000Y-70980000D03*
D11*
%TO.P,J6,2,GND*%
%TO.N,GND*%
X102710000Y-73535000D03*
%TO.P,J6,3,SDA*%
%TO.N,SDA*%
X105250000Y-70980000D03*
%TO.P,J6,4,SCL*%
%TO.N,SCL*%
X105250000Y-73535000D03*
%TO.P,J6,5,IO1*%
%TO.N,LED_DIN*%
X107790000Y-70980000D03*
%TO.P,J6,6,IO2*%
%TO.N,SWIO*%
X107790000Y-73535000D03*
%TD*%
D12*
%TO.P,J2,1,C*%
%TO.N,X1Y4*%
X125750000Y-88000000D03*
D13*
%TO.P,J2,2,C#*%
%TO.N,X1Y5*%
X128500000Y-88000000D03*
D14*
%TO.P,J2,3,D*%
%TO.N,X1Y6*%
X131000000Y-88000000D03*
D15*
%TO.P,J2,4,D#*%
%TO.N,X1Y7*%
X133500000Y-88000000D03*
D16*
%TO.P,J2,5,E*%
%TO.N,X2Y0*%
X136250000Y-88000000D03*
D17*
%TO.P,J2,6,F*%
%TO.N,X2Y1*%
X139250000Y-88000000D03*
D18*
%TO.P,J2,7,F#*%
%TO.N,X2Y2*%
X142000000Y-88000000D03*
D19*
%TO.P,J2,8,G*%
%TO.N,X2Y3*%
X144500000Y-88000000D03*
D20*
%TO.P,J2,9,G#*%
%TO.N,X2Y4*%
X147000000Y-88000000D03*
D21*
%TO.P,J2,10,A*%
%TO.N,X2Y5*%
X149500000Y-88000000D03*
D22*
%TO.P,J2,11,A#*%
%TO.N,X2Y6*%
X152000000Y-88000000D03*
D23*
%TO.P,J2,12,B*%
%TO.N,X2Y7*%
X154750000Y-88000000D03*
%TD*%
D24*
%TO.P,D3,1,VDD*%
%TO.N,+3V3*%
X137700000Y-71650000D03*
%TO.P,D3,2,DOUT*%
%TO.N,Net-(D3-DOUT)*%
X137700000Y-68350000D03*
%TO.P,D3,3,VSS*%
%TO.N,GND*%
X132800000Y-68350000D03*
%TO.P,D3,4,DIN*%
%TO.N,Net-(D2-DOUT)*%
X132800000Y-71650000D03*
%TD*%
%TO.P,D2,1,VDD*%
%TO.N,+3V3*%
X127700000Y-71650000D03*
%TO.P,D2,2,DOUT*%
%TO.N,Net-(D2-DOUT)*%
X127700000Y-68350000D03*
%TO.P,D2,3,VSS*%
%TO.N,GND*%
X122800000Y-68350000D03*
%TO.P,D2,4,DIN*%
%TO.N,Net-(D1-DOUT)*%
X122800000Y-71650000D03*
%TD*%
%TO.P,D6,1,VDD*%
%TO.N,+3V3*%
X167700000Y-71650000D03*
%TO.P,D6,2,DOUT*%
%TO.N,unconnected-(D6-DOUT-Pad2)*%
X167700000Y-68350000D03*
%TO.P,D6,3,VSS*%
%TO.N,GND*%
X162800000Y-68350000D03*
%TO.P,D6,4,DIN*%
%TO.N,Net-(D5-DOUT)*%
X162800000Y-71650000D03*
%TD*%
D12*
%TO.P,J1,1,C*%
%TO.N,X0Y0*%
X93750000Y-88000000D03*
D13*
%TO.P,J1,2,C#*%
%TO.N,X0Y1*%
X96500000Y-88000000D03*
D14*
%TO.P,J1,3,D*%
%TO.N,X0Y2*%
X99000000Y-88000000D03*
D15*
%TO.P,J1,4,D#*%
%TO.N,X0Y3*%
X101500000Y-88000000D03*
D16*
%TO.P,J1,5,E*%
%TO.N,X0Y4*%
X104250000Y-88000000D03*
D17*
%TO.P,J1,6,F*%
%TO.N,X0Y5*%
X107250000Y-88000000D03*
D18*
%TO.P,J1,7,F#*%
%TO.N,X0Y6*%
X110000000Y-88000000D03*
D19*
%TO.P,J1,8,G*%
%TO.N,X0Y7*%
X112500000Y-88000000D03*
D20*
%TO.P,J1,9,G#*%
%TO.N,X1Y0*%
X115000000Y-88000000D03*
D21*
%TO.P,J1,10,A*%
%TO.N,X1Y1*%
X117500000Y-88000000D03*
D22*
%TO.P,J1,11,A#*%
%TO.N,X1Y2*%
X120000000Y-88000000D03*
D23*
%TO.P,J1,12,B*%
%TO.N,X1Y3*%
X122750000Y-88000000D03*
%TD*%
D25*
%TO.P,H2,1,1*%
%TO.N,GND*%
X93100000Y-69250000D03*
X93583274Y-68083274D03*
X93583274Y-70416726D03*
X94750000Y-67600000D03*
D26*
X94750000Y-69250000D03*
D25*
X94750000Y-70900000D03*
X95916726Y-68083274D03*
X95916726Y-70416726D03*
X96400000Y-69250000D03*
%TD*%
%TO.P,H1,1,1*%
%TO.N,GND*%
X184100000Y-69250000D03*
X184583274Y-68083274D03*
X184583274Y-70416726D03*
X185750000Y-67600000D03*
D26*
X185750000Y-69250000D03*
D25*
X185750000Y-70900000D03*
X186916726Y-68083274D03*
X186916726Y-70416726D03*
X187400000Y-69250000D03*
%TD*%
D24*
%TO.P,D1,1,VDD*%
%TO.N,+3V3*%
X117700000Y-71650000D03*
%TO.P,D1,2,DOUT*%
%TO.N,Net-(D1-DOUT)*%
X117700000Y-68350000D03*
%TO.P,D1,3,VSS*%
%TO.N,GND*%
X112800000Y-68350000D03*
%TO.P,D1,4,DIN*%
%TO.N,LED_DIN*%
X112800000Y-71650000D03*
%TD*%
%TO.P,D5,1,VDD*%
%TO.N,+3V3*%
X157700000Y-71650000D03*
%TO.P,D5,2,DOUT*%
%TO.N,Net-(D5-DOUT)*%
X157700000Y-68350000D03*
%TO.P,D5,3,VSS*%
%TO.N,GND*%
X152800000Y-68350000D03*
%TO.P,D5,4,DIN*%
%TO.N,Net-(D4-DOUT)*%
X152800000Y-71650000D03*
%TD*%
D12*
%TO.P,J3,1,C*%
%TO.N,X3Y0*%
X157750000Y-88000000D03*
D13*
%TO.P,J3,2,C#*%
%TO.N,X3Y1*%
X160500000Y-88000000D03*
D14*
%TO.P,J3,3,D*%
%TO.N,X3Y2*%
X163000000Y-88000000D03*
D15*
%TO.P,J3,4,D#*%
%TO.N,X3Y3*%
X165500000Y-88000000D03*
D16*
%TO.P,J3,5,E*%
%TO.N,X3Y4*%
X168250000Y-88000000D03*
D17*
%TO.P,J3,6,F*%
%TO.N,X3Y5*%
X171250000Y-88000000D03*
D18*
%TO.P,J3,7,F#*%
%TO.N,X3Y6*%
X174000000Y-88000000D03*
D19*
%TO.P,J3,8,G*%
%TO.N,X3Y7*%
X176500000Y-88000000D03*
D20*
%TO.P,J3,9,G#*%
%TO.N,X4Y0*%
X179000000Y-88000000D03*
D21*
%TO.P,J3,10,A*%
%TO.N,X4Y1*%
X181500000Y-88000000D03*
D22*
%TO.P,J3,11,A#*%
%TO.N,X4Y2*%
X184000000Y-88000000D03*
D23*
%TO.P,J3,12,B*%
%TO.N,X4Y3*%
X186750000Y-88000000D03*
%TD*%
D24*
%TO.P,D4,1,VDD*%
%TO.N,+3V3*%
X147700000Y-71650000D03*
%TO.P,D4,2,DOUT*%
%TO.N,Net-(D4-DOUT)*%
X147700000Y-68350000D03*
%TO.P,D4,3,VSS*%
%TO.N,GND*%
X142800000Y-68350000D03*
%TO.P,D4,4,DIN*%
%TO.N,Net-(D3-DOUT)*%
X142800000Y-71650000D03*
%TD*%
D27*
%TO.N,+3V3*%
X120250000Y-85500000D03*
X161500000Y-85500000D03*
X142000000Y-85500000D03*
X186750000Y-85500000D03*
X170500000Y-85500000D03*
X112000000Y-85500000D03*
X149350000Y-72500000D03*
X106500000Y-85500000D03*
X184000000Y-85500000D03*
X149500000Y-85500000D03*
X116750000Y-70200000D03*
X128000000Y-85500000D03*
%TO.N,GND*%
X157250000Y-76250000D03*
X157250000Y-74250000D03*
X170500000Y-76750000D03*
X115250000Y-74250000D03*
X153000000Y-74250000D03*
X116250000Y-67750000D03*
X153000000Y-76750000D03*
X165250000Y-70000000D03*
X116250000Y-68750000D03*
X114250000Y-74250000D03*
X99000000Y-81250000D03*
X99000000Y-84250000D03*
X133000000Y-74250000D03*
X181500000Y-78000000D03*
X97500000Y-82750000D03*
X99000000Y-82750000D03*
X184000000Y-83500000D03*
X97500000Y-81250000D03*
X145250000Y-70000000D03*
X155250000Y-70000000D03*
X125250000Y-70000000D03*
X135250000Y-70000000D03*
X97500000Y-84250000D03*
X113250000Y-74250000D03*
%TO.N,SDA*%
X117750000Y-76750000D03*
X106500000Y-76750000D03*
X125500000Y-76750000D03*
%TO.N,SCL*%
X118750000Y-75250000D03*
X125500000Y-75250000D03*
X116500000Y-75250000D03*
X142500000Y-75250000D03*
%TO.N,X0Y0*%
X93750000Y-94500000D03*
%TO.N,X0Y1*%
X96500000Y-94500000D03*
%TO.N,X0Y2*%
X99000000Y-94500000D03*
%TO.N,X0Y3*%
X101500000Y-94500000D03*
%TO.N,X0Y4*%
X104250000Y-94500000D03*
%TO.N,X0Y5*%
X107250000Y-94500000D03*
%TO.N,X0Y6*%
X110000000Y-94500000D03*
%TO.N,X0Y7*%
X112500000Y-94500000D03*
%TO.N,X1Y0*%
X115000000Y-94500000D03*
%TO.N,X1Y1*%
X117500000Y-94500000D03*
%TO.N,X1Y2*%
X120000000Y-94500000D03*
%TO.N,X1Y3*%
X122750000Y-94500000D03*
%TO.N,X1Y4*%
X125750000Y-94500000D03*
%TO.N,X1Y5*%
X128500000Y-94500000D03*
%TO.N,X1Y6*%
X131000000Y-94500000D03*
%TO.N,X1Y7*%
X133500000Y-94500000D03*
%TO.N,X2Y0*%
X136250000Y-94500000D03*
%TO.N,X2Y1*%
X139250000Y-94500000D03*
%TO.N,X2Y2*%
X142000000Y-94500000D03*
%TO.N,X2Y3*%
X144500000Y-94500000D03*
%TO.N,X2Y4*%
X147000000Y-94500000D03*
%TO.N,X2Y5*%
X149500000Y-94500000D03*
%TO.N,X2Y6*%
X152000000Y-94500000D03*
%TO.N,X2Y7*%
X154750000Y-94500000D03*
%TO.N,X3Y0*%
X157750000Y-94500000D03*
%TO.N,X3Y1*%
X160500000Y-94500000D03*
%TO.N,X3Y2*%
X163000000Y-94500000D03*
%TO.N,X3Y3*%
X165500000Y-94500000D03*
%TO.N,X3Y4*%
X168250000Y-94500000D03*
%TO.N,X3Y5*%
X171250000Y-94500000D03*
%TO.N,X3Y6*%
X174000000Y-94500000D03*
%TO.N,X3Y7*%
X176500000Y-94500000D03*
%TO.N,X4Y0*%
X179000000Y-94500000D03*
%TO.N,X4Y1*%
X181500000Y-94500000D03*
%TO.N,X4Y2*%
X184000000Y-94500000D03*
%TO.N,X4Y3*%
X186750000Y-94500000D03*
%TO.N,Y7*%
X168450000Y-84500000D03*
X104450000Y-84500000D03*
X147450000Y-84500000D03*
X157125000Y-84500000D03*
X125950000Y-84500000D03*
X181950000Y-84500000D03*
%TO.N,Y6*%
X146800000Y-83500000D03*
X181300000Y-83500000D03*
X103800000Y-83500000D03*
X125300000Y-83500000D03*
X167800000Y-83500000D03*
%TO.N,Y5*%
X146150000Y-82500000D03*
X103150000Y-82500000D03*
X124650000Y-82500000D03*
X180650000Y-82500000D03*
X167150000Y-82500000D03*
%TO.N,Y4*%
X166500000Y-81500000D03*
X102500000Y-81500000D03*
X180000000Y-81500000D03*
X124000000Y-81500000D03*
X145500000Y-81500000D03*
%TO.N,Y3*%
X165850000Y-80500000D03*
X179350000Y-80500000D03*
X101850000Y-80500000D03*
X144850000Y-80500000D03*
X123350000Y-80500000D03*
%TO.N,Y2*%
X178700000Y-79500000D03*
X101200000Y-79500000D03*
X165200000Y-79500000D03*
X144200000Y-79500000D03*
X160750000Y-79500000D03*
X122700000Y-79500000D03*
%TO.N,Y1*%
X143550000Y-78500000D03*
X100550000Y-78500000D03*
X178050000Y-78500000D03*
X122050000Y-78500000D03*
X164550000Y-78500000D03*
X160000000Y-78500000D03*
%TO.N,Y0*%
X177425000Y-77500000D03*
X99925000Y-77500000D03*
X163925000Y-77500000D03*
X147500000Y-77500000D03*
X121425000Y-77500000D03*
X142925000Y-77500000D03*
%TO.N,X1*%
X126750000Y-76750000D03*
X161500000Y-76750000D03*
%TO.N,X0*%
X149250000Y-76000000D03*
X105250000Y-76000000D03*
%TO.N,SWIO*%
X146750000Y-73500000D03*
%TD*%
D28*
%TO.N,+3V3*%
X137700000Y-72500000D02*
X147700000Y-72500000D01*
X106500000Y-85500000D02*
X112000000Y-85500000D01*
X157700000Y-71650000D02*
X157700000Y-72500000D01*
X112000000Y-85500000D02*
X120250000Y-85500000D01*
X98250000Y-71000000D02*
X102690000Y-71000000D01*
X117700000Y-71650000D02*
X117700000Y-72000000D01*
X137700000Y-71650000D02*
X137700000Y-72500000D01*
X127700000Y-72500000D02*
X137700000Y-72500000D01*
X106500000Y-85500000D02*
X98250000Y-85500000D01*
X147700000Y-71650000D02*
X147700000Y-72500000D01*
X102690000Y-71000000D02*
X102710000Y-70980000D01*
X167700000Y-71650000D02*
X167700000Y-72000000D01*
X117700000Y-70700000D02*
X117700000Y-71650000D01*
X149350000Y-72500000D02*
X157700000Y-72500000D01*
X120250000Y-85500000D02*
X142000000Y-85500000D01*
X157700000Y-72500000D02*
X167200000Y-72500000D01*
X127700000Y-71650000D02*
X127700000Y-72500000D01*
X186750000Y-85500000D02*
X184000000Y-85500000D01*
X142000000Y-85500000D02*
X161500000Y-85500000D01*
X147700000Y-72500000D02*
X149350000Y-72500000D01*
X161500000Y-85500000D02*
X184000000Y-85500000D01*
X98250000Y-85500000D02*
X98250000Y-71000000D01*
X118200000Y-72500000D02*
X127700000Y-72500000D01*
X116750000Y-70200000D02*
X117200000Y-70200000D01*
X117700000Y-72000000D02*
G75*
G03*
X118200000Y-72500000I500000J0D01*
G01*
X117700000Y-70700000D02*
G75*
G03*
X117200000Y-70200000I-500000J0D01*
G01*
X167200000Y-72500000D02*
G75*
G03*
X167700000Y-72000000I0J500000D01*
G01*
%TO.N,SDA*%
X113000000Y-76750000D02*
X117750000Y-76750000D01*
X117750000Y-76750000D02*
X125500000Y-76750000D01*
X106500000Y-76750000D02*
X113000000Y-76750000D01*
%TO.N,SCL*%
X118750000Y-75250000D02*
X106965000Y-75250000D01*
X106965000Y-75250000D02*
X105250000Y-73535000D01*
X118750000Y-75250000D02*
X142500000Y-75250000D01*
%TO.N,Net-(D1-DOUT)*%
X119646447Y-68496447D02*
X122800000Y-71650000D01*
X117700000Y-68350000D02*
X119292893Y-68350000D01*
X119646450Y-68496444D02*
G75*
G03*
X119292893Y-68350000I-353550J-353556D01*
G01*
%TO.N,Y7*%
X104450000Y-84500000D02*
X157125000Y-84500000D01*
X157125000Y-84500000D02*
X181950000Y-84500000D01*
%TO.N,Y6*%
X103825000Y-83500000D02*
X181325000Y-83500000D01*
%TO.N,Y5*%
X103150000Y-82500000D02*
X180650000Y-82500000D01*
%TO.N,Y4*%
X102500000Y-81500000D02*
X180000000Y-81500000D01*
%TO.N,Y3*%
X101850000Y-80500000D02*
X179350000Y-80500000D01*
%TO.N,Y2*%
X101200000Y-79500000D02*
X160750000Y-79500000D01*
X160750000Y-79500000D02*
X178700000Y-79500000D01*
%TO.N,Y1*%
X160000000Y-78500000D02*
X178050000Y-78500000D01*
X100550000Y-78500000D02*
X160000000Y-78500000D01*
%TO.N,Y0*%
X147500000Y-77500000D02*
X177425000Y-77500000D01*
X99925000Y-77500000D02*
X147500000Y-77500000D01*
%TO.N,X1*%
X151500000Y-76750000D02*
X126750000Y-76750000D01*
X161500000Y-75750000D02*
X161500000Y-76750000D01*
X152000000Y-76250000D02*
X152000000Y-75750000D01*
X152500000Y-75250000D02*
X161000000Y-75250000D01*
X161500000Y-75750000D02*
G75*
G03*
X161000000Y-75250000I-500000J0D01*
G01*
X151500000Y-76750000D02*
G75*
G03*
X152000000Y-76250000I0J500000D01*
G01*
X152500000Y-75250000D02*
G75*
G03*
X152000000Y-75750000I0J-500000D01*
G01*
%TO.N,X0*%
X105250000Y-76000000D02*
X149250000Y-76000000D01*
%TO.N,LED_DIN*%
X112800000Y-71650000D02*
X108667107Y-71650000D01*
X108313553Y-71503553D02*
X107790000Y-70980000D01*
X108313550Y-71503556D02*
G75*
G03*
X108667107Y-71650000I353550J353556D01*
G01*
%TO.N,Net-(D2-DOUT)*%
X127700000Y-68350000D02*
X129292893Y-68350000D01*
X129646447Y-68496447D02*
X132800000Y-71650000D01*
X129646450Y-68496444D02*
G75*
G03*
X129292893Y-68350000I-353550J-353556D01*
G01*
%TO.N,Net-(D3-DOUT)*%
X137700000Y-68350000D02*
X139292893Y-68350000D01*
X139646447Y-68496447D02*
X142800000Y-71650000D01*
X139646450Y-68496444D02*
G75*
G03*
X139292893Y-68350000I-353550J-353556D01*
G01*
%TO.N,Net-(D4-DOUT)*%
X149646447Y-68496447D02*
X152800000Y-71650000D01*
X147700000Y-68350000D02*
X149292893Y-68350000D01*
X149646450Y-68496444D02*
G75*
G03*
X149292893Y-68350000I-353550J-353556D01*
G01*
%TO.N,Net-(D5-DOUT)*%
X157700000Y-68350000D02*
X159292893Y-68350000D01*
X159646447Y-68496447D02*
X162800000Y-71650000D01*
X159646450Y-68496444D02*
G75*
G03*
X159292893Y-68350000I-353550J-353556D01*
G01*
%TO.N,SWIO*%
X107825000Y-73500000D02*
X107790000Y-73535000D01*
X146750000Y-73500000D02*
X107825000Y-73500000D01*
%TD*%
%TA.AperFunction,Conductor*%
%TO.N,GND*%
G36*
X184014787Y-66970185D02*
G01*
X184060542Y-67022989D01*
X184070486Y-67092147D01*
X184041461Y-67155703D01*
X184025039Y-67171332D01*
X184025030Y-67171477D01*
X185166693Y-68313140D01*
X185152590Y-68320411D01*
X184987460Y-68450271D01*
X184849890Y-68609035D01*
X184815334Y-68668887D01*
X184275370Y-68128923D01*
X184383274Y-68128923D01*
X184422887Y-68211179D01*
X184494266Y-68268101D01*
X184560742Y-68283274D01*
X184605806Y-68283274D01*
X184672282Y-68268101D01*
X184743661Y-68211179D01*
X184783274Y-68128923D01*
X184783274Y-68037625D01*
X184743661Y-67955369D01*
X184672282Y-67898447D01*
X184605806Y-67883274D01*
X184560742Y-67883274D01*
X184494266Y-67898447D01*
X184422887Y-67955369D01*
X184383274Y-68037625D01*
X184383274Y-68128923D01*
X184275370Y-68128923D01*
X183671477Y-67525030D01*
X183671476Y-67525030D01*
X183523881Y-67713423D01*
X183354898Y-67992956D01*
X183354897Y-67992958D01*
X183220839Y-68290824D01*
X183220835Y-68290835D01*
X183123667Y-68602658D01*
X183064786Y-68923961D01*
X183045065Y-69249999D01*
X183064786Y-69576038D01*
X183123667Y-69897341D01*
X183220835Y-70209164D01*
X183220839Y-70209175D01*
X183354897Y-70507041D01*
X183354898Y-70507043D01*
X183523887Y-70786586D01*
X183671477Y-70974968D01*
X184184070Y-70462375D01*
X184383274Y-70462375D01*
X184422887Y-70544631D01*
X184494266Y-70601553D01*
X184560742Y-70616726D01*
X184605806Y-70616726D01*
X184672282Y-70601553D01*
X184743661Y-70544631D01*
X184783274Y-70462375D01*
X184783274Y-70371077D01*
X184743661Y-70288821D01*
X184672282Y-70231899D01*
X184605806Y-70216726D01*
X184560742Y-70216726D01*
X184494266Y-70231899D01*
X184422887Y-70288821D01*
X184383274Y-70371077D01*
X184383274Y-70462375D01*
X184184070Y-70462375D01*
X184814211Y-69832235D01*
X184914894Y-69973624D01*
X185066932Y-70118592D01*
X185169222Y-70184330D01*
X184025030Y-71328521D01*
X184025030Y-71328522D01*
X184213414Y-71476112D01*
X184213423Y-71476118D01*
X184492956Y-71645101D01*
X184492958Y-71645102D01*
X184790824Y-71779160D01*
X184790835Y-71779164D01*
X185102658Y-71876332D01*
X185423961Y-71935213D01*
X185749999Y-71954934D01*
X186076038Y-71935213D01*
X186397341Y-71876332D01*
X186709164Y-71779164D01*
X186709175Y-71779160D01*
X187007041Y-71645102D01*
X187007043Y-71645101D01*
X187286576Y-71476118D01*
X187286584Y-71476112D01*
X187474968Y-71328522D01*
X187474968Y-71328521D01*
X186608822Y-70462375D01*
X186716726Y-70462375D01*
X186756339Y-70544631D01*
X186827718Y-70601553D01*
X186894194Y-70616726D01*
X186939258Y-70616726D01*
X187005734Y-70601553D01*
X187077113Y-70544631D01*
X187116726Y-70462375D01*
X187116726Y-70371077D01*
X187077113Y-70288821D01*
X187005734Y-70231899D01*
X186939258Y-70216726D01*
X186894194Y-70216726D01*
X186827718Y-70231899D01*
X186756339Y-70288821D01*
X186716726Y-70371077D01*
X186716726Y-70462375D01*
X186608822Y-70462375D01*
X186333306Y-70186859D01*
X186347410Y-70179589D01*
X186512540Y-70049729D01*
X186650110Y-69890965D01*
X186684665Y-69831112D01*
X187828521Y-70974968D01*
X187829065Y-70974935D01*
X187884728Y-70935144D01*
X187954513Y-70931691D01*
X188015086Y-70966514D01*
X188047216Y-71028558D01*
X188049500Y-71052249D01*
X188049500Y-86226993D01*
X188029815Y-86294032D01*
X187977011Y-86339787D01*
X187907853Y-86349731D01*
X187856608Y-86330094D01*
X187828231Y-86311132D01*
X187828229Y-86311131D01*
X187750004Y-86295572D01*
X187750000Y-86295572D01*
X187021892Y-86295572D01*
X186954853Y-86275887D01*
X186909098Y-86223083D01*
X186899154Y-86153925D01*
X186928179Y-86090369D01*
X186974438Y-86057011D01*
X187052841Y-86024536D01*
X187178282Y-85928282D01*
X187274536Y-85802841D01*
X187335044Y-85656762D01*
X187355682Y-85500000D01*
X187335044Y-85343238D01*
X187274536Y-85197159D01*
X187178282Y-85071718D01*
X187052841Y-84975464D01*
X186996493Y-84952124D01*
X186906762Y-84914956D01*
X186906760Y-84914955D01*
X186750001Y-84894318D01*
X186749999Y-84894318D01*
X186593239Y-84914955D01*
X186593237Y-84914956D01*
X186447160Y-84975463D01*
X186321716Y-85071719D01*
X186280077Y-85125986D01*
X186223649Y-85167189D01*
X186181701Y-85174500D01*
X184568299Y-85174500D01*
X184501260Y-85154815D01*
X184469923Y-85125986D01*
X184428283Y-85071719D01*
X184345962Y-85008552D01*
X184302841Y-84975464D01*
X184246493Y-84952124D01*
X184156762Y-84914956D01*
X184156760Y-84914955D01*
X184000001Y-84894318D01*
X183999999Y-84894318D01*
X183843239Y-84914955D01*
X183843237Y-84914956D01*
X183697160Y-84975463D01*
X183571716Y-85071719D01*
X183530077Y-85125986D01*
X183473649Y-85167189D01*
X183431701Y-85174500D01*
X182422696Y-85174500D01*
X182355657Y-85154815D01*
X182309902Y-85102011D01*
X182299958Y-85032853D01*
X182328983Y-84969297D01*
X182347210Y-84952124D01*
X182378282Y-84928282D01*
X182474536Y-84802841D01*
X182535044Y-84656762D01*
X182555682Y-84500000D01*
X182535044Y-84343238D01*
X182474536Y-84197159D01*
X182378282Y-84071718D01*
X182252841Y-83975464D01*
X182106762Y-83914956D01*
X182085536Y-83912161D01*
X181955308Y-83895016D01*
X181891412Y-83866749D01*
X181852941Y-83808424D01*
X181852110Y-83738560D01*
X181856928Y-83724637D01*
X181885044Y-83656762D01*
X181905682Y-83500000D01*
X181885044Y-83343238D01*
X181824536Y-83197159D01*
X181728282Y-83071718D01*
X181602841Y-82975464D01*
X181456762Y-82914956D01*
X181435536Y-82912161D01*
X181305308Y-82895016D01*
X181241412Y-82866749D01*
X181202941Y-82808424D01*
X181202110Y-82738560D01*
X181206928Y-82724637D01*
X181235044Y-82656762D01*
X181255682Y-82500000D01*
X181235044Y-82343238D01*
X181174536Y-82197159D01*
X181078282Y-82071718D01*
X180952841Y-81975464D01*
X180806762Y-81914956D01*
X180785536Y-81912161D01*
X180655308Y-81895016D01*
X180591412Y-81866749D01*
X180552941Y-81808424D01*
X180552110Y-81738560D01*
X180556928Y-81724637D01*
X180585044Y-81656762D01*
X180605682Y-81500000D01*
X180585044Y-81343238D01*
X180524536Y-81197159D01*
X180428282Y-81071718D01*
X180302841Y-80975464D01*
X180156762Y-80914956D01*
X180135536Y-80912161D01*
X180005308Y-80895016D01*
X179941412Y-80866749D01*
X179902941Y-80808424D01*
X179902110Y-80738560D01*
X179906928Y-80724637D01*
X179935044Y-80656762D01*
X179955682Y-80500000D01*
X179935044Y-80343238D01*
X179874536Y-80197159D01*
X179778282Y-80071718D01*
X179652841Y-79975464D01*
X179506762Y-79914956D01*
X179485536Y-79912161D01*
X179355308Y-79895016D01*
X179291412Y-79866749D01*
X179252941Y-79808424D01*
X179252110Y-79738560D01*
X179256928Y-79724637D01*
X179285044Y-79656762D01*
X179305682Y-79500000D01*
X179285044Y-79343238D01*
X179224536Y-79197159D01*
X179128282Y-79071718D01*
X179002841Y-78975464D01*
X178856762Y-78914956D01*
X178835536Y-78912161D01*
X178705308Y-78895016D01*
X178641412Y-78866749D01*
X178602941Y-78808424D01*
X178602110Y-78738560D01*
X178606928Y-78724637D01*
X178635044Y-78656762D01*
X178655682Y-78500000D01*
X178635044Y-78343238D01*
X178574536Y-78197159D01*
X178478282Y-78071718D01*
X178352841Y-77975464D01*
X178296493Y-77952124D01*
X178206762Y-77914956D01*
X178206760Y-77914955D01*
X178079017Y-77898138D01*
X178015120Y-77869871D01*
X177976649Y-77811547D01*
X177975818Y-77741682D01*
X177980641Y-77727746D01*
X178010044Y-77656762D01*
X178030682Y-77500000D01*
X178010044Y-77343238D01*
X177949536Y-77197159D01*
X177853282Y-77071718D01*
X177727841Y-76975464D01*
X177581762Y-76914956D01*
X177581760Y-76914955D01*
X177425001Y-76894318D01*
X177424999Y-76894318D01*
X177268239Y-76914955D01*
X177268237Y-76914956D01*
X177122160Y-76975463D01*
X176996716Y-77071719D01*
X176955077Y-77125986D01*
X176898649Y-77167189D01*
X176856701Y-77174500D01*
X164493299Y-77174500D01*
X164426260Y-77154815D01*
X164394923Y-77125986D01*
X164353283Y-77071719D01*
X164302632Y-77032853D01*
X164227841Y-76975464D01*
X164081762Y-76914956D01*
X164081760Y-76914955D01*
X163925001Y-76894318D01*
X163924999Y-76894318D01*
X163768239Y-76914955D01*
X163768237Y-76914956D01*
X163622160Y-76975463D01*
X163496716Y-77071719D01*
X163455077Y-77125986D01*
X163398649Y-77167189D01*
X163356701Y-77174500D01*
X162159722Y-77174500D01*
X162092683Y-77154815D01*
X162046928Y-77102011D01*
X162036984Y-77032853D01*
X162045161Y-77003047D01*
X162085044Y-76906762D01*
X162105682Y-76750000D01*
X162085044Y-76593238D01*
X162024536Y-76447159D01*
X161928282Y-76321718D01*
X161928280Y-76321716D01*
X161928279Y-76321715D01*
X161874012Y-76280074D01*
X161832810Y-76223646D01*
X161825500Y-76181699D01*
X161825500Y-75668692D01*
X161793777Y-75509216D01*
X161793776Y-75509215D01*
X161793776Y-75509211D01*
X161774560Y-75462819D01*
X161731549Y-75358980D01*
X161731547Y-75358976D01*
X161641211Y-75223779D01*
X161641205Y-75223771D01*
X161526228Y-75108794D01*
X161526220Y-75108788D01*
X161391023Y-75018452D01*
X161391019Y-75018450D01*
X161240793Y-74956225D01*
X161240783Y-74956222D01*
X161081307Y-74924500D01*
X161081305Y-74924500D01*
X161028475Y-74924500D01*
X152551554Y-74924500D01*
X152500000Y-74924500D01*
X152418695Y-74924500D01*
X152418693Y-74924500D01*
X152259216Y-74956222D01*
X152259206Y-74956225D01*
X152108980Y-75018450D01*
X152108976Y-75018452D01*
X151973779Y-75108788D01*
X151973771Y-75108794D01*
X151858794Y-75223771D01*
X151858788Y-75223779D01*
X151768452Y-75358976D01*
X151768450Y-75358980D01*
X151706225Y-75509206D01*
X151706222Y-75509216D01*
X151674500Y-75668692D01*
X151674500Y-76237789D01*
X151672117Y-76261981D01*
X151666029Y-76292586D01*
X151647516Y-76337282D01*
X151637095Y-76352879D01*
X151602879Y-76387095D01*
X151587282Y-76397516D01*
X151542585Y-76416029D01*
X151511979Y-76422117D01*
X151487789Y-76424500D01*
X149909722Y-76424500D01*
X149842683Y-76404815D01*
X149796928Y-76352011D01*
X149786984Y-76282853D01*
X149795161Y-76253047D01*
X149801481Y-76237789D01*
X149835044Y-76156762D01*
X149855682Y-76000000D01*
X149835044Y-75843238D01*
X149774536Y-75697159D01*
X149678282Y-75571718D01*
X149552841Y-75475464D01*
X149522313Y-75462819D01*
X149406762Y-75414956D01*
X149406760Y-75414955D01*
X149250001Y-75394318D01*
X149249999Y-75394318D01*
X149093239Y-75414955D01*
X149093237Y-75414956D01*
X148947160Y-75475463D01*
X148821716Y-75571719D01*
X148780077Y-75625986D01*
X148723649Y-75667189D01*
X148681701Y-75674500D01*
X143159722Y-75674500D01*
X143092683Y-75654815D01*
X143046928Y-75602011D01*
X143036984Y-75532853D01*
X143045161Y-75503047D01*
X143085044Y-75406762D01*
X143105682Y-75250000D01*
X143102229Y-75223775D01*
X143085044Y-75093239D01*
X143085044Y-75093238D01*
X143024536Y-74947159D01*
X142928282Y-74821718D01*
X142802841Y-74725464D01*
X142656762Y-74664956D01*
X142656760Y-74664955D01*
X142500001Y-74644318D01*
X142499999Y-74644318D01*
X142343239Y-74664955D01*
X142343237Y-74664956D01*
X142197160Y-74725463D01*
X142071716Y-74821719D01*
X142030077Y-74875986D01*
X141973649Y-74917189D01*
X141931701Y-74924500D01*
X126068299Y-74924500D01*
X126001260Y-74904815D01*
X125969923Y-74875986D01*
X125928283Y-74821719D01*
X125928282Y-74821718D01*
X125802841Y-74725464D01*
X125656762Y-74664956D01*
X125656760Y-74664955D01*
X125500001Y-74644318D01*
X125499999Y-74644318D01*
X125343239Y-74664955D01*
X125343237Y-74664956D01*
X125197160Y-74725463D01*
X125071716Y-74821719D01*
X125030077Y-74875986D01*
X124973649Y-74917189D01*
X124931701Y-74924500D01*
X119318299Y-74924500D01*
X119251260Y-74904815D01*
X119219923Y-74875986D01*
X119178283Y-74821719D01*
X119178282Y-74821718D01*
X119052841Y-74725464D01*
X118906762Y-74664956D01*
X118906760Y-74664955D01*
X118750001Y-74644318D01*
X118749999Y-74644318D01*
X118593239Y-74664955D01*
X118593237Y-74664956D01*
X118447160Y-74725463D01*
X118321716Y-74821719D01*
X118280077Y-74875986D01*
X118223649Y-74917189D01*
X118181701Y-74924500D01*
X117068299Y-74924500D01*
X117001260Y-74904815D01*
X116969923Y-74875986D01*
X116928283Y-74821719D01*
X116928282Y-74821718D01*
X116802841Y-74725464D01*
X116656762Y-74664956D01*
X116656760Y-74664955D01*
X116500001Y-74644318D01*
X116499999Y-74644318D01*
X116343239Y-74664955D01*
X116343237Y-74664956D01*
X116197160Y-74725463D01*
X116071716Y-74821719D01*
X116030077Y-74875986D01*
X115973649Y-74917189D01*
X115931701Y-74924500D01*
X107151189Y-74924500D01*
X107084150Y-74904815D01*
X107063508Y-74888181D01*
X106251321Y-74075994D01*
X106217836Y-74014671D01*
X106222820Y-73944979D01*
X106224448Y-73940843D01*
X106225223Y-73938969D01*
X106225232Y-73938954D01*
X106285300Y-73740934D01*
X106305583Y-73535000D01*
X106305583Y-73534999D01*
X106734417Y-73534999D01*
X106754699Y-73740932D01*
X106780689Y-73826610D01*
X106814768Y-73938954D01*
X106912315Y-74121450D01*
X106912317Y-74121452D01*
X107043589Y-74281410D01*
X107140209Y-74360702D01*
X107203550Y-74412685D01*
X107386046Y-74510232D01*
X107584066Y-74570300D01*
X107584065Y-74570300D01*
X107602529Y-74572118D01*
X107790000Y-74590583D01*
X107995934Y-74570300D01*
X108193954Y-74510232D01*
X108376450Y-74412685D01*
X108536410Y-74281410D01*
X108667685Y-74121450D01*
X108765232Y-73938954D01*
X108772952Y-73913503D01*
X108811249Y-73855066D01*
X108875061Y-73826610D01*
X108891612Y-73825500D01*
X146181701Y-73825500D01*
X146248740Y-73845185D01*
X146280076Y-73874013D01*
X146321718Y-73928282D01*
X146447159Y-74024536D01*
X146593238Y-74085044D01*
X146671619Y-74095363D01*
X146749999Y-74105682D01*
X146750000Y-74105682D01*
X146750001Y-74105682D01*
X146802254Y-74098802D01*
X146906762Y-74085044D01*
X147052841Y-74024536D01*
X147178282Y-73928282D01*
X147274536Y-73802841D01*
X147335044Y-73656762D01*
X147355682Y-73500000D01*
X147350825Y-73463111D01*
X147335044Y-73343239D01*
X147335044Y-73343238D01*
X147274536Y-73197159D01*
X147178282Y-73071718D01*
X147178280Y-73071717D01*
X147178280Y-73071716D01*
X147159837Y-73057564D01*
X147147209Y-73047875D01*
X147106007Y-72991448D01*
X147101852Y-72921702D01*
X147136064Y-72860782D01*
X147197781Y-72828029D01*
X147222696Y-72825500D01*
X147642606Y-72825500D01*
X147671525Y-72825500D01*
X148781701Y-72825500D01*
X148848740Y-72845185D01*
X148880077Y-72874014D01*
X148911492Y-72914956D01*
X148921718Y-72928282D01*
X149047159Y-73024536D01*
X149193238Y-73085044D01*
X149271619Y-73095363D01*
X149349999Y-73105682D01*
X149350000Y-73105682D01*
X149350001Y-73105682D01*
X149402254Y-73098802D01*
X149506762Y-73085044D01*
X149652841Y-73024536D01*
X149778282Y-72928282D01*
X149819923Y-72874013D01*
X149876351Y-72832811D01*
X149918299Y-72825500D01*
X167281307Y-72825500D01*
X167388598Y-72804157D01*
X167440789Y-72793776D01*
X167591021Y-72731548D01*
X167591023Y-72731547D01*
X167702119Y-72657315D01*
X167726225Y-72641208D01*
X167841208Y-72526225D01*
X167931548Y-72391021D01*
X167937335Y-72377048D01*
X167981175Y-72322645D01*
X168047469Y-72300579D01*
X168051897Y-72300500D01*
X168469750Y-72300500D01*
X168469751Y-72300499D01*
X168484568Y-72297552D01*
X168528229Y-72288868D01*
X168528229Y-72288867D01*
X168528231Y-72288867D01*
X168594552Y-72244552D01*
X168638867Y-72178231D01*
X168638867Y-72178229D01*
X168638868Y-72178229D01*
X168650499Y-72119752D01*
X168650500Y-72119750D01*
X168650500Y-71180249D01*
X168650499Y-71180247D01*
X168638868Y-71121770D01*
X168638867Y-71121769D01*
X168594552Y-71055447D01*
X168528230Y-71011132D01*
X168528229Y-71011131D01*
X168469752Y-70999500D01*
X168469748Y-70999500D01*
X166930252Y-70999500D01*
X166930247Y-70999500D01*
X166871770Y-71011131D01*
X166871769Y-71011132D01*
X166805447Y-71055447D01*
X166761132Y-71121769D01*
X166761131Y-71121770D01*
X166749500Y-71180247D01*
X166749500Y-72050500D01*
X166729815Y-72117539D01*
X166677011Y-72163294D01*
X166625500Y-72174500D01*
X163874500Y-72174500D01*
X163807461Y-72154815D01*
X163761706Y-72102011D01*
X163750500Y-72050500D01*
X163750500Y-71180249D01*
X163750499Y-71180247D01*
X163738868Y-71121770D01*
X163738867Y-71121769D01*
X163694552Y-71055447D01*
X163628230Y-71011132D01*
X163628229Y-71011131D01*
X163569752Y-70999500D01*
X163569748Y-70999500D01*
X162661189Y-70999500D01*
X162594150Y-70979815D01*
X162573508Y-70963181D01*
X160210326Y-68600000D01*
X161550000Y-68600000D01*
X161550000Y-68847844D01*
X161556401Y-68907372D01*
X161556403Y-68907379D01*
X161606645Y-69042086D01*
X161606649Y-69042093D01*
X161692809Y-69157187D01*
X161692812Y-69157190D01*
X161807906Y-69243350D01*
X161807913Y-69243354D01*
X161942620Y-69293596D01*
X161942627Y-69293598D01*
X162002155Y-69299999D01*
X162002172Y-69300000D01*
X162550000Y-69300000D01*
X162550000Y-69299999D01*
X163049999Y-69299999D01*
X163050000Y-69300000D01*
X163597828Y-69300000D01*
X163597844Y-69299999D01*
X163657372Y-69293598D01*
X163657379Y-69293596D01*
X163792086Y-69243354D01*
X163792093Y-69243350D01*
X163907187Y-69157190D01*
X163907190Y-69157187D01*
X163993350Y-69042093D01*
X163993354Y-69042086D01*
X164043596Y-68907379D01*
X164043598Y-68907372D01*
X164049999Y-68847844D01*
X164050000Y-68847827D01*
X164050000Y-68819752D01*
X166749500Y-68819752D01*
X166761131Y-68878229D01*
X166761132Y-68878230D01*
X166805447Y-68944552D01*
X166871769Y-68988867D01*
X166871770Y-68988868D01*
X166930247Y-69000499D01*
X166930250Y-69000500D01*
X166930252Y-69000500D01*
X168469750Y-69000500D01*
X168469751Y-69000499D01*
X168484568Y-68997552D01*
X168528229Y-68988868D01*
X168528229Y-68988867D01*
X168528231Y-68988867D01*
X168594552Y-68944552D01*
X168638867Y-68878231D01*
X168638867Y-68878229D01*
X168638868Y-68878229D01*
X168650499Y-68819752D01*
X168650500Y-68819750D01*
X168650500Y-67880249D01*
X168650499Y-67880247D01*
X168638868Y-67821770D01*
X168638867Y-67821769D01*
X168594552Y-67755447D01*
X168528230Y-67711132D01*
X168528229Y-67711131D01*
X168469752Y-67699500D01*
X168469748Y-67699500D01*
X166930252Y-67699500D01*
X166930247Y-67699500D01*
X166871770Y-67711131D01*
X166871769Y-67711132D01*
X166805447Y-67755447D01*
X166761132Y-67821769D01*
X166761131Y-67821770D01*
X166749500Y-67880247D01*
X166749500Y-68819752D01*
X164050000Y-68819752D01*
X164050000Y-68600000D01*
X163050000Y-68600000D01*
X163049999Y-69299999D01*
X162550000Y-69299999D01*
X162550000Y-68600000D01*
X161550000Y-68600000D01*
X160210326Y-68600000D01*
X159920136Y-68309810D01*
X159920124Y-68309796D01*
X159912931Y-68302603D01*
X159912922Y-68302587D01*
X159876612Y-68266278D01*
X159830672Y-68220339D01*
X159818064Y-68211179D01*
X159725551Y-68143965D01*
X159725541Y-68143959D01*
X159639263Y-68100000D01*
X161550000Y-68100000D01*
X162550000Y-68100000D01*
X162550000Y-68099999D01*
X163049999Y-68099999D01*
X163050000Y-68100000D01*
X164050000Y-68100000D01*
X164050000Y-67852172D01*
X164049999Y-67852155D01*
X164043598Y-67792627D01*
X164043596Y-67792620D01*
X163993354Y-67657913D01*
X163993350Y-67657906D01*
X163907190Y-67542812D01*
X163907187Y-67542809D01*
X163792093Y-67456649D01*
X163792086Y-67456645D01*
X163657379Y-67406403D01*
X163657372Y-67406401D01*
X163597844Y-67400000D01*
X163050000Y-67400000D01*
X163049999Y-68099999D01*
X162550000Y-68099999D01*
X162550000Y-67400000D01*
X162002155Y-67400000D01*
X161942627Y-67406401D01*
X161942620Y-67406403D01*
X161807913Y-67456645D01*
X161807906Y-67456649D01*
X161692812Y-67542809D01*
X161692809Y-67542812D01*
X161606649Y-67657906D01*
X161606645Y-67657913D01*
X161556403Y-67792620D01*
X161556401Y-67792627D01*
X161550000Y-67852155D01*
X161550000Y-68100000D01*
X159639263Y-68100000D01*
X159609774Y-68084975D01*
X159609775Y-68084975D01*
X159486192Y-68044823D01*
X159387602Y-68029209D01*
X159357857Y-68024499D01*
X159357856Y-68024499D01*
X159292887Y-68024500D01*
X158774500Y-68024500D01*
X158707461Y-68004815D01*
X158661706Y-67952011D01*
X158650500Y-67900500D01*
X158650500Y-67880249D01*
X158650499Y-67880247D01*
X158638868Y-67821770D01*
X158638867Y-67821769D01*
X158594552Y-67755447D01*
X158528230Y-67711132D01*
X158528229Y-67711131D01*
X158469752Y-67699500D01*
X158469748Y-67699500D01*
X156930252Y-67699500D01*
X156930247Y-67699500D01*
X156871770Y-67711131D01*
X156871769Y-67711132D01*
X156805447Y-67755447D01*
X156761132Y-67821769D01*
X156761131Y-67821770D01*
X156749500Y-67880247D01*
X156749500Y-68819752D01*
X156761131Y-68878229D01*
X156761132Y-68878230D01*
X156805447Y-68944552D01*
X156871769Y-68988867D01*
X156871770Y-68988868D01*
X156930247Y-69000499D01*
X156930250Y-69000500D01*
X156930252Y-69000500D01*
X158469750Y-69000500D01*
X158469751Y-69000499D01*
X158484568Y-68997552D01*
X158528229Y-68988868D01*
X158528229Y-68988867D01*
X158528231Y-68988867D01*
X158594552Y-68944552D01*
X158638867Y-68878231D01*
X158638867Y-68878229D01*
X158638868Y-68878229D01*
X158650499Y-68819752D01*
X158650500Y-68819750D01*
X158650500Y-68799500D01*
X158670185Y-68732461D01*
X158722989Y-68686706D01*
X158774500Y-68675500D01*
X159241343Y-68675500D01*
X159288833Y-68675500D01*
X159296930Y-68676031D01*
X159301737Y-68676663D01*
X159321874Y-68679314D01*
X159353141Y-68687691D01*
X159365067Y-68692631D01*
X159393097Y-68708814D01*
X159413043Y-68724118D01*
X159419133Y-68729459D01*
X161813182Y-71123509D01*
X161846666Y-71184830D01*
X161849500Y-71211188D01*
X161849500Y-72050500D01*
X161829815Y-72117539D01*
X161777011Y-72163294D01*
X161725500Y-72174500D01*
X158774500Y-72174500D01*
X158707461Y-72154815D01*
X158661706Y-72102011D01*
X158650500Y-72050500D01*
X158650500Y-71180249D01*
X158650499Y-71180247D01*
X158638868Y-71121770D01*
X158638867Y-71121769D01*
X158594552Y-71055447D01*
X158528230Y-71011132D01*
X158528229Y-71011131D01*
X158469752Y-70999500D01*
X158469748Y-70999500D01*
X156930252Y-70999500D01*
X156930247Y-70999500D01*
X156871770Y-71011131D01*
X156871769Y-71011132D01*
X156805447Y-71055447D01*
X156761132Y-71121769D01*
X156761131Y-71121770D01*
X156749500Y-71180247D01*
X156749500Y-72050500D01*
X156729815Y-72117539D01*
X156677011Y-72163294D01*
X156625500Y-72174500D01*
X153874500Y-72174500D01*
X153807461Y-72154815D01*
X153761706Y-72102011D01*
X153750500Y-72050500D01*
X153750500Y-71180249D01*
X153750499Y-71180247D01*
X153738868Y-71121770D01*
X153738867Y-71121769D01*
X153694552Y-71055447D01*
X153628230Y-71011132D01*
X153628229Y-71011131D01*
X153569752Y-70999500D01*
X153569748Y-70999500D01*
X152661189Y-70999500D01*
X152594150Y-70979815D01*
X152573508Y-70963181D01*
X150210326Y-68600000D01*
X151550000Y-68600000D01*
X151550000Y-68847844D01*
X151556401Y-68907372D01*
X151556403Y-68907379D01*
X151606645Y-69042086D01*
X151606649Y-69042093D01*
X151692809Y-69157187D01*
X151692812Y-69157190D01*
X151807906Y-69243350D01*
X151807913Y-69243354D01*
X151942620Y-69293596D01*
X151942627Y-69293598D01*
X152002155Y-69299999D01*
X152002172Y-69300000D01*
X152550000Y-69300000D01*
X152550000Y-68600000D01*
X153050000Y-68600000D01*
X153050000Y-69300000D01*
X153597828Y-69300000D01*
X153597844Y-69299999D01*
X153657372Y-69293598D01*
X153657379Y-69293596D01*
X153792086Y-69243354D01*
X153792093Y-69243350D01*
X153907187Y-69157190D01*
X153907190Y-69157187D01*
X153993350Y-69042093D01*
X153993354Y-69042086D01*
X154043596Y-68907379D01*
X154043598Y-68907372D01*
X154049999Y-68847844D01*
X154050000Y-68847827D01*
X154050000Y-68600000D01*
X153050000Y-68600000D01*
X152550000Y-68600000D01*
X151550000Y-68600000D01*
X150210326Y-68600000D01*
X149920136Y-68309810D01*
X149920124Y-68309796D01*
X149912931Y-68302603D01*
X149912922Y-68302587D01*
X149876612Y-68266278D01*
X149830672Y-68220339D01*
X149818064Y-68211179D01*
X149725551Y-68143965D01*
X149725541Y-68143959D01*
X149639263Y-68100000D01*
X151550000Y-68100000D01*
X152550000Y-68100000D01*
X152550000Y-67400000D01*
X153050000Y-67400000D01*
X153050000Y-68100000D01*
X154050000Y-68100000D01*
X154050000Y-67852172D01*
X154049999Y-67852155D01*
X154043598Y-67792627D01*
X154043596Y-67792620D01*
X153993354Y-67657913D01*
X153993350Y-67657906D01*
X153907190Y-67542812D01*
X153907187Y-67542809D01*
X153792093Y-67456649D01*
X153792086Y-67456645D01*
X153657379Y-67406403D01*
X153657372Y-67406401D01*
X153597844Y-67400000D01*
X153050000Y-67400000D01*
X152550000Y-67400000D01*
X152002155Y-67400000D01*
X151942627Y-67406401D01*
X151942620Y-67406403D01*
X151807913Y-67456645D01*
X151807906Y-67456649D01*
X151692812Y-67542809D01*
X151692809Y-67542812D01*
X151606649Y-67657906D01*
X151606645Y-67657913D01*
X151556403Y-67792620D01*
X151556401Y-67792627D01*
X151550000Y-67852155D01*
X151550000Y-68100000D01*
X149639263Y-68100000D01*
X149609774Y-68084975D01*
X149609775Y-68084975D01*
X149486192Y-68044823D01*
X149387602Y-68029209D01*
X149357857Y-68024499D01*
X149357856Y-68024499D01*
X149292887Y-68024500D01*
X148774500Y-68024500D01*
X148707461Y-68004815D01*
X148661706Y-67952011D01*
X148650500Y-67900500D01*
X148650500Y-67880249D01*
X148650499Y-67880247D01*
X148638868Y-67821770D01*
X148638867Y-67821769D01*
X148594552Y-67755447D01*
X148528230Y-67711132D01*
X148528229Y-67711131D01*
X148469752Y-67699500D01*
X148469748Y-67699500D01*
X146930252Y-67699500D01*
X146930247Y-67699500D01*
X146871770Y-67711131D01*
X146871769Y-67711132D01*
X146805447Y-67755447D01*
X146761132Y-67821769D01*
X146761131Y-67821770D01*
X146749500Y-67880247D01*
X146749500Y-68819752D01*
X146761131Y-68878229D01*
X146761132Y-68878230D01*
X146805447Y-68944552D01*
X146871769Y-68988867D01*
X146871770Y-68988868D01*
X146930247Y-69000499D01*
X146930250Y-69000500D01*
X146930252Y-69000500D01*
X148469750Y-69000500D01*
X148469751Y-69000499D01*
X148484568Y-68997552D01*
X148528229Y-68988868D01*
X148528229Y-68988867D01*
X148528231Y-68988867D01*
X148594552Y-68944552D01*
X148638867Y-68878231D01*
X148638867Y-68878229D01*
X148638868Y-68878229D01*
X148650499Y-68819752D01*
X148650500Y-68819750D01*
X148650500Y-68799500D01*
X148670185Y-68732461D01*
X148722989Y-68686706D01*
X148774500Y-68675500D01*
X149241343Y-68675500D01*
X149288833Y-68675500D01*
X149296930Y-68676031D01*
X149301737Y-68676663D01*
X149321874Y-68679314D01*
X149353141Y-68687691D01*
X149365067Y-68692631D01*
X149393097Y-68708814D01*
X149413043Y-68724118D01*
X149419133Y-68729459D01*
X151813182Y-71123509D01*
X151846666Y-71184830D01*
X151849500Y-71211188D01*
X151849500Y-72050500D01*
X151829815Y-72117539D01*
X151777011Y-72163294D01*
X151725500Y-72174500D01*
X149918299Y-72174500D01*
X149851260Y-72154815D01*
X149819923Y-72125986D01*
X149815136Y-72119748D01*
X149778282Y-72071718D01*
X149652841Y-71975464D01*
X149650639Y-71974552D01*
X149506762Y-71914956D01*
X149506760Y-71914955D01*
X149350001Y-71894318D01*
X149349999Y-71894318D01*
X149193239Y-71914955D01*
X149193237Y-71914956D01*
X149047160Y-71975463D01*
X148921716Y-72071719D01*
X148880077Y-72125986D01*
X148823649Y-72167189D01*
X148781701Y-72174500D01*
X148774500Y-72174500D01*
X148707461Y-72154815D01*
X148661706Y-72102011D01*
X148650500Y-72050500D01*
X148650500Y-71180249D01*
X148650499Y-71180247D01*
X148638868Y-71121770D01*
X148638867Y-71121769D01*
X148594552Y-71055447D01*
X148528230Y-71011132D01*
X148528229Y-71011131D01*
X148469752Y-70999500D01*
X148469748Y-70999500D01*
X146930252Y-70999500D01*
X146930247Y-70999500D01*
X146871770Y-71011131D01*
X146871769Y-71011132D01*
X146805447Y-71055447D01*
X146761132Y-71121769D01*
X146761131Y-71121770D01*
X146749500Y-71180247D01*
X146749500Y-72050500D01*
X146729815Y-72117539D01*
X146677011Y-72163294D01*
X146625500Y-72174500D01*
X143874500Y-72174500D01*
X143807461Y-72154815D01*
X143761706Y-72102011D01*
X143750500Y-72050500D01*
X143750500Y-71180249D01*
X143750499Y-71180247D01*
X143738868Y-71121770D01*
X143738867Y-71121769D01*
X143694552Y-71055447D01*
X143628230Y-71011132D01*
X143628229Y-71011131D01*
X143569752Y-70999500D01*
X143569748Y-70999500D01*
X142661189Y-70999500D01*
X142594150Y-70979815D01*
X142573508Y-70963181D01*
X140210326Y-68600000D01*
X141550000Y-68600000D01*
X141550000Y-68847844D01*
X141556401Y-68907372D01*
X141556403Y-68907379D01*
X141606645Y-69042086D01*
X141606649Y-69042093D01*
X141692809Y-69157187D01*
X141692812Y-69157190D01*
X141807906Y-69243350D01*
X141807913Y-69243354D01*
X141942620Y-69293596D01*
X141942627Y-69293598D01*
X142002155Y-69299999D01*
X142002172Y-69300000D01*
X142550000Y-69300000D01*
X142550000Y-68600000D01*
X143050000Y-68600000D01*
X143050000Y-69300000D01*
X143597828Y-69300000D01*
X143597844Y-69299999D01*
X143657372Y-69293598D01*
X143657379Y-69293596D01*
X143792086Y-69243354D01*
X143792093Y-69243350D01*
X143907187Y-69157190D01*
X143907190Y-69157187D01*
X143993350Y-69042093D01*
X143993354Y-69042086D01*
X144043596Y-68907379D01*
X144043598Y-68907372D01*
X144049999Y-68847844D01*
X144050000Y-68847827D01*
X144050000Y-68600000D01*
X143050000Y-68600000D01*
X142550000Y-68600000D01*
X141550000Y-68600000D01*
X140210326Y-68600000D01*
X139920136Y-68309810D01*
X139920124Y-68309796D01*
X139912931Y-68302603D01*
X139912922Y-68302587D01*
X139876612Y-68266278D01*
X139830672Y-68220339D01*
X139818064Y-68211179D01*
X139725551Y-68143965D01*
X139725541Y-68143959D01*
X139639263Y-68100000D01*
X141550000Y-68100000D01*
X142550000Y-68100000D01*
X142550000Y-67400000D01*
X143050000Y-67400000D01*
X143050000Y-68100000D01*
X144050000Y-68100000D01*
X144050000Y-67852172D01*
X144049999Y-67852155D01*
X144043598Y-67792627D01*
X144043596Y-67792620D01*
X143993354Y-67657913D01*
X143993350Y-67657906D01*
X143907190Y-67542812D01*
X143907187Y-67542809D01*
X143792093Y-67456649D01*
X143792086Y-67456645D01*
X143657379Y-67406403D01*
X143657372Y-67406401D01*
X143597844Y-67400000D01*
X143050000Y-67400000D01*
X142550000Y-67400000D01*
X142002155Y-67400000D01*
X141942627Y-67406401D01*
X141942620Y-67406403D01*
X141807913Y-67456645D01*
X141807906Y-67456649D01*
X141692812Y-67542809D01*
X141692809Y-67542812D01*
X141606649Y-67657906D01*
X141606645Y-67657913D01*
X141556403Y-67792620D01*
X141556401Y-67792627D01*
X141550000Y-67852155D01*
X141550000Y-68100000D01*
X139639263Y-68100000D01*
X139609774Y-68084975D01*
X139609775Y-68084975D01*
X139486192Y-68044823D01*
X139387602Y-68029209D01*
X139357857Y-68024499D01*
X139357856Y-68024499D01*
X139292887Y-68024500D01*
X138774500Y-68024500D01*
X138707461Y-68004815D01*
X138661706Y-67952011D01*
X138650500Y-67900500D01*
X138650500Y-67880249D01*
X138650499Y-67880247D01*
X138638868Y-67821770D01*
X138638867Y-67821769D01*
X138594552Y-67755447D01*
X138528230Y-67711132D01*
X138528229Y-67711131D01*
X138469752Y-67699500D01*
X138469748Y-67699500D01*
X136930252Y-67699500D01*
X136930247Y-67699500D01*
X136871770Y-67711131D01*
X136871769Y-67711132D01*
X136805447Y-67755447D01*
X136761132Y-67821769D01*
X136761131Y-67821770D01*
X136749500Y-67880247D01*
X136749500Y-68819752D01*
X136761131Y-68878229D01*
X136761132Y-68878230D01*
X136805447Y-68944552D01*
X136871769Y-68988867D01*
X136871770Y-68988868D01*
X136930247Y-69000499D01*
X136930250Y-69000500D01*
X136930252Y-69000500D01*
X138469750Y-69000500D01*
X138469751Y-69000499D01*
X138484568Y-68997552D01*
X138528229Y-68988868D01*
X138528229Y-68988867D01*
X138528231Y-68988867D01*
X138594552Y-68944552D01*
X138638867Y-68878231D01*
X138638867Y-68878229D01*
X138638868Y-68878229D01*
X138650499Y-68819752D01*
X138650500Y-68819750D01*
X138650500Y-68799500D01*
X138670185Y-68732461D01*
X138722989Y-68686706D01*
X138774500Y-68675500D01*
X139241343Y-68675500D01*
X139288833Y-68675500D01*
X139296930Y-68676031D01*
X139301737Y-68676663D01*
X139321874Y-68679314D01*
X139353141Y-68687691D01*
X139365067Y-68692631D01*
X139393097Y-68708814D01*
X139413043Y-68724118D01*
X139419133Y-68729459D01*
X141813182Y-71123509D01*
X141846666Y-71184830D01*
X141849500Y-71211188D01*
X141849500Y-72050500D01*
X141829815Y-72117539D01*
X141777011Y-72163294D01*
X141725500Y-72174500D01*
X138774500Y-72174500D01*
X138707461Y-72154815D01*
X138661706Y-72102011D01*
X138650500Y-72050500D01*
X138650500Y-71180249D01*
X138650499Y-71180247D01*
X138638868Y-71121770D01*
X138638867Y-71121769D01*
X138594552Y-71055447D01*
X138528230Y-71011132D01*
X138528229Y-71011131D01*
X138469752Y-70999500D01*
X138469748Y-70999500D01*
X136930252Y-70999500D01*
X136930247Y-70999500D01*
X136871770Y-71011131D01*
X136871769Y-71011132D01*
X136805447Y-71055447D01*
X136761132Y-71121769D01*
X136761131Y-71121770D01*
X136749500Y-71180247D01*
X136749500Y-72050500D01*
X136729815Y-72117539D01*
X136677011Y-72163294D01*
X136625500Y-72174500D01*
X133874500Y-72174500D01*
X133807461Y-72154815D01*
X133761706Y-72102011D01*
X133750500Y-72050500D01*
X133750500Y-71180249D01*
X133750499Y-71180247D01*
X133738868Y-71121770D01*
X133738867Y-71121769D01*
X133694552Y-71055447D01*
X133628230Y-71011132D01*
X133628229Y-71011131D01*
X133569752Y-70999500D01*
X133569748Y-70999500D01*
X132661189Y-70999500D01*
X132594150Y-70979815D01*
X132573508Y-70963181D01*
X130210326Y-68600000D01*
X131550000Y-68600000D01*
X131550000Y-68847844D01*
X131556401Y-68907372D01*
X131556403Y-68907379D01*
X131606645Y-69042086D01*
X131606649Y-69042093D01*
X131692809Y-69157187D01*
X131692812Y-69157190D01*
X131807906Y-69243350D01*
X131807913Y-69243354D01*
X131942620Y-69293596D01*
X131942627Y-69293598D01*
X132002155Y-69299999D01*
X132002172Y-69300000D01*
X132550000Y-69300000D01*
X132550000Y-68600000D01*
X133050000Y-68600000D01*
X133050000Y-69300000D01*
X133597828Y-69300000D01*
X133597844Y-69299999D01*
X133657372Y-69293598D01*
X133657379Y-69293596D01*
X133792086Y-69243354D01*
X133792093Y-69243350D01*
X133907187Y-69157190D01*
X133907190Y-69157187D01*
X133993350Y-69042093D01*
X133993354Y-69042086D01*
X134043596Y-68907379D01*
X134043598Y-68907372D01*
X134049999Y-68847844D01*
X134050000Y-68847827D01*
X134050000Y-68600000D01*
X133050000Y-68600000D01*
X132550000Y-68600000D01*
X131550000Y-68600000D01*
X130210326Y-68600000D01*
X129920136Y-68309810D01*
X129920124Y-68309796D01*
X129912931Y-68302603D01*
X129912922Y-68302587D01*
X129876612Y-68266278D01*
X129830672Y-68220339D01*
X129818064Y-68211179D01*
X129725551Y-68143965D01*
X129725541Y-68143959D01*
X129639263Y-68100000D01*
X131550000Y-68100000D01*
X132550000Y-68100000D01*
X132550000Y-67400000D01*
X133050000Y-67400000D01*
X133050000Y-68100000D01*
X134050000Y-68100000D01*
X134050000Y-67852172D01*
X134049999Y-67852155D01*
X134043598Y-67792627D01*
X134043596Y-67792620D01*
X133993354Y-67657913D01*
X133993350Y-67657906D01*
X133907190Y-67542812D01*
X133907187Y-67542809D01*
X133792093Y-67456649D01*
X133792086Y-67456645D01*
X133657379Y-67406403D01*
X133657372Y-67406401D01*
X133597844Y-67400000D01*
X133050000Y-67400000D01*
X132550000Y-67400000D01*
X132002155Y-67400000D01*
X131942627Y-67406401D01*
X131942620Y-67406403D01*
X131807913Y-67456645D01*
X131807906Y-67456649D01*
X131692812Y-67542809D01*
X131692809Y-67542812D01*
X131606649Y-67657906D01*
X131606645Y-67657913D01*
X131556403Y-67792620D01*
X131556401Y-67792627D01*
X131550000Y-67852155D01*
X131550000Y-68100000D01*
X129639263Y-68100000D01*
X129609774Y-68084975D01*
X129609775Y-68084975D01*
X129486192Y-68044823D01*
X129387602Y-68029209D01*
X129357857Y-68024499D01*
X129357856Y-68024499D01*
X129292887Y-68024500D01*
X128774500Y-68024500D01*
X128707461Y-68004815D01*
X128661706Y-67952011D01*
X128650500Y-67900500D01*
X128650500Y-67880249D01*
X128650499Y-67880247D01*
X128638868Y-67821770D01*
X128638867Y-67821769D01*
X128594552Y-67755447D01*
X128528230Y-67711132D01*
X128528229Y-67711131D01*
X128469752Y-67699500D01*
X128469748Y-67699500D01*
X126930252Y-67699500D01*
X126930247Y-67699500D01*
X126871770Y-67711131D01*
X126871769Y-67711132D01*
X126805447Y-67755447D01*
X126761132Y-67821769D01*
X126761131Y-67821770D01*
X126749500Y-67880247D01*
X126749500Y-68819752D01*
X126761131Y-68878229D01*
X126761132Y-68878230D01*
X126805447Y-68944552D01*
X126871769Y-68988867D01*
X126871770Y-68988868D01*
X126930247Y-69000499D01*
X126930250Y-69000500D01*
X126930252Y-69000500D01*
X128469750Y-69000500D01*
X128469751Y-69000499D01*
X128484568Y-68997552D01*
X128528229Y-68988868D01*
X128528229Y-68988867D01*
X128528231Y-68988867D01*
X128594552Y-68944552D01*
X128638867Y-68878231D01*
X128638867Y-68878229D01*
X128638868Y-68878229D01*
X128650499Y-68819752D01*
X128650500Y-68819750D01*
X128650500Y-68799500D01*
X128670185Y-68732461D01*
X128722989Y-68686706D01*
X128774500Y-68675500D01*
X129241343Y-68675500D01*
X129288833Y-68675500D01*
X129296930Y-68676031D01*
X129301737Y-68676663D01*
X129321874Y-68679314D01*
X129353141Y-68687691D01*
X129365067Y-68692631D01*
X129393097Y-68708814D01*
X129413043Y-68724118D01*
X129419133Y-68729459D01*
X131813182Y-71123509D01*
X131846666Y-71184830D01*
X131849500Y-71211188D01*
X131849500Y-72050500D01*
X131829815Y-72117539D01*
X131777011Y-72163294D01*
X131725500Y-72174500D01*
X128774500Y-72174500D01*
X128707461Y-72154815D01*
X128661706Y-72102011D01*
X128650500Y-72050500D01*
X128650500Y-71180249D01*
X128650499Y-71180247D01*
X128638868Y-71121770D01*
X128638867Y-71121769D01*
X128594552Y-71055447D01*
X128528230Y-71011132D01*
X128528229Y-71011131D01*
X128469752Y-70999500D01*
X128469748Y-70999500D01*
X126930252Y-70999500D01*
X126930247Y-70999500D01*
X126871770Y-71011131D01*
X126871769Y-71011132D01*
X126805447Y-71055447D01*
X126761132Y-71121769D01*
X126761131Y-71121770D01*
X126749500Y-71180247D01*
X126749500Y-72050500D01*
X126729815Y-72117539D01*
X126677011Y-72163294D01*
X126625500Y-72174500D01*
X123874500Y-72174500D01*
X123807461Y-72154815D01*
X123761706Y-72102011D01*
X123750500Y-72050500D01*
X123750500Y-71180249D01*
X123750499Y-71180247D01*
X123738868Y-71121770D01*
X123738867Y-71121769D01*
X123694552Y-71055447D01*
X123628230Y-71011132D01*
X123628229Y-71011131D01*
X123569752Y-70999500D01*
X123569748Y-70999500D01*
X122661189Y-70999500D01*
X122594150Y-70979815D01*
X122573508Y-70963181D01*
X120210326Y-68600000D01*
X121550000Y-68600000D01*
X121550000Y-68847844D01*
X121556401Y-68907372D01*
X121556403Y-68907379D01*
X121606645Y-69042086D01*
X121606649Y-69042093D01*
X121692809Y-69157187D01*
X121692812Y-69157190D01*
X121807906Y-69243350D01*
X121807913Y-69243354D01*
X121942620Y-69293596D01*
X121942627Y-69293598D01*
X122002155Y-69299999D01*
X122002172Y-69300000D01*
X122550000Y-69300000D01*
X122550000Y-68600000D01*
X123050000Y-68600000D01*
X123050000Y-69300000D01*
X123597828Y-69300000D01*
X123597844Y-69299999D01*
X123657372Y-69293598D01*
X123657379Y-69293596D01*
X123792086Y-69243354D01*
X123792093Y-69243350D01*
X123907187Y-69157190D01*
X123907190Y-69157187D01*
X123993350Y-69042093D01*
X123993354Y-69042086D01*
X124043596Y-68907379D01*
X124043598Y-68907372D01*
X124049999Y-68847844D01*
X124050000Y-68847827D01*
X124050000Y-68600000D01*
X123050000Y-68600000D01*
X122550000Y-68600000D01*
X121550000Y-68600000D01*
X120210326Y-68600000D01*
X119920136Y-68309810D01*
X119920124Y-68309796D01*
X119912931Y-68302603D01*
X119912922Y-68302587D01*
X119876612Y-68266278D01*
X119830672Y-68220339D01*
X119818064Y-68211179D01*
X119725551Y-68143965D01*
X119725541Y-68143959D01*
X119639263Y-68100000D01*
X121550000Y-68100000D01*
X122550000Y-68100000D01*
X122550000Y-67400000D01*
X123050000Y-67400000D01*
X123050000Y-68100000D01*
X124050000Y-68100000D01*
X124050000Y-67852172D01*
X124049999Y-67852155D01*
X124043598Y-67792627D01*
X124043596Y-67792620D01*
X123993354Y-67657913D01*
X123993350Y-67657906D01*
X123907190Y-67542812D01*
X123907187Y-67542809D01*
X123792093Y-67456649D01*
X123792086Y-67456645D01*
X123657379Y-67406403D01*
X123657372Y-67406401D01*
X123597844Y-67400000D01*
X123050000Y-67400000D01*
X122550000Y-67400000D01*
X122002155Y-67400000D01*
X121942627Y-67406401D01*
X121942620Y-67406403D01*
X121807913Y-67456645D01*
X121807906Y-67456649D01*
X121692812Y-67542809D01*
X121692809Y-67542812D01*
X121606649Y-67657906D01*
X121606645Y-67657913D01*
X121556403Y-67792620D01*
X121556401Y-67792627D01*
X121550000Y-67852155D01*
X121550000Y-68100000D01*
X119639263Y-68100000D01*
X119609774Y-68084975D01*
X119609775Y-68084975D01*
X119486192Y-68044823D01*
X119387602Y-68029209D01*
X119357857Y-68024499D01*
X119357856Y-68024499D01*
X119292887Y-68024500D01*
X118774500Y-68024500D01*
X118707461Y-68004815D01*
X118661706Y-67952011D01*
X118650500Y-67900500D01*
X118650500Y-67880249D01*
X118650499Y-67880247D01*
X118638868Y-67821770D01*
X118638867Y-67821769D01*
X118594552Y-67755447D01*
X118528230Y-67711132D01*
X118528229Y-67711131D01*
X118469752Y-67699500D01*
X118469748Y-67699500D01*
X116930252Y-67699500D01*
X116930247Y-67699500D01*
X116871770Y-67711131D01*
X116871769Y-67711132D01*
X116805447Y-67755447D01*
X116761132Y-67821769D01*
X116761131Y-67821770D01*
X116749500Y-67880247D01*
X116749500Y-68819752D01*
X116761131Y-68878229D01*
X116761132Y-68878230D01*
X116805447Y-68944552D01*
X116871769Y-68988867D01*
X116871770Y-68988868D01*
X116930247Y-69000499D01*
X116930250Y-69000500D01*
X116930252Y-69000500D01*
X118469750Y-69000500D01*
X118469751Y-69000499D01*
X118484568Y-68997552D01*
X118528229Y-68988868D01*
X118528229Y-68988867D01*
X118528231Y-68988867D01*
X118594552Y-68944552D01*
X118638867Y-68878231D01*
X118638867Y-68878229D01*
X118638868Y-68878229D01*
X118650499Y-68819752D01*
X118650500Y-68819750D01*
X118650500Y-68799500D01*
X118670185Y-68732461D01*
X118722989Y-68686706D01*
X118774500Y-68675500D01*
X119241343Y-68675500D01*
X119288833Y-68675500D01*
X119296930Y-68676031D01*
X119301737Y-68676663D01*
X119321874Y-68679314D01*
X119353141Y-68687691D01*
X119365067Y-68692631D01*
X119393097Y-68708814D01*
X119413043Y-68724118D01*
X119419133Y-68729459D01*
X121813182Y-71123509D01*
X121846666Y-71184830D01*
X121849500Y-71211188D01*
X121849500Y-72050500D01*
X121829815Y-72117539D01*
X121777011Y-72163294D01*
X121725500Y-72174500D01*
X118774500Y-72174500D01*
X118707461Y-72154815D01*
X118661706Y-72102011D01*
X118650500Y-72050500D01*
X118650500Y-71180249D01*
X118650499Y-71180247D01*
X118638868Y-71121770D01*
X118638867Y-71121769D01*
X118594552Y-71055447D01*
X118528230Y-71011132D01*
X118528229Y-71011131D01*
X118469752Y-70999500D01*
X118469748Y-70999500D01*
X118149500Y-70999500D01*
X118082461Y-70979815D01*
X118036706Y-70927011D01*
X118025500Y-70875500D01*
X118025500Y-70618692D01*
X117993777Y-70459216D01*
X117993776Y-70459215D01*
X117993776Y-70459211D01*
X117993774Y-70459206D01*
X117931549Y-70308980D01*
X117931547Y-70308976D01*
X117841211Y-70173779D01*
X117841205Y-70173771D01*
X117726228Y-70058794D01*
X117726220Y-70058788D01*
X117591023Y-69968452D01*
X117591019Y-69968450D01*
X117440793Y-69906225D01*
X117440783Y-69906222D01*
X117298570Y-69877933D01*
X117236659Y-69845547D01*
X117224390Y-69831807D01*
X117178282Y-69771718D01*
X117052841Y-69675464D01*
X116906762Y-69614956D01*
X116906760Y-69614955D01*
X116750001Y-69594318D01*
X116749999Y-69594318D01*
X116593239Y-69614955D01*
X116593237Y-69614956D01*
X116447160Y-69675463D01*
X116321718Y-69771718D01*
X116225463Y-69897160D01*
X116164956Y-70043237D01*
X116164955Y-70043239D01*
X116144318Y-70199998D01*
X116144318Y-70200001D01*
X116164955Y-70356760D01*
X116164956Y-70356762D01*
X116225464Y-70502841D01*
X116321718Y-70628282D01*
X116447159Y-70724536D01*
X116593238Y-70785044D01*
X116750000Y-70805682D01*
X116757317Y-70804718D01*
X116826350Y-70815482D01*
X116878607Y-70861860D01*
X116897495Y-70929128D01*
X116877017Y-70995929D01*
X116842397Y-71030758D01*
X116805447Y-71055447D01*
X116761132Y-71121769D01*
X116761131Y-71121770D01*
X116749500Y-71180247D01*
X116749500Y-72119752D01*
X116761131Y-72178229D01*
X116761132Y-72178230D01*
X116805447Y-72244552D01*
X116871769Y-72288867D01*
X116871770Y-72288868D01*
X116930247Y-72300499D01*
X116930250Y-72300500D01*
X116930252Y-72300500D01*
X117348103Y-72300500D01*
X117415142Y-72320185D01*
X117460897Y-72372989D01*
X117462665Y-72377049D01*
X117468453Y-72391024D01*
X117558788Y-72526220D01*
X117558794Y-72526228D01*
X117673771Y-72641205D01*
X117673779Y-72641211D01*
X117808976Y-72731547D01*
X117808980Y-72731549D01*
X117946688Y-72788589D01*
X117959211Y-72793776D01*
X117959215Y-72793776D01*
X117959216Y-72793777D01*
X118118692Y-72825500D01*
X118118695Y-72825500D01*
X118171525Y-72825500D01*
X127642606Y-72825500D01*
X127671525Y-72825500D01*
X137642606Y-72825500D01*
X137671525Y-72825500D01*
X146277304Y-72825500D01*
X146344343Y-72845185D01*
X146390098Y-72897989D01*
X146400042Y-72967147D01*
X146371017Y-73030703D01*
X146352791Y-73047874D01*
X146321993Y-73071507D01*
X146321718Y-73071718D01*
X146280077Y-73125986D01*
X146223649Y-73167189D01*
X146181701Y-73174500D01*
X108862781Y-73174500D01*
X108795742Y-73154815D01*
X108753423Y-73108954D01*
X108667685Y-72948550D01*
X108568777Y-72828029D01*
X108536410Y-72788589D01*
X108418677Y-72691969D01*
X108376450Y-72657315D01*
X108193954Y-72559768D01*
X107995934Y-72499700D01*
X107995932Y-72499699D01*
X107995934Y-72499699D01*
X107808463Y-72481235D01*
X107790000Y-72479417D01*
X107789999Y-72479417D01*
X107584067Y-72499699D01*
X107386043Y-72559769D01*
X107275898Y-72618643D01*
X107203550Y-72657315D01*
X107203548Y-72657316D01*
X107203547Y-72657317D01*
X107043589Y-72788589D01*
X106928948Y-72928282D01*
X106912315Y-72948550D01*
X106873643Y-73020898D01*
X106814769Y-73131043D01*
X106754699Y-73329067D01*
X106734417Y-73534999D01*
X106305583Y-73534999D01*
X106285300Y-73329066D01*
X106225232Y-73131046D01*
X106127685Y-72948550D01*
X106028777Y-72828029D01*
X105996410Y-72788589D01*
X105878677Y-72691969D01*
X105836450Y-72657315D01*
X105653954Y-72559768D01*
X105455934Y-72499700D01*
X105455932Y-72499699D01*
X105455934Y-72499699D01*
X105250000Y-72479417D01*
X105044067Y-72499699D01*
X104846043Y-72559769D01*
X104735898Y-72618643D01*
X104663550Y-72657315D01*
X104663548Y-72657316D01*
X104663547Y-72657317D01*
X104503589Y-72788589D01*
X104372317Y-72948547D01*
X104274767Y-73131046D01*
X104254593Y-73197552D01*
X104216296Y-73255990D01*
X104152483Y-73284447D01*
X104083416Y-73273886D01*
X104031023Y-73227661D01*
X104016158Y-73193649D01*
X103983433Y-73071516D01*
X103983429Y-73071507D01*
X103883600Y-72857422D01*
X103883599Y-72857420D01*
X103748113Y-72663926D01*
X103748108Y-72663920D01*
X103581082Y-72496894D01*
X103387578Y-72361399D01*
X103184884Y-72266882D01*
X103132445Y-72220710D01*
X103113293Y-72153516D01*
X103133509Y-72086635D01*
X103186674Y-72041301D01*
X103237289Y-72030500D01*
X103579750Y-72030500D01*
X103579751Y-72030499D01*
X103594568Y-72027552D01*
X103638229Y-72018868D01*
X103638229Y-72018867D01*
X103638231Y-72018867D01*
X103704552Y-71974552D01*
X103748867Y-71908231D01*
X103748867Y-71908229D01*
X103748868Y-71908229D01*
X103760499Y-71849752D01*
X103760500Y-71849750D01*
X103760500Y-70979999D01*
X104194417Y-70979999D01*
X104214699Y-71185932D01*
X104234744Y-71252011D01*
X104274768Y-71383954D01*
X104372315Y-71566450D01*
X104372317Y-71566452D01*
X104503589Y-71726410D01*
X104567866Y-71779160D01*
X104663550Y-71857685D01*
X104846046Y-71955232D01*
X105044066Y-72015300D01*
X105044065Y-72015300D01*
X105062529Y-72017118D01*
X105250000Y-72035583D01*
X105455934Y-72015300D01*
X105653954Y-71955232D01*
X105836450Y-71857685D01*
X105996410Y-71726410D01*
X106127685Y-71566450D01*
X106225232Y-71383954D01*
X106285300Y-71185934D01*
X106305583Y-70980000D01*
X106734417Y-70980000D01*
X106754699Y-71185932D01*
X106774744Y-71252011D01*
X106814768Y-71383954D01*
X106912315Y-71566450D01*
X106912317Y-71566452D01*
X107043589Y-71726410D01*
X107107866Y-71779160D01*
X107203550Y-71857685D01*
X107386046Y-71955232D01*
X107584066Y-72015300D01*
X107584065Y-72015300D01*
X107604348Y-72017297D01*
X107790000Y-72035583D01*
X107995934Y-72015300D01*
X108193954Y-71955232D01*
X108253256Y-71923533D01*
X108321657Y-71909291D01*
X108350027Y-71914960D01*
X108350224Y-71915024D01*
X108350226Y-71915025D01*
X108473805Y-71955176D01*
X108602143Y-71975501D01*
X108667112Y-71975500D01*
X111725500Y-71975500D01*
X111792539Y-71995185D01*
X111838294Y-72047989D01*
X111849500Y-72099500D01*
X111849500Y-72119752D01*
X111861131Y-72178229D01*
X111861132Y-72178230D01*
X111905447Y-72244552D01*
X111971769Y-72288867D01*
X111971770Y-72288868D01*
X112030247Y-72300499D01*
X112030250Y-72300500D01*
X112030252Y-72300500D01*
X113569750Y-72300500D01*
X113569751Y-72300499D01*
X113584568Y-72297552D01*
X113628229Y-72288868D01*
X113628229Y-72288867D01*
X113628231Y-72288867D01*
X113694552Y-72244552D01*
X113738867Y-72178231D01*
X113738867Y-72178229D01*
X113738868Y-72178229D01*
X113750499Y-72119752D01*
X113750500Y-72119750D01*
X113750500Y-71180249D01*
X113750499Y-71180247D01*
X113738868Y-71121770D01*
X113738867Y-71121769D01*
X113694552Y-71055447D01*
X113628230Y-71011132D01*
X113628229Y-71011131D01*
X113569752Y-70999500D01*
X113569748Y-70999500D01*
X112030252Y-70999500D01*
X112030247Y-70999500D01*
X111971770Y-71011131D01*
X111971769Y-71011132D01*
X111905447Y-71055447D01*
X111861132Y-71121769D01*
X111861131Y-71121770D01*
X111849500Y-71180247D01*
X111849500Y-71200500D01*
X111829815Y-71267539D01*
X111777011Y-71313294D01*
X111725500Y-71324500D01*
X108948466Y-71324500D01*
X108881427Y-71304815D01*
X108835672Y-71252011D01*
X108825063Y-71188346D01*
X108835258Y-71084827D01*
X108845583Y-70980000D01*
X108825300Y-70774066D01*
X108765232Y-70576046D01*
X108667685Y-70393550D01*
X108598280Y-70308979D01*
X108536410Y-70233589D01*
X108418677Y-70136969D01*
X108376450Y-70102315D01*
X108193954Y-70004768D01*
X107995934Y-69944700D01*
X107995932Y-69944699D01*
X107995934Y-69944699D01*
X107790000Y-69924417D01*
X107584067Y-69944699D01*
X107386043Y-70004769D01*
X107284975Y-70058792D01*
X107203550Y-70102315D01*
X107203548Y-70102316D01*
X107203547Y-70102317D01*
X107043589Y-70233589D01*
X106912317Y-70393547D01*
X106912315Y-70393550D01*
X106875527Y-70462375D01*
X106814769Y-70576043D01*
X106754699Y-70774067D01*
X106734417Y-70980000D01*
X106305583Y-70980000D01*
X106285300Y-70774066D01*
X106225232Y-70576046D01*
X106127685Y-70393550D01*
X106058280Y-70308979D01*
X105996410Y-70233589D01*
X105878677Y-70136969D01*
X105836450Y-70102315D01*
X105653954Y-70004768D01*
X105455934Y-69944700D01*
X105455932Y-69944699D01*
X105455934Y-69944699D01*
X105268463Y-69926235D01*
X105250000Y-69924417D01*
X105249999Y-69924417D01*
X105044067Y-69944699D01*
X104846043Y-70004769D01*
X104744975Y-70058792D01*
X104663550Y-70102315D01*
X104663548Y-70102316D01*
X104663547Y-70102317D01*
X104503589Y-70233589D01*
X104372317Y-70393547D01*
X104372315Y-70393550D01*
X104335527Y-70462375D01*
X104274769Y-70576043D01*
X104214699Y-70774067D01*
X104194417Y-70979999D01*
X103760500Y-70979999D01*
X103760500Y-70110249D01*
X103760499Y-70110247D01*
X103748868Y-70051770D01*
X103748867Y-70051769D01*
X103704552Y-69985447D01*
X103638230Y-69941132D01*
X103638229Y-69941131D01*
X103579752Y-69929500D01*
X103579748Y-69929500D01*
X101840252Y-69929500D01*
X101840247Y-69929500D01*
X101781770Y-69941131D01*
X101781769Y-69941132D01*
X101715447Y-69985447D01*
X101671132Y-70051769D01*
X101671131Y-70051770D01*
X101659500Y-70110247D01*
X101659500Y-70550500D01*
X101639815Y-70617539D01*
X101587011Y-70663294D01*
X101535500Y-70674500D01*
X98192605Y-70674500D01*
X98175609Y-70680684D01*
X98154752Y-70686272D01*
X98136958Y-70689410D01*
X98136955Y-70689412D01*
X98121304Y-70698447D01*
X98101726Y-70707576D01*
X98084744Y-70713757D01*
X98084738Y-70713761D01*
X98070894Y-70725377D01*
X98053192Y-70737772D01*
X98037548Y-70746803D01*
X98037541Y-70746809D01*
X98025924Y-70760653D01*
X98010651Y-70775926D01*
X97996810Y-70787541D01*
X97996802Y-70787550D01*
X97987769Y-70803195D01*
X97975377Y-70820892D01*
X97963763Y-70834733D01*
X97963758Y-70834743D01*
X97957576Y-70851725D01*
X97948448Y-70871301D01*
X97939414Y-70886949D01*
X97939412Y-70886956D01*
X97936275Y-70904747D01*
X97930681Y-70925621D01*
X97929266Y-70929511D01*
X97924500Y-70942605D01*
X97924500Y-85557392D01*
X97924501Y-85557397D01*
X97930681Y-85574379D01*
X97936274Y-85595251D01*
X97939411Y-85613044D01*
X97948447Y-85628695D01*
X97957579Y-85648280D01*
X97963757Y-85665254D01*
X97963758Y-85665257D01*
X97963760Y-85665260D01*
X97963762Y-85665262D01*
X97975374Y-85679101D01*
X97987773Y-85696809D01*
X97996805Y-85712455D01*
X98005707Y-85719924D01*
X98010647Y-85724069D01*
X98025930Y-85739352D01*
X98037545Y-85753194D01*
X98048166Y-85759326D01*
X98053189Y-85762226D01*
X98070894Y-85774623D01*
X98079907Y-85782185D01*
X98084739Y-85786240D01*
X98101726Y-85792422D01*
X98121307Y-85801554D01*
X98136955Y-85810588D01*
X98154747Y-85813724D01*
X98175621Y-85819317D01*
X98192606Y-85825500D01*
X98221525Y-85825500D01*
X105931701Y-85825500D01*
X105998740Y-85845185D01*
X106030076Y-85874013D01*
X106071718Y-85928282D01*
X106197159Y-86024536D01*
X106275560Y-86057011D01*
X106278699Y-86058311D01*
X106333103Y-86102152D01*
X106355168Y-86168446D01*
X106337889Y-86236145D01*
X106286752Y-86283756D01*
X106255439Y-86294489D01*
X106171770Y-86311132D01*
X106171768Y-86311132D01*
X106105448Y-86355448D01*
X106105440Y-86355453D01*
X105855453Y-86605440D01*
X105855447Y-86605449D01*
X105853092Y-86608973D01*
X105799473Y-86653771D01*
X105730147Y-86662469D01*
X105667124Y-86632305D01*
X105646899Y-86608961D01*
X105644552Y-86605448D01*
X105644548Y-86605444D01*
X105644546Y-86605441D01*
X105394559Y-86355453D01*
X105394553Y-86355449D01*
X105394552Y-86355448D01*
X105367986Y-86337697D01*
X105328231Y-86311132D01*
X105328229Y-86311131D01*
X105250004Y-86295572D01*
X105250000Y-86295572D01*
X103250000Y-86295572D01*
X103249995Y-86295572D01*
X103171770Y-86311131D01*
X103171768Y-86311132D01*
X103105448Y-86355448D01*
X103105440Y-86355453D01*
X102855453Y-86605440D01*
X102855447Y-86605449D01*
X102853092Y-86608973D01*
X102799473Y-86653771D01*
X102730147Y-86662469D01*
X102667124Y-86632305D01*
X102646899Y-86608961D01*
X102644552Y-86605448D01*
X102644548Y-86605444D01*
X102644546Y-86605441D01*
X102394559Y-86355453D01*
X102394553Y-86355449D01*
X102394552Y-86355448D01*
X102367986Y-86337697D01*
X102328231Y-86311132D01*
X102328229Y-86311131D01*
X102250004Y-86295572D01*
X102250000Y-86295572D01*
X100750000Y-86295572D01*
X100749995Y-86295572D01*
X100671770Y-86311131D01*
X100671768Y-86311132D01*
X100605448Y-86355448D01*
X100605440Y-86355453D01*
X100355453Y-86605440D01*
X100355448Y-86605447D01*
X100353098Y-86608965D01*
X100299484Y-86653767D01*
X100230158Y-86662470D01*
X100167132Y-86632312D01*
X100146902Y-86608965D01*
X100146896Y-86608956D01*
X100144552Y-86605448D01*
X100144551Y-86605447D01*
X100144546Y-86605441D01*
X99894559Y-86355453D01*
X99894553Y-86355449D01*
X99894552Y-86355448D01*
X99867986Y-86337697D01*
X99828231Y-86311132D01*
X99828229Y-86311131D01*
X99750004Y-86295572D01*
X99750000Y-86295572D01*
X98250000Y-86295572D01*
X98249995Y-86295572D01*
X98171770Y-86311131D01*
X98171768Y-86311132D01*
X98105448Y-86355448D01*
X98105440Y-86355453D01*
X97855453Y-86605440D01*
X97855447Y-86605449D01*
X97853092Y-86608973D01*
X97799473Y-86653771D01*
X97730147Y-86662469D01*
X97667124Y-86632305D01*
X97646899Y-86608961D01*
X97644552Y-86605448D01*
X97644548Y-86605444D01*
X97644546Y-86605441D01*
X97394559Y-86355453D01*
X97394553Y-86355449D01*
X97394552Y-86355448D01*
X97367986Y-86337697D01*
X97328231Y-86311132D01*
X97328229Y-86311131D01*
X97250004Y-86295572D01*
X97250000Y-86295572D01*
X95750000Y-86295572D01*
X95749995Y-86295572D01*
X95671770Y-86311131D01*
X95671768Y-86311132D01*
X95605448Y-86355448D01*
X95605440Y-86355453D01*
X95355453Y-86605440D01*
X95355448Y-86605447D01*
X95353098Y-86608965D01*
X95299484Y-86653767D01*
X95230158Y-86662470D01*
X95167132Y-86632312D01*
X95146902Y-86608965D01*
X95146896Y-86608956D01*
X95144552Y-86605448D01*
X95144551Y-86605447D01*
X95144546Y-86605441D01*
X94894559Y-86355453D01*
X94894553Y-86355449D01*
X94894552Y-86355448D01*
X94867986Y-86337697D01*
X94828231Y-86311132D01*
X94828229Y-86311131D01*
X94750004Y-86295572D01*
X94750000Y-86295572D01*
X92750000Y-86295572D01*
X92749995Y-86295572D01*
X92671770Y-86311131D01*
X92671769Y-86311132D01*
X92643390Y-86330095D01*
X92576712Y-86350973D01*
X92509332Y-86332488D01*
X92462642Y-86280510D01*
X92450499Y-86226993D01*
X92450499Y-77894318D01*
X92450499Y-71052245D01*
X92470184Y-70985210D01*
X92522988Y-70939455D01*
X92592146Y-70929511D01*
X92655702Y-70958536D01*
X92671332Y-70974959D01*
X92671477Y-70974968D01*
X93184070Y-70462375D01*
X93383274Y-70462375D01*
X93422887Y-70544631D01*
X93494266Y-70601553D01*
X93560742Y-70616726D01*
X93605806Y-70616726D01*
X93672282Y-70601553D01*
X93743661Y-70544631D01*
X93783274Y-70462375D01*
X93783274Y-70371077D01*
X93743661Y-70288821D01*
X93672282Y-70231899D01*
X93605806Y-70216726D01*
X93560742Y-70216726D01*
X93494266Y-70231899D01*
X93422887Y-70288821D01*
X93383274Y-70371077D01*
X93383274Y-70462375D01*
X93184070Y-70462375D01*
X93814210Y-69832235D01*
X93914894Y-69973624D01*
X94066932Y-70118592D01*
X94169222Y-70184330D01*
X93025030Y-71328521D01*
X93025030Y-71328522D01*
X93213414Y-71476112D01*
X93213423Y-71476118D01*
X93492956Y-71645101D01*
X93492958Y-71645102D01*
X93790824Y-71779160D01*
X93790835Y-71779164D01*
X94102658Y-71876332D01*
X94423961Y-71935213D01*
X94749999Y-71954934D01*
X95076038Y-71935213D01*
X95397341Y-71876332D01*
X95709164Y-71779164D01*
X95709175Y-71779160D01*
X96007041Y-71645102D01*
X96007043Y-71645101D01*
X96286576Y-71476118D01*
X96286584Y-71476112D01*
X96474968Y-71328522D01*
X96474968Y-71328521D01*
X95608822Y-70462375D01*
X95716726Y-70462375D01*
X95756339Y-70544631D01*
X95827718Y-70601553D01*
X95894194Y-70616726D01*
X95939258Y-70616726D01*
X96005734Y-70601553D01*
X96077113Y-70544631D01*
X96116726Y-70462375D01*
X96116726Y-70371077D01*
X96077113Y-70288821D01*
X96005734Y-70231899D01*
X95939258Y-70216726D01*
X95894194Y-70216726D01*
X95827718Y-70231899D01*
X95756339Y-70288821D01*
X95716726Y-70371077D01*
X95716726Y-70462375D01*
X95608822Y-70462375D01*
X95333306Y-70186859D01*
X95347410Y-70179589D01*
X95512540Y-70049729D01*
X95650110Y-69890965D01*
X95684665Y-69831112D01*
X96828521Y-70974968D01*
X96828522Y-70974968D01*
X96976112Y-70786584D01*
X96976118Y-70786576D01*
X97145101Y-70507043D01*
X97145102Y-70507041D01*
X97279160Y-70209175D01*
X97279164Y-70209164D01*
X97376332Y-69897341D01*
X97435213Y-69576038D01*
X97454934Y-69250000D01*
X97435213Y-68923961D01*
X97376332Y-68602658D01*
X97375504Y-68600000D01*
X111550000Y-68600000D01*
X111550000Y-68847844D01*
X111556401Y-68907372D01*
X111556403Y-68907379D01*
X111606645Y-69042086D01*
X111606649Y-69042093D01*
X111692809Y-69157187D01*
X111692812Y-69157190D01*
X111807906Y-69243350D01*
X111807913Y-69243354D01*
X111942620Y-69293596D01*
X111942627Y-69293598D01*
X112002155Y-69299999D01*
X112002172Y-69300000D01*
X112550000Y-69300000D01*
X112550000Y-68600000D01*
X113050000Y-68600000D01*
X113050000Y-69300000D01*
X113597828Y-69300000D01*
X113597844Y-69299999D01*
X113657372Y-69293598D01*
X113657379Y-69293596D01*
X113792086Y-69243354D01*
X113792093Y-69243350D01*
X113907187Y-69157190D01*
X113907190Y-69157187D01*
X113993350Y-69042093D01*
X113993354Y-69042086D01*
X114043596Y-68907379D01*
X114043598Y-68907372D01*
X114049999Y-68847844D01*
X114050000Y-68847827D01*
X114050000Y-68600000D01*
X113050000Y-68600000D01*
X112550000Y-68600000D01*
X111550000Y-68600000D01*
X97375504Y-68600000D01*
X97279164Y-68290835D01*
X97279160Y-68290824D01*
X97193277Y-68100000D01*
X111550000Y-68100000D01*
X112550000Y-68100000D01*
X112550000Y-67400000D01*
X113050000Y-67400000D01*
X113050000Y-68100000D01*
X114050000Y-68100000D01*
X114050000Y-67852172D01*
X114049999Y-67852155D01*
X114043598Y-67792627D01*
X114043596Y-67792620D01*
X113993354Y-67657913D01*
X113993350Y-67657906D01*
X113907190Y-67542812D01*
X113907187Y-67542809D01*
X113792093Y-67456649D01*
X113792086Y-67456645D01*
X113657379Y-67406403D01*
X113657372Y-67406401D01*
X113597844Y-67400000D01*
X113050000Y-67400000D01*
X112550000Y-67400000D01*
X112002155Y-67400000D01*
X111942627Y-67406401D01*
X111942620Y-67406403D01*
X111807913Y-67456645D01*
X111807906Y-67456649D01*
X111692812Y-67542809D01*
X111692809Y-67542812D01*
X111606649Y-67657906D01*
X111606645Y-67657913D01*
X111556403Y-67792620D01*
X111556401Y-67792627D01*
X111550000Y-67852155D01*
X111550000Y-68100000D01*
X97193277Y-68100000D01*
X97145102Y-67992958D01*
X97145101Y-67992956D01*
X96976118Y-67713423D01*
X96976112Y-67713414D01*
X96828521Y-67525030D01*
X95685788Y-68667763D01*
X95585106Y-68526376D01*
X95433068Y-68381408D01*
X95330776Y-68315669D01*
X95517522Y-68128923D01*
X95716726Y-68128923D01*
X95756339Y-68211179D01*
X95827718Y-68268101D01*
X95894194Y-68283274D01*
X95939258Y-68283274D01*
X96005734Y-68268101D01*
X96077113Y-68211179D01*
X96116726Y-68128923D01*
X96116726Y-68037625D01*
X96077113Y-67955369D01*
X96005734Y-67898447D01*
X95939258Y-67883274D01*
X95894194Y-67883274D01*
X95827718Y-67898447D01*
X95756339Y-67955369D01*
X95716726Y-68037625D01*
X95716726Y-68128923D01*
X95517522Y-68128923D01*
X96474968Y-67171477D01*
X96474935Y-67170932D01*
X96435145Y-67115271D01*
X96431693Y-67045486D01*
X96466517Y-66984914D01*
X96528561Y-66952784D01*
X96552251Y-66950500D01*
X183947748Y-66950500D01*
X184014787Y-66970185D01*
G37*
%TD.AperFunction*%
%TA.AperFunction,Conductor*%
G36*
X101602539Y-71345185D02*
G01*
X101648294Y-71397989D01*
X101659500Y-71449500D01*
X101659500Y-71849752D01*
X101671131Y-71908229D01*
X101671132Y-71908230D01*
X101715447Y-71974552D01*
X101781769Y-72018867D01*
X101781770Y-72018868D01*
X101840247Y-72030499D01*
X101840250Y-72030500D01*
X102182711Y-72030500D01*
X102249750Y-72050185D01*
X102295505Y-72102989D01*
X102305449Y-72172147D01*
X102276424Y-72235703D01*
X102235116Y-72266882D01*
X102032422Y-72361399D01*
X102032420Y-72361400D01*
X101838926Y-72496886D01*
X101838920Y-72496891D01*
X101671891Y-72663920D01*
X101671886Y-72663926D01*
X101536400Y-72857420D01*
X101536399Y-72857422D01*
X101436570Y-73071507D01*
X101436567Y-73071513D01*
X101379364Y-73284999D01*
X101379364Y-73285000D01*
X102276314Y-73285000D01*
X102250507Y-73325156D01*
X102210000Y-73463111D01*
X102210000Y-73606889D01*
X102250507Y-73744844D01*
X102276314Y-73785000D01*
X101379364Y-73785000D01*
X101436567Y-73998486D01*
X101436570Y-73998492D01*
X101536399Y-74212578D01*
X101671894Y-74406082D01*
X101838917Y-74573105D01*
X102032421Y-74708600D01*
X102246507Y-74808429D01*
X102246516Y-74808433D01*
X102460000Y-74865634D01*
X102460000Y-73970501D01*
X102567685Y-74019680D01*
X102674237Y-74035000D01*
X102745763Y-74035000D01*
X102852315Y-74019680D01*
X102960000Y-73970501D01*
X102960000Y-74865633D01*
X103173483Y-74808433D01*
X103173492Y-74808429D01*
X103387578Y-74708600D01*
X103581082Y-74573105D01*
X103748105Y-74406082D01*
X103883600Y-74212578D01*
X103983429Y-73998492D01*
X103983433Y-73998483D01*
X104016158Y-73876350D01*
X104052522Y-73816690D01*
X104115369Y-73786160D01*
X104184745Y-73794454D01*
X104238623Y-73838939D01*
X104254593Y-73872447D01*
X104274768Y-73938954D01*
X104372315Y-74121450D01*
X104372317Y-74121452D01*
X104503589Y-74281410D01*
X104600209Y-74360702D01*
X104663550Y-74412685D01*
X104846046Y-74510232D01*
X105044066Y-74570300D01*
X105044065Y-74570300D01*
X105064347Y-74572297D01*
X105250000Y-74590583D01*
X105455934Y-74570300D01*
X105653954Y-74510232D01*
X105653969Y-74510223D01*
X105655843Y-74509448D01*
X105656918Y-74509332D01*
X105659784Y-74508463D01*
X105659948Y-74509005D01*
X105725311Y-74501969D01*
X105787795Y-74533234D01*
X105790994Y-74536321D01*
X106717492Y-75462819D01*
X106750977Y-75524142D01*
X106745993Y-75593834D01*
X106704121Y-75649767D01*
X106638657Y-75674184D01*
X106629811Y-75674500D01*
X105818299Y-75674500D01*
X105751260Y-75654815D01*
X105719923Y-75625986D01*
X105678283Y-75571719D01*
X105678282Y-75571718D01*
X105552841Y-75475464D01*
X105522313Y-75462819D01*
X105406762Y-75414956D01*
X105406760Y-75414955D01*
X105250001Y-75394318D01*
X105249999Y-75394318D01*
X105093239Y-75414955D01*
X105093237Y-75414956D01*
X104947160Y-75475463D01*
X104821718Y-75571718D01*
X104725463Y-75697160D01*
X104664956Y-75843237D01*
X104664955Y-75843239D01*
X104644318Y-75999998D01*
X104644318Y-76000001D01*
X104664955Y-76156760D01*
X104664956Y-76156762D01*
X104716033Y-76280074D01*
X104725464Y-76302841D01*
X104821718Y-76428282D01*
X104947159Y-76524536D01*
X105093238Y-76585044D01*
X105155478Y-76593238D01*
X105249999Y-76605682D01*
X105250000Y-76605682D01*
X105250001Y-76605682D01*
X105344514Y-76593239D01*
X105406762Y-76585044D01*
X105552841Y-76524536D01*
X105678282Y-76428282D01*
X105719923Y-76374013D01*
X105776351Y-76332811D01*
X105818299Y-76325500D01*
X105840278Y-76325500D01*
X105907317Y-76345185D01*
X105953072Y-76397989D01*
X105963016Y-76467147D01*
X105954839Y-76496950D01*
X105935673Y-76543222D01*
X105914956Y-76593237D01*
X105914955Y-76593239D01*
X105894318Y-76749998D01*
X105894318Y-76750001D01*
X105914955Y-76906760D01*
X105914956Y-76906762D01*
X105945933Y-76981548D01*
X105954839Y-77003047D01*
X105962308Y-77072516D01*
X105931033Y-77134996D01*
X105870944Y-77170648D01*
X105840278Y-77174500D01*
X100493299Y-77174500D01*
X100426260Y-77154815D01*
X100394923Y-77125986D01*
X100353283Y-77071719D01*
X100302632Y-77032853D01*
X100227841Y-76975464D01*
X100081762Y-76914956D01*
X100081760Y-76914955D01*
X99925001Y-76894318D01*
X99924999Y-76894318D01*
X99768239Y-76914955D01*
X99768237Y-76914956D01*
X99622160Y-76975463D01*
X99496718Y-77071718D01*
X99400463Y-77197160D01*
X99339956Y-77343237D01*
X99339955Y-77343239D01*
X99319318Y-77499998D01*
X99319318Y-77500001D01*
X99339955Y-77656760D01*
X99339956Y-77656762D01*
X99369358Y-77727746D01*
X99400464Y-77802841D01*
X99496718Y-77928282D01*
X99622159Y-78024536D01*
X99768238Y-78085044D01*
X99895984Y-78101862D01*
X99959878Y-78130127D01*
X99998350Y-78188451D01*
X99999182Y-78258316D01*
X99994359Y-78272251D01*
X99964956Y-78343238D01*
X99964955Y-78343239D01*
X99944318Y-78499998D01*
X99944318Y-78500001D01*
X99964955Y-78656760D01*
X99964956Y-78656762D01*
X100025464Y-78802841D01*
X100121718Y-78928282D01*
X100247159Y-79024536D01*
X100393238Y-79085044D01*
X100491591Y-79097992D01*
X100544690Y-79104983D01*
X100608587Y-79133249D01*
X100647058Y-79191574D01*
X100647889Y-79261439D01*
X100643066Y-79275375D01*
X100614956Y-79343237D01*
X100614955Y-79343239D01*
X100594318Y-79499998D01*
X100594318Y-79500001D01*
X100614955Y-79656760D01*
X100614956Y-79656762D01*
X100675464Y-79802841D01*
X100771718Y-79928282D01*
X100897159Y-80024536D01*
X101043238Y-80085044D01*
X101141591Y-80097992D01*
X101194690Y-80104983D01*
X101258587Y-80133249D01*
X101297058Y-80191574D01*
X101297889Y-80261439D01*
X101293066Y-80275375D01*
X101264956Y-80343237D01*
X101264955Y-80343239D01*
X101244318Y-80499998D01*
X101244318Y-80500001D01*
X101264955Y-80656760D01*
X101264956Y-80656762D01*
X101325464Y-80802841D01*
X101421718Y-80928282D01*
X101547159Y-81024536D01*
X101693238Y-81085044D01*
X101791591Y-81097992D01*
X101844690Y-81104983D01*
X101908587Y-81133249D01*
X101947058Y-81191574D01*
X101947889Y-81261439D01*
X101943066Y-81275375D01*
X101914956Y-81343237D01*
X101914955Y-81343239D01*
X101894318Y-81499998D01*
X101894318Y-81500001D01*
X101914955Y-81656760D01*
X101914956Y-81656762D01*
X101975464Y-81802841D01*
X102071718Y-81928282D01*
X102197159Y-82024536D01*
X102343238Y-82085044D01*
X102441591Y-82097992D01*
X102494690Y-82104983D01*
X102558587Y-82133249D01*
X102597058Y-82191574D01*
X102597889Y-82261439D01*
X102593066Y-82275375D01*
X102564956Y-82343237D01*
X102564955Y-82343239D01*
X102544318Y-82499998D01*
X102544318Y-82500001D01*
X102564955Y-82656760D01*
X102564956Y-82656762D01*
X102625464Y-82802841D01*
X102721718Y-82928282D01*
X102847159Y-83024536D01*
X102993238Y-83085044D01*
X103091591Y-83097992D01*
X103144690Y-83104983D01*
X103208587Y-83133249D01*
X103247058Y-83191574D01*
X103247889Y-83261439D01*
X103243066Y-83275375D01*
X103214956Y-83343237D01*
X103214955Y-83343239D01*
X103194318Y-83499998D01*
X103194318Y-83500001D01*
X103214955Y-83656760D01*
X103214956Y-83656762D01*
X103275464Y-83802841D01*
X103371718Y-83928282D01*
X103497159Y-84024536D01*
X103643238Y-84085044D01*
X103741591Y-84097992D01*
X103794690Y-84104983D01*
X103858587Y-84133249D01*
X103897058Y-84191574D01*
X103897889Y-84261439D01*
X103893066Y-84275375D01*
X103864956Y-84343237D01*
X103864955Y-84343239D01*
X103844318Y-84499998D01*
X103844318Y-84500001D01*
X103864955Y-84656760D01*
X103864956Y-84656762D01*
X103925464Y-84802841D01*
X104011492Y-84914955D01*
X104021719Y-84928283D01*
X104052790Y-84952124D01*
X104093993Y-85008552D01*
X104098148Y-85078298D01*
X104063936Y-85139218D01*
X104002219Y-85171971D01*
X103977304Y-85174500D01*
X98699500Y-85174500D01*
X98632461Y-85154815D01*
X98586706Y-85102011D01*
X98575500Y-85050500D01*
X98575500Y-71449500D01*
X98595185Y-71382461D01*
X98647989Y-71336706D01*
X98699500Y-71325500D01*
X101535500Y-71325500D01*
X101602539Y-71345185D01*
G37*
%TD.AperFunction*%
%TA.AperFunction,Conductor*%
G36*
X161011973Y-75577881D02*
G01*
X161042587Y-75583971D01*
X161087280Y-75602482D01*
X161102881Y-75612906D01*
X161137093Y-75647118D01*
X161142236Y-75654815D01*
X161147516Y-75662717D01*
X161166029Y-75707413D01*
X161172117Y-75738018D01*
X161174500Y-75762210D01*
X161174500Y-76181699D01*
X161154815Y-76248738D01*
X161125988Y-76280074D01*
X161071720Y-76321715D01*
X160975463Y-76447160D01*
X160914956Y-76593237D01*
X160914955Y-76593239D01*
X160894318Y-76749998D01*
X160894318Y-76750001D01*
X160914955Y-76906760D01*
X160914956Y-76906762D01*
X160945933Y-76981548D01*
X160954839Y-77003047D01*
X160962308Y-77072516D01*
X160931033Y-77134996D01*
X160870944Y-77170648D01*
X160840278Y-77174500D01*
X152011022Y-77174500D01*
X151943983Y-77154815D01*
X151898228Y-77102011D01*
X151888284Y-77032853D01*
X151917309Y-76969297D01*
X151942131Y-76947398D01*
X152026225Y-76891208D01*
X152141205Y-76776228D01*
X152141208Y-76776225D01*
X152231548Y-76641021D01*
X152293776Y-76490789D01*
X152310878Y-76404815D01*
X152325500Y-76331307D01*
X152325500Y-75762211D01*
X152327883Y-75738019D01*
X152333971Y-75707413D01*
X152352481Y-75662722D01*
X152354512Y-75659681D01*
X152362906Y-75647120D01*
X152397115Y-75612908D01*
X152412721Y-75602481D01*
X152457410Y-75583971D01*
X152488026Y-75577881D01*
X152512211Y-75575500D01*
X152551554Y-75575500D01*
X160948446Y-75575500D01*
X160987789Y-75575500D01*
X161011973Y-75577881D01*
G37*
%TD.AperFunction*%
%TD*%
M02*
