%TF.GenerationSoftware,KiCad,Pcbnew,7.0.5-7.0.5~ubuntu20.04.1*%
%TF.CreationDate,2023-07-06T19:43:48+02:00*%
%TF.ProjectId,sao_keyboard,73616f5f-6b65-4796-926f-6172642e6b69,rev?*%
%TF.SameCoordinates,Original*%
%TF.FileFunction,Soldermask,Bot*%
%TF.FilePolarity,Negative*%
%FSLAX46Y46*%
G04 Gerber Fmt 4.6, Leading zero omitted, Abs format (unit mm)*
G04 Created by KiCad (PCBNEW 7.0.5-7.0.5~ubuntu20.04.1) date 2023-07-06 19:43:48*
%MOMM*%
%LPD*%
G01*
G04 APERTURE LIST*
G04 Aperture macros list*
%AMRoundRect*
0 Rectangle with rounded corners*
0 $1 Rounding radius*
0 $2 $3 $4 $5 $6 $7 $8 $9 X,Y pos of 4 corners*
0 Add a 4 corners polygon primitive as box body*
4,1,4,$2,$3,$4,$5,$6,$7,$8,$9,$2,$3,0*
0 Add four circle primitives for the rounded corners*
1,1,$1+$1,$2,$3*
1,1,$1+$1,$4,$5*
1,1,$1+$1,$6,$7*
1,1,$1+$1,$8,$9*
0 Add four rect primitives between the rounded corners*
20,1,$1+$1,$2,$3,$4,$5,0*
20,1,$1+$1,$4,$5,$6,$7,0*
20,1,$1+$1,$6,$7,$8,$9,0*
20,1,$1+$1,$8,$9,$2,$3,0*%
G04 Aperture macros list end*
%ADD10R,1.700000X1.700000*%
%ADD11O,1.700000X1.700000*%
%ADD12C,0.700000*%
%ADD13C,4.400000*%
%ADD14RoundRect,0.160000X0.160000X-0.197500X0.160000X0.197500X-0.160000X0.197500X-0.160000X-0.197500X0*%
%ADD15RoundRect,0.100000X0.100000X-0.637500X0.100000X0.637500X-0.100000X0.637500X-0.100000X-0.637500X0*%
%ADD16RoundRect,0.160000X0.197500X0.160000X-0.197500X0.160000X-0.197500X-0.160000X0.197500X-0.160000X0*%
%ADD17RoundRect,0.155000X-0.155000X0.212500X-0.155000X-0.212500X0.155000X-0.212500X0.155000X0.212500X0*%
%ADD18RoundRect,0.101600X-0.299720X-0.674370X0.299720X-0.674370X0.299720X0.674370X-0.299720X0.674370X0*%
%ADD19RoundRect,0.101600X-0.599440X-0.999490X0.599440X-0.999490X0.599440X0.999490X-0.599440X0.999490X0*%
%ADD20RoundRect,0.155000X-0.212500X-0.155000X0.212500X-0.155000X0.212500X0.155000X-0.212500X0.155000X0*%
%ADD21RoundRect,0.150000X0.825000X0.150000X-0.825000X0.150000X-0.825000X-0.150000X0.825000X-0.150000X0*%
%ADD22RoundRect,0.100000X0.637500X0.100000X-0.637500X0.100000X-0.637500X-0.100000X0.637500X-0.100000X0*%
G04 APERTURE END LIST*
D10*
%TO.C,J6*%
X102710000Y-70980000D03*
D11*
X102710000Y-73535000D03*
X105250000Y-70980000D03*
X105250000Y-73535000D03*
X107790000Y-70980000D03*
X107790000Y-73535000D03*
%TD*%
D12*
%TO.C,H2*%
X93100000Y-69250000D03*
X93583274Y-68083274D03*
X93583274Y-70416726D03*
X94750000Y-67600000D03*
D13*
X94750000Y-69250000D03*
D12*
X94750000Y-70900000D03*
X95916726Y-68083274D03*
X95916726Y-70416726D03*
X96400000Y-69250000D03*
%TD*%
%TO.C,H1*%
X184100000Y-69250000D03*
X184583274Y-68083274D03*
X184583274Y-70416726D03*
X185750000Y-67600000D03*
D13*
X185750000Y-69250000D03*
D12*
X185750000Y-70900000D03*
X186916726Y-68083274D03*
X186916726Y-70416726D03*
X187400000Y-69250000D03*
%TD*%
D14*
%TO.C,R17*%
X136250000Y-96847500D03*
X136250000Y-95652500D03*
%TD*%
%TO.C,R27*%
X163000000Y-96847500D03*
X163000000Y-95652500D03*
%TD*%
%TO.C,R21*%
X147000000Y-96847500D03*
X147000000Y-95652500D03*
%TD*%
%TO.C,R14*%
X128500000Y-96847500D03*
X128500000Y-95652500D03*
%TD*%
D15*
%TO.C,U4*%
X169675000Y-91612500D03*
X169025000Y-91612500D03*
X168375000Y-91612500D03*
X167725000Y-91612500D03*
X167075000Y-91612500D03*
X166425000Y-91612500D03*
X165775000Y-91612500D03*
X165125000Y-91612500D03*
X164475000Y-91612500D03*
X163825000Y-91612500D03*
X163825000Y-85887500D03*
X164475000Y-85887500D03*
X165125000Y-85887500D03*
X165775000Y-85887500D03*
X166425000Y-85887500D03*
X167075000Y-85887500D03*
X167725000Y-85887500D03*
X168375000Y-85887500D03*
X169025000Y-85887500D03*
X169675000Y-85887500D03*
%TD*%
D16*
%TO.C,R37*%
X149347500Y-75000000D03*
X148152500Y-75000000D03*
%TD*%
D14*
%TO.C,R5*%
X104250000Y-96847500D03*
X104250000Y-95652500D03*
%TD*%
%TO.C,R22*%
X149500000Y-96847500D03*
X149500000Y-95652500D03*
%TD*%
%TO.C,R2*%
X96500000Y-96847500D03*
X96500000Y-95652500D03*
%TD*%
%TO.C,R34*%
X181500000Y-96847500D03*
X181500000Y-95652500D03*
%TD*%
D17*
%TO.C,C1*%
X160250000Y-81557500D03*
X160250000Y-82692500D03*
%TD*%
D14*
%TO.C,R35*%
X184000000Y-96847500D03*
X184000000Y-95652500D03*
%TD*%
%TO.C,R18*%
X139250000Y-96847500D03*
X139250000Y-95652500D03*
%TD*%
%TO.C,R24*%
X154750000Y-96847500D03*
X154750000Y-95652500D03*
%TD*%
%TO.C,R9*%
X115000000Y-96847500D03*
X115000000Y-95652500D03*
%TD*%
%TO.C,R25*%
X157750000Y-96847500D03*
X157750000Y-95652500D03*
%TD*%
D17*
%TO.C,C3*%
X129250000Y-85507500D03*
X129250000Y-86642500D03*
%TD*%
%TO.C,C4*%
X171750000Y-85482500D03*
X171750000Y-86617500D03*
%TD*%
D18*
%TO.C,J5*%
X124001400Y-71776285D03*
X125002160Y-71776285D03*
X125997840Y-71776285D03*
X126998600Y-71776285D03*
D19*
X122700920Y-68103445D03*
X128299080Y-68103445D03*
%TD*%
D14*
%TO.C,R16*%
X133500000Y-96847500D03*
X133500000Y-95652500D03*
%TD*%
D15*
%TO.C,U5*%
X183175000Y-91612500D03*
X182525000Y-91612500D03*
X181875000Y-91612500D03*
X181225000Y-91612500D03*
X180575000Y-91612500D03*
X179925000Y-91612500D03*
X179275000Y-91612500D03*
X178625000Y-91612500D03*
X177975000Y-91612500D03*
X177325000Y-91612500D03*
X177325000Y-85887500D03*
X177975000Y-85887500D03*
X178625000Y-85887500D03*
X179275000Y-85887500D03*
X179925000Y-85887500D03*
X180575000Y-85887500D03*
X181225000Y-85887500D03*
X181875000Y-85887500D03*
X182525000Y-85887500D03*
X183175000Y-85887500D03*
%TD*%
D14*
%TO.C,R29*%
X168250000Y-96847500D03*
X168250000Y-95652500D03*
%TD*%
%TO.C,R28*%
X165500000Y-96847500D03*
X165500000Y-95652500D03*
%TD*%
%TO.C,R26*%
X160500000Y-96847500D03*
X160500000Y-95652500D03*
%TD*%
D20*
%TO.C,C7*%
X112932500Y-84000000D03*
X114067500Y-84000000D03*
%TD*%
D14*
%TO.C,R10*%
X117500000Y-96847500D03*
X117500000Y-95652500D03*
%TD*%
%TO.C,R23*%
X152000000Y-96847500D03*
X152000000Y-95652500D03*
%TD*%
%TO.C,R32*%
X176500000Y-96847500D03*
X176500000Y-95652500D03*
%TD*%
%TO.C,R1*%
X93750000Y-96847500D03*
X93750000Y-95652500D03*
%TD*%
D18*
%TO.C,J4*%
X115751400Y-71776285D03*
X116752160Y-71776285D03*
X117747840Y-71776285D03*
X118748600Y-71776285D03*
D19*
X114450920Y-68103445D03*
X120049080Y-68103445D03*
%TD*%
D15*
%TO.C,U1*%
X105675000Y-91612500D03*
X105025000Y-91612500D03*
X104375000Y-91612500D03*
X103725000Y-91612500D03*
X103075000Y-91612500D03*
X102425000Y-91612500D03*
X101775000Y-91612500D03*
X101125000Y-91612500D03*
X100475000Y-91612500D03*
X99825000Y-91612500D03*
X99825000Y-85887500D03*
X100475000Y-85887500D03*
X101125000Y-85887500D03*
X101775000Y-85887500D03*
X102425000Y-85887500D03*
X103075000Y-85887500D03*
X103725000Y-85887500D03*
X104375000Y-85887500D03*
X105025000Y-85887500D03*
X105675000Y-85887500D03*
%TD*%
D14*
%TO.C,R8*%
X112500000Y-96847500D03*
X112500000Y-95652500D03*
%TD*%
%TO.C,R12*%
X122750000Y-96847500D03*
X122750000Y-95652500D03*
%TD*%
%TO.C,R30*%
X171250000Y-96847500D03*
X171250000Y-95652500D03*
%TD*%
%TO.C,R6*%
X107250000Y-96847500D03*
X107250000Y-95652500D03*
%TD*%
%TO.C,R7*%
X110000000Y-96847500D03*
X110000000Y-95652500D03*
%TD*%
%TO.C,R15*%
X131000000Y-96847500D03*
X131000000Y-95652500D03*
%TD*%
D21*
%TO.C,U7*%
X118475000Y-78595000D03*
X118475000Y-79865000D03*
X118475000Y-81135000D03*
X118475000Y-82405000D03*
X113525000Y-82405000D03*
X113525000Y-81135000D03*
X113525000Y-79865000D03*
X113525000Y-78595000D03*
%TD*%
D14*
%TO.C,R20*%
X144500000Y-96847500D03*
X144500000Y-95652500D03*
%TD*%
D17*
%TO.C,C2*%
X107750000Y-85507500D03*
X107750000Y-86642500D03*
%TD*%
D22*
%TO.C,U6*%
X157112500Y-77575000D03*
X157112500Y-78225000D03*
X157112500Y-78875000D03*
X157112500Y-79525000D03*
X157112500Y-80175000D03*
X157112500Y-80825000D03*
X157112500Y-81475000D03*
X157112500Y-82125000D03*
X157112500Y-82775000D03*
X157112500Y-83425000D03*
X151387500Y-83425000D03*
X151387500Y-82775000D03*
X151387500Y-82125000D03*
X151387500Y-81475000D03*
X151387500Y-80825000D03*
X151387500Y-80175000D03*
X151387500Y-79525000D03*
X151387500Y-78875000D03*
X151387500Y-78225000D03*
X151387500Y-77575000D03*
%TD*%
D14*
%TO.C,R13*%
X125750000Y-96847500D03*
X125750000Y-95652500D03*
%TD*%
%TO.C,R31*%
X174000000Y-96847500D03*
X174000000Y-95652500D03*
%TD*%
%TO.C,R36*%
X186750000Y-96847500D03*
X186750000Y-95652500D03*
%TD*%
%TO.C,R11*%
X120000000Y-96847500D03*
X120000000Y-95652500D03*
%TD*%
%TO.C,R33*%
X179000000Y-96847500D03*
X179000000Y-95652500D03*
%TD*%
%TO.C,R19*%
X142000000Y-96847500D03*
X142000000Y-95652500D03*
%TD*%
D15*
%TO.C,U3*%
X148675000Y-91612500D03*
X148025000Y-91612500D03*
X147375000Y-91612500D03*
X146725000Y-91612500D03*
X146075000Y-91612500D03*
X145425000Y-91612500D03*
X144775000Y-91612500D03*
X144125000Y-91612500D03*
X143475000Y-91612500D03*
X142825000Y-91612500D03*
X142825000Y-85887500D03*
X143475000Y-85887500D03*
X144125000Y-85887500D03*
X144775000Y-85887500D03*
X145425000Y-85887500D03*
X146075000Y-85887500D03*
X146725000Y-85887500D03*
X147375000Y-85887500D03*
X148025000Y-85887500D03*
X148675000Y-85887500D03*
%TD*%
D14*
%TO.C,R3*%
X99000000Y-96847500D03*
X99000000Y-95652500D03*
%TD*%
D15*
%TO.C,U2*%
X127175000Y-91612500D03*
X126525000Y-91612500D03*
X125875000Y-91612500D03*
X125225000Y-91612500D03*
X124575000Y-91612500D03*
X123925000Y-91612500D03*
X123275000Y-91612500D03*
X122625000Y-91612500D03*
X121975000Y-91612500D03*
X121325000Y-91612500D03*
X121325000Y-85887500D03*
X121975000Y-85887500D03*
X122625000Y-85887500D03*
X123275000Y-85887500D03*
X123925000Y-85887500D03*
X124575000Y-85887500D03*
X125225000Y-85887500D03*
X125875000Y-85887500D03*
X126525000Y-85887500D03*
X127175000Y-85887500D03*
%TD*%
D14*
%TO.C,R4*%
X101500000Y-96847500D03*
X101500000Y-95652500D03*
%TD*%
D17*
%TO.C,C5*%
X185250000Y-85507500D03*
X185250000Y-86642500D03*
%TD*%
%TO.C,C6*%
X141000000Y-85507500D03*
X141000000Y-86642500D03*
%TD*%
M02*
