M48
; DRILL file {KiCad 7.0.5-7.0.5~ubuntu20.04.1} date Thu 06 Jul 2023 05:20:09 PM CEST
; FORMAT={-:-/ absolute / inch / decimal}
; #@! TF.CreationDate,2023-07-06T17:20:09+02:00
; #@! TF.GenerationSoftware,Kicad,Pcbnew,7.0.5-7.0.5~ubuntu20.04.1
; #@! TF.FileFunction,Plated,1,2,PTH
FMAT,2
INCH
; #@! TA.AperFunction,Plated,PTH,ViaDrill
T1C0.0157
; #@! TA.AperFunction,Plated,PTH,ComponentDrill
T2C0.0394
%
G90
G05
T1
X5.3839Y-2.7165
X5.3937Y-2.8563
X5.4134Y-2.9528
X5.4134Y-3.2087
X5.4392Y-2.4864
X5.467Y-2.5143
X5.5413Y-2.6378
X5.5512Y-3.3071
X5.5709Y-2.7549
X5.6693Y-2.4508
X5.6693Y-3.002
X5.6791Y-3.1791
X5.689Y-2.7362
X5.7283Y-3.4843
X5.8465Y-3.2776
X5.876Y-3.376
X5.9055Y-3.6122
X5.9055Y-2.4606
X5.9055Y-2.5689
X5.9055Y-2.6378
X5.9055Y-3.2677
X5.9055Y-3.5728
X5.9547Y-2.9528
X6.0157Y-3.2553
X6.0827Y-2.4213
X6.122Y-2.7362
X6.1319Y-3.1791
X6.1614Y-3.4449
X6.2205Y-2.9528
X6.2598Y-3.3071
X6.3327Y-2.9026
X6.344Y-2.5143
X6.3718Y-2.4865
X6.378Y-2.7362
X6.3976Y-2.9528
X6.437Y-3.1299
T2
X5.8055Y-2.9028
X5.8055Y-3.0033
X5.9055Y-2.9028
X5.9055Y-3.0033
X6.0055Y-2.9028
X6.0055Y-3.0033
T0
M30
