%TF.GenerationSoftware,KiCad,Pcbnew,7.0.5-7.0.5~ubuntu20.04.1*%
%TF.CreationDate,2023-07-06T17:20:07+02:00*%
%TF.ProjectId,sao_barebones,73616f5f-6261-4726-9562-6f6e65732e6b,rev?*%
%TF.SameCoordinates,Original*%
%TF.FileFunction,Copper,L1,Top*%
%TF.FilePolarity,Positive*%
%FSLAX45Y45*%
G04 Gerber Fmt 4.5, Leading zero omitted, Abs format (unit mm)*
G04 Created by KiCad (PCBNEW 7.0.5-7.0.5~ubuntu20.04.1) date 2023-07-06 17:20:07*
%MOMM*%
%LPD*%
G01*
G04 APERTURE LIST*
G04 Aperture macros list*
%AMRotRect*
0 Rectangle, with rotation*
0 The origin of the aperture is its center*
0 $1 length*
0 $2 width*
0 $3 Rotation angle, in degrees counterclockwise*
0 Add horizontal line*
21,1,$1,$2,0,0,$3*%
%AMFreePoly0*
4,1,19,0.550000,-0.750000,0.000000,-0.750000,0.000000,-0.744911,-0.071157,-0.744911,-0.207708,-0.704816,-0.327430,-0.627875,-0.420627,-0.520320,-0.479746,-0.390866,-0.500000,-0.250000,-0.500000,0.250000,-0.479746,0.390866,-0.420627,0.520320,-0.327430,0.627875,-0.207708,0.704816,-0.071157,0.744911,0.000000,0.744911,0.000000,0.750000,0.550000,0.750000,0.550000,-0.750000,0.550000,-0.750000,
$1*%
%AMFreePoly1*
4,1,19,0.000000,0.744911,0.071157,0.744911,0.207708,0.704816,0.327430,0.627875,0.420627,0.520320,0.479746,0.390866,0.500000,0.250000,0.500000,-0.250000,0.479746,-0.390866,0.420627,-0.520320,0.327430,-0.627875,0.207708,-0.704816,0.071157,-0.744911,0.000000,-0.744911,0.000000,-0.750000,-0.550000,-0.750000,-0.550000,0.750000,0.000000,0.750000,0.000000,0.744911,0.000000,0.744911,
$1*%
G04 Aperture macros list end*
%TA.AperFunction,SMDPad,CuDef*%
%ADD10RotRect,1.500000X0.900000X315.000000*%
%TD*%
%TA.AperFunction,ComponentPad*%
%ADD11R,1.700000X1.700000*%
%TD*%
%TA.AperFunction,ComponentPad*%
%ADD12O,1.700000X1.700000*%
%TD*%
%TA.AperFunction,SMDPad,CuDef*%
%ADD13R,1.500000X0.900000*%
%TD*%
%TA.AperFunction,SMDPad,CuDef*%
%ADD14RotRect,1.500000X0.900000X45.000000*%
%TD*%
%TA.AperFunction,SMDPad,CuDef*%
%ADD15R,0.900000X1.500000*%
%TD*%
%TA.AperFunction,SMDPad,CuDef*%
%ADD16FreePoly0,0.000000*%
%TD*%
%TA.AperFunction,SMDPad,CuDef*%
%ADD17R,1.000000X1.500000*%
%TD*%
%TA.AperFunction,SMDPad,CuDef*%
%ADD18FreePoly1,0.000000*%
%TD*%
%TA.AperFunction,SMDPad,CuDef*%
%ADD19RotRect,1.500000X0.900000X225.000000*%
%TD*%
%TA.AperFunction,SMDPad,CuDef*%
%ADD20RotRect,1.500000X0.900000X135.000000*%
%TD*%
%TA.AperFunction,ViaPad*%
%ADD21C,0.800000*%
%TD*%
%TA.AperFunction,Conductor*%
%ADD22C,0.250000*%
%TD*%
G04 APERTURE END LIST*
%TA.AperFunction,EtchedComponent*%
%TO.C,JP1*%
G36*
X14960000Y-8105000D02*
G01*
X14910000Y-8105000D01*
X14910000Y-8045000D01*
X14960000Y-8045000D01*
X14960000Y-8105000D01*
G37*
%TD.AperFunction*%
%TD*%
D10*
%TO.P,D4,1,VDD*%
%TO.N,+3V3*%
X14043431Y-8110086D03*
%TO.P,D4,2,DOUT*%
%TO.N,Net-(D4-DOUT)*%
X13810086Y-8343431D03*
%TO.P,D4,3,VSS*%
%TO.N,GND*%
X14156568Y-8689914D03*
%TO.P,D4,4,DIN*%
%TO.N,Net-(D3-DOUT)*%
X14389914Y-8456569D03*
%TD*%
D11*
%TO.P,J1,1,3V3*%
%TO.N,+3V3*%
X14746000Y-7373000D03*
D12*
%TO.P,J1,2,GND*%
%TO.N,GND*%
X14746000Y-7628500D03*
%TO.P,J1,3,SDA*%
%TO.N,SDA*%
X15000000Y-7373000D03*
%TO.P,J1,4,SCL*%
%TO.N,SCL*%
X15000000Y-7628500D03*
%TO.P,J1,5,IO1*%
%TO.N,LED*%
X15254000Y-7373000D03*
%TO.P,J1,6,IO2*%
%TO.N,unconnected-(J1-IO2-Pad6)*%
X15254000Y-7628500D03*
%TD*%
D13*
%TO.P,D3,1,VDD*%
%TO.N,+3V3*%
X14755000Y-8585000D03*
%TO.P,D3,2,DOUT*%
%TO.N,Net-(D3-DOUT)*%
X14755000Y-8915000D03*
%TO.P,D3,3,VSS*%
%TO.N,GND*%
X15245000Y-8915000D03*
%TO.P,D3,4,DIN*%
%TO.N,Net-(D2-DOUT)*%
X15245000Y-8585000D03*
%TD*%
D14*
%TO.P,D2,1,VDD*%
%TO.N,+3V3*%
X15610086Y-8456569D03*
%TO.P,D2,2,DOUT*%
%TO.N,Net-(D2-DOUT)*%
X15843431Y-8689914D03*
%TO.P,D2,3,VSS*%
%TO.N,GND*%
X16189914Y-8343431D03*
%TO.P,D2,4,DIN*%
%TO.N,Net-(D1-DOUT)*%
X15956568Y-8110086D03*
%TD*%
D15*
%TO.P,D1,1,VDD*%
%TO.N,+3V3*%
X16085000Y-7745000D03*
%TO.P,D1,2,DOUT*%
%TO.N,Net-(D1-DOUT)*%
X16415000Y-7745000D03*
%TO.P,D1,3,VSS*%
%TO.N,GND*%
X16415000Y-7255000D03*
%TO.P,D1,4,DIN*%
%TO.N,LED*%
X16085000Y-7255000D03*
%TD*%
D16*
%TO.P,JP1,1,A*%
%TO.N,GND*%
X14870000Y-8075000D03*
D17*
%TO.P,JP1,2,C*%
%TO.N,Net-(JP1-C)*%
X15000000Y-8075000D03*
D18*
%TO.P,JP1,3,B*%
%TO.N,+3V3*%
X15130000Y-8075000D03*
%TD*%
D19*
%TO.P,D6,1,VDD*%
%TO.N,+3V3*%
X14389914Y-6543431D03*
%TO.P,D6,2,DOUT*%
%TO.N,Net-(D6-DOUT)*%
X14156568Y-6310086D03*
%TO.P,D6,3,VSS*%
%TO.N,GND*%
X13810086Y-6656568D03*
%TO.P,D6,4,DIN*%
%TO.N,Net-(D5-DOUT)*%
X14043431Y-6889914D03*
%TD*%
D13*
%TO.P,D7,1,VDD*%
%TO.N,+3V3*%
X15245000Y-6415000D03*
%TO.P,D7,2,DOUT*%
%TO.N,Net-(D7-DOUT)*%
X15245000Y-6085000D03*
%TO.P,D7,3,VSS*%
%TO.N,GND*%
X14755000Y-6085000D03*
%TO.P,D7,4,DIN*%
%TO.N,Net-(D6-DOUT)*%
X14755000Y-6415000D03*
%TD*%
D20*
%TO.P,D8,1,VDD*%
%TO.N,+3V3*%
X15956568Y-6889914D03*
%TO.P,D8,2,DOUT*%
%TO.N,unconnected-(D8-DOUT-Pad2)*%
X16189914Y-6656568D03*
%TO.P,D8,3,VSS*%
%TO.N,GND*%
X15843431Y-6310086D03*
%TO.P,D8,4,DIN*%
%TO.N,Net-(D7-DOUT)*%
X15610086Y-6543431D03*
%TD*%
D15*
%TO.P,D5,1,VDD*%
%TO.N,+3V3*%
X13915000Y-7255000D03*
%TO.P,D5,2,DOUT*%
%TO.N,Net-(D5-DOUT)*%
X13585000Y-7255000D03*
%TO.P,D5,3,VSS*%
%TO.N,GND*%
X13585000Y-7745000D03*
%TO.P,D5,4,DIN*%
%TO.N,Net-(D4-DOUT)*%
X13915000Y-7745000D03*
%TD*%
D21*
%TO.N,+3V3*%
X15000000Y-6525000D03*
X15280000Y-8268579D03*
%TO.N,GND*%
X16200000Y-6950000D03*
X15125000Y-7500000D03*
X16250000Y-7500000D03*
X14450000Y-6950000D03*
X15650000Y-8750000D03*
X16350000Y-7950000D03*
X15450000Y-6150000D03*
X14850000Y-8325000D03*
X14550000Y-8850000D03*
X14075000Y-6700000D03*
X14400000Y-6225000D03*
X15550000Y-6950000D03*
X15800000Y-7500000D03*
X15900000Y-8400000D03*
X15000000Y-6700000D03*
X13675000Y-6900000D03*
X14425000Y-8075000D03*
X13750000Y-8150000D03*
X14925000Y-8575000D03*
X15575000Y-8075000D03*
X14100000Y-8400000D03*
X15000000Y-6250000D03*
X14400000Y-7625000D03*
X13750000Y-7500000D03*
%TO.N,SDA*%
X13815637Y-6315512D03*
X14999958Y-9175000D03*
X16184433Y-6315625D03*
%TO.N,SCL*%
X13886277Y-6386223D03*
X15000000Y-9075000D03*
X16113693Y-6386307D03*
%TO.N,Net-(JP1-C)*%
X15000000Y-8300000D03*
%TO.N,LED*%
X16085000Y-7372500D03*
%TO.N,Net-(D5-DOUT)*%
X13700000Y-7255000D03*
X14150000Y-6997500D03*
%TD*%
D22*
%TO.N,+3V3*%
X15280000Y-8268579D02*
X15279801Y-8268380D01*
X15610000Y-8456482D02*
X15610000Y-8351701D01*
X14331421Y-6789720D02*
X14310203Y-6810939D01*
X14310203Y-7235203D02*
X14360132Y-7285132D01*
X14043518Y-8110000D02*
X14148299Y-8110000D01*
X13915000Y-7255000D02*
X13966421Y-7306421D01*
X14755000Y-8585000D02*
X14806421Y-8533579D01*
X15279801Y-8268380D02*
X15268210Y-8268380D01*
X14316751Y-6803249D02*
X14310000Y-6810000D01*
X15956568Y-6889914D02*
X15956482Y-6890000D01*
X14947843Y-8475000D02*
X15000000Y-8475000D01*
X14025000Y-7447843D02*
X14025000Y-7500000D01*
X16085000Y-7745000D02*
X16033579Y-7693579D01*
X14390000Y-6543518D02*
X14390000Y-6648299D01*
X14572264Y-7373000D02*
X14746000Y-7373000D01*
X15956482Y-6890000D02*
X15851701Y-6890000D01*
X15975000Y-7552157D02*
X15975000Y-7500000D01*
X15052157Y-6525000D02*
X15000000Y-6525000D01*
X15130000Y-8118579D02*
X15130000Y-8075000D01*
X15245000Y-6415000D02*
X15193579Y-6466421D01*
X15280000Y-8268579D02*
X15528579Y-8268579D01*
X15000000Y-6525000D02*
X14988503Y-6525000D01*
X15668578Y-8210279D02*
G75*
G03*
X15610000Y-8351701I141422J-141421D01*
G01*
X14025000Y-7500000D02*
G75*
G03*
X15000000Y-8475000I975000J0D01*
G01*
X15528579Y-8268578D02*
G75*
G03*
X15670000Y-8210000I1J199998D01*
G01*
X14024998Y-7447843D02*
G75*
G03*
X13966421Y-7306421I-199998J3D01*
G01*
X14331422Y-6789721D02*
G75*
G03*
X14390000Y-6648299I-141422J141421D01*
G01*
X14988503Y-6525002D02*
G75*
G03*
X14316751Y-6803249I-3J-949998D01*
G01*
X14947843Y-8475002D02*
G75*
G03*
X14806421Y-8533579I-3J-199998D01*
G01*
X14310202Y-6810938D02*
G75*
G03*
X14310203Y-7235203I212138J-212132D01*
G01*
X14289721Y-8168578D02*
G75*
G03*
X14148299Y-8110000I-141421J-141422D01*
G01*
X15710279Y-6831422D02*
G75*
G03*
X15851701Y-6890000I141421J141422D01*
G01*
X15975002Y-7552157D02*
G75*
G03*
X16033579Y-7693578I199998J-3D01*
G01*
X14360130Y-7285134D02*
G75*
G03*
X14572264Y-7373000I212130J212134D01*
G01*
X15000000Y-8475000D02*
G75*
G03*
X15975000Y-7500000I0J975000D01*
G01*
X15130008Y-8118579D02*
G75*
G03*
X15268210Y-8268380I150492J189D01*
G01*
X15052157Y-6524998D02*
G75*
G03*
X15193578Y-6466421I3J199998D01*
G01*
X15975000Y-7500000D02*
G75*
G03*
X15000000Y-6525000I-975000J0D01*
G01*
%TO.N,SDA*%
X13382602Y-7064457D02*
X13383480Y-7061248D01*
X13325000Y-7499958D02*
X13325000Y-7493280D01*
X13815625Y-8684433D02*
X13815567Y-8684375D01*
X16184433Y-8684375D02*
X16184375Y-8684433D01*
X13431494Y-7025200D02*
X13949657Y-7025200D01*
X16675000Y-7499959D02*
X16675000Y-7500041D01*
X15000041Y-9175000D02*
X15000000Y-9175000D01*
X14999958Y-5825000D02*
X15000041Y-5825000D01*
X15000000Y-9175000D02*
X15000000Y-9175000D01*
X14875000Y-7625000D02*
X14875000Y-7560132D01*
X14225000Y-7312132D02*
X14225000Y-7625000D01*
X14375000Y-7775000D02*
X14725000Y-7775000D01*
X13815625Y-6315567D02*
X13815625Y-6315524D01*
X15000000Y-9175000D02*
X14999958Y-9175000D01*
X13815625Y-6315524D02*
X13815637Y-6315512D01*
X16184375Y-6315567D02*
X16184433Y-6315625D01*
X15000000Y-9175000D02*
X15000000Y-9175000D01*
X14043934Y-7068934D02*
X14181066Y-7206066D01*
X14918934Y-7454066D02*
X15000000Y-7373000D01*
X15000041Y-9175001D02*
G75*
G03*
X16184375Y-8684433I-2J1674901D01*
G01*
X16184374Y-6315568D02*
G75*
G03*
X15000041Y-5825000I-1184334J-1184332D01*
G01*
X14999958Y-5824999D02*
G75*
G03*
X13815625Y-6315567I2J-1674901D01*
G01*
X14043934Y-7068934D02*
G75*
G03*
X13949657Y-7025200I-107324J-107876D01*
G01*
X16675001Y-7499959D02*
G75*
G03*
X16184433Y-6315625I-1674901J-1D01*
G01*
X14918933Y-7454065D02*
G75*
G03*
X14875000Y-7560132I106067J-106065D01*
G01*
X13431494Y-7025204D02*
G75*
G03*
X13383480Y-7061248I-4J-49996D01*
G01*
X16184432Y-8684374D02*
G75*
G03*
X16675000Y-7500041I-1184333J1184334D01*
G01*
X14725000Y-7775000D02*
G75*
G03*
X14875000Y-7625000I0J150000D01*
G01*
X14225000Y-7625000D02*
G75*
G03*
X14375000Y-7775000I150000J0D01*
G01*
X13815626Y-8684432D02*
G75*
G03*
X14999958Y-9175000I1184334J1184332D01*
G01*
X14224998Y-7312132D02*
G75*
G03*
X14181066Y-7206066I-149999J2D01*
G01*
X13382602Y-7064457D02*
G75*
G03*
X13325000Y-7493280I1567398J-428823D01*
G01*
X13324999Y-7500041D02*
G75*
G03*
X13815567Y-8684375I1674901J2D01*
G01*
%TO.N,SCL*%
X13886307Y-6386307D02*
X13886277Y-6386277D01*
X13886277Y-6386277D02*
X13886277Y-6386223D01*
X13425000Y-7490489D02*
X13425000Y-7500000D01*
X13943409Y-7125194D02*
X13509673Y-7125194D01*
X15000000Y-7628500D02*
X15000000Y-7675000D01*
X14800000Y-7875000D02*
X14375000Y-7875000D01*
X13461122Y-7163243D02*
X13460007Y-7168315D01*
X14125000Y-7625000D02*
X14125000Y-7316421D01*
X14095711Y-7245711D02*
X14004289Y-7154289D01*
X16575000Y-7500000D02*
G75*
G03*
X16113693Y-6386307I-1575000J0D01*
G01*
X13425000Y-7500000D02*
G75*
G03*
X13886307Y-8613693I1575000J0D01*
G01*
X15000000Y-9075000D02*
G75*
G03*
X16113693Y-8613693I0J1575000D01*
G01*
X14004291Y-7154287D02*
G75*
G03*
X13943409Y-7125194I-72192J-72823D01*
G01*
X15000000Y-5925000D02*
G75*
G03*
X13886307Y-6386307I0J-1575000D01*
G01*
X14800000Y-7875000D02*
G75*
G03*
X15000000Y-7675000I0J200000D01*
G01*
X16113693Y-8613693D02*
G75*
G03*
X16575000Y-7500000I-1113693J1113693D01*
G01*
X13460007Y-7168315D02*
G75*
G03*
X13425000Y-7490489I1464993J-322175D01*
G01*
X14124999Y-7316421D02*
G75*
G03*
X14095711Y-7245711I-99999J1D01*
G01*
X14125000Y-7625000D02*
G75*
G03*
X14375000Y-7875000I250000J0D01*
G01*
X16113693Y-6386307D02*
G75*
G03*
X15000000Y-5925000I-1113693J-1113693D01*
G01*
X13509673Y-7125194D02*
G75*
G03*
X13461122Y-7163243I-3J-49996D01*
G01*
X13886307Y-8613693D02*
G75*
G03*
X15000000Y-9075000I1113693J1113693D01*
G01*
%TO.N,Net-(JP1-C)*%
X15000000Y-8075000D02*
X15000000Y-8300000D01*
%TO.N,Net-(D1-DOUT)*%
X15956568Y-8110086D02*
X16263076Y-7803579D01*
X16404497Y-7745000D02*
X16415000Y-7745000D01*
X16404497Y-7744998D02*
G75*
G03*
X16263076Y-7803579I3J-200002D01*
G01*
%TO.N,LED*%
X16085000Y-7372500D02*
X16085000Y-7255000D01*
%TO.N,Net-(D2-DOUT)*%
X15245000Y-8585000D02*
X15655675Y-8585000D01*
X15797096Y-8643579D02*
X15843431Y-8689914D01*
X15797099Y-8643576D02*
G75*
G03*
X15655675Y-8585000I-141419J-141424D01*
G01*
%TO.N,Net-(D3-DOUT)*%
X14389914Y-8456569D02*
X14696421Y-8763076D01*
X14755000Y-8904497D02*
X14755000Y-8915000D01*
X14755002Y-8904497D02*
G75*
G03*
X14696421Y-8763076I-200002J-3D01*
G01*
%TO.N,Net-(D4-DOUT)*%
X13856421Y-8297096D02*
X13810086Y-8343431D01*
X13915000Y-7745000D02*
X13915000Y-8155675D01*
X13856424Y-8297099D02*
G75*
G03*
X13915000Y-8155675I-141424J141419D01*
G01*
%TO.N,Net-(D5-DOUT)*%
X14150000Y-6996482D02*
X14043431Y-6889914D01*
X13585000Y-7255000D02*
X13700000Y-7255000D01*
X14150000Y-6997500D02*
X14150000Y-6996482D01*
%TO.N,Net-(D6-DOUT)*%
X14755000Y-6415000D02*
X14344325Y-6415000D01*
X14202904Y-6356421D02*
X14156568Y-6310086D01*
X14202901Y-6356424D02*
G75*
G03*
X14344325Y-6415000I141419J141424D01*
G01*
%TO.N,Net-(D7-DOUT)*%
X15245000Y-6095503D02*
X15245000Y-6085000D01*
X15610086Y-6543431D02*
X15303579Y-6236924D01*
X15244998Y-6095503D02*
G75*
G03*
X15303579Y-6236924I200002J3D01*
G01*
%TD*%
%TA.AperFunction,Conductor*%
%TO.N,GND*%
G36*
X15146860Y-8504138D02*
G01*
X15152039Y-8508828D01*
X15153859Y-8515574D01*
X15151773Y-8522190D01*
X15146403Y-8530226D01*
X15146403Y-8530226D01*
X15144950Y-8537532D01*
X15144950Y-8632468D01*
X15146403Y-8639774D01*
X15146403Y-8639774D01*
X15147482Y-8641388D01*
X15151940Y-8648060D01*
X15158625Y-8652527D01*
X15160226Y-8653597D01*
X15160226Y-8653597D01*
X15167532Y-8655050D01*
X15167532Y-8655050D01*
X15322467Y-8655050D01*
X15322468Y-8655050D01*
X15322468Y-8655050D01*
X15329774Y-8653597D01*
X15338060Y-8648060D01*
X15343597Y-8639774D01*
X15344077Y-8637356D01*
X15345037Y-8632531D01*
X15348276Y-8626340D01*
X15354347Y-8622882D01*
X15357199Y-8622550D01*
X15650277Y-8622550D01*
X15650277Y-8622550D01*
X15655472Y-8622550D01*
X15655878Y-8622563D01*
X15673244Y-8623701D01*
X15676474Y-8623913D01*
X15677278Y-8624018D01*
X15697324Y-8628005D01*
X15698106Y-8628215D01*
X15717459Y-8634784D01*
X15718207Y-8635094D01*
X15736538Y-8644133D01*
X15737239Y-8644538D01*
X15750797Y-8653597D01*
X15754232Y-8655892D01*
X15754877Y-8656386D01*
X15757185Y-8658411D01*
X15760928Y-8664311D01*
X15760886Y-8671298D01*
X15757778Y-8676502D01*
X15739121Y-8695158D01*
X15739121Y-8695159D01*
X15734982Y-8701353D01*
X15733239Y-8710116D01*
X15733038Y-8711127D01*
X15734982Y-8720901D01*
X15737735Y-8725021D01*
X15739121Y-8727096D01*
X15804147Y-8792121D01*
X15807495Y-8798254D01*
X15806997Y-8805223D01*
X15802810Y-8810816D01*
X15802013Y-8811366D01*
X15790535Y-8818634D01*
X15790274Y-8818790D01*
X15724882Y-8855835D01*
X15724613Y-8855978D01*
X15657480Y-8889770D01*
X15657205Y-8889900D01*
X15588495Y-8920357D01*
X15588214Y-8920473D01*
X15518093Y-8947522D01*
X15517806Y-8947625D01*
X15446443Y-8971200D01*
X15446151Y-8971288D01*
X15383708Y-8988569D01*
X15376722Y-8988460D01*
X15370904Y-8984591D01*
X15368101Y-8978191D01*
X15368783Y-8972285D01*
X15369360Y-8970738D01*
X15369360Y-8970737D01*
X15370000Y-8964784D01*
X15370000Y-8964783D01*
X15370000Y-8940000D01*
X15120000Y-8940000D01*
X15120000Y-8964784D01*
X15120640Y-8970737D01*
X15120640Y-8970738D01*
X15125664Y-8984209D01*
X15125665Y-8984209D01*
X15134281Y-8995719D01*
X15134281Y-8995719D01*
X15145791Y-9004335D01*
X15145791Y-9004335D01*
X15151031Y-9006290D01*
X15156625Y-9010477D01*
X15159066Y-9017023D01*
X15157581Y-9023851D01*
X15152641Y-9028791D01*
X15147610Y-9030274D01*
X15075592Y-9035587D01*
X15075288Y-9035602D01*
X15058885Y-9036004D01*
X15052135Y-9034201D01*
X15049299Y-9031830D01*
X15049049Y-9031548D01*
X15049048Y-9031547D01*
X15037224Y-9021072D01*
X15037224Y-9021072D01*
X15037224Y-9021072D01*
X15023236Y-9013730D01*
X15007899Y-9009950D01*
X15007898Y-9009950D01*
X14992101Y-9009950D01*
X14992101Y-9009950D01*
X14976763Y-9013730D01*
X14962776Y-9021072D01*
X14950951Y-9031547D01*
X14950700Y-9031831D01*
X14950464Y-9031979D01*
X14950390Y-9032044D01*
X14950379Y-9032032D01*
X14944781Y-9035544D01*
X14941114Y-9036004D01*
X14924712Y-9035602D01*
X14924408Y-9035587D01*
X14849454Y-9030058D01*
X14849153Y-9030028D01*
X14799066Y-9023851D01*
X14774560Y-9020828D01*
X14774261Y-9020784D01*
X14710196Y-9009667D01*
X14703928Y-9006582D01*
X14700322Y-9000597D01*
X14700525Y-8993613D01*
X14704471Y-8987847D01*
X14710908Y-8985130D01*
X14712316Y-8985050D01*
X14832468Y-8985050D01*
X14832468Y-8985050D01*
X14839774Y-8983597D01*
X14848060Y-8978060D01*
X14853597Y-8969774D01*
X14855050Y-8962467D01*
X14855050Y-8890000D01*
X15120000Y-8890000D01*
X15220000Y-8890000D01*
X15220000Y-8820000D01*
X15270000Y-8820000D01*
X15270000Y-8890000D01*
X15370000Y-8890000D01*
X15370000Y-8865217D01*
X15370000Y-8865216D01*
X15369360Y-8859263D01*
X15369360Y-8859262D01*
X15364335Y-8845791D01*
X15364335Y-8845791D01*
X15355719Y-8834281D01*
X15355719Y-8834281D01*
X15344209Y-8825665D01*
X15344209Y-8825665D01*
X15330738Y-8820640D01*
X15330737Y-8820640D01*
X15324784Y-8820000D01*
X15270000Y-8820000D01*
X15220000Y-8820000D01*
X15165215Y-8820000D01*
X15159263Y-8820640D01*
X15159262Y-8820640D01*
X15145791Y-8825665D01*
X15145791Y-8825665D01*
X15134281Y-8834281D01*
X15134281Y-8834281D01*
X15125665Y-8845791D01*
X15125664Y-8845791D01*
X15120640Y-8859262D01*
X15120640Y-8859263D01*
X15120000Y-8865216D01*
X15120000Y-8890000D01*
X14855050Y-8890000D01*
X14855050Y-8867533D01*
X14855050Y-8867532D01*
X14855050Y-8867532D01*
X14853597Y-8860226D01*
X14853597Y-8860226D01*
X14853596Y-8860226D01*
X14848060Y-8851940D01*
X14839774Y-8846403D01*
X14839774Y-8846403D01*
X14839773Y-8846403D01*
X14832468Y-8844950D01*
X14832467Y-8844950D01*
X14794636Y-8844950D01*
X14787932Y-8842982D01*
X14783356Y-8837701D01*
X14782932Y-8836647D01*
X14774814Y-8813447D01*
X14764615Y-8792270D01*
X14763238Y-8789409D01*
X14763237Y-8789409D01*
X14760976Y-8785811D01*
X14749042Y-8766817D01*
X14749041Y-8766817D01*
X14749041Y-8766816D01*
X14732406Y-8745957D01*
X14732406Y-8745957D01*
X14722973Y-8736524D01*
X14721340Y-8734891D01*
X14691633Y-8705185D01*
X14661456Y-8675007D01*
X14658108Y-8668875D01*
X14658606Y-8661906D01*
X14662793Y-8656313D01*
X14669340Y-8653871D01*
X14672643Y-8654077D01*
X14675887Y-8654723D01*
X14677532Y-8655050D01*
X14832467Y-8655050D01*
X14832468Y-8655050D01*
X14832468Y-8655050D01*
X14839774Y-8653597D01*
X14848060Y-8648060D01*
X14853597Y-8639774D01*
X14855050Y-8632467D01*
X14855050Y-8548672D01*
X14857018Y-8541968D01*
X14860561Y-8538362D01*
X14866281Y-8534540D01*
X14866982Y-8534135D01*
X14870472Y-8532414D01*
X14885311Y-8525097D01*
X14886061Y-8524786D01*
X14905413Y-8518217D01*
X14906195Y-8518008D01*
X14926240Y-8514021D01*
X14927044Y-8513915D01*
X14947670Y-8512563D01*
X14948075Y-8512550D01*
X15030595Y-8512550D01*
X15030596Y-8512550D01*
X15091676Y-8508855D01*
X15139968Y-8502992D01*
X15146860Y-8504138D01*
G37*
%TD.AperFunction*%
%TA.AperFunction,Conductor*%
G36*
X13973070Y-8138835D02*
G01*
X13973718Y-8139438D01*
X14048676Y-8214396D01*
X14048676Y-8214397D01*
X14048676Y-8214397D01*
X14054871Y-8218536D01*
X14063023Y-8220157D01*
X14064645Y-8220480D01*
X14064645Y-8220480D01*
X14064645Y-8220480D01*
X14074419Y-8218536D01*
X14080613Y-8214397D01*
X14143539Y-8151471D01*
X14149671Y-8148123D01*
X14153117Y-8147866D01*
X14169098Y-8148913D01*
X14169901Y-8149019D01*
X14187239Y-8152467D01*
X14189945Y-8153006D01*
X14190729Y-8153216D01*
X14202481Y-8157205D01*
X14210082Y-8159785D01*
X14210830Y-8160095D01*
X14228418Y-8168768D01*
X14229159Y-8169134D01*
X14229862Y-8169540D01*
X14246855Y-8180893D01*
X14247498Y-8181387D01*
X14254412Y-8187450D01*
X14263009Y-8194989D01*
X14263305Y-8195267D01*
X14305651Y-8237613D01*
X14305655Y-8237617D01*
X14351457Y-8278194D01*
X14351457Y-8278194D01*
X14399626Y-8315932D01*
X14449580Y-8350413D01*
X14449986Y-8350693D01*
X14484712Y-8371685D01*
X14499480Y-8380613D01*
X14502353Y-8382350D01*
X14556536Y-8410787D01*
X14612337Y-8435901D01*
X14612338Y-8435901D01*
X14612338Y-8435902D01*
X14628543Y-8442047D01*
X14669553Y-8457600D01*
X14727974Y-8475805D01*
X14773309Y-8486979D01*
X14779347Y-8490495D01*
X14782525Y-8496717D01*
X14781836Y-8503669D01*
X14779109Y-8507787D01*
X14778068Y-8508828D01*
X14775578Y-8511318D01*
X14769446Y-8514667D01*
X14766810Y-8514950D01*
X14677532Y-8514950D01*
X14670226Y-8516403D01*
X14670226Y-8516403D01*
X14661940Y-8521940D01*
X14656403Y-8530226D01*
X14656403Y-8530226D01*
X14654950Y-8537532D01*
X14654950Y-8632468D01*
X14655922Y-8637356D01*
X14655300Y-8644315D01*
X14651013Y-8649833D01*
X14644424Y-8652158D01*
X14637625Y-8650551D01*
X14634993Y-8648544D01*
X14495802Y-8509353D01*
X14492454Y-8503221D01*
X14492952Y-8496252D01*
X14494260Y-8493697D01*
X14498363Y-8487556D01*
X14500307Y-8477782D01*
X14500296Y-8477723D01*
X14499800Y-8475229D01*
X14498363Y-8468008D01*
X14494224Y-8461813D01*
X14494224Y-8461813D01*
X14384669Y-8352258D01*
X14381782Y-8350329D01*
X14378475Y-8348119D01*
X14368701Y-8346175D01*
X14358926Y-8348119D01*
X14352732Y-8352258D01*
X14285603Y-8419387D01*
X14281608Y-8425367D01*
X14281464Y-8425581D01*
X14279520Y-8435355D01*
X14281464Y-8445129D01*
X14284217Y-8449250D01*
X14285603Y-8451324D01*
X14395158Y-8560879D01*
X14395159Y-8560879D01*
X14401353Y-8565018D01*
X14411127Y-8566962D01*
X14420901Y-8565018D01*
X14427042Y-8560915D01*
X14433709Y-8558827D01*
X14440447Y-8560676D01*
X14442699Y-8562457D01*
X14666052Y-8785811D01*
X14669727Y-8789486D01*
X14670003Y-8789780D01*
X14683613Y-8805299D01*
X14684106Y-8805942D01*
X14695460Y-8822934D01*
X14695866Y-8823637D01*
X14697557Y-8827066D01*
X14698757Y-8833949D01*
X14696045Y-8840388D01*
X14690282Y-8844339D01*
X14686436Y-8844950D01*
X14677532Y-8844950D01*
X14670226Y-8846403D01*
X14670226Y-8846403D01*
X14661940Y-8851940D01*
X14656403Y-8860226D01*
X14656403Y-8860226D01*
X14654950Y-8867532D01*
X14654950Y-8962468D01*
X14656403Y-8969774D01*
X14656403Y-8969774D01*
X14656403Y-8969774D01*
X14661152Y-8976882D01*
X14661449Y-8977325D01*
X14663537Y-8983993D01*
X14661688Y-8990731D01*
X14656490Y-8995400D01*
X14649593Y-8996518D01*
X14648422Y-8996313D01*
X14629190Y-8991994D01*
X14626577Y-8991408D01*
X14626283Y-8991334D01*
X14553848Y-8971288D01*
X14553557Y-8971200D01*
X14482194Y-8947625D01*
X14481908Y-8947523D01*
X14450031Y-8935226D01*
X14411786Y-8920473D01*
X14411504Y-8920357D01*
X14342795Y-8889900D01*
X14342520Y-8889770D01*
X14275387Y-8855978D01*
X14275118Y-8855835D01*
X14220550Y-8824922D01*
X14215687Y-8819905D01*
X14214309Y-8813055D01*
X14216853Y-8806548D01*
X14217894Y-8805365D01*
X14227279Y-8795980D01*
X14121213Y-8689914D01*
X14191924Y-8689914D01*
X14262634Y-8760625D01*
X14280159Y-8743100D01*
X14283917Y-8738437D01*
X14289889Y-8725359D01*
X14289889Y-8725358D01*
X14291935Y-8711127D01*
X14289889Y-8696896D01*
X14289889Y-8696895D01*
X14283917Y-8683817D01*
X14280159Y-8679154D01*
X14241421Y-8640416D01*
X14191924Y-8689914D01*
X14121213Y-8689914D01*
X14050502Y-8619203D01*
X14032979Y-8636727D01*
X14032978Y-8636727D01*
X14029220Y-8641391D01*
X14023248Y-8654469D01*
X14023247Y-8654469D01*
X14022277Y-8661218D01*
X14019375Y-8667573D01*
X14013497Y-8671351D01*
X14006510Y-8671351D01*
X14001904Y-8668843D01*
X13967627Y-8639275D01*
X13967402Y-8639071D01*
X13912969Y-8587246D01*
X13912754Y-8587031D01*
X13909723Y-8583848D01*
X14085858Y-8583848D01*
X14156568Y-8654559D01*
X14206066Y-8605061D01*
X14167329Y-8566324D01*
X14167328Y-8566324D01*
X14162665Y-8562566D01*
X14149587Y-8556593D01*
X14149587Y-8556593D01*
X14135355Y-8554547D01*
X14121124Y-8556593D01*
X14121123Y-8556593D01*
X14108045Y-8562566D01*
X14103382Y-8566324D01*
X14103382Y-8566324D01*
X14085858Y-8583848D01*
X13909723Y-8583848D01*
X13860929Y-8532598D01*
X13860725Y-8532372D01*
X13859393Y-8530828D01*
X13811633Y-8475462D01*
X13811442Y-8475229D01*
X13808544Y-8471515D01*
X13805971Y-8465019D01*
X13807319Y-8458163D01*
X13812159Y-8453124D01*
X13818955Y-8451502D01*
X13820738Y-8451724D01*
X13821525Y-8451881D01*
X13821525Y-8451881D01*
X13831299Y-8453825D01*
X13841073Y-8451881D01*
X13847268Y-8447742D01*
X13914397Y-8380613D01*
X13918536Y-8374419D01*
X13920480Y-8364645D01*
X13918536Y-8354871D01*
X13914397Y-8348676D01*
X13914397Y-8348676D01*
X13894711Y-8328991D01*
X13891363Y-8322859D01*
X13891861Y-8315889D01*
X13893784Y-8312492D01*
X13909044Y-8293356D01*
X13923239Y-8270764D01*
X13923825Y-8269548D01*
X13934815Y-8246726D01*
X13934815Y-8246725D01*
X13934943Y-8246360D01*
X13943627Y-8221541D01*
X13949564Y-8195528D01*
X13952550Y-8169015D01*
X13952550Y-8155674D01*
X13952550Y-8154902D01*
X13952550Y-8148207D01*
X13954518Y-8141503D01*
X13959799Y-8136927D01*
X13966715Y-8135933D01*
X13973070Y-8138835D01*
G37*
%TD.AperFunction*%
%TA.AperFunction,Conductor*%
G36*
X16003669Y-7718164D02*
G01*
X16007787Y-7720891D01*
X16011318Y-7724422D01*
X16014667Y-7730554D01*
X16014950Y-7733190D01*
X16014950Y-7822468D01*
X16016403Y-7829773D01*
X16016403Y-7829774D01*
X16018240Y-7832523D01*
X16021940Y-7838060D01*
X16029752Y-7843280D01*
X16030226Y-7843597D01*
X16030226Y-7843597D01*
X16037532Y-7845050D01*
X16037532Y-7845050D01*
X16132467Y-7845050D01*
X16132467Y-7845050D01*
X16134226Y-7844700D01*
X16137356Y-7844077D01*
X16144315Y-7844700D01*
X16149833Y-7848986D01*
X16152158Y-7855575D01*
X16150551Y-7862375D01*
X16148543Y-7865007D01*
X16009353Y-8004197D01*
X16003221Y-8007546D01*
X15996252Y-8007047D01*
X15993696Y-8005740D01*
X15987556Y-8001637D01*
X15977782Y-7999692D01*
X15968008Y-8001637D01*
X15961813Y-8005776D01*
X15852258Y-8115331D01*
X15850564Y-8117866D01*
X15848119Y-8121525D01*
X15846175Y-8131299D01*
X15848119Y-8141073D01*
X15849730Y-8143484D01*
X15852258Y-8147268D01*
X15919387Y-8214397D01*
X15919387Y-8214397D01*
X15925581Y-8218536D01*
X15935355Y-8220480D01*
X15945129Y-8218536D01*
X15951324Y-8214397D01*
X16060879Y-8104841D01*
X16065018Y-8098647D01*
X16066962Y-8088873D01*
X16065018Y-8079099D01*
X16060915Y-8072958D01*
X16058827Y-8066290D01*
X16060676Y-8059552D01*
X16062457Y-8057302D01*
X16289487Y-7830271D01*
X16289778Y-7829998D01*
X16305299Y-7816387D01*
X16305941Y-7815894D01*
X16322935Y-7804539D01*
X16323637Y-7804134D01*
X16327065Y-7802443D01*
X16333949Y-7801243D01*
X16340388Y-7803955D01*
X16344338Y-7809718D01*
X16344950Y-7813564D01*
X16344950Y-7822468D01*
X16346403Y-7829773D01*
X16346403Y-7829774D01*
X16348240Y-7832523D01*
X16351940Y-7838060D01*
X16359752Y-7843280D01*
X16360226Y-7843597D01*
X16360226Y-7843597D01*
X16367532Y-7845050D01*
X16367532Y-7845050D01*
X16462467Y-7845050D01*
X16462468Y-7845050D01*
X16462468Y-7845050D01*
X16469774Y-7843597D01*
X16477325Y-7838551D01*
X16483993Y-7836463D01*
X16490731Y-7838312D01*
X16495400Y-7843510D01*
X16496517Y-7850407D01*
X16496313Y-7851578D01*
X16491408Y-7873422D01*
X16491334Y-7873717D01*
X16471288Y-7946151D01*
X16471200Y-7946443D01*
X16447625Y-8017806D01*
X16447522Y-8018093D01*
X16420473Y-8088214D01*
X16420357Y-8088495D01*
X16389900Y-8157205D01*
X16389770Y-8157480D01*
X16355978Y-8224613D01*
X16355834Y-8224882D01*
X16324922Y-8279450D01*
X16319905Y-8284312D01*
X16313055Y-8285691D01*
X16306548Y-8283147D01*
X16305365Y-8282106D01*
X16295980Y-8272721D01*
X16119203Y-8449497D01*
X16136727Y-8467021D01*
X16136727Y-8467022D01*
X16141391Y-8470780D01*
X16154469Y-8476752D01*
X16154469Y-8476752D01*
X16161218Y-8477723D01*
X16167573Y-8480625D01*
X16171351Y-8486503D01*
X16171351Y-8493490D01*
X16168842Y-8498096D01*
X16139275Y-8532372D01*
X16139071Y-8532598D01*
X16087246Y-8587031D01*
X16087030Y-8587247D01*
X16032598Y-8639071D01*
X16032372Y-8639275D01*
X15975464Y-8688365D01*
X15975229Y-8688558D01*
X15971515Y-8691456D01*
X15965019Y-8694029D01*
X15958163Y-8692681D01*
X15953124Y-8687841D01*
X15951502Y-8681045D01*
X15951724Y-8679261D01*
X15951881Y-8678475D01*
X15951881Y-8678475D01*
X15953825Y-8668701D01*
X15951881Y-8658927D01*
X15947742Y-8652732D01*
X15947742Y-8652732D01*
X15880613Y-8585603D01*
X15877986Y-8583848D01*
X15874419Y-8581464D01*
X15864645Y-8579520D01*
X15854870Y-8581464D01*
X15848676Y-8585603D01*
X15848676Y-8585604D01*
X15828991Y-8605288D01*
X15822859Y-8608637D01*
X15815889Y-8608139D01*
X15812492Y-8606215D01*
X15793357Y-8590956D01*
X15793357Y-8590956D01*
X15793356Y-8590956D01*
X15770764Y-8576761D01*
X15770764Y-8576761D01*
X15770764Y-8576760D01*
X15746726Y-8565185D01*
X15746725Y-8565185D01*
X15721541Y-8556373D01*
X15721540Y-8556373D01*
X15701377Y-8551771D01*
X15695528Y-8550436D01*
X15669015Y-8547450D01*
X15669014Y-8547450D01*
X15655674Y-8547450D01*
X15648207Y-8547450D01*
X15641503Y-8545482D01*
X15636927Y-8540201D01*
X15635933Y-8533285D01*
X15638835Y-8526930D01*
X15639438Y-8526282D01*
X15714397Y-8451324D01*
X15714396Y-8451324D01*
X15714397Y-8451324D01*
X15718536Y-8445129D01*
X15720480Y-8435355D01*
X15718536Y-8425581D01*
X15714397Y-8419387D01*
X15714397Y-8419387D01*
X15714396Y-8419387D01*
X15659654Y-8364645D01*
X16054547Y-8364645D01*
X16056593Y-8378876D01*
X16056593Y-8378876D01*
X16062565Y-8391954D01*
X16066323Y-8396618D01*
X16083848Y-8414142D01*
X16154558Y-8343431D01*
X16154558Y-8343431D01*
X16105061Y-8293934D01*
X16066324Y-8332671D01*
X16066323Y-8332671D01*
X16062565Y-8337335D01*
X16056593Y-8350413D01*
X16056593Y-8350413D01*
X16054547Y-8364645D01*
X15659654Y-8364645D01*
X15651471Y-8356461D01*
X15648122Y-8350329D01*
X15647866Y-8346883D01*
X15648913Y-8330901D01*
X15649019Y-8330099D01*
X15653006Y-8310053D01*
X15653216Y-8309271D01*
X15656363Y-8300000D01*
X15659785Y-8289917D01*
X15660095Y-8289170D01*
X15669134Y-8270840D01*
X15669540Y-8270137D01*
X15669934Y-8269548D01*
X15677263Y-8258579D01*
X16140416Y-8258579D01*
X16189914Y-8308076D01*
X16189914Y-8308076D01*
X16260624Y-8237365D01*
X16260624Y-8237365D01*
X16243101Y-8219842D01*
X16243101Y-8219842D01*
X16238437Y-8216083D01*
X16225359Y-8210111D01*
X16225358Y-8210110D01*
X16211127Y-8208064D01*
X16196896Y-8210110D01*
X16196895Y-8210111D01*
X16183817Y-8216083D01*
X16179154Y-8219841D01*
X16140416Y-8258579D01*
X16140416Y-8258579D01*
X15677263Y-8258579D01*
X15680894Y-8253144D01*
X15681386Y-8252502D01*
X15686852Y-8246270D01*
X15687125Y-8245978D01*
X15692920Y-8240184D01*
X15692921Y-8240183D01*
X15700369Y-8232735D01*
X15700369Y-8232734D01*
X15700369Y-8232734D01*
X15700888Y-8231784D01*
X15703003Y-8228959D01*
X15737616Y-8194346D01*
X15778193Y-8148543D01*
X15778194Y-8148543D01*
X15778194Y-8148543D01*
X15802702Y-8117261D01*
X15815932Y-8100374D01*
X15850693Y-8050014D01*
X15882350Y-7997647D01*
X15910787Y-7943464D01*
X15935901Y-7887663D01*
X15957600Y-7830447D01*
X15975805Y-7772026D01*
X15986979Y-7726691D01*
X15990495Y-7720653D01*
X15996716Y-7717474D01*
X16003669Y-7718164D01*
G37*
%TD.AperFunction*%
%TA.AperFunction,Conductor*%
G36*
X14947794Y-6565751D02*
G01*
X14950690Y-6568158D01*
X14950951Y-6568453D01*
X14950952Y-6568453D01*
X14950952Y-6568453D01*
X14962776Y-6578928D01*
X14962776Y-6578928D01*
X14976763Y-6586270D01*
X14992101Y-6590050D01*
X15007898Y-6590050D01*
X15023236Y-6586270D01*
X15037224Y-6578928D01*
X15037224Y-6578928D01*
X15037224Y-6578928D01*
X15049048Y-6568453D01*
X15049048Y-6568453D01*
X15049610Y-6567955D01*
X15049723Y-6568083D01*
X15054860Y-6564860D01*
X15059391Y-6564450D01*
X15090320Y-6567373D01*
X15117301Y-6569924D01*
X15117685Y-6569972D01*
X15175471Y-6579125D01*
X15175847Y-6579196D01*
X15232946Y-6591960D01*
X15233320Y-6592056D01*
X15289504Y-6608379D01*
X15289868Y-6608497D01*
X15344914Y-6628315D01*
X15345276Y-6628458D01*
X15398968Y-6651692D01*
X15399320Y-6651858D01*
X15451447Y-6678418D01*
X15451788Y-6678605D01*
X15470961Y-6689945D01*
X15502143Y-6708386D01*
X15502472Y-6708594D01*
X15550775Y-6741421D01*
X15550858Y-6741477D01*
X15551173Y-6741706D01*
X15597399Y-6777563D01*
X15597698Y-6777810D01*
X15641583Y-6816500D01*
X15641866Y-6816765D01*
X15683234Y-6858134D01*
X15683500Y-6858416D01*
X15719904Y-6899709D01*
X15722189Y-6902301D01*
X15722437Y-6902601D01*
X15758294Y-6948827D01*
X15758523Y-6949142D01*
X15791405Y-6997528D01*
X15791614Y-6997857D01*
X15821394Y-7048212D01*
X15821582Y-7048553D01*
X15848141Y-7100679D01*
X15848307Y-7101032D01*
X15871542Y-7154724D01*
X15871685Y-7155086D01*
X15879766Y-7177532D01*
X15891502Y-7210130D01*
X15891622Y-7210498D01*
X15904914Y-7256250D01*
X15907944Y-7266677D01*
X15908040Y-7267055D01*
X15920803Y-7324150D01*
X15920875Y-7324531D01*
X15925985Y-7356794D01*
X15930027Y-7382313D01*
X15930076Y-7382699D01*
X15935582Y-7440943D01*
X15935606Y-7441332D01*
X15937444Y-7499805D01*
X15937444Y-7500195D01*
X15935606Y-7558668D01*
X15935582Y-7559057D01*
X15930076Y-7617301D01*
X15930027Y-7617687D01*
X15926021Y-7642981D01*
X15921228Y-7673242D01*
X15920876Y-7675467D01*
X15920803Y-7675850D01*
X15908040Y-7732945D01*
X15907944Y-7733322D01*
X15898940Y-7764312D01*
X15891741Y-7789092D01*
X15891622Y-7789501D01*
X15891502Y-7789871D01*
X15889465Y-7795529D01*
X15871685Y-7844914D01*
X15871542Y-7845276D01*
X15848307Y-7898968D01*
X15848141Y-7899320D01*
X15821582Y-7951447D01*
X15821394Y-7951788D01*
X15791614Y-8002143D01*
X15791405Y-8002472D01*
X15758523Y-8050858D01*
X15758294Y-8051173D01*
X15722437Y-8097399D01*
X15722189Y-8097699D01*
X15683500Y-8141583D01*
X15683233Y-8141867D01*
X15641867Y-8183234D01*
X15641583Y-8183500D01*
X15620670Y-8201937D01*
X15620014Y-8202442D01*
X15610142Y-8209038D01*
X15609438Y-8209444D01*
X15591111Y-8218482D01*
X15590361Y-8218793D01*
X15571008Y-8225362D01*
X15570224Y-8225572D01*
X15550182Y-8229559D01*
X15549377Y-8229665D01*
X15528772Y-8231015D01*
X15528367Y-8231029D01*
X15339631Y-8231029D01*
X15332927Y-8229060D01*
X15329426Y-8225672D01*
X15329048Y-8225126D01*
X15317224Y-8214650D01*
X15317224Y-8214650D01*
X15317224Y-8214650D01*
X15303236Y-8207309D01*
X15287899Y-8203529D01*
X15287898Y-8203529D01*
X15272101Y-8203529D01*
X15272101Y-8203529D01*
X15256763Y-8207309D01*
X15242776Y-8214650D01*
X15242776Y-8214650D01*
X15241347Y-8215916D01*
X15235024Y-8218888D01*
X15228098Y-8217969D01*
X15227234Y-8217546D01*
X15219727Y-8213493D01*
X15218013Y-8212375D01*
X15204906Y-8202196D01*
X15203399Y-8200811D01*
X15192146Y-8188613D01*
X15190886Y-8186999D01*
X15184349Y-8177018D01*
X15181794Y-8173117D01*
X15180818Y-8171318D01*
X15179696Y-8168768D01*
X15178798Y-8161839D01*
X15181788Y-8155525D01*
X15182278Y-8155006D01*
X15182382Y-8154902D01*
X15182382Y-8154902D01*
X15188752Y-8147550D01*
X15191797Y-8144037D01*
X15191797Y-8144036D01*
X15191798Y-8144035D01*
X15195728Y-8137920D01*
X15195728Y-8137919D01*
X15195728Y-8137919D01*
X15201700Y-8124842D01*
X15201701Y-8124842D01*
X15203749Y-8117866D01*
X15205795Y-8103635D01*
X15205795Y-8096365D01*
X15205667Y-8095475D01*
X15205541Y-8093710D01*
X15205541Y-8056290D01*
X15205667Y-8054525D01*
X15205795Y-8053635D01*
X15205795Y-8046365D01*
X15203749Y-8032134D01*
X15201701Y-8025158D01*
X15201700Y-8025158D01*
X15195728Y-8012081D01*
X15195728Y-8012079D01*
X15192290Y-8006731D01*
X15191798Y-8005964D01*
X15191797Y-8005964D01*
X15191797Y-8005963D01*
X15182382Y-7995098D01*
X15182382Y-7995098D01*
X15176888Y-7990338D01*
X15176888Y-7990338D01*
X15176888Y-7990338D01*
X15173365Y-7988073D01*
X15164793Y-7982565D01*
X15164793Y-7982564D01*
X15163425Y-7981940D01*
X15158180Y-7979544D01*
X15149955Y-7977129D01*
X15144385Y-7975494D01*
X15144384Y-7975494D01*
X15137915Y-7974563D01*
X15137189Y-7974459D01*
X15137189Y-7974459D01*
X15074999Y-7974459D01*
X15064919Y-7976464D01*
X15060081Y-7976464D01*
X15052467Y-7974950D01*
X14947533Y-7974950D01*
X14947532Y-7974950D01*
X14940226Y-7976403D01*
X14940226Y-7976403D01*
X14931940Y-7981940D01*
X14926403Y-7990226D01*
X14926403Y-7990226D01*
X14924950Y-7997532D01*
X14924950Y-8152468D01*
X14926403Y-8159773D01*
X14926403Y-8159774D01*
X14926985Y-8160644D01*
X14931940Y-8168060D01*
X14937500Y-8171775D01*
X14940226Y-8173597D01*
X14940226Y-8173597D01*
X14947532Y-8175050D01*
X14947532Y-8175050D01*
X14947533Y-8175050D01*
X14950050Y-8175050D01*
X14956754Y-8177018D01*
X14961329Y-8182299D01*
X14962450Y-8187450D01*
X14962450Y-8240780D01*
X14960481Y-8247483D01*
X14958273Y-8250061D01*
X14950952Y-8256547D01*
X14941978Y-8269547D01*
X14941978Y-8269548D01*
X14936376Y-8284318D01*
X14934472Y-8300000D01*
X14934472Y-8300000D01*
X14936376Y-8315682D01*
X14941424Y-8328991D01*
X14941978Y-8330452D01*
X14950952Y-8343453D01*
X14962776Y-8353928D01*
X14962776Y-8353928D01*
X14976763Y-8361270D01*
X14992101Y-8365050D01*
X15007898Y-8365050D01*
X15023236Y-8361270D01*
X15023236Y-8361269D01*
X15037224Y-8353928D01*
X15049048Y-8343453D01*
X15058022Y-8330452D01*
X15063624Y-8315682D01*
X15065528Y-8300000D01*
X15064721Y-8293356D01*
X15063624Y-8284318D01*
X15058512Y-8270841D01*
X15058022Y-8269548D01*
X15049048Y-8256547D01*
X15047164Y-8254877D01*
X15041727Y-8250061D01*
X15038015Y-8244142D01*
X15037550Y-8240780D01*
X15037550Y-8187450D01*
X15039518Y-8180746D01*
X15044799Y-8176171D01*
X15049950Y-8175050D01*
X15052468Y-8175050D01*
X15060081Y-8173536D01*
X15064919Y-8173536D01*
X15075000Y-8175541D01*
X15075000Y-8175541D01*
X15092199Y-8175541D01*
X15098903Y-8177509D01*
X15103479Y-8182790D01*
X15103586Y-8183032D01*
X15112853Y-8204530D01*
X15124954Y-8224613D01*
X15126000Y-8226349D01*
X15128647Y-8229638D01*
X15141968Y-8246195D01*
X15141968Y-8246196D01*
X15141968Y-8246196D01*
X15160467Y-8263708D01*
X15181158Y-8278567D01*
X15203664Y-8290499D01*
X15203664Y-8290499D01*
X15210641Y-8293064D01*
X15216621Y-8295262D01*
X15222234Y-8299423D01*
X15222548Y-8299857D01*
X15230952Y-8312032D01*
X15242776Y-8322507D01*
X15242776Y-8322507D01*
X15256763Y-8329848D01*
X15272101Y-8333629D01*
X15287898Y-8333629D01*
X15303236Y-8329848D01*
X15304870Y-8328991D01*
X15317224Y-8322507D01*
X15329048Y-8312032D01*
X15329426Y-8311485D01*
X15334854Y-8307086D01*
X15339631Y-8306129D01*
X15430126Y-8306129D01*
X15436830Y-8308097D01*
X15441405Y-8313377D01*
X15442400Y-8320293D01*
X15439497Y-8326649D01*
X15435755Y-8329577D01*
X15399320Y-8348141D01*
X15398968Y-8348307D01*
X15345276Y-8371542D01*
X15344914Y-8371685D01*
X15303112Y-8386735D01*
X15289871Y-8391502D01*
X15289501Y-8391622D01*
X15233322Y-8407944D01*
X15232945Y-8408041D01*
X15175850Y-8420803D01*
X15175468Y-8420876D01*
X15147112Y-8425367D01*
X15117687Y-8430027D01*
X15117301Y-8430076D01*
X15059057Y-8435582D01*
X15058668Y-8435606D01*
X15000195Y-8437444D01*
X14999805Y-8437444D01*
X14941332Y-8435606D01*
X14940943Y-8435582D01*
X14882699Y-8430076D01*
X14882313Y-8430027D01*
X14865812Y-8427414D01*
X14824531Y-8420876D01*
X14824150Y-8420803D01*
X14767055Y-8408041D01*
X14766677Y-8407944D01*
X14763445Y-8407005D01*
X14710498Y-8391622D01*
X14710130Y-8391502D01*
X14675059Y-8378876D01*
X14655086Y-8371685D01*
X14654724Y-8371542D01*
X14601032Y-8348307D01*
X14600679Y-8348141D01*
X14548553Y-8321582D01*
X14548212Y-8321394D01*
X14497857Y-8291614D01*
X14497528Y-8291405D01*
X14449142Y-8258523D01*
X14448827Y-8258294D01*
X14402601Y-8222437D01*
X14402301Y-8222189D01*
X14401704Y-8221663D01*
X14358416Y-8183500D01*
X14358134Y-8183234D01*
X14316765Y-8141866D01*
X14316500Y-8141583D01*
X14277810Y-8097698D01*
X14277563Y-8097399D01*
X14276761Y-8096365D01*
X14265430Y-8081757D01*
X14241706Y-8051173D01*
X14241477Y-8050858D01*
X14240905Y-8050016D01*
X14208594Y-8002472D01*
X14208386Y-8002143D01*
X14178606Y-7951788D01*
X14178418Y-7951447D01*
X14151858Y-7899320D01*
X14151692Y-7898968D01*
X14128458Y-7845276D01*
X14128315Y-7844914D01*
X14128061Y-7844209D01*
X14108497Y-7789869D01*
X14108378Y-7789503D01*
X14106953Y-7784598D01*
X14106973Y-7777611D01*
X14110768Y-7771744D01*
X14117132Y-7768860D01*
X14124045Y-7769874D01*
X14129312Y-7774465D01*
X14129355Y-7774533D01*
X14140116Y-7791659D01*
X14160253Y-7816910D01*
X14183090Y-7839747D01*
X14208341Y-7859884D01*
X14235687Y-7877067D01*
X14264786Y-7891080D01*
X14264787Y-7891080D01*
X14264787Y-7891080D01*
X14295269Y-7901747D01*
X14295270Y-7901747D01*
X14326758Y-7908934D01*
X14358851Y-7912550D01*
X14358851Y-7912550D01*
X14814369Y-7912550D01*
X14814369Y-7912550D01*
X14820381Y-7911820D01*
X14842898Y-7909086D01*
X14870801Y-7902208D01*
X14897672Y-7892018D01*
X14923118Y-7878662D01*
X14946769Y-7862337D01*
X14967380Y-7844077D01*
X14968280Y-7843280D01*
X14968280Y-7843280D01*
X14972470Y-7838551D01*
X14987337Y-7821769D01*
X15003662Y-7798118D01*
X15017018Y-7772672D01*
X15027208Y-7745801D01*
X15028341Y-7741207D01*
X15031856Y-7735169D01*
X15035901Y-7732611D01*
X15049264Y-7727435D01*
X15066604Y-7716698D01*
X15080786Y-7703770D01*
X15081676Y-7702958D01*
X15085269Y-7698201D01*
X15093967Y-7686682D01*
X15103058Y-7668425D01*
X15108640Y-7648808D01*
X15110521Y-7628500D01*
X15143478Y-7628500D01*
X15145360Y-7648808D01*
X15150942Y-7668425D01*
X15150942Y-7668426D01*
X15160033Y-7686682D01*
X15172324Y-7702958D01*
X15185457Y-7714931D01*
X15186939Y-7716282D01*
X15187396Y-7716698D01*
X15187396Y-7716698D01*
X15192939Y-7720130D01*
X15204736Y-7727435D01*
X15223754Y-7734802D01*
X15243802Y-7738550D01*
X15264197Y-7738550D01*
X15264198Y-7738550D01*
X15284246Y-7734802D01*
X15303264Y-7727435D01*
X15320604Y-7716698D01*
X15334786Y-7703770D01*
X15335676Y-7702958D01*
X15339269Y-7698201D01*
X15347967Y-7686682D01*
X15357058Y-7668425D01*
X15362640Y-7648808D01*
X15364521Y-7628500D01*
X15362640Y-7608192D01*
X15357058Y-7588575D01*
X15354963Y-7584368D01*
X15349681Y-7573760D01*
X15347967Y-7570318D01*
X15340275Y-7560131D01*
X15335676Y-7554042D01*
X15320604Y-7540302D01*
X15320604Y-7540302D01*
X15303264Y-7529565D01*
X15303263Y-7529565D01*
X15290677Y-7524689D01*
X15284246Y-7522198D01*
X15264198Y-7518450D01*
X15264197Y-7518450D01*
X15243803Y-7518450D01*
X15243802Y-7518450D01*
X15223754Y-7522198D01*
X15223754Y-7522198D01*
X15223754Y-7522198D01*
X15204736Y-7529565D01*
X15204736Y-7529565D01*
X15187396Y-7540302D01*
X15187396Y-7540302D01*
X15172324Y-7554042D01*
X15160033Y-7570318D01*
X15150942Y-7588574D01*
X15150942Y-7588575D01*
X15145360Y-7608192D01*
X15143478Y-7628500D01*
X15143478Y-7628500D01*
X15110521Y-7628500D01*
X15108640Y-7608192D01*
X15103058Y-7588575D01*
X15100963Y-7584368D01*
X15095681Y-7573760D01*
X15093967Y-7570318D01*
X15086275Y-7560131D01*
X15081676Y-7554042D01*
X15066604Y-7540302D01*
X15066604Y-7540302D01*
X15049264Y-7529565D01*
X15049263Y-7529565D01*
X15036677Y-7524689D01*
X15030246Y-7522198D01*
X15010198Y-7518450D01*
X15010197Y-7518450D01*
X14989803Y-7518450D01*
X14989802Y-7518450D01*
X14969754Y-7522198D01*
X14969754Y-7522198D01*
X14969754Y-7522198D01*
X14950736Y-7529565D01*
X14950736Y-7529565D01*
X14937153Y-7537975D01*
X14930417Y-7539831D01*
X14923747Y-7537750D01*
X14919261Y-7532393D01*
X14918383Y-7525462D01*
X14919169Y-7522688D01*
X14924433Y-7509980D01*
X14925315Y-7508248D01*
X14933516Y-7494866D01*
X14934658Y-7493293D01*
X14945316Y-7480814D01*
X14945645Y-7480459D01*
X14947497Y-7478606D01*
X14953629Y-7475258D01*
X14960598Y-7475756D01*
X14960744Y-7475812D01*
X14969754Y-7479302D01*
X14989802Y-7483050D01*
X15010197Y-7483050D01*
X15010198Y-7483050D01*
X15030246Y-7479302D01*
X15049264Y-7471935D01*
X15066604Y-7461198D01*
X15079412Y-7449522D01*
X15081676Y-7447458D01*
X15081676Y-7447458D01*
X15093967Y-7431182D01*
X15103058Y-7412925D01*
X15108640Y-7393308D01*
X15110521Y-7373000D01*
X15143478Y-7373000D01*
X15145360Y-7393308D01*
X15150942Y-7412925D01*
X15150942Y-7412926D01*
X15160033Y-7431182D01*
X15172324Y-7447458D01*
X15187396Y-7461198D01*
X15187396Y-7461198D01*
X15197314Y-7467339D01*
X15204736Y-7471935D01*
X15223754Y-7479302D01*
X15243802Y-7483050D01*
X15264197Y-7483050D01*
X15264198Y-7483050D01*
X15284246Y-7479302D01*
X15303264Y-7471935D01*
X15320604Y-7461198D01*
X15333412Y-7449522D01*
X15335676Y-7447458D01*
X15335676Y-7447458D01*
X15347967Y-7431182D01*
X15357058Y-7412925D01*
X15362640Y-7393308D01*
X15364521Y-7373000D01*
X15362640Y-7352692D01*
X15357058Y-7333075D01*
X15356899Y-7332754D01*
X15350841Y-7320590D01*
X15347967Y-7314818D01*
X15340895Y-7305453D01*
X15335676Y-7298542D01*
X15320604Y-7284802D01*
X15320604Y-7284802D01*
X15303264Y-7274065D01*
X15303263Y-7274065D01*
X15288194Y-7268227D01*
X15284246Y-7266698D01*
X15264198Y-7262950D01*
X15264197Y-7262950D01*
X15243803Y-7262950D01*
X15243802Y-7262950D01*
X15223754Y-7266698D01*
X15223754Y-7266698D01*
X15223754Y-7266698D01*
X15204736Y-7274065D01*
X15204736Y-7274065D01*
X15187396Y-7284802D01*
X15187396Y-7284802D01*
X15172324Y-7298542D01*
X15160033Y-7314818D01*
X15150942Y-7333074D01*
X15150942Y-7333075D01*
X15145360Y-7352692D01*
X15143478Y-7373000D01*
X15143478Y-7373000D01*
X15110521Y-7373000D01*
X15108640Y-7352692D01*
X15103058Y-7333075D01*
X15102899Y-7332754D01*
X15096841Y-7320590D01*
X15093967Y-7314818D01*
X15086895Y-7305453D01*
X15081676Y-7298542D01*
X15066604Y-7284802D01*
X15066604Y-7284802D01*
X15049264Y-7274065D01*
X15049263Y-7274065D01*
X15034194Y-7268227D01*
X15030246Y-7266698D01*
X15010198Y-7262950D01*
X15010197Y-7262950D01*
X14989803Y-7262950D01*
X14989802Y-7262950D01*
X14969754Y-7266698D01*
X14969754Y-7266698D01*
X14969754Y-7266698D01*
X14950736Y-7274065D01*
X14950736Y-7274065D01*
X14933396Y-7284802D01*
X14933396Y-7284802D01*
X14918324Y-7298542D01*
X14906033Y-7314818D01*
X14896942Y-7333074D01*
X14896942Y-7333075D01*
X14891360Y-7352692D01*
X14889478Y-7373000D01*
X14889478Y-7373000D01*
X14891360Y-7393308D01*
X14893500Y-7400830D01*
X14896942Y-7412925D01*
X14897099Y-7413476D01*
X14896900Y-7413533D01*
X14897409Y-7419583D01*
X14894136Y-7425756D01*
X14894028Y-7425866D01*
X14883689Y-7436205D01*
X14883688Y-7436206D01*
X14878288Y-7443245D01*
X14872645Y-7447365D01*
X14865670Y-7447780D01*
X14859578Y-7444359D01*
X14856303Y-7438188D01*
X14856050Y-7435696D01*
X14856050Y-7285532D01*
X14856050Y-7285532D01*
X14854597Y-7278226D01*
X14854597Y-7278226D01*
X14854033Y-7277383D01*
X14849060Y-7269940D01*
X14840774Y-7264403D01*
X14840774Y-7264403D01*
X14840773Y-7264403D01*
X14833468Y-7262950D01*
X14833467Y-7262950D01*
X14658533Y-7262950D01*
X14658532Y-7262950D01*
X14651226Y-7264403D01*
X14651226Y-7264403D01*
X14642940Y-7269940D01*
X14637403Y-7278226D01*
X14637403Y-7278226D01*
X14635950Y-7285532D01*
X14635950Y-7323050D01*
X14633981Y-7329754D01*
X14628701Y-7334329D01*
X14623550Y-7335450D01*
X14572437Y-7335450D01*
X14572090Y-7335440D01*
X14543226Y-7333820D01*
X14542535Y-7333742D01*
X14539334Y-7333198D01*
X14514206Y-7328929D01*
X14513528Y-7328774D01*
X14485916Y-7320820D01*
X14485260Y-7320590D01*
X14458711Y-7309594D01*
X14458084Y-7309292D01*
X14451138Y-7305453D01*
X14432934Y-7295392D01*
X14432348Y-7295024D01*
X14408911Y-7278395D01*
X14408368Y-7277962D01*
X14386849Y-7258731D01*
X14386596Y-7258493D01*
X14336879Y-7208775D01*
X14336640Y-7208522D01*
X14335110Y-7206810D01*
X14317376Y-7186966D01*
X14316942Y-7186422D01*
X14300314Y-7162986D01*
X14299944Y-7162397D01*
X14298925Y-7160553D01*
X14286044Y-7137247D01*
X14285743Y-7136623D01*
X14274747Y-7110074D01*
X14274517Y-7109418D01*
X14272000Y-7100679D01*
X14266562Y-7081805D01*
X14266408Y-7081128D01*
X14261594Y-7052798D01*
X14261517Y-7052109D01*
X14259905Y-7023418D01*
X14259905Y-7022723D01*
X14260008Y-7020889D01*
X14261516Y-6994032D01*
X14261594Y-6993343D01*
X14266407Y-6965013D01*
X14266562Y-6964335D01*
X14274517Y-6936722D01*
X14274746Y-6936068D01*
X14285743Y-6909518D01*
X14286044Y-6908893D01*
X14299945Y-6883741D01*
X14300312Y-6883157D01*
X14316942Y-6859719D01*
X14317375Y-6859176D01*
X14317598Y-6858926D01*
X14336627Y-6837631D01*
X14336863Y-6837382D01*
X14354622Y-6819623D01*
X14354624Y-6819622D01*
X14357974Y-6816273D01*
X14357974Y-6816273D01*
X14362715Y-6811531D01*
X14362847Y-6811404D01*
X14383302Y-6792148D01*
X14383578Y-6791903D01*
X14425637Y-6756852D01*
X14425925Y-6756627D01*
X14470024Y-6724178D01*
X14470327Y-6723969D01*
X14516304Y-6694243D01*
X14516617Y-6694053D01*
X14564306Y-6667157D01*
X14564632Y-6666986D01*
X14613856Y-6643019D01*
X14614194Y-6642867D01*
X14664773Y-6621916D01*
X14665120Y-6621785D01*
X14716871Y-6603927D01*
X14717223Y-6603817D01*
X14769961Y-6589115D01*
X14770322Y-6589026D01*
X14823849Y-6577536D01*
X14824209Y-6577470D01*
X14878335Y-6569233D01*
X14878703Y-6569188D01*
X14933228Y-6564233D01*
X14933594Y-6564211D01*
X14941034Y-6563986D01*
X14947794Y-6565751D01*
G37*
%TD.AperFunction*%
%TA.AperFunction,Conductor*%
G36*
X13839486Y-7164712D02*
G01*
X13844062Y-7169993D01*
X13845056Y-7176908D01*
X13844951Y-7177520D01*
X13844950Y-7177532D01*
X13844950Y-7332468D01*
X13846403Y-7339773D01*
X13846403Y-7339774D01*
X13846403Y-7339774D01*
X13851940Y-7348060D01*
X13858069Y-7352155D01*
X13860226Y-7353597D01*
X13860226Y-7353597D01*
X13867532Y-7355050D01*
X13867532Y-7355050D01*
X13867533Y-7355050D01*
X13951328Y-7355050D01*
X13958032Y-7357018D01*
X13961638Y-7360561D01*
X13965084Y-7365719D01*
X13965459Y-7366279D01*
X13965865Y-7366982D01*
X13974903Y-7385311D01*
X13975214Y-7386061D01*
X13981782Y-7405412D01*
X13981992Y-7406196D01*
X13985979Y-7426239D01*
X13986085Y-7427044D01*
X13987437Y-7447670D01*
X13987450Y-7448075D01*
X13987450Y-7530597D01*
X13991145Y-7591677D01*
X13997008Y-7639968D01*
X13995862Y-7646860D01*
X13991172Y-7652039D01*
X13984426Y-7653859D01*
X13977810Y-7651773D01*
X13969774Y-7646403D01*
X13969774Y-7646403D01*
X13969773Y-7646403D01*
X13962468Y-7644950D01*
X13962467Y-7644950D01*
X13867533Y-7644950D01*
X13867532Y-7644950D01*
X13860226Y-7646403D01*
X13860226Y-7646403D01*
X13851940Y-7651940D01*
X13846403Y-7660226D01*
X13846403Y-7660226D01*
X13844950Y-7667532D01*
X13844950Y-7822468D01*
X13846403Y-7829773D01*
X13846403Y-7829774D01*
X13848240Y-7832523D01*
X13851940Y-7838060D01*
X13859752Y-7843280D01*
X13860226Y-7843597D01*
X13860226Y-7843597D01*
X13867469Y-7845037D01*
X13873660Y-7848276D01*
X13877118Y-7854347D01*
X13877450Y-7857199D01*
X13877450Y-8149859D01*
X13877450Y-8149861D01*
X13877450Y-8155472D01*
X13877437Y-8155878D01*
X13876087Y-8176474D01*
X13875981Y-8177279D01*
X13871995Y-8197323D01*
X13871785Y-8198107D01*
X13865216Y-8217459D01*
X13864906Y-8218208D01*
X13855867Y-8236537D01*
X13855462Y-8237240D01*
X13844108Y-8254233D01*
X13843614Y-8254876D01*
X13842327Y-8256344D01*
X13841589Y-8257186D01*
X13835689Y-8260928D01*
X13828702Y-8260886D01*
X13823498Y-8257778D01*
X13804842Y-8239121D01*
X13804841Y-8239121D01*
X13802030Y-8237242D01*
X13798647Y-8234982D01*
X13788873Y-8233038D01*
X13779099Y-8234982D01*
X13772904Y-8239121D01*
X13707878Y-8304147D01*
X13701746Y-8307495D01*
X13694777Y-8306997D01*
X13689184Y-8302810D01*
X13688634Y-8302013D01*
X13681366Y-8290535D01*
X13681210Y-8290274D01*
X13674366Y-8278193D01*
X13644165Y-8224881D01*
X13644022Y-8224613D01*
X13642926Y-8222437D01*
X13610230Y-8157480D01*
X13610100Y-8157205D01*
X13598617Y-8131299D01*
X13579642Y-8088493D01*
X13579526Y-8088214D01*
X13577035Y-8081756D01*
X13552476Y-8018090D01*
X13552376Y-8017808D01*
X13528799Y-7946441D01*
X13528711Y-7946151D01*
X13519413Y-7912550D01*
X13511431Y-7883708D01*
X13511540Y-7876722D01*
X13515409Y-7870904D01*
X13521809Y-7868101D01*
X13527715Y-7868783D01*
X13529262Y-7869360D01*
X13529263Y-7869360D01*
X13535215Y-7870000D01*
X13535217Y-7870000D01*
X13560000Y-7870000D01*
X13560000Y-7770000D01*
X13610000Y-7770000D01*
X13610000Y-7870000D01*
X13634783Y-7870000D01*
X13634784Y-7870000D01*
X13640737Y-7869360D01*
X13640738Y-7869360D01*
X13654209Y-7864335D01*
X13654209Y-7864335D01*
X13665719Y-7855719D01*
X13665719Y-7855719D01*
X13674335Y-7844209D01*
X13674335Y-7844209D01*
X13679360Y-7830738D01*
X13679360Y-7830737D01*
X13680000Y-7824784D01*
X13680000Y-7824783D01*
X13680000Y-7770000D01*
X13610000Y-7770000D01*
X13560000Y-7770000D01*
X13560000Y-7620000D01*
X13610000Y-7620000D01*
X13610000Y-7720000D01*
X13680000Y-7720000D01*
X13680000Y-7665217D01*
X13680000Y-7665215D01*
X13679360Y-7659263D01*
X13679360Y-7659262D01*
X13674335Y-7645791D01*
X13674335Y-7645791D01*
X13665719Y-7634281D01*
X13665719Y-7634281D01*
X13654209Y-7625665D01*
X13654209Y-7625664D01*
X13640738Y-7620640D01*
X13640737Y-7620640D01*
X13634784Y-7620000D01*
X13610000Y-7620000D01*
X13560000Y-7620000D01*
X13535215Y-7620000D01*
X13529263Y-7620640D01*
X13529262Y-7620640D01*
X13515791Y-7625664D01*
X13515791Y-7625665D01*
X13504281Y-7634281D01*
X13504281Y-7634281D01*
X13495665Y-7645791D01*
X13495664Y-7645791D01*
X13493710Y-7651031D01*
X13489523Y-7656625D01*
X13482976Y-7659066D01*
X13476149Y-7657581D01*
X13471209Y-7652641D01*
X13469725Y-7647610D01*
X13469636Y-7646403D01*
X13464413Y-7575590D01*
X13464398Y-7575288D01*
X13462552Y-7500075D01*
X13462550Y-7499922D01*
X13462550Y-7490556D01*
X13462551Y-7490422D01*
X13463271Y-7457200D01*
X13463917Y-7427325D01*
X13463929Y-7427063D01*
X13468021Y-7364144D01*
X13468043Y-7363886D01*
X13474853Y-7301210D01*
X13474888Y-7300948D01*
X13484405Y-7238619D01*
X13484450Y-7238365D01*
X13490181Y-7209322D01*
X13490385Y-7208289D01*
X13493614Y-7202093D01*
X13499680Y-7198626D01*
X13506657Y-7198990D01*
X13512331Y-7203068D01*
X13514899Y-7209566D01*
X13514950Y-7210690D01*
X13514950Y-7332468D01*
X13516403Y-7339773D01*
X13516403Y-7339774D01*
X13516403Y-7339774D01*
X13521940Y-7348060D01*
X13528069Y-7352155D01*
X13530226Y-7353597D01*
X13530226Y-7353597D01*
X13537532Y-7355050D01*
X13537532Y-7355050D01*
X13632467Y-7355050D01*
X13632468Y-7355050D01*
X13632468Y-7355050D01*
X13639774Y-7353597D01*
X13648060Y-7348060D01*
X13653597Y-7339774D01*
X13655050Y-7332467D01*
X13655050Y-7325385D01*
X13657018Y-7318682D01*
X13662299Y-7314106D01*
X13669215Y-7313112D01*
X13673212Y-7314406D01*
X13676763Y-7316270D01*
X13676764Y-7316270D01*
X13676764Y-7316270D01*
X13692101Y-7320050D01*
X13707898Y-7320050D01*
X13723236Y-7316270D01*
X13727341Y-7314115D01*
X13737224Y-7308928D01*
X13749048Y-7298453D01*
X13758022Y-7285452D01*
X13763624Y-7270682D01*
X13765528Y-7255000D01*
X13763624Y-7239318D01*
X13763261Y-7238361D01*
X13759712Y-7229003D01*
X13758022Y-7224548D01*
X13749048Y-7211547D01*
X13737224Y-7201072D01*
X13737224Y-7201072D01*
X13737224Y-7201071D01*
X13723236Y-7193730D01*
X13707899Y-7189950D01*
X13707898Y-7189950D01*
X13692101Y-7189950D01*
X13692101Y-7189950D01*
X13676764Y-7193730D01*
X13676763Y-7193730D01*
X13676763Y-7193730D01*
X13675455Y-7194417D01*
X13673213Y-7195594D01*
X13666362Y-7196967D01*
X13659856Y-7194417D01*
X13655762Y-7188756D01*
X13655050Y-7184614D01*
X13655050Y-7177532D01*
X13654990Y-7176926D01*
X13655114Y-7176914D01*
X13655679Y-7170603D01*
X13659965Y-7165086D01*
X13666555Y-7162761D01*
X13667218Y-7162744D01*
X13832782Y-7162744D01*
X13839486Y-7164712D01*
G37*
%TD.AperFunction*%
%TA.AperFunction,Conductor*%
G36*
X15351578Y-6003687D02*
G01*
X15373425Y-6008593D01*
X15373714Y-6008665D01*
X15425938Y-6023118D01*
X15446151Y-6028711D01*
X15446441Y-6028799D01*
X15517808Y-6052376D01*
X15518090Y-6052476D01*
X15571583Y-6073111D01*
X15588214Y-6079526D01*
X15588493Y-6079642D01*
X15634034Y-6099829D01*
X15657205Y-6110100D01*
X15657480Y-6110230D01*
X15724615Y-6144023D01*
X15724881Y-6144165D01*
X15779450Y-6175078D01*
X15784312Y-6180095D01*
X15785691Y-6186944D01*
X15783147Y-6193452D01*
X15782106Y-6194635D01*
X15772721Y-6204020D01*
X15772721Y-6204020D01*
X15843431Y-6274731D01*
X15949497Y-6380797D01*
X15967022Y-6363273D01*
X15970780Y-6358609D01*
X15976752Y-6345531D01*
X15976752Y-6345531D01*
X15977723Y-6338782D01*
X15980625Y-6332427D01*
X15986503Y-6328649D01*
X15993490Y-6328649D01*
X15998095Y-6331157D01*
X16031795Y-6360226D01*
X16032372Y-6360725D01*
X16032598Y-6360929D01*
X16037101Y-6365216D01*
X16044000Y-6371785D01*
X16044804Y-6372551D01*
X16048302Y-6378599D01*
X16048564Y-6383026D01*
X16048165Y-6386306D01*
X16048165Y-6386307D01*
X16050069Y-6401989D01*
X16054775Y-6414397D01*
X16055671Y-6416759D01*
X16064645Y-6429760D01*
X16076469Y-6440235D01*
X16076469Y-6440235D01*
X16090457Y-6447576D01*
X16105795Y-6451357D01*
X16118479Y-6451357D01*
X16125183Y-6453325D01*
X16127459Y-6455206D01*
X16132611Y-6460617D01*
X16139071Y-6467402D01*
X16139275Y-6467627D01*
X16188366Y-6524537D01*
X16188558Y-6524771D01*
X16191456Y-6528485D01*
X16194029Y-6534981D01*
X16192681Y-6541837D01*
X16187841Y-6546876D01*
X16181045Y-6548498D01*
X16179261Y-6548276D01*
X16172223Y-6546876D01*
X16168701Y-6546175D01*
X16158926Y-6548119D01*
X16152732Y-6552258D01*
X16085603Y-6619387D01*
X16081464Y-6625581D01*
X16080907Y-6628381D01*
X16079520Y-6635355D01*
X16081464Y-6645129D01*
X16083927Y-6648814D01*
X16085603Y-6651324D01*
X16195158Y-6760879D01*
X16195159Y-6760879D01*
X16201353Y-6765018D01*
X16209505Y-6766639D01*
X16211127Y-6766962D01*
X16211127Y-6766962D01*
X16211127Y-6766962D01*
X16220901Y-6765018D01*
X16227095Y-6760879D01*
X16292121Y-6695853D01*
X16298254Y-6692504D01*
X16305223Y-6693003D01*
X16310816Y-6697190D01*
X16311366Y-6697987D01*
X16318634Y-6709465D01*
X16318790Y-6709726D01*
X16355834Y-6775118D01*
X16355978Y-6775387D01*
X16389770Y-6842520D01*
X16389900Y-6842795D01*
X16415176Y-6899817D01*
X16419477Y-6909519D01*
X16420357Y-6911504D01*
X16420473Y-6911786D01*
X16447522Y-6981907D01*
X16447625Y-6982194D01*
X16471200Y-7053557D01*
X16471288Y-7053848D01*
X16488569Y-7116292D01*
X16488460Y-7123278D01*
X16484591Y-7129096D01*
X16478191Y-7131899D01*
X16472285Y-7131217D01*
X16470738Y-7130640D01*
X16470737Y-7130640D01*
X16464784Y-7130000D01*
X16440000Y-7130000D01*
X16440000Y-7380000D01*
X16464783Y-7380000D01*
X16464784Y-7380000D01*
X16470737Y-7379360D01*
X16470738Y-7379360D01*
X16484209Y-7374335D01*
X16484209Y-7374335D01*
X16495719Y-7365719D01*
X16495719Y-7365719D01*
X16504335Y-7354209D01*
X16504335Y-7354208D01*
X16506290Y-7348969D01*
X16510477Y-7343375D01*
X16517023Y-7340933D01*
X16523851Y-7342419D01*
X16528791Y-7347359D01*
X16530274Y-7352390D01*
X16535587Y-7424408D01*
X16535602Y-7424712D01*
X16537446Y-7499848D01*
X16537446Y-7500152D01*
X16535602Y-7575288D01*
X16535587Y-7575592D01*
X16530058Y-7650545D01*
X16530028Y-7650847D01*
X16526403Y-7680241D01*
X16520828Y-7725440D01*
X16520783Y-7725740D01*
X16516189Y-7752217D01*
X16509667Y-7789804D01*
X16506582Y-7796072D01*
X16500597Y-7799678D01*
X16493613Y-7799475D01*
X16487847Y-7795529D01*
X16485130Y-7789092D01*
X16485050Y-7787684D01*
X16485050Y-7667532D01*
X16485050Y-7667532D01*
X16483597Y-7660226D01*
X16483597Y-7660226D01*
X16483596Y-7660226D01*
X16478060Y-7651940D01*
X16471870Y-7647804D01*
X16469774Y-7646403D01*
X16469773Y-7646403D01*
X16462468Y-7644950D01*
X16462467Y-7644950D01*
X16367533Y-7644950D01*
X16367532Y-7644950D01*
X16360226Y-7646403D01*
X16360226Y-7646403D01*
X16351940Y-7651940D01*
X16346403Y-7660226D01*
X16346403Y-7660226D01*
X16344950Y-7667532D01*
X16344950Y-7705364D01*
X16342981Y-7712068D01*
X16337701Y-7716643D01*
X16336646Y-7717068D01*
X16313447Y-7725186D01*
X16289409Y-7736762D01*
X16289408Y-7736763D01*
X16266817Y-7750958D01*
X16266816Y-7750959D01*
X16245957Y-7767593D01*
X16242254Y-7771297D01*
X16238551Y-7775000D01*
X16225867Y-7787684D01*
X16175007Y-7838543D01*
X16168875Y-7841892D01*
X16161906Y-7841394D01*
X16156312Y-7837206D01*
X16153871Y-7830660D01*
X16154077Y-7827356D01*
X16155050Y-7822467D01*
X16155050Y-7667533D01*
X16155050Y-7667532D01*
X16155050Y-7667532D01*
X16153597Y-7660226D01*
X16153597Y-7660226D01*
X16153596Y-7660226D01*
X16148060Y-7651940D01*
X16141870Y-7647804D01*
X16139774Y-7646403D01*
X16139773Y-7646403D01*
X16132468Y-7644950D01*
X16132467Y-7644950D01*
X16048672Y-7644950D01*
X16041968Y-7642981D01*
X16038362Y-7639439D01*
X16034541Y-7633720D01*
X16034135Y-7633018D01*
X16027050Y-7618651D01*
X16025097Y-7614689D01*
X16024786Y-7613939D01*
X16022606Y-7607516D01*
X16018217Y-7594587D01*
X16018008Y-7593805D01*
X16014021Y-7573760D01*
X16013915Y-7572956D01*
X16013413Y-7565301D01*
X16012563Y-7552327D01*
X16012550Y-7551927D01*
X16012550Y-7546759D01*
X16012550Y-7496889D01*
X16012550Y-7494601D01*
X16012550Y-7469404D01*
X16009444Y-7418059D01*
X16011004Y-7411249D01*
X16015999Y-7406363D01*
X16022842Y-7404953D01*
X16029361Y-7407466D01*
X16032026Y-7410266D01*
X16035951Y-7415953D01*
X16035952Y-7415953D01*
X16035952Y-7415953D01*
X16047776Y-7426428D01*
X16047776Y-7426428D01*
X16061763Y-7433770D01*
X16077101Y-7437550D01*
X16092898Y-7437550D01*
X16108236Y-7433770D01*
X16113166Y-7431182D01*
X16122224Y-7426428D01*
X16134048Y-7415953D01*
X16143022Y-7402952D01*
X16148624Y-7388182D01*
X16150528Y-7372500D01*
X16148624Y-7356818D01*
X16148566Y-7356667D01*
X16148557Y-7356549D01*
X16148444Y-7356090D01*
X16148520Y-7356071D01*
X16148029Y-7349701D01*
X16149850Y-7345381D01*
X16153597Y-7339774D01*
X16155050Y-7332467D01*
X16155050Y-7280000D01*
X16320000Y-7280000D01*
X16320000Y-7334784D01*
X16320640Y-7340737D01*
X16320640Y-7340738D01*
X16325664Y-7354209D01*
X16325665Y-7354209D01*
X16334281Y-7365719D01*
X16334281Y-7365719D01*
X16345791Y-7374335D01*
X16345791Y-7374335D01*
X16359262Y-7379360D01*
X16359263Y-7379360D01*
X16365215Y-7380000D01*
X16365217Y-7380000D01*
X16390000Y-7380000D01*
X16390000Y-7280000D01*
X16320000Y-7280000D01*
X16155050Y-7280000D01*
X16155050Y-7230000D01*
X16320000Y-7230000D01*
X16390000Y-7230000D01*
X16390000Y-7130000D01*
X16365215Y-7130000D01*
X16359263Y-7130640D01*
X16359262Y-7130640D01*
X16345791Y-7135664D01*
X16345791Y-7135665D01*
X16334281Y-7144281D01*
X16334281Y-7144281D01*
X16325665Y-7155791D01*
X16325664Y-7155791D01*
X16320640Y-7169262D01*
X16320640Y-7169263D01*
X16320000Y-7175215D01*
X16320000Y-7230000D01*
X16155050Y-7230000D01*
X16155050Y-7177533D01*
X16155050Y-7177532D01*
X16155050Y-7177532D01*
X16153597Y-7170226D01*
X16153597Y-7170226D01*
X16153441Y-7169993D01*
X16148060Y-7161940D01*
X16139774Y-7156403D01*
X16139774Y-7156403D01*
X16139773Y-7156403D01*
X16132468Y-7154950D01*
X16132467Y-7154950D01*
X16037533Y-7154950D01*
X16037532Y-7154950D01*
X16030226Y-7156403D01*
X16030226Y-7156403D01*
X16021940Y-7161940D01*
X16016403Y-7170226D01*
X16016403Y-7170226D01*
X16014950Y-7177532D01*
X16014950Y-7284678D01*
X16012981Y-7291381D01*
X16007701Y-7295957D01*
X16000785Y-7296951D01*
X15994430Y-7294049D01*
X15990652Y-7288171D01*
X15990499Y-7287568D01*
X15990494Y-7287570D01*
X15989688Y-7284300D01*
X15975805Y-7227974D01*
X15960087Y-7177532D01*
X15957600Y-7169553D01*
X15957490Y-7169263D01*
X15944748Y-7135665D01*
X15935902Y-7112338D01*
X15935901Y-7112338D01*
X15935901Y-7112337D01*
X15910787Y-7056536D01*
X15882350Y-7002353D01*
X15850693Y-6949986D01*
X15850692Y-6949985D01*
X15850691Y-6949984D01*
X15848628Y-6946994D01*
X15846439Y-6940359D01*
X15848186Y-6933593D01*
X15853312Y-6928846D01*
X15858833Y-6927550D01*
X15890003Y-6927550D01*
X15896707Y-6929518D01*
X15898771Y-6931182D01*
X15961813Y-6994224D01*
X15961813Y-6994224D01*
X15961813Y-6994224D01*
X15968008Y-6998363D01*
X15977782Y-7000307D01*
X15987556Y-6998363D01*
X15993750Y-6994224D01*
X16060879Y-6927095D01*
X16065018Y-6920901D01*
X16066962Y-6911127D01*
X16065018Y-6901353D01*
X16060879Y-6895159D01*
X16060879Y-6895158D01*
X15951324Y-6785603D01*
X15949250Y-6784217D01*
X15945129Y-6781464D01*
X15935355Y-6779520D01*
X15925581Y-6781464D01*
X15919387Y-6785603D01*
X15919387Y-6785603D01*
X15856461Y-6848529D01*
X15850329Y-6851877D01*
X15846882Y-6852134D01*
X15830902Y-6851087D01*
X15830097Y-6850981D01*
X15825675Y-6850101D01*
X15810055Y-6846994D01*
X15809271Y-6846784D01*
X15789918Y-6840215D01*
X15789169Y-6839905D01*
X15780140Y-6835452D01*
X15770841Y-6830866D01*
X15770137Y-6830460D01*
X15753145Y-6819106D01*
X15752501Y-6818612D01*
X15750397Y-6816767D01*
X15744281Y-6811404D01*
X15736991Y-6805010D01*
X15736695Y-6804733D01*
X15694349Y-6762387D01*
X15694345Y-6762383D01*
X15648543Y-6721806D01*
X15648543Y-6721806D01*
X15600374Y-6684068D01*
X15550015Y-6649308D01*
X15550015Y-6649308D01*
X15550014Y-6649307D01*
X15543403Y-6645311D01*
X15497648Y-6617651D01*
X15497647Y-6617650D01*
X15497647Y-6617650D01*
X15443464Y-6589213D01*
X15443464Y-6589213D01*
X15443463Y-6589212D01*
X15387662Y-6564098D01*
X15330447Y-6542400D01*
X15272027Y-6524195D01*
X15272026Y-6524195D01*
X15226691Y-6513021D01*
X15220653Y-6509505D01*
X15217474Y-6503283D01*
X15218164Y-6496330D01*
X15220890Y-6492213D01*
X15223948Y-6489156D01*
X15223948Y-6489156D01*
X15224422Y-6488681D01*
X15230555Y-6485333D01*
X15233190Y-6485050D01*
X15322468Y-6485050D01*
X15322468Y-6485050D01*
X15329774Y-6483597D01*
X15338060Y-6478060D01*
X15343597Y-6469774D01*
X15345050Y-6462467D01*
X15345050Y-6367533D01*
X15345050Y-6367532D01*
X15344077Y-6362644D01*
X15344700Y-6355685D01*
X15348986Y-6350167D01*
X15355575Y-6347842D01*
X15362375Y-6349449D01*
X15365007Y-6351456D01*
X15504197Y-6490647D01*
X15507546Y-6496779D01*
X15507048Y-6503748D01*
X15505740Y-6506304D01*
X15501637Y-6512444D01*
X15499895Y-6521201D01*
X15499692Y-6522218D01*
X15501637Y-6531992D01*
X15504390Y-6536113D01*
X15505776Y-6538187D01*
X15615331Y-6647742D01*
X15615331Y-6647742D01*
X15621525Y-6651881D01*
X15631299Y-6653825D01*
X15641073Y-6651881D01*
X15647268Y-6647742D01*
X15714397Y-6580613D01*
X15718536Y-6574419D01*
X15720480Y-6564645D01*
X15720395Y-6564217D01*
X15719149Y-6557953D01*
X15718536Y-6554871D01*
X15714397Y-6548676D01*
X15714397Y-6548676D01*
X15604841Y-6439121D01*
X15602479Y-6437543D01*
X15598647Y-6434982D01*
X15588873Y-6433038D01*
X15579099Y-6434982D01*
X15572958Y-6439085D01*
X15566291Y-6441173D01*
X15559553Y-6439324D01*
X15557301Y-6437543D01*
X15514697Y-6394939D01*
X15793934Y-6394939D01*
X15832671Y-6433676D01*
X15837335Y-6437434D01*
X15850413Y-6443407D01*
X15850413Y-6443407D01*
X15864645Y-6445453D01*
X15878876Y-6443407D01*
X15878876Y-6443407D01*
X15891954Y-6437434D01*
X15896618Y-6433676D01*
X15914142Y-6416152D01*
X15843431Y-6345441D01*
X15793934Y-6394939D01*
X15514697Y-6394939D01*
X15444751Y-6324993D01*
X15408631Y-6288873D01*
X15708064Y-6288873D01*
X15710110Y-6303104D01*
X15710111Y-6303105D01*
X15716083Y-6316183D01*
X15719841Y-6320846D01*
X15719842Y-6320847D01*
X15758579Y-6359584D01*
X15808076Y-6310086D01*
X15737365Y-6239375D01*
X15737365Y-6239375D01*
X15719842Y-6256899D01*
X15716083Y-6261563D01*
X15710111Y-6274641D01*
X15710110Y-6274642D01*
X15708064Y-6288873D01*
X15408631Y-6288873D01*
X15330272Y-6210513D01*
X15329996Y-6210219D01*
X15327944Y-6207878D01*
X15316387Y-6194700D01*
X15315894Y-6194058D01*
X15304540Y-6177066D01*
X15304134Y-6176363D01*
X15302443Y-6172934D01*
X15301243Y-6166051D01*
X15303955Y-6159612D01*
X15309718Y-6155661D01*
X15313564Y-6155050D01*
X15322468Y-6155050D01*
X15322468Y-6155050D01*
X15329774Y-6153597D01*
X15338060Y-6148060D01*
X15343597Y-6139774D01*
X15345050Y-6132467D01*
X15345050Y-6037533D01*
X15345050Y-6037532D01*
X15345050Y-6037532D01*
X15345050Y-6037532D01*
X15343597Y-6030226D01*
X15343597Y-6030226D01*
X15343596Y-6030226D01*
X15338551Y-6022674D01*
X15336463Y-6016007D01*
X15338312Y-6009269D01*
X15343510Y-6004600D01*
X15350407Y-6003482D01*
X15351578Y-6003687D01*
G37*
%TD.AperFunction*%
%TA.AperFunction,Conductor*%
G36*
X14274796Y-7253864D02*
G01*
X14278146Y-7256250D01*
X14278513Y-7256616D01*
X14278514Y-7256618D01*
X14279220Y-7257324D01*
X14279220Y-7257324D01*
X14329529Y-7307632D01*
X14329531Y-7307635D01*
X14330009Y-7308113D01*
X14330014Y-7308121D01*
X14333578Y-7311686D01*
X14333578Y-7311686D01*
X14345304Y-7323412D01*
X14370942Y-7344452D01*
X14370942Y-7344452D01*
X14398518Y-7362877D01*
X14398518Y-7362877D01*
X14427768Y-7378511D01*
X14445065Y-7385676D01*
X14457161Y-7390686D01*
X14458409Y-7391203D01*
X14490147Y-7400830D01*
X14522676Y-7407300D01*
X14555682Y-7410550D01*
X14572265Y-7410550D01*
X14623550Y-7410550D01*
X14630254Y-7412518D01*
X14634829Y-7417799D01*
X14635950Y-7422950D01*
X14635950Y-7460468D01*
X14637403Y-7467773D01*
X14637403Y-7467774D01*
X14637403Y-7467774D01*
X14642940Y-7476060D01*
X14651226Y-7481597D01*
X14651226Y-7481597D01*
X14651226Y-7481597D01*
X14658532Y-7483050D01*
X14658532Y-7483050D01*
X14682549Y-7483050D01*
X14689252Y-7485018D01*
X14693828Y-7490299D01*
X14694822Y-7497215D01*
X14691920Y-7503570D01*
X14687789Y-7506688D01*
X14678242Y-7511140D01*
X14678242Y-7511140D01*
X14658893Y-7524689D01*
X14658892Y-7524689D01*
X14642189Y-7541392D01*
X14642189Y-7541393D01*
X14628640Y-7560742D01*
X14628640Y-7560742D01*
X14618657Y-7582151D01*
X14618657Y-7582151D01*
X14612936Y-7603500D01*
X14612936Y-7603500D01*
X14702631Y-7603500D01*
X14700051Y-7607516D01*
X14696000Y-7621311D01*
X14696000Y-7635689D01*
X14700051Y-7649484D01*
X14702631Y-7653500D01*
X14612936Y-7653500D01*
X14618657Y-7674849D01*
X14618657Y-7674849D01*
X14628640Y-7696258D01*
X14642189Y-7715608D01*
X14642863Y-7716282D01*
X14646212Y-7722414D01*
X14645713Y-7729383D01*
X14641526Y-7734977D01*
X14634980Y-7737418D01*
X14634095Y-7737450D01*
X14375271Y-7737450D01*
X14374730Y-7737426D01*
X14370883Y-7737090D01*
X14356554Y-7735836D01*
X14354425Y-7735461D01*
X14337587Y-7730949D01*
X14335556Y-7730210D01*
X14319758Y-7722843D01*
X14317887Y-7721762D01*
X14303607Y-7711763D01*
X14301951Y-7710374D01*
X14289626Y-7698049D01*
X14288236Y-7696393D01*
X14278237Y-7682113D01*
X14277157Y-7680242D01*
X14269790Y-7664443D01*
X14269051Y-7662413D01*
X14264539Y-7645574D01*
X14264164Y-7643446D01*
X14263813Y-7639439D01*
X14262573Y-7625270D01*
X14262550Y-7624729D01*
X14262550Y-7308780D01*
X14262548Y-7308744D01*
X14262548Y-7304651D01*
X14262549Y-7299840D01*
X14259340Y-7275465D01*
X14257401Y-7268227D01*
X14257567Y-7261242D01*
X14261483Y-7255456D01*
X14267906Y-7252705D01*
X14274796Y-7253864D01*
G37*
%TD.AperFunction*%
%TA.AperFunction,Conductor*%
G36*
X15048188Y-5963733D02*
G01*
X15075288Y-5964398D01*
X15075590Y-5964413D01*
X15150548Y-5969942D01*
X15150843Y-5969971D01*
X15225442Y-5979172D01*
X15225736Y-5979216D01*
X15285137Y-5989523D01*
X15289804Y-5990333D01*
X15296072Y-5993418D01*
X15299678Y-5999403D01*
X15299475Y-6006387D01*
X15295529Y-6012153D01*
X15289092Y-6014870D01*
X15287684Y-6014950D01*
X15167532Y-6014950D01*
X15160226Y-6016403D01*
X15160226Y-6016403D01*
X15151940Y-6021940D01*
X15146403Y-6030226D01*
X15146403Y-6030226D01*
X15144950Y-6037532D01*
X15144950Y-6132468D01*
X15146403Y-6139773D01*
X15146403Y-6139774D01*
X15146403Y-6139774D01*
X15151940Y-6148060D01*
X15160226Y-6153596D01*
X15160226Y-6153597D01*
X15160226Y-6153597D01*
X15167532Y-6155050D01*
X15167532Y-6155050D01*
X15167533Y-6155050D01*
X15205364Y-6155050D01*
X15212068Y-6157018D01*
X15216643Y-6162299D01*
X15217068Y-6163353D01*
X15222669Y-6179360D01*
X15225186Y-6186553D01*
X15236762Y-6210591D01*
X15236763Y-6210591D01*
X15250958Y-6233183D01*
X15250959Y-6233184D01*
X15267593Y-6254043D01*
X15267594Y-6254043D01*
X15275135Y-6261584D01*
X15292650Y-6279099D01*
X15338543Y-6324993D01*
X15341892Y-6331125D01*
X15341394Y-6338094D01*
X15337206Y-6343687D01*
X15330660Y-6346129D01*
X15327356Y-6345922D01*
X15322468Y-6344950D01*
X15322467Y-6344950D01*
X15167533Y-6344950D01*
X15167532Y-6344950D01*
X15160226Y-6346403D01*
X15160226Y-6346403D01*
X15151940Y-6351940D01*
X15146403Y-6360226D01*
X15146403Y-6360226D01*
X15144950Y-6367532D01*
X15144950Y-6451328D01*
X15142981Y-6458032D01*
X15139439Y-6461638D01*
X15133721Y-6465459D01*
X15133017Y-6465865D01*
X15114689Y-6474903D01*
X15113939Y-6475214D01*
X15094588Y-6481782D01*
X15093804Y-6481992D01*
X15073760Y-6485979D01*
X15072956Y-6486085D01*
X15060099Y-6486927D01*
X15053281Y-6485402D01*
X15049597Y-6482063D01*
X15049546Y-6482108D01*
X15049135Y-6481644D01*
X15049084Y-6481598D01*
X15049048Y-6481547D01*
X15037224Y-6471072D01*
X15037224Y-6471072D01*
X15037224Y-6471071D01*
X15023236Y-6463730D01*
X15007899Y-6459950D01*
X15007898Y-6459950D01*
X14992101Y-6459950D01*
X14992101Y-6459950D01*
X14976763Y-6463730D01*
X14962776Y-6471071D01*
X14950952Y-6481547D01*
X14950952Y-6481547D01*
X14949792Y-6483228D01*
X14944363Y-6487626D01*
X14940336Y-6488560D01*
X14899090Y-6491055D01*
X14860912Y-6495691D01*
X14854020Y-6494545D01*
X14848842Y-6489854D01*
X14847021Y-6483109D01*
X14849107Y-6476492D01*
X14853597Y-6469774D01*
X14855050Y-6462467D01*
X14855050Y-6367533D01*
X14855050Y-6367532D01*
X14855050Y-6367532D01*
X14855050Y-6367532D01*
X14853597Y-6360226D01*
X14853597Y-6360226D01*
X14852516Y-6358609D01*
X14848060Y-6351940D01*
X14841187Y-6347347D01*
X14839774Y-6346403D01*
X14839773Y-6346403D01*
X14832468Y-6344950D01*
X14832467Y-6344950D01*
X14677533Y-6344950D01*
X14677532Y-6344950D01*
X14670226Y-6346403D01*
X14670226Y-6346403D01*
X14661940Y-6351940D01*
X14656403Y-6360226D01*
X14656403Y-6360226D01*
X14654963Y-6367469D01*
X14651724Y-6373660D01*
X14645653Y-6377118D01*
X14642801Y-6377450D01*
X14350723Y-6377450D01*
X14350722Y-6377450D01*
X14344527Y-6377450D01*
X14344122Y-6377437D01*
X14323525Y-6376087D01*
X14322721Y-6375981D01*
X14311050Y-6373660D01*
X14302677Y-6371995D01*
X14301893Y-6371785D01*
X14296721Y-6370029D01*
X14282541Y-6365216D01*
X14281792Y-6364906D01*
X14263462Y-6355867D01*
X14262760Y-6355462D01*
X14245767Y-6344108D01*
X14245123Y-6343614D01*
X14244588Y-6343144D01*
X14242814Y-6341589D01*
X14239072Y-6335689D01*
X14239113Y-6328702D01*
X14242222Y-6323498D01*
X14260879Y-6304841D01*
X14265018Y-6298647D01*
X14266962Y-6288873D01*
X14265018Y-6279099D01*
X14260879Y-6272905D01*
X14260879Y-6272904D01*
X14195853Y-6207878D01*
X14192504Y-6201746D01*
X14193003Y-6194777D01*
X14197190Y-6189184D01*
X14197986Y-6188635D01*
X14209467Y-6181365D01*
X14209722Y-6181212D01*
X14275121Y-6144164D01*
X14275383Y-6144023D01*
X14342522Y-6110229D01*
X14342795Y-6110100D01*
X14343020Y-6110000D01*
X14630000Y-6110000D01*
X14630000Y-6134784D01*
X14630640Y-6140737D01*
X14630640Y-6140738D01*
X14635664Y-6154209D01*
X14635665Y-6154209D01*
X14644281Y-6165719D01*
X14644281Y-6165719D01*
X14655791Y-6174335D01*
X14655791Y-6174335D01*
X14669262Y-6179360D01*
X14669263Y-6179360D01*
X14675215Y-6180000D01*
X14675217Y-6180000D01*
X14730000Y-6180000D01*
X14730000Y-6110000D01*
X14780000Y-6110000D01*
X14780000Y-6180000D01*
X14834783Y-6180000D01*
X14834784Y-6180000D01*
X14840737Y-6179360D01*
X14840738Y-6179360D01*
X14854209Y-6174335D01*
X14854209Y-6174335D01*
X14865719Y-6165719D01*
X14865719Y-6165719D01*
X14874335Y-6154209D01*
X14874335Y-6154209D01*
X14879360Y-6140738D01*
X14879360Y-6140737D01*
X14880000Y-6134784D01*
X14880000Y-6134783D01*
X14880000Y-6110000D01*
X14780000Y-6110000D01*
X14730000Y-6110000D01*
X14630000Y-6110000D01*
X14343020Y-6110000D01*
X14411508Y-6079641D01*
X14411784Y-6079527D01*
X14481911Y-6052476D01*
X14482190Y-6052376D01*
X14553560Y-6028799D01*
X14553848Y-6028711D01*
X14616292Y-6011431D01*
X14623278Y-6011540D01*
X14629096Y-6015409D01*
X14631899Y-6021809D01*
X14631217Y-6027715D01*
X14630640Y-6029261D01*
X14630640Y-6029263D01*
X14630000Y-6035215D01*
X14630000Y-6060000D01*
X14880000Y-6060000D01*
X14880000Y-6035217D01*
X14880000Y-6035215D01*
X14879360Y-6029263D01*
X14879360Y-6029262D01*
X14874335Y-6015791D01*
X14874335Y-6015791D01*
X14865719Y-6004281D01*
X14865719Y-6004281D01*
X14854209Y-5995665D01*
X14854209Y-5995665D01*
X14848968Y-5993710D01*
X14843375Y-5989523D01*
X14840933Y-5982976D01*
X14842419Y-5976149D01*
X14847359Y-5971209D01*
X14852389Y-5969725D01*
X14924410Y-5964413D01*
X14924712Y-5964398D01*
X14947274Y-5963844D01*
X14999849Y-5962554D01*
X15000151Y-5962554D01*
X15048188Y-5963733D01*
G37*
%TD.AperFunction*%
%TA.AperFunction,Conductor*%
G36*
X15033194Y-5700548D02*
G01*
X15070333Y-5701865D01*
X15117595Y-5704083D01*
X15117794Y-5704096D01*
X15154740Y-5707157D01*
X15201939Y-5711596D01*
X15202157Y-5711621D01*
X15238801Y-5716408D01*
X15285851Y-5723071D01*
X15286060Y-5723104D01*
X15322313Y-5729595D01*
X15369119Y-5738478D01*
X15369340Y-5738524D01*
X15383885Y-5741844D01*
X15405109Y-5746688D01*
X15430131Y-5752664D01*
X15451581Y-5757787D01*
X15451801Y-5757844D01*
X15481092Y-5766003D01*
X15487003Y-5767649D01*
X15533036Y-5780953D01*
X15533255Y-5781021D01*
X15567811Y-5792429D01*
X15613314Y-5807925D01*
X15613533Y-5808004D01*
X15647354Y-5820972D01*
X15654736Y-5823878D01*
X15692237Y-5838644D01*
X15692455Y-5838736D01*
X15707642Y-5845397D01*
X15725460Y-5853213D01*
X15769623Y-5873041D01*
X15769840Y-5873143D01*
X15801945Y-5889074D01*
X15839426Y-5908061D01*
X15845312Y-5911043D01*
X15845526Y-5911156D01*
X15876658Y-5928483D01*
X15919125Y-5952561D01*
X15919335Y-5952685D01*
X15949410Y-5971336D01*
X15990908Y-5997508D01*
X15991114Y-5997643D01*
X15997062Y-6001733D01*
X16020047Y-6017537D01*
X16060496Y-6045781D01*
X16060696Y-6045927D01*
X16085510Y-6064774D01*
X16088422Y-6066985D01*
X16127737Y-6097275D01*
X16127930Y-6097431D01*
X16154391Y-6119575D01*
X16192483Y-6151877D01*
X16192665Y-6152039D01*
X16204958Y-6163354D01*
X16217784Y-6175161D01*
X16252887Y-6207878D01*
X16254585Y-6209461D01*
X16254767Y-6209638D01*
X16278463Y-6233615D01*
X16309226Y-6265109D01*
X16313910Y-6269904D01*
X16314086Y-6270091D01*
X16336312Y-6294815D01*
X16370329Y-6333073D01*
X16370496Y-6333268D01*
X16391198Y-6358609D01*
X16423711Y-6398823D01*
X16423871Y-6399030D01*
X16443002Y-6424844D01*
X16473943Y-6467014D01*
X16474094Y-6467229D01*
X16474361Y-6467628D01*
X16489260Y-6489854D01*
X16491585Y-6493323D01*
X16520912Y-6537494D01*
X16521055Y-6537718D01*
X16536863Y-6563896D01*
X16564513Y-6610104D01*
X16564646Y-6610337D01*
X16578733Y-6636367D01*
X16604652Y-6684687D01*
X16604773Y-6684926D01*
X16617092Y-6710508D01*
X16641236Y-6761075D01*
X16641348Y-6761323D01*
X16645911Y-6772069D01*
X16651870Y-6786102D01*
X16674187Y-6839100D01*
X16674288Y-6839355D01*
X16682963Y-6862805D01*
X16690277Y-6882739D01*
X16703430Y-6918587D01*
X16703520Y-6918849D01*
X16710347Y-6940380D01*
X16728903Y-6999365D01*
X16728981Y-6999632D01*
X16733914Y-7018188D01*
X16750547Y-7081252D01*
X16750613Y-7081525D01*
X16753637Y-7095535D01*
X16768316Y-7164066D01*
X16768369Y-7164344D01*
X16769475Y-7170974D01*
X16782147Y-7247495D01*
X16782188Y-7247783D01*
X16792024Y-7331307D01*
X16792051Y-7331596D01*
X16793500Y-7352155D01*
X16797961Y-7415486D01*
X16797975Y-7415776D01*
X16799947Y-7499855D01*
X16799947Y-7500145D01*
X16797975Y-7584223D01*
X16797961Y-7584514D01*
X16792051Y-7668404D01*
X16792024Y-7668693D01*
X16782188Y-7752217D01*
X16782147Y-7752505D01*
X16769475Y-7829025D01*
X16768369Y-7835656D01*
X16768316Y-7835934D01*
X16753637Y-7904464D01*
X16750613Y-7918475D01*
X16750547Y-7918748D01*
X16733914Y-7981811D01*
X16728981Y-8000367D01*
X16728903Y-8000635D01*
X16710347Y-8059620D01*
X16703520Y-8081151D01*
X16703430Y-8081413D01*
X16682969Y-8137178D01*
X16674288Y-8160644D01*
X16674187Y-8160899D01*
X16651864Y-8213912D01*
X16641348Y-8238677D01*
X16641236Y-8238925D01*
X16617092Y-8289492D01*
X16604773Y-8315074D01*
X16604650Y-8315315D01*
X16587718Y-8346882D01*
X16579612Y-8361995D01*
X16578741Y-8363617D01*
X16564646Y-8389663D01*
X16564513Y-8389896D01*
X16536863Y-8436104D01*
X16521055Y-8462281D01*
X16520912Y-8462506D01*
X16491585Y-8506677D01*
X16474094Y-8532770D01*
X16473943Y-8532986D01*
X16443002Y-8575156D01*
X16423871Y-8600970D01*
X16423711Y-8601177D01*
X16391201Y-8641388D01*
X16370497Y-8666730D01*
X16370329Y-8666927D01*
X16336312Y-8705185D01*
X16314086Y-8729909D01*
X16313910Y-8730096D01*
X16278466Y-8766381D01*
X16254767Y-8790361D01*
X16254585Y-8790539D01*
X16217784Y-8824838D01*
X16192668Y-8847959D01*
X16192478Y-8848127D01*
X16154392Y-8880425D01*
X16127930Y-8902569D01*
X16127735Y-8902726D01*
X16088426Y-8933011D01*
X16060697Y-8954072D01*
X16060496Y-8954218D01*
X16020055Y-8982458D01*
X15991114Y-9002357D01*
X15990908Y-9002492D01*
X15949410Y-9028664D01*
X15919335Y-9047315D01*
X15919125Y-9047439D01*
X15876658Y-9071517D01*
X15845526Y-9088843D01*
X15845312Y-9088957D01*
X15801943Y-9110927D01*
X15769840Y-9126857D01*
X15769623Y-9126959D01*
X15725466Y-9146785D01*
X15692455Y-9161264D01*
X15692237Y-9161355D01*
X15647358Y-9179027D01*
X15613533Y-9191996D01*
X15613312Y-9192076D01*
X15567821Y-9207567D01*
X15533256Y-9218979D01*
X15533034Y-9219048D01*
X15487003Y-9232351D01*
X15451802Y-9242155D01*
X15451579Y-9242213D01*
X15405109Y-9253312D01*
X15369341Y-9261476D01*
X15369117Y-9261522D01*
X15322318Y-9270404D01*
X15286067Y-9276894D01*
X15285844Y-9276930D01*
X15238803Y-9283591D01*
X15202159Y-9288379D01*
X15201936Y-9288404D01*
X15154745Y-9292843D01*
X15133591Y-9294595D01*
X15117806Y-9295903D01*
X15117585Y-9295918D01*
X15070335Y-9298135D01*
X15035367Y-9299374D01*
X15033194Y-9299451D01*
X15032975Y-9299455D01*
X14985766Y-9299455D01*
X14970383Y-9299274D01*
X14948509Y-9299015D01*
X14948291Y-9299009D01*
X14901230Y-9296801D01*
X14863932Y-9294595D01*
X14863717Y-9294579D01*
X14816906Y-9290176D01*
X14779662Y-9286202D01*
X14779452Y-9286176D01*
X14768985Y-9284694D01*
X14732970Y-9279594D01*
X14695882Y-9273855D01*
X14695675Y-9273819D01*
X14649629Y-9265080D01*
X14612775Y-9257579D01*
X14612571Y-9257534D01*
X14567050Y-9246662D01*
X14530526Y-9237413D01*
X14530326Y-9237359D01*
X14485425Y-9224382D01*
X14449317Y-9213400D01*
X14449122Y-9213337D01*
X14429877Y-9206784D01*
X14404939Y-9198291D01*
X14369328Y-9185594D01*
X14369139Y-9185523D01*
X14325761Y-9168442D01*
X14290734Y-9154055D01*
X14290554Y-9153977D01*
X14248075Y-9134905D01*
X14213713Y-9118855D01*
X14213535Y-9118768D01*
X14172043Y-9097749D01*
X14138436Y-9080072D01*
X14138264Y-9079978D01*
X14097842Y-9057059D01*
X14078027Y-9045410D01*
X14065063Y-9037788D01*
X14064899Y-9037689D01*
X14061566Y-9035587D01*
X14050791Y-9028791D01*
X14025634Y-9012925D01*
X13993761Y-8992102D01*
X13993605Y-8991996D01*
X13955577Y-8965442D01*
X13940052Y-8954218D01*
X13924688Y-8943111D01*
X13924546Y-8943006D01*
X13903627Y-8926889D01*
X13887828Y-8914716D01*
X13857999Y-8890929D01*
X13857855Y-8890810D01*
X13827675Y-8865217D01*
X13822540Y-8860863D01*
X13793838Y-8835667D01*
X13793701Y-8835543D01*
X13782216Y-8824838D01*
X13759850Y-8803992D01*
X13732350Y-8777450D01*
X13732220Y-8777321D01*
X13699904Y-8744238D01*
X13673664Y-8716401D01*
X13673545Y-8716271D01*
X13642830Y-8681727D01*
X13642245Y-8681045D01*
X13617915Y-8652659D01*
X13617810Y-8652533D01*
X13588760Y-8616603D01*
X13565231Y-8586373D01*
X13565127Y-8586235D01*
X13564664Y-8585604D01*
X13550986Y-8566962D01*
X13537813Y-8549008D01*
X13515723Y-8517679D01*
X13515624Y-8517536D01*
X13490097Y-8479088D01*
X13489266Y-8477782D01*
X13469497Y-8446729D01*
X13469410Y-8446587D01*
X13468537Y-8445129D01*
X13445723Y-8407003D01*
X13426661Y-8373685D01*
X13426587Y-8373550D01*
X13404785Y-8332905D01*
X13387312Y-8298713D01*
X13387241Y-8298569D01*
X13369269Y-8260928D01*
X13367406Y-8257024D01*
X13367353Y-8256911D01*
X13361571Y-8244142D01*
X13351530Y-8221966D01*
X13351471Y-8221833D01*
X13333607Y-8179409D01*
X13333559Y-8179291D01*
X13332657Y-8177018D01*
X13319402Y-8143635D01*
X13319345Y-8143484D01*
X13312505Y-8124842D01*
X13303493Y-8100283D01*
X13303456Y-8100177D01*
X13290990Y-8063864D01*
X13290944Y-8063724D01*
X13277135Y-8019828D01*
X13277104Y-8019728D01*
X13266363Y-7982855D01*
X13266325Y-7982716D01*
X13254593Y-7938238D01*
X13254562Y-7938114D01*
X13249835Y-7918475D01*
X13245574Y-7900774D01*
X13245542Y-7900634D01*
X13235910Y-7855664D01*
X13235886Y-7855547D01*
X13228669Y-7817812D01*
X13228644Y-7817669D01*
X13221132Y-7772307D01*
X13221113Y-7772186D01*
X13215686Y-7734147D01*
X13215666Y-7733999D01*
X13215587Y-7733322D01*
X13210290Y-7688347D01*
X13210276Y-7688208D01*
X13209521Y-7680241D01*
X13206650Y-7649955D01*
X13206640Y-7649825D01*
X13203408Y-7603957D01*
X13203401Y-7603834D01*
X13201586Y-7565448D01*
X13201581Y-7565311D01*
X13200504Y-7519353D01*
X13200502Y-7519207D01*
X13200502Y-7480792D01*
X13200504Y-7480647D01*
X13200577Y-7477533D01*
X13201075Y-7456275D01*
X13287449Y-7456275D01*
X13287450Y-7492103D01*
X13287450Y-7494904D01*
X13287449Y-7494907D01*
X13287449Y-7539606D01*
X13291104Y-7618650D01*
X13298405Y-7697441D01*
X13298405Y-7697443D01*
X13306086Y-7752505D01*
X13309337Y-7775813D01*
X13323877Y-7853594D01*
X13323877Y-7853596D01*
X13341994Y-7930622D01*
X13341994Y-7930623D01*
X13363648Y-8006728D01*
X13363649Y-8006731D01*
X13388795Y-8081756D01*
X13411941Y-8141503D01*
X13417373Y-8155525D01*
X13417381Y-8155545D01*
X13449342Y-8227929D01*
X13484612Y-8298761D01*
X13484614Y-8298764D01*
X13503500Y-8332671D01*
X13523117Y-8367892D01*
X13564774Y-8435169D01*
X13589168Y-8470780D01*
X13609493Y-8500450D01*
X13654973Y-8560676D01*
X13657178Y-8563596D01*
X13707729Y-8624472D01*
X13707730Y-8624473D01*
X13707731Y-8624474D01*
X13761039Y-8682951D01*
X13761040Y-8682951D01*
X13783878Y-8705789D01*
X13791526Y-8713438D01*
X13791528Y-8713439D01*
X13793477Y-8715388D01*
X13793487Y-8715397D01*
X13817051Y-8738961D01*
X13817051Y-8738961D01*
X13817054Y-8738963D01*
X13839875Y-8759768D01*
X13875528Y-8792270D01*
X13936404Y-8842821D01*
X13948480Y-8851940D01*
X13998665Y-8889838D01*
X13999551Y-8890507D01*
X14064832Y-8935226D01*
X14132109Y-8976882D01*
X14201238Y-9015386D01*
X14201238Y-9015387D01*
X14201240Y-9015387D01*
X14259798Y-9044546D01*
X14272071Y-9050657D01*
X14344458Y-9082619D01*
X14344458Y-9082619D01*
X14344458Y-9082619D01*
X14395088Y-9102234D01*
X14418243Y-9111204D01*
X14493270Y-9136351D01*
X14569379Y-9158005D01*
X14646406Y-9176122D01*
X14724188Y-9190662D01*
X14802558Y-9201594D01*
X14881349Y-9208895D01*
X14940248Y-9211618D01*
X14946854Y-9213894D01*
X14949880Y-9216961D01*
X14950910Y-9218453D01*
X14962734Y-9228928D01*
X14962735Y-9228928D01*
X14976722Y-9236270D01*
X14992060Y-9240050D01*
X15007857Y-9240050D01*
X15023195Y-9236270D01*
X15030662Y-9232351D01*
X15037182Y-9228928D01*
X15049007Y-9218453D01*
X15050033Y-9216966D01*
X15055461Y-9212567D01*
X15059665Y-9211623D01*
X15118651Y-9208896D01*
X15197442Y-9201595D01*
X15275813Y-9190663D01*
X15353594Y-9176123D01*
X15430622Y-9158006D01*
X15506730Y-9136351D01*
X15581757Y-9111205D01*
X15655543Y-9082620D01*
X15727929Y-9050658D01*
X15798763Y-9015387D01*
X15867892Y-8976883D01*
X15935169Y-8935226D01*
X16000450Y-8890508D01*
X16063596Y-8842822D01*
X16124473Y-8792270D01*
X16182950Y-8738961D01*
X16204752Y-8717159D01*
X16204752Y-8717159D01*
X16206496Y-8715416D01*
X16206496Y-8715416D01*
X16213185Y-8708726D01*
X16213185Y-8708726D01*
X16214206Y-8707705D01*
X16214206Y-8707706D01*
X16214207Y-8707705D01*
X16214744Y-8707167D01*
X16214744Y-8707167D01*
X16215415Y-8706496D01*
X16215423Y-8706486D01*
X16238961Y-8682949D01*
X16292270Y-8624472D01*
X16342821Y-8563596D01*
X16390507Y-8500449D01*
X16435226Y-8435168D01*
X16476882Y-8367891D01*
X16515386Y-8298762D01*
X16550657Y-8227929D01*
X16582619Y-8155542D01*
X16611204Y-8081757D01*
X16636351Y-8006730D01*
X16658005Y-7930621D01*
X16676122Y-7853594D01*
X16690662Y-7775812D01*
X16701594Y-7697442D01*
X16708895Y-7618651D01*
X16712550Y-7539606D01*
X16712550Y-7505096D01*
X16712551Y-7505092D01*
X16712551Y-7499959D01*
X16712551Y-7460394D01*
X16708896Y-7381349D01*
X16701595Y-7302558D01*
X16690663Y-7224187D01*
X16676123Y-7146406D01*
X16658006Y-7069378D01*
X16657903Y-7069016D01*
X16651082Y-7045042D01*
X16636351Y-6993270D01*
X16611205Y-6918243D01*
X16610154Y-6915530D01*
X16582620Y-6844458D01*
X16582620Y-6844457D01*
X16581886Y-6842795D01*
X16561620Y-6796897D01*
X16550660Y-6772075D01*
X16550657Y-6772069D01*
X16515388Y-6701239D01*
X16515386Y-6701235D01*
X16476883Y-6632108D01*
X16435226Y-6564831D01*
X16390508Y-6499550D01*
X16389707Y-6498490D01*
X16355015Y-6452550D01*
X16342822Y-6436404D01*
X16292270Y-6375527D01*
X16292270Y-6375526D01*
X16292269Y-6375526D01*
X16265282Y-6345922D01*
X16252347Y-6331733D01*
X16249285Y-6325453D01*
X16249201Y-6321885D01*
X16249961Y-6315625D01*
X16248057Y-6299944D01*
X16242455Y-6285173D01*
X16233481Y-6272172D01*
X16221657Y-6261697D01*
X16221657Y-6261697D01*
X16221657Y-6261697D01*
X16207670Y-6254356D01*
X16192332Y-6250575D01*
X16192332Y-6250575D01*
X16176535Y-6250575D01*
X16176275Y-6250575D01*
X16169571Y-6248607D01*
X16167921Y-6247339D01*
X16124473Y-6207731D01*
X16124473Y-6207731D01*
X16124472Y-6207730D01*
X16068641Y-6161369D01*
X16063597Y-6157180D01*
X16063596Y-6157180D01*
X16063596Y-6157179D01*
X16059662Y-6154209D01*
X16000450Y-6109493D01*
X15965105Y-6085281D01*
X15935168Y-6064774D01*
X15867891Y-6023118D01*
X15834072Y-6004281D01*
X15798764Y-5984614D01*
X15798760Y-5984612D01*
X15727929Y-5949343D01*
X15655543Y-5917381D01*
X15655542Y-5917381D01*
X15581758Y-5888796D01*
X15506731Y-5863650D01*
X15506730Y-5863650D01*
X15506730Y-5863649D01*
X15506729Y-5863649D01*
X15506728Y-5863649D01*
X15430622Y-5841995D01*
X15430622Y-5841995D01*
X15353596Y-5823878D01*
X15353595Y-5823878D01*
X15353594Y-5823878D01*
X15275812Y-5809338D01*
X15257012Y-5806715D01*
X15197442Y-5798406D01*
X15118650Y-5791104D01*
X15053057Y-5788072D01*
X15039606Y-5787450D01*
X15039606Y-5787450D01*
X15005096Y-5787450D01*
X15005092Y-5787449D01*
X14999958Y-5787449D01*
X14960394Y-5787449D01*
X14947665Y-5788038D01*
X14881350Y-5791104D01*
X14802559Y-5798405D01*
X14802557Y-5798405D01*
X14724187Y-5809337D01*
X14646406Y-5823877D01*
X14646405Y-5823877D01*
X14646404Y-5823877D01*
X14569378Y-5841994D01*
X14569377Y-5841994D01*
X14493272Y-5863648D01*
X14493269Y-5863649D01*
X14418243Y-5888795D01*
X14344455Y-5917381D01*
X14272071Y-5949342D01*
X14201239Y-5984612D01*
X14201235Y-5984614D01*
X14132109Y-6023117D01*
X14132107Y-6023118D01*
X14064831Y-6064773D01*
X13999550Y-6109493D01*
X13936406Y-6157176D01*
X13936402Y-6157180D01*
X13875527Y-6207730D01*
X13875526Y-6207731D01*
X13832202Y-6247226D01*
X13825922Y-6250287D01*
X13823848Y-6250462D01*
X13807739Y-6250462D01*
X13792401Y-6254242D01*
X13778414Y-6261583D01*
X13766589Y-6272059D01*
X13757616Y-6285059D01*
X13757615Y-6285059D01*
X13752014Y-6299830D01*
X13750110Y-6315512D01*
X13750110Y-6315512D01*
X13752014Y-6331194D01*
X13756724Y-6343614D01*
X13757615Y-6345964D01*
X13766589Y-6358965D01*
X13778413Y-6369440D01*
X13778414Y-6369440D01*
X13792401Y-6376781D01*
X13807739Y-6380562D01*
X13807739Y-6380562D01*
X13809076Y-6380562D01*
X13815780Y-6382530D01*
X13820356Y-6387811D01*
X13821386Y-6391467D01*
X13822653Y-6401905D01*
X13828255Y-6416675D01*
X13837229Y-6429676D01*
X13849053Y-6440151D01*
X13849053Y-6440152D01*
X13863041Y-6447493D01*
X13878379Y-6451273D01*
X13894176Y-6451273D01*
X13909514Y-6447493D01*
X13912104Y-6446133D01*
X13923501Y-6440151D01*
X13935325Y-6429676D01*
X13944299Y-6416675D01*
X13949901Y-6401905D01*
X13951805Y-6386223D01*
X13951419Y-6383042D01*
X13952565Y-6376150D01*
X13955178Y-6372568D01*
X13967403Y-6360928D01*
X13967625Y-6360727D01*
X14024540Y-6311632D01*
X14024769Y-6311444D01*
X14028485Y-6308544D01*
X14034981Y-6305971D01*
X14041837Y-6307319D01*
X14046876Y-6312159D01*
X14048498Y-6318955D01*
X14048276Y-6320738D01*
X14046691Y-6328702D01*
X14046175Y-6331299D01*
X14048119Y-6341073D01*
X14050147Y-6344108D01*
X14052258Y-6347268D01*
X14119387Y-6414397D01*
X14119387Y-6414397D01*
X14125581Y-6418536D01*
X14135355Y-6420480D01*
X14145129Y-6418536D01*
X14151324Y-6414397D01*
X14171009Y-6394711D01*
X14177141Y-6391363D01*
X14184110Y-6391861D01*
X14187508Y-6393785D01*
X14206642Y-6409043D01*
X14206643Y-6409044D01*
X14206644Y-6409044D01*
X14229236Y-6423239D01*
X14229236Y-6423239D01*
X14229236Y-6423239D01*
X14253274Y-6434815D01*
X14253275Y-6434815D01*
X14253275Y-6434815D01*
X14278459Y-6443627D01*
X14278459Y-6443627D01*
X14278459Y-6443627D01*
X14284308Y-6444962D01*
X14304472Y-6449564D01*
X14330985Y-6452550D01*
X14344325Y-6452550D01*
X14344326Y-6452550D01*
X14351793Y-6452550D01*
X14358497Y-6454518D01*
X14363073Y-6459799D01*
X14364067Y-6466715D01*
X14361165Y-6473070D01*
X14360561Y-6473718D01*
X14285603Y-6548676D01*
X14285603Y-6548676D01*
X14281464Y-6554871D01*
X14279605Y-6564217D01*
X14279520Y-6564645D01*
X14281464Y-6574419D01*
X14283503Y-6577469D01*
X14285603Y-6580613D01*
X14285603Y-6580613D01*
X14348529Y-6643538D01*
X14351877Y-6649671D01*
X14352134Y-6653117D01*
X14351087Y-6669098D01*
X14350981Y-6669903D01*
X14346994Y-6689945D01*
X14346784Y-6690729D01*
X14340215Y-6710081D01*
X14339904Y-6710832D01*
X14330866Y-6729159D01*
X14330460Y-6729862D01*
X14319107Y-6746854D01*
X14318612Y-6747498D01*
X14312503Y-6754465D01*
X14311953Y-6755017D01*
X14311301Y-6755595D01*
X14292886Y-6774010D01*
X14281248Y-6785648D01*
X14278998Y-6788799D01*
X14277675Y-6790361D01*
X14271142Y-6796895D01*
X14271140Y-6796897D01*
X14248876Y-6824391D01*
X14229606Y-6854064D01*
X14213544Y-6885589D01*
X14213544Y-6885590D01*
X14200866Y-6918619D01*
X14197335Y-6931797D01*
X14193698Y-6937763D01*
X14187413Y-6940816D01*
X14180476Y-6939986D01*
X14179595Y-6939567D01*
X14173236Y-6936230D01*
X14157899Y-6932450D01*
X14157898Y-6932450D01*
X14144208Y-6932450D01*
X14137504Y-6930481D01*
X14135440Y-6928819D01*
X14128284Y-6921663D01*
X14124936Y-6915530D01*
X14125434Y-6908561D01*
X14128284Y-6904127D01*
X14147742Y-6884669D01*
X14151881Y-6878475D01*
X14153825Y-6868701D01*
X14151881Y-6858926D01*
X14147742Y-6852732D01*
X14147742Y-6852732D01*
X14080613Y-6785603D01*
X14078539Y-6784217D01*
X14074419Y-6781464D01*
X14064645Y-6779520D01*
X14054871Y-6781464D01*
X14048676Y-6785603D01*
X13939121Y-6895158D01*
X13934982Y-6901353D01*
X13933564Y-6908479D01*
X13933038Y-6911127D01*
X13934982Y-6920901D01*
X13937735Y-6925021D01*
X13939121Y-6927095D01*
X13981058Y-6969033D01*
X13984407Y-6975165D01*
X13983908Y-6982134D01*
X13979721Y-6987728D01*
X13973175Y-6990169D01*
X13969802Y-6989949D01*
X13963869Y-6988733D01*
X13963868Y-6988733D01*
X13958999Y-6988315D01*
X13956036Y-6987689D01*
X13955924Y-6987650D01*
X13955923Y-6987650D01*
X13951536Y-6987650D01*
X13951006Y-6987627D01*
X13949554Y-6987503D01*
X13947498Y-6987326D01*
X13947498Y-6987326D01*
X13947113Y-6987404D01*
X13944652Y-6987650D01*
X13428152Y-6987650D01*
X13428101Y-6987652D01*
X13423420Y-6987650D01*
X13423419Y-6987650D01*
X13407537Y-6990605D01*
X13407536Y-6990605D01*
X13392462Y-6996416D01*
X13378706Y-7004887D01*
X13366731Y-7015732D01*
X13356944Y-7028585D01*
X13356944Y-7028585D01*
X13353946Y-7034532D01*
X13349673Y-7043012D01*
X13349672Y-7043013D01*
X13349431Y-7043844D01*
X13348984Y-7045042D01*
X13347338Y-7051058D01*
X13345915Y-7055954D01*
X13345882Y-7056191D01*
X13345722Y-7056962D01*
X13336617Y-7090241D01*
X13336617Y-7090242D01*
X13320282Y-7162427D01*
X13307174Y-7235270D01*
X13297322Y-7308615D01*
X13297321Y-7308621D01*
X13290742Y-7382337D01*
X13290742Y-7382338D01*
X13287449Y-7456272D01*
X13287449Y-7456275D01*
X13201075Y-7456275D01*
X13201581Y-7434688D01*
X13201586Y-7434551D01*
X13201589Y-7434502D01*
X13203401Y-7396165D01*
X13203408Y-7396044D01*
X13206640Y-7350172D01*
X13206650Y-7350046D01*
X13210276Y-7311789D01*
X13210290Y-7311652D01*
X13210325Y-7311355D01*
X13215667Y-7265995D01*
X13215685Y-7265855D01*
X13221114Y-7227811D01*
X13221131Y-7227696D01*
X13228644Y-7182328D01*
X13228669Y-7182191D01*
X13235887Y-7144450D01*
X13235909Y-7144340D01*
X13245543Y-7099362D01*
X13245573Y-7099229D01*
X13254562Y-7061886D01*
X13254592Y-7061766D01*
X13266326Y-7017279D01*
X13266362Y-7017149D01*
X13277106Y-6980267D01*
X13277133Y-6980177D01*
X13290945Y-6936271D01*
X13290988Y-6936140D01*
X13303458Y-6899817D01*
X13303491Y-6899724D01*
X13319346Y-6856512D01*
X13319400Y-6856370D01*
X13333562Y-6820702D01*
X13333605Y-6820596D01*
X13351474Y-6778161D01*
X13351527Y-6778039D01*
X13358503Y-6762634D01*
X13739375Y-6762634D01*
X13756900Y-6780159D01*
X13761563Y-6783917D01*
X13774641Y-6789889D01*
X13774642Y-6789889D01*
X13788873Y-6791935D01*
X13803104Y-6789889D01*
X13803105Y-6789889D01*
X13816183Y-6783917D01*
X13820846Y-6780159D01*
X13820847Y-6780158D01*
X13859584Y-6741421D01*
X13810086Y-6691924D01*
X13739375Y-6762634D01*
X13739375Y-6762634D01*
X13358503Y-6762634D01*
X13367355Y-6743083D01*
X13367402Y-6742983D01*
X13387243Y-6701427D01*
X13387309Y-6701293D01*
X13399324Y-6677782D01*
X13674719Y-6677782D01*
X13676765Y-6692013D01*
X13676765Y-6692013D01*
X13682738Y-6705091D01*
X13686496Y-6709755D01*
X13704020Y-6727279D01*
X13774731Y-6656568D01*
X13845441Y-6656568D01*
X13894939Y-6706066D01*
X13933676Y-6667329D01*
X13933676Y-6667328D01*
X13937434Y-6662665D01*
X13943407Y-6649587D01*
X13943407Y-6649587D01*
X13945453Y-6635355D01*
X13943407Y-6621124D01*
X13943407Y-6621123D01*
X13937434Y-6608045D01*
X13933676Y-6603382D01*
X13916152Y-6585858D01*
X13845441Y-6656568D01*
X13774731Y-6656568D01*
X13725233Y-6607071D01*
X13686496Y-6645808D01*
X13686496Y-6645808D01*
X13682738Y-6650472D01*
X13676765Y-6663550D01*
X13676765Y-6663550D01*
X13674719Y-6677782D01*
X13399324Y-6677782D01*
X13404785Y-6667095D01*
X13426590Y-6626443D01*
X13426658Y-6626321D01*
X13445722Y-6592998D01*
X13458457Y-6571716D01*
X13760589Y-6571716D01*
X13810086Y-6621213D01*
X13880797Y-6550502D01*
X13863273Y-6532978D01*
X13858609Y-6529220D01*
X13845531Y-6523248D01*
X13845531Y-6523247D01*
X13831299Y-6521201D01*
X13817068Y-6523247D01*
X13817067Y-6523248D01*
X13803990Y-6529220D01*
X13799326Y-6532978D01*
X13799326Y-6532979D01*
X13760589Y-6571716D01*
X13458457Y-6571716D01*
X13469414Y-6553405D01*
X13469493Y-6553277D01*
X13490097Y-6520912D01*
X13515626Y-6482461D01*
X13515718Y-6482327D01*
X13537811Y-6450995D01*
X13565133Y-6413757D01*
X13565226Y-6413634D01*
X13588760Y-6383397D01*
X13617816Y-6347459D01*
X13617909Y-6347347D01*
X13642829Y-6318275D01*
X13673552Y-6283721D01*
X13673660Y-6283603D01*
X13699900Y-6255765D01*
X13732222Y-6222677D01*
X13732344Y-6222556D01*
X13759847Y-6196011D01*
X13793709Y-6164450D01*
X13793833Y-6164338D01*
X13822533Y-6139143D01*
X13857863Y-6109183D01*
X13857992Y-6109077D01*
X13887823Y-6085287D01*
X13924555Y-6056987D01*
X13924679Y-6056895D01*
X13955570Y-6034562D01*
X13993614Y-6007998D01*
X13993754Y-6007903D01*
X14025627Y-5987079D01*
X14064910Y-5962304D01*
X14065053Y-5962217D01*
X14097838Y-5942943D01*
X14138274Y-5920017D01*
X14138426Y-5919933D01*
X14172039Y-5902253D01*
X14213545Y-5881227D01*
X14213705Y-5881149D01*
X14248068Y-5865098D01*
X14290565Y-5846018D01*
X14290723Y-5845950D01*
X14325757Y-5831559D01*
X14369144Y-5814475D01*
X14369323Y-5814408D01*
X14404931Y-5801712D01*
X14449132Y-5786659D01*
X14449308Y-5786602D01*
X14485420Y-5775619D01*
X14530333Y-5762639D01*
X14530524Y-5762587D01*
X14567048Y-5753338D01*
X14605600Y-5744130D01*
X14612571Y-5742465D01*
X14612772Y-5742421D01*
X14649623Y-5734921D01*
X14695683Y-5726179D01*
X14695875Y-5726146D01*
X14732967Y-5720406D01*
X14779463Y-5713822D01*
X14779652Y-5713799D01*
X14816899Y-5709824D01*
X14863725Y-5705420D01*
X14863927Y-5705405D01*
X14901223Y-5703200D01*
X14948296Y-5700991D01*
X14948500Y-5700985D01*
X14985766Y-5700545D01*
X15032975Y-5700545D01*
X15033194Y-5700548D01*
G37*
%TD.AperFunction*%
%TD*%
M02*
