%TF.GenerationSoftware,KiCad,Pcbnew,7.0.5-7.0.5~ubuntu20.04.1*%
%TF.CreationDate,2023-07-06T17:20:07+02:00*%
%TF.ProjectId,sao_barebones,73616f5f-6261-4726-9562-6f6e65732e6b,rev?*%
%TF.SameCoordinates,Original*%
%TF.FileFunction,Copper,L2,Bot*%
%TF.FilePolarity,Positive*%
%FSLAX45Y45*%
G04 Gerber Fmt 4.5, Leading zero omitted, Abs format (unit mm)*
G04 Created by KiCad (PCBNEW 7.0.5-7.0.5~ubuntu20.04.1) date 2023-07-06 17:20:07*
%MOMM*%
%LPD*%
G01*
G04 APERTURE LIST*
G04 Aperture macros list*
%AMRoundRect*
0 Rectangle with rounded corners*
0 $1 Rounding radius*
0 $2 $3 $4 $5 $6 $7 $8 $9 X,Y pos of 4 corners*
0 Add a 4 corners polygon primitive as box body*
4,1,4,$2,$3,$4,$5,$6,$7,$8,$9,$2,$3,0*
0 Add four circle primitives for the rounded corners*
1,1,$1+$1,$2,$3*
1,1,$1+$1,$4,$5*
1,1,$1+$1,$6,$7*
1,1,$1+$1,$8,$9*
0 Add four rect primitives between the rounded corners*
20,1,$1+$1,$2,$3,$4,$5,0*
20,1,$1+$1,$4,$5,$6,$7,0*
20,1,$1+$1,$6,$7,$8,$9,0*
20,1,$1+$1,$8,$9,$2,$3,0*%
%AMRotRect*
0 Rectangle, with rotation*
0 The origin of the aperture is its center*
0 $1 length*
0 $2 width*
0 $3 Rotation angle, in degrees counterclockwise*
0 Add horizontal line*
21,1,$1,$2,0,0,$3*%
G04 Aperture macros list end*
%TA.AperFunction,ComponentPad*%
%ADD10R,1.700000X1.700000*%
%TD*%
%TA.AperFunction,ComponentPad*%
%ADD11O,1.700000X1.700000*%
%TD*%
%TA.AperFunction,SMDPad,CuDef*%
%ADD12RoundRect,0.155000X-0.212500X-0.155000X0.212500X-0.155000X0.212500X0.155000X-0.212500X0.155000X0*%
%TD*%
%TA.AperFunction,SMDPad,CuDef*%
%ADD13RotRect,0.599440X1.348740X315.000000*%
%TD*%
%TA.AperFunction,SMDPad,CuDef*%
%ADD14RotRect,1.198880X1.998980X315.000000*%
%TD*%
%TA.AperFunction,SMDPad,CuDef*%
%ADD15RotRect,0.599440X1.348740X45.000000*%
%TD*%
%TA.AperFunction,SMDPad,CuDef*%
%ADD16RotRect,1.198880X1.998980X45.000000*%
%TD*%
%TA.AperFunction,SMDPad,CuDef*%
%ADD17RoundRect,0.150000X0.825000X0.150000X-0.825000X0.150000X-0.825000X-0.150000X0.825000X-0.150000X0*%
%TD*%
%TA.AperFunction,ViaPad*%
%ADD18C,0.800000*%
%TD*%
%TA.AperFunction,Conductor*%
%ADD19C,0.250000*%
%TD*%
G04 APERTURE END LIST*
D10*
%TO.P,J1,1,3V3*%
%TO.N,+3V3*%
X14746000Y-7373000D03*
D11*
%TO.P,J1,2,GND*%
%TO.N,GND*%
X14746000Y-7628500D03*
%TO.P,J1,3,SDA*%
%TO.N,SDA*%
X15000000Y-7373000D03*
%TO.P,J1,4,SCL*%
%TO.N,SCL*%
X15000000Y-7628500D03*
%TO.P,J1,5,IO1*%
%TO.N,LED*%
X15254000Y-7373000D03*
%TO.P,J1,6,IO2*%
%TO.N,unconnected-(J1-IO2-Pad6)*%
X15254000Y-7628500D03*
%TD*%
D12*
%TO.P,C1,1*%
%TO.N,+3V3*%
X15193250Y-8425000D03*
%TO.P,C1,2*%
%TO.N,GND*%
X15306750Y-8425000D03*
%TD*%
D13*
%TO.P,J2,1,GND*%
%TO.N,GND*%
X15624602Y-6679277D03*
%TO.P,J2,2,VCC*%
%TO.N,+3V3*%
X15695367Y-6750041D03*
%TO.P,J2,3,SDA*%
%TO.N,SDA*%
X15765772Y-6820446D03*
%TO.P,J2,4,SCL*%
%TO.N,SCL*%
X15836536Y-6891211D03*
D14*
%TO.P,J2,5*%
%TO.N,GND*%
X15792353Y-6327610D03*
%TO.P,J2,6*%
X16188203Y-6723460D03*
%TD*%
D15*
%TO.P,J3,1,GND*%
%TO.N,GND*%
X14179277Y-6875398D03*
%TO.P,J3,2,VCC*%
%TO.N,+3V3*%
X14250041Y-6804633D03*
%TO.P,J3,3,SDA*%
%TO.N,SDA*%
X14320446Y-6734228D03*
%TO.P,J3,4,SCL*%
%TO.N,SCL*%
X14391211Y-6663464D03*
D16*
%TO.P,J3,5*%
%TO.N,GND*%
X13827610Y-6707646D03*
%TO.P,J3,6*%
X14223460Y-6311797D03*
%TD*%
D17*
%TO.P,U1,1,A0*%
%TO.N,GND*%
X15247500Y-8559500D03*
%TO.P,U1,2,A1*%
X15247500Y-8686500D03*
%TO.P,U1,3,A2*%
X15247500Y-8813500D03*
%TO.P,U1,4,GND*%
X15247500Y-8940500D03*
%TO.P,U1,5,SDA*%
%TO.N,SDA*%
X14752500Y-8940500D03*
%TO.P,U1,6,SCL*%
%TO.N,SCL*%
X14752500Y-8813500D03*
%TO.P,U1,7,WP*%
%TO.N,Net-(JP1-C)*%
X14752500Y-8686500D03*
%TO.P,U1,8,VCC*%
%TO.N,+3V3*%
X14752500Y-8559500D03*
%TD*%
D18*
%TO.N,+3V3*%
X15000000Y-6525000D03*
X15280000Y-8268579D03*
%TO.N,GND*%
X16200000Y-6950000D03*
X15125000Y-7500000D03*
X16250000Y-7500000D03*
X14450000Y-6950000D03*
X15650000Y-8750000D03*
X16350000Y-7950000D03*
X15450000Y-6150000D03*
X14850000Y-8325000D03*
X14550000Y-8850000D03*
X14075000Y-6700000D03*
X14400000Y-6225000D03*
X15550000Y-6950000D03*
X15800000Y-7500000D03*
X15900000Y-8400000D03*
X15000000Y-6700000D03*
X13675000Y-6900000D03*
X14425000Y-8075000D03*
X13750000Y-8150000D03*
X14925000Y-8575000D03*
X15575000Y-8075000D03*
X14100000Y-8400000D03*
X15000000Y-6250000D03*
X14400000Y-7625000D03*
X13750000Y-7500000D03*
%TO.N,SDA*%
X13815637Y-6315512D03*
X14999958Y-9175000D03*
X16184433Y-6315625D03*
%TO.N,SCL*%
X13886277Y-6386223D03*
X15000000Y-9075000D03*
X16113693Y-6386307D03*
%TO.N,Net-(JP1-C)*%
X15000000Y-8300000D03*
%TO.N,LED*%
X16085000Y-7372500D03*
%TO.N,Net-(D5-DOUT)*%
X13700000Y-7255000D03*
X14150000Y-6997500D03*
%TD*%
D19*
%TO.N,+3V3*%
X14464606Y-6785776D02*
X14464224Y-6785776D01*
X14464224Y-6785776D02*
X14383059Y-6866941D01*
X15000000Y-6600000D02*
X15060050Y-6600000D01*
X14752500Y-8275000D02*
X14752500Y-8559500D01*
X15000000Y-6600000D02*
X14939949Y-6600000D01*
X14312348Y-6866941D02*
X14250041Y-6804633D01*
X15535394Y-6785776D02*
X15562158Y-6812540D01*
X15280000Y-8268579D02*
X15114289Y-8268579D01*
X15280000Y-8268579D02*
X15243250Y-8268579D01*
X15632868Y-6812540D02*
X15695367Y-6750041D01*
X15029289Y-8225000D02*
X14802500Y-8225000D01*
X15078934Y-8253934D02*
X15064645Y-8239645D01*
X15000000Y-6525000D02*
X15000000Y-6600000D01*
X15193250Y-8425000D02*
X15193250Y-8318579D01*
X15535395Y-6785775D02*
G75*
G03*
X15060050Y-6600000I-475715J-516195D01*
G01*
X15064645Y-8239644D02*
G75*
G03*
X15029289Y-8225000I-35355J-35356D01*
G01*
X15562155Y-6812542D02*
G75*
G03*
X15632868Y-6812540I35355J35363D01*
G01*
X14939949Y-6600001D02*
G75*
G03*
X14464606Y-6785776I371J-701969D01*
G01*
X15243250Y-8268580D02*
G75*
G03*
X15193250Y-8318579I0J-50000D01*
G01*
X15078935Y-8253933D02*
G75*
G03*
X15114289Y-8268579I35355J35353D01*
G01*
X14312345Y-6866944D02*
G75*
G03*
X14383059Y-6866941I35355J35355D01*
G01*
X14802500Y-8225000D02*
G75*
G03*
X14752500Y-8275000I0J-50000D01*
G01*
%TO.N,SDA*%
X15765772Y-6820446D02*
X15995711Y-6590507D01*
X16025000Y-6519797D02*
X16025000Y-6362500D01*
X14320446Y-6734228D02*
X14215508Y-6629289D01*
X14925000Y-9125000D02*
X14925000Y-8990500D01*
X16181308Y-6312500D02*
X16184433Y-6315625D01*
X14144797Y-6600000D02*
X14016421Y-6600000D01*
X13945711Y-6570711D02*
X13785355Y-6410355D01*
X13809488Y-6315512D02*
X13815637Y-6315512D01*
X14999958Y-9175000D02*
X14975000Y-9175000D01*
X14875000Y-8940500D02*
X14752500Y-8940500D01*
X13785355Y-6339645D02*
X13809488Y-6315512D01*
X16075000Y-6312500D02*
X16181308Y-6312500D01*
X14925000Y-8990500D02*
G75*
G03*
X14875000Y-8940500I-50000J0D01*
G01*
X13785355Y-6339645D02*
G75*
G03*
X13785355Y-6410355I35355J-35355D01*
G01*
X14215509Y-6629288D02*
G75*
G03*
X14144797Y-6600000I-70709J-70712D01*
G01*
X13945710Y-6570711D02*
G75*
G03*
X14016421Y-6600000I70710J70711D01*
G01*
X14925000Y-9125000D02*
G75*
G03*
X14975000Y-9175000I50000J0D01*
G01*
X15995712Y-6590509D02*
G75*
G03*
X16025000Y-6519797I-70712J70709D01*
G01*
X16075000Y-6312500D02*
G75*
G03*
X16025000Y-6362500I0J-50000D01*
G01*
%TO.N,SCL*%
X14391211Y-6663464D02*
X14282036Y-6554289D01*
X14950000Y-8813500D02*
X14752500Y-8813500D01*
X15000000Y-9075000D02*
X15000000Y-8863500D01*
X13886277Y-6386277D02*
X13886277Y-6386223D01*
X14211326Y-6525000D02*
X14066421Y-6525000D01*
X13995711Y-6495711D02*
X13886277Y-6386277D01*
X15836536Y-6891211D02*
X16084404Y-6643343D01*
X16113693Y-6572632D02*
X16113693Y-6386307D01*
X16084403Y-6643342D02*
G75*
G03*
X16113693Y-6572632I-70713J70713D01*
G01*
X15000000Y-8863500D02*
G75*
G03*
X14950000Y-8813500I-50000J0D01*
G01*
X13995710Y-6495711D02*
G75*
G03*
X14066421Y-6525000I70710J70711D01*
G01*
X14282038Y-6554287D02*
G75*
G03*
X14211326Y-6525000I-70709J-70713D01*
G01*
%TO.N,Net-(JP1-C)*%
X14900000Y-8686500D02*
X14752500Y-8686500D01*
X15000000Y-8300000D02*
X15000000Y-8586500D01*
X14900000Y-8686500D02*
G75*
G03*
X15000000Y-8586500I0J100000D01*
G01*
%TO.N,LED*%
X15254000Y-7373000D02*
X16084500Y-7373000D01*
X16084500Y-7373000D02*
X16085000Y-7372500D01*
%TO.N,Net-(D5-DOUT)*%
X13700000Y-7255000D02*
X13900000Y-7255000D01*
X14150000Y-7005000D02*
X14150000Y-6997500D01*
X13900000Y-7255000D02*
G75*
G03*
X14150000Y-7005000I0J250000D01*
G01*
%TD*%
%TA.AperFunction,Conductor*%
%TO.N,GND*%
G36*
X14933371Y-8264518D02*
G01*
X14937947Y-8269799D01*
X14938941Y-8276715D01*
X14938262Y-8279347D01*
X14937614Y-8281055D01*
X14936376Y-8284318D01*
X14934472Y-8300000D01*
X14934472Y-8300000D01*
X14936376Y-8315682D01*
X14941978Y-8330452D01*
X14941978Y-8330452D01*
X14950952Y-8343453D01*
X14958273Y-8349939D01*
X14961985Y-8355857D01*
X14962450Y-8359220D01*
X14962450Y-8586152D01*
X14962411Y-8586846D01*
X14961792Y-8592340D01*
X14961041Y-8599008D01*
X14960423Y-8601715D01*
X14956727Y-8612277D01*
X14955522Y-8614779D01*
X14949568Y-8624254D01*
X14947837Y-8626425D01*
X14939925Y-8634337D01*
X14937754Y-8636069D01*
X14928279Y-8642022D01*
X14925777Y-8643227D01*
X14915215Y-8646923D01*
X14912508Y-8647541D01*
X14905840Y-8648292D01*
X14900346Y-8648911D01*
X14899652Y-8648950D01*
X14874225Y-8648950D01*
X14867521Y-8646982D01*
X14865458Y-8645319D01*
X14858834Y-8638695D01*
X14858560Y-8638555D01*
X14849715Y-8634048D01*
X14844635Y-8629251D01*
X14842956Y-8622469D01*
X14845209Y-8615855D01*
X14849714Y-8611952D01*
X14858834Y-8607305D01*
X14867805Y-8598334D01*
X14873565Y-8587030D01*
X14873565Y-8587030D01*
X14873565Y-8587030D01*
X14875050Y-8577652D01*
X14875050Y-8577652D01*
X14875050Y-8541348D01*
X14873565Y-8531970D01*
X14867805Y-8520666D01*
X14867805Y-8520665D01*
X14867804Y-8520665D01*
X14858835Y-8511695D01*
X14858834Y-8511695D01*
X14858834Y-8511695D01*
X14848985Y-8506677D01*
X14847530Y-8505935D01*
X14838152Y-8504450D01*
X14838152Y-8504450D01*
X14802450Y-8504450D01*
X14795746Y-8502482D01*
X14791171Y-8497201D01*
X14790050Y-8492050D01*
X14790050Y-8276221D01*
X14790288Y-8273803D01*
X14790499Y-8272742D01*
X14793737Y-8266551D01*
X14799808Y-8263093D01*
X14800234Y-8263001D01*
X14801304Y-8262788D01*
X14803721Y-8262550D01*
X14926667Y-8262550D01*
X14933371Y-8264518D01*
G37*
%TD.AperFunction*%
%TA.AperFunction,Conductor*%
G36*
X15033194Y-5700548D02*
G01*
X15070333Y-5701865D01*
X15117595Y-5704083D01*
X15117794Y-5704096D01*
X15154740Y-5707157D01*
X15201939Y-5711596D01*
X15202157Y-5711621D01*
X15238801Y-5716408D01*
X15285851Y-5723071D01*
X15286060Y-5723104D01*
X15322313Y-5729595D01*
X15369119Y-5738478D01*
X15369340Y-5738524D01*
X15383885Y-5741844D01*
X15405109Y-5746688D01*
X15430131Y-5752664D01*
X15451581Y-5757787D01*
X15451801Y-5757844D01*
X15481092Y-5766003D01*
X15487003Y-5767649D01*
X15533036Y-5780953D01*
X15533255Y-5781021D01*
X15567811Y-5792429D01*
X15613314Y-5807925D01*
X15613533Y-5808004D01*
X15647354Y-5820972D01*
X15667353Y-5828846D01*
X15692237Y-5838644D01*
X15692455Y-5838736D01*
X15707642Y-5845397D01*
X15725460Y-5853213D01*
X15769623Y-5873041D01*
X15769840Y-5873143D01*
X15801945Y-5889074D01*
X15827947Y-5902246D01*
X15845312Y-5911043D01*
X15845526Y-5911156D01*
X15876658Y-5928483D01*
X15919125Y-5952561D01*
X15919335Y-5952685D01*
X15949410Y-5971336D01*
X15990908Y-5997508D01*
X15991114Y-5997643D01*
X16020047Y-6017537D01*
X16060496Y-6045781D01*
X16060696Y-6045927D01*
X16075273Y-6056998D01*
X16088422Y-6066985D01*
X16127737Y-6097275D01*
X16127930Y-6097431D01*
X16154391Y-6119575D01*
X16192483Y-6151877D01*
X16192665Y-6152039D01*
X16201312Y-6159998D01*
X16217784Y-6175161D01*
X16248620Y-6203902D01*
X16254585Y-6209461D01*
X16254767Y-6209638D01*
X16278463Y-6233615D01*
X16313298Y-6269277D01*
X16313910Y-6269904D01*
X16314086Y-6270091D01*
X16336312Y-6294815D01*
X16370329Y-6333073D01*
X16370496Y-6333268D01*
X16391204Y-6358616D01*
X16414857Y-6387871D01*
X16423711Y-6398823D01*
X16423871Y-6399030D01*
X16442999Y-6424841D01*
X16447379Y-6430810D01*
X16473943Y-6467014D01*
X16474094Y-6467229D01*
X16488781Y-6489139D01*
X16491585Y-6493323D01*
X16520912Y-6537494D01*
X16521055Y-6537718D01*
X16536863Y-6563896D01*
X16564513Y-6610104D01*
X16564646Y-6610337D01*
X16578733Y-6636367D01*
X16604652Y-6684687D01*
X16604773Y-6684926D01*
X16617092Y-6710508D01*
X16641236Y-6761075D01*
X16641348Y-6761323D01*
X16645247Y-6770505D01*
X16651868Y-6786098D01*
X16652958Y-6788687D01*
X16674187Y-6839100D01*
X16674288Y-6839355D01*
X16682963Y-6862805D01*
X16689595Y-6880880D01*
X16703430Y-6918587D01*
X16703520Y-6918849D01*
X16710347Y-6940380D01*
X16728903Y-6999365D01*
X16728981Y-6999632D01*
X16733914Y-7018188D01*
X16750547Y-7081252D01*
X16750613Y-7081525D01*
X16753637Y-7095535D01*
X16768316Y-7164066D01*
X16768369Y-7164344D01*
X16769475Y-7170974D01*
X16782147Y-7247495D01*
X16782188Y-7247783D01*
X16792024Y-7331307D01*
X16792051Y-7331596D01*
X16793538Y-7352692D01*
X16797961Y-7415486D01*
X16797975Y-7415776D01*
X16799947Y-7499855D01*
X16799947Y-7500145D01*
X16797975Y-7584223D01*
X16797961Y-7584514D01*
X16792051Y-7668404D01*
X16792024Y-7668693D01*
X16782188Y-7752217D01*
X16782147Y-7752505D01*
X16769475Y-7829025D01*
X16768369Y-7835656D01*
X16768316Y-7835934D01*
X16753637Y-7904464D01*
X16750613Y-7918475D01*
X16750547Y-7918748D01*
X16733914Y-7981811D01*
X16728981Y-8000367D01*
X16728903Y-8000635D01*
X16710347Y-8059620D01*
X16703520Y-8081151D01*
X16703430Y-8081413D01*
X16682969Y-8137178D01*
X16674288Y-8160644D01*
X16674187Y-8160899D01*
X16651864Y-8213912D01*
X16641348Y-8238677D01*
X16641236Y-8238925D01*
X16617092Y-8289492D01*
X16604773Y-8315074D01*
X16604650Y-8315315D01*
X16596531Y-8330452D01*
X16582112Y-8357333D01*
X16578741Y-8363617D01*
X16564646Y-8389663D01*
X16564513Y-8389896D01*
X16536863Y-8436104D01*
X16521055Y-8462281D01*
X16520912Y-8462506D01*
X16491585Y-8506677D01*
X16474094Y-8532770D01*
X16473943Y-8532986D01*
X16443002Y-8575156D01*
X16423871Y-8600970D01*
X16423711Y-8601177D01*
X16391201Y-8641388D01*
X16370497Y-8666730D01*
X16370329Y-8666927D01*
X16336312Y-8705185D01*
X16314086Y-8729909D01*
X16313910Y-8730096D01*
X16278466Y-8766381D01*
X16254767Y-8790361D01*
X16254585Y-8790539D01*
X16217784Y-8824838D01*
X16192668Y-8847959D01*
X16192478Y-8848127D01*
X16154392Y-8880425D01*
X16127930Y-8902569D01*
X16127735Y-8902726D01*
X16088426Y-8933011D01*
X16060697Y-8954072D01*
X16060496Y-8954218D01*
X16020055Y-8982458D01*
X15991114Y-9002357D01*
X15990908Y-9002492D01*
X15949410Y-9028664D01*
X15919335Y-9047315D01*
X15919125Y-9047439D01*
X15876658Y-9071517D01*
X15845526Y-9088843D01*
X15845312Y-9088957D01*
X15801943Y-9110927D01*
X15769840Y-9126857D01*
X15769623Y-9126959D01*
X15725466Y-9146785D01*
X15692455Y-9161264D01*
X15692237Y-9161355D01*
X15647358Y-9179027D01*
X15613533Y-9191996D01*
X15613312Y-9192076D01*
X15567821Y-9207567D01*
X15533256Y-9218979D01*
X15533034Y-9219048D01*
X15487003Y-9232351D01*
X15451802Y-9242155D01*
X15451579Y-9242213D01*
X15405109Y-9253312D01*
X15369341Y-9261476D01*
X15369117Y-9261522D01*
X15322318Y-9270404D01*
X15286067Y-9276894D01*
X15285844Y-9276930D01*
X15238803Y-9283591D01*
X15202159Y-9288379D01*
X15201936Y-9288404D01*
X15154745Y-9292843D01*
X15133591Y-9294595D01*
X15117806Y-9295903D01*
X15117585Y-9295918D01*
X15070335Y-9298135D01*
X15035367Y-9299374D01*
X15033194Y-9299451D01*
X15032975Y-9299455D01*
X14985766Y-9299455D01*
X14970383Y-9299274D01*
X14948509Y-9299015D01*
X14948291Y-9299009D01*
X14901230Y-9296801D01*
X14863932Y-9294595D01*
X14863717Y-9294579D01*
X14816906Y-9290176D01*
X14779662Y-9286202D01*
X14779452Y-9286176D01*
X14768985Y-9284694D01*
X14732970Y-9279594D01*
X14695882Y-9273855D01*
X14695675Y-9273819D01*
X14649629Y-9265080D01*
X14612775Y-9257579D01*
X14612571Y-9257534D01*
X14567050Y-9246662D01*
X14530526Y-9237413D01*
X14530326Y-9237359D01*
X14485425Y-9224382D01*
X14449317Y-9213400D01*
X14449122Y-9213337D01*
X14424387Y-9204914D01*
X14404939Y-9198291D01*
X14369328Y-9185594D01*
X14369139Y-9185523D01*
X14325761Y-9168442D01*
X14290734Y-9154055D01*
X14290554Y-9153977D01*
X14248075Y-9134905D01*
X14213713Y-9118855D01*
X14213535Y-9118768D01*
X14172043Y-9097749D01*
X14138436Y-9080072D01*
X14138264Y-9079978D01*
X14097842Y-9057059D01*
X14076560Y-9044548D01*
X14065063Y-9037788D01*
X14064899Y-9037689D01*
X14025634Y-9012925D01*
X13993761Y-8992102D01*
X13993605Y-8991996D01*
X13955577Y-8965442D01*
X13946184Y-8958652D01*
X14629950Y-8958652D01*
X14630949Y-8964963D01*
X14631435Y-8968030D01*
X14637195Y-8979334D01*
X14637195Y-8979334D01*
X14637195Y-8979335D01*
X14646165Y-8988305D01*
X14646165Y-8988305D01*
X14646166Y-8988305D01*
X14657469Y-8994065D01*
X14657470Y-8994065D01*
X14666847Y-8995550D01*
X14666848Y-8995550D01*
X14838152Y-8995550D01*
X14847530Y-8994065D01*
X14858834Y-8988305D01*
X14865383Y-8981756D01*
X14871515Y-8978407D01*
X14876569Y-8978362D01*
X14877258Y-8978499D01*
X14883449Y-8981737D01*
X14886907Y-8987809D01*
X14887000Y-8988238D01*
X14887212Y-8989303D01*
X14887450Y-8991721D01*
X14887450Y-9128414D01*
X14887450Y-9128416D01*
X14887450Y-9133623D01*
X14890814Y-9150537D01*
X14890815Y-9150538D01*
X14897414Y-9166470D01*
X14897415Y-9166471D01*
X14906995Y-9180810D01*
X14906996Y-9180810D01*
X14919190Y-9193004D01*
X14919190Y-9193004D01*
X14933529Y-9202585D01*
X14933529Y-9202585D01*
X14933530Y-9202586D01*
X14939151Y-9204914D01*
X14944591Y-9209298D01*
X14950910Y-9218453D01*
X14962734Y-9228928D01*
X14962735Y-9228928D01*
X14976722Y-9236270D01*
X14992060Y-9240050D01*
X15007857Y-9240050D01*
X15023195Y-9236270D01*
X15030662Y-9232351D01*
X15037182Y-9228928D01*
X15049007Y-9218453D01*
X15057980Y-9205452D01*
X15063582Y-9190682D01*
X15065486Y-9175000D01*
X15064451Y-9166470D01*
X15063582Y-9159318D01*
X15060252Y-9150537D01*
X15057980Y-9144548D01*
X15049370Y-9132074D01*
X15047182Y-9125439D01*
X15048929Y-9118673D01*
X15049371Y-9117986D01*
X15058022Y-9105452D01*
X15063624Y-9090682D01*
X15065528Y-9075000D01*
X15063624Y-9059318D01*
X15058022Y-9044548D01*
X15049048Y-9031547D01*
X15049048Y-9031547D01*
X15041727Y-9025061D01*
X15038015Y-9019142D01*
X15037550Y-9015780D01*
X15037550Y-8965500D01*
X15100270Y-8965500D01*
X15100290Y-8965749D01*
X15104872Y-8981520D01*
X15113231Y-8995655D01*
X15113232Y-8995656D01*
X15124844Y-9007268D01*
X15124845Y-9007269D01*
X15138980Y-9015628D01*
X15138981Y-9015628D01*
X15154750Y-9020210D01*
X15154751Y-9020210D01*
X15158435Y-9020500D01*
X15158437Y-9020500D01*
X15222500Y-9020500D01*
X15222500Y-8965500D01*
X15272500Y-8965500D01*
X15272500Y-9020500D01*
X15336563Y-9020500D01*
X15336565Y-9020500D01*
X15340249Y-9020210D01*
X15340249Y-9020210D01*
X15356019Y-9015628D01*
X15356020Y-9015628D01*
X15370155Y-9007269D01*
X15370156Y-9007268D01*
X15381768Y-8995656D01*
X15381768Y-8995655D01*
X15390128Y-8981520D01*
X15394710Y-8965749D01*
X15394729Y-8965500D01*
X15394729Y-8965500D01*
X15272500Y-8965500D01*
X15222500Y-8965500D01*
X15100270Y-8965500D01*
X15100270Y-8965500D01*
X15037550Y-8965500D01*
X15037550Y-8915500D01*
X15100270Y-8915500D01*
X15100270Y-8915500D01*
X15222500Y-8915500D01*
X15222500Y-8838500D01*
X15272500Y-8838500D01*
X15272500Y-8915500D01*
X15394729Y-8915500D01*
X15394729Y-8915500D01*
X15394710Y-8915251D01*
X15390128Y-8899480D01*
X15381768Y-8885345D01*
X15381290Y-8884728D01*
X15381525Y-8884545D01*
X15378844Y-8879641D01*
X15379340Y-8872671D01*
X15381446Y-8869394D01*
X15381290Y-8869272D01*
X15381768Y-8868655D01*
X15390128Y-8854520D01*
X15394710Y-8838749D01*
X15394729Y-8838500D01*
X15394729Y-8838500D01*
X15272500Y-8838500D01*
X15222500Y-8838500D01*
X15100270Y-8838500D01*
X15100270Y-8838500D01*
X15100290Y-8838749D01*
X15104872Y-8854520D01*
X15113231Y-8868655D01*
X15113710Y-8869272D01*
X15113475Y-8869454D01*
X15116156Y-8874364D01*
X15115658Y-8881333D01*
X15113554Y-8884607D01*
X15113710Y-8884728D01*
X15113231Y-8885345D01*
X15104872Y-8899480D01*
X15100290Y-8915251D01*
X15100270Y-8915500D01*
X15037550Y-8915500D01*
X15037550Y-8854877D01*
X15037550Y-8854877D01*
X15037044Y-8852334D01*
X15034185Y-8837963D01*
X15031571Y-8831652D01*
X15027586Y-8822030D01*
X15027585Y-8822029D01*
X15018004Y-8807690D01*
X15018004Y-8807690D01*
X15005810Y-8795496D01*
X15005810Y-8795495D01*
X14995340Y-8788500D01*
X15100270Y-8788500D01*
X15100270Y-8788500D01*
X15222500Y-8788500D01*
X15222500Y-8711500D01*
X15272500Y-8711500D01*
X15272500Y-8788500D01*
X15394729Y-8788500D01*
X15394729Y-8788500D01*
X15394710Y-8788251D01*
X15390128Y-8772480D01*
X15381768Y-8758345D01*
X15381290Y-8757728D01*
X15381525Y-8757545D01*
X15378844Y-8752641D01*
X15379340Y-8745671D01*
X15381446Y-8742394D01*
X15381290Y-8742272D01*
X15381768Y-8741655D01*
X15390128Y-8727520D01*
X15394710Y-8711749D01*
X15394729Y-8711500D01*
X15394729Y-8711500D01*
X15272500Y-8711500D01*
X15222500Y-8711500D01*
X15100270Y-8711500D01*
X15100270Y-8711500D01*
X15100290Y-8711749D01*
X15104872Y-8727520D01*
X15113231Y-8741655D01*
X15113710Y-8742272D01*
X15113475Y-8742454D01*
X15116156Y-8747364D01*
X15115658Y-8754333D01*
X15113554Y-8757607D01*
X15113710Y-8757728D01*
X15113231Y-8758345D01*
X15104872Y-8772480D01*
X15100290Y-8788251D01*
X15100270Y-8788500D01*
X14995340Y-8788500D01*
X14991471Y-8785915D01*
X14991470Y-8785914D01*
X14975538Y-8779315D01*
X14975537Y-8779314D01*
X14958623Y-8775950D01*
X14958623Y-8775950D01*
X14956266Y-8775950D01*
X14874225Y-8775950D01*
X14867521Y-8773982D01*
X14865458Y-8772319D01*
X14858834Y-8765695D01*
X14858560Y-8765555D01*
X14849715Y-8761048D01*
X14844635Y-8756251D01*
X14842956Y-8749469D01*
X14845209Y-8742855D01*
X14849714Y-8738952D01*
X14858834Y-8734305D01*
X14865457Y-8727682D01*
X14871589Y-8724333D01*
X14874225Y-8724050D01*
X14910825Y-8724050D01*
X14910825Y-8724050D01*
X14932210Y-8720663D01*
X14952801Y-8713973D01*
X14972092Y-8704143D01*
X14989608Y-8691417D01*
X15004917Y-8676108D01*
X15015531Y-8661500D01*
X15100270Y-8661500D01*
X15100270Y-8661500D01*
X15222500Y-8661500D01*
X15222500Y-8584500D01*
X15272500Y-8584500D01*
X15272500Y-8661500D01*
X15394729Y-8661500D01*
X15394729Y-8661500D01*
X15394710Y-8661251D01*
X15390128Y-8645480D01*
X15381768Y-8631345D01*
X15381290Y-8630728D01*
X15381525Y-8630545D01*
X15378844Y-8625641D01*
X15379340Y-8618671D01*
X15381446Y-8615394D01*
X15381290Y-8615272D01*
X15381768Y-8614655D01*
X15390128Y-8600520D01*
X15394710Y-8584749D01*
X15394729Y-8584500D01*
X15394729Y-8584500D01*
X15272500Y-8584500D01*
X15222500Y-8584500D01*
X15100270Y-8584500D01*
X15100270Y-8584500D01*
X15100290Y-8584749D01*
X15104872Y-8600520D01*
X15113231Y-8614655D01*
X15113710Y-8615272D01*
X15113475Y-8615454D01*
X15116156Y-8620364D01*
X15115658Y-8627333D01*
X15113554Y-8630607D01*
X15113710Y-8630728D01*
X15113231Y-8631345D01*
X15104872Y-8645480D01*
X15100290Y-8661251D01*
X15100270Y-8661500D01*
X15015531Y-8661500D01*
X15017643Y-8658592D01*
X15027473Y-8639301D01*
X15034163Y-8618710D01*
X15037550Y-8597325D01*
X15037550Y-8586500D01*
X15037550Y-8581101D01*
X15037550Y-8359220D01*
X15039518Y-8352516D01*
X15041727Y-8349939D01*
X15049048Y-8343453D01*
X15049048Y-8343453D01*
X15058022Y-8330452D01*
X15063624Y-8315682D01*
X15064321Y-8309941D01*
X15067083Y-8303523D01*
X15072876Y-8299617D01*
X15079861Y-8299464D01*
X15080462Y-8299642D01*
X15080680Y-8299713D01*
X15080681Y-8299714D01*
X15093787Y-8303972D01*
X15107398Y-8306128D01*
X15107399Y-8306128D01*
X15107399Y-8306129D01*
X15108023Y-8306129D01*
X15114289Y-8306129D01*
X15119688Y-8306129D01*
X15143300Y-8306129D01*
X15150004Y-8308097D01*
X15154579Y-8313377D01*
X15155700Y-8318529D01*
X15155700Y-8318577D01*
X15155700Y-8324975D01*
X15155700Y-8324976D01*
X15155700Y-8364696D01*
X15153731Y-8371400D01*
X15148930Y-8375744D01*
X15147868Y-8376285D01*
X15147868Y-8376286D01*
X15138786Y-8385368D01*
X15138785Y-8385368D01*
X15132954Y-8396814D01*
X15131450Y-8406308D01*
X15131450Y-8443692D01*
X15131450Y-8443692D01*
X15132954Y-8453186D01*
X15132954Y-8453187D01*
X15132954Y-8453187D01*
X15138785Y-8464632D01*
X15138785Y-8464632D01*
X15138786Y-8464632D01*
X15139958Y-8465805D01*
X15143307Y-8471937D01*
X15142808Y-8478906D01*
X15138621Y-8484499D01*
X15137502Y-8485246D01*
X15124845Y-8492731D01*
X15124844Y-8492732D01*
X15113232Y-8504344D01*
X15113231Y-8504345D01*
X15104872Y-8518480D01*
X15100290Y-8534251D01*
X15100270Y-8534500D01*
X15100270Y-8534500D01*
X15394729Y-8534500D01*
X15394729Y-8534500D01*
X15394710Y-8534251D01*
X15390128Y-8518480D01*
X15381768Y-8504345D01*
X15381768Y-8504344D01*
X15378046Y-8500622D01*
X15374697Y-8494490D01*
X15375195Y-8487520D01*
X15378046Y-8483085D01*
X15380166Y-8480964D01*
X15380167Y-8480964D01*
X15388591Y-8466720D01*
X15388591Y-8466719D01*
X15393208Y-8450828D01*
X15393273Y-8450000D01*
X15294150Y-8450000D01*
X15287446Y-8448032D01*
X15282871Y-8442751D01*
X15281750Y-8437600D01*
X15281750Y-8412400D01*
X15283718Y-8405696D01*
X15288999Y-8401121D01*
X15294150Y-8400000D01*
X15393273Y-8400000D01*
X15393208Y-8399172D01*
X15388591Y-8383280D01*
X15388591Y-8383280D01*
X15380167Y-8369036D01*
X15380166Y-8369035D01*
X15368465Y-8357334D01*
X15368464Y-8357333D01*
X15354220Y-8348909D01*
X15354219Y-8348909D01*
X15338328Y-8344292D01*
X15338328Y-8344292D01*
X15334616Y-8344000D01*
X15325659Y-8344000D01*
X15318955Y-8342031D01*
X15314380Y-8336751D01*
X15313386Y-8329835D01*
X15316288Y-8323480D01*
X15317436Y-8322319D01*
X15329048Y-8312032D01*
X15338022Y-8299031D01*
X15343624Y-8284260D01*
X15345528Y-8268579D01*
X15345282Y-8266551D01*
X15343624Y-8252897D01*
X15341499Y-8247295D01*
X15338022Y-8238126D01*
X15329048Y-8225126D01*
X15317224Y-8214650D01*
X15317224Y-8214650D01*
X15317224Y-8214650D01*
X15303236Y-8207309D01*
X15287899Y-8203529D01*
X15287898Y-8203529D01*
X15272101Y-8203529D01*
X15272101Y-8203529D01*
X15256763Y-8207309D01*
X15242776Y-8214650D01*
X15230952Y-8225126D01*
X15230709Y-8225477D01*
X15230574Y-8225672D01*
X15225146Y-8230071D01*
X15220369Y-8231029D01*
X15114696Y-8231029D01*
X15113887Y-8230975D01*
X15113226Y-8230888D01*
X15112694Y-8230818D01*
X15106763Y-8228362D01*
X15105804Y-8227625D01*
X15105194Y-8227090D01*
X15100963Y-8222859D01*
X15100961Y-8222858D01*
X15095198Y-8217095D01*
X15095197Y-8217092D01*
X15086325Y-8208220D01*
X15086324Y-8208220D01*
X15085070Y-8207309D01*
X15079867Y-8203529D01*
X15075175Y-8200120D01*
X15075174Y-8200119D01*
X15062896Y-8193864D01*
X15062896Y-8193863D01*
X15049790Y-8189605D01*
X15042985Y-8188528D01*
X15036179Y-8187450D01*
X15036179Y-8187450D01*
X15029289Y-8187450D01*
X14793877Y-8187450D01*
X14776963Y-8190814D01*
X14776962Y-8190815D01*
X14761030Y-8197414D01*
X14761029Y-8197414D01*
X14746690Y-8206995D01*
X14746690Y-8206996D01*
X14734496Y-8219190D01*
X14734495Y-8219190D01*
X14724914Y-8233529D01*
X14724914Y-8233530D01*
X14718315Y-8249462D01*
X14718314Y-8249463D01*
X14714950Y-8266377D01*
X14714950Y-8492050D01*
X14712981Y-8498754D01*
X14707701Y-8503329D01*
X14702550Y-8504450D01*
X14666848Y-8504450D01*
X14658752Y-8505732D01*
X14657470Y-8505935D01*
X14646166Y-8511695D01*
X14646166Y-8511695D01*
X14646166Y-8511695D01*
X14646165Y-8511695D01*
X14637195Y-8520665D01*
X14637195Y-8520666D01*
X14631435Y-8531970D01*
X14629950Y-8541348D01*
X14629950Y-8577652D01*
X14631029Y-8584466D01*
X14631435Y-8587030D01*
X14637195Y-8598334D01*
X14637195Y-8598334D01*
X14637195Y-8598335D01*
X14646165Y-8607305D01*
X14646165Y-8607305D01*
X14646166Y-8607305D01*
X14655285Y-8611952D01*
X14660365Y-8616749D01*
X14662044Y-8623531D01*
X14659790Y-8630145D01*
X14655285Y-8634048D01*
X14646166Y-8638695D01*
X14646166Y-8638695D01*
X14646166Y-8638695D01*
X14646165Y-8638695D01*
X14637195Y-8647665D01*
X14637195Y-8647666D01*
X14637195Y-8647666D01*
X14636541Y-8648950D01*
X14631435Y-8658970D01*
X14629950Y-8668348D01*
X14629950Y-8704652D01*
X14631029Y-8711466D01*
X14631435Y-8714030D01*
X14637195Y-8725334D01*
X14637195Y-8725334D01*
X14637195Y-8725335D01*
X14646165Y-8734305D01*
X14646165Y-8734305D01*
X14646166Y-8734305D01*
X14655285Y-8738952D01*
X14660365Y-8743749D01*
X14662044Y-8750531D01*
X14659790Y-8757145D01*
X14655285Y-8761048D01*
X14646166Y-8765695D01*
X14646166Y-8765695D01*
X14646165Y-8765695D01*
X14637195Y-8774665D01*
X14637195Y-8774666D01*
X14631435Y-8785970D01*
X14629950Y-8795348D01*
X14629950Y-8831652D01*
X14630566Y-8835543D01*
X14631435Y-8841030D01*
X14637195Y-8852334D01*
X14637195Y-8852334D01*
X14637195Y-8852335D01*
X14646165Y-8861305D01*
X14646165Y-8861305D01*
X14646166Y-8861305D01*
X14655285Y-8865952D01*
X14660365Y-8870749D01*
X14662044Y-8877531D01*
X14659790Y-8884145D01*
X14655285Y-8888048D01*
X14646166Y-8892695D01*
X14646166Y-8892695D01*
X14646166Y-8892695D01*
X14646165Y-8892695D01*
X14637195Y-8901665D01*
X14637195Y-8901666D01*
X14637195Y-8901666D01*
X14636541Y-8902950D01*
X14631435Y-8912970D01*
X14629950Y-8922348D01*
X14629950Y-8958652D01*
X13946184Y-8958652D01*
X13940052Y-8954218D01*
X13924688Y-8943111D01*
X13924546Y-8943006D01*
X13906278Y-8928931D01*
X13887828Y-8914716D01*
X13857999Y-8890929D01*
X13857855Y-8890810D01*
X13831605Y-8868550D01*
X13822540Y-8860863D01*
X13793838Y-8835667D01*
X13793701Y-8835543D01*
X13789526Y-8831652D01*
X13759850Y-8803992D01*
X13732350Y-8777450D01*
X13732220Y-8777321D01*
X13699904Y-8744238D01*
X13673664Y-8716401D01*
X13673545Y-8716271D01*
X13642830Y-8681727D01*
X13638014Y-8676108D01*
X13617915Y-8652659D01*
X13617810Y-8652533D01*
X13588760Y-8616603D01*
X13565231Y-8586373D01*
X13565127Y-8586235D01*
X13537813Y-8549008D01*
X13515723Y-8517679D01*
X13515624Y-8517536D01*
X13490097Y-8479088D01*
X13489981Y-8478906D01*
X13469497Y-8446729D01*
X13469410Y-8446587D01*
X13467677Y-8443692D01*
X13445723Y-8407003D01*
X13426661Y-8373685D01*
X13426587Y-8373550D01*
X13404785Y-8332905D01*
X13387312Y-8298713D01*
X13387241Y-8298569D01*
X13367406Y-8257025D01*
X13367353Y-8256911D01*
X13363980Y-8249462D01*
X13351530Y-8221966D01*
X13351471Y-8221833D01*
X13333607Y-8179409D01*
X13333559Y-8179291D01*
X13319403Y-8143636D01*
X13319345Y-8143484D01*
X13315782Y-8133775D01*
X13303493Y-8100283D01*
X13303456Y-8100177D01*
X13290990Y-8063864D01*
X13290944Y-8063724D01*
X13277135Y-8019828D01*
X13277104Y-8019728D01*
X13266363Y-7982855D01*
X13266325Y-7982716D01*
X13254593Y-7938238D01*
X13254562Y-7938114D01*
X13249835Y-7918475D01*
X13245574Y-7900774D01*
X13245542Y-7900634D01*
X13235910Y-7855664D01*
X13235886Y-7855547D01*
X13228669Y-7817812D01*
X13228644Y-7817669D01*
X13221132Y-7772307D01*
X13221113Y-7772186D01*
X13215686Y-7734147D01*
X13215666Y-7733999D01*
X13215468Y-7732310D01*
X13210290Y-7688347D01*
X13210276Y-7688208D01*
X13210131Y-7686682D01*
X13206986Y-7653500D01*
X14612936Y-7653500D01*
X14618657Y-7674849D01*
X14618657Y-7674849D01*
X14628640Y-7696258D01*
X14642189Y-7715608D01*
X14658892Y-7732310D01*
X14678242Y-7745860D01*
X14699651Y-7755843D01*
X14699652Y-7755843D01*
X14721000Y-7761563D01*
X14721000Y-7672050D01*
X14731768Y-7676968D01*
X14742424Y-7678500D01*
X14749576Y-7678500D01*
X14760231Y-7676968D01*
X14771000Y-7672050D01*
X14771000Y-7761563D01*
X14792348Y-7755843D01*
X14792349Y-7755843D01*
X14813758Y-7745860D01*
X14833108Y-7732310D01*
X14849810Y-7715608D01*
X14863360Y-7696258D01*
X14873343Y-7674849D01*
X14873343Y-7674849D01*
X14874241Y-7671499D01*
X14877877Y-7665533D01*
X14884162Y-7662480D01*
X14891099Y-7663309D01*
X14896487Y-7667758D01*
X14897318Y-7669181D01*
X14906033Y-7686682D01*
X14918324Y-7702958D01*
X14933396Y-7716698D01*
X14933396Y-7716698D01*
X14943314Y-7722839D01*
X14950736Y-7727435D01*
X14969754Y-7734802D01*
X14989802Y-7738550D01*
X15010197Y-7738550D01*
X15010198Y-7738550D01*
X15030246Y-7734802D01*
X15049264Y-7727435D01*
X15066604Y-7716698D01*
X15081676Y-7702958D01*
X15093967Y-7686682D01*
X15103058Y-7668425D01*
X15108640Y-7648808D01*
X15110521Y-7628500D01*
X15143478Y-7628500D01*
X15145360Y-7648808D01*
X15150942Y-7668425D01*
X15150942Y-7668426D01*
X15160033Y-7686682D01*
X15172324Y-7702958D01*
X15187396Y-7716698D01*
X15187396Y-7716698D01*
X15197314Y-7722839D01*
X15204736Y-7727435D01*
X15223754Y-7734802D01*
X15243802Y-7738550D01*
X15264197Y-7738550D01*
X15264198Y-7738550D01*
X15284246Y-7734802D01*
X15303264Y-7727435D01*
X15320604Y-7716698D01*
X15335676Y-7702958D01*
X15347967Y-7686682D01*
X15357058Y-7668425D01*
X15362640Y-7648808D01*
X15364521Y-7628500D01*
X15362640Y-7608192D01*
X15357058Y-7588575D01*
X15355527Y-7585501D01*
X15352041Y-7578500D01*
X15347967Y-7570318D01*
X15335676Y-7554042D01*
X15335676Y-7554042D01*
X15320604Y-7540302D01*
X15320604Y-7540302D01*
X15303264Y-7529565D01*
X15303263Y-7529565D01*
X15290677Y-7524689D01*
X15284246Y-7522198D01*
X15264198Y-7518450D01*
X15264197Y-7518450D01*
X15243803Y-7518450D01*
X15243802Y-7518450D01*
X15223754Y-7522198D01*
X15223754Y-7522198D01*
X15223754Y-7522198D01*
X15204736Y-7529565D01*
X15204736Y-7529565D01*
X15187396Y-7540302D01*
X15187396Y-7540302D01*
X15172324Y-7554042D01*
X15160033Y-7570318D01*
X15150942Y-7588574D01*
X15150942Y-7588575D01*
X15145360Y-7608192D01*
X15143478Y-7628500D01*
X15143478Y-7628500D01*
X15110521Y-7628500D01*
X15108640Y-7608192D01*
X15103058Y-7588575D01*
X15101527Y-7585501D01*
X15098041Y-7578500D01*
X15093967Y-7570318D01*
X15081676Y-7554042D01*
X15081676Y-7554042D01*
X15066604Y-7540302D01*
X15066604Y-7540302D01*
X15049264Y-7529565D01*
X15049263Y-7529565D01*
X15036677Y-7524689D01*
X15030246Y-7522198D01*
X15010198Y-7518450D01*
X15010197Y-7518450D01*
X14989803Y-7518450D01*
X14989802Y-7518450D01*
X14969754Y-7522198D01*
X14969754Y-7522198D01*
X14969754Y-7522198D01*
X14950736Y-7529565D01*
X14950736Y-7529565D01*
X14933396Y-7540302D01*
X14933396Y-7540302D01*
X14918324Y-7554042D01*
X14906033Y-7570318D01*
X14897318Y-7587819D01*
X14892568Y-7592942D01*
X14885802Y-7594685D01*
X14879168Y-7592492D01*
X14874772Y-7587061D01*
X14874241Y-7585501D01*
X14873343Y-7582152D01*
X14873343Y-7582151D01*
X14863360Y-7560742D01*
X14863360Y-7560742D01*
X14849811Y-7541393D01*
X14849811Y-7541392D01*
X14833108Y-7524689D01*
X14813758Y-7511140D01*
X14804211Y-7506688D01*
X14798967Y-7502071D01*
X14797052Y-7495352D01*
X14799073Y-7488663D01*
X14804390Y-7484130D01*
X14809451Y-7483050D01*
X14833468Y-7483050D01*
X14833468Y-7483050D01*
X14840774Y-7481597D01*
X14849060Y-7476060D01*
X14854597Y-7467774D01*
X14856050Y-7460467D01*
X14856050Y-7373000D01*
X14889478Y-7373000D01*
X14891360Y-7393308D01*
X14896942Y-7412925D01*
X14896942Y-7412926D01*
X14906033Y-7431182D01*
X14918324Y-7447458D01*
X14933396Y-7461198D01*
X14933396Y-7461198D01*
X14943314Y-7467339D01*
X14950736Y-7471935D01*
X14969754Y-7479302D01*
X14989802Y-7483050D01*
X15010197Y-7483050D01*
X15010198Y-7483050D01*
X15030246Y-7479302D01*
X15049264Y-7471935D01*
X15066604Y-7461198D01*
X15081676Y-7447458D01*
X15093967Y-7431182D01*
X15103058Y-7412925D01*
X15108640Y-7393308D01*
X15110521Y-7373000D01*
X15143478Y-7373000D01*
X15145360Y-7393308D01*
X15150942Y-7412925D01*
X15150942Y-7412926D01*
X15160033Y-7431182D01*
X15172324Y-7447458D01*
X15187396Y-7461198D01*
X15187396Y-7461198D01*
X15197314Y-7467339D01*
X15204736Y-7471935D01*
X15223754Y-7479302D01*
X15243802Y-7483050D01*
X15264197Y-7483050D01*
X15264198Y-7483050D01*
X15284246Y-7479302D01*
X15303264Y-7471935D01*
X15320604Y-7461198D01*
X15335676Y-7447458D01*
X15347967Y-7431182D01*
X15354819Y-7417423D01*
X15359569Y-7412299D01*
X15365918Y-7410550D01*
X16025714Y-7410550D01*
X16032418Y-7412518D01*
X16035419Y-7415422D01*
X16035454Y-7415392D01*
X16035855Y-7415844D01*
X16035919Y-7415906D01*
X16035951Y-7415953D01*
X16035952Y-7415953D01*
X16047776Y-7426428D01*
X16047776Y-7426428D01*
X16061763Y-7433770D01*
X16077101Y-7437550D01*
X16077101Y-7437550D01*
X16092898Y-7437550D01*
X16108236Y-7433770D01*
X16122224Y-7426428D01*
X16134048Y-7415953D01*
X16143022Y-7402952D01*
X16148624Y-7388182D01*
X16150528Y-7372500D01*
X16148624Y-7356818D01*
X16143022Y-7342048D01*
X16134048Y-7329047D01*
X16122224Y-7318572D01*
X16122224Y-7318572D01*
X16122224Y-7318571D01*
X16108236Y-7311230D01*
X16092899Y-7307450D01*
X16092898Y-7307450D01*
X16077101Y-7307450D01*
X16077101Y-7307450D01*
X16061763Y-7311230D01*
X16047776Y-7318571D01*
X16035952Y-7329047D01*
X16035952Y-7329047D01*
X16035229Y-7330094D01*
X16029801Y-7334493D01*
X16025024Y-7335450D01*
X15365918Y-7335450D01*
X15359215Y-7333481D01*
X15354819Y-7328577D01*
X15347967Y-7314818D01*
X15335676Y-7298542D01*
X15335676Y-7298542D01*
X15320604Y-7284802D01*
X15320604Y-7284802D01*
X15303264Y-7274065D01*
X15303263Y-7274065D01*
X15292615Y-7269940D01*
X15284246Y-7266698D01*
X15264198Y-7262950D01*
X15264197Y-7262950D01*
X15243803Y-7262950D01*
X15243802Y-7262950D01*
X15223754Y-7266698D01*
X15223754Y-7266698D01*
X15223754Y-7266698D01*
X15204736Y-7274065D01*
X15204736Y-7274065D01*
X15187396Y-7284802D01*
X15187396Y-7284802D01*
X15172324Y-7298542D01*
X15160033Y-7314818D01*
X15150942Y-7333074D01*
X15150942Y-7333075D01*
X15145360Y-7352692D01*
X15143478Y-7373000D01*
X15143478Y-7373000D01*
X15110521Y-7373000D01*
X15108640Y-7352692D01*
X15103058Y-7333075D01*
X15102221Y-7331394D01*
X15098627Y-7324176D01*
X15093967Y-7314818D01*
X15081676Y-7298542D01*
X15081676Y-7298542D01*
X15066604Y-7284802D01*
X15066604Y-7284802D01*
X15049264Y-7274065D01*
X15049263Y-7274065D01*
X15038615Y-7269940D01*
X15030246Y-7266698D01*
X15010198Y-7262950D01*
X15010197Y-7262950D01*
X14989803Y-7262950D01*
X14989802Y-7262950D01*
X14969754Y-7266698D01*
X14969754Y-7266698D01*
X14969754Y-7266698D01*
X14950736Y-7274065D01*
X14950736Y-7274065D01*
X14933396Y-7284802D01*
X14933396Y-7284802D01*
X14918324Y-7298542D01*
X14906033Y-7314818D01*
X14896942Y-7333074D01*
X14896942Y-7333075D01*
X14891360Y-7352692D01*
X14889478Y-7373000D01*
X14889478Y-7373000D01*
X14856050Y-7373000D01*
X14856050Y-7285533D01*
X14856050Y-7285532D01*
X14856050Y-7285532D01*
X14856050Y-7285532D01*
X14854597Y-7278226D01*
X14854597Y-7278226D01*
X14854597Y-7278226D01*
X14849060Y-7269940D01*
X14840774Y-7264403D01*
X14840774Y-7264403D01*
X14840773Y-7264403D01*
X14833468Y-7262950D01*
X14833467Y-7262950D01*
X14658533Y-7262950D01*
X14658532Y-7262950D01*
X14651226Y-7264403D01*
X14651226Y-7264403D01*
X14642940Y-7269940D01*
X14637403Y-7278226D01*
X14637403Y-7278226D01*
X14635950Y-7285532D01*
X14635950Y-7285532D01*
X14635950Y-7460468D01*
X14635950Y-7460468D01*
X14637403Y-7467773D01*
X14637403Y-7467774D01*
X14637403Y-7467774D01*
X14642940Y-7476060D01*
X14649805Y-7480647D01*
X14651226Y-7481597D01*
X14651226Y-7481597D01*
X14658532Y-7483050D01*
X14658532Y-7483050D01*
X14682549Y-7483050D01*
X14689252Y-7485018D01*
X14693828Y-7490299D01*
X14694822Y-7497215D01*
X14691920Y-7503570D01*
X14687789Y-7506688D01*
X14678242Y-7511140D01*
X14678242Y-7511140D01*
X14658893Y-7524689D01*
X14658892Y-7524689D01*
X14642189Y-7541392D01*
X14642189Y-7541393D01*
X14628640Y-7560742D01*
X14628640Y-7560742D01*
X14618657Y-7582151D01*
X14618657Y-7582151D01*
X14612936Y-7603500D01*
X14612936Y-7603500D01*
X14702631Y-7603500D01*
X14700051Y-7607516D01*
X14696000Y-7621311D01*
X14696000Y-7635689D01*
X14700051Y-7649484D01*
X14702631Y-7653500D01*
X14612936Y-7653500D01*
X13206986Y-7653500D01*
X13206650Y-7649955D01*
X13206640Y-7649825D01*
X13203408Y-7603957D01*
X13203401Y-7603834D01*
X13201586Y-7565448D01*
X13201581Y-7565311D01*
X13200504Y-7519353D01*
X13200502Y-7519207D01*
X13200502Y-7480792D01*
X13200504Y-7480647D01*
X13200535Y-7479302D01*
X13201581Y-7434688D01*
X13201586Y-7434551D01*
X13203401Y-7396165D01*
X13203408Y-7396044D01*
X13206640Y-7350172D01*
X13206650Y-7350046D01*
X13210276Y-7311789D01*
X13210290Y-7311652D01*
X13210785Y-7307450D01*
X13215667Y-7265995D01*
X13215685Y-7265855D01*
X13217234Y-7255000D01*
X13634472Y-7255000D01*
X13636376Y-7270682D01*
X13640573Y-7281747D01*
X13641978Y-7285452D01*
X13650952Y-7298453D01*
X13662776Y-7308928D01*
X13662776Y-7308928D01*
X13676763Y-7316270D01*
X13692101Y-7320050D01*
X13692101Y-7320050D01*
X13707898Y-7320050D01*
X13723236Y-7316270D01*
X13737224Y-7308928D01*
X13749048Y-7298453D01*
X13749426Y-7297906D01*
X13754854Y-7293507D01*
X13759631Y-7292550D01*
X13916149Y-7292550D01*
X13916149Y-7292550D01*
X13948242Y-7288934D01*
X13979729Y-7281747D01*
X14010214Y-7271080D01*
X14039312Y-7257067D01*
X14066659Y-7239884D01*
X14091910Y-7219747D01*
X14114747Y-7196910D01*
X14134884Y-7171659D01*
X14152067Y-7144312D01*
X14166080Y-7115214D01*
X14176747Y-7084729D01*
X14182736Y-7058489D01*
X14186147Y-7052391D01*
X14186683Y-7051949D01*
X14186662Y-7051926D01*
X14187224Y-7051428D01*
X14187224Y-7051428D01*
X14199048Y-7040953D01*
X14208022Y-7027952D01*
X14213624Y-7013182D01*
X14215039Y-7001525D01*
X14217801Y-6995108D01*
X14222197Y-6991741D01*
X14233078Y-6986771D01*
X14237741Y-6983014D01*
X14244640Y-6976116D01*
X14179277Y-6910753D01*
X14161212Y-6928818D01*
X14155079Y-6932167D01*
X14152444Y-6932450D01*
X14142101Y-6932450D01*
X14126763Y-6936230D01*
X14112776Y-6943571D01*
X14100952Y-6954047D01*
X14091978Y-6967047D01*
X14091978Y-6967048D01*
X14086376Y-6981818D01*
X14084472Y-6997500D01*
X14084472Y-6997500D01*
X14086376Y-7013182D01*
X14091978Y-7027952D01*
X14091978Y-7027952D01*
X14100952Y-7040953D01*
X14102464Y-7042293D01*
X14106176Y-7048211D01*
X14106403Y-7053993D01*
X14105290Y-7059587D01*
X14105080Y-7060371D01*
X14100649Y-7073423D01*
X14096812Y-7084729D01*
X14096409Y-7085916D01*
X14096098Y-7086666D01*
X14084167Y-7110860D01*
X14083761Y-7111563D01*
X14068774Y-7133993D01*
X14068280Y-7134637D01*
X14050493Y-7154919D01*
X14049919Y-7155493D01*
X14029637Y-7173280D01*
X14028993Y-7173774D01*
X14006563Y-7188761D01*
X14005860Y-7189167D01*
X13981666Y-7201098D01*
X13980916Y-7201409D01*
X13955371Y-7210080D01*
X13954587Y-7210290D01*
X13928130Y-7215553D01*
X13927325Y-7215659D01*
X13900202Y-7217437D01*
X13899796Y-7217450D01*
X13759631Y-7217450D01*
X13752927Y-7215481D01*
X13749426Y-7212094D01*
X13749048Y-7211547D01*
X13737224Y-7201072D01*
X13737224Y-7201072D01*
X13737224Y-7201071D01*
X13723236Y-7193730D01*
X13707899Y-7189950D01*
X13707898Y-7189950D01*
X13692101Y-7189950D01*
X13692101Y-7189950D01*
X13676763Y-7193730D01*
X13662776Y-7201071D01*
X13662543Y-7201278D01*
X13652370Y-7210290D01*
X13650952Y-7211547D01*
X13641978Y-7224547D01*
X13641978Y-7224548D01*
X13636376Y-7239318D01*
X13634472Y-7255000D01*
X13634472Y-7255000D01*
X13217234Y-7255000D01*
X13221114Y-7227811D01*
X13221131Y-7227696D01*
X13228644Y-7182328D01*
X13228669Y-7182191D01*
X13235887Y-7144450D01*
X13235909Y-7144340D01*
X13245543Y-7099362D01*
X13245573Y-7099229D01*
X13254562Y-7061886D01*
X13254592Y-7061766D01*
X13266326Y-7017279D01*
X13266362Y-7017149D01*
X13277106Y-6980267D01*
X13277133Y-6980177D01*
X13290945Y-6936271D01*
X13290988Y-6936140D01*
X13303458Y-6899817D01*
X13303491Y-6899724D01*
X13319346Y-6856512D01*
X13319400Y-6856370D01*
X13333562Y-6820702D01*
X13333605Y-6820596D01*
X13340987Y-6803066D01*
X13767545Y-6803066D01*
X13823924Y-6859445D01*
X13828588Y-6863203D01*
X13841666Y-6869176D01*
X13841666Y-6869176D01*
X13855898Y-6871222D01*
X13870129Y-6869176D01*
X13870129Y-6869176D01*
X13883207Y-6863203D01*
X13887871Y-6859445D01*
X13898410Y-6848906D01*
X14059884Y-6848906D01*
X14061930Y-6863137D01*
X14061930Y-6863138D01*
X14067903Y-6876216D01*
X14071661Y-6880880D01*
X14071661Y-6880880D01*
X14105050Y-6914269D01*
X14105050Y-6914269D01*
X14143921Y-6875398D01*
X14078559Y-6810035D01*
X14071661Y-6816932D01*
X14071661Y-6816933D01*
X14067903Y-6821596D01*
X14061930Y-6834674D01*
X14061930Y-6834674D01*
X14059884Y-6848906D01*
X13898410Y-6848906D01*
X13915962Y-6831354D01*
X13915962Y-6831354D01*
X13827610Y-6743002D01*
X13827610Y-6743002D01*
X13767545Y-6803066D01*
X13340987Y-6803066D01*
X13351474Y-6778161D01*
X13351527Y-6778039D01*
X13367355Y-6743083D01*
X13367402Y-6742983D01*
X13387243Y-6701427D01*
X13387309Y-6701293D01*
X13398518Y-6679359D01*
X13664034Y-6679359D01*
X13666080Y-6693590D01*
X13666080Y-6693590D01*
X13672053Y-6706668D01*
X13675811Y-6711332D01*
X13732190Y-6767711D01*
X13792255Y-6707646D01*
X13792255Y-6707646D01*
X13703902Y-6619294D01*
X13703902Y-6619294D01*
X13675811Y-6647385D01*
X13672053Y-6652049D01*
X13666080Y-6665127D01*
X13666080Y-6665127D01*
X13664034Y-6679359D01*
X13398518Y-6679359D01*
X13404785Y-6667095D01*
X13426590Y-6626443D01*
X13426658Y-6626321D01*
X13445722Y-6592998D01*
X13451143Y-6583939D01*
X13739258Y-6583939D01*
X13827610Y-6672291D01*
X13951317Y-6795999D01*
X13979409Y-6767907D01*
X13983167Y-6763244D01*
X13989139Y-6750166D01*
X13989139Y-6750166D01*
X13991185Y-6735934D01*
X13989139Y-6721703D01*
X13989139Y-6721702D01*
X13983167Y-6708624D01*
X13979409Y-6703961D01*
X13831295Y-6555848D01*
X13826632Y-6552090D01*
X13813554Y-6546117D01*
X13813553Y-6546117D01*
X13799322Y-6544071D01*
X13785091Y-6546117D01*
X13785090Y-6546117D01*
X13772012Y-6552090D01*
X13767348Y-6555848D01*
X13739258Y-6583939D01*
X13739258Y-6583939D01*
X13451143Y-6583939D01*
X13469414Y-6553405D01*
X13469493Y-6553277D01*
X13490097Y-6520912D01*
X13515626Y-6482461D01*
X13515718Y-6482327D01*
X13537811Y-6450995D01*
X13565133Y-6413757D01*
X13565226Y-6413634D01*
X13588585Y-6383623D01*
X13733160Y-6383623D01*
X13736525Y-6400537D01*
X13736525Y-6400537D01*
X13743125Y-6416470D01*
X13752706Y-6430810D01*
X13752706Y-6430810D01*
X13754373Y-6432476D01*
X13915722Y-6593826D01*
X13915724Y-6593829D01*
X13919158Y-6597263D01*
X13919158Y-6597263D01*
X13925533Y-6603638D01*
X13925534Y-6603639D01*
X13925534Y-6603639D01*
X13931571Y-6608271D01*
X13939839Y-6614615D01*
X13955454Y-6623630D01*
X13972113Y-6630530D01*
X13989529Y-6635197D01*
X13989530Y-6635197D01*
X13989530Y-6635197D01*
X13997377Y-6636230D01*
X14007406Y-6637550D01*
X14016422Y-6637550D01*
X14139399Y-6637550D01*
X14139399Y-6637550D01*
X14144494Y-6637550D01*
X14145100Y-6637580D01*
X14155766Y-6638630D01*
X14158149Y-6639104D01*
X14167529Y-6641949D01*
X14169774Y-6642879D01*
X14178417Y-6647498D01*
X14180438Y-6648849D01*
X14188706Y-6655633D01*
X14189156Y-6656041D01*
X14223643Y-6690528D01*
X14226991Y-6696661D01*
X14226493Y-6703630D01*
X14222306Y-6709223D01*
X14217294Y-6711458D01*
X14213775Y-6712158D01*
X14207581Y-6716297D01*
X14207581Y-6716297D01*
X14170365Y-6753512D01*
X14164233Y-6756861D01*
X14159833Y-6757018D01*
X14152785Y-6756005D01*
X14152785Y-6756005D01*
X14138554Y-6758051D01*
X14138553Y-6758051D01*
X14125475Y-6764024D01*
X14120812Y-6767782D01*
X14120811Y-6767782D01*
X14113914Y-6774679D01*
X14113914Y-6774679D01*
X14179277Y-6840042D01*
X14279995Y-6940760D01*
X14286893Y-6933862D01*
X14290651Y-6929199D01*
X14290651Y-6929199D01*
X14295848Y-6917818D01*
X14300424Y-6912537D01*
X14307128Y-6910569D01*
X14311873Y-6911513D01*
X14315274Y-6912921D01*
X14322165Y-6915776D01*
X14339081Y-6919140D01*
X14356328Y-6919139D01*
X14373244Y-6915773D01*
X14389178Y-6909171D01*
X14403517Y-6899588D01*
X14405982Y-6897122D01*
X14405982Y-6897122D01*
X14410134Y-6892970D01*
X14410134Y-6892970D01*
X14410134Y-6892969D01*
X14485179Y-6817925D01*
X14487634Y-6816094D01*
X14487988Y-6815818D01*
X14487988Y-6815818D01*
X14487988Y-6815818D01*
X14490639Y-6812939D01*
X14491153Y-6812441D01*
X14523949Y-6784207D01*
X14524273Y-6783947D01*
X14559898Y-6757248D01*
X14560238Y-6757011D01*
X14587660Y-6739221D01*
X14597586Y-6732781D01*
X14597944Y-6732565D01*
X14636846Y-6710914D01*
X14637214Y-6710726D01*
X14677491Y-6691754D01*
X14677869Y-6691591D01*
X14719335Y-6675385D01*
X14719729Y-6675246D01*
X14719733Y-6675245D01*
X14732815Y-6671128D01*
X14762192Y-6661882D01*
X14762594Y-6661770D01*
X14805867Y-6651305D01*
X14806274Y-6651221D01*
X14850153Y-6643705D01*
X14850566Y-6643649D01*
X14894853Y-6639116D01*
X14895268Y-6639087D01*
X14918154Y-6638301D01*
X14939907Y-6637554D01*
X14940120Y-6637550D01*
X14998191Y-6637550D01*
X14998702Y-6637571D01*
X15001131Y-6637772D01*
X15003143Y-6637939D01*
X15003143Y-6637939D01*
X15003144Y-6637939D01*
X15003182Y-6637929D01*
X15006226Y-6637550D01*
X15059920Y-6637550D01*
X15060133Y-6637554D01*
X15082559Y-6638324D01*
X15104732Y-6639086D01*
X15105147Y-6639114D01*
X15149434Y-6643647D01*
X15149848Y-6643704D01*
X15175361Y-6648074D01*
X15193724Y-6651219D01*
X15194135Y-6651304D01*
X15220029Y-6657566D01*
X15237405Y-6661768D01*
X15237808Y-6661880D01*
X15280271Y-6675245D01*
X15280667Y-6675384D01*
X15322128Y-6691588D01*
X15322513Y-6691754D01*
X15362786Y-6710724D01*
X15363155Y-6710914D01*
X15385859Y-6723549D01*
X15402055Y-6732564D01*
X15402415Y-6732780D01*
X15434372Y-6753512D01*
X15439534Y-6756861D01*
X15439760Y-6757008D01*
X15440103Y-6757247D01*
X15475165Y-6783524D01*
X15475726Y-6783945D01*
X15476053Y-6784207D01*
X15509441Y-6812951D01*
X15509779Y-6813264D01*
X15523217Y-6826703D01*
X15531479Y-6834965D01*
X15531484Y-6834971D01*
X15531790Y-6835277D01*
X15531790Y-6835277D01*
X15531973Y-6835460D01*
X15531980Y-6835472D01*
X15541703Y-6845193D01*
X15541704Y-6845194D01*
X15551303Y-6851607D01*
X15556043Y-6854773D01*
X15556044Y-6854774D01*
X15556044Y-6854774D01*
X15571976Y-6861372D01*
X15571977Y-6861372D01*
X15588891Y-6864735D01*
X15606136Y-6864735D01*
X15623050Y-6861370D01*
X15638983Y-6854770D01*
X15653322Y-6845189D01*
X15653322Y-6845189D01*
X15653460Y-6845097D01*
X15660127Y-6843009D01*
X15662790Y-6843250D01*
X15662820Y-6843256D01*
X15662838Y-6843260D01*
X15669023Y-6846510D01*
X15672469Y-6852588D01*
X15672558Y-6852997D01*
X15673297Y-6856712D01*
X15676062Y-6860851D01*
X15677435Y-6862906D01*
X15723312Y-6908783D01*
X15729506Y-6912921D01*
X15733520Y-6913720D01*
X15739711Y-6916958D01*
X15743168Y-6923030D01*
X15743262Y-6923462D01*
X15744061Y-6927477D01*
X15748200Y-6933671D01*
X15794076Y-6979547D01*
X15800270Y-6983686D01*
X15810044Y-6985630D01*
X15819818Y-6983686D01*
X15826013Y-6979547D01*
X15924872Y-6880687D01*
X15929011Y-6874493D01*
X15930956Y-6864719D01*
X15929789Y-6858855D01*
X15930412Y-6851896D01*
X15933182Y-6847668D01*
X15933683Y-6847167D01*
X16099851Y-6847167D01*
X16127942Y-6875258D01*
X16127942Y-6875258D01*
X16132605Y-6879016D01*
X16145683Y-6884989D01*
X16145684Y-6884989D01*
X16159915Y-6887035D01*
X16174147Y-6884989D01*
X16174147Y-6884989D01*
X16187225Y-6879016D01*
X16191888Y-6875258D01*
X16248267Y-6818879D01*
X16248267Y-6818879D01*
X16188203Y-6758815D01*
X16188203Y-6758815D01*
X16099851Y-6847167D01*
X15933683Y-6847167D01*
X16010345Y-6770505D01*
X16016477Y-6767157D01*
X16023447Y-6767655D01*
X16029040Y-6771842D01*
X16030393Y-6774122D01*
X16032646Y-6779057D01*
X16036404Y-6783721D01*
X16064495Y-6811812D01*
X16152848Y-6723459D01*
X16223558Y-6723459D01*
X16283623Y-6783524D01*
X16340001Y-6727145D01*
X16340002Y-6727145D01*
X16343760Y-6722481D01*
X16349732Y-6709404D01*
X16349733Y-6709403D01*
X16351779Y-6695172D01*
X16349733Y-6680940D01*
X16349732Y-6680940D01*
X16343760Y-6667862D01*
X16340002Y-6663198D01*
X16311911Y-6635107D01*
X16223558Y-6723459D01*
X16223558Y-6723459D01*
X16152848Y-6723459D01*
X16188203Y-6688104D01*
X16276555Y-6599752D01*
X16276555Y-6599752D01*
X16248464Y-6571661D01*
X16248464Y-6571661D01*
X16243801Y-6567903D01*
X16230723Y-6561930D01*
X16230722Y-6561930D01*
X16216491Y-6559884D01*
X16202259Y-6561930D01*
X16202259Y-6561930D01*
X16189181Y-6567903D01*
X16184517Y-6571661D01*
X16184517Y-6571661D01*
X16172411Y-6583767D01*
X16166279Y-6587115D01*
X16159310Y-6586617D01*
X16153716Y-6582430D01*
X16151275Y-6575883D01*
X16151243Y-6574999D01*
X16151243Y-6569044D01*
X16151243Y-6567234D01*
X16151243Y-6567234D01*
X16151243Y-6445527D01*
X16153212Y-6438823D01*
X16155421Y-6436245D01*
X16156257Y-6435504D01*
X16161556Y-6430810D01*
X16162741Y-6429760D01*
X16162741Y-6429760D01*
X16171715Y-6416759D01*
X16177317Y-6401989D01*
X16178581Y-6391581D01*
X16181343Y-6385163D01*
X16187136Y-6381257D01*
X16190890Y-6380675D01*
X16192332Y-6380675D01*
X16207670Y-6376895D01*
X16216885Y-6372058D01*
X16221657Y-6369554D01*
X16233481Y-6359078D01*
X16242455Y-6346078D01*
X16248057Y-6331307D01*
X16249961Y-6315625D01*
X16249947Y-6315512D01*
X16248057Y-6299943D01*
X16245141Y-6292254D01*
X16242455Y-6285173D01*
X16233481Y-6272172D01*
X16221657Y-6261697D01*
X16221657Y-6261697D01*
X16221657Y-6261697D01*
X16207670Y-6254356D01*
X16192332Y-6250575D01*
X16192332Y-6250575D01*
X16176535Y-6250575D01*
X16176534Y-6250575D01*
X16161196Y-6254356D01*
X16147209Y-6261697D01*
X16135769Y-6271832D01*
X16129446Y-6274804D01*
X16127547Y-6274950D01*
X16066377Y-6274950D01*
X16049463Y-6278314D01*
X16049462Y-6278315D01*
X16033530Y-6284914D01*
X16033529Y-6284914D01*
X16019190Y-6294495D01*
X16019190Y-6294496D01*
X16006996Y-6306690D01*
X16006995Y-6306690D01*
X15997414Y-6321029D01*
X15997414Y-6321030D01*
X15990815Y-6336962D01*
X15990814Y-6336963D01*
X15987450Y-6353877D01*
X15987450Y-6513981D01*
X15987450Y-6513983D01*
X15987450Y-6519494D01*
X15987420Y-6520101D01*
X15986370Y-6530766D01*
X15985896Y-6533150D01*
X15983051Y-6542528D01*
X15982121Y-6544774D01*
X15977502Y-6553417D01*
X15976151Y-6555438D01*
X15969367Y-6563705D01*
X15968959Y-6564155D01*
X15968313Y-6564802D01*
X15809471Y-6723643D01*
X15803339Y-6726991D01*
X15796370Y-6726493D01*
X15790777Y-6722306D01*
X15788542Y-6717294D01*
X15787842Y-6713775D01*
X15783703Y-6707581D01*
X15746487Y-6670365D01*
X15743139Y-6664233D01*
X15742982Y-6659833D01*
X15743995Y-6652785D01*
X15741949Y-6638554D01*
X15741949Y-6638553D01*
X15735976Y-6625475D01*
X15732218Y-6620812D01*
X15725320Y-6613914D01*
X15633370Y-6705864D01*
X15627238Y-6709212D01*
X15620269Y-6708714D01*
X15615834Y-6705864D01*
X15550376Y-6640406D01*
X15516987Y-6673794D01*
X15516987Y-6673795D01*
X15513228Y-6678459D01*
X15507256Y-6691537D01*
X15507006Y-6692388D01*
X15506655Y-6692285D01*
X15504446Y-6697076D01*
X15498555Y-6700833D01*
X15491568Y-6700808D01*
X15488007Y-6699091D01*
X15462398Y-6681218D01*
X15419520Y-6655418D01*
X15419517Y-6655416D01*
X15374994Y-6632573D01*
X15329026Y-6612792D01*
X15307055Y-6605050D01*
X15585731Y-6605050D01*
X15624602Y-6643921D01*
X15624602Y-6643921D01*
X15689965Y-6578559D01*
X15689965Y-6578558D01*
X15683068Y-6571661D01*
X15683068Y-6571661D01*
X15678404Y-6567903D01*
X15665326Y-6561930D01*
X15665325Y-6561930D01*
X15651094Y-6559884D01*
X15636862Y-6561930D01*
X15636862Y-6561930D01*
X15623784Y-6567903D01*
X15619120Y-6571661D01*
X15619120Y-6571661D01*
X15585731Y-6605050D01*
X15307055Y-6605050D01*
X15281828Y-6596162D01*
X15233611Y-6582760D01*
X15184603Y-6572649D01*
X15184603Y-6572649D01*
X15184601Y-6572649D01*
X15184600Y-6572649D01*
X15184599Y-6572649D01*
X15135020Y-6565873D01*
X15135020Y-6565873D01*
X15135019Y-6565873D01*
X15135018Y-6565873D01*
X15135018Y-6565873D01*
X15085092Y-6562464D01*
X15085091Y-6562464D01*
X15073323Y-6562458D01*
X15066620Y-6560485D01*
X15062047Y-6555202D01*
X15061057Y-6548286D01*
X15061735Y-6545661D01*
X15063624Y-6540682D01*
X15065528Y-6525000D01*
X15065195Y-6522263D01*
X15063624Y-6509318D01*
X15060609Y-6501368D01*
X15058022Y-6494548D01*
X15049048Y-6481547D01*
X15037224Y-6471072D01*
X15037224Y-6471072D01*
X15037224Y-6471071D01*
X15023236Y-6463730D01*
X15007899Y-6459950D01*
X15007898Y-6459950D01*
X14992101Y-6459950D01*
X14992101Y-6459950D01*
X14976763Y-6463730D01*
X14962776Y-6471071D01*
X14950952Y-6481547D01*
X14941978Y-6494547D01*
X14941978Y-6494548D01*
X14936376Y-6509318D01*
X14934472Y-6525000D01*
X14934472Y-6525000D01*
X14936376Y-6540682D01*
X14936376Y-6540682D01*
X14938265Y-6545662D01*
X14938802Y-6552628D01*
X14935487Y-6558779D01*
X14929373Y-6562161D01*
X14926678Y-6562459D01*
X14914909Y-6562466D01*
X14914908Y-6562466D01*
X14864981Y-6565875D01*
X14864981Y-6565875D01*
X14815401Y-6572650D01*
X14815400Y-6572650D01*
X14815399Y-6572650D01*
X14815398Y-6572651D01*
X14815397Y-6572651D01*
X14766389Y-6582762D01*
X14718173Y-6596163D01*
X14670978Y-6612791D01*
X14670974Y-6612793D01*
X14670974Y-6612793D01*
X14670974Y-6612793D01*
X14625007Y-6632574D01*
X14580483Y-6655418D01*
X14580483Y-6655418D01*
X14537602Y-6681220D01*
X14504540Y-6704294D01*
X14497916Y-6706517D01*
X14491142Y-6704805D01*
X14486369Y-6699703D01*
X14485111Y-6692830D01*
X14485281Y-6691708D01*
X14485630Y-6689955D01*
X14483686Y-6680181D01*
X14479547Y-6673987D01*
X14380687Y-6575127D01*
X14374493Y-6570989D01*
X14364719Y-6569044D01*
X14358855Y-6570211D01*
X14351896Y-6569588D01*
X14347668Y-6566817D01*
X14313112Y-6532261D01*
X14313111Y-6532260D01*
X14312221Y-6531370D01*
X14312216Y-6531361D01*
X14308589Y-6527734D01*
X14308590Y-6527734D01*
X14302214Y-6521360D01*
X14302214Y-6521359D01*
X14302214Y-6521359D01*
X14287909Y-6510383D01*
X14287908Y-6510383D01*
X14272294Y-6501369D01*
X14272293Y-6501368D01*
X14262169Y-6497175D01*
X14256729Y-6492791D01*
X14254522Y-6486162D01*
X14256250Y-6479392D01*
X14261364Y-6474631D01*
X14265151Y-6473445D01*
X14265979Y-6473326D01*
X14265979Y-6473326D01*
X14279057Y-6467354D01*
X14283721Y-6463596D01*
X14295999Y-6451317D01*
X15704001Y-6451317D01*
X15732092Y-6479408D01*
X15732092Y-6479409D01*
X15736756Y-6483167D01*
X15749834Y-6489139D01*
X15749834Y-6489139D01*
X15764066Y-6491185D01*
X15778297Y-6489139D01*
X15778297Y-6489139D01*
X15791375Y-6483167D01*
X15796039Y-6479409D01*
X15852418Y-6423030D01*
X15852418Y-6423029D01*
X15792353Y-6362965D01*
X15792353Y-6362965D01*
X15704001Y-6451317D01*
X14295999Y-6451317D01*
X14311812Y-6435504D01*
X14311812Y-6435504D01*
X14223460Y-6347152D01*
X14223460Y-6347152D01*
X14163395Y-6407217D01*
X14219774Y-6463596D01*
X14222007Y-6465395D01*
X14225991Y-6471134D01*
X14226241Y-6478116D01*
X14222676Y-6484125D01*
X14216428Y-6487253D01*
X14214226Y-6487450D01*
X14211324Y-6487450D01*
X14066725Y-6487450D01*
X14066117Y-6487420D01*
X14055453Y-6486370D01*
X14053069Y-6485896D01*
X14043691Y-6483051D01*
X14041445Y-6482121D01*
X14032802Y-6477501D01*
X14030781Y-6476151D01*
X14022505Y-6469359D01*
X14022055Y-6468951D01*
X13954723Y-6401619D01*
X13951375Y-6395487D01*
X13951182Y-6391357D01*
X13951805Y-6386223D01*
X13949901Y-6370541D01*
X13944299Y-6355771D01*
X13935325Y-6342770D01*
X13923501Y-6332295D01*
X13923501Y-6332295D01*
X13923501Y-6332295D01*
X13909514Y-6324953D01*
X13894176Y-6321173D01*
X13894176Y-6321173D01*
X13892838Y-6321173D01*
X13886134Y-6319205D01*
X13881559Y-6313924D01*
X13880529Y-6310268D01*
X13880094Y-6306690D01*
X13879261Y-6299830D01*
X13873659Y-6285060D01*
X13872589Y-6283509D01*
X14059884Y-6283509D01*
X14061930Y-6297740D01*
X14061930Y-6297741D01*
X14067903Y-6310819D01*
X14071661Y-6315482D01*
X14071661Y-6315483D01*
X14128040Y-6371861D01*
X14188104Y-6311797D01*
X14188104Y-6311797D01*
X14258815Y-6311797D01*
X14347167Y-6400149D01*
X14375258Y-6372058D01*
X14375258Y-6372058D01*
X14379016Y-6367394D01*
X14384267Y-6355898D01*
X15628778Y-6355898D01*
X15630824Y-6370129D01*
X15630824Y-6370129D01*
X15636796Y-6383207D01*
X15640554Y-6387871D01*
X15640555Y-6387871D01*
X15668646Y-6415962D01*
X15668646Y-6415962D01*
X15756998Y-6327610D01*
X15827709Y-6327610D01*
X15887773Y-6387674D01*
X15944152Y-6331296D01*
X15944152Y-6331295D01*
X15947910Y-6326632D01*
X15953883Y-6313554D01*
X15953883Y-6313553D01*
X15955929Y-6299322D01*
X15953883Y-6285091D01*
X15953883Y-6285090D01*
X15947910Y-6272012D01*
X15944152Y-6267349D01*
X15916061Y-6239258D01*
X15827709Y-6327610D01*
X15756998Y-6327610D01*
X15756998Y-6327610D01*
X15696934Y-6267545D01*
X15696933Y-6267545D01*
X15640555Y-6323924D01*
X15636796Y-6328588D01*
X15630824Y-6341666D01*
X15630824Y-6341666D01*
X15628778Y-6355898D01*
X14384267Y-6355898D01*
X14384989Y-6354316D01*
X14384989Y-6354316D01*
X14387035Y-6340085D01*
X14384989Y-6325853D01*
X14384989Y-6325853D01*
X14379016Y-6312775D01*
X14375258Y-6308111D01*
X14375258Y-6308110D01*
X14318879Y-6251732D01*
X14318879Y-6251732D01*
X14258815Y-6311797D01*
X14188104Y-6311797D01*
X14099752Y-6223444D01*
X14071661Y-6251535D01*
X14071661Y-6251536D01*
X14067903Y-6256199D01*
X14061930Y-6269277D01*
X14061930Y-6269278D01*
X14059884Y-6283509D01*
X13872589Y-6283509D01*
X13864686Y-6272059D01*
X13852861Y-6261584D01*
X13852861Y-6261583D01*
X13852861Y-6261583D01*
X13838874Y-6254242D01*
X13823536Y-6250462D01*
X13823536Y-6250462D01*
X13807739Y-6250462D01*
X13807739Y-6250462D01*
X13792401Y-6254242D01*
X13778414Y-6261583D01*
X13766589Y-6272059D01*
X13757616Y-6285059D01*
X13757615Y-6285059D01*
X13752014Y-6299830D01*
X13750110Y-6315512D01*
X13750110Y-6315512D01*
X13750333Y-6317351D01*
X13749187Y-6324243D01*
X13748334Y-6325734D01*
X13743125Y-6333529D01*
X13736525Y-6349462D01*
X13736525Y-6349463D01*
X13733160Y-6366377D01*
X13733160Y-6366377D01*
X13733160Y-6383623D01*
X13733160Y-6383623D01*
X13733160Y-6383623D01*
X13588585Y-6383623D01*
X13588760Y-6383397D01*
X13617816Y-6347459D01*
X13617909Y-6347347D01*
X13642829Y-6318275D01*
X13673552Y-6283721D01*
X13673660Y-6283603D01*
X13699900Y-6255765D01*
X13732222Y-6222677D01*
X13732344Y-6222556D01*
X13759847Y-6196011D01*
X13768346Y-6188089D01*
X14135107Y-6188089D01*
X14223460Y-6276441D01*
X14223460Y-6276441D01*
X14267711Y-6232190D01*
X15732289Y-6232190D01*
X15792353Y-6292254D01*
X15792353Y-6292254D01*
X15880706Y-6203902D01*
X15852614Y-6175811D01*
X15847951Y-6172053D01*
X15834873Y-6166080D01*
X15834872Y-6166080D01*
X15820641Y-6164034D01*
X15806410Y-6166080D01*
X15806409Y-6166080D01*
X15793331Y-6172053D01*
X15788667Y-6175811D01*
X15732289Y-6232190D01*
X15732289Y-6232190D01*
X14267711Y-6232190D01*
X14283524Y-6216377D01*
X14227145Y-6159998D01*
X14222481Y-6156240D01*
X14209404Y-6150267D01*
X14209403Y-6150267D01*
X14195172Y-6148221D01*
X14180940Y-6150267D01*
X14180940Y-6150267D01*
X14167862Y-6156240D01*
X14163198Y-6159998D01*
X14135107Y-6188089D01*
X14135107Y-6188089D01*
X13768346Y-6188089D01*
X13793709Y-6164450D01*
X13793833Y-6164338D01*
X13822533Y-6139143D01*
X13857863Y-6109183D01*
X13857992Y-6109077D01*
X13887823Y-6085287D01*
X13924555Y-6056987D01*
X13924679Y-6056895D01*
X13955570Y-6034562D01*
X13993614Y-6007998D01*
X13993754Y-6007903D01*
X14025627Y-5987079D01*
X14064910Y-5962304D01*
X14065053Y-5962217D01*
X14097838Y-5942943D01*
X14138274Y-5920017D01*
X14138426Y-5919933D01*
X14172039Y-5902253D01*
X14213545Y-5881227D01*
X14213705Y-5881149D01*
X14248068Y-5865098D01*
X14290565Y-5846018D01*
X14290723Y-5845950D01*
X14325757Y-5831559D01*
X14369144Y-5814475D01*
X14369323Y-5814408D01*
X14404931Y-5801712D01*
X14449132Y-5786659D01*
X14449308Y-5786602D01*
X14485420Y-5775619D01*
X14530333Y-5762639D01*
X14530524Y-5762587D01*
X14567048Y-5753338D01*
X14605600Y-5744130D01*
X14612571Y-5742465D01*
X14612772Y-5742421D01*
X14649623Y-5734921D01*
X14695683Y-5726179D01*
X14695875Y-5726146D01*
X14732967Y-5720406D01*
X14779463Y-5713822D01*
X14779652Y-5713799D01*
X14816899Y-5709824D01*
X14863725Y-5705420D01*
X14863927Y-5705405D01*
X14901223Y-5703200D01*
X14948296Y-5700991D01*
X14948500Y-5700985D01*
X14985766Y-5700545D01*
X15032975Y-5700545D01*
X15033194Y-5700548D01*
G37*
%TD.AperFunction*%
%TD*%
M02*
